<?xml version="1.0" encoding="UTF-8" standalone="no"?>
<svg
   version="1.1"
   width="1492.3644"
   height="1700.7867"
   id="svg7"
   viewBox="0 0 1492.3644 1700.7868"
   sodipodi:docname="c5634bda398774ba963999aceb01c346.cdr"
   xmlns:inkscape="http://www.inkscape.org/namespaces/inkscape"
   xmlns:sodipodi="http://sodipodi.sourceforge.net/DTD/sodipodi-0.dtd"
   xmlns="http://www.w3.org/2000/svg"
   xmlns:svg="http://www.w3.org/2000/svg">
  <defs
     id="defs11" />
  <sodipodi:namedview
     id="namedview9"
     pagecolor="#ffffff"
     bordercolor="#666666"
     borderopacity="1.0"
     inkscape:pageshadow="2"
     inkscape:pageopacity="0.0"
     inkscape:pagecheckerboard="0" />
  <g
     id="Layer1000"
     transform="translate(-387.67609,-283.46502)">
    <path
       d="m 1116.2666,284.4792 c 5.0572,-2.3249 11.119,-0.4459 14.8006,3.5329 66.2868,66.9936 132.4065,134.1543 198.7308,201.111 4.9829,4.2197 7.4374,12.0298 3.3094,17.6827 -5.0946,6.6004 -11.6582,11.8627 -17.4222,17.8502 -198.9169,196.4992 -397.8896,392.943 -596.75,589.498 -4.7416,4.537 -9.0925,9.5389 -14.2804,13.5921 -5.15,4.0347 -12.9037,2.6775 -17.125,-2.0635 -66.5657,-67.3099 -133.0201,-134.7125 -199.5673,-202.0408 -5.987,-5.0767 -6.0613,-14.8934 0,-19.9327 204.5322,-202.0592 409.1198,-404.0804 613.6331,-606.1581 4.7974,-4.4263 8.8321,-9.9289 14.671,-13.0718 z m 435.04,431.079 c 5.1315,-3.1429 12.0108,-1.5058 15.9343,2.8451 66.5667,67.3088 133.0385,134.712 199.5673,202.0403 5.9875,5.0756 6.0428,14.8939 0,19.9327 -207.6552,205.1641 -415.3857,410.2725 -623.0229,615.4556 -5.0577,6.0423 -14.9308,6.3217 -20.0813,0.2414 -66.2868,-66.9936 -132.3881,-134.1543 -198.7123,-201.092 -4.9829,-4.2767 -7.4934,-12.0673 -3.3095,-17.7201 4.7784,-6.2663 10.9889,-11.2492 16.4551,-16.9015 202.989,-200.4975 405.9774,-400.9945 608.9474,-601.4915 1.284,-1.246 2.6965,-2.3428 4.2213,-3.3095 z M 536.3437,1712.6149 c 14.0944,-9.1484 26.831,-20.4719 41.873,-28.058 0.9672,40.5158 0.1676,81.0874 0.409,121.6222 0.3352,9.0735 -1.3197,19.0772 3.6073,27.2768 3.31,5.4478 10.115,7.1402 16.1025,6.9173 63.8697,-0.093 127.7583,0.037 191.628,-0.075 8.4605,0.242 13.5736,-7.828 15.4326,-15.0794 2.6595,-6.4334 3.0122,-14.7263 9.074,-19.0957 5.2991,-1.3946 8.1253,4.1464 9.873,8.1443 3.6821,8.7572 4.7415,19.765 13.7781,25.0457 18.2224,-18.8543 33.2275,-41.2969 55.4656,-55.9119 12.8668,-8.7204 28.6715,-14.8191 44.3834,-11.565 16.7345,3.291 28.8391,19.5232 29.5454,36.2017 1.1158,10.7101 -2.3613,20.9927 -5.3735,31.0892 8.7578,2.1193 17.7944,1.3387 26.7193,1.4505 8.9253,-0.075 17.9804,0.6135 26.7382,-1.5622 -0.3906,-2.5848 -0.075,-5.4478 -1.5992,-7.6789 -7.01,-10.3943 -16.9205,-18.2782 -25.4363,-27.3333 0.5207,-5.5779 5.1874,-9.6685 7.9392,-14.3173 8.0515,-11.2308 15.2471,-23.0745 23.8931,-33.8779 21.8665,22.4057 28.4675,55.298 26.4404,85.6245 -1.2454,19.0029 -2.9748,41.2226 -18.6308,54.3687 -17.3105,13.6105 -40.7762,12.0298 -61.5269,11.751 -15.0235,-0.2788 -25.6408,-12.8299 -31.7954,-25.2687 -12.0672,15.1163 -31.2562,22.3498 -50.0731,23.8372 -23.0377,2.1009 -48.2326,-1.6734 -66.4919,-16.8277 -6.3585,9.6316 -16.0092,18.9102 -28.3926,18.3894 -66.1751,0.056 -132.3692,0.223 -198.5448,-0.093 -16.7344,0.1297 -35.5887,-2.1941 -47.2654,-15.5448 -13.2199,-14.6704 -13.3132,-35.6625 -13.1456,-54.2565 -0.818,-37.2806 -2.064,-74.6171 -5.8015,-111.7301 -1.1527,-7.1402 6.7122,-9.7993 11.1749,-13.4434 z m 357.8013,106.9143 c -13.6111,6.2658 -24.9536,16.4182 -35.5703,26.8125 20.0997,0.223 40.7577,0.5576 60.0394,-6.0059 3.7934,-1.5623 8.3483,-2.9379 10.4497,-6.7681 0.7627,-6.1177 -2.1014,-12.9412 -7.9582,-15.47 -8.5902,-3.7933 -18.6498,-2.473 -26.9612,1.4315 z m 175.9719,-86.4614 c 15.47,-15.8606 29.2292,-33.4499 45.6848,-48.3064 10.0591,37.6706 9.8361,77.127 9.9473,115.8392 -0.2972,17.5155 1.1159,35.2166 -2.0265,52.5651 -2.3797,13.7032 -4.9835,27.5188 -10.2636,40.4414 -2.4172,5.2433 -5.0762,10.933 -10.0966,14.2056 -3.9604,1.8595 -7.2888,-1.4689 -8.8505,-4.7974 -4.5186,-8.9992 -5.783,-19.1516 -7.847,-28.876 -7.9951,-43.5838 -14.4285,-87.4096 -21.1223,-131.198 -1.5433,-4.2023 2.1383,-7.1027 4.5739,-9.8735 z m 696.0414,-32.7252 c 7.9946,-5.4478 15.4505,-11.8438 24.3759,-15.7857 1.1722,45.9635 -0.242,91.9835 0.7062,137.9476 6e-4,8.7947 6.3222,17.7011 15.712,17.7569 13.8529,0.223 27.9462,1.4505 41.6315,-1.227 0.6515,-7.624 -5.4852,-12.8114 -10.0037,-17.9988 -5.3914,-5.9875 -11.6398,-11.1006 -17.0502,-17.0507 0.651,-5.5595 5.2059,-9.6317 7.9767,-14.2615 8.0699,-11.1749 15.1727,-23.0935 23.93,-33.7666 15.5264,15.8605 23.707,37.7829 25.9386,59.612 1.2465,16.9574 0.9108,34.2126 -2.473,50.9285 -2.4915,12.6808 -8.4231,25.6409 -20.007,32.3905 -17.7385,10.8028 -39.3257,8.5159 -59.1471,8.5159 -16.1579,0.055 -33.9707,-4.6298 -43.8069,-18.4079 -11.2676,-15.2101 -10.6731,-35.068 -10.6541,-53.0853 -0.9108,-36.6487 -2.1014,-73.3527 -5.8015,-109.8522 -0.1486,-2.6591 0.1118,-5.6897 2.6217,-7.1961 8.4231,-6.5077 17.4038,-12.2902 26.0498,-18.5191 z m -782.4469,11.2492 c 7.3816,-8.3856 15.1722,-16.4366 23.5763,-23.7813 8.4236,7.5861 16.9579,15.1543 24.544,23.6142 -6.9352,8.9064 -15.6745,16.3255 -24.0791,23.8373 -8.2365,-7.6605 -16.5853,-15.2471 -24.0418,-23.6697 z m 672.5567,-0.093 c 6.7497,-8.6461 14.9867,-16.0277 22.8701,-23.6328 8.9633,7.233 17.1065,15.4516 25.2133,23.6328 -7.5302,8.3856 -15.7862,16.0835 -24.0232,23.7629 -8.3483,-7.5308 -17.2737,-14.7632 -24.0602,-23.7629 z m -323.9787,17.9245 c 38.4529,-12.6813 76.8298,-25.6224 115.3933,-37.9684 -1.4505,18.8353 -3.4212,37.6711 -5.6154,56.4322 -23.2232,8.237 -46.6519,15.8415 -69.8756,24.0601 13.5736,15.7119 27.2215,31.3306 40.9991,46.8564 10.4686,11.3979 24.4697,21.2346 40.4973,21.6436 75.0083,-0.1861 150.0339,-0.1676 225.041,0.055 3.6637,0.074 10.6732,-0.9292 8.888,-6.1914 -6.5077,-12.5327 -18.5006,-20.9737 -27.7233,-31.3865 10.5245,-15.8605 21.1223,-31.7211 32.4464,-47.0235 19.8952,19.7093 27.4439,48.9389 26.8309,76.3091 -0.3715,18.761 -1.1532,38.8792 -11.2682,55.3164 -10.6541,16.1024 -31.535,20.0439 -49.5339,20.1187 -65.152,0.2599 -130.3057,0.018 -195.4582,0.1112 -24.2831,0.8929 -44.9969,-15.5627 -60.1138,-32.9855 -7.3811,13.7971 -19.7835,24.6742 -34.6216,29.8062 -25.6587,9.1663 -53.3272,6.805 -80.0649,7.1028 -20.192,-0.614 -41.4086,-2.4171 -59.3332,-12.5695 -13.3127,-7.5492 -22.275,-21.3458 -25.1385,-36.2392 -3.5699,-18.6872 -1.6366,-38.3779 5.1131,-56.1533 2.0829,-5.0762 4.4995,-10.5614 9.3154,-13.5921 3.7564,-2.3244 9.483,-0.7437 10.8402,3.6816 2.7892,8.7947 0.3162,18.5749 4.2208,27.1656 3.1798,8.4226 11.5654,13.22 19.6913,15.9159 17.9994,5.8015 37.1688,5.4109 55.8555,5.3551 18.7806,-0.5018 37.9316,-0.223 56.2462,-4.9271 3.5704,-0.186 5.3181,-4.6856 2.2316,-6.8614 -15.0425,-17.9804 -31.5356,-34.6774 -47.656,-51.6722 2.4361,-14.4291 4.9829,-28.8576 7.3632,-43.305 0.6694,-3.6258 0.9108,-8.3857 5.4293,-9.0551 z m -861.6748,79.823 c 18.7425,13.7038 32.0183,34.9568 34.659,58.1989 4.5554,35.5514 2.0265,74.896 -19.8025,104.7761 -4.1091,4.946 -8.0884,12.1231 -15.4331,11.9375 -22.9634,0.1671 -45.9083,-0.037 -68.8526,0.093 -4.2767,0 -9.4272,-0.2229 -12.0488,-4.1649 -2.5289,-4.4258 -1.9713,-11.3794 3.2351,-13.592 22.48,-11.4169 43.6766,-25.2509 63.8697,-40.2744 7.5308,-6.0434 15.5074,-12.1047 20.5277,-20.4719 3.0866,-4.7784 -0.2419,-9.9664 -3.0865,-13.8524 -8.3856,-11.2124 -18.6867,-20.7876 -28.8206,-30.3824 8.5901,-17.4222 16.4556,-35.2166 25.7526,-52.2673 z m 1352.7565,143.5446 c 6.173,-8.888 14.7073,-16.0835 22.6655,-23.3724 9.5389,6.2474 17.0876,15.2097 25.2688,23.112 -7.846,7.7722 -15.3583,15.9723 -23.7255,23.1863 -9.0182,-6.4334 -16.6601,-14.8375 -24.2088,-22.9259 z"
       style="fill:#c6393b;fill-rule:evenodd"
       id="path2" />
    <path
       d="m 694.6889,487.9135 c 65.171,0.0564 130.361,-0.0922 195.5326,0.0938 -65.0783,64.3525 -130.1196,128.7809 -195.4398,192.9293 -0.223,-64.335 -0.0374,-128.6875 -0.0933,-193.0221 z m 636.7451,-0.0364 c 80.4929,0.0928 160.9853,0.0185 241.4966,0.0374 -0.036,77.7775 0.074,155.537 -0.074,233.315 -5.0578,-4.7236 -10.134,-10.1519 -17.1993,-11.6024 -8.9992,-2.3618 -18.8728,0.7253 -25.2134,7.419 -18.4074,18.166 -36.8342,36.295 -55.1678,54.5353 -1.9338,2.7893 -5.4667,2.3803 -8.4046,2.4177 -128.3708,-0.1118 -256.7247,0 -385.0781,-0.0374 80.0839,-79.1363 160.1862,-158.2335 240.288,-237.3502 6.9921,-7.2709 16.4557,-13.8709 17.7575,-24.6927 1.7293,-8.9443 -2.5104,-17.5708 -8.4046,-24.0417 z m -612.7033,644.6848 c 16.4371,-15.8421 32.1854,-32.5207 49.05,-47.8605 130.1571,-0.3905 260.351,-0.1302 390.5075,-0.1302 -84.1366,83.3375 -168.5899,166.4146 -252.7085,249.7895 -9.8172,9.7803 -8.5717,26.1058 0.0559,36.2392 -70.3215,-0.1486 -140.6251,-0.055 -210.9472,-0.055 0.019,-72.3301 -0.0553,-144.6603 0.0374,-216.99 -0.6693,-3.1424 2.8077,-3.719 4.8533,-4.7599 7.8839,-3.3474 12.978,-10.6173 19.1516,-16.2327 z m 631.0748,237.9821 c 74.3752,-73.3153 148.5264,-146.8909 223.0134,-220.0944 0.2424,73.3706 0.037,146.7423 0.1117,220.0949 -74.3752,-0.019 -148.7504,-0.019 -223.1251,-5e-4 z"
       style="fill:#ffcc29;fill-rule:evenodd"
       id="path4" />
  </g>
</svg>
