<?xml version="1.0" encoding="UTF-8" standalone="no"?>
<svg
   version="1.1"
   width="1395.1953"
   height="1700.7872"
   id="svg9"
   viewBox="0 0 1395.1953 1700.7873"
   sodipodi:docname="cf8b51161737921d09b9da46ecad040d.cdr"
   xmlns:inkscape="http://www.inkscape.org/namespaces/inkscape"
   xmlns:sodipodi="http://sodipodi.sourceforge.net/DTD/sodipodi-0.dtd"
   xmlns="http://www.w3.org/2000/svg"
   xmlns:svg="http://www.w3.org/2000/svg">
  <defs
     id="defs13" />
  <sodipodi:namedview
     id="namedview11"
     pagecolor="#ffffff"
     bordercolor="#666666"
     borderopacity="1.0"
     inkscape:pageshadow="2"
     inkscape:pageopacity="0.0"
     inkscape:pagecheckerboard="0" />
  <g
     id="Layer1000"
     transform="translate(-436.26066,-283.4646)">
    <path
       d="m 1244.6539,283.4646 c 61.1057,41.8448 112.3727,102.513 130.9991,175.3147 19.7418,85.3944 -1.0058,178.0477 -51.3111,249.297 -16.2435,21.9926 -35.7015,41.4506 -56.4268,59.2471 -62.8323,53.8247 -138.0608,91.997 -196.2365,151.4623 -25.1198,26.3431 -48.4467,55.5741 -61.4552,89.9419 -19.7413,50.283 -19.4357,109.0492 4.941,157.693 -65.4996,-47.5723 -110.7764,-122.5381 -120.6807,-203.0355 -2.4696,-21.2508 -3.323,-42.9379 0.4809,-64.0785 8.9202,-56.3177 31.0009,-111.2145 67.3804,-155.4855 15.304,-18.1243 31.8096,-35.3513 50.4359,-50.0647 38.3471,-30.8708 82.2463,-53.5848 123.7856,-79.6447 46.4574,-31.7012 86.4219,-74.048 111.8038,-124.5063 19.5231,-38.5224 28.7929,-82.3336 25.2512,-125.468 -3.2573,-28.7718 -16.681,-54.8968 -28.9676,-80.6722 z m -70.8341,727.0553 c 55.5741,-13.4461 114.8869,32.2038 119.9587,88.3028 1.356,22.823 -2.208,46.8069 -15.0195,66.2425 -19.8726,31.744 -58.2631,52.0981 -95.8882,46.8076 -17.949,-1.2686 -35.5701,-7.4987 -49.825,-18.583 -32.5087,-24.9233 -49.2994,-69.6975 -38.8924,-109.6181 9.641,-37.1888 42.7626,-65.062 79.6664,-73.1518 z"
       style="fill:#be9c39;fill-rule:evenodd"
       id="path2" />
    <path
       d="m 1203.6184,869.6387 c 15.894,-6.253 33.4705,-9.9471 50.4583,-6.3174 32.575,6.2957 59.487,27.9395 91.4938,36.0287 13.5768,3.432 28.0275,3.8039 41.67,0.5683 18.1894,-5.2478 30.2133,-20.8567 42.216,-34.4112 -8.3297,28.1365 -18.2117,59.2905 -43.8341,76.4747 -20.0913,11.7171 -44.5771,16.4406 -67.5111,11.8714 -33.1433,-6.1662 -61.9139,-24.945 -93.6802,-35.2423 -25.732,-7.1937 -51.5955,3.8696 -74.7259,14.3633 9.8164,-26.366 27.3501,-51.8136 53.9126,-63.3348 z m 121.7293,98.6429 c 24.945,-8.8323 53.169,-9.0504 77.8302,0.8967 25.2511,10.5805 46.8292,30.564 57.4543,56.0333 11.8937,27.1741 14.9105,57.2796 14.9979,86.663 0.8961,31.721 10.7781,64.8216 33.7332,87.6676 13.8619,11.1934 31.154,16.7033 46.8726,24.6828 -38.3898,14.6255 -86.1152,11.0187 -117.1384,-17.7302 -13.6196,-13.9703 -26.1689,-29.7329 -32.5744,-48.4033 -14.7351,-41.4519 -8.1115,-87.0342 -22.2783,-128.6385 -4.8314,-13.4901 -11.3465,-26.956 -22.2121,-36.641 -10.9963,-9.8827 -24.267,-16.6594 -36.685,-24.5298 z m -628.1497,35.3073 c 76.1469,-16.8768 159.2236,13.9276 209.245,73.0217 30.1042,35.8751 51.9884,77.5674 78.9667,115.6734 19.6105,27.8304 42.6319,54.0657 71.8393,72.1021 11.872,6.7555 23.6337,14.2108 36.8164,18.1894 29.3618,8.9419 60.4501,4.351 90.2264,0.2844 -26.8252,28.8796 -60.2747,52.1855 -97.9438,64.3413 -30.4103,10.0779 -63.3355,11.3465 -94.751,5.7275 -41.4946,-8.0676 -78.8359,-31.1974 -108.5255,-60.7333 -20.8567,-20.6826 -38.2808,-44.5994 -52.4916,-70.2658 -19.1289,-33.5591 -36.4879,-69.3697 -65.4989,-95.8014 -32.4003,-31.4608 -75.7318,-53.3437 -121.3581,-54.6774 -24.0489,-0.8961 -47.9881,5.575 -68.7574,17.5555 32.0941,-38.5008 72.8451,-72.6487 122.2325,-85.4161 z m 690.2613,140.0724 c 21.6437,35.308 32.4213,77.6777 27.8304,119.0199 -3.5194,32.8148 -18.5613,63.9031 -40.3581,88.4769 -35.6575,39.3306 -87.209,59.9686 -138.3893,69.7409 -35.919,7.8482 -71.0745,22.5839 -98.9923,46.8949 -16.3092,14.0789 -29.2298,31.8531 -38.4779,51.2671 -9.0727,21.2936 -7.8704,44.9272 -10.8655,67.4671 -20.3102,-33.7116 -37.8216,-71.5554 -36.2915,-111.8038 3.4543,-68.2982 50.9609,-130.5188 113.6624,-156.1629 41.3856,-16.5285 85.351,-25.8634 125.9707,-44.3807 28.6837,-12.8554 55.2902,-31.5041 74.3107,-56.7769 15.1069,-21.4907 18.4076,-48.3593 21.5997,-73.7419 z m -460.9032,473.1241 c 5.5316,-4.7223 11.15,-9.3566 16.9431,-13.751 0.3068,23.5457 -0.2187,47.0913 0.2411,70.6376 -0.5032,5.9022 4.4161,11.0187 10.319,10.909 8.5261,0.4152 17.9707,1.3776 25.732,-2.9511 6.4055,-3.7828 4.0443,-12.9863 9.3783,-17.5121 7.6963,2.9077 3.1922,15.3257 11.2591,18.6269 8.1555,3.4104 17.403,2.0767 26.0165,1.8363 6.7122,-0.066 14.2759,-3.6508 15.1726,-11.0187 1.0715,-3.4326 2.4708,-12.5053 7.6077,-7.739 2.5148,6.0993 2.0116,15.26 9.6416,17.6645 10.363,2.7106 21.2726,0.8527 31.8754,1.5307 -4.3722,-5.8812 -7.3456,-13.7299 -3.8039,-20.7476 5.0724,-10.1443 13.7076,-19.3483 24.7479,-22.7587 13.2274,-3.8261 25.5356,7.433 28.9243,19.5231 -11.4996,-2.7553 -23.7868,-6.0776 -35.3954,-1.9242 -3.5194,1.2022 -8.2206,3.6954 -7.3022,8.1989 2.7764,7.3672 10.0786,13.0296 17.9707,13.6202 10.2979,0.699 20.6386,-0.2188 30.8919,-1.2246 -3.279,6.2524 -6.5802,12.4837 -9.9912,18.6704 -23.1955,0.3718 -45.6926,7.8927 -68.8882,7.1931 -8.4604,0.1524 -16.047,-4.5692 -21.1845,-10.997 -8.1766,12.9863 -24.6612,11.5869 -37.9313,10.7999 -7.6516,-0.3278 -14.1885,-5.0718 -18.889,-10.7782 -4.4596,5.5527 -10.4287,10.6251 -17.949,10.7348 -8.898,0.3055 -18.0147,1.1149 -26.7596,-0.8527 -9.2041,-2.8427 -14.1234,-12.7018 -14.3199,-21.8185 -0.8527,-21.9939 -1.7271,-44.0089 -4.307,-65.8714 z m 232.8347,0.2404 c 5.6841,-4.8096 11.2808,-9.7717 17.4241,-14.0131 0.087,28.6391 0.2621,57.2795 -0.044,85.9187 -1.3554,7.2365 -3.4103,15.3257 -9.095,20.3981 -3.3224,-30.7171 -5.5527,-61.5426 -8.2851,-92.3031 z m -138.52,25.3825 c 3.1699,-3.6514 6.5145,-7.1491 9.9688,-10.5154 3.367,3.3223 6.7116,6.6242 10.1008,9.9472 -3.2795,3.432 -6.5808,6.9086 -9.8603,10.3412 -3.3447,-3.3452 -6.7339,-6.6248 -10.2093,-9.773 z m 21.8625,-0.6339 c 3.3663,-3.2796 6.6893,-6.5585 10.0128,-9.8598 3.3447,3.323 6.6899,6.6242 10.0562,9.9472 -3.3006,3.52 -6.6675,6.996 -10.1442,10.3412 -3.3006,-3.4983 -6.6459,-6.9526 -9.9254,-10.4286 z m 211.9557,4.7222 c 3.8039,-4.5475 7.6951,-9.007 11.696,-13.358 3.2579,13.0953 5.2689,26.4757 8.1109,39.6584 1.2246,4.941 3.4103,11.7183 9.6193,11.7406 7.8054,0.5677 15.894,1.0932 23.5674,-0.7654 8.0241,-2.9734 4.7223,-14.3415 11.5875,-18.2111 5.9469,3.7382 3.8696,12.33 8.6575,16.9866 3.9793,2.8637 9.7507,2.842 14.0355,0.5906 6.3186,-3.6954 3.476,-14.3856 10.2533,-17.1837 4.5915,1.3771 3.7387,7.5204 5.5099,11.1711 1.1149,7.5643 11.2368,9.5976 16.8992,5.8595 5.6847,-4.3945 3.2795,-14.3639 10.3629,-17.4464 5.9686,4.7446 2.7764,16.0471 11.3248,18.3865 9.051,1.5735 18.495,1.4867 27.5683,0.1531 8.2423,-2.143 6.3404,-12.7024 11.1717,-17.9056 6.0782,-0.5249 5.2689,7.7614 7.3456,11.6092 1.4433,7.5637 11.7616,8.7009 17.2499,4.941 5.9035,-4.0889 2.842,-15.1726 10.6902,-16.8781 4.9416,4.9628 2.4051,14.6918 9.4005,18.0147 5.3569,2.2298 15.7409,1.9893 15.8073,-5.7714 -1.3343,-4.3951 -4.242,-8.0459 -6.6899,-11.828 2.9945,-4.7663 6.0776,-9.4663 9.3348,-14.0355 6.5158,9.3132 9.6633,21.0538 6.9744,32.2906 -1.7929,9.7507 -8.2206,21.3599 -19.6111,20.9224 -7.2359,0.6339 -12.5927,-4.8531 -16.5713,-10.1002 -3.8919,5.2682 -9.0945,10.8872 -16.3092,10.1002 -7.0395,0.3712 -11.9371,-5.0941 -15.9163,-10.0569 -8.3725,12.9423 -25.2723,10.4721 -38.4339,9.8604 -6.2524,-0.3724 -10.3407,-5.4876 -14.0794,-9.8604 -4.022,5.378 -9.576,10.8222 -16.9215,10.0569 -6.9297,0.3278 -11.6309,-5.2032 -15.5222,-10.0785 -3.7164,4.8753 -8.3079,10.2755 -15.0629,10.1002 -7.3895,0.787 -13.0959,-4.5469 -17.1402,-10.0129 -8.1543,12.4831 -24.2894,10.4944 -37.1443,9.9038 -9.8157,-0.722 -14.2765,-10.9096 -17.3583,-18.8451 -2.099,3.4977 -4.2197,6.996 -6.3404,10.5154 -10.3407,-0.9624 -23.8518,0.9618 -30.9792,-8.1766 -0.8738,-7.0834 1.6621,-14.3416 5.4442,-20.2444 6.6025,-6.843 15.5215,-10.7782 24.0266,-14.7351 -0.634,-1.8368 -1.9242,-5.5093 -2.5582,-7.3679 z m -15.1069,29.3829 c 7.5426,3.8478 16.1121,3.8261 24.3761,4.1323 -1.4427,-5.2912 -2.8861,-10.5595 -4.3288,-15.8066 -7.1268,3.0608 -14.3199,6.2963 -20.0479,11.6749 z m -420.8947,-19.6979 c 5.9463,-5.531 15.6746,-7.739 22.693,-2.9511 5.9028,3.8913 8.7226,10.8656 9.3132,17.7086 -9.9032,-3.2139 -21.8619,-4.9845 -30.8479,1.574 -3.9569,3.0168 -8.7449,6.799 -8.7226,12.2649 8.2423,9.7941 25.9502,2.0767 32.9896,13.642 4.832,13.5768 -0.4586,30.476 -12.8988,38.1934 -12.7669,8.1326 -28.5078,9.3571 -43.2652,8.8545 -10.5811,-0.3067 -22.3435,-3.3452 -28.7489,-12.4619 -6.7556,-9.729 -5.8154,-22.5833 -2.5582,-33.4055 2.1864,-6.5591 3.6731,-14.2325 9.6193,-18.5395 5.4876,-0.087 4.0883,5.6623 3.0608,9.204 -2.2514,7.5861 -5.9462,15.9814 -2.011,23.6994 4.1757,8.2634 14.1885,10.7559 22.7147,11.2808 13.4454,0.5243 27.3501,-0.3278 39.9428,-5.4219 3.1482,-1.3994 7.9356,-4.744 5.7938,-8.6792 -9.4446,-5.2038 -21.8191,-1.8146 -30.7611,-8.3514 -6.6019,-5.1604 -5.0935,-14.7357 -2.6883,-21.6661 3.629,-9.2914 8.9413,-18.1894 16.3748,-24.945 z m 781.0114,7.1051 c 6.4934,-9.0293 21.3593,-9.7283 28.5741,-1.2456 6.8002,8.0229 8.7226,19.1952 7.9361,29.4268 -0.5249,8.7009 -8.505,15.9591 -17.2276,15.6312 -8.0669,0.7871 -14.5603,-4.7439 -19.0421,-10.7558 -2.4269,2.6009 -4.4379,5.8371 -7.7174,7.4546 -7.3233,3.4977 -16.2658,-0.087 -23.5023,2.2737 -1.2897,14.9762 -6.9744,31.0227 -19.7412,39.8115 -11.3025,0.5026 -23.2402,-0.1313 -33.7339,-4.7439 13.9047,-5.663 26.9777,-13.6859 37.516,-24.4201 3.2573,-3.1928 5.0935,-7.3896 6.9081,-11.4779 -8.8757,-0.5032 -18.2335,0.7431 -26.6722,-2.5582 -6.0119,-2.6239 -7.586,-9.9037 -6.6899,-15.7843 1.2252,-9.095 4.897,-18.037 10.9753,-24.9673 4.8536,-5.7714 14.2542,-5.8371 19.7412,-0.9178 7.04,5.9679 9.4234,15.2817 11.4995,23.8735 8.3743,-0.2187 16.9872,0.8961 25.1644,-1.421 1.0281,-6.9527 0.7647,-14.7351 6.0119,-20.1787 z m 11.4568,4.6132 c -3.4543,6.5585 -0.3068,14.7791 3.5621,20.5506 2.231,4.0009 9.03,5.5093 10.9753,0.4592 2.0556,-7.2805 -1.1149,-15.0412 -5.9685,-20.4415 -1.879,-2.4702 -6.8647,-3.6291 -8.5695,-0.5683 z m -74.2884,14.3633 c 4.8964,5.5967 13.3134,2.4492 19.7412,2.5148 -3.0168,-4.3727 -6.5808,-9.139 -12.1782,-10.0351 -4.3932,-0.9401 -8.9847,2.9734 -7.5637,7.5209 z m -649.8605,-0.7653 c 2.7336,-5.8372 5.4876,-11.652 8.2206,-17.4675 21.3816,16.6587 21.0972,51.0489 4.4818,70.9872 -3.1258,3.1915 -5.8371,8.2856 -10.8878,8.3073 -10.8656,0.3496 -21.8402,-0.9395 -32.1592,-4.4595 15.8289,-7.3895 32.9462,-15.4131 42.6095,-30.6731 5.8595,-10.6691 -5.7281,-19.7195 -12.2649,-26.6938 z m 96.1733,38.2814 c 3.7604,3.585 7.4986,7.1714 11.2151,10.8438 -3.6948,3.6725 -7.3896,7.3679 -11.1061,11.0404 -3.6507,-3.6731 -7.3238,-7.3673 -10.9529,-11.0187 3.6068,-3.6508 7.2142,-7.2581 10.8439,-10.8655 z"
       style="fill:#031c45;fill-rule:evenodd"
       id="path4" />
    <path
       d="m 1742.1764,1599.8639 c 14.6254,4.8753 29.9505,7.4118 45.2328,9.3795 14.4729,1.6174 27.2181,-7.4553 41.2759,-8.6792 3.8918,1.2239 2.886,6.362 1.7494,9.2474 -3.6941,7.2365 -11.3254,11.2374 -18.3425,14.6261 -11.4332,5.0278 -23.4582,9.2258 -35.9636,10.3406 -11.3248,1.0492 -21.7974,-4.6782 -32.9692,-5.1814 -5.7274,1.2896 -7.7607,8.3953 -12.9639,10.8221 -6.667,0.7437 -7.0617,-7.9578 -5.6407,-12.5053 3.5863,-10.5161 9.6199,-20.2884 17.6212,-28.0492 z m -1075.2357,80.3226 c 12.3083,-11.1283 25.1415,-21.9059 38.7834,-31.3944 0.875,48.3816 0.1314,96.8066 0.3718,145.2099 0.2845,9.7073 -1.0932,19.8075 2.2298,29.1647 3.1265,8.4387 12.1341,12.9422 20.6602,13.6419 240.5738,0 481.1693,0.022 721.7642,0 4.6572,-0.3278 9.6633,-0.3495 13.839,-2.7547 3.4766,-2.7546 2.1207,-7.8704 2.4268,-11.696 -0.9611,-15.26 6.5585,-29.9951 17.5338,-40.2267 14.4296,-13.7522 38.9804,-14.8008 54.6997,-2.6456 13.0079,10.3841 19.5447,26.7379 22.7363,42.6319 2.0996,13.4671 3.7822,27.8744 -0.8744,40.992 -5.7709,16.4617 -23.3046,26.7156 -40.4449,25.4476 -17.5771,0.1965 -32.2905,-12.0027 -41.1891,-26.1912 -6.864,13.2267 -20.2884,23.3709 -35.7226,22.4965 -238.9774,0.109 -477.956,0.066 -716.9551,0.022 -16.2219,0.7654 -32.5317,-7.4329 -40.9047,-21.4689 -9.8381,-15.4788 -9.9032,-34.4547 -9.9032,-52.1415 -1.1588,-43.7901 -4.0232,-87.6025 -9.051,-131.0871 z m 843.2983,114.5368 c -5.1604,1.6615 -7.4559,7.3245 -7.7403,12.3523 -1.0269,12.8115 3.2355,25.6013 9.8821,36.4669 3.585,5.7057 9.4445,11.2151 16.7244,10.5594 5.6413,0.022 9.9688,-4.8313 10.9963,-10.0568 3.4556,-14.6044 -2.9288,-29.4486 -11.3025,-41.1669 -4.0883,-5.7497 -11.2374,-10.7124 -18.5612,-8.1542 z m 279.1378,-140.728 c 2.2087,-2.0116 4.9404,-3.2356 7.7831,-4.1317 0.3507,62.6135 -0.022,125.2059 0.1964,187.8194 1.0938,16.8124 -6.4494,32.3786 -12.9639,47.3981 -1.7483,3.7165 -3.476,7.7391 -7.2588,9.8158 -3.2343,-12.1118 -3.3663,-24.7263 -4.6783,-37.1219 -5.2248,-58.876 -10.6251,-117.729 -15.7409,-176.5827 10.9536,-8.9859 21.7751,-18.1237 32.6624,-27.1964 z M 506.4702,1775.8782 c 8.461,-8.4827 16.8998,-16.9648 25.4048,-25.4042 8.4164,8.3297 16.6804,16.8124 25.2065,25.0324 -8.2416,8.8763 -16.9871,17.2276 -25.5349,25.7978 -8.3291,-8.5045 -16.5931,-17.0746 -25.0764,-25.426 z m 1161.8113,13.598 c 1.4867,0.8527 2.9294,1.8151 4.3504,2.8643 21.3822,20.7693 34.3233,50.3275 33.4711,80.301 0.5249,32.8588 -12.2649,65.7183 -35.505,89.0669 -4.8747,4.3504 -9.2915,11.4561 -16.681,10.7348 -24.9227,-0.4159 -50.7422,-1.1589 -74.0474,-10.9313 5.6847,-3.9792 12.4837,-5.7281 18.736,-8.5701 21.3166,-9.4669 41.1452,-22.212 58.7657,-37.4504 9.3361,-8.3079 18.3648,-17.7519 22.8683,-29.6232 2.6245,-6.6682 2.3611,-14.4073 -1.2679,-20.6386 -7.498,-13.5545 -18.0804,-25.2071 -29.8855,-35.1543 6.3181,-13.5768 12.7669,-27.0874 19.1946,-40.5985 z m -1071.8254,8.461 c 1.8803,1.5524 3.8262,3.0831 5.2032,5.1381 18.2551,26.8469 32.5093,58.2191 31.5252,91.2973 -0.1307,23.1738 -5.9462,48.0532 -23.2395,64.6028 -17.7085,16.8558 -42.9157,21.8625 -66.4397,24.1586 -23.0648,1.5741 -47.4632,2.9728 -69.0846,-6.8213 -19.8081,-8.5924 -34.0624,-27.9841 -37.1232,-49.2777 -3.5627,-20.4415 2.7113,-40.7516 8.8769,-60.0342 3.3887,-9.5103 6.6459,-19.7202 13.9915,-27 3.1488,-3.3453 9.641,-3.7822 12.0461,0.6123 3.8039,7.695 -0.787,15.9813 -2.9071,23.5016 -5.5539,15.26 -10.2973,32.7281 -3.0397,48.2726 6.2753,14.6254 22.4748,21.2279 37.2972,23.1955 22.9998,2.9517 46.5671,1.9459 69.2167,-2.9294 13.0302,-3.2579 27.5466,-7.1708 35.9853,-18.4516 6.1656,-8.2646 3.4766,-19.2392 -0.8961,-27.6346 -8.4604,-16.8341 -19.1735,-32.6841 -32.2912,-46.2386 7.1274,-14.0577 13.7522,-28.3336 20.879,-42.3914 z"
       style="fill:#960000;fill-rule:evenodd"
       id="path6" />
  </g>
</svg>
