<?xml version="1.0" encoding="UTF-8" standalone="no"?>
<svg
   version="1.1"
   width="1605.5068"
   height="1700.7871"
   id="svg9"
   viewBox="0 0 1605.5069 1700.7871"
   sodipodi:docname="6b4119671919245c83187e5f7fdfdc38.cdr"
   xmlns:inkscape="http://www.inkscape.org/namespaces/inkscape"
   xmlns:sodipodi="http://sodipodi.sourceforge.net/DTD/sodipodi-0.dtd"
   xmlns="http://www.w3.org/2000/svg"
   xmlns:svg="http://www.w3.org/2000/svg">
  <defs
     id="defs13" />
  <sodipodi:namedview
     id="namedview11"
     pagecolor="#ffffff"
     bordercolor="#666666"
     borderopacity="1.0"
     inkscape:pageshadow="2"
     inkscape:pageopacity="0.0"
     inkscape:pagecheckerboard="0" />
  <g
     id="Layer1000"
     transform="translate(-331.10469,-283.465)">
    <path
       d="m 379.7301,1906.0302 c 6.9633,-22.8263 6.3596,-48.1073 17.552,-69.4434 3.784,23.0672 10.6686,45.5706 13.526,68.8398 -10.3468,0.4028 -20.6913,0.6036 -31.078,0.6036 z"
       style="fill:#ffffff;fill-rule:evenodd"
       id="path2" />
    <path
       d="m 820.2645,283.4651 h 625.9185 c 10.7884,5.0313 21.6579,9.944 32.0446,15.7809 16.9883,9.7009 28.5812,26.8113 35.3448,44.846 7.6902,20.4905 5.3542,42.7531 5.6772,64.1702 0.04,185.182 -0.081,370.4063 0,555.5895 0.08,33.0112 -15.9418,68.6378 -47.3428,82.6876 -21.9397,11.513 -47.3017,9.0984 -71.1745,9.2593 -162.3968,-0.1609 -324.7548,0 -487.1127,-0.08 -32.7282,0.4017 -65.8192,3.8639 -98.2677,-2.0529 -37.4787,-9.944 -67.5103,-46.1754 -66.2231,-85.6683 -0.3617,-197.3809 0.1221,-394.8018 -0.2008,-592.1827 -0.2009,-17.4721 3.946,-35.3049 14.3716,-49.5966 13.728,-20.1287 35.4669,-32.4873 56.9649,-42.7531 z m -4.9925,34.2584 c -28.5823,14.6135 -45.8935,46.5383 -45.129,78.301 0.323,102.0917 0.0811,204.2244 0.1221,306.3161 10.8695,-14.8144 18.6384,-31.4809 28.2195,-47.1009 21.6989,-34.7822 47.0609,-67.9132 79.5083,-93.3961 42.4713,-34.6624 99.6359,-51.9314 154.0641,-42.1095 43.7197,10.9493 83.2513,33.3329 123.1059,53.6225 54.7101,29.2259 108.5335,60.8688 166.8655,82.4867 32.9723,10.5888 69.8873,20.4916 103.5421,7.0056 30.3945,-11.3134 49.1538,-41.1829 57.9703,-71.0536 6.8845,-25.685 13.2453,-51.9325 12.9224,-78.7438 0.1221,-41.7067 0.162,-83.4122 0.04,-125.1588 0.3229,-41.7877 -37.4787,-79.8712 -79.3862,-79.4684 -178.5406,0.2818 -357.1223,0.081 -535.7028,0.1209 -22.1805,0.2808 -46.1743,-2.8174 -66.1421,9.1783 z m 647.3755,381.7585 c -24.0736,37.8815 -54.9908,72.1411 -93.2763,96.0139 -39.3707,23.7518 -87.3583,35.306 -132.9289,26.6504 -49.1127,-11.4332 -92.9533,-37.198 -137.4775,-59.8224 -62.1971,-32.6494 -123.8317,-69.9262 -193.436,-84.2978 -33.051,-7.6092 -71.9003,-0.6048 -94.8065,26.0056 -26.6892,29.5478 -32.8902,70.8128 -39.5317,108.6134 -2.2549,43.6797 -0.1209,87.4792 -1.0875,131.2388 -1.73,33.8556 18.1557,68.1551 49.1949,82.3259 19.2432,9.621 41.3438,6.7635 62.1161,7.0043 169.0805,-0.04 338.1609,-0.04 507.2414,0.041 17.8738,-0.3229 36.3513,1.5702 53.6225,-4.2679 32.6483,-11.9159 56.359,-46.0544 54.3472,-81.0774 -0.4827,-100.9254 0.6835,-201.8497 -0.5637,-302.7751 -12.7215,17.1092 -21.1752,36.9162 -33.414,54.3472 z"
       style="fill:#cf9d2a;fill-rule:evenodd"
       id="path4" />
    <path
       d="m 815.272,317.7235 c 19.9678,-11.9969 43.9605,-8.8964 66.1421,-9.1783 178.5817,-0.041 357.1622,0.1609 535.7028,-0.1209 41.9075,-0.4028 79.7091,37.6807 79.3862,79.4684 0.1221,41.7455 0.081,83.4521 -0.04,125.1588 0.3229,26.8113 -6.039,53.0588 -12.9224,78.7438 -8.8154,29.8695 -27.5758,59.7414 -57.9703,71.0536 -33.6548,13.4849 -70.5709,3.5832 -103.5421,-7.0056 -58.3309,-21.6179 -112.1554,-53.2596 -166.8655,-82.4867 -39.8534,-20.2896 -79.3862,-42.6721 -123.1059,-53.6225 -54.4282,-9.8219 -111.5928,7.4482 -154.0641,42.1095 -32.4474,25.4818 -57.8094,58.6139 -79.5083,93.3961 -9.5811,15.62 -17.35,32.2865 -28.2195,47.1009 -0.041,-102.0928 0.2009,-204.2244 -0.1221,-306.3161 -0.7634,-31.7627 16.5467,-63.6875 45.129,-78.301 z m 647.3755,381.7585 c 12.2388,-17.431 20.6925,-37.2368 33.414,-54.3472 1.2484,100.9243 0.08,201.8497 0.5637,302.7751 2.013,35.023 -21.7001,69.1615 -54.3472,81.0774 -17.2701,5.837 -35.7487,3.945 -53.6225,4.2679 -169.0805,-0.081 -338.1609,-0.081 -507.2414,-0.041 -20.7723,-0.2419 -42.8741,2.6167 -62.1161,-7.0043 -31.0381,-14.1708 -50.926,-48.4703 -49.1949,-82.3259 0.9666,-43.7596 -1.1674,-87.5591 1.0875,-131.2388 6.6426,-37.8017 12.8425,-79.0645 39.5317,-108.6134 22.9074,-26.6104 61.7555,-33.6148 94.8065,-26.0056 69.6043,14.3705 131.2377,51.6495 193.436,84.2978 44.5242,22.6244 88.3637,48.3892 137.4775,59.8224 45.5718,8.6544 93.557,-2.8986 132.9289,-26.6504 38.2855,-23.8728 69.2027,-58.1312 93.2763,-96.0128 z m -364.0855,535.0591 c 10.1847,-3.946 19.323,-10.2258 29.7098,-13.7679 -4.0659,16.5854 -6.039,38.4453 -24.2346,45.8525 -28.3815,13.445 -60.4671,2.7775 -90.137,0.9254 -5.7559,8.6956 -11.1102,17.633 -16.7064,26.4496 -9.3391,-8.7355 -17.7528,-19.7259 -20.6114,-32.3265 3.6231,-13.3252 8.6157,-29.4279 23.47,-33.7357 17.0693,-3.905 33.9777,3.1803 50.724,5.676 15.741,2.2538 32.0446,3.905 47.7856,0.9266 z m 306.599,68.2749 c 52.2943,-20.5304 104.9902,-40.739 159.2564,-55.4335 -1.9719,15.7809 -11.7151,28.8242 -18.5985,42.7131 -3.5021,5.4741 -5.9978,13.0023 -13.0844,14.7345 -52.414,16.3835 -105.8757,31.6817 -154.7077,57.2857 45.8536,51.6095 99.717,95.3691 149.6353,142.9128 22.6655,22.3026 54.871,33.3329 86.3918,32.4474 20.0089,0.2008 39.211,-5.918 58.7759,-9.2194 2.5368,-27.173 -22.5034,-47.8255 -28.5024,-73.1475 10.4677,-17.3501 20.3307,-35.4258 34.3406,-50.3212 20.0476,32.9301 39.2098,70.5309 34.6212,110.2645 -3.3412,30.6353 -19.9689,61.2306 -47.9875,75.6832 -36.5521,18.2767 -80.6757,17.9549 -118.5573,3.9861 -33.091,-15.2572 -48.711,-50.2813 -72.5439,-75.5634 -7.446,35.9496 -36.0295,64.6939 -71.3754,73.8322 -55.8363,14.0499 -115.2559,16.3447 -171.656,4.3478 -29.7098,-5.3143 -57.8505,-24.5575 -68.7199,-53.4217 -15.2971,-36.3113 -5.3543,-76.6087 5.757,-112.5594 5.1946,-4.7495 12.5607,1.2484 18.6396,1.2484 -0.3618,19.1622 -5.7161,38.9691 1.5702,57.4876 7.5681,23.7108 32.3664,36.915 55.2726,42.0285 43.3579,11.5941 89.0894,9.0984 132.6482,-0.081 21.9796,-3.3413 43.3157,-10.1848 63.1226,-20.2896 -19.7259,-44.0814 -59.0567,-74.5158 -91.3443,-108.8952 -8.0908,-19.767 -8.4137,-44.4032 1.5713,-63.6464 11.1513,-20.9343 35.144,-27.8178 55.4735,-36.3923 z m 320.5268,11.0304 c 12.7615,-13.2841 24.2346,-29.3869 41.7466,-36.7541 10.1049,72.3419 6.0378,145.4495 6.6016,218.1943 -0.3207,14.4116 3.3823,33.1309 19.8069,36.996 32.6494,7.85 67.3094,3.6232 99.5971,-3.9849 8.0919,-1.7311 3.0183,-10.7097 1.609,-15.5401 -6.8423,-17.9549 -17.7129,-34.0165 -25.6838,-51.4076 -3.3812,-5.918 1.5303,-11.7561 4.3078,-16.7076 7.8911,-12.1577 15.4192,-24.6373 24.3555,-36.1104 4.026,-2.7776 6.9645,-1.8521 8.8166,2.7775 18.5995,34.2584 33.5737,72.7859 28.9052,112.4784 -2.7775,31.8437 -24.1946,63.6875 -56.2802,71.6584 -33.3729,9.0573 -70.8927,13.647 -103.4611,-0.6037 -18.7993,-7.5281 -29.146,-26.6104 -34.4193,-45.0879 -5.5551,-24.4776 -4.9925,-49.7175 -5.7171,-74.6368 0.081,-53.9055 -6.4806,-107.528 -10.1848,-161.2704 z m -665.3303,-30.6752 c 5.3543,-6.4418 13.6869,-1.1275 11.513,6.6426 3.8651,36.1105 4.7506,72.4229 5.9991,108.6943 2.2549,34.9431 1.852,70.0471 -0.242,104.9902 -1.2872,21.659 0.04,44.7261 -10.5875,64.452 -7.4072,13.0833 -15.9818,26.0068 -27.8178,35.4669 -3.7841,-3.0195 -5.1922,-6.9644 -4.2268,-11.796 2.0529,-29.428 3.3823,-58.8958 4.2667,-88.4048 -2.8175,-41.6256 -1.5291,-83.4533 -6.5616,-124.9579 -1.6101,-19.7659 -5.8769,-39.4119 -5.4741,-59.2587 9.1372,-13.4051 21.5369,-24.5164 33.131,-35.8286 z m -403.2554,67.6312 c 2.0518,0.242 6.1998,0.6448 8.2516,0.8867 11.3533,45.6105 20.7324,91.665 28.6645,138.0013 3.5022,13.3651 8.7343,27.496 19.5638,36.5932 24.1947,16.3047 56.6831,12.2787 81.4403,-0.5227 16.3858,-9.783 19.4041,-29.8706 27.2141,-45.6116 7.0055,-8.9375 17.7529,-13.9688 28.1396,-17.9549 -3.824,21.659 -12.0768,51.5697 11.715,64.8549 36.3125,17.1092 78.2999,9.3392 115.5378,-0.7246 -3.3812,-25.2411 -20.4505,-45.3698 -30.5953,-67.9542 7.81,-19.8069 21.0953,-37.8017 35.0641,-53.9444 19.9278,34.6612 40.4582,73.7513 32.7692,115.0551 -3.6232,28.5823 -16.7475,60.1031 -44.6041,72.5428 -35.6677,14.1308 -76.8106,18.3976 -113.0421,3.905 -14.9353,-4.9914 -27.2951,-15.2982 -36.6753,-27.6968 -14.0898,14.6934 -30.3945,28.3404 -50.8039,32.8091 -28.2206,8.6556 -61.6346,0.8867 -81.4814,-21.336 -8.1706,-9.0174 -12.5595,-20.5304 -17.6319,-31.3599 -6.4806,23.8317 -26.1277,42.995 -50.0793,49.0329 -25.362,7.2862 -57.2457,11.1113 -77.9392,-8.9775 -22.5434,-24.3954 -18.4364,-60.3051 -17.471,-90.8604 7.0055,-0.5638 14.0087,-1.2884 21.0142,-2.0929 3.0594,13.526 5.958,30.7163 20.9344,36.0705 29.186,11.8748 63.0427,0.04 87.3172,-17.7539 2.8586,-41.2229 -15.2583,-79.9101 -25.8048,-118.8392 6.3608,-16.3846 18.3565,-29.9506 28.5013,-44.1213 z m -282.5654,60.2652 c 13.647,-14.1696 5.837,-35.9484 15.4181,-51.9713 17.1491,8.7754 31.1191,22.3026 46.6992,33.4539 26.6891,20.4904 54.7089,44.2822 63.0815,78.4208 4.8727,33.2919 -0.2807,69.4434 -20.2896,97.1813 -27.2529,37.1569 -87.0753,47.6235 -123.066,17.2701 -21.0941,-18.2366 -26.971,-47.7045 -24.8781,-74.396 0.6447,-37.5597 19.9278,-71.5362 43.0349,-99.9588 z m -11.4331,80.9177 c -4.4688,19.2431 12.2388,36.0705 29.7896,40.4183 27.1331,7.1652 61.6346,-0.5638 77.5764,-25.2011 -9.3391,-32.2865 -40.3784,-50.7241 -67.7522,-66.4651 -15.9829,14.4127 -32.8902,30.1937 -39.6138,51.2479 z m 352.8543,-29.6699 c 3.9849,-15.8209 18.1157,-28.6223 28.0186,-41.7466 15.2583,11.5941 33.6548,21.6989 43.7996,38.2045 -6.4407,13.405 -14.3717,27.6968 -27.294,35.6677 -16.1438,-7.931 -29.469,-21.8998 -44.5242,-32.1256 z m 841.9789,-0.04 c 4.6296,-16.0229 17.9137,-28.3005 27.6557,-41.6257 16.2648,9.9428 30.9171,22.2216 44.8471,35.2649 -4.3877,15.4991 -15.4192,27.456 -25.6838,39.3719 -17.3911,-8.0519 -31.159,-22.1816 -46.819,-33.0111 z M 878.2349,1615.293 c 11.392,8.2928 20.5714,19.0812 30.6752,28.8642 8.6955,-9.5411 17.6729,-18.8403 26.2886,-28.4613 12.6005,6.6414 21.255,18.3165 30.7562,28.5013 3.2203,4.2667 8.6556,8.6556 6.7225,14.7345 -8.1718,11.9558 -18.9613,21.9397 -30.6353,30.4344 -9.3802,-9.3802 -18.8403,-18.6795 -28.4625,-27.7368 -8.9762,9.742 -18.5585,18.7993 -28.3404,27.6957 -14.6934,-11.3521 -25.9668,-26.2875 -39.9755,-38.3243 9.9839,-12.8014 21.9796,-23.7918 32.9712,-35.7077 z m 927.7669,40.5382 c 8.5746,-14.4116 18.1557,-28.2594 29.186,-40.86 16.0628,11.1502 31.6007,23.1471 45.2887,37.1969 -7.2462,14.4526 -16.4256,28.0197 -28.4214,39.009 -15.2172,-11.9558 -31.0381,-23.1881 -46.0544,-35.3448 z m -1423.695,108.4136 c 9.1783,-0.1621 18.3976,0 27.5747,0.9255 17.3124,72.4218 34.1785,144.9257 50.845,217.4697 -11.432,1.69 -23.1071,1.9319 -34.4593,-0.5649 -2.0129,-14.8943 -5.2344,-29.5888 -8.0918,-44.3222 -14.8156,-0.6847 -29.6699,-0.9665 -44.4432,0.4028 -2.4968,14.4116 -5.1135,28.8642 -9.3403,42.914 -9.8629,5.5552 -21.8598,2.0929 -32.5273,2.013 2.6167,-27.0942 12.5196,-52.6571 16.8673,-79.4273 12.1978,-46.2165 20.9732,-93.3174 33.5749,-139.4106 z m -2.5767,141.7853 c 10.3867,0 20.7312,-0.2008 31.078,-0.6036 -2.8574,-23.2692 -9.742,-45.7726 -13.526,-68.8398 -11.1924,21.3361 -10.5887,46.6171 -17.5532,69.4434 z m 74.315,-141.5034 c 11.7538,-0.6049 23.5898,-0.6847 35.2649,1.0053 9.0972,26.8524 15.2571,54.629 25.6039,81.0786 10.6686,-26.3286 17.673,-53.9855 25.9257,-81.1185 11.876,-1.8122 23.9128,-1.6102 35.9085,-0.8057 -13.1232,42.4313 -30.3933,83.4944 -43.7185,125.8447 -2.013,30.6352 0.0388,61.4325 -0.8467,92.1488 -10.9893,1.6102 -22.1406,1.6501 -33.131,-0.1609 -1.7311,-30.6763 0.5227,-61.4326 -1.3283,-92.0279 -13.486,-42.3103 -30.6352,-83.4533 -43.6785,-125.9644 z m 165.94,0.4427 c 9.9839,-1.0076 20.0876,-1.0476 30.0304,0.7246 15.3793,72.5428 33.4539,144.4831 50.0805,216.744 -10.8295,1.2073 -21.7389,1.6101 -32.6483,1.2484 -4.3078,-15.1773 -7.608,-30.5965 -11.0714,-45.9734 -14.4515,-0.4839 -29.024,-1.1686 -43.3967,0.6036 -2.9385,14.7334 -7.0044,29.186 -9.5012,44.0004 -10.9493,2.013 -22.1006,1.8122 -33.091,0.121 14.9365,-72.8657 34.4604,-144.6839 49.5977,-217.4686 z m 12.8824,72.0201 c -3.905,22.9862 -8.7366,45.7715 -13.607,68.5579 10.5464,0.4417 21.1352,0.3618 31.6817,-0.162 -5.958,-21.5369 -9.1794,-43.7185 -13.768,-65.4973 -1.0864,-0.7247 -3.2203,-2.1739 -4.3067,-2.8986 z m 96.8584,-71.9402 c 11.2311,-1.2073 22.5833,-1.2073 33.7757,0.4028 15.0962,41.8676 29.7497,84.057 47.6235,124.837 0.8867,-41.9474 -0.4827,-83.936 0.5238,-125.8834 11.2323,-0.323 22.5034,-0.2819 33.7357,0.1609 0.8456,72.5827 1.1263,145.2476 -0.202,217.8314 -10.6275,2.053 -21.457,2.0929 -32.0845,0.04 -15.458,-41.9075 -32.3264,-83.2924 -47.5847,-125.2798 -0.8844,41.7055 -2.0518,83.4122 -1.73,125.1588 -11.2722,1.8521 -22.7853,2.4158 -33.9377,-0.4827 0.081,-72.262 0.283,-144.5229 -0.1198,-216.785 z m 153.1386,0.121 c 28.5013,-0.1609 60.183,-6.7636 85.8679,8.9363 17.2702,10.5876 21.3361,32.2465 20.7324,51.007 -0.6436,37.3977 1.1275,74.8376 -0.9665,112.1965 -0.5227,20.5304 -16.3846,39.4518 -36.5932,43.3157 -22.6644,4.5498 -46.2154,4.6308 -69.0817,1.2895 0.3629,-72.2221 0.2819,-144.483 0.0399,-216.745 z m 33.9765,30.1925 c 0.242,52.6559 -1.0065,105.3941 0.6436,158.0501 9.5412,-0.5238 19.565,0.5637 28.6634,-2.8985 8.1318,-5.1934 10.5065,-15.3382 10.3867,-24.3955 0.1609,-32.3276 -0.162,-64.654 0.1198,-96.9805 10e-4,-10.4266 -0.2818,-22.6643 -8.6544,-30.1924 -9.4202,-5.4753 -20.7723,-3.945 -31.1591,-3.5832 z m 110.3045,-30.6764 c 32.9712,-0.7646 65.9812,-1.0053 98.9124,0.121 -0.081,9.742 -0.041,19.4851 0.2408,29.2271 -21.1751,1.5702 -42.3913,0.4827 -63.5653,0.6036 -2.4158,21.1352 -1.0077,42.4313 -1.0077,63.6464 18.6806,0.041 37.3589,-0.04 56.0384,0.323 -0.2419,9.9028 -0.3218,19.8867 -0.2419,29.8307 -18.5985,-0.041 -37.1969,-0.081 -55.7965,0.2807 -0.4017,20.8534 -0.2818,41.7478 -0.08,62.6 21.417,0.6447 42.874,0.3218 64.2899,0.3218 0.082,10.2258 0.041,20.4106 0.1221,30.6364 -32.8502,2.4557 -66.0633,2.5367 -98.8724,0.081 -0.1609,-72.5839 -0.081,-145.1278 -0.04,-217.6717 z m 136.996,0.081 c 11.1912,-0.8056 22.4623,-0.8456 33.6547,0.5638 -0.4028,30.957 -0.6847,61.9152 0.1198,92.8734 13.0445,0.2009 26.1266,0.121 39.1699,0 0.5649,-30.9582 0.3629,-61.9563 0.1221,-92.9533 11.0703,-1.3694 22.2616,-1.3694 33.3718,-0.202 -0.2808,72.3419 -0.4017,144.6839 0.081,217.0258 -11.1114,2.6977 -22.4635,2.2948 -33.5338,-0.2008 -0.08,-31.7228 1.4082,-63.5255 -0.7246,-95.2083 -12.6405,0.2819 -25.2821,0.202 -37.9226,-0.121 -2.1728,31.6429 -0.6436,63.4867 -0.7247,95.2083 -11.0702,2.4557 -22.4635,3.1005 -33.6148,0.5238 0,-72.5029 0.081,-145.0068 0,-217.5097 z m 221.2526,-0.081 c 29.5489,0.9666 63.0016,-7.0443 89.0084,11.0714 24.7583,23.3091 28.3404,71.5363 -1.0465,92.8336 22.5446,14.8143 21.8188,44.4842 18.8803,68.195 -2.5755,18.5984 -13.8889,37.4798 -32.8901,42.7131 -24.1136,5.7571 -49.3958,5.716 -73.9122,2.8175 -0.1198,-72.5428 -0.081,-145.0867 -0.04,-217.6306 z m 34.2983,30.5554 c -0.1997,19.6061 -0.2818,39.211 0.202,58.857 12.2388,-1.3694 27.9387,1.5691 37.077,-8.6556 4.5087,-12.6816 5.5152,-27.7379 0.242,-40.3373 -7.2463,-13.0844 -25.0813,-9.7431 -37.521,-9.8641 z m 0.6448,87.2373 c -1.6102,22.9873 -0.6448,46.0545 -0.5238,69.0817 11.3533,-0.2008 24.1147,2.094 34.0176,-4.9925 9.5822,-15.9419 7.5282,-36.4723 4.026,-53.9444 -7.769,-12.6405 -24.9604,-9.54 -37.5198,-10.1448 z m 144.9668,-117.8326 c 9.661,-0.4428 19.322,-0.4827 29.024,-0.1609 15.9418,72.9056 34.7822,145.1266 50.1215,218.1544 -11.0714,1.4492 -22.3026,2.1328 -33.2531,-0.4839 -2.6565,-14.8144 -6.4406,-29.4279 -9.5,-44.1624 -14.4526,-1.0054 -28.9852,-1.0054 -43.4389,-0.1609 -3.4611,14.7345 -7.1242,29.4279 -9.4202,44.4043 -11.1102,2.3348 -22.4635,1.9719 -33.6137,0.5626 15.4192,-72.9855 34.2984,-145.2065 50.0793,-218.1532 z m -1.3283,141.3026 c 10.4667,0.121 20.9732,0.04 31.4798,-0.2008 -5.5951,-24.1136 -9.2993,-48.5901 -14.9753,-72.6238 -8.0109,23.5498 -9.944,48.792 -16.5056,72.8246 z m 102.2127,-141.4224 c 11.0702,0.8843 24.3555,-3.5034 34.0575,2.3336 16.6665,42.1905 31.4398,85.1045 48.5091,127.0931 0.162,-43.1959 -0.5637,-86.4329 0.3617,-129.6287 10.9105,-0.242 21.861,-0.242 32.7704,0.6847 -0.2819,72.302 -0.242,144.6439 -0.04,216.9459 -10.5875,1.5291 -22.8264,4.7905 -32.4074,-1.5702 -16.7875,-40.6603 -30.1526,-82.8086 -48.1074,-122.9861 -1.2473,41.7466 1.3283,83.6142 -1.4493,125.3608 -11.2311,1.2484 -22.5045,1.2484 -33.6946,-0.08 -0.6448,-72.7448 -0.6048,-145.4496 0,-218.1532 z m 153.3794,0.1198 c 11.1912,-0.4827 22.3825,-0.5227 33.6148,-0.2819 0.8855,32.3675 0.08,64.8138 0.4427,97.2212 15.9019,-32.1244 32.0035,-64.1701 47.061,-96.6974 11.1113,-0.8456 22.2615,-0.8855 33.3728,-0.2419 -11.0702,28.8242 -28.8242,54.508 -40.7412,82.9706 -2.2538,4.9514 -0.6836,10.4666 0.7246,15.499 14.1719,39.6127 29.7509,78.8636 42.3104,119.04 -11.7539,2.2949 -23.7519,2.7776 -35.3848,-0.1209 -10.2258,-30.7163 -18.8015,-61.9952 -30.1137,-92.3497 -6.4806,8.8165 -12.9212,17.9149 -16.5444,28.3415 -1.6912,21.1352 -0.4427,42.4713 -0.4039,63.6863 -11.3921,2.5768 -23.0661,2.8586 -34.5403,0.6448 -0.7646,-72.5439 -1.1275,-145.1677 0.202,-217.7116 z"
       style="fill:#522d1d;fill-rule:evenodd"
       id="path6" />
  </g>
</svg>
