<?xml version="1.0" encoding="UTF-8" standalone="no"?>
<svg
   version="1.1"
   width="1700.7866"
   height="1332.8503"
   id="svg40"
   viewBox="0 0 1700.7867 1332.8504"
   sodipodi:docname="4ba413ecacbb4149a2c9bed1cbda0cff.cdr"
   xmlns:inkscape="http://www.inkscape.org/namespaces/inkscape"
   xmlns:sodipodi="http://sodipodi.sourceforge.net/DTD/sodipodi-0.dtd"
   xmlns="http://www.w3.org/2000/svg"
   xmlns:svg="http://www.w3.org/2000/svg">
  <defs
     id="defs44" />
  <sodipodi:namedview
     id="namedview42"
     pagecolor="#ffffff"
     bordercolor="#666666"
     borderopacity="1.0"
     inkscape:pageshadow="2"
     inkscape:pageopacity="0.0"
     inkscape:pagecheckerboard="0" />
  <g
     id="Layer1000"
     transform="translate(-283.46476,-467.43318)">
    <g
       id="Layer1001">
      <path
         d="m 1370.2113,522.2016 c 70.0318,-39.0247 152.4397,-65.1082 232.9708,-50.7978 0,32.6301 1.4197,238.8065 1.4197,238.8065 -6.0874,4.6195 -14.4111,2.944 -21.4641,4.6195 -55.5683,10.1973 -107.9861,32.8818 -157.1567,60.1826 -96.9197,54.8554 -181.3656,129.2981 -256.4657,210.9509 -92.0495,103.8227 -189.4325,205.3608 -306.452,281.3803 -81.6477,52.9242 -177.7086,89.8677 -276.3088,84.3391 -79.1598,-7.4105 -156.0411,-41.3555 -214.2443,-95.7096 -51.863,-48.6149 -83.7823,-117.7715 -86.978,-188.7174 -2.2414,-20.1986 -3.0396,-36.2111 -0.4561,-55.668 5.4813,-69.0631 26.6906,-140.006 75.0005,-191.5639 64.346,-70.6892 163.654,-99.157 256.8725,-97.836 129.4542,3.2975 249.16,64.6481 350.4967,141.3764 7.9169,2.8906 1.8295,10.9595 -1.1659,15.0202 -15.6284,23.4939 -30.3959,47.5497 -46.1763,70.9419 -76.2198,-52.7742 -160.1531,-97.99 -252.104,-115.2948 -54.9571,-9.844 -114.3796,-8.9822 -164.9226,17.3048 -63.4318,32.3743 -102.8109,100.3239 -111.4355,169.6417 -4.7202,30.6517 1.1669,62.0101 14.5117,89.8204 28.7729,61.1975 86.3689,110.7709 154.1644,121.3278 28.064,4.9256 56.6315,0.8629 84.187,-4.9688 53.4348,-9.3396 105.2444,-28.3188 151.3744,-56.9376 50.3397,-31.0533 93.6243,-72.2608 132.1908,-116.8654 58.7106,-68.5597 107.0205,-145.2336 151.9825,-223.3322 73.1238,-121.3822 165.9324,-236.2179 290.159,-308.0206 z"
         style="fill:#00899e;fill-rule:evenodd"
         id="path2" />
      <path
         d="m 1603.2818,719.3455 c 82.9163,-6.6986 171.2164,2.1818 242.9257,47.8024 73.4216,45.4151 120.1608,126.051 134.3695,210.1343 5.581,22.7368 3.1454,45.6113 3.1454,69.1678 -6.1932,82.3596 -37.8064,165.6263 -99.0008,222.8751 -52.879,50.1291 -124.8851,75.7114 -196.6406,81.7947 -67.0373,4.3143 -133.5128,-12.9874 -195.2671,-37.8485 -123.1583,-50.9529 -233.1762,-129.3012 -333.345,-216.3296 l -1.1679,-4.0596 c 24.0044,-25.8812 48.5645,-51.2026 73.4822,-76.0688 12.5384,8.0422 27.8545,22.5817 42.2152,32.7811 72.718,56.124 148.7796,108.7996 231.244,149.7483 30.9054,14.2128 62.6706,28.7225 96.7717,32.9331 32.7853,-1.4155 64.908,-12.786 91.6479,-31.7158 48.9714,-35.8773 65.7102,-108.8459 38.8223,-162.8384 -25.4271,-48.2585 -79.4669,-70.6368 -129.709,-83.0201 0,-16.1625 0.5065,-224.2167 0.5065,-235.356 z"
         style="fill:#00899e;fill-rule:evenodd"
         id="path4" />
    </g>
    <g
       id="Layer1002">
      <g
         id="Layer1003">
        <path
           d="m 1555.1414,1682.9619 v 39.8619 h 123.6637 c 16.9874,0 50.4373,-18.7984 50.4373,-56.1693 v -52.3201 h -37.753 v 43.7129 c 0.679,12.9103 -13.5903,24.9146 -30.8037,24.9146 z"
           style="fill:#4b4b4b;fill-rule:evenodd"
           id="path7" />
      </g>
      <g
         id="Layer1004">
        <path
           d="m 1673.823,1772.1988 c 0,-15.5112 -12.5774,-28.0846 -28.0856,-28.0846 -15.5144,0 -28.0846,12.5734 -28.0846,28.0846 0,15.5113 12.5702,28.0847 28.0846,28.0847 15.5082,0 28.0856,-12.5734 28.0856,-28.0847 z"
           style="fill:#4b4b4b;fill-rule:evenodd"
           id="path10" />
      </g>
      <g
         id="Layer1005">
        <path
           d="m 1460.305,1601.4251 c 0,-15.5112 -12.5703,-28.0856 -28.0846,-28.0856 -15.5071,0 -28.0846,12.5744 -28.0846,28.0856 0,15.5113 12.5775,28.0846 28.0846,28.0846 15.5143,0 28.0846,-12.5733 28.0846,-28.0846 z"
           style="fill:#4b4b4b;fill-rule:evenodd"
           id="path13" />
      </g>
      <g
         id="Layer1006">
        <path
           d="m 1555.1414,1666.6545 h 43.486 v -190.2531 h -43.486 z"
           style="fill:#4b4b4b;fill-rule:evenodd"
           id="path16" />
      </g>
      <g
         id="Layer1007">
        <path
           d="m 1525.2448,1618.6385 v 61.1523 c -2.2651,22.6485 -24.2346,39.4941 -42.128,39.4089 h -91.955 l -104.4123,-105.7713 c -4.6082,-5.5132 -5.2091,-15.6274 -0.227,-21.7425 0.9348,-1.1464 111.8875,-115.2845 111.8875,-115.2845 h 54.1312 l -121.3997,126.8347 78.1397,81.7638 57.7553,-0.227 c 15.8543,0 26.0465,-11.3242 26.0465,-20.6104 v -45.751 z"
           style="fill:#4b4b4b;fill-rule:evenodd"
           id="path19" />
      </g>
      <g
         id="Layer1008">
        <path
           d="m 1328.6504,1683.4149 36.2388,39.4089 h -268.1669 c -16.5333,0 -47.11,-19.9315 -47.11,-48.4691 v -55.2632 h 35.3328 v 43.486 c 0,12.4572 7.2481,21.7434 19.9314,21.7434 z"
           style="fill:#4b4b4b;fill-rule:evenodd"
           id="path22" />
      </g>
      <g
         id="Layer1009">
        <path
           d="m 846.9789,1684.625 -27.1786,38.1988 h 179.9839 c 0,0 7.1352,-12.6833 6.3421,-38.1988 z"
           style="fill:#4b4b4b;fill-rule:evenodd"
           id="path25" />
      </g>
      <g
         id="Layer1010">
        <path
           d="m 711.6879,1485.3126 c -22.4225,1.055 -45.298,20.7594 -45.298,41.6749 v 38.6549 c 0,0 34.7873,0.4427 36.4648,0 5.469,-1.4474 -7.202,-45.036 20.8354,-43.9677 l 49.6031,-0.2014 v -36.1607 z"
           style="fill:#4b4b4b;fill-rule:evenodd"
           id="path28" />
      </g>
      <g
         id="Layer1011">
        <g
           id="Layer1012">
          <path
             d="m 771.0467,1586.9473 c 17.1774,0 57.9812,14.0248 57.9812,61.1348 0,81.5368 -55.7347,76.5712 -55.7347,76.5712 0,0 -169.7783,0 -178.4749,0 -29.2084,0 -53.0166,-23.12 -52.5462,-40.0427 l -2.718,-116.7247 h 35.3328 c 0,0 -0.0719,79.7247 0,83.8203 0.2177,15.4014 5.6539,32.6147 24.026,32.9044 5.0375,0.1099 163.9436,1.3765 169.8502,0 5.9066,-1.3416 24.932,-6.6318 24.4616,-28.8098 -0.4356,-21.7435 -9.9652,-28.9917 -22.178,-29.4622 -5.9066,-0.2157 -105.418,-0.1448 -105.418,-0.1448 l 0.3256,-39.2465 z"
             style="fill:#4b4b4b;fill-rule:evenodd"
             id="path31" />
        </g>
      </g>
      <g
         id="Layer1013">
        <path
           d="m 848.1129,1531.4386 h 32.6147 c 36.6918,0 125.0238,17.6663 125.0238,104.6393 v 35.3327 h -42.1279 l -0.0206,-27.4908 c 0,-30.9445 -22.1749,-71.2593 -84.2343,-71.2593 h -31.2557 z"
           style="fill:#4b4b4b;fill-rule:evenodd"
           id="path35" />
      </g>
    </g>
  </g>
</svg>
