<?xml version="1.0" encoding="UTF-8" standalone="no"?>
<svg
   xmlns:dc="http://purl.org/dc/elements/1.1/"
   xmlns:cc="http://creativecommons.org/ns#"
   xmlns:rdf="http://www.w3.org/1999/02/22-rdf-syntax-ns#"
   xmlns:svg="http://www.w3.org/2000/svg"
   xmlns="http://www.w3.org/2000/svg"
   viewBox="0 0 2267.7166 2267.7166"
   id="svg2"
   height="2267.7166"
   width="2267.7166"
   version="1.1">
  <metadata
     id="metadata10">
    <rdf:RDF>
      <cc:Work
         rdf:about="">
        <dc:format>image/svg+xml</dc:format>
        <dc:type
           rdf:resource="http://purl.org/dc/dcmitype/StillImage" />
      </cc:Work>
    </rdf:RDF>
  </metadata>
  <defs
     id="defs8" />
  <path
     id="path4"
     style="fill:#701e72;fill-rule:evenodd"
     d="m 782.6155,400.65 c 65.3258,-3.9759 131.4194,25.7755 172.1389,76.9412 40.8773,49.404 55.6825,118.4625 39.9178,180.4581 -14.6308,60.2159 -58.2288,112.4109 -114.5559,138.0637 -36.3951,16.8626 -77.8299,22.9147 -117.4862,16.7588 -64.0529,-9.2598 -122.3514,-50.6773 -152.294,-108.0341 -20.4905,-37.7382 -28.0241,-82.1025 -22.3739,-124.5833 5.0402,-39.7961 22.4787,-77.7079 48.6718,-108.0341 36.3255,-42.3246 90.2288,-68.936 145.981,-71.5693 z m 389.4632,9.2257 c 1.8315,-3.5399 3.7317,-7.0625 5.9636,-10.3582 -64.7148,299.3734 -129.6408,598.7122 -194.374,898.0861 -13.4626,61.5763 -26.4897,123.2407 -40.1619,184.7651 -114.1727,-0.088 -228.3449,-0.07 -342.5349,-0.017 190.5899,-357.3757 380.7264,-714.9951 571.1067,-1072.4752 z m 42.9693,-9.679 c 40.1268,0.0875 80.2709,0.0183 120.3978,0.0356 -65.8667,303.506 -131.4373,607.0832 -197.2164,910.6075 -12.2243,57.1817 -24.9726,114.277 -36.9532,171.5116 -40.2134,-0.018 -80.4282,-0.1221 -120.6426,0.052 78.179,-360.7243 156.0436,-721.5346 234.4144,-1082.2061 z m 158.7638,0.0356 c 114.19,0.0341 228.3795,-0.0346 342.5695,0.0351 -192.2113,361.0022 -384.4581,722.0053 -576.5824,1083.0603 4.8657,-26.9603 11.4398,-53.5894 17.003,-80.4104 72.2841,-334.2346 144.7604,-668.4336 217.0099,-1002.685 z m 10.5683,729.138 c 40.2138,-41.9232 99.1747,-64.6284 157.0713,-61.8206 45.1502,2.0747 89.3923,19.4441 123.8517,48.707 28.5995,23.8732 50.3283,55.7867 62.605,90.9263 13.5506,39.4466 14.9105,82.9744 3.7149,123.171 -16.8458,61.8032 -64.1923,114.2597 -123.9209,137.3835 -45.0266,17.9966 -96.4198,19.2527 -142.2838,3.5053 -46.8231,-15.6431 -87.2643,-48.8987 -112.3417,-91.345 -18.7989,-31.6169 -28.8091,-68.3778 -28.5822,-105.1393 -0.436,-53.8514 21.5721,-107.5106 59.8852,-145.3882 z m -34.7035,489.6147 c 5.2137,-6.627 11.4042,-12.3642 17.3861,-18.2586 5.9463,4.4994 11.0562,9.9929 16.4622,15.1369 4.9705,-4.7436 9.2776,-10.1842 14.649,-14.5091 2.4064,-0.2615 3.7317,2.3021 5.493,3.5577 4.7609,4.621 9.6439,9.1031 14.0034,14.1255 -5.9463,5.9988 -11.9806,11.9283 -18.1889,17.6482 -5.6146,-4.6734 -10.6202,-10.0271 -15.782,-15.1716 -5.1262,5.1095 -10.3765,10.0968 -15.521,15.1716 -6.5217,-5.5281 -12.4858,-11.6667 -18.5023,-17.7006 z m -430.166,-3.9937 c 2.3021,-1.7959 5.0224,-2.8246 7.8129,-3.5572 0.2966,38.0863 -0.0351,76.1908 0.1567,114.277 0.1048,5.8074 0.959,12.5734 6.016,16.2883 3.6452,2.877 8.5104,2.7727 12.9223,2.8078 52.9276,-0.087 105.8541,0 158.7644,-0.035 4.6042,0.07 9.7828,-0.6105 12.817,-4.4994 5.0229,-6.4698 5.232,-15.2067 9.2079,-22.1995 1.3085,-2.8775 5.6156,-4.1855 7.7956,-1.4998 7.0803,7.9691 5.2661,21.5544 15.4157,27.2046 12.9752,-13.4454 23.717,-29.0534 38.1915,-41.0513 12.1378,-10.2717 27.3089,-19.27 43.824,-17.5784 12.9574,0.8893 23.9607,11.0562 27.4833,23.2983 3.2794,11.4749 1.1162,23.7521 -3.3832,34.5815 9.418,2.79 20.0377,2.5809 29.3672,-0.4533 10.1852,-3.9067 9.6088,-16.2883 13.864,-24.6064 2.1108,-5.0748 10.1318,-6.2256 13.2189,-1.4998 2.9477,5.4406 3.1039,11.8585 5.2489,17.6135 1.7098,5.8767 7.673,9.4344 13.4977,10.1319 9.2776,1.0638 18.6595,0.4187 27.9895,0.3836 13.516,-0.2966 27.3093,0.1572 40.5104,-3.1914 4.36,-0.8018 6.4001,-5.0051 5.5459,-9.1378 -13.166,2.0926 -26.8214,3.8015 -39.9528,0.6798 -8.7012,-2.0575 -16.2531,-9.0681 -17.4563,-18.1361 -2.0925,-16.3233 2.7905,-32.9422 11.248,-46.8413 4.8657,-7.9172 12.8699,-15.1888 22.7229,-15.0148 13.1141,-0.8196 24.8678,7.7254 31.3203,18.6249 13.1838,21.8509 16.6021,48.4454 13.5501,73.47 -1.9699,15.1196 -7.7081,30.5007 -19.27,40.9291 -12.5204,11.4403 -29.8729,15.6777 -46.4399,16.3055 -9.9573,0.1918 -19.9848,0.7326 -29.9075,-0.2793 -9.7829,-1.133 -17.6482,-8.0388 -22.7576,-16.0608 -5.2315,8.4402 -13.8818,15.0321 -23.9612,16.0608 -9.3641,0.7326 -18.8691,0.9941 -28.1986,-0.1394 -11.1254,-2.0228 -18.5898,-11.7186 -23.2637,-21.3101 -11.6662,15.0672 -31.3728,20.8044 -49.7357,21.1183 -17.5957,0.436 -36.6917,-3.139 -50.2591,-15.1018 -5.5454,8.4575 -14.0034,16.5492 -24.9024,15.9214 -54.6009,0.1048 -109.2027,0.035 -163.7868,0.035 -13.9332,-0.2966 -29.1225,0.2091 -41.0507,-8.2138 -12.1027,-8.2311 -16.6194,-23.5074 -17.003,-37.4589 -0.523,-34.3897 -1.2734,-68.8139 -4.5514,-103.0636 -0.2442,-4.709 -2.4939,-11.161 2.4935,-14.1779 11.5797,-8.2835 23.3161,-16.3579 34.8953,-24.6237 z m 451.6684,84.4743 c 8.8233,3.5577 19.2344,3.7668 28.163,0.5057 -2.8068,-6.627 -9.8703,-10.9514 -16.9333,-11.0562 -5.929,-0.1745 -11.7537,4.2028 -11.2302,10.5505 z m -172.5404,27.1521 c -11.8066,5.4762 -21.5553,14.3703 -30.8156,23.3335 16.9333,0.2269 34.3199,0.4884 50.6077,-4.8825 3.6279,-1.3604 7.7778,-2.6684 9.9929,-6.104 0.523,-5.1618 -1.657,-10.9515 -6.5049,-13.306 -7.3418,-3.4702 -16.1138,-2.3891 -23.2811,0.9595 z m 274.8541,-101.8079 c 4.3946,-4.6913 8.3705,-9.8704 13.6539,-13.6199 10.1506,38.3483 8.2489,78.4924 8.5974,117.8174 0.5586,17.9967 -2.8424,35.8717 -7.673,53.1362 -2.5626,7.3418 -5.057,15.7647 -11.7537,20.4213 -4.0802,1.5166 -6.8361,-2.5463 -8.1965,-5.7377 -3.7134,-8.7195 -4.8998,-18.2235 -6.7659,-27.4487 -6.6611,-37.1801 -12.2421,-74.5516 -17.8404,-111.923 9.9934,-10.8822 19.9675,-21.7812 29.9777,-32.6456 z m 423.3121,-7.2549 c 3.4,-2.5636 7.0798,-4.7604 10.9682,-6.5568 1.3955,31.1632 0.1923,62.4316 0.5932,93.6471 0.2274,9.3122 -0.6278,18.7119 0.6975,27.9891 0.8023,6.0867 5.755,11.51 12.0676,11.9282 8.7546,0.4884 17.5611,0.1226 26.333,0.1923 3.4188,-0.2966 8.0393,0.3836 9.9578,-3.2962 -0.174,-3.5923 -2.7208,-6.2607 -4.8306,-8.8936 -5.8944,-6.9587 -12.5387,-13.2016 -19.2705,-19.3224 3.2097,-6.8885 8.1441,-12.7132 12.295,-19.0258 5.2315,-7.3423 9.9049,-15.1196 15.7647,-22.0081 14.2827,14.5615 21.3977,34.9996 22.6533,55.107 0.5758,16.8459 0.4009,34.2849 -5.5286,50.2938 -3.3126,9.2598 -10.7943,16.7415 -19.9498,20.2814 -14.6139,5.9814 -30.7276,4.3076 -46.126,4.2725 -13.864,-0.1048 -28.949,-4.883 -36.8311,-17.0203 -9.3646,-13.9164 -8.0566,-31.4073 -8.2489,-47.3638 -0.8187,-30.2393 -1.7085,-60.5131 -4.9172,-90.6129 -0.4009,-2.6857 0.2264,-5.6848 2.6853,-7.1846 10.4116,-7.6557 21.2058,-14.8408 31.6866,-22.4264 z m -1240.0807,-2.354 c 1.9353,-2.1627 4.3768,0.4187 5.8416,1.7964 5.7901,5.7896 12.207,11.0212 17.3169,17.4737 -6.9231,6.6789 -13.3756,13.9164 -20.9439,19.9151 -6.8534,-6.5049 -13.5155,-13.2011 -20.3338,-19.706 4.97,-7.3938 11.9282,-13.1661 18.1187,-19.4792 z m 1145.1602,8.3706 c 3.7149,-2.9473 6.1559,-8.3009 11.0562,-9.2253 6.0348,4.8479 11.2831,10.6203 17.003,15.8696 1.308,1.4474 4.4989,3.7841 1.9358,5.755 -6.0511,6.3823 -12.5214,12.3815 -18.8691,18.4677 -7.0452,-6.1386 -13.7938,-12.643 -20.1415,-19.4618 0.6975,-4.9003 6.0511,-7.6904 9.0156,-11.4052 z m -104.1793,17.8226 c 24.937,-8.1614 49.7697,-16.5843 74.7597,-24.5891 -1.2897,16.2883 -2.8078,32.5938 -4.9176,48.7945 -19.9498,6.8707 -39.9875,13.5323 -59.9377,20.3862 11.7369,13.4102 23.4031,26.8906 35.2789,40.1614 9.0858,9.8877 21.2929,18.3808 35.2093,18.5202 11.1091,0.1918 22.2345,0.1572 33.3609,0.035 3.2092,0.174 6.1905,-1.0292 8.7541,-2.9299 -4.9344,-11.8408 -15.695,-19.7931 -24.6414,-28.4953 8.1624,-14.4043 18.2067,-27.7626 27.9544,-41.1555 14.3875,14.5091 21.4327,35.0347 22.758,55.1416 0.5759,15.8869 0.3317,32.1751 -4.5162,47.4687 -2.6155,8.6498 -8.2667,16.4973 -16.2882,20.8568 -12.207,6.9231 -26.6988,6.9236 -40.3191,6.976 -20.7515,0.5576 -38.4002,-13.4804 -51.3225,-28.3909 -5.754,11.0913 -15.3638,20.0372 -26.9776,24.6933 -18.2062,7.4466 -38.2963,7.2721 -57.6187,7.1505 -20.1935,0.2091 -41.2253,-0.088 -60.0242,-8.3186 -12.9915,-5.668 -22.6883,-17.7178 -25.7576,-31.4948 -3.9403,-17.7005 -2.0055,-36.674 5.1272,-53.3107 2.0757,-4.3773 5.2839,-10.1145 10.9514,-9.5737 4.7792,0.2091 6.1732,5.8593 6.2607,9.7833 0.2447,8.6142 0.436,18.6244 7.4812,24.7981 9.7487,7.9346 22.8623,9.4171 34.965,10.5852 16.8814,0.8542 33.8316,0.5581 50.7125,-0.4711 8.9642,-0.8018 18.2759,-1.133 26.5594,-5.0743 -5.6843,-10.3068 -14.9629,-17.9621 -22.5484,-26.7864 -6.801,-7.3245 -13.7419,-14.5091 -20.5607,-21.7639 2.8434,-14.4221 4.2206,-29.2273 7.9696,-43.3879 8.7022,-4.1504 18.2586,-6.2953 27.3271,-9.6088 z m -425.2133,23.281 c 5.7031,-6.0516 11.4047,-12.12 17.5433,-17.7356 5.7382,4.6912 10.8817,10.0626 16.3228,15.1196 4.8662,-5.1969 9.8179,-10.3063 15.0673,-15.1196 6.6621,5.5281 12.7478,11.7018 18.921,17.788 -5.5795,5.9463 -11.1432,11.9806 -17.3342,17.2818 l -1.4825,0.2788 c -5.3883,-4.4119 -9.9752,-9.7131 -15.1019,-14.4216 -5.1267,4.5686 -9.6088,9.853 -14.8927,14.2476 l -1.5344,0.087 c -6.191,-5.4584 -12.1724,-11.2307 -17.5087,-17.526 z m -484.9235,38.3304 c 7.6033,-15.4681 14.0904,-31.5116 22.5657,-46.5091 13.341,4.9522 23.8564,15.1715 33.0643,25.7047 13.7943,15.7474 22.6705,36.2206 22.3739,57.3568 0.1918,16.654 -2.8251,34.8602 -14.7706,47.3465 -11.161,11.7715 -28.1991,15.3465 -43.859,15.0326 -13.7765,0.017 -29.0355,-2.5814 -38.8713,-13.0968 -8.3878,-8.9983 -10.2193,-21.9557 -9.5564,-33.7445 0.4533,-9.94 2.6852,-19.9325 7.2543,-28.7914 1.7267,-4.2903 8.2312,-6.2083 11.0212,-1.9007 3.7846,6.4871 3.9764,15.9739 11.5451,19.7056 9.7309,3.7841 20.4727,2.9472 30.7271,3.0693 7.0803,-0.4533 15.4335,0.1221 20.7698,-5.493 -5.9987,-10.6905 -16.916,-17.2127 -26.7166,-23.9613 -8.2662,-5.3363 -16.8809,-10.0794 -25.548,-14.7182 z M 469.779,1688.6358 c 4.0456,-5.5103 7.2543,-11.7013 12.3291,-16.3574 7.935,8.8238 14.0207,19.2873 17.6654,30.5877 5.7377,17.3866 5.5459,36.0813 3.7846,54.113 -1.6046,13.1665 -4.8835,27.9198 -16.2531,36.186 -12.8872,9.3819 -29.6292,9.504 -44.8878,9.3122 -4.3249,0.3139 -7.9177,-2.1098 -10.9346,-4.9003 0.2442,17.8226 -4.3244,36.9008 -17.3861,49.7535 -13.1492,13.0088 -32.1399,17.6827 -50.0851,18.6941 -20.1064,0.8893 -41.6959,-0.4706 -59.0306,-11.771 -11.858,-7.4817 -19.3916,-20.7002 -20.9789,-34.5118 -2.1449,-18.7816 2.3718,-37.7204 9.2776,-55.0897 2.5112,-5.406 6.1213,-13.0093 13.2011,-12.3988 5.8771,0.2788 6.6616,7.1149 6.5049,11.684 0.5057,10.1318 -5.4584,20.2814 -1.5873,30.2392 4.5696,10.5154 16.8285,13.9337 27.17,15.695 17.9625,2.4064 36.6393,2.2319 54.0432,-3.1914 5.9819,-2.0401 12.8175,-5.0397 15.0499,-11.4749 1.5171,-4.8479 -1.5171,-9.3992 -4.3595,-13.0266 -6.0338,-7.4293 -13.4285,-13.6025 -20.7525,-19.706 7.2721,-13.777 13.8986,-27.9198 21.624,-41.4527 9.8357,8.545 18.5374,19.8109 31.6169,23.3162 12.1201,0.8196 24.3276,0.5403 36.4649,0.1572 3.3308,0.2961 6.9577,-2.8775 4.7085,-6.2434 -6.191,-9.644 -15.0326,-17.2122 -23.3334,-24.99 4.3249,-8.8589 10.8471,-16.3752 16.1483,-24.6236 z m 172.2091,24.6587 c 7.9345,-14.4043 18.3629,-27.3439 27.5012,-41.0334 5.2488,3.8187 8.5623,9.504 11.7883,14.9975 8.3537,14.7706 11.8763,31.913 11.6494,48.7766 -0.0173,14.6313 -0.8196,29.7158 -6.5222,43.3702 -3.749,9.1209 -11.7888,16.0089 -21.0313,19.183 -13.4627,5.0224 -28.0593,3.5053 -42.1151,3.7317 -1.918,22.1826 -6.8712,45.7603 -22.3744,62.6758 -3.3476,4.1504 -9.1031,2.9996 -13.7587,3.1914 -19.0782,-0.2793 -38.2089,0.3485 -57.2871,-0.2793 -7.7076,-0.2966 -9.5915,-12.6603 -2.354,-15.2239 17.5784,-8.6849 34.4594,-18.712 50.7471,-29.6115 7.7432,-5.5281 16.0608,-11.0038 20.8395,-19.4969 -12.207,-0.7321 -25.2341,0.7504 -36.6744,-4.3768 -11.6139,-5.755 -14.7005,-19.9848 -14.1078,-31.826 0.5759,-19.4099 4.4297,-39.9351 16.3229,-55.77 9.1209,-12.5036 28.8091,-13.6193 40.0393,-3.4005 10.3765,9.33 14.3524,23.3858 17.2645,36.5524 12.9055,-0.1572 25.8446,0.3836 38.7319,-0.2615 3.3486,0.2961 6.8885,-2.9299 4.6393,-6.2607 -6.1733,-9.6267 -14.9452,-17.2473 -23.2984,-24.9376 z m -68.8835,33.0644 c -3.1568,1.7262 -2.9996,5.6329 -3.3486,8.7368 8.7368,3.6798 18.9388,3.7149 27.8674,0.698 -3.7149,-9.0339 -15.7123,-14.3875 -24.5193,-9.4348 z m -242.8723,-39.813 c 6.0689,-7.0452 12.6084,-13.7592 19.6714,-19.8281 7.1851,6.4347 14.0385,13.2189 20.9789,19.9151 -6.2256,7.5509 -13.3232,14.387 -20.665,20.8573 -6.6092,-6.4006 -13.6025,-12.469 -19.6364,-19.3921 l -0.3489,-1.5522 z m 1621.3127,117.2242 c 1.3782,-1.2383 3.662,-3.9408 5.5281,-1.6916 6.7669,5.9468 13.1314,12.3296 19.5662,18.6773 -6.3641,7.3241 -13.6199,13.8117 -20.5949,20.543 -7.3067,-6.5049 -14.5091,-13.1838 -20.9443,-20.543 5.1277,-5.9814 10.8644,-11.4225 16.4449,-16.9857 z m -1504.1053,17.0727 c 5.5978,-6.2607 11.4917,-12.2421 17.6476,-17.962 5.6334,4.883 10.9173,10.1669 16.3055,15.3465 4.9878,-5.1796 9.9054,-10.4462 15.1374,-15.3989 6.7313,5.5281 12.5906,11.9979 18.8686,18.0144 -5.9987,6.2084 -11.8585,12.6258 -18.5547,18.1193 -5.2493,-4.9878 -10.4116,-10.0799 -15.521,-15.2071 -5.2839,5.0748 -10.0972,10.6726 -15.8868,15.2071 -6.0862,-5.9468 -12.3815,-11.7018 -17.9966,-18.1193 z" />
</svg>
