<?xml version="1.0" encoding="UTF-8" standalone="no"?>
<svg
   version="1.1"
   width="1700.7859"
   height="1421.9183"
   id="svg37"
   viewBox="0 0 1700.7859 1421.9184"
   sodipodi:docname="6482c19ebeb8ac3d48a8f302a1ccfa3a.cdr"
   xmlns:inkscape="http://www.inkscape.org/namespaces/inkscape"
   xmlns:sodipodi="http://sodipodi.sourceforge.net/DTD/sodipodi-0.dtd"
   xmlns="http://www.w3.org/2000/svg"
   xmlns:svg="http://www.w3.org/2000/svg">
  <defs
     id="defs41" />
  <sodipodi:namedview
     id="namedview39"
     pagecolor="#ffffff"
     bordercolor="#666666"
     borderopacity="1.0"
     inkscape:pageshadow="2"
     inkscape:pageopacity="0.0"
     inkscape:pagecheckerboard="0" />
  <g
     id="Layer1000"
     transform="translate(-283.4652,-422.89962)">
    <path
       d="m 1983.1927,1712.7709 c -7.9752,0 -93.1098,0 -93.1098,0 0,0 0,-190.1024 0,-193.1202 0,-3.0219 -46.5589,39.6551 -46.5589,39.6551 v 160.3618 c 0,0 3.4518,51.7266 69.8358,51.7266 66.384,0 23.0595,0 32.1131,0 6.1445,0 45.6989,-58.6233 37.7198,-58.6233 z"
       style="fill:#af1116;fill-rule:evenodd"
       id="path2" />
    <path
       d="m 1827.1427,1716.4342 c -7.7606,0 -80.1804,0 -80.1804,0 0,0 -17.6299,-8.4685 -30.1746,-35.1319 -6.8957,-14.6533 -4.7418,-31.4716 -29.501,-68.6808 0,0 -11.4542,-12.9043 7.944,-17.1053 l 78.4604,-21.55 c 0,0 47.572,-67.1583 33.6225,-62.0762 -36.1026,13.1439 -166.3975,40.5222 -166.3975,40.5222 l -40.9531,65.958 c 0,0 72.0773,17.9179 76.2995,47.8488 4.7458,33.6225 -20.256,51.7277 -20.256,51.7277 0,0 -179.8656,-1.5125 -184.9337,-1.5125 -5.065,0 -57.1179,54.96 -50.0067,54.96 7.1111,0 218.8813,0 222.4379,0 3.5556,0 41.8121,-46.9818 41.8121,-46.9818 0,0 35.4894,54.9026 83.2033,51.2977 1.741,-0.1319 22.8399,-1.728 22.8399,-1.728 0,0 43.5441,-57.5479 35.7834,-57.5479 z"
       style="fill:#af1116;fill-rule:evenodd"
       id="path4" />
    <path
       d="m 1111.7393,1773.972 c -4.2806,-0.3121 44.2127,-56.8923 44.2127,-56.8923 h 72.4238 l 49.1428,-65.954 c 0,0 7.7576,-10.7725 19.3961,0 0,0 11.2397,59.9203 38.7982,66.821 0,0 15.5173,6.6812 69.4059,-1.728 0,0 21.7685,-0.433 21.7685,-40.5221 0,-40.0922 -76.948,-54.9641 -76.948,-54.9641 l 33.6224,-67.2479 c 0,0 96.3472,-10.123 167.474,-41.5946 8.7314,4.0903 -18.9067,59.0644 -23.9234,60.9937 -5.0157,1.9394 -39.4437,16.1658 -91.8189,24.5709 0,0 86.3591,81.7734 -41.9208,170.9187 0,0 -94.73,34.9295 -119.7359,-62.2876 0,0 -51.3037,68.5419 -55.6095,68.5419 -4.3007,0 -102.0073,-0.3434 -106.2879,-0.6556 z"
       style="fill:#af1116;fill-rule:evenodd"
       id="path6" />
    <path
       d="m 968.4355,1774.6276 c -8.6206,-1.5054 46.5569,-60.1358 46.5569,-60.1358 h 85.3532 c 0,0 57.7603,-64.657 -58.6274,-93.9707 0,0 28.4517,-36.2104 35.3484,-41.3831 6.8977,-5.1718 167.2605,40.0781 9.4856,195.4896 0,0 -109.4961,1.5024 -118.1167,0 z"
       style="fill:#af1116;fill-rule:evenodd"
       id="path8" />
    <path
       d="m 988.2666,1715.3618 c 6.0348,0 -39.4477,59.9324 -42.7858,59.9324 -3.3391,0 -193.0165,0.3051 -193.0165,0.3051 0,0 -14.2254,-43.3256 -27.1578,-0.9717 0,0 -106.0442,23.0665 -128.0302,-59.2658 0,0 -3.5556,-11.5378 -10.3466,0 l -50.7579,59.2658 c 0,0 -100.5492,0 -103.1351,0 -2.5869,0 42.2411,-58.8419 46.5569,-58.8419 4.3128,0 72.743,0.3223 72.743,0.3223 l 52.7003,-64.9823 c 0,0 14.8719,-7.1162 16.8113,10.3445 0,0 0.6464,83.736 101.8169,52.9521 60.1348,-69.8368 -42.0044,-90.7796 -47.8246,-94.6574 -5.8193,-3.8819 32.0083,-64.9864 32.0083,-64.9864 0,0 157.7728,-40.7376 164.2396,-42.677 6.4667,-1.9394 -11.6385,58.8428 -26.5103,63.3701 -14.8729,4.5233 -85.3532,16.1628 -85.3532,16.1628 0,0 -14.8718,1.9424 -5.1727,14.8748 0,0 65.3065,46.8781 15.8707,108.9291 0,0 211.309,-0.077 217.3437,-0.077 z"
       style="fill:#af1116;fill-rule:evenodd"
       id="path10" />
    <path
       d="m 308.4563,1650.6987 c 0,0 -73.0359,79.0597 30.6057,120.6955 30.8351,12.3917 68.5409,2.5879 68.5409,2.5879 0,0 47.592,-43.242 62.9361,-67.8964 18.1062,-29.0811 -2.7812,-61.2566 -34.9164,-86.4256 0,0 59.9193,-28.4497 55.6095,-43.11 0,0 -82.7673,-7.3227 -118.1137,64.6641 0,0 10.5218,11.4441 29.9209,14.466 19.3971,3.0219 61.035,35.5337 12.8076,60.1921 -39.7549,20.3215 -128.9285,-14.9906 -99.2019,-58.2809 5.063,-7.375 -0.4632,-14.3935 -8.1887,-6.8927 z"
       style="fill:#af1116;fill-rule:evenodd"
       id="path12" />
    <path
       d="m 925.1674,1613.996 -29.2624,-29.2624 -29.2613,29.2624 29.2613,29.2573 z"
       style="fill:#af1116;fill-rule:evenodd"
       id="path14" />
    <path
       d="m 894.454,1660.5508 -29.2633,-29.2582 -29.2624,29.2582 29.2624,29.2583 z"
       style="fill:#af1116;fill-rule:evenodd"
       id="path16" />
    <path
       d="m 952.9776,1660.5508 -29.2623,-29.2582 -29.2613,29.2582 29.2613,29.2583 z"
       style="fill:#af1116;fill-rule:evenodd"
       id="path18" />
    <path
       d="m 1818.075,1649.3766 -29.2653,-29.2583 -29.2583,29.2583 29.2583,29.2583 z"
       style="fill:#af1116;fill-rule:evenodd"
       id="path20" />
    <path
       d="m 1943.1488,1815.5556 -29.2653,-29.2573 -29.2583,29.2573 29.2583,29.2623 z"
       style="fill:#af1116;fill-rule:evenodd"
       id="path22" />
    <path
       d="m 1398.6521,1529.9952 c 0,0 144.4115,-44.7273 148.7233,-45.0525 4.3088,-0.3233 -4.5515,14.5284 -4.5515,14.5284 0,0 -143.0964,41.5181 -146.652,43.8834 -3.5555,2.3694 2.4802,-13.3593 2.4802,-13.3593 z"
       style="fill:#af1116;fill-rule:evenodd"
       id="path24" />
    <path
       d="m 726.1705,1532.5106 c 0,0 144.4125,-44.7232 148.7233,-45.0465 4.3077,-0.3222 -4.5525,14.5254 -4.5525,14.5254 0,0 -143.0944,41.5141 -146.652,43.8875 -3.5556,2.3694 2.4812,-13.3664 2.4812,-13.3664 z"
       style="fill:#af1116;fill-rule:evenodd"
       id="path26" />
    <path
       d="m 1438.6023,1216.3456 c -17.3248,0 -298.8825,0 -312.5943,0 -13.7138,0 -204.2975,-324.2871 -204.2975,-341.8959 0,-17.6098 83.4489,-130.6856 75.0811,-131.6764 -12.9606,-1.5346 -129.9445,0 -129.9445,0 0,0 -167.488,275.7677 -167.488,285.8806 0,10.1089 162.4371,297.4254 167.488,297.4254 5.0509,0 119.8255,0 127.0515,0 7.2259,0 -163.8862,-281.7601 -161.7041,-291.6535 1.6857,-7.6217 20.2108,-40.1929 28.1547,-49.8074 7.9439,-9.6145 198.0322,341.4609 210.0352,341.4609 21.6678,0 316.9585,0 316.9585,0 0,0 68.5842,-109.7337 51.2594,-109.7337 z"
       style="fill:#af1116;fill-rule:evenodd"
       id="path28" />
    <path
       d="m 1266.154,444.2452 c 8.7736,14.9363 151.4602,257.6585 158.4052,269.4813 6.9521,11.8197 -176.0281,340.4629 -191.205,349.3886 -15.1739,8.9227 -154.9493,-5.7165 -151.567,1.9948 5.2453,11.9547 65.8594,112.0276 65.8594,112.0276 0,0 322.6106,4.635 331.3258,-0.4924 8.7143,-5.1204 174.0816,-290.7583 171.525,-295.1124 -2.5638,-4.3521 -60.7158,-103.2982 -64.3862,-109.5293 -3.6563,-6.2301 -159.8452,284.0731 -169.4788,287.2057 -7.4274,2.4107 -44.8894,2.9454 -57.2045,0.9677 -12.3121,-1.9736 194.0084,-343.7628 187.9263,-354.1093 -10.9799,-18.6802 -160.6286,-273.2442 -160.6286,-273.2442 0,0 -129.3614,-3.5143 -120.5716,11.4219 z"
       style="fill:#af1116;fill-rule:evenodd"
       id="path30" />
    <path
       d="m 685.8054,972.9729 c 8.7807,-14.9363 151.4572,-257.6554 158.4123,-269.4782 6.952,-11.8197 383.0897,-11.7895 398.2847,-2.8638 15.177,8.9177 70.3706,138.1683 75.4517,131.4589 7.8926,-10.3969 65.8544,-112.0356 65.8544,-112.0356 0,0 -152.8549,-284.1355 -161.5762,-289.2519 -8.7072,-5.1275 -338.72,-10.6849 -341.2837,-6.3378 -2.5607,4.3571 -60.7158,103.2972 -64.3791,109.5363 -3.6633,6.222 325.9436,1.4933 333.3639,8.391 5.7337,5.3168 24.4148,37.7873 28.6783,49.5134 4.2635,11.7109 -394.7312,-2.3231 -400.8123,8.0265 -10.9839,18.6761 -160.6125,273.2442 -160.6125,273.2442 0,0 59.8458,114.7423 68.6185,99.797 z"
       style="fill:#af1116;fill-rule:evenodd"
       id="path32" />
    <path
       d="m 1256.6805,878.4977 c 0,-68.5772 -55.5924,-124.1675 -124.1655,-124.1675 -68.5762,0 -124.1675,55.5903 -124.1675,124.1675 0,68.5751 55.5913,124.1655 124.1675,124.1655 68.5731,0 124.1655,-55.5904 124.1655,-124.1655 z"
       style="fill:#00aec4;fill-rule:evenodd"
       id="path34" />
  </g>
</svg>
