<?xml version="1.0" encoding="UTF-8" standalone="no"?>
<svg
   version="1.1"
   width="1700.7865"
   height="1610.4967"
   id="svg4"
   viewBox="0 0 1700.7865 1610.4967"
   sodipodi:docname="7ab63479346f9b87f838f445a43f35a7.cdr"
   xmlns:inkscape="http://www.inkscape.org/namespaces/inkscape"
   xmlns:sodipodi="http://sodipodi.sourceforge.net/DTD/sodipodi-0.dtd"
   xmlns="http://www.w3.org/2000/svg"
   xmlns:svg="http://www.w3.org/2000/svg">
  <defs
     id="defs8" />
  <sodipodi:namedview
     id="namedview6"
     pagecolor="#ffffff"
     bordercolor="#666666"
     borderopacity="1.0"
     inkscape:pageshadow="2"
     inkscape:pageopacity="0.0"
     inkscape:pagecheckerboard="0" />
  <path
     d="m 772.24259,1.6747434 c 33.6821,-5.2842 68.7654,2.2651 98.7437,18.0097996 50.3246,27.2099 84.7251,82.208397 84.7608,139.721597 2.6961,67.399 -42.8119,132.3179 -105.8967,154.9639 -40.7995,15.2047 -87.9246,13.1566 -126.9614,-6.2909 -36.5209,-17.7582 -65.9256,-49.7489 -80.5189,-87.6363 -15.8884,-41.5545 -14.0553,-89.7577 5.8946,-129.621797 23.1137,-47.9158 71.2088,-82.4955996 123.9779,-89.1462996 z M 488.73589,245.02894 c 22.4667,-3.0191 46.155,-2.2997 67.184,7.0103 37.3106,14.7014 66.1763,48.9582 73.8683,88.428 11.9695,51.7256 -15.9597,108.5562 -63.1205,132.2813 -42.0569,22.8253 -97.7014,16.6067 -133.935,-14.5944 -39.6124,-31.9204 -54.5308,-89.7577 -35.6233,-136.9184 14.5944,-39.0378 50.7913,-68.6208 91.6265,-76.2058 z m 571.14721,-0.5747 c 36.2703,-5.1762 74.66,6.183 101.1515,31.7044 34.7246,31.8838 48.1685,84.9769 31.5974,129.3345 -11.1075,31.1644 -35.4796,57.2259 -65.7096,70.6342 -37.8863,17.1814 -84.5458,12.5452 -118.5143,-11.3949 -37.34731,-25.8098 -58.48431,-73.5096 -50.61191,-118.4786 7.0817,-51.3313 50.86361,-94.6456 102.08691,-101.7985 z m -283.79401,162.0446 c 37.815,-5.8946 77.7148,7.909 104.3876,35.1923 33.5375,33.3581 44.213,86.9168 26.2399,130.6631 -15.277,37.8507 -50.5753,67.0037 -90.8001,74.3014 -24.7664,2.9824 -51.0429,2.1204 -73.6889,-9.4181 -34.5799,-16.3561 -60.9288,-49.4259 -67.9014,-87.1696 -4.6016,-25.9892 -1.6904,-53.7747 10.6755,-77.3194 17.1467,-35.2636 52.3726,-60.4621 91.0874,-66.2487 z m -237.209,161.7216 c 31.9571,-5.0682 66.1417,11.1075 82.2807,39.1814 21.4243,34.3282 10.8915,83.2517 -21.9623,106.4724 -23.1494,17.4331 -55.7892,20.2373 -82.0657,8.4471 -28.1809,-12.9049 -47.6285,-42.9556 -46.9091,-74.121 -0.97,-38.8217 30.338,-74.659 68.6564,-79.9799 z m 477.72441,1.9054 c 39.2884,-11.4672 84.6884,12.4739 97.1613,51.5106 13.8403,36.09 -3.4511,80.304 -37.5633,98.1334 -30.6254,17.4688 -72.0719,10.9272 -96.58771,-14.1276 -19.7338,-20.0936 -28.2532,-50.8993 -20.4889,-78.1102 6.8667,-27.7509 29.9427,-50.2522 57.47861,-57.4062 z m -247.66941,163.2663 c 46.8744,-16.9297 102.8062,19.8072 105.3944,69.5928 5.0325,40.3664 -25.5572,80.4466 -65.4213,87.3122 -30.4827,6.1106 -64.0925,-7.3323 -81.49,-33.1778 -17.4698,-24.2997 -19.6982,-58.6636 -4.9969,-84.8331 10.1008,-17.9375 26.5282,-32.9618 46.5138,-38.8931 z m -193.965,161.7939 c 22.108,-10.7121 50.6119,3.1638 56.1121,26.9959 7.4771,24.7664 -14.3069,51.2589 -39.6481,50.8269 -19.0155,-0.431 -36.8806,-14.7736 -40.0434,-33.7525 -3.4868,-17.9375 7.045,-36.7726 23.5794,-44.0703 z m 409.1749,-1.5457 c 22.61041,-8.4114 49.64091,8.016 52.69671,31.8837 6.1106,27.2476 -22.3943,53.8125 -49.06721,46.1194 -18.1158,-3.7028 -31.7401,-20.8486 -31.524,-39.2527 -0.2874,-17.2191 11.5752,-33.5375 27.8935,-38.7504 z m -200.7593,80.4832 c 18.0098,-4.8165 39.0734,3.7029 46.8378,21.029 10.6765,20.59686 -0.1437,49.13746 -22.5737,56.29146 -23.3287,9.5251 -52.1943,-8.1964 -54.0631,-33.2858 -3.0191,-19.41186 10.6765,-39.68476 29.799,-44.03466 z m -365.5,192.56296 c 8.8077,-9.0941 18.8718,-17.0388 29.7287,-23.5447 8.663,1.6894 7.692,12.4372 8.5907,19.2315 0.5023,37.2037 0.3587,74.4083 0.539,111.612 0.4321,13.5876 -4.9245,26.3845 -10.3158,38.5711 -1.7617,6.1462 -8.3767,8.015 -13.2289,11.0708 -9.0217,-31.4528 -8.2677,-64.4512 -11.6822,-96.7303 0.0724,-20.167 -4.3499,-40.1158 -3.6315,-60.2104 z m 597.20871,9.4894 c 30.2311,-12.3292 60.9277,-23.6517 92.4528,-32.1711 -3.7741,13.8393 -6.3979,28.0739 -11.5028,41.5179 -21.0993,9.7054 -44.537,14.0186 -66.1407,22.8977 12.6176,13.9106 26.2052,26.8878 39.2895,40.3674 11.3235,10.9985 23.7607,22.538 39.5411,26.3122 27.5706,2.6961 55.8238,-0.1793 81.489,-10.9995 -9.8492,-3.3788 -19.7706,-7.9804 -30.4104,-7.6563 -10.5675,4.7809 -18.3318,16.6434 -31.4171,13.0119 -2.2274,-23.2931 14.1633,-49.4972 38.2471,-52.9117 20.8486,1.2574 38.6057,13.7669 57.7292,20.8486 15.2057,6.6129 31.8838,7.9793 48.2755,8.5907 -7.261,12.0775 -14.63,24.0837 -21.8186,36.198 -38.1747,0.754 -67.2554,30.6253 -104.4234,35.4062 -14.3426,1.7617 -28.9736,2.6605 -43.2796,0.6837 -18.4398,-4.6372 -32.6754,-18.4765 -45.831,-31.4171 -8.4114,12.8326 -19.0879,25.7375 -34.7246,29.5473 -18.8708,4.2776 -40.51011,5.8233 -57.26151,-5.6439 -15.7804,13.6956 -39.3608,12.0062 -54.1701,-2.2641 -13.8393,11.2512 -32.9985,13.6233 -49.6062,7.7644 -8.0874,-3.1272 -13.767,-10.2445 -21.4957,-13.9473 -35.0475,19.0155 -76.1701,23.2217 -115.1355,17.0387 -15.6,-2.7684 -31.9561,-10.5328 -38.57,-25.8454 -8.5551,-19.5546 -4.8879,-43.6383 7.9437,-60.4967 3.9912,-6.3633 12.2935,-3.0559 18.4051,-3.7385 1.0068,11.7178 -5.0325,23.9033 -0.9354,35.1912 11.3236,14.199 31.8135,13.7669 48.3122,14.1266 22.0347,-0.647 44.7887,-2.1571 65.0626,-11.5385 12.5452,-5.6082 20.6326,-17.3984 32.0274,-24.6594 14.307,5.2129 8.2677,21.0289 7.7644,32.2801 9.4894,0.7183 19.0522,0.97 28.5773,0.8987 2.5167,-13.768 5.3922,-29.0806 16.463,-38.7504 14.631,-11.8259 39.1101,-9.7411 50.72,5.4279 7.8366,9.8858 10.7121,22.8977 19.3395,32.2434 17.9731,2.4801 36.73601,2.1928 54.20571,-3.2708 -9.9204,-20.2015 -27.6062,-34.4718 -44.71631,-48.2755 2.5525,-12.2578 3.9179,-24.8031 7.046,-36.9163 5.39121,-4.6015 12.18451,-7.0093 18.54781,-9.8501 z m -81.09461,77.7515 c -1.8687,12.3292 0.1437,25.4501 9.7768,34.2212 11.3602,-10.4605 0.324,-27.1039 -9.7768,-34.2212 z m 479.84481,-70.2388 c 34.3639,-17.0378 71.0998,-29.259 108.0172,-39.6481 -3.8099,14.3783 -7.8724,28.6853 -11.7546,43.0636 -22.3576,5.8946 -44.2129,13.4796 -65.9256,21.3876 19.9866,20.7049 38.5344,43.5313 62.6905,59.6347 14.7747,10.9271 33.8615,7.5493 50.9349,6.6506 -5.1752,-7.9804 -10.7835,-15.6734 -16.8574,-22.97 7.692,-12.5453 15.492,-24.9825 24.1551,-36.845 8.448,12.8682 17.9731,26.2052 19.1959,42.0925 1.617,16.8228 -0.6838,35.444 -12.1866,48.6719 -13.4429,14.0186 -34.6155,14.63 -52.6967,13.0119 -20.3452,-3.5225 -35.5509,-19.0869 -49.6062,-32.9985 -12.4372,26.2765 -42.7039,35.6946 -69.8068,35.767 -28.0729,-0.3241 -58.736,4.0971 -84.2574,-10.3525 -26.5639,-15.278 -26.2409,-54.5665 -9.2021,-76.8884 4.3142,-6.9747 13.0119,-4.8533 19.8775,-5.1763 0.1447,11.2145 -4.4201,22.1783 -2.9111,33.3938 8.3044,13.551 26.0972,14.7737 40.4032,15.9231 28.1462,-0.036 57.2982,2.6604 84.4011,-6.6853 -9.8838,-20.1659 -27.5339,-34.7246 -44.536,-48.7065 3.1995,-12.9049 1.617,-28.6853 10.0641,-39.3251 z M 164.82609,1172.0787 c 10.0284,-9.4181 19.9509,-19.3385 32.3157,-25.6661 1.4745,5.6082 3.1985,11.2155 3.9179,17.0031 3.1995,37.3116 2.3721,74.8037 4.7085,112.152 21.891,1.8687 43.8553,0.9344 65.782,1.2217 8.8067,-0.2873 18.7271,0.5034 25.9881,-5.5359 5.1416,-7.6563 6.1116,-17.1458 8.8434,-25.7375 5.4993,0.072 10.9995,0.216 16.4988,0.432 3.5958,9.4538 2.6971,22.538 12.1142,28.613 14.5586,4.1338 30.0517,1.7251 44.968,1.1504 -5.3199,-7.9447 -11.0708,-15.6367 -16.9665,-23.1861 8.1251,-11.7178 15.6378,-23.832 23.4021,-35.8016 12.8316,14.7024 22.322,33.4295 20.4533,53.4518 0.538,18.9788 -8.6998,39.8641 -27.4279,46.8021 -21.6037,6.7576 -47.8802,6.7932 -64.9546,-10.1019 -10.5675,7.3701 -22.322,14.199 -35.6579,13.876 -23.9034,-0.036 -47.8802,1.1504 -71.7489,-0.7194 -16.7138,-0.9343 -31.7758,-14.9173 -33.1778,-31.7044 -1.8331,-38.8217 -2.9122,-77.8228 -9.0584,-116.2492 z m 443.5031,-1.6181 c 8.9861,-8.986 18.7985,-17.3617 29.8347,-23.6883 8.3034,0.6113 7.2977,10.3891 8.5194,16.463 1.4744,35.6946 0.5023,71.4616 1.0424,107.1918 0.755,21.2083 -5.6083,44.0337 -21.6037,58.736 -9.2744,-19.9142 -8.986,-42.1649 -11.2155,-63.5169 -1.6181,-31.7767 -5.5002,-63.4811 -6.5773,-95.1856 z m 979.45821,0.3954 c 9.1297,-8.339 17.4687,-17.6848 27.8212,-24.5504 9.0951,1.7964 7.4414,12.6889 8.4837,19.6982 1.4021,36.1969 2.4445,72.4672 4.4926,108.6652 15.062,1.5447 30.1953,1.3297 45.292,0.2517 -5.2109,-8.0527 -10.8192,-15.8171 -16.5344,-23.4734 7.2977,-11.1075 13.7313,-22.754 21.3153,-33.6455 1.0077,0 3.0925,0.037 4.1348,0.037 10.6398,12.6878 17.8641,28.6842 17.9365,45.4713 0.6114,17.4331 -3.5225,37.6 -18.9432,47.9525 -15.0253,9.7401 -33.9695,8.1954 -51.0439,7.6197 -16.9298,-0.6827 -32.9985,-14.4497 -34.2926,-31.6678 -1.7607,-38.8584 -3.4511,-77.7871 -8.663,-116.3572 z M 373.42109,1150.0797 c 8.016,7.5127 15.9607,15.1334 23.9044,22.7541 -7.477,7.3679 -14.7747,14.9886 -22.1437,22.5023 -7.6563,-7.6217 -15.277,-15.278 -23.0414,-22.754 7.046,-7.5494 14.2,-15.0253 21.2807,-22.5024 z m 1156.74401,20.7406 c 7.0817,-7.1896 14.0543,-14.5219 20.9923,-21.8909 7.801,7.1529 15.817,14.0553 23.077,21.7829 -6.1096,8.5551 -14.0186,15.5654 -21.1003,23.2574 -7.6909,-7.693 -15.4196,-15.3483 -22.969,-23.1494 z m -790.59701,40.7985 c 5.5359,-8.4114 13.2279,-15.061 20.2372,-22.1783 5.7153,5.7519 11.4305,11.4305 17.2181,17.1101 5.428,-5.7876 10.9282,-11.4662 16.4274,-17.1814 7.4047,7.1173 14.7014,14.4496 21.783,21.9623 -7.4046,6.3623 -14.0186,13.7313 -22.1426,19.2315 -6.075,-4.5659 -10.7835,-11.0362 -17.8652,-14.1633 -5.5349,4.6739 -10.2801,10.1375 -15.2413,15.3494 -6.9013,-6.614 -14.1267,-12.905 -20.4176,-20.1293 z m -682.472897,22.2863 c 7.046,-7.5483 14.2347,-15.0253 21.2083,-22.6093 8.1251,7.4047 16.0331,15.0254 23.832097,22.754 -7.404697,7.5484 -14.808297,15.1334 -22.070297,22.8621 -7.7644,-7.585 -15.3494,-15.3137 -22.9701,-23.0057 z m 495.445897,17.7582 c 7.691,-12.3302 15.4207,-24.6595 23.7954,-36.5577 12.3648,15.6011 21.4232,34.9039 19.7705,55.2492 -1.2227,15.5287 -6.0749,33.2501 -20.4899,41.5902 -15.8874,9.5251 -35.1546,6.9013 -52.8047,7.045 -2.5871,22.97 -12.1132,45.9757 -29.9427,61.2884 -7.2966,6.8656 -17.9008,3.8822 -26.8155,3.2708 -14.5933,-2.5525 -31.5964,-1.7974 -42.5602,-13.444 13.7679,-10.6041 31.309,-14.3059 45.2563,-24.5871 10.8915,-7.8 20.9923,-17.1457 27.8223,-28.7922 -3.0548,-13.3003 -14.4863,-22.3587 -23.1861,-32.1365 5.7163,-14.738 12.1142,-29.1519 19.0879,-43.3142 8.5907,12.2568 16.2837,27.1028 30.877,33.1421 14.955,2.6951 30.3391,1.1504 45.4367,0.2517 -5.1039,-7.909 -10.5684,-15.5654 -16.247,-23.0057 z m -419.9585,-8.3044 c 22.5747,25.8098 35.874,60.7861 31.1654,95.2213 -2.1204,16.0687 -12.4729,30.5183 -26.8879,37.8873 -21.4243,11.1799 -46.442397,12.4016 -70.094097,11.0719 -19.6625,-1.0067 -39.3261,-12.8326 -46.0114,-31.9561 -9.0584,-25.7375 -1.0067,-55.2848 15.8527,-75.9541 4.3846,-7.1897 12.4006,-1.3654 18.5835,-0.539 -0.6837,19.4465 -19.8062,42.0925 -2.7318,58.9876 17.4698,10.8915 39.8275,6.6853 59.310697,5.3556 11.7912,-1.6181 32.4228,-6.3623 27.8222,-22.3943 -5.9669,-13.875 -16.3194,-25.1628 -25.8098,-36.6647 6.3633,-13.6243 12.4382,-27.3912 18.8005,-41.0145 z m 135.5888,112.1164 c 5.6072,-5.5716 11.1788,-11.1432 16.786,-16.7148 6.9023,7.261 13.8403,14.414 20.8853,21.4956 -7.1173,7.0094 -14.306,13.9473 -21.7116,20.6693 -5.2833,-5.3922 -10.5675,-10.7121 -15.8874,-16.032 -5.1049,5.5359 -10.2455,11.0718 -15.385,16.6434 -7.37,-6.9747 -14.5954,-14.1277 -21.8564,-21.2083 7.2264,-6.9737 14.3784,-14.0197 21.6037,-20.9566 5.2129,5.3555 10.3891,10.7121 15.5654,16.1034 z m 254.75,4.0625 c 5.8589,-8.2321 13.659,-14.738 21.028,-21.568 5.3922,5.6796 10.8191,11.3592 16.2113,17.0388 5.5716,-5.6439 11.1075,-11.3235 16.6068,-17.0388 7.3343,7.045 14.4873,14.2347 21.461,21.6037 -7.0827,6.7576 -14.1277,13.5519 -21.3174,20.1659 -5.7142,-5.644 -11.3948,-11.2512 -17.109,-16.8228 -5.3933,5.7153 -10.8202,11.3948 -16.2124,17.0734 -7.0093,-6.722 -14.3783,-13.0842 -20.6683,-20.4522 z m 1104.65781,1.6171 c 7.0816,-7.1897 14.0909,-14.522 21.1002,-21.8197 8.0161,6.938 15.8161,14.1266 23.6884,21.3163 -7.045,7.9437 -14.2346,15.709 -21.3163,23.6171 -8.0873,-7.477 -15.8517,-15.2414 -23.4723,-23.1137 z m -1317.45901,83.2507 c 8.8434,-0.036 17.6502,-0.071 26.4915,-0.107 0.0724,29.9783 -0.1436,59.9577 0.1804,89.937 10.6755,-13.5519 21.6403,-26.8879 32.1711,-40.5835 9.8858,-0.037 19.7716,-0.036 29.692,0.036 -13.983,16.6077 -27.7143,33.4305 -41.6972,50.0005 15.169,21.0647 30.1587,42.3096 45.0403,63.5892 -10.6754,0.072 -21.3163,0.1437 -31.9561,-0.1436 -10.7121,-17.1112 -21.6759,-34.0052 -33.2134,-50.5763 -0.2884,17.0021 -0.2171,34.0052 -0.1804,51.0073 -8.8067,-0.108 -17.6501,-0.1794 -26.4568,-0.2874 -0.0714,-54.2791 -0.0714,-108.5928 -0.0714,-162.8719 z m 363.0546,-0.071 c 8.9871,-0.036 17.9375,-0.072 26.9235,-0.108 0.1091,29.9784 -0.3586,59.9577 0.3954,89.9371 10.8558,-13.2646 21.2806,-26.8512 31.8491,-40.3319 9.9571,-0.2516 19.8775,-0.215 29.8346,-0.1069 -13.8026,16.571 -27.6775,33.1054 -41.3741,49.7845 14.739,21.3876 29.7633,42.5959 44.8966,63.7329 -12.0408,-1.7975 -29.7266,6.3256 -36.5923,-7.4414 -9.5974,-14.3783 -18.7638,-29.0439 -28.6139,-43.2786 -0.5024,16.9665 -0.3587,33.9329 -0.2863,50.8993 -9.0228,-0.071 -18.0099,-0.071 -27.0326,-0.071 0.0367,-54.3515 0.108,-108.6652 0,-163.0157 z m 789.87971,7.476 c 8.9504,-3.0904 19.5902,3.0202 20.0935,12.8336 2.1571,12.6533 -15.2413,22.1783 -24.5157,12.9406 -9.9205,-6.4346 -5.8233,-22.5023 4.4222,-25.7742 z M 0.22899251,1470.9698 C 14.894693,1460.007 34.414593,1460.7977 51.740693,1461.8401 c 18.4755,1.3654 36.3049,15.3493 37.167,34.7959 2.2651,14.0909 -6.6853,26.0605 -15.7437,35.6589 7.8367,6.7933 16.1044,14.1266 18.9431,24.5148 4.7453,17.5054 -2.4087,38.7494 -19.3752,46.9814 -22.7886,10.7835 -49.7845,7.2967 -72.64650049,-1.5457 0.1436,-43.7463 -0.3587,-87.5283 0.1436,-131.2746 z m 27.60630049,10.3525 c -0.2864,14.1633 -0.323,28.3623 -0.1794,42.5969 10.6408,-1.3664 24.5148,0.4667 31.5608,-9.4538 4.9959,-10.5684 3.8821,-26.8522 -8.0161,-32.3157 -7.6563,-1.7618 -15.601,-0.8631 -23.3653,-0.8264 z m -0.215,60.1023 c -0.0714,15.5644 -0.108,31.1298 0.107,46.7298 12.1865,0.755 28.6496,3.7028 35.4082,-9.5974 2.6228,-8.5194 3.3065,-18.3685 -0.756,-26.5282 -7.6207,-11.4672 -22.8254,-9.7411 -34.7592,-10.6042 z m 429.951197,-77.8951 c 9.4538,-0.072 18.9065,-0.108 28.3602,-0.1793 -0.0713,19.7705 -0.0713,39.5401 0.0367,59.3106 13.1199,0.071 26.2765,0.036 39.4321,0 0.109,-19.6982 -0.0346,-39.4331 -0.0713,-59.167 9.2744,-0.072 18.5488,-0.108 27.8589,-0.037 -0.0734,47.9882 -0.1447,96.013 -0.0367,144.0002 -9.2734,-0.071 -18.5835,-0.107 -27.8589,-0.107 0.0734,-20.921 0.1447,-41.8419 0.108,-62.7618 -13.1922,0 -26.3845,0.071 -39.5401,0.036 0.108,20.8843 0,41.7685 0.0367,62.6538 -9.4548,0.072 -18.9085,0.108 -28.3256,0.072 0.1427,-47.9525 0.0713,-95.905 0,-143.8208 z m 578.37151,7.8 c 8.3044,-4.6005 17.6491,-6.7209 26.6006,-9.6331 0.071,10.6042 0.1069,21.244 0.1793,31.8838 6.0393,0.036 12.0775,0.072 18.1525,0.1447 0,6.5416 0,13.0475 0.036,19.5902 -6.1096,0.036 -12.1855,0.071 -18.2605,0.1436 0.2527,23.8678 -0.754,47.7722 0.7194,71.6399 5.9313,1.2584 11.8982,2.4088 17.8652,3.5235 -0.3231,6.722 -0.6114,13.4796 -0.9354,20.2372 -10.0998,0.4677 -21.2073,2.6962 -30.3014,-2.9478 -10.4248,-5.9669 -14.2713,-18.5478 -14.2346,-29.8713 -0.216,-20.8119 0.071,-41.5892 -0.072,-62.4021 -4.2408,-0.107 -8.4837,-0.1794 -12.6889,-0.2517 0,-6.506 -0.037,-12.9406 -0.108,-19.4109 4.2052,-0.2873 8.4114,-0.539 12.6533,-0.7907 0,-7.2966 -0.1794,-14.5933 0.3953,-21.8553 z m 109.8156,-7.9793 c 9.4527,0.036 18.8708,0.036 28.3256,0.1436 0.036,47.9158 -0.037,95.8316 -0.037,143.7485 -9.4537,0.071 -18.9075,0.1793 -28.3256,0.3597 0.072,-48.0962 -0.036,-96.1567 0.037,-144.2518 z m -938.40801,34.7592 c 20.8853,-6.614 44.322,-10.8915 65.4223,-2.8755 12.2936,4.4212 19.3742,17.3261 19.0502,30.0507 0.3607,27.3912 0.0723,54.7824 0.1436,82.137 -8.878,0 -17.7214,0.036 -26.5628,0.072 -0.432,-28.4336 0.9334,-56.9385 -0.5757,-85.3365 -4.0625,-13.8749 -20.7049,-9.4894 -31.5241,-9.9204 -0.5757,31.7401 -0.0723,63.5158 -0.2883,95.2926 -8.9861,-0.108 -17.9375,-0.1793 -26.9236,-0.2517 0.5747,-36.3773 -1.402,-72.8626 1.2584,-109.1685 z m 985.31711,0.2516 c 17.8651,-7.0449 37.2047,-8.231 56.2202,-6.9013 -1.5814,7.2967 -3.2718,14.5944 -4.8532,21.891 -8.4114,-0.5747 -16.8228,-0.9343 -25.2342,-1.078 -0.323,31.7044 0.1437,63.4445 -0.108,95.1846 -8.8067,-0.036 -17.5778,-0.071 -26.3845,-0.071 0.1447,-36.3416 -0.431,-72.6832 0.3597,-109.0249 z m 308.4535,0.5758 c 19.4108,-7.1174 41.8765,-12.2579 61.5034,-3.0202 12.1142,5.8956 16.3907,20.2383 16.7861,32.7835 1.295,24.7664 1.1514,49.6052 -0.5747,74.336 -20.6683,7.1896 -44.106,10.9638 -65.0259,2.6248 -22.6104,-10.6409 -24.6951,-46.6941 -4.3142,-60.4978 13.3012,-10.3881 30.77,-11.3591 46.586,-15.062 -2.1917,-5.6429 -3.7741,-11.7535 -7.8356,-16.3907 -13.8026,-4.5292 -28.0383,0.2517 -41.2662,4.3499 -1.9768,-6.3633 -3.9902,-12.7256 -5.86,-19.1235 z m 31.2367,55.2848 c -12.3649,5.0325 -14.1633,22.8976 -6.937,32.8548 8.5551,4.8522 18.5835,4.0981 28.0373,3.9178 0.6113,-14.3783 0.5757,-28.721 0.1803,-43.0636 -7.1896,1.7974 -14.523,3.1995 -21.2806,6.291 z m 64.8109,-55.7525 c 19.5912,-6.5427 41.0145,-10.2802 61.3597,-4.9603 14.1277,3.7019 24.6585,17.5055 24.2641,32.1355 0.323,27.2832 -0.1803,54.6021 0.107,81.921 -8.9494,-0.1437 -17.8651,-0.1437 -26.8155,-0.071 -0.036,-26.2051 0.3597,-52.446 0,-78.6501 0.3597,-7.369 -4.8532,-16.3194 -12.9039,-16.3918 -6.4346,-0.6827 -12.9059,-0.3953 -19.3039,-0.3597 -0.5023,31.7768 -0.1793,63.5892 -0.1793,95.365 -8.8781,-0.036 -17.6858,-0.036 -26.4925,-0.036 -0.215,-36.3049 -0.215,-72.6466 -0.036,-108.9525 z m -1486.65651,0.755 c 19.1949,-7.1897 41.6615,-12.7246 61.0724,-3.4155 13.4786,6.615 18.0801,22.5747 17.9365,36.522 -0.1804,22.753 0.5757,45.508 -0.3597,68.2254 -6.0393,6.2899 -15.6357,6.8656 -23.7241,8.663 -16.3917,1.9768 -35.3716,2.8041 -48.9938,-8.1597 -15.7804,-13.5519 -15.2057,-40.5111 0.1783,-54.1711 13.553,-11.8258 32.3881,-13.0475 49.2109,-16.6424 -2.3365,-5.8599 -4.1706,-12.1142 -8.4827,-16.8594 -13.8047,-4.0259 -27.8223,0.5033 -40.8719,4.9256 -1.9411,-6.399 -3.9535,-12.7613 -5.9659,-19.0879 z m 27.1752,57.7292 c -8.125,7.369 -9.5261,20.2016 -3.3075,29.26 8.5184,6.614 19.7349,4.9612 29.7634,4.6372 0.0723,-14.3783 0.0723,-28.7923 0.0356,-43.1349 -8.9504,2.5158 -18.7638,3.6305 -26.4915,9.2377 z m 441.1301,-47.7008 c 15.3127,-24.0837 57.1902,-25.2698 71.6042,0.2517 8.0873,12.5452 8.124,27.9303 8.7711,42.3086 -21.9644,3.4511 -44.107,5.7876 -65.8177,10.6398 3.5235,9.0951 6.7943,19.9152 16.8228,23.8687 13.2646,4.3856 27.1385,-0.6827 39.7204,-4.9969 2.0848,6.8657 4.1695,13.6956 6.182,20.5969 -15.3127,6.3633 -32.2425,10.8925 -48.8502,7.1897 -13.8393,-2.3364 -26.4202,-11.5385 -32.0998,-24.4434 -10.6398,-23.7241 -10.3891,-53.1277 3.6672,-75.414 z m 25.7008,4.0259 c -8.8434,7.0816 -10.1721,19.1958 -13.1209,29.4046 14.3793,-0.1803 28.4346,-3.4511 42.5612,-5.8232 -1.7974,-8.0884 -2.6248,-17.5055 -9.7778,-22.8977 -5.8945,-3.4868 -13.4072,-2.6961 -19.6625,-0.6837 z m 165.4601,-13.0119 c 21.999,-11.7546 51.1866,-13.4796 72.8982,0 14.846,-8.0161 32.6755,-12.5809 49.0662,-6.5783 13.0843,4.4568 21.9267,17.9018 21.568,31.6331 0.2873,27.3189 -0.108,54.7091 0.071,82.0646 -8.7344,0.036 -17.4341,0.071 -26.1685,0.1794 0.1437,-25.0548 0.037,-50.1086 0.071,-75.1634 0.3241,-7.1173 -1.3653,-14.6656 -7.0083,-19.4109 -8.2677,-1.9054 -17.9741,-2.156 -24.5514,4.0982 -1.9767,30.0507 -0.108,60.3174 -0.8274,90.4404 -9.0217,-0.072 -18.0444,-0.072 -27.0672,-0.1793 -0.539,-28.29 1.0067,-56.6156 -0.5033,-84.8688 -2.2641,-14.1267 -20.2373,-9.8858 -30.4461,-10.3168 -0.755,31.7401 -0.2873,63.5168 -0.324,95.2569 -9.0217,0 -18.0088,0 -27.0315,0 0.217,-35.6946 -0.6471,-71.4605 0.2517,-107.1551 z m 162.7272,-1.3297 c 18.6202,-6.7577 39.9008,-11.8269 59.0233,-4.0259 12.29361,4.4569 18.65591,17.9365 18.94321,30.3737 0.6481,25.8811 0.324,51.8346 -0.036,77.7158 -20.77631,7.0093 -44.39341,11.3948 -65.31431,2.5525 -22.214,-10.1018 -24.4068,-44.322 -6.0383,-59.0957 13.5163,-11.2868 31.9195,-12.5452 48.3112,-16.6067 -3.4858,-6.183 -3.9892,-17.2905 -13.0476,-17.4341 -12.4015,-2.2285 -24.3721,2.3364 -36.0543,5.7509 -2.0134,-6.398 -3.9901,-12.7959 -5.7876,-19.2305 z m 27.4269,57.5132 c -8.5194,5.4279 -7.6206,17.0388 -6.6496,25.7731 6.8656,10.6765 20.7039,9.0584 31.6321,8.7354 0.4677,-14.4506 0.4677,-28.9369 0.1803,-43.3876 -8.5193,2.5168 -17.4697,4.2419 -25.1628,8.8791 z m 295.18991,-57.6579 c 17.2894,-5.9659 36.0533,-10.6398 54.2414,-5.751 14.307,3.7385 24.1204,18.1169 24.0481,32.6755 0.7194,25.7008 0.2884,51.4383 0.108,77.1401 -20.4889,7.1887 -43.7463,11.2155 -64.6316,3.1272 -24.1183,-9.4181 -25.5928,-47.9158 -4.6005,-61.4678 13.4439,-9.4537 30.1587,-11.2512 45.7954,-14.522 -2.4444,-5.5715 -3.8465,-11.7902 -7.8724,-16.463 -13.8382,-4.1349 -27.8579,0.6103 -41.1225,4.4568 -2.048,-6.3979 -4.0615,-12.7969 -5.9669,-19.1948 z m 27.6419,57.2625 c -7.908,6.075 -8.8424,17.1468 -6.0393,26.0615 5.6083,11.4305 20.5613,8.6988 31.0218,9.0584 0.7193,-14.4873 0.647,-28.9726 0.1793,-43.4589 -8.4827,2.3721 -17.6135,3.5582 -25.1618,8.339 z m 68.1541,-57.3695 c 19.8775,-6.9737 41.8052,-10.5685 62.5101,-4.8889 13.6956,3.6661 23.4724,17.2904 23.3644,31.3814 0.4677,27.3902 -0.108,54.8171 0.1803,82.244 -9.0941,-0.036 -18.1535,-0.071 -27.2475,-0.036 -0.2874,-28.1462 0.9343,-56.3271 -0.5391,-84.4021 -3.1281,-14.522 -20.9922,-10.4238 -31.7401,-10.6755 -0.6113,31.7401 -0.2883,63.4445 -0.3963,95.1856 -8.7344,-0.037 -17.4341,-0.108 -26.1318,-0.1803 0.036,-36.1969 -0.037,-72.3949 0,-108.6285 z m 103.8119,-5.1406 c 8.9138,0.071 17.8652,0.072 26.8512,0 -0.1436,37.9587 -0.072,75.9541 0.037,113.9494 -8.9871,-0.108 -17.9741,-0.1436 -26.9235,-0.1436 0.1793,-37.9597 0.1793,-75.8828 0.036,-113.8058 z"
     style="fill:#015baa;fill-rule:evenodd"
     id="path2" />
</svg>
