<?xml version="1.0" encoding="UTF-8" standalone="no"?>
<svg
   version="1.1"
   width="1625.0985"
   height="1700.7872"
   id="svg9"
   viewBox="0 0 1625.0985 1700.7873"
   sodipodi:docname="40ddae14a5f414784d0a4ecb0653b4a3.cdr"
   xmlns:inkscape="http://www.inkscape.org/namespaces/inkscape"
   xmlns:sodipodi="http://sodipodi.sourceforge.net/DTD/sodipodi-0.dtd"
   xmlns="http://www.w3.org/2000/svg"
   xmlns:svg="http://www.w3.org/2000/svg">
  <defs
     id="defs13" />
  <sodipodi:namedview
     id="namedview11"
     pagecolor="#ffffff"
     bordercolor="#666666"
     borderopacity="1.0"
     inkscape:pageshadow="2"
     inkscape:pageopacity="0.0"
     inkscape:pagecheckerboard="0" />
  <g
     id="Layer1000"
     transform="translate(-321.30884,-283.46463)">
    <path
       d="m 431.8003,1919.6042 c 7.3959,1.199 14.7532,2.7992 21.9882,4.7984 -0.3593,4.3972 -0.7582,8.7955 -1.1979,13.2335 -7.4378,1.3588 -14.8337,2.6383 -22.3089,3.7976 0.4397,-7.3165 0.9587,-14.5923 1.5186,-21.8295 z m 975.6754,0.2799 c 7.8367,-0.4 16.9507,-2.0784 22.9889,4.3575 -2.5194,10.9556 -14.1538,12.234 -23.4286,11.1551 0.1189,-5.1973 0.2787,-10.3549 0.4397,-15.5126 z m -477.0029,2.5987 c 4.438,9.1162 6.3964,19.1107 8.2357,29.0656 -5.7175,-0.1201 -11.435,-0.2799 -17.1116,-0.4001 2.8389,-9.5944 5.5973,-19.2297 8.8748,-28.6655 z m -383.2906,5.9169 c 10.755,0.4001 7.1171,16.3523 10.9544,23.7879 -5.3559,0.041 -10.6733,0.08 -15.9919,0.1201 1.6399,-7.9954 3.0384,-15.9919 5.0375,-23.908 z m 973.1175,23.0286 c 1.6399,-9.1151 4.3168,-18.0308 8.9145,-26.067 3.12,8.5553 5.5985,17.3123 7.9966,26.1066 -5.6767,-0.04 -11.3148,-0.04 -16.9122,-0.04 z m -112.7832,-3.7184 c 9.6749,0.2403 19.1901,2.2791 26.5463,8.9961 -4.038,10.9545 -15.4729,14.3124 -26.1077,14.9527 -0.119,-7.9965 -0.2392,-15.9522 -0.4386,-23.9488 z"
       style="fill:#ffffff;fill-rule:evenodd"
       id="path2" />
    <path
       d="m 860.9066,359.2593 c 61.4496,-42.579 134.0145,-70.0047 208.8958,-74.7623 58.5721,-2.7993 118.3818,-0.7605 174.7938,16.911 116.3033,31.3436 222.1304,101.83 294.0539,198.5817 -24.4668,-14.1934 -46.9763,-31.7447 -72.5241,-44.1781 -62.2882,-31.1452 -130.2553,-52.1339 -199.9802,-56.6523 -38.9808,-6.4371 -78.2007,0.6799 -116.9424,5.0375 -52.934,10.2348 -104.9874,27.8269 -151.0048,56.3327 -53.1731,34.8613 -100.7092,79.64 -133.5328,134.5731 -59.651,97.9916 -75.0038,219.8106 -48.5368,330.835 7.0774,30.905 18.1509,60.6098 29.0656,90.2761 -39.4602,-46.5785 -72.4436,-98.752 -95.3124,-155.4836 -32.0643,-79.0009 -44.2189,-166.1173 -33.703,-250.7552 8.8759,-64.4483 32.8633,-127.3371 72.3643,-179.2715 21.8692,-25.9071 44.7368,-51.5343 72.3631,-71.4441 z M 689.192,447.415 c 16.0724,-14.6331 30.3848,-31.5442 49.2564,-42.698 -8.9961,15.9919 -20.5511,30.4244 -29.0259,46.6963 -19.7908,40.4994 -39.501,81.68 -49.3358,125.9374 -8.596,33.6226 -15.0728,68.0465 -16.2718,102.7899 0.3196,34.7015 -1.5991,69.8847 6.1968,103.9481 16.0724,96.7506 65.1679,188.5056 140.0107,252.394 67.6068,55.8125 151.8049,92.5947 239.7203,98.1921 20.6702,1.7985 41.5398,3.8781 62.2088,0.3592 44.0988,-3.2786 88.1171,-11.3941 129.657,-26.867 14.9923,-5.0772 29.1449,-12.3937 44.4569,-16.5518 -38.6998,38.1411 -86.4761,65.5283 -134.6525,89.7955 -79.4803,38.421 -169.6362,54.7733 -257.4722,45.6979 -50.4147,-4.0787 -100.4304,-18.0715 -144.8476,-42.4192 -37.3421,-22.3486 -73.6438,-47.8965 -101.9501,-81.3197 -26.9861,-34.7026 -52.4931,-71.4848 -66.8066,-113.4236 C 519.7961,880.7599 524.514,757.981 562.935,648.916 589.8814,573.7525 632.78,504.0276 689.192,447.415 Z m 373.9353,58.0111 c 96.0321,-42.4192 206.177,-58.69 308.5657,-30.9435 64.2884,18.39 126.4576,50.1744 171.9946,100.0303 45.7783,45.4168 76.0021,104.6281 93.7133,166.157 45.0983,172.2337 -11.1539,362.5797 -130.975,491.9952 -19.989,20.1104 -39.5406,41.3404 -63.6084,56.6127 78.7221,-113.6242 115.9429,-258.7517 88.516,-395.4034 -18.0704,-92.5154 -66.4066,-179.3111 -138.5714,-240.441 -75.8016,-67.6872 -178.5903,-98.8313 -278.9402,-100.1505 -55.0929,4.1173 -110.3864,12.634 -162.2006,32.5845 -9.9538,3.7966 -19.75,8.0759 -30.0244,10.9941 41.1001,-38.7417 89.2356,-69.9254 141.5293,-91.4343 z m 274.2631,166.1978 c 23.908,22.429 42.3388,49.976 59.2906,77.8812 36.9817,62.1295 63.9677,130.8559 73.9237,202.7397 10.4343,85.1173 3.1574,174.9933 -35.9435,252.5152 -25.7066,49.0547 -61.1697,93.8335 -107.1463,125.3368 -43.8971,34.5825 -96.9115,55.3728 -150.845,68.2867 -51.0538,7.4752 -103.2285,14.3532 -154.6427,5.917 -91.2348,-7.0367 -177.9523,-44.2586 -253.5544,-94.6336 -31.9838,-20.3494 -59.3711,-46.8969 -85.7972,-73.9226 -10.5544,-11.3953 -22.2285,-22.1491 -29.9451,-35.8223 38.1411,21.9882 76.0419,45.1777 117.8219,59.8504 70.3652,28.3857 147.5664,40.4995 223.2082,34.263 79.3216,-5.9578 156.0026,-35.5028 220.8112,-81.1995 52.2937,-39.9804 96.831,-91.355 124.9776,-151.2054 29.4656,-61.2501 42.6991,-129.7351 42.2186,-197.5017 -2.4785,-53.334 -12.1535,-106.5071 -31.0251,-156.5625 -4.1173,-12.1149 -9.5945,-23.7085 -13.3525,-35.9424 z m 563.8801,644.2002 c 16.5518,-11.7942 29.1053,-28.1057 45.1369,-40.5391 -1.7181,9.4743 -5.0375,18.79 -10.8343,26.586 -31.8637,42.6187 -72.7643,77.4414 -115.8228,108.3067 -29.2242,22.828 -59.0106,44.8173 -88.7959,66.8463 -12.1535,8.5961 -24.1075,17.6318 -37.5007,24.188 5.637,-13.7129 13.3536,-26.9464 24.6276,-36.7811 29.426,-25.4686 59.5705,-50.1756 91.1147,-72.9639 32.2241,-23.3085 61.3294,-50.4951 92.0734,-75.6429 z M 686.9538,1524.8004 c 4.7575,-12.4346 11.954,-23.7879 18.9101,-35.1027 7.796,7.7562 19.1901,14.4733 20.5501,26.467 -0.7605,13.4726 -7.7563,25.4277 -16.4328,35.3429 -8.4748,-7.7563 -26.5055,-12.3949 -23.0286,-26.7072 z m 982.0717,18.3911 c 5.3582,-10.2348 9.4755,-21.4295 17.591,-29.9451 -8.995,52.1339 -25.8267,104.6281 -17.072,158.0415 2.9194,10.1146 13.2335,17.9514 23.789,17.9106 11.3953,-5.7175 12.9536,-20.3495 19.7896,-30.1446 1.4008,21.4692 -4.7179,43.0188 -14.3124,62.0888 -5.637,11.9936 -20.2701,21.0294 -33.2633,14.8325 -10.3141,-2.4388 -14.9935,-13.153 -17.5117,-22.3882 -5.3163,-24.9484 0.5995,-50.2549 0.9191,-75.3222 -16.7909,16.8713 -28.5046,38.5399 -48.1752,52.5339 -60.1701,47.536 -140.8505,56.8109 -215.0938,53.3328 -15.4309,-1.3996 -34.9429,-1.2398 -44.5374,-15.712 -10.075,-15.5522 -7.6361,-35.1831 -6.7567,-52.7333 0.7197,-7.5965 0.9996,-18.1112 9.8744,-20.711 3.12,10.8751 2.9194,26.0681 15.1533,31.3447 22.1491,9.3157 46.8164,9.0754 70.4445,8.5564 45.019,0.2799 90.1163,-7.2769 132.5344,-22.3894 32.9041,-10.9545 65.6472,-30.3451 82.2795,-61.8893 11.7148,-21.1495 12.8334,-46.1772 24.3477,-67.4061 z m 81.2402,49.0547 c 3.0384,-25.9468 12.9933,-50.6935 26.5464,-72.8834 -4.1581,34.3026 -10.755,68.2867 -13.5135,102.7491 -1.599,17.191 -4.5977,36.0229 3.5586,52.0545 3.9983,8.3955 13.3128,12.0742 22.1888,12.3541 11.1153,-5.4376 9.395,-21.3094 19.87,-27.3861 -1.0789,22.6682 -6.836,45.7364 -19.2308,64.9265 -7.915,13.1938 -29.825,16.0724 -38.9004,2.6791 -9.5945,-10.5147 -9.8347,-25.5071 -10.6348,-38.9004 0.6799,-32.104 6.1163,-63.809 10.1157,-95.5923 z m -35.4222,-65.3266 c 8.0758,6.6366 21.5088,12.5139 20.2293,24.9076 -0.3196,11.8339 -6.9165,22.5888 -16.911,28.7857 -7.3563,-5.8376 -14.9131,-11.3545 -22.4699,-16.8714 5.5577,-12.6748 11.954,-24.988 19.1504,-36.8219 z M 599.877,1561.3423 c 6.3567,-10.2756 10.0342,-23.908 22.5481,-28.4253 -1.0393,12.073 -7.9161,30.4641 7.6361,36.3414 6.9176,-5.1576 9.5956,-13.833 13.9135,-20.949 21.5496,11.8736 14.7124,40.0598 3.6775,57.0909 -8.4351,12.3133 -23.1872,25.6272 -39.2596,20.6305 -9.8755,-1.5605 -13.714,-11.7942 -18.6314,-19.0711 -7.635,7.0763 -14.3532,15.5126 -23.5872,20.5898 -7.7167,4.3575 -20.9105,3.7976 -21.1099,15.432 -7.116,55.7321 -24.8271,111.4245 -59.37,156.4832 -25.0685,28.2247 -60.6505,49.7743 -99.4716,48.4552 -18.3106,-1.4393 -39.34,-5.1973 -50.6945,-21.2289 -12.753,-16.6719 -14.4722,-38.6613 -14.1923,-58.8906 1.318,-42.2594 18.0704,-82.0404 38.3802,-118.4622 2.4785,-4.5581 6.9573,-7.2758 10.9148,-10.3141 -0.3208,20.8288 -14.3532,37.461 -20.3495,56.6919 -8.0758,23.0683 -15.2723,50.9745 -1.0007,73.0829 9.2364,15.7924 28.3063,20.4299 45.138,22.6693 20.83,2.6383 40.9007,-4.8381 60.2494,-11.3942 37.3024,-19.3907 61.6909,-58.4508 68.7264,-99.271 5.7968,-24.7874 -0.68,-50.5744 4.6771,-75.363 3.9586,-13.9531 21.51,-8.8352 32.265,-10.9941 19.47,-0.1598 31.1044,-17.9117 39.5395,-33.1036 z m 438.7825,23.1079 c 6.1572,-15.551 7.5556,-33.703 19.1889,-46.5365 -2.7573,41.7393 -0.519,83.6384 -4.6771,125.2983 -2.0784,19.2297 -9.5548,37.2208 -16.6322,55.0521 -4.1173,9.7951 -8.5553,20.2304 -17.9503,26.0669 2.959,-20.3494 7.7959,-40.3793 10.2348,-60.8092 5.3979,-32.8645 -2.1997,-67.2464 9.8347,-99.0716 z m 217.0113,9.0358 c 6.5572,-18.5906 9.7146,-39.0205 21.5099,-55.2516 0.6392,33.8221 0.9191,67.7258 -2.559,101.4288 0.4794,30.4245 -9.7554,59.4913 -22.0301,86.8773 -2.7176,6.2762 -7.3959,11.3545 -12.3529,15.9523 2.279,-27.7465 8.9156,-54.9728 11.3545,-82.7192 1.4789,-22.0698 -3.7592,-44.9783 4.0776,-66.2876 z m -287.0569,24.6673 c 6.0767,-16.6311 12.354,-34.1825 25.0277,-47.0556 -6.9573,58.0112 -6.997,118.5008 -31.1452,172.8741 -20.1092,41.0196 -51.9344,81.3196 -97.9519,93.473 -27.5458,4.4777 -61.0098,7.8764 -82.7589,-13.5123 -18.8693,-17.0323 -20.9489,-44.4591 -19.589,-68.247 4.9174,-42.7785 22.5481,-82.9187 44.4569,-119.5797 1.9198,-5.0386 6.7171,-7.4367 11.4747,-9.0765 -9.3554,36.4218 -35.1832,68.5269 -34.3423,107.5474 0.2391,18.1101 9.7951,37.5008 28.0661,43.1378 58.1312,21.23 127.7756,-14.5119 147.8451,-72.2034 10.4354,-28.1862 -1.1593,-59.0911 8.9157,-87.3567 z m 212.6141,0.9996 c 13.8738,-7.9161 21.1099,-23.0683 33.4628,-32.8225 -1.6784,19.7091 -8.035,39.0601 -18.4308,55.8918 -12.073,18.2302 -38.4209,18.8705 -49.8548,37.9813 -14.0721,23.0286 -15.1929,56.2522 -40.9391,70.8049 -18.951,6.9958 -40.0212,14.7521 -60.2505,9.1955 21.23,-25.0673 55.8114,-34.8624 75.482,-61.7294 11.3148,-17.7112 16.1925,-38.7814 27.6671,-56.4121 7.8356,-11.4349 21.5485,-15.8729 32.8633,-22.9084 z m -481.4816,6.3974 c 3.6787,-9.3157 3.3183,-22.9889 14.5526,-26.7865 -1.5582,32.9834 -9.8744,65.4081 -20.1091,96.712 -5.0772,14.6728 -11.8736,30.5446 -26.5067,38.0209 -17.9911,9.1151 -37.4611,17.3519 -57.8921,17.6715 9.7157,-18.8705 30.8653,-27.6264 45.1788,-42.4589 24.1471,-21.6301 37.061,-52.3345 44.7765,-83.159 z m 180.0715,7.0367 c 11.6345,9.395 28.3052,18.0307 28.2656,35.182 -2.7585,15.1125 -8.9961,31.5849 -22.1888,40.5005 -11.7546,-6.2773 -22.4291,-14.9526 -31.0648,-25.0673 4.9582,-18.271 16.1914,-34.0635 24.9869,-50.6152 z m -473.0453,58.2513 c 7.9557,-17.7111 15.7528,-35.5424 26.8273,-51.5751 13.3129,9.9957 32.3035,22.7486 26.067,42.2594 -4.4777,11.954 -9.4766,31.024 -24.2684,32.4236 -10.1543,-6.9165 -18.9906,-15.5114 -28.6259,-23.1079 z m 167.8376,65.2869 c 8.0351,6.2377 17.3904,11.9143 22.0279,21.4295 2.7992,15.4729 -4.6375,31.9442 -17.7112,40.5402 -7.1556,-5.1973 -14.3135,-10.3549 -21.4691,-15.5522 -5.7164,7.1557 -7.9954,20.7495 -18.9113,21.0691 -9.514,-2.9182 -16.2322,-11.1935 -24.2673,-16.7512 4.9185,-15.3131 13.0341,-29.2651 21.0703,-43.0992 8.3943,6.4767 16.2718,13.6335 23.7074,21.23 5.1576,-9.675 10.1951,-19.3499 15.5522,-28.8662 z m 628.8871,12.7541 c 11.8735,-2.6394 21.1892,10.8343 25.5467,20.4696 0.2403,11.954 -4.3972,24.4678 -13.1134,32.784 -9.115,10.2744 -17.7519,-6.8769 -26.3071,-10.5147 -7.9954,5.5168 -8.7955,19.5901 -19.75,20.6293 -9.2749,-3.3579 -17.6714,-9.5956 -23.8286,-17.2714 2.1997,-14.8326 10.2359,-29.3455 20.1896,-40.4598 11.3545,1.6796 17.1116,13.3536 23.6689,21.5496 3.8385,-9.3961 7.3562,-19.0711 13.5927,-27.1866 z m 547.088,-2.0784 c 9.3554,6.0767 21.3887,12.9932 22.7487,25.2271 -0.5599,13.5134 -7.397,26.8262 -18.9907,34.1825 -8.0758,-6.3567 -16.112,-12.6737 -24.1085,-19.1097 5.9577,-13.8341 11.954,-27.7068 20.3505,-40.2999 z m -364.9788,141.289 c 21.4691,-3.7977 45.7772,-5.0375 64.8879,7.1171 8.4759,9.2749 -0.9202,19.9098 -8.7558,25.5468 11.4746,5.357 21.4691,18.671 11.4735,30.3847 -18.7096,15.7925 -45.257,11.7546 -67.9263,12.1943 0.3207,-25.107 -0.5191,-50.1755 0.3207,-75.2429 z m 21.8692,11.7942 c -0.1598,5.1577 -0.3208,10.3153 -0.4397,15.5126 9.276,1.0789 20.9092,-0.1995 23.4286,-11.1551 -6.0382,-6.4359 -15.1533,-4.7575 -22.9889,-4.3575 z m 0.041,27.8258 c 0.1994,7.9966 0.3184,15.9523 0.4386,23.9488 10.6348,-0.6403 22.0697,-3.9982 26.1077,-14.9527 -7.3562,-6.717 -16.8725,-8.7558 -26.5475,-8.9949 z M 343.3239,1909.0498 c 7.5557,-0.041 15.1125,-0.1201 22.6682,-0.2402 0.9996,24.988 -0.0793,49.9749 0.2006,75.0026 -7.8753,0 -15.7914,0.04 -23.6689,0.1201 1.2806,-24.9472 -0.0385,-49.9352 0.8001,-74.8825 z m 64.608,0.1202 c 20.8289,-1.6003 44.6972,-6.2774 63.2878,5.7968 12.0356,9.6352 4.9581,25.2679 -5.5962,32.5833 8.196,10.7153 11.7942,23.789 16.1517,36.3822 -8.7955,-0.1201 -17.591,-0.3196 -26.3469,-0.8398 -2.9193,-9.6749 -5.9169,-19.2705 -9.1162,-28.8253 -5.1961,-0.04 -10.3934,-0.04 -15.5907,0 0,9.9956 0,19.9902 -0.0408,29.9847 -7.677,-0.3593 -15.3516,-0.6788 -23.0286,-0.9996 0.6392,-24.7069 -0.2006,-49.3754 0.2799,-74.0823 z m 23.8684,10.4342 c -0.5599,7.2361 -1.0789,14.513 -1.5186,21.8295 7.4752,-1.1593 14.8711,-2.4388 22.3089,-3.7976 0.4397,-4.4392 0.8386,-8.8363 1.1979,-13.2335 -7.235,-2.0003 -14.5923,-3.5982 -21.9882,-4.7984 z m 103.029,-11.5143 c 10.3946,-0.1994 20.7891,-0.1201 31.2234,0.041 9.3961,25.1467 18.9113,50.2141 27.4269,75.6418 -8.7955,-0.079 -17.5514,-0.1994 -26.3469,-0.4794 -2.1589,-6.3566 -4.3178,-12.7144 -6.3566,-19.0303 -7.2758,-0.1212 -14.513,0 -21.7491,0.1995 -2.1986,6.1561 -4.3179,12.3937 -6.317,18.6699 -8.5156,0.4805 -16.9915,0.68 -25.5082,0.7604 10.075,-24.9472 17.7519,-50.775 27.6263,-75.8027 z m 12.3529,20.3098 c -1.9991,7.9161 -3.3976,15.9126 -5.0375,23.908 5.3186,-0.04 10.636,-0.079 15.9919,-0.1201 -3.8373,-7.4356 -0.1994,-23.3878 -10.9544,-23.7879 z m 80.3212,-19.7896 c 8.7558,-0.04 17.5105,-0.2006 26.2663,-0.4794 10.7947,14.5515 19.3103,30.7044 31.024,44.5771 0.4409,-14.7521 0.0805,-29.5054 0.9599,-44.2178 6.5572,-0.04 13.1542,-0.04 19.7499,-0.04 0.2403,24.9869 0.2811,49.9749 0.0408,75.0026 -7.516,0.1598 -15.0728,0.6392 -22.5491,0.1202 -13.1531,-15.0729 -20.8697,-34.3831 -34.9826,-48.7363 0.2799,16.3115 1.0789,32.5834 1.3588,48.9357 -7.3551,-0.04 -14.7124,-0.1201 -22.0686,-0.3196 1.1197,-24.9472 0.4,-49.8956 0.1994,-74.8428 z m 165.4781,-0.9996 c 23.3481,-0.2799 46.7756,-0.8397 70.1237,0.3196 -1.0381,5.3968 -0.9995,11.4746 -5.2369,15.6327 -11.8339,14.7521 -24.1483,29.145 -36.0218,43.8982 13.4329,0.1598 26.9067,0.1598 40.3804,0.1995 -0.1598,5.2381 -0.3604,10.5147 -0.5201,15.7924 -24.2276,0.5191 -48.4564,0.5599 -72.6839,0.04 0.8397,-14.8326 12.1138,-25.0277 21.0294,-35.6625 7.2769,-8.5553 14.0732,-17.4709 20.669,-26.5872 -12.4334,-0.1189 -24.8667,-0.04 -37.2616,-0.1189 -0.119,-3.3591 -0.3592,-10.1147 -0.4794,-13.5135 z m 121.9788,0.399 c 10.5147,0.7196 24.308,-4.4766 32.7432,2.0796 9.4358,24.3477 19.5912,48.5356 26.5871,73.8035 -7.7563,-0.08 -15.5522,0.1598 -23.2689,-0.7604 -5.7968,-4.5978 -6.6762,-12.9128 -9.914,-19.2297 -7.3166,0 -14.6331,0.04 -21.91,0.1201 -2.1193,6.2762 -4.3179,12.5138 -6.4371,18.79 -8.1552,0.5599 -16.3115,0.9203 -24.4679,1.1594 7.0378,-25.9468 17.6318,-50.6946 26.6676,-75.9614 z m 15.5125,14.4733 c -3.2786,9.4358 -6.0382,19.0711 -8.8759,28.6655 5.6778,0.1202 11.3941,0.28 17.1116,0.4001 -1.8393,-9.9549 -3.7977,-19.9494 -8.2368,-29.0656 z m 80.7201,-14.4325 c 10.2337,-0.5202 20.5093,-0.7594 30.7441,-0.8795 5.1984,15.0717 10.9147,29.9043 15.2722,45.257 9.6365,-12.9139 9.8756,-30.1445 18.271,-43.7384 9.8756,-2.279 20.15,-1.3588 30.225,-1.5582 1.3588,25.5864 4.6375,51.0141 5.5974,76.6017 -7.3563,-0.1202 -14.6728,-0.2006 -21.9894,-0.2006 -0.7593,-16.4317 -2.7981,-32.7432 -4.9173,-49.0151 -8.0759,14.5923 -9.9549,31.9839 -18.9113,45.9767 -6.3159,0.68 -12.6329,0.2006 -18.9102,0.041 -4.3575,-13.3933 -8.715,-26.8274 -13.5531,-40.0609 -1.1185,0.4794 -3.3976,1.4393 -4.5173,1.9595 -1.1197,13.5134 -0.4794,27.1458 -1.7589,40.6592 -7.1171,0.3208 -14.1934,0.6404 -21.3093,0.9203 0.4794,-25.3881 3.9167,-50.6153 5.7571,-75.9625 z m 139.2503,-0.4806 c 7.6769,0.2006 15.3516,0.3604 23.0285,0.4806 0.041,25.1874 0.3196,50.3353 -0.3196,75.5228 -7.5556,-0.2403 -15.1124,-0.4409 -22.6693,-0.5202 -0.2402,-25.1875 -0.7593,-50.3353 -0.04,-75.4832 z m 64.4085,-0.2391 c 8.6358,0.1201 17.6704,-2.1986 26.0658,0.4397 11.6752,13.833 19.9109,30.225 31.0251,44.4977 0.2006,-15.1521 -0.4794,-30.3054 0,-45.4576 6.997,0.04 14.0325,0.081 21.1099,0.2403 -0.2391,25.4674 0,50.9348 -0.2006,76.4419 -7.3165,-0.2403 -14.632,-0.1995 -21.9088,-1.0392 -15.3517,-13.1531 -20.3495,-34.7831 -35.6229,-48.1764 0.041,16.3126 0.7196,32.6242 1.4007,48.9357 -7.2768,-0.081 -14.5141,-0.1202 -21.7502,-0.1202 0.4806,-25.2668 -0.6391,-50.4939 -0.119,-75.7619 z m 298.6517,-0.5598 c 10.594,0.1598 21.1495,0.1994 31.7436,0.5201 8.5167,25.2669 19.7102,49.7755 25.787,75.8413 -8.1156,-0.04 -16.2311,-0.079 -24.3081,-0.079 -1.998,-6.317 -4.0379,-12.5932 -5.9974,-18.8705 -7.4752,-0.5202 -14.9912,-1.2002 -22.4676,-1.0393 -5.0771,4.9174 -4.7179,12.8731 -6.9165,19.2298 -8.5563,0.9202 -17.1524,1.3203 -25.7484,1.4393 9.0765,-25.7474 17.7519,-51.6941 27.9074,-77.0414 z m 6.7963,44.6575 c 5.5963,0 11.2344,0 16.9111,0.04 -2.3981,-8.7955 -4.8777,-17.5502 -7.9966,-26.1066 -4.5966,8.0362 -7.2757,16.9519 -8.9156,26.067 z m 85.4777,-45.0179 c 8.876,0.3604 18.2302,-1.5583 26.8262,1.3996 12.2748,12.3541 17.7905,30.3054 31.8638,41.0196 -1.1583,-14.0324 -2.4786,-28.066 -2.4389,-42.0985 7.6373,-0.041 15.3131,0.04 23.0297,0.119 0.2391,25.4277 0.1995,50.8158 -0.3207,76.2424 -7.2758,0 -14.5923,0.4806 -21.7888,-0.4793 -14.0732,-13.1939 -20.7903,-32.3035 -33.9036,-46.4164 -1.1582,15.4717 -0.9191,30.9843 -0.5202,46.4968 -7.4355,0.04 -14.8326,0.079 -22.1876,0.1598 -0.7197,-25.4674 -0.4012,-50.9745 -0.561,-76.4419 z m 120.3401,0.4397 c 7.7166,-0.3989 15.4321,-0.4794 23.1883,-0.4794 0.3604,9.9957 0.5996,20.0299 1.1594,30.0255 8.3966,-9.3961 15.3924,-19.9097 23.908,-29.1857 8.6357,-2.3992 17.7905,-0.68 26.7072,-0.7197 -6.9561,11.8339 -16.673,21.5497 -26.6675,30.7849 9.7157,15.3516 21.5496,29.4657 29.2651,46.0968 -9.3939,-0.4398 -18.7108,-0.9191 -28.0253,-1.3985 -5.6767,-10.9556 -12.0345,-21.51 -18.7912,-31.7844 -9.4743,8.3558 -7.0763,21.6289 -7.8764,32.9029 -7.5557,-0.119 -15.1125,-0.1994 -22.6285,-0.2391 -0.3184,-25.3473 -0.3592,-50.6549 -0.2391,-76.0033 z"
       style="fill:#5613a2;fill-rule:evenodd"
       id="path4" />
    <path
       d="m 1059.409,637.9605 c 95.1514,-15.1522 199.7807,37.9019 236.0019,128.697 21.91,51.6137 20.5092,112.5838 -3.8781,163.0381 -11.3137,28.9455 -33.9037,51.0153 -55.6924,72.2442 -79.4395,68.4862 -208.6567,69.726 -288.0565,0.4397 -20.6305,-19.7499 -41.1794,-40.8598 -53.0144,-67.2463 -26.5463,-53.2536 -28.5454,-118.7014 -2.9579,-172.6746 29.1858,-66.9267 96.5114,-113.0235 167.5974,-124.4981 z"
       style="fill:#ff0087;fill-rule:evenodd"
       id="path6" />
  </g>
</svg>
