<?xml version="1.0" encoding="UTF-8" standalone="no"?>
<svg
   version="1.1"
   width="1460.0701"
   height="1700.7874"
   id="svg9"
   viewBox="0 0 1460.0701 1700.7874"
   sodipodi:docname="fb7074d78fdc19681cea1b4171920d1a.cdr"
   xmlns:inkscape="http://www.inkscape.org/namespaces/inkscape"
   xmlns:sodipodi="http://sodipodi.sourceforge.net/DTD/sodipodi-0.dtd"
   xmlns="http://www.w3.org/2000/svg"
   xmlns:svg="http://www.w3.org/2000/svg">
  <defs
     id="defs13" />
  <sodipodi:namedview
     id="namedview11"
     pagecolor="#ffffff"
     bordercolor="#666666"
     borderopacity="1.0"
     inkscape:pageshadow="2"
     inkscape:pageopacity="0.0"
     inkscape:pagecheckerboard="0" />
  <g
     id="Layer1000"
     transform="translate(-403.8232,-283.4645)">
    <path
       d="m 1133.904,283.4645 c 87.7966,87.8266 175.5924,175.6241 263.419,263.4199 10.5232,10.7933 21.7088,20.9849 31.6278,32.3816 -74.3198,1.3862 -148.7293,0.2111 -223.079,0.6025 -121.8063,-0.0906 -243.5811,0.1812 -365.3874,-0.1504 4.4014,-8.0507 11.6984,-13.7785 18.0296,-20.2302 84.39,-84.3901 168.7493,-168.8101 253.1393,-253.1693 7.5371,-7.5081 15.2554,-14.8341 22.2507,-22.8541 z M 836.7453,580.9539 c 0.5735,7.2662 0.7846,14.5623 0.7248,21.8592 -0.3923,188.5566 0.4521,377.1448 -0.453,565.703 C 738.728,1070.8295 640.7713,972.7823 543.0249,874.5538 641.314,777.0792 739.0596,679.002 836.7453,580.9539 Z m 592.4465,127.2624 c 0.2718,-43.2048 -0.6333,-86.4395 0.4829,-129.6443 89.9674,91.5349 181.4416,181.6237 271.9518,272.6458 7.6576,8.261 17.0954,15.105 22.8839,24.994 -10.854,8.502 -19.8388,18.9953 -29.7279,28.4921 -57.2244,57.2842 -114.5094,114.5393 -171.7637,171.7945 -30.6321,31.3252 -62.6821,61.3249 -92.3801,93.4945 -0.8136,-4.251 -1.2956,-8.502 -1.5067,-12.8136 0.091,-149.6344 0.03,-299.2978 0.06,-448.9621 z m -588.7681,463.4953 c 195.2518,-0.7538 390.5319,-0.2709 585.8136,-0.241 -5.1552,6.5124 -10.6728,12.6932 -16.6125,18.4518 -71.2747,71.2439 -142.5195,142.4887 -213.7634,213.7326 -19.6876,20.1098 -40.3102,39.3153 -59.1841,60.1489 -1.2059,0.06 -3.6485,0.2111 -4.8544,0.2718 -96.6302,-97.9575 -194.8894,-194.3168 -291.3992,-292.3641 z"
       style="fill:#157215;fill-rule:evenodd"
       id="path2" />
    <path
       d="m 1024.2481,667.9968 c 41.487,-22.1908 89.4248,-31.8081 136.2173,-26.6521 16.6733,3.1955 33.4063,6.0603 49.5061,11.6377 3.3468,1.5674 6.7235,3.075 10.1301,4.5228 6.8448,2.2605 13.2359,5.6381 20.1713,7.567 l -0.3624,2.0503 c 3.2562,1.2358 6.5432,2.5332 9.7985,3.8288 8.955,6.3021 18.3919,11.9094 27.3161,18.3312 6.0304,5.6381 12.5419,10.7036 18.9346,15.9494 1.9298,2.0802 3.8588,4.1305 5.7885,6.2115 7.9901,8.6832 14.9537,18.3304 23.2455,26.7427 -0.1205,1.1452 -0.3923,3.4673 -0.5128,4.6433 l 3.0152,-0.3325 c 2.3221,5.1561 5.6381,9.7387 9.4669,13.8999 -0.1197,1.1452 -0.3615,3.3767 -0.482,4.5219 l 3.8894,0.3616 c -0.241,1.5076 -0.7238,4.4928 -0.9649,5.9705 l 4.704,-0.3624 c -0.4829,1.5375 -1.4478,4.5835 -1.9306,6.121 l 4.5535,-9e-4 c -0.3624,1.5076 -1.1162,4.5835 -1.5084,6.0911 l 3.1664,-0.1513 c 2.0204,8.2909 6.8739,15.7083 7.2662,24.3915 l 1.8093,0.0299 c 4.4014,18.2706 10.401,36.542 9.9788,55.5664 -0.1205,15.8887 0.8136,31.8987 -0.9649,47.7575 -2.8032,14.0195 -5.6979,28.0998 -10.5523,41.6074 -1.5375,4.8236 -3.1656,9.6173 -4.6125,14.4717 l -1.7785,0.0598 c -0.8145,7.9593 -5.4578,14.7136 -9.0755,21.6182 -1.3264,3.0143 -2.6237,6.0603 -3.9202,9.1353 -1.176,1.1153 -3.5878,3.3468 -4.7629,4.4621 -0.4522,1.3563 -1.3572,4.0707 -1.8093,5.427 -5.0954,6.6021 -10.7933,12.8436 -14.7435,20.261 l -1.3862,-0.5435 c -9.3165,13.1153 -21.1661,24.9949 -34.4618,34.0395 l 0.3615,1.447 c -7.567,4.6432 -14.5323,10.2514 -22.4916,14.2614 -0.9948,1.0546 -2.9853,3.1656 -3.9801,4.1912 -3.3767,1.1452 -6.7235,2.2913 -10.0703,3.4365 -0.091,0.5726 -0.2709,1.7486 -0.3615,2.322 -8.7131,4.7032 -18.9645,6.0902 -26.8939,12.1505 -1.9896,0.3008 -5.9697,0.8743 -7.9593,1.1452 -34.7327,14.4119 -73.3549,14.0196 -110.2584,10.7036 -22.0395,-4.8843 -44.1389,-10.372 -64.3401,-20.8337 -6.6021,-2.5929 -11.8488,-8.2609 -19.2355,-8.8036 l 0.6034,-2.0204 c -6.573,-2.9246 -12.7231,-6.7235 -18.8739,-10.4318 l 0.7837,-1.5383 c -4.3715,-1.9897 -8.02,-5.0946 -11.6078,-8.1696 -2.8648,-1.9306 -5.6073,-3.9801 -8.1097,-6.3013 -2.0204,-2.0511 -4.0707,-4.0407 -6.1808,-5.9397 -1.9597,-2.111 -3.8595,-4.2211 -5.7295,-6.362 -2.9537,-1.6281 -4.7928,-4.0698 -5.5176,-7.4166 l -1.5665,0.5418 c -2.4734,-4.4014 -5.7595,-8.2601 -9.2259,-11.8786 -0.9957,-3.8895 -3.5887,-6.5722 -7.4175,-7.8687 0.2718,-0.9051 0.8145,-2.7135 1.1153,-3.6177 -6.4517,-2.564 -7.9593,-10.1609 -12.3316,-14.8948 0.0615,-1.0854 0.182,-3.2254 0.2419,-4.3108 l -3.769,-0.4521 c 0.2709,-1.4785 0.7538,-4.3724 1.0247,-5.8193 l -4.5527,0.241 c 0.3624,-1.4768 1.1461,-4.4321 1.5076,-5.909 l -3.9792,-0.5136 c 0.2718,-1.4469 0.7837,-4.3108 1.0546,-5.7577 l -2.8938,-0.0308 c -15.3768,-40.4007 -24.0898,-84.3593 -16.9442,-127.5034 3.2562,-15.9194 6.2415,-31.9893 12.3009,-47.1549 5.8492,-15.9195 13.5376,-31.1441 22.4925,-45.526 4.5527,-5.7287 8.5618,-11.8488 12.1197,-18.2108 l 1.3871,0.3914 c 4.3416,-7.7182 11.2155,-13.476 17.3057,-19.7473 7.3875,-7.1158 13.9896,-15.2563 23.0352,-20.3816 l -0.5128,-1.4777 c 11.6983,-6.6328 22.0694,-15.5271 34.3404,-21.1951 z m 34.5524,1024.1627 0.6333,0.03 c -0.1513,0.1205 -0.453,0.4222 -0.6034,0.5735 z m 496.5392,28.9442 c -1.9597,-3.3775 0.5726,-10.5223 5.1852,-7.8994 1.3571,3.2861 0.5427,6.1807 -2.4725,8.713 z m -936.5771,224.1644 c 0.9033,0.8743 2.7135,2.6229 3.6168,3.4972 -2.0793,4.7031 -4.0997,9.437 -5.7876,14.3213 l -1.6897,0.061 c 1.8102,-5.8492 2.6537,-11.9394 3.8605,-17.8792 z"
       style="fill:#aa7346;fill-rule:evenodd"
       id="path4" />
    <path
       d="m 1838.266,1397.8964 c 8.4123,-6.2415 15.7682,-14.1708 25.6273,-18.18 -1.5375,13.7478 -12.8735,22.8831 -20.9849,33.044 -12.994,16.0091 -30.8423,26.7127 -46.8823,39.3153 -48.36,36.512 -98.0182,71.3046 -147.132,106.821 -17.8783,12.6333 -33.9789,27.5879 -51.4957,40.6426 5.6381,-20.1705 21.4969,-35.8489 36.5113,-49.7172 66.4511,-52.8836 137.0916,-100.1283 204.3563,-151.9257 z m -826.3188,58.732 c 6.4825,-5.1561 11.9394,-12.5419 20.8038,-13.4769 -6.8141,19.2354 -20.985,34.5823 -35.7882,48.0891 -18.2407,16.4313 -40.7033,29.1245 -65.1845,32.7431 -16.2502,2.5929 -32.2004,-5.6381 -48.3899,-1.9298 -9.9797,1.658 -18.1809,7.9593 -26.8034,12.753 4.1903,-20.6226 20.4115,-36.2096 37.5061,-47.1242 13.9896,-8.955 30.903,-2.0802 46.2498,-3.2254 26.5017,0.5717 51.7077,-10.9754 71.6063,-27.8289 z m -224.6772,41.275 c 12.6633,2.4118 26.8025,10.3719 28.2503,24.512 0.664,15.2861 -9.9797,27.6477 -19.2355,38.5923 -9.678,-6.4526 -20.1704,-11.6685 -29.3365,-18.8142 -0.2401,-1.2665 -0.723,-3.7988 -0.9341,-5.0945 5.7586,-13.6888 14.3512,-26.0196 21.2558,-39.1956 z m 371.4468,80.38 c 23.9095,-26.9546 46.4311,-55.1749 71.1534,-81.3441 -2.7733,17.2151 -9.8284,33.767 -19.9286,47.9677 -41.2152,48.9942 -84.3294,96.45 -124.9412,145.9261 16.5528,2.2614 37.6573,6.6936 43.9885,24.542 4.704,35.8181 -7.8088,72.7216 -29.8176,100.9419 -7.2363,8.8336 -14.5332,18.8132 -25.9598,22.401 -10.7027,3.6485 -24.2104,5.0655 -33.4055,-2.8639 -8.231,-7.6883 -10.583,-19.4764 -11.7282,-30.2099 -2.8041,-23.1258 1.8084,-46.22 5.0039,-69.0432 4.8245,-33.4371 9.7387,-66.8733 14.4119,-100.3394 1.5383,-12.5428 7.055,-24.0292 11.0351,-35.878 3.316,-8.5635 5.0646,-18.121 11.5471,-25.0547 1.3871,16.6724 -3.2263,33.1345 -4.4621,49.6873 -2.1101,22.3703 -6.9645,44.591 -6.8132,67.1433 l 0.03,0.6025 c 0.1504,-0.1504 0.4521,-0.4512 0.6025,-0.5726 34.2208,-36.9334 66.0588,-76.0675 99.2839,-113.906 z m -96.9917,166.7589 c -12.4522,7.1756 -9.0157,24.5727 -0.5427,33.467 13.3863,11.4266 35.4856,8.5319 46.0986,-5.2467 4.7638,-8.6225 0.1812,-19.9892 -8.4123,-24.1496 -11.1548,-5.7894 -25.1145,-7.9901 -37.1436,-4.0707 z m 618.8874,-147.1918 c 1.4469,-3.5579 4.2202,-6.3013 6.6927,-9.1353 -0.06,6.4825 -0.3316,12.9949 -1.3871,19.4166 -6.8739,40.6118 -16.5818,80.892 -19.1448,122.1371 -0.3316,10.854 -0.9649,22.3113 3.557,32.532 5.1261,10.2506 19.2055,14.2307 28.8844,8.1106 4.01,-3.5887 6.9944,-8.1106 10.4318,-12.1505 -0.1505,23.125 -6.0304,47.2746 -20.6226,65.6665 -7.6277,10.4916 -24.0898,9.3763 -32.6824,0.8743 -6.0295,-6.9653 -7.8696,-16.4014 -8.6533,-25.3265 -3.8587,-40.7929 5.9398,-81.133 11.8796,-121.232 3.7382,-27.6785 10.0395,-55.1749 21.0447,-80.8928 z m -770.1191,-4.3416 c 0.6931,10.9146 -1.5384,21.7387 -2.6546,32.5619 -4.733,40.8528 -6.5123,82.1287 -14.1392,122.62 -3.5279,18.4517 -10.9146,36.3001 -22.7643,51.0136 4.4331,-48.4207 9.6182,-96.7815 14.864,-145.0817 6.4833,-20.9541 15.769,-41.0938 24.6932,-61.1138 z m 691.3671,49.8983 c 6.8141,-14.2007 14.8341,-27.7682 22.7028,-41.4262 12.7538,2.7741 27.2255,10.824 27.9793,25.447 -0.06,14.2306 -9.0447,26.8631 -18.7834,36.5112 -11.6983,-4.8245 -22.7335,-11.7881 -31.8987,-20.532 z m -941.8528,-3.5877 c 18.4517,-2.0802 20.4405,-24.2104 28.5519,-36.9941 5.5475,19.326 -3.9809,39.2247 -12.9957,56.0483 -5.3065,10.7634 -17.4262,14.1102 -28.0383,17.186 -12.1505,54.6912 -31.6876,108.7509 -64.9136,154.3375 -22.5822,29.7579 -54.722,53.6366 -91.7767,61.2036 -24.2104,4.6433 -52.3102,-0.4213 -69.1937,-19.6269 -10.1608,-11.0351 -13.3563,-26.1401 -16.3416,-40.3409 l -1.4768,3.5272 v -40.0691 c 5.9098,-27.4367 14.6836,-54.3605 27.8289,-79.2033 2.593,-4.7039 6.2098,-8.7438 9.7378,-12.6931 -1.2657,11.4864 -7.0551,21.5566 -11.4266,32.0491 -8.0507,21.4968 -13.7179,46.7627 -2.7135,68.2894 8.2302,17.9997 27.2247,28.7938 46.4909,30.5116 37.0539,3.3169 76.4308,-6.7533 104.4998,-31.9286 30.692,-27.1648 43.2954,-68.862 46.6413,-108.5098 1.8101,-15.3759 -0.029,-31.1748 3.6784,-46.2199 5.85,-11.4565 21.3165,-4.9741 31.4475,-7.567 z m 932.0244,-30.6629 c 0.271,3.2262 0.2103,6.4824 -0.5734,9.7087 -8.0798,34.6421 -15.4067,69.6765 -17.1254,105.3134 -0.6324,15.0751 0.3017,31.356 9.437,44.0791 3.528,5.3971 10.1908,9.3464 16.7937,7.3568 8.5926,-2.2614 13.6581,-10.2814 19.9295,-15.8895 -2.0503,24.1206 -6.3928,50.894 -23.9394,68.9227 -14.0196,13.1153 -36.5719,1.3871 -39.8281,-15.8579 -5.7586,-30.0296 0.9948,-60.6319 1.3264,-90.8726 3.0152,-2.5323 3.8296,-5.4269 2.4725,-8.713 -4.6126,-2.6229 -7.1457,4.5227 -5.186,7.8994 -15.2554,22.0994 -31.3859,45.4662 -56.0792,57.8876 -26.9229,12.7837 -53.4254,27.0751 -82.2483,35.2156 -56.2893,16.6117 -116.1075,24.9641 -174.5677,16.6117 -14.0803,-3.2562 -30.5125,-7.0551 -39.617,-19.1449 -6.4526,-26.8033 -7.2363,-56.2595 4.492,-81.827 2.6528,10.0404 5.3663,20.5627 12.3915,28.5827 8.4122,10.2506 21.4968,15.346 34.3712,16.9442 41.3656,5.7586 83.6354,7.2662 125.0616,1.1452 28.4007,-4.0997 55.7775,-12.8137 83.2739,-20.7123 23.1557,-6.6935 45.7679,-15.7382 66.1793,-28.6126 10.6737,-7.0551 21.4063,-15.316 26.9845,-27.1956 14.9546,-29.1852 18.1493,-63.1641 36.4506,-90.8417 z m -810.5215,13.6879 c 10.2523,-3.1357 23.8787,-3.4066 30.1202,7.056 12.753,23.577 15.2562,53.6058 3.8288,78.2383 -9.3455,18.3919 -22.7626,34.7934 -39.3145,47.1848 -17.4868,12.6026 -41.5775,17.2459 -53.2459,36.9335 -10.8831,18.5722 -16.7622,40.5818 -32.7115,55.868 -20.4422,19.085 -49.4463,25.024 -76.612,25.1453 6.0902,-10.854 17.6074,-16.4621 27.4973,-23.1557 19.0552,-12.6932 38.2898,-25.8384 53.546,-43.0843 14.0495,-15.7681 17.0348,-38.0188 30.6022,-54.1186 16.6724,-22.5523 44.109,-32.502 69.4048,-41.8783 7.8088,-2.2614 8.6233,-10.9745 8.8036,-17.7587 -11.7881,-6.844 -25.2649,3.8596 -37.1744,-2.7733 -9.5575,-3.3468 -13.5675,-14.3212 -10.3719,-23.5471 5.5782,-16.2212 15.8587,-30.21 25.6273,-44.109 z m -270.8066,83.7867 c 4.6433,-15.1349 14.6837,-28.1297 21.9797,-42.1194 11.0651,3.1357 23.5173,8.6234 27.0145,20.7131 3.7989,16.5827 -8.1704,30.6929 -18.0604,42.451 -10.2805,-6.8439 -23.1847,-11.2154 -30.9338,-21.0447 z m 466.6618,51.2547 c 2.7135,-7.3559 4.3715,-15.6468 10.8531,-20.8029 0.6333,16.6126 -7.6584,31.6577 -11.6377,47.4259 -7.055,26.8033 -19.4166,52.7024 -38.8025,72.7822 -14.2606,14.7426 -36.5727,14.2299 -55.5364,13.7478 2.7135,-4.251 5.9389,-8.2609 10.4617,-10.6727 20.2311,-12.271 40.8237,-25.5069 54.7228,-45.1047 12.4214,-17.698 22.5822,-37.024 29.9381,-57.3748 z m 677.4681,155.8459 c 6.2415,-12.0906 13.2051,-23.789 20.0491,-35.5472 11.7898,3.4673 25.6282,10.0703 27.5272,23.7582 1.2367,15.1349 -8.8037,28.3708 -18.6629,38.7727 -9.7677,-4.1605 -18.5115,-10.4925 -27.346,-16.281 -4.4612,-1.9298 -3.5579,-7.2961 -1.5674,-10.7027 z m -1087.4175,49.4155 c 6.8141,-14.382 14.9854,-28.04 22.8541,-41.8177 12.7538,2.381 24.0889,10.2207 28.7322,22.672 l -0.2401,1.2665 c -1.2068,5.9398 -2.0503,12.03 -3.8605,17.8792 -4.3706,7.3567 -9.1643,14.6528 -15.5562,20.4712 -11.5787,-5.0953 -22.5822,-11.9692 -31.9295,-20.4712 z m 54.963,-14.382 c 5.4885,-9.0746 10.8249,-18.2406 16.0699,-27.4665 11.6992,2.7742 25.4171,9.4071 27.346,22.6429 2.4733,15.8887 -8.7122,28.9442 -18.1201,40.3101 -10.4916,-6.6927 -23.3361,-11.1556 -31.0834,-21.1652 1.6879,-4.8843 3.7083,-9.6182 5.7876,-14.3213 z"
       style="fill:#040605;fill-rule:evenodd"
       id="path6" />
  </g>
</svg>
