<?xml version="1.0" encoding="UTF-8" standalone="no"?>
<svg
   version="1.1"
   width="1403.1721"
   height="1700.7874"
   id="svg37"
   viewBox="0 0 1403.1721 1700.7874"
   sodipodi:docname="cad98e926b2558541c9f98aead9fb50f.cdr"
   xmlns:inkscape="http://www.inkscape.org/namespaces/inkscape"
   xmlns:sodipodi="http://sodipodi.sourceforge.net/DTD/sodipodi-0.dtd"
   xmlns="http://www.w3.org/2000/svg"
   xmlns:svg="http://www.w3.org/2000/svg">
  <defs
     id="defs41" />
  <sodipodi:namedview
     id="namedview39"
     pagecolor="#ffffff"
     bordercolor="#666666"
     borderopacity="1.0"
     inkscape:pageshadow="2"
     inkscape:pageopacity="0.0"
     inkscape:pagecheckerboard="0" />
  <g
     id="Layer1000"
     transform="translate(-432.2721,-283.4646)">
    <path
       d="m 1063.1337,374.6022 -1.574,-91.1376 h 140.1319 l -0.3676,90.7713 94.4527,-0.0107 0.2064,182.6369 184.1727,0.0596 98.2914,115.4964 -51.0203,1.4773 -48.3403,71.8326 35.3907,0.4546 0.1945,65.0356 65.4055,0.5895 0.3234,86.8168 64.9676,-0.2912 v 117.951 c 33.5219,-0.9893 57.4367,10.5964 69.5056,48.0658 63.7015,-4.0202 101.1924,73.564 120.5703,153.7664 l -44.7867,-19.9197 -152.7354,-0.7112 -14.3636,29.5471 65.4389,-0.3663 0.6659,57.778 h 50.6504 l 0.4762,66.1967 -51.598,-0.088 0.1635,43.2628 -79.8527,0.9141 -0.025,28.0698 -65.2922,0.7195 -0.1181,327.7997 -276.765,0.2017 -0.2983,130.4996 -58.2863,0.025 -0.01,102.0253 -153.0588,0.1814 V 1882.21 l -58.2792,0.047 0.0418,-130.909 -277.0526,-0.278 0.8019,-327.8701 -65.7539,-0.097 0.9248,-28.9541 -81.1511,-0.1981 -0.3687,-43.789 -50.2972,-0.5561 -0.2256,-65.0941 50.5204,0.022 0.5489,-57.698 70.6811,-0.1468 -13.415,-29.8932 -143.4134,-0.821 c -20.4518,2.5477 -38.8798,9.8805 -56.9391,23.6583 10.6263,-62.1097 30.8514,-148.5876 119.0535,-155.2855 7.55,-27.4982 25.0723,-51.3032 68.0833,-49.2484 l -0.7804,-116.7898 66.3566,0.2147 -0.2769,-87.0852 64.9318,-0.3998 0.2494,-58.1491 35.794,-0.1849 -50.2507,-79.737 -50.2698,-0.185 101.5038,-109.4165 h 181.526 L 968.0113,375.146 Z"
       style="fill:#e9e98d;fill-rule:evenodd"
       id="path2" />
    <path
       d="m 1122.1658,1002.8908 0.1862,73.5843 -72.6477,-44.3905 V 668.2642 l -50.469,-76.5341 -0.7363,-178.5786 94.9288,-0.0214 -0.1074,-94.8143 80.2333,0.3688 -0.5429,95.5707 h 95.3953 v 177.4748 l -50.8282,75.9769 0.1766,364.0113 -66.0285,44.0325 0.784,-73.1977 20.8659,-23.342 0.7411,-522.0653 -80.3205,-0.1849 -0.092,523.9971 z"
       style="fill:#27331d;fill-rule:evenodd;stroke:#3b3835;stroke-width:0.9093;stroke-linecap:butt;stroke-linejoin:miter;stroke-dasharray:none"
       id="path4" />
    <path
       d="m 773.141,631.4894 21.8289,-29.0114 181.7181,-0.0894 43.8189,80.3049 0.3651,377.8607 94.1162,59.1002 0.3615,254.4361 h -109.2864 l 0.1814,-240.1369 L 889.413,1023.2101 889.0467,741.1123 823.6352,631.8712 Z"
       style="fill:#27331d;fill-rule:evenodd;stroke:#3b3835;stroke-width:0.9093;stroke-linecap:butt;stroke-linejoin:miter;stroke-dasharray:none"
       id="path6" />
    <path
       d="m 780.0562,675.6495 29.9647,-0.008 51.3557,87.121 -0.568,254.3478 -28.8049,0.1898 -0.3735,-254.7488 z"
       style="fill:#27331d;fill-rule:evenodd;stroke:#3b3835;stroke-width:0.9093;stroke-linecap:butt;stroke-linejoin:miter;stroke-dasharray:none"
       id="path8" />
    <path
       d="m 773.3081,944.8478 28.5531,0.0967 0.3687,72.4018 -29.2917,0.278 z"
       style="fill:#27331d;fill-rule:evenodd;stroke:#3b3835;stroke-width:0.9093;stroke-linecap:butt;stroke-linejoin:miter;stroke-dasharray:none"
       id="path10" />
    <path
       d="m 496.3939,1162.601 c 5.6073,-24.2692 21.5593,-50.0193 43.4227,-57.2972 l 49.7412,-0.321 c -3.4402,-21.688 3.5644,-37.8524 23.6654,-50.7089 l 261.4133,-0.7207 95.2104,95.1805 -0.1766,225.9427 -87.275,-0.5776 -138.5591,-210.6685 z"
       style="fill:#27331d;fill-rule:evenodd;stroke:#3b3835;stroke-width:0.9093;stroke-linecap:butt;stroke-linejoin:miter;stroke-dasharray:none"
       id="path12" />
    <path
       d="m 677.9163,1199.7803 43.8428,-0.1968 116.6407,174.1371 -50.376,0.5548 z"
       style="fill:#27331d;fill-rule:evenodd;stroke:#3b3835;stroke-width:0.9093;stroke-linecap:butt;stroke-linejoin:miter;stroke-dasharray:none"
       id="path14" />
    <path
       d="m 656.4562,1301.8271 0.7494,28.0746 64.9091,0.3663 -22.533,-28.8239 z"
       style="fill:#27331d;fill-rule:evenodd;stroke:#3b3835;stroke-width:0.9093;stroke-linecap:butt;stroke-linejoin:miter;stroke-dasharray:none"
       id="path16" />
    <path
       d="m 1493.387,631.4894 -21.8313,-29.0114 -181.7145,-0.0894 -43.8188,80.3049 -0.3652,377.8607 -94.1161,59.1002 -0.3616,254.4361 h 109.2865 l -0.1802,-240.1369 116.8304,-110.7435 0.3664,-282.0978 65.4103,-109.2411 z"
       style="fill:#27331d;fill-rule:evenodd;stroke:#3b3835;stroke-width:0.9093;stroke-linecap:butt;stroke-linejoin:miter;stroke-dasharray:none"
       id="path18" />
    <path
       d="m 1771.3226,1162.0496 c -5.6073,-24.2727 -21.558,-50.0192 -43.4227,-57.3018 l -49.7424,-0.3198 c 3.4451,-21.6881 -3.5607,-37.8536 -23.6629,-50.7102 l -261.4157,-0.7195 -95.3906,95.8333 0.3568,225.2887 87.2762,-0.5764 138.5603,-210.6649 z"
       style="fill:#27331d;fill-rule:evenodd;stroke:#3b3835;stroke-width:0.9093;stroke-linecap:butt;stroke-linejoin:miter;stroke-dasharray:none"
       id="path20" />
    <path
       d="m 1591.1988,1200.1515 -43.844,-0.1981 -116.6407,174.1335 50.3772,0.5596 z"
       style="fill:#27331d;fill-rule:evenodd;stroke:#3b3835;stroke-width:0.9093;stroke-linecap:butt;stroke-linejoin:miter;stroke-dasharray:none"
       id="path22" />
    <path
       d="m 1610.1124,1301.9954 0.4595,28.5626 -64.7994,0.2744 21.2633,-29.0435 z"
       style="fill:#27331d;fill-rule:evenodd;stroke:#3b3835;stroke-width:0.9093;stroke-linecap:butt;stroke-linejoin:miter;stroke-dasharray:none"
       id="path24" />
    <path
       d="m 1034.7309,1752.9058 0.7411,94.9037 58.2207,0.1002 -0.3723,101.4907 h 80.8061 l -0.1396,-101.3642 58.0548,-0.3067 -0.4283,-94.3858 h -58.1408 l -0.2769,57.0418 -79.256,0.5047 -0.7828,-57.8078 z"
       style="fill:#27331d;fill-rule:evenodd;stroke:#3b3835;stroke-width:0.9093;stroke-linecap:butt;stroke-linejoin:miter;stroke-dasharray:none"
       id="path26" />
    <path
       d="m 751.1415,1410.8868 0.741,305.3074 763.8537,0.1384 -0.1635,-305.3527 z"
       style="fill:#27331d;fill-rule:evenodd;stroke:#3b3835;stroke-width:0.9093;stroke-linecap:butt;stroke-linejoin:miter;stroke-dasharray:none"
       id="path28" />
    <path
       d="m 1464.6943,944.8478 28.5495,0.0967 0.3711,72.4018 -29.2917,0.278 z"
       style="fill:#27331d;fill-rule:evenodd;stroke:#3b3835;stroke-width:0.9093;stroke-linecap:butt;stroke-linejoin:miter;stroke-dasharray:none"
       id="path30" />
    <path
       d="m 1486.9134,675.6495 -29.9648,-0.008 -51.3545,87.121 0.5692,254.3478 28.8025,0.1898 0.3747,-254.7488 z"
       style="fill:#27331d;fill-rule:evenodd;stroke:#3b3835;stroke-width:0.9093;stroke-linecap:butt;stroke-linejoin:miter;stroke-dasharray:none"
       id="path32" />
    <path
       d="m 1395.3231,1689.1756 c 0.3317,1.6205 0.21,3.3687 -0.3843,5.2374 -0.5883,1.8651 -1.5154,3.9784 -2.7863,6.3316 -1.2625,2.3532 -2.9928,4.5118 -5.1861,6.4569 -1.3555,1.3007 -2.451,1.9534 -3.2922,1.9534 -0.5048,0 -1.642,-0.7362 -3.4224,-2.1968 -1.7673,-1.4654 -3.3723,-2.7195 -4.8078,-3.7768 -1.4307,-1.0525 -2.6563,-2.0704 -3.6706,-3.0429 -1.0143,-0.9725 -1.5154,-1.7852 -1.5154,-2.4379 1.0059,-2.1085 1.7684,-3.7338 2.2732,-4.8662 1.6885,-3.5787 2.9593,-6.1801 3.8006,-7.8006 1.5203,-2.4367 3.0358,-4.9546 4.556,-7.5523 0.3449,-0.4881 0.8461,-1.216 1.5238,-2.1885 0.5048,0.4797 1.0096,0.8878 1.5108,1.2123 0.5095,0.3282 1.1837,0.7363 2.0333,1.216 3.5405,2.7661 5.9021,4.8758 7.0846,6.3364 1.179,1.4606 1.9415,3.1646 2.2828,5.118 z m -19.9161,-80.7286 v 3.6586 c 0,6.655 1.852,11.2814 5.5643,13.884 2.1933,1.4594 4.8078,2.1885 7.8507,2.1885 2.358,0 4.4713,-2.5179 6.3316,-7.5524 0.333,-1.1324 0.716,-2.4295 1.1372,-3.8937 0.4213,-1.4606 0.9678,-2.1933 1.6408,-2.1933 0.8473,0 1.2637,0.8127 1.2637,2.4331 0,0.6516 -0.1265,1.6289 -0.3747,2.926 -0.2518,1.3043 -0.463,2.3568 -0.6312,3.1658 -2.1933,9.581 -4.9844,17.0152 -8.3567,22.2943 -3.3758,5.2744 -6.8328,7.9139 -10.3768,7.9139 -5.5727,0 -9.4127,-2.4379 -11.5213,-7.3041 -2.1097,-4.8746 -3.1622,-11.0499 -3.1622,-18.5187 0,-1.9487 0.9272,-10.4354 2.7828,-25.4554 1.8531,-15.0283 3.377,-26.5125 4.5595,-34.473 0.1647,-0.648 1.5107,-3.9784 4.0501,-9.9891 2.5333,-6.0082 4.5536,-10.5546 6.0738,-13.6393 0.3377,-0.1647 0.673,-0.3293 1.0143,-0.4892 0.1695,0.4892 0.085,1.7899 -0.253,3.9032 l -1.0178,6.3304 -4.3066,29.7214 c -0.8377,6.007 -1.432,11.2062 -1.7637,15.588 -0.3413,4.3901 -0.5048,7.5523 -0.5048,9.501 z m -48.7436,0.2422 v 3.4164 c 0,6.655 1.8556,11.2814 5.5727,13.884 2.1932,1.4594 4.8077,2.1885 7.8471,2.1885 2.3615,0 4.4748,-2.5179 6.3268,-7.5524 0.3461,-1.1324 0.7243,-2.4295 1.1408,-3.8937 0.4212,-1.4606 0.9725,-2.1933 1.6455,-2.1933 0.8473,0 1.2637,0.8127 1.2637,2.4331 0,0.6516 -0.1265,1.6289 -0.3794,2.926 -0.2566,1.3043 -0.463,2.3568 -0.6229,3.1658 -2.1969,9.581 -4.9844,17.0152 -8.3602,22.2943 -3.3759,5.2744 -6.8364,7.9139 -10.3853,7.9139 -5.5643,0 -9.4079,-2.4379 -11.5141,-7.3041 -2.1085,-4.8746 -3.1646,-11.0499 -3.1646,-18.5187 l 0.062,-0.111 c 0.01,-3.7076 0.3055,-7.9342 0.889,-12.6728 0.5895,-4.7958 0.9677,-7.9223 1.1372,-9.384 l 0.2518,-2.6766 c 0,-0.4892 -0.085,-0.8126 -0.2518,-0.9725 -0.1683,-0.1683 -0.5107,0 -1.0155,0.4833 -0.673,0.8078 -1.772,2.2732 -3.2875,4.3829 -3.2076,4.2219 -5.5739,7.3077 -7.093,9.2612 -5.0595,6.1717 -11.3959,11.9305 -18.99,17.2932 -7.5941,5.359 -15.693,9.5773 -24.3026,12.6668 -8.6084,3.0894 -18.3541,5.7206 -29.2405,7.9187 -10.8852,2.1885 -22.2346,3.2923 -34.0518,3.2923 h -3.7958 c -7.2541,0 -13.1656,-0.4046 -17.724,-1.2256 -7.2541,-1.2923 -12.1907,-3.4474 -14.81,-6.4533 -2.6145,-3.0059 -3.9235,-7.5905 -3.9235,-13.7658 0,-5.1944 0.3842,-10.5535 1.1419,-16.0725 0.7578,-5.519 1.8139,-8.2802 3.1659,-8.2802 0.5083,0 0.8878,1.5787 1.136,4.7481 0.2529,3.161 1.4773,5.97 3.6705,8.4031 4.5596,4.8699 15.6095,7.303 33.164,7.303 9.6204,0 17.3064,-0.2398 23.0389,-0.7279 27.6785,-2.2732 50.2973,-8.6884 67.8519,-19.2466 8.2635,-4.7111 14.767,-10.3137 19.4912,-16.8052 3.5489,-5.0345 6.3316,-11.0463 8.3602,-18.0294 l 3.5358,-13.884 c 0.346,-1.4606 2.198,-5.6025 5.5738,-12.427 2.1981,-4.3817 3.6288,-7.1812 4.3066,-8.4019 0.6742,-1.222 1.5155,-2.3114 2.5298,-3.2876 0,1.296 0,2.5215 0,3.6539 -0.846,3.5739 -1.4355,6.3352 -1.7673,8.2839 l -5.3209,25.5782 c -1.0107,6.9831 -1.778,13.3613 -2.2744,19.1201 -0.5047,5.7672 -0.7661,10.112 -0.7649,13.0332 z m 19.2335,-108.4393 c 0.3281,1.6205 0.2017,3.3687 -0.3795,5.2326 -0.5966,1.8735 -1.5238,3.9868 -2.7947,6.3447 -1.2625,2.3484 -2.9939,4.5035 -5.1872,6.4486 -1.3461,1.2971 -2.4451,1.9534 -3.2911,1.9534 -0.5048,0 -1.642,-0.7327 -3.414,-2.1969 -1.7721,-1.4653 -3.3806,-2.7195 -4.8126,-3.7719 -1.4391,-1.0573 -2.6598,-2.068 -3.6706,-3.0489 -1.0178,-0.9714 -1.5154,-1.784 -1.5154,-2.4367 1.0107,-2.105 1.7637,-3.7303 2.2732,-4.871 1.6885,-3.574 2.951,-6.167 3.7982,-7.791 1.5239,-2.4427 3.0346,-4.9558 4.5548,-7.5572 0.3449,-0.4845 0.8449,-1.2124 1.5227,-2.1932 0.5059,0.4844 1.0107,0.8925 1.5202,1.2255 0.5012,0.315 1.1742,0.7279 2.0251,1.2124 3.5452,2.7565 5.902,4.8698 7.0845,6.3387 1.1874,1.457 1.9415,3.1622 2.2864,5.1109 z m 1.2792,20.6237 c 3.7135,-3.9033 11.6441,-10.5583 23.7978,-19.9757 10.7981,-8.2839 21.5998,-16.6489 32.4015,-25.0926 7.7636,-6.1717 15.1883,-12.4234 22.286,-18.7633 5.0559,-4.5417 11.7205,-10.7134 19.996,-18.5104 12.6632,-11.6895 18.9853,-17.7013 18.9853,-18.0259 0,0.8126 -0.1635,1.5453 -0.5048,2.1897 -0.5048,2.2768 -2.1133,5.6872 -4.8161,10.2373 -2.6933,4.5464 -4.9761,7.9568 -6.8281,10.2301 -2.7016,3.4092 -5.6156,6.7779 -8.7349,10.1072 -3.1276,3.334 -5.6156,5.89 -7.4724,7.674 -2.525,2.4379 -6.8328,6.2517 -12.9114,11.4509 -4.5584,3.8984 -11.3912,9.5809 -20.5091,17.0533 -6.4104,5.1992 -12.1454,9.6609 -17.2133,13.3995 -6.748,5.0297 -13.5009,9.9807 -20.2478,14.8553 l -17.471,13.1596 c -2.5333,1.9451 -4.933,3.7768 -7.2194,5.4773 -2.2732,1.7052 -3.5823,2.3197 -3.9235,1.8317 1.3472,-3.5787 2.871,-6.8245 4.5548,-9.7504 1.6932,-2.926 3.6335,-5.4427 5.8304,-7.5476 z m -225.2615,93.7236 c 3.5441,-3.5739 5.6479,-5.7672 6.3221,-6.575 2.5381,-2.9224 4.6514,-6.3698 6.3316,-10.3519 1.6921,-3.9784 3.1694,-9.421 4.4366,-16.3206 1.2637,-6.908 1.8938,-12.1454 1.8938,-15.7193 0,-4.3829 0.043,-8.9664 0.1277,-13.761 0.083,-4.7911 0.3818,-9.7039 0.883,-14.7384 0.173,-4.5429 0.2566,-7.3877 0.2566,-8.5201 0,-0.9725 -0.084,-1.6289 -0.2566,-1.9534 -0.5,0.1599 -0.9212,0.3245 -1.2625,0.488 l -9.1096,21.6798 c -0.673,1.4653 -1.1038,3.6121 -1.2673,6.4581 -0.167,2.8412 -0.2577,6.1287 -0.2577,9.8637 l 0.2589,16.3243 c 0,6.655 -0.8472,11.8506 -2.5321,15.588 -0.8497,1.7899 -1.8186,3.3686 -2.9129,4.7493 -1.093,1.3842 -2.0668,2.315 -2.9116,2.8078 v 0.094 c 0.3174,0.7637 0.6324,1.5656 0.9499,2.4021 0.3377,0.8878 0.5011,1.8221 0.5011,2.7947 0,0.6479 -0.1634,1.3854 -0.5011,2.198 l -0.9499,2.272 z m 0,-9.8864 v 9.6668 l -0.068,0.1611 -1.5155,1.2208 c -2.8663,1.4606 -4.7648,2.3866 -5.6956,2.7994 -0.9308,0.4034 -1.8568,0.9726 -2.7911,1.7052 -0.9224,0.728 -2.0632,1.747 -3.4092,3.0429 -0.679,0.4881 -1.6885,0.8127 -3.0394,0.9773 -1.352,0.1635 -2.4892,0.5263 -3.4199,1.0979 -0.9296,0.5644 -2.4451,1.7434 -4.5548,3.5321 -2.1134,1.7804 -3.7541,2.846 -4.9367,3.1623 -0.8472,0.1682 -1.815,0.2064 -2.914,0.1169 -1.0943,-0.075 -2.315,-0.1933 -3.6706,-0.3616 -2.8675,0 -6.6681,3.5787 -11.3947,10.7218 -4.7231,7.1478 -10.2982,10.7181 -16.7049,10.7181 -7.5942,0 -12.9151,-4.303 -15.9544,-12.9066 -0.5059,-1.3007 -0.926,-3.3723 -1.2589,-6.2183 -0.3401,-2.8412 -0.5083,-5.0763 -0.5083,-6.6979 v 0 c 0,-1.9487 0.9308,-10.4354 2.7899,-25.4554 1.858,-15.0283 3.377,-26.5125 4.5548,-34.473 0.1695,-0.648 1.5203,-3.9784 4.0548,-9.9891 2.5262,-6.0082 4.5548,-10.5546 6.0703,-13.6393 0.3413,-0.1647 0.673,-0.3293 1.0191,-0.4892 0.1646,0.4892 0.08,1.7899 -0.2578,3.9032 l -1.0179,6.3304 -4.3018,29.7214 c -0.8424,6.007 -1.4319,11.2062 -1.7684,15.588 -0.333,4.3901 -0.5012,7.5523 -0.5012,9.501 0,5.2027 0.9212,9.3411 2.778,12.4233 3.0441,5.0381 8.1048,7.5512 15.193,7.5512 3.8818,0 7.2576,-0.9725 10.1239,-2.9212 3.5452,-2.5978 7.1693,-5.1944 10.89,-7.8005 2.0262,0.3281 4.3077,0.4964 6.8328,0.4964 2.0297,0 4.05,-0.9761 6.0786,-2.9248 1.0071,-1.1372 2.105,-2.278 3.2875,-3.414 0.6754,0.8162 1.6885,0.9761 3.0393,0.4881 2.0215,-0.6444 3.7971,-1.9499 5.3126,-3.8985 0.8436,-1.1361 1.6933,-2.3532 2.5357,-3.6491 1.3508,0.4833 2.5298,0.6479 3.5441,0.4833 0.6742,-0.3282 1.1826,-0.568 1.5155,-0.7315 z m 30.3132,-95.7129 c 3.7159,-3.8985 11.6466,-10.5582 23.7967,-19.9793 10.8005,-8.2802 21.6069,-16.6404 32.405,-25.0902 7.7684,-6.1705 15.193,-12.4221 22.2824,-18.7573 5.0596,-4.5512 11.7277,-10.7182 19.9996,-18.514 12.6584,-11.6907 18.99,-17.7025 18.99,-18.0306 0,0.8162 -0.1682,1.5453 -0.5095,2.198 -0.5095,2.2732 -2.1085,5.6789 -4.8113,10.2289 -2.6981,4.5465 -4.9761,7.9605 -6.8328,10.2385 -2.7017,3.4056 -5.6109,6.7767 -8.7349,10.1024 -3.1277,3.3305 -5.6157,5.8853 -7.4724,7.6741 -2.5251,2.4379 -6.8316,6.2516 -12.9067,11.446 -4.5584,3.8985 -11.3912,9.5905 -20.5056,17.0546 -6.4151,5.2027 -12.1536,9.6692 -17.2168,13.403 -6.7492,5.031 -13.5009,9.9855 -20.2537,14.8553 l -17.4687,13.1561 c -2.5309,1.9487 -4.933,3.7756 -7.2158,5.4808 -2.2732,1.7052 -3.5858,2.315 -3.9188,1.8269 1.3473,-3.5703 2.8627,-6.8149 4.5548,-9.7408 1.685,-2.926 3.6276,-5.4438 5.8185,-7.5524 z m -54.9571,-37.146 z m 0,0 c -0.3401,-1.9451 -1.1026,-3.6503 -2.2828,-5.1109 -1.1742,-1.4689 -3.544,-3.5786 -7.0881,-6.3399 -0.8365,-0.4845 -1.5155,-0.8926 -2.0215,-1.216 -0.5083,-0.3246 -1.0095,-0.7279 -1.519,-1.2207 -0.6778,0.9761 -1.179,1.7088 -1.5191,2.1968 -1.5155,2.5978 -3.0393,5.1109 -4.5548,7.556 -0.8424,1.6169 -2.1181,4.2147 -3.797,7.7922 -0.5143,1.1324 -1.2685,2.766 -2.2816,4.871 0,0.6479 0.5036,1.4606 1.5155,2.4331 1.0178,0.9725 2.2386,2.0298 3.6777,3.1658 1.4319,1.1408 3.031,2.3949 4.809,3.7804 1.7672,1.3806 2.9116,2.0667 3.4176,2.0667 0.8424,0 1.9355,-0.6479 3.2911,-1.9486 2.1992,-1.9451 3.9247,-4.1002 5.1872,-6.4498 1.2625,-2.3567 2.1933,-4.47 2.7863,-6.3399 0.5907,-1.8651 0.716,-3.6121 0.3795,-5.2362 z m 13.168,30.2082 z m 0,0 c 0.3365,1.6253 0.2017,3.3675 -0.383,5.241 -0.5943,1.8651 -1.5251,3.9701 -2.7924,6.3316 -1.2565,2.3532 -2.988,4.5082 -5.1812,6.4497 -1.3556,1.3043 -2.4499,1.9523 -3.2971,1.9523 -0.5,0 -1.6456,-0.7315 -3.4176,-2.1933 -1.7637,-1.4606 -3.3722,-2.7183 -4.8066,-3.7756 -1.4355,-1.0525 -2.661,-2.0751 -3.6717,-3.0393 -1.0108,-0.9773 -1.5191,-1.7888 -1.5191,-2.4367 1.0143,-2.1145 1.772,-3.7434 2.2816,-4.8758 1.6885,-3.5739 2.9546,-6.1717 3.7923,-7.7958 1.525,-2.4331 3.0405,-4.9462 4.5643,-7.5488 0.3317,-0.4916 0.8365,-1.2207 1.5155,-2.1968 0.5,0.488 1.0095,0.8926 1.5155,1.2159 0.5047,0.3282 1.1825,0.7375 2.0274,1.2256 3.5453,2.7577 5.9068,4.871 7.0893,6.3316 1.1802,1.4606 1.9415,3.1658 2.2816,5.1144 z m -26.0794,1.4606 c 0.3329,1.6253 0.2148,3.3675 -0.3831,5.241 -0.5883,1.8651 -1.5154,3.9784 -2.7791,6.3316 -1.2709,2.3531 -2.9964,4.5082 -5.1933,6.4533 -1.3472,1.3007 -2.451,1.9498 -3.2934,1.9498 -0.5036,0 -1.6408,-0.7291 -3.4093,-2.1932 -1.7756,-1.4618 -3.3758,-2.7195 -4.8149,-3.772 -1.432,-1.0609 -2.6611,-2.0716 -3.6718,-3.0477 -1.0095,-0.9773 -1.5155,-1.7852 -1.5155,-2.4331 1.006,-2.1134 1.7685,-3.7386 2.2733,-4.8711 1.6885,-3.5786 2.9546,-6.1752 3.797,-7.7969 1.5203,-2.4367 3.0393,-4.9546 4.5596,-7.556 0.3365,-0.4797 0.846,-1.2123 1.5202,-2.1932 0.5036,0.4928 1.0132,0.8973 1.5239,1.2207 0.5047,0.3246 1.1778,0.7327 2.019,1.2172 3.5465,2.7612 5.9068,4.8746 7.0858,6.3352 1.1826,1.457 1.9403,3.1693 2.2816,5.1144 z m 0,0 z m -58.1146,118.1324 -3.5453,9.0166 c -1.519,3.2457 -3.3292,6.285 -5.4473,9.131 -2.1002,2.846 -3.8341,4.7064 -5.1813,5.6025 -1.3556,0.8926 -3.8901,1.9881 -7.5977,3.2923 -1.8568,0.648 -3.6252,1.2972 -5.3173,1.9451 -4.0501,1.2971 -6.7529,2.1933 -8.1001,2.6813 -3.8806,1.1325 -6.5834,1.7053 -8.1025,1.7053 l -1.0154,-0.4929 c 0,-1.1324 3.0428,-3.5655 9.1179,-7.3029 l 9.8721,-6.8209 c 1.6885,-1.136 3.5453,-2.5166 5.5691,-4.1419 2.025,-1.6205 4.1718,-3.6539 6.4581,-6.0918 2.2697,-2.4331 3.8388,-4.9497 4.6813,-7.5511 0,-0.3198 0.079,-0.8127 0.2518,-1.457 l -6.5822,0.4844 c -3.0358,0 -5.5667,-0.9343 -7.5906,-2.8042 -2.0297,-1.8651 -2.8674,-3.9355 -2.5357,-6.2087 0.173,-1.2971 0.5895,-2.8412 1.2673,-4.6312 0.679,-1.7851 2.198,-5.0297 4.556,-9.7456 1.519,-3.0811 3.0393,-5.6825 4.5548,-7.7922 2.192,-2.9248 4.3101,-4.3854 6.3304,-4.3854 3.3854,0 6.3316,1.3807 8.8626,4.1372 2.5333,2.766 3.8006,6.0965 3.8006,9.9902 0,1.9487 -0.1766,3.8985 -0.5095,5.8472 -0.3413,1.9486 -0.6277,3.6538 -0.8843,5.1144 -0.2565,1.4654 -0.6312,3.2076 -1.1407,5.2457 -0.5048,2.0286 -1.0943,3.772 -1.7721,5.2326 z m -42.9311,-32.4778 c 0,1.9486 -0.42,5.1992 -1.2613,9.7492 -0.8472,4.5429 -1.6933,8.5249 -2.5357,11.9353 l -3.0346,11.9341 c -1.6885,4.5465 -3.0393,7.8805 -4.0536,9.9939 -1.5203,3.081 -2.9092,5.5989 -4.1753,7.5475 -1.2685,1.9487 -2.5764,3.4475 -3.9236,4.5083 -1.3484,1.0525 -3.63,2.3961 -6.8364,4.0202 l -9.1179,3.6503 c -0.8389,0.3281 -2.8257,0.8126 -5.945,1.4606 -3.1193,0.6527 -5.1061,0.9761 -5.9533,0.9761 -0.8449,0 -1.3508,-0.2816 -1.5191,-0.858 -0.1682,-0.5644 0,-1.2506 0.5095,-2.0584 0.8413,-1.4654 2.9928,-3.4988 6.4486,-6.0966 3.4665,-2.593 6.8829,-5.1144 10.2599,-7.5511 3.8806,-3.4104 6.7565,-6.0918 8.6084,-8.0452 2.7029,-2.7529 5.2279,-6.0834 7.5942,-9.9807 0.5047,-0.8126 1.2255,-2.4761 2.1562,-4.9927 0.9248,-2.5179 2.3986,-6.6216 4.4236,-12.3053 l 3.0393,-8.7683 c 0.3413,-1.3007 0.8508,-2.8842 1.5191,-4.7529 0.6789,-1.8603 1.5202,-2.7994 2.5357,-2.7994 0.8413,1.136 1.2613,1.9534 1.2613,2.4331 z m -49.1219,1.8687 c 0,1.945 -0.4164,5.1992 -1.2577,9.7456 -0.8473,4.5465 -1.6849,8.5249 -2.5358,11.9389 l -3.0393,11.9305 c -1.6825,4.5465 -3.0345,7.8841 -4.0452,9.9975 -1.5191,3.081 -2.9093,5.5989 -4.1802,7.5475 -1.2672,1.9499 -2.5667,3.4486 -3.9271,4.5047 -1.346,1.0573 -3.624,2.3997 -6.828,4.0202 l -9.118,3.6539 c -0.8424,0.3246 -2.8245,0.8126 -5.9533,1.4618 -3.1193,0.6515 -5.0977,0.9761 -5.9486,0.9761 -0.8412,0 -1.3472,-0.2828 -1.519,-0.8592 -0.1671,-0.5644 0,-1.2541 0.5095,-2.062 0.8425,-1.4618 2.9928,-3.4952 6.4533,-6.0918 3.4606,-2.5978 6.883,-5.1144 10.2588,-7.5523 3.8818,-3.414 6.7516,-6.0918 8.6084,-8.0452 2.6992,-2.7529 5.229,-6.087 7.5905,-9.9807 0.5108,-0.8174 1.2256,-2.4797 2.1515,-4.9963 0.9308,-2.5143 2.4033,-6.618 4.4319,-12.3017 l 3.0358,-8.7683 c 0.3413,-1.3007 0.846,-2.8878 1.519,-4.7529 0.679,-1.8603 1.5203,-2.7994 2.5358,-2.7994 0.8413,1.1324 1.2577,1.9534 1.2577,2.4331 z m 17.4281,-55.1337 c 0.3365,1.6205 0.2064,3.3722 -0.3747,5.2373 -0.5967,1.8687 -1.5239,3.9773 -2.7959,6.3388 -1.2578,2.3496 -2.988,4.5047 -5.1849,6.4497 -1.3484,1.296 -2.4415,1.9535 -3.2887,1.9535 -0.5083,0 -1.642,-0.7327 -3.4176,-2.1981 -1.7732,-1.4606 -3.377,-2.7195 -4.8113,-3.7756 -1.4368,-1.0524 -2.6575,-2.0667 -3.6718,-3.044 -1.0143,-0.9726 -1.5107,-1.7852 -1.5107,-2.4368 1.0059,-2.1097 1.7673,-3.7338 2.2684,-4.871 1.6981,-3.5739 2.951,-6.1669 3.8019,-7.7922 1.5202,-2.4415 3.0357,-4.9593 4.5548,-7.5523 0.3401,-0.4881 0.8412,-1.2208 1.5202,-2.1969 0.5084,0.4929 1.0143,0.8926 1.5155,1.2243 0.5083,0.3198 1.1778,0.7244 2.0286,1.2124 3.5489,2.7625 5.9008,4.871 7.0882,6.3364 1.1837,1.4606 1.9414,3.1694 2.278,5.1145 z m -35.8967,-20.8636 c -0.3365,1.9535 -0.8413,3.8603 -1.519,5.7254 -0.6683,1.8735 -1.8103,4.4665 -3.4141,7.8006 -1.6037,3.3257 -2.5679,5.2326 -2.9128,5.7207 -1.3472,1.9534 -2.525,2.9259 -3.5405,2.9259 -0.6778,-0.488 -1.3138,-0.9391 -1.9021,-1.3424 -0.5895,-0.4046 -1.1372,-0.611 -1.642,-0.611 -2.0298,0 -4.7278,0.821 -8.1,2.4415 -3.3759,1.6169 -6.8448,4.0584 -10.3853,7.3041 -4.5583,3.8985 -7.9735,7.3925 -10.2468,10.4735 -2.2815,3.0895 -3.4259,5.1944 -3.4259,6.34 0,1.2923 0.5931,2.6778 1.772,4.1383 l 4.5548,2.1933 c 1.1873,0.4881 2.2434,0.8926 3.1694,1.216 0.9272,0.3281 1.815,0.8126 2.6611,1.457 2.6992,1.7935 4.0452,5.3627 4.0452,10.7217 0.001,7.3125 -1.4343,15.7145 -4.3018,25.2203 -2.8675,9.501 -6.6645,17.7359 -11.3948,24.7238 -2.3579,3.2458 -5.1442,6.4951 -8.3482,9.7444 -3.2076,3.2458 -6.6741,6.0035 -10.3805,8.2815 -7.0905,4.5464 -15.2813,6.8197 -24.5603,6.8197 -10.7982,0 -18.6488,-3.4057 -23.5461,-10.2301 -2.5286,-3.414 -4.3006,-7.0261 -5.3137,-10.8399 -1.0143,-3.8185 -1.5239,-7.4294 -1.5239,-10.8399 0,-4.3865 0.3461,-8.6513 1.0191,-12.7885 0.6742,-4.1383 1.6873,-8.3232 3.0357,-12.5487 2.1933,-6.8208 4.8102,-13.4006 7.8507,-19.7311 3.031,-6.3364 5.4832,-11.446 7.3364,-15.3445 l 5.8244,-11.9425 c 0.6742,-1.2971 1.3974,-2.5978 2.1551,-3.8949 0.7602,-1.3043 1.3902,-1.9487 1.8938,-1.9487 1.1885,0 1.778,0.7292 1.778,2.1933 0,1.1325 -0.1695,2.0286 -0.5095,2.6778 -1.0096,2.4331 -1.8127,4.4235 -2.4021,5.9688 -0.5907,1.5406 -1.8222,4.1849 -3.6718,7.9187 -1.0131,1.9439 -2.531,5.1944 -4.5596,9.7373 -1.0119,2.2768 -2.0262,4.5548 -3.0393,6.8232 -4.8949,12.3435 -7.3411,21.5998 -7.3411,27.7715 0,6.4999 2.4104,11.6561 7.2146,15.4747 4.8114,3.8137 11.6024,5.7206 20.3815,5.7206 7.2611,0 14.2622,-1.6205 21.0138,-4.8698 5.0632,-2.4379 9.2851,-5.4021 12.6573,-8.8912 3.3794,-3.4904 5.9557,-6.7815 7.7254,-9.8674 1.7756,-3.0858 2.6515,-5.8471 2.6515,-8.285 0,-1.457 -1.179,-2.5549 -3.5405,-3.2875 -2.3615,-0.7291 -4.0501,-1.2172 -5.0596,-1.4606 -1.0143,-0.2447 -2.198,-0.6909 -3.5453,-1.3341 -2.5297,-1.1456 -4.4748,-2.6062 -5.8256,-4.3913 -1.3508,-1.7888 -2.025,-4.2219 -2.025,-7.3078 0,-4.7111 1.6038,-10.6799 4.8066,-17.9041 3.2123,-7.2278 7.6883,-14.3339 13.4209,-21.3134 4.7243,-5.6921 9.0297,-10.3185 12.9162,-13.8876 2.0203,-1.7887 4.6384,-3.8567 7.8459,-6.2135 3.1992,-2.3531 6.3269,-4.3447 9.371,-5.9652 3.7051,-2.1134 6.6633,-3.3341 8.8578,-3.6539 0.8412,0.4881 1.4391,0.9678 1.7672,1.4606 0.3413,0.4845 0.4213,1.0525 0.2518,1.7004 z"
       style="fill:#f4f4c4;fill-rule:evenodd"
       id="path34" />
  </g>
</svg>
