<?xml version="1.0" encoding="UTF-8" standalone="no"?>
<svg
   version="1.1"
   width="1700.7874"
   height="1475.3625"
   id="svg7"
   viewBox="0 0 1700.7874 1475.3626"
   sodipodi:docname="ab9dd3012a06db5483f34e86b2a1c27d.cdr"
   xmlns:inkscape="http://www.inkscape.org/namespaces/inkscape"
   xmlns:sodipodi="http://sodipodi.sourceforge.net/DTD/sodipodi-0.dtd"
   xmlns="http://www.w3.org/2000/svg"
   xmlns:svg="http://www.w3.org/2000/svg">
  <defs
     id="defs11" />
  <sodipodi:namedview
     id="namedview9"
     pagecolor="#ffffff"
     bordercolor="#666666"
     borderopacity="1.0"
     inkscape:pageshadow="2"
     inkscape:pageopacity="0.0"
     inkscape:pagecheckerboard="0" />
  <g
     id="Layer1000"
     transform="translate(-283.4646,-396.177)">
    <path
       d="m 902.079,396.2012 c 48.033,-0.049 96.0659,7e-4 144.1244,-0.0242 27.4261,20.4562 55.1023,40.6126 83.7315,59.3895 -17.0722,-19.2296 -35.5486,-37.2533 -51.1917,-57.7103 23.4401,0.0498 47.0558,-2.2306 70.4199,0.5017 13.0117,8.3222 19.855,22.9634 30.3347,33.9191 -3.6853,-11.6081 -8.2732,-22.8886 -12.635,-34.2701 16.6714,-0.3262 33.4423,-2.0054 50.0888,-0.0753 6.7439,0.275 8.2973,7.9974 10.5784,12.986 10.2288,28.1268 21.9862,55.6545 32.0892,83.8324 -31.537,12.4332 -56.8319,36.7268 -75.5847,64.4535 C 1090.0244,504.9269 994.7858,452.7333 902.079,396.2019 Z m -198.6759,4.9637 c 34.2197,0 68.4145,0.0512 102.6094,-0.0497 7.7217,-0.3511 15.1421,2.1816 22.0359,5.4406 117.1247,53.7485 235.0268,105.8178 351.9006,160.0936 -15.9195,31.9372 -19.3291,68.5645 -16.0701,103.6867 -153.9262,39.6596 -306.9505,82.7295 -460.7515,122.9412 -0.1755,-36.9528 -0.0498,-73.9297 -0.0498,-110.8825 97.0437,-11.783 193.5864,-27.451 290.7808,-37.9299 -29.7328,-5.5166 -60.0923,-4.9133 -90.1001,-7.5711 -66.584,-3.9369 -133.0691,-9.4514 -199.7284,-12.0082 -1.9805,-30.911 -1.0532,-61.8966 -0.4513,-92.8325 80.8996,11.2813 162.0238,20.9835 242.9731,31.9137 20.6325,2.9577 41.3146,5.916 62.1724,6.643 C 907.4436,541.906 806.4388,512.223 705.1577,483.4687 c -4.9382,-27.2008 -1.1278,-54.877 -1.7546,-82.3031 z m 541.2503,0.1258 c 15.9693,-0.2004 31.9634,-0.3006 47.9327,0.7021 1.9045,9.7762 4.7882,19.354 8.9746,28.4039 -0.2004,-9.7278 -0.5515,-19.4791 0.5514,-29.1557 14.2396,-0.1265 28.4785,-0.2004 42.7181,-0.3511 -0.275,11.982 -1.3033,23.9163 -1.579,35.8997 6.2173,-10.9565 8.7493,-23.3897 12.0587,-35.3987 16.8213,-0.2764 33.6683,-0.2004 50.4896,-0.1748 -9.3256,30.383 -22.613,59.3639 -32.9413,89.4222 -34.7711,-10.5046 -72.5767,-10.5792 -107.2476,0.4264 -6.1413,-30.1095 -14.4145,-59.7406 -20.9579,-89.774 z m 183.182,0.6261 c 19.8302,-1.1775 39.6852,-0.651 59.5651,-0.651 -15.1166,29.5068 -35.1976,56.0553 -50.6403,85.3368 27.301,-27.6776 52.6457,-57.2342 79.4705,-85.3616 14.8167,-0.1016 29.6063,0.0248 44.423,-0.2004 0.7028,13.411 2.9832,27.0999 -0.1009,40.3865 -0.2758,3.2085 -3.2334,4.9638 -5.3148,6.9692 -28.0515,22.8631 -56.4561,45.3005 -84.8095,67.7884 31.763,-11.0318 59.7654,-30.2089 91.0268,-42.4175 0.3773,21.0318 0.4015,42.0914 -0.05,63.1246 -33.5169,10.6786 -65.13,27.0246 -99.501,35.0469 -17.5732,-34.1195 -46.1271,-63.1246 -82.2271,-77.264 12.4091,-32.7416 33.1914,-61.2699 48.158,-92.7572 z m 38.2561,177.6178 c 32.1894,-5.7668 63.3506,-16.1946 95.6395,-21.5342 0.1258,14.1628 -0.05,28.3285 -0.5259,42.4928 -17.1219,4.5623 -34.2701,9.025 -51.3423,13.7379 17.1233,4.4869 34.6461,7.22 51.8938,11.1811 -0.049,14.1387 -0.1002,28.2781 -0.2509,42.4424 -12.2825,0.5763 -24.5679,0.9778 -36.827,1.8554 11.9841,6.3417 24.7939,10.9302 37.3536,16.0191 -0.5763,18.8523 -0.1258,37.7046 -0.8528,56.5569 -32.2135,-13.212 -64.2772,-26.724 -96.3167,-40.3368 15.5188,-38.8829 15.0668,-83.1054 1.2287,-122.4146 z M 703.5289,858.2822 c 155.0297,-59.064 309.0063,-120.9102 463.7091,-180.8263 9.251,36.8021 32.4652,69.2424 62.9747,91.4787 -76.7624,130.1357 -153.1992,260.4468 -230.1377,390.4566 -18.6761,32.139 -36.9272,64.5288 -57.2584,95.6402 -40.3616,2.2563 -80.7738,1.0027 -121.161,0.4015 80.9998,-121.7125 167.0379,-240.0154 247.536,-362.0534 -63.8011,62.9491 -126.7011,126.8014 -190.3026,189.9764 -58.762,58.1608 -118.5786,115.2941 -175.3857,175.3608 -0.3006,-63.401 -1.5541,-126.8262 0.4513,-190.2016 8.7244,-8.9007 18.9781,-16.0197 28.8295,-23.5659 79.6716,-62.3728 159.317,-124.7206 238.9879,-187.0678 13.8886,-10.8805 28.4288,-21.0837 40.6871,-33.8694 -56.3053,30.2089 -114.3162,57.1333 -171.0487,86.515 -45.9018,23.3393 -91.8042,46.7041 -138.1572,69.1167 -0.2011,-40.4626 -0.7277,-80.9245 0.2757,-121.3615 z m 757.2478,-147.3087 c 33.2682,20.6076 67.6378,39.435 100.2778,61.0446 1.5044,19.1529 0.5763,38.3811 0.2011,57.5596 -20.808,-9.0001 -40.8641,-19.6546 -60.8939,-30.2586 18.7769,28.8039 42.0416,54.5011 60.2671,83.6568 2.5817,24.4173 0.5259,49.0861 0.8023,73.6035 -34.1699,-25.6459 -61.8469,-58.7378 -95.5151,-84.9601 29.4826,56.6067 64.8542,110.0049 94.361,166.5611 2.984,64.9552 1.0283,130.1108 1.1037,195.1661 0.3013,5.7412 -0.4762,11.5321 -3.2093,16.6714 -63.8004,-153.0996 -126.8013,-306.5247 -191.5802,-459.2228 17.9746,-8.8239 36.952,-16.4703 52.3699,-29.5822 17.4232,-13.5368 29.8322,-32.038 41.8156,-50.2387 z m -222.541,63.1253 c 35.4476,21.3587 78.7428,26.724 119.0789,19.3284 38.1566,154.0768 81.9279,306.7003 119.7569,460.8524 -31.6871,-1.3794 -63.5254,2.6073 -95.113,-1.5044 -18.5012,-86.1888 -36.2755,-172.5283 -54.1749,-258.8422 -2.9334,-13.6881 -5.0398,-27.6016 -9.9779,-40.7376 0.3013,12.3088 1.1277,24.6433 0.5265,37.0025 -1.579,30.1329 -0.8278,60.3169 -1.4546,90.4754 -0.7511,57.6094 -2.0807,115.1946 -2.2563,172.804 -32.4644,0.852 -64.98,1.805 -97.4445,0.1002 5.5906,-95.9664 14.1892,-191.7061 20.3568,-287.622 l 3.0834,-1.1782 c -0.727,-0.2758 -2.1561,-0.8272 -2.8582,-1.1029 -30.2835,95.8654 -55.4036,193.2602 -83.6319,289.7027 -39.1579,2.1802 -78.3669,0.8023 -117.5504,0.8271 14.9915,-39.8606 31.7631,-79.0192 48.5091,-118.1522 51.4674,-120.4846 100.7539,-241.8702 153.1501,-361.9532 z"
       style="fill:#f29200;fill-rule:evenodd"
       id="path2" />
    <path
       d="m 1654.7653,1372.7075 c 24.3419,-14.1898 50.2636,-25.9721 77.814,-32.3898 -5.0376,11.6067 -7.5198,26.5236 -18.7009,33.794 -48.6348,18.2 -96.2926,41.1384 -136.0523,75.0575 19.3298,13.7387 42.2171,20.8833 62.8495,32.2897 37.6798,19.1529 69.1913,47.6818 102.2583,73.504 20.0057,16.4447 47.3309,9.4258 70.0689,3.885 -2.5071,-11.4312 -10.1286,-20.3809 -17.7743,-28.7542 5.4157,-9.3761 11.1562,-18.5517 17.3735,-27.4012 11.7581,13.1865 15.9693,31.7879 14.0385,49.0363 -2.5568,15.3923 -9.2254,33.0664 -25.12,38.8573 -16.2692,5.3646 -34.2951,7.446 -50.9409,2.5824 -10.9792,-3.0336 -19.8294,-10.4789 -28.6043,-17.3735 -19.4286,-15.5933 -37.7799,-32.4644 -56.8071,-48.509 0.2502,11.3559 0.8272,23.5652 -5.2899,33.6931 -4.6617,8.799 -13.1865,14.5402 -21.9606,18.6768 -17.2221,8.7741 -36.4006,12.284 -55.2537,15.5685 -36.2499,6.4923 -73.1771,8.0969 -109.9295,7.4453 -25.5699,-1.0027 -54.9517,-2.5818 -73.804,-22.3117 -16.2201,-18.7272 -12.0587,-47.1304 0.5259,-66.66 3.686,-6.5932 9.025,-12.3088 16.471,-14.5402 -3.4842,13.7884 -11.8825,26.9748 -9.6518,41.6906 3.7862,13.713 18.4011,19.7797 30.7604,23.7407 37.755,10.0526 77.2895,7.9974 115.8455,5.064 26.9251,-2.5825 54.5764,-5.064 79.4457,-16.5456 6.8192,-3.1844 14.0889,-8.3478 15.3929,-16.2955 0.9025,-6.6181 -4.8138,-11.3566 -8.9752,-15.5429 -19.1281,-16.9969 -43.9966,-25.5706 -64.0776,-41.2642 -10.6545,-8.4984 -11.3814,-23.4899 -11.2059,-35.9998 -0.3752,-7.1951 4.0861,-13.2113 9.3512,-17.5739 24.5686,-21.7346 53.1473,-38.3058 81.952,-53.7237 z M 498.561,1421.4923 c -2.9086,-14.6653 10.7291,-24.317 18.9767,-34.1692 8.173,53.6732 6.8697,108.2752 14.4905,161.9988 1.6046,10.6296 13.0862,16.471 23.0642,15.6936 32.6904,-0.727 65.5315,1.8803 98.1466,-1.5797 13.588,-1.7048 19.4286,-16.0439 29.0051,-24.0165 5.1897,8.3236 7.3706,20.9082 18.3762,23.5403 13.5126,2.9079 28.7045,4.4372 41.4148,-2.1056 19.1785,-13.713 21.8853,-40.5627 40.3368,-54.9772 11.4071,-8.1481 31.2116,-7.1198 37.9306,6.5933 7.0943,13.6874 10.8293,29.2559 10.4534,44.6986 -0.7014,11.5314 -10.604,19.3036 -19.2027,25.5955 -18.7016,-2.532 -34.6965,-13.2113 -52.6712,-18.0749 -6.8938,10.2032 -11.9336,23.5404 -24.0669,28.6299 -20.933,5.339 -46.2535,3.1587 -61.7211,-13.5126 -9.7264,8.6988 -21.9357,15.1918 -35.2224,15.518 -28.3534,0.7021 -56.7325,0 -85.0859,0.351 -9.8522,0.2253 -20.7319,-1.2286 -27.9519,-8.5737 -9.2759,-9.1252 -11.3069,-22.613 -12.7608,-34.9474 -3.9106,-43.6206 -8.5489,-87.1666 -13.5127,-130.6615 z m 281.2043,115.2699 c 8.0223,6.7183 18.3755,9.526 28.1019,12.8859 -0.6758,-11.0809 -7.2946,-23.7663 -19.4286,-24.9694 -4.6625,2.156 -11.0304,6.0418 -8.674,12.0835 z m 237.4579,-112.637 c -3.7102,-15.6687 9.1998,-27.5511 19.8792,-36.6515 3.9617,45.5756 6.6692,91.2777 10.5543,136.9044 0.7028,9.1501 1.0027,18.4259 3.3094,27.3756 2.7331,7.4204 10.0525,12.7352 18.0251,12.8354 17.549,1.3033 35.1975,0.1002 52.7963,0.4015 21.6103,-0.3517 43.5709,1.8548 64.8294,-3.0337 21.5605,-5.1392 42.5184,-12.6101 64.1529,-17.4232 -15.7433,-6.7183 -32.1141,-11.9834 -48.8601,-15.5429 -15.0917,-2.9079 -30.1336,1.7545 -44.9744,4.2112 3.1083,-14.1138 11.6067,-27.6762 25.27,-33.4679 15.894,-6.7936 33.8182,-2.807 49.4364,2.8582 15.619,6.142 31.2365,12.5099 47.4318,17.1475 26.2471,6.7943 53.5978,6.5684 80.5229,6.2422 -2.4318,9.4009 -5.6402,18.6022 -9.1508,27.652 -32.7401,0.025 -66.8596,-1.6294 -97.8452,10.8549 -29.2816,10.7298 -56.2813,29.9332 -88.421,30.8108 -28.3278,0.8265 -56.682,-0.2011 -85.0098,0.4008 -11.0056,-0.4768 -23.566,1.3289 -32.7907,-6.0169 -10.5045,-7.9974 -14.1642,-21.6096 -15.368,-34.1692 -4.9133,-43.772 -8.1226,-87.7181 -13.7884,-131.3892 z m 813.7046,-5.2899 c 0.1506,-13.3123 11.7573,-22.4119 19.7548,-31.7382 3.1587,14.5907 3.7351,29.5324 4.5125,44.4236 3.1332,38.406 4.8628,76.9634 9.3007,115.2693 0.4768,10.9799 11.3054,18.5765 21.7346,18.1502 27.4773,0.05 55.8805,2.382 82.3287,-6.869 -4.3363,-10.3787 -11.1818,-19.3284 -17.9001,-28.2284 4.5879,-9.8273 10.5792,-18.902 17.5484,-27.2001 11.3828,15.2921 16.5207,35.3731 12.2342,54.0996 -2.7324,12.9861 -8.7493,27.0253 -21.6849,32.6656 -18.7017,8.4487 -39.9353,5.641 -59.8657,6.2926 -11.6067,-0.8279 -24.3177,1.8803 -34.9225,-4.0364 -10.9046,-6.6685 -16.52,-19.2787 -17.7487,-31.6124 -5.5145,-47.0302 -8.6242,-94.3361 -15.292,-141.2164 z m -662.2103,49.3618 c 5.5408,-9.1508 11.2813,-18.3258 18.5262,-26.2479 9.6525,3.9611 18.3008,10.0782 26.6742,16.245 -4.7882,9.752 -11.9585,18.1503 -19.0527,26.2983 -8.4231,-5.8918 -17.198,-11.2315 -26.1477,-16.2954 z m -824.2084,6.0915 c 3.2583,-5.0384 7.9968,-8.8495 12.3593,-12.8603 2.9328,24.4677 5.8663,48.961 10.0519,73.2532 1.9308,9.8017 3.9369,20.9828 12.4346,27.4261 5.8663,4.4372 13.6377,2.4318 20.4321,2.7075 29.6823,-0.3766 60.6935,4.3618 88.7705,-8.0728 -5.69,-9.752 -12.2335,-18.9525 -19.1025,-27.9022 5.8912,-9.0747 11.5819,-18.4259 19.2283,-26.1725 10.2785,16.0191 15.3425,35.7241 11.181,54.5764 -2.8325,14.1387 -10.5798,29.1558 -25.2195,33.8189 -22.4872,7.4453 -46.6046,3.61 -69.8436,4.5125 -13.1623,-0.4263 -28.5048,2.3565 -39.4848,-6.719 -10.4036,-9.0498 -11.1313,-23.7158 -13.5375,-36.326 -6.8185,5.5913 -12.8859,13.4125 -22.0111,15.1421 -15.6928,0.6268 -32.2391,-0.3254 -46.2279,-8.1971 0.3503,-18.9028 10.2537,-37.2285 25.8968,-47.8325 9.7022,-7.3707 21.2834,-11.8079 30.8101,-19.3292 3.3343,-5.3148 1.6046,-12.3841 4.2623,-18.0244 z m -34.8223,58.0109 c 10.5046,10.6793 25.4207,4.1117 38.0557,2.4069 -0.7014,-8.3485 -1.5286,-16.6714 -2.532,-24.9694 -13.1111,5.1393 -26.6742,11.0311 -35.5237,22.5625 z m 1429.3621,-35.2224 c 6.066,-9.1508 12.6343,-17.9747 19.4031,-26.5989 8.9255,5.5159 17.824,11.056 26.724,16.6465 -5.7149,9.1501 -11.8832,17.9996 -18.4764,26.5236 -9.2496,-5.5159 -18.4011,-11.1313 -27.6514,-16.5712 z m -1340.2646,11.0304 c 5.3645,-9.4009 11.8327,-18.0998 18.3001,-26.7488 9.703,4.7377 18.9028,10.454 27.5767,16.8966 -6.041,8.6491 -12.0586,17.3231 -18.5758,25.646 -9.025,-5.415 -18.1012,-10.7291 -27.301,-15.7938 z m 554.0103,7.5711 c 5.3148,-9.7023 14.1138,-20.0306 26.2223,-19.4287 12.3095,2.0303 19.0527,14.0641 22.9135,24.8188 18.6512,50.5905 -7.7714,109.4534 -52.4701,136.7288 -26.2727,15.2423 -62.3983,8.9746 -82.1275,-14.1394 16.6458,-0.9025 33.492,2.4069 49.9878,-1.0276 22.6635,-5.7163 41.6409,-20.5819 57.8354,-36.8525 8.5993,-8.4231 14.7406,-19.0023 18.8019,-30.2836 -9.9517,2.8575 -19.8799,7.3707 -30.4342,6.6686 -12.6094,-1.304 -22.5376,-12.9107 -23.2895,-25.3205 -1.228,-14.791 5.7412,-28.5289 12.5604,-41.1639 z m 8.1225,31.4368 c 8.1978,6.7439 19.4038,3.0842 27.5007,-1.805 -5.0135,-6.3424 -9.251,-14.1387 -17.0473,-17.3976 -9.3,-0.3013 -15.7689,11.5314 -10.4534,19.2026 z m -94.4115,-46.1775 c 13.9639,6.9692 22.4367,21.2841 26.6984,35.8243 9.251,32.0132 0,68.1637 -22.4872,92.5817 -15.0668,16.9968 -35.6488,33.2419 -59.6908,31.2365 -18.3258,-3.0586 -38.3563,-8.3983 -49.7371,-24.3427 15.4676,-0.6772 30.9601,7.6215 46.1526,1.9308 26.5741,-8.5496 49.3619,-26.4987 66.7098,-48.0585 5.9415,-6.9194 7.7465,-17.0473 3.8608,-25.3958 -5.6658,-13.0109 -16.3452,-22.8127 -24.9694,-33.8182 3.7351,-10.3041 8.4736,-20.2061 13.4622,-29.9581 z m -259.5699,105.5926 c 8.5994,5.3894 17.198,10.8052 25.997,15.9188 -4.4371,7.8468 -9.2502,15.4932 -13.9887,23.1893 -9.3256,-3.3847 -17.6237,-8.8992 -26.5236,-13.1864 -4.1863,5.415 -7.4453,11.4816 -11.1057,17.2477 -9.5509,-4.6376 -18.5262,-10.2786 -27.3757,-16.1192 4.9638,-8.4743 10.3539,-16.6963 16.395,-24.4678 8.0223,3.76 15.4186,8.6989 22.4623,14.089 4.8643,-5.4406 9.6021,-10.9807 14.1394,-16.6714 z m 1288.8463,30.2082 c 1.7809,-10.8549 11.8079,-18.2248 18.0003,-26.849 8.6235,5.7404 17.323,11.3814 26.0965,16.8966 -5.8407,8.9497 -11.8825,17.7494 -18.2248,26.3481 -8.6989,-5.3646 -18.1005,-9.7264 -25.872,-16.395 z m -1382.2295,76.8128 c 7.7963,-3.4089 15.8932,3.4103 15.7177,11.3821 1.0539,9.6767 -13.7372,15.3923 -19.3782,7.5206 -4.8884,-5.641 -3.9113,-16.2194 3.6605,-18.902 z m 100.6032,11.9336 c 11.5819,-4.7883 23.0394,-10.1031 35.2729,-12.9861 0.0504,39.9858 0.1258,79.9715 -0.0498,119.9828 -0.1001,7.721 1.0781,15.3674 2.4318,22.9882 5.064,0.2004 10.1272,0.4769 15.1919,0.9025 -10.3539,7.9975 -22.9889,11.5321 -35.3233,15.167 -0.15,-4.4372 -0.3006,-8.8992 -0.4008,-13.2618 -8.9248,6.8192 -19.3789,13.0863 -31.0361,12.51 -13.5872,-0.4008 -25.0447,-10.3283 -31.3367,-21.7858 -12.986,-25.1443 -5.8413,-59.0385 16.3197,-76.6621 13.3378,-10.2281 32.3152,-10.2281 46.3785,-1.4291 -0.9017,-13.2867 1.454,-27.0502 -2.4815,-39.9353 -4.7129,-2.5576 -9.9772,-3.7358 -14.9666,-5.4903 z m -10.604,48.008 c -26.6238,15.668 -25.5962,57.8354 -4.3874,77.7906 9.8522,10.1528 32.5149,4.5622 32.1645,-10.9807 -0.2259,-15.9188 0.9274,-31.9385 -0.9785,-47.7572 -1.6288,-12.0586 -14.4144,-23.2895 -26.7986,-19.0527 z m 128.0549,-45.4761 c 9.3761,-8.6242 22.0857,-11.2812 33.5425,-16.019 4.0619,46.127 -1.454,92.5809 3.0841,138.6589 0.7519,7.4709 10.8798,4.2865 16.019,5.8158 -10.955,7.3458 -23.1644,12.8354 -36.3508,14.44 -0.2004,-3.6597 -0.376,-7.2946 -0.5266,-10.9302 -9.4507,6.3175 -20.356,11.8327 -32.0637,10.6296 -12.6847,-1.1782 -22.8631,-10.604 -28.9297,-21.2087 -15.2175,-27.2506 -4.5125,-65.7575 22.662,-81.1249 12.0089,-6.8689 26.3985,-3.61 38.5822,0.953 0.1507,-13.5382 0.2004,-27.0502 -0.9529,-40.5372 -5.0384,-0.2011 -10.0526,-0.3767 -15.0668,-0.6773 z m -10.1535,45.4505 c -15.5429,5.7412 -20.6317,24.1174 -20.1058,39.1593 -0.9274,15.9686 5.1641,34.0939 20.2565,41.665 8.6242,5.0888 20.4818,1.0532 25.2949,-7.3699 1.579,-17.198 0.7518,-34.5459 0.4512,-51.7936 0.3262,-12.7857 -12.8354,-26.0475 -25.8968,-21.66 z m 73.379,-48.2084 c 11.4568,-4.8131 22.7871,-10.0526 34.9708,-12.785 0.3014,46.7545 -0.6765,93.509 0.3767,140.2387 -1.0276,9.0996 10.0021,10.253 15.8435,14.0136 -17.0466,1.3786 -34.2943,1.1029 -51.3168,-0.2508 5.2139,-3.4096 14.5147,-3.5845 15.5429,-10.9302 3.0337,-20.0306 0.6268,-40.3617 1.228,-60.4925 -0.7014,-21.2343 2.2563,-42.8439 -2.0303,-63.8018 -4.6127,-2.5824 -9.7519,-4.0115 -14.6155,-5.9913 z m 1072.421,2.7075 c 10.8811,-7.6961 23.5403,-12.1831 36.2755,-15.7433 1.6551,32.0388 0.025,64.1777 0.8769,96.267 12.6357,-9.2006 25.3958,-18.5766 35.1478,-30.9359 -1.4781,-3.5852 -2.9335,-7.1447 -4.3625,-10.6801 14.7413,0.3262 29.6325,-0.9522 44.1727,2.2563 -24.1408,2.7075 -39.4343,22.7636 -57.2078,36.8277 12.4097,15.3922 25.4448,30.2586 38.3058,45.2998 5.8414,7.9975 16.4454,9.1757 23.7905,15.3177 -17.0218,1.3786 -34.1195,0.5514 -51.1413,0.577 2.0317,-3.1339 4.0862,-6.2678 6.1413,-9.3761 -10.3034,-15.4427 -22.888,-29.106 -35.0462,-43.0947 0.026,14.9161 -0.351,29.8578 0.5764,44.7491 5.1144,2.2811 10.2281,4.4372 15.3673,6.7439 -6.9435,1.9052 -14.1387,2.306 -21.2336,1.3281 -10.4541,-1.4539 -21.3843,2.8084 -31.3118,-1.9549 4.9382,-2.0807 10.5038,-3.0337 15.0419,-6.0667 5.0149,-15.8691 2.7573,-32.8915 3.1083,-49.2616 -0.9266,-27.3507 2.5071,-55.0781 -3.1339,-82.1027 -5.1144,-0.025 -10.3034,-0.1002 -15.3673,-0.1499 z m -1583.3629,-6.8441 c 14.9425,-1.1029 29.9083,-0.6012 44.8493,-0.5763 18.0756,36.6515 32.4403,75.0831 52.2449,110.8825 17.323,-36.9023 35.1734,-73.5794 52.1695,-110.6317 14.3149,-0.2508 28.7301,-1.1782 42.969,0.8777 -5.415,2.0054 -11.1299,3.2333 -16.2692,5.9408 -4.5374,2.1063 -4.4883,7.6969 -5.2651,11.9337 -1.6543,21.0076 -0.2004,42.0913 -0.5017,63.1501 0.2011,19.4038 -1.7289,39.0577 2.7331,58.1609 6.5186,1.3288 13.0607,2.6321 19.4784,4.5125 -10.1776,3.2092 -20.8577,3.234 -31.3615,1.9556 -11.4319,-1.655 -23.4395,3.1836 -34.3953,-1.5797 6.7695,-2.8077 16.5961,-2.2314 20.6574,-9.3007 2.3571,-34.671 2.0309,-69.5928 0.1755,-104.3391 -5.9921,8.5738 -9.9773,18.2504 -14.3398,27.7018 -11.9585,24.8437 -23.465,49.8884 -35.398,74.7569 -2.2562,4.8636 -5.2643,9.3256 -9.0505,13.1367 -18.3499,-39.7604 -37.4282,-79.2196 -54.175,-119.6815 -3.5091,25.5955 -0.9273,51.4923 -1.7296,77.264 0.2011,11.331 -1.3787,23.6654 3.7102,34.1948 5.0391,4.3619 12.7359,3.5845 18.8018,5.8407 -3.9354,1.2536 -7.9221,2.9584 -12.1581,2.5824 -14.5154,-1.5292 -29.2567,1.68 -43.5709,-2.2811 7.9725,-2.7331 21.6856,-2.031 22.6627,-13.0116 0.852,-35.9245 0.2757,-71.8739 0.3255,-107.7984 -0.2999,-5.2146 0.7781,-11.7325 -4.0613,-15.2672 -5.464,-4.1366 -12.3081,-5.7156 -18.5013,-8.4231 z m 744.1879,-0.2004 c 37.4538,-1.1278 74.9573,0.1507 112.4111,-0.6261 1.655,11.6565 2.2058,23.4651 1.3793,35.2473 -9.3512,-6.3679 -7.6464,-22.7878 -20.3319,-24.7939 -16.8462,-2.7075 -34.0193,-0.7518 -51.0161,-1.1278 0.026,18.7017 0.025,37.3785 0.05,56.0802 12.9356,-0.051 25.9715,1.304 38.8076,-0.6766 11.5065,-0.2764 11.5314,-14.0896 16.1441,-21.7353 2.608,18.0998 1.6799,36.4511 1.4042,54.6766 -4.5374,-6.6188 -5.9416,-15.744 -12.5846,-20.6076 -14.1394,-4.462 -29.2566,-2.1304 -43.7968,-2.0558 0.5017,19.2538 -1.2031,38.6071 0.8776,57.7856 0.8023,5.916 8.4487,4.7882 12.8354,5.3148 13.713,-0.4768 27.9526,2.0303 41.2144,-2.532 13.2618,-5.1897 16.1441,-21.2841 27.6265,-28.7798 -2.4062,13.7379 -5.9665,27.4261 -12.5099,39.8607 -31.3111,0.6261 -62.6485,0.3759 -93.9852,0.3006 -6.1917,0.025 -12.3848,-0.2757 -18.4508,-1.454 6.6437,-3.0336 17.5988,-2.6577 20.0305,-10.9806 1.0276,-41.2145 2.2563,-82.6037 -0.4015,-123.7677 -4.6127,-5.8918 -13.3371,-6.5435 -19.705,-10.1286 z m 466.4678,0.7774 c 8.4224,-2.0309 17.1219,-1.1277 25.7205,-1.2031 20.0561,0.2253 40.1869,-0.8023 60.2174,1.0276 16.7467,1.6046 34.8458,11.2059 39.2332,28.6292 5.1656,16.2954 -4.0115,34.3703 -19.1024,41.6408 11.1562,5.7909 24.4428,12.4346 27.4005,25.9217 5.3659,18.7016 -6.6686,38.8828 -24.4429,45.4256 -18.6,6.6685 -38.8075,3.2589 -58.136,4.1117 -16.9961,-0.727 -34.3454,1.9301 -51.0914,-1.7297 6.6188,-2.883 16.1448,-1.3793 20.6821,-7.8468 3.109,-7.0452 1.8306,-15.0419 2.181,-22.5127 -0.6005,-33.367 0.7277,-66.7595 -0.6261,-100.1023 -0.9785,-10.7802 -14.5914,-9.8273 -22.0366,-13.362 z m 43.9716,9.2006 c 0.3255,18.6263 0.075,37.2533 0.3255,55.9046 15.0171,1.429 31.1363,3.3598 45.2508,-3.259 15.744,-9.0747 16.245,-33.6427 2.9577,-45.125 -12.9854,-12.0587 -32.4147,-11.1811 -48.534,-7.5206 z m 0,66.1334 c 0.376,19.9552 0,39.8855 0.3753,59.8407 17.9256,2.7324 39.1088,6.0916 54.3006,-6.3175 14.165,-10.7554 12.8362,-34.295 -1.1782,-44.5736 -15.0405,-11.8575 -35.5237,-10.454 -53.4977,-8.9496 z m -152.4977,-46.1029 c 3.5347,-5.6161 6.8185,-11.4063 10.5536,-16.8718 0.577,10.83 0.4512,21.6849 0.3013,32.5405 7.571,0.3759 15.2423,0.1499 22.6876,1.8547 0.6772,1.7297 2.0054,5.1891 2.6826,6.9195 -8.3975,0.2508 -16.7965,0.4263 -25.1947,0.7767 0.6268,23.1139 -1.8547,46.4041 1.3538,69.4179 0.351,3.885 2.0054,9.3505 6.8938,9.2254 7.4964,0.3255 13.713,-4.6383 20.4072,-7.2705 -2.8333,6.2174 -5.4911,13.0614 -11.3573,17.0978 -8.097,6.2919 -20.958,7.1447 -28.9049,0.2502 -5.5899,-5.8912 -6.1925,-14.4898 -6.5428,-22.1611 -0.5763,-22.2114 0.1755,-44.4229 -0.2509,-66.6343 -6.0666,-0.3014 -12.134,-0.6019 -18.2006,-0.9025 8.6242,-7.9726 19.3035,-14.0641 25.5713,-24.2425 z m -892.5483,25.9721 c 10.6296,-6.5435 22.4119,-10.83 34.7214,-12.8858 -0.0249,32.4395 -2.7828,65.0305 1.3786,97.345 4.9638,1.2528 9.9275,2.6321 14.8664,4.111 -10.2032,4.4371 -21.2087,0.8527 -31.8384,2.1809 -6.7438,0.727 -13.4621,-0.3006 -20.1058,-1.3786 6.0922,-3.1837 16.1945,-4.3619 15.7184,-13.2867 1.9557,-22.1617 1.5044,-44.5487 -0.4512,-66.66 0.351,-8.0976 -9.4258,-5.4398 -14.5651,-6.3423 0.0753,-0.7775 0.2004,-2.3068 0.2757,-3.0835 z m 382.8614,3.4345 c 14.4649,-19.1785 47.0046,-22.3117 63.2745,-3.7855 7.5967,7.8965 8.6996,19.2026 9.2254,29.607 -22.4864,0.1755 -44.9743,0.1755 -67.4367,-0.075 -2.9327,24.4678 19.8551,53.2725 46.0027,44.774 11.5072,-2.0558 12.5853,-16.2699 22.5128,-20.8079 -1.7546,11.5825 -6.7688,22.8638 -15.5934,30.8108 -11.4816,11.0552 -30.1591,13.0109 -44.1479,5.7156 -12.409,-6.3673 -21.2336,-18.8524 -23.6654,-32.5398 -3.534,-18.1509 -1.7041,-38.632 9.8273,-53.6988 z m 4.3867,17.6236 c 15.0668,0.4264 30.1833,0.376 45.2757,0.1756 -0.8527,-11.206 -6.9194,-24.7186 -19.6546,-25.5458 -14.3654,-1.2784 -22.9392,13.1616 -25.6211,25.3702 z m 303.6162,-23.2397 c 10.9053,-11.4063 28.4039,-12.058 42.9441,-9.0996 8.8495,1.4539 17.4737,7.8468 18.5759,17.2726 4.0371,24.6432 0.6267,49.7128 2.6826,74.5067 5.4654,-2.5327 10.9558,-5.0391 16.5712,-7.2456 -4.0613,11.7325 -14.9666,22.0367 -28.1282,20.4569 -6.7183,-1.9307 -6.8185,-10.1527 -9.1757,-15.4931 -10.152,9.2254 -23.6902,19.4791 -38.2305,14.5409 -18.3001,-5.6161 -21.66,-32.6911 -7.8716,-44.6994 13.5375,-12.1589 31.4624,-17.2228 47.7821,-24.4677 -1.1022,-7.0445 -1.0027,-14.5153 -4.337,-20.9579 -6.1669,-9.251 -22.738,-9.8273 -28.0521,0.501 -2.4069,6.1171 -1.4796,12.8859 -1.9557,19.3284 -4.4123,0.727 -8.8502,1.7553 -13.3122,1.4796 -7.4204,-7.1703 -4.3114,-19.6795 2.5071,-26.1221 z m 12.2591,52.5959 c -8.3734,8.7493 -4.1615,25.621 7.6456,29.0555 9.4521,0.8023 17.4233,-5.3148 24.6184,-10.604 0.3013,-12.0082 0.2509,-24.0165 0,-35.9998 -11.331,4.4869 -23.8914,8.1225 -32.264,17.5483 z m 101.08,-60.2167 c 14.3398,-7.0196 29.983,3.0585 44.924,-1.4035 0.1755,11.2557 2.883,23.1637 -2.682,33.6427 -4.0861,-8.5489 -7.1446,-18.7017 -15.6935,-23.9412 -7.3948,-4.4372 -18.3755,-4.9389 -24.5928,1.805 -4.6376,4.1366 -5.6161,12.2087 -1.0532,16.7716 13.7131,14.6902 37.9797,15.5181 48.5595,33.7685 9.1252,14.941 -1.5548,34.5956 -16.7218,40.4121 -15.7931,6.7936 -32.4644,-2.8582 -48.735,1.0276 -0.15,-11.9578 -0.6012,-23.8907 0.1257,-35.8243 7.8724,8.8743 11.206,22.3372 22.9641,27.2008 9.1252,4.5871 22.8126,1.8803 27.0494,-8.1481 2.608,-5.3397 -0.5017,-11.1804 -4.1117,-15.1166 -11.2806,-12.3848 -30.0327,-13.9134 -41.0382,-26.6237 -10.9046,-13.5631 -4.9389,-36.702 11.0055,-43.5709 z m 364.7105,11.908 c 12.6862,-17.9747 40.2117,-18.551 58.0606,-8.5737 6.67,5.2146 8.1979,14.1891 8.5233,22.161 0.9288,21.3097 -0.4512,42.6435 0.8023,63.9525 5.9672,-2.0808 11.9337,-4.1864 17.925,-6.2174 -5.5145,10.1535 -14.2645,20.9082 -26.9748,20.6574 -7.6201,-0.4513 -9.1501,-9.401 -12.0083,-14.8913 -9.575,7.3955 -20.2309,16.7965 -33.2916,14.5402 -19.354,-2.1305 -27.2257,-29.3561 -14.44,-42.9938 13.0358,-14.1139 32.2143,-19.504 49.5871,-26.2728 -0.5515,-6.2677 -0.1755,-12.7607 -2.1561,-18.7521 -3.885,-11.407 -22.011,-14.1643 -28.654,-3.9859 -2.6315,7.0942 -3.0841,14.7662 -4.7641,22.1113 -4.6361,-0.075 -9.2502,-0.1507 -13.8629,-0.1756 -1.0774,-7.1198 -3.3592,-15.1925 1.2535,-21.5598 z m 15.7447,48.3087 c -8.4735,8.6242 -4.2126,25.4455 7.4446,28.9802 9.4265,1.2287 17.2726,-5.5401 24.8941,-10.0277 -0.275,-11.9578 -0.025,-23.9163 -0.1507,-35.8492 -11.5818,3.61 -23.7158,7.7971 -32.1887,16.8967 z m 72.225,-47.7821 c 10.3027,-8.7493 23.4636,-12.6101 36.3501,-15.8193 0.076,6.0425 0.15,12.1091 0.2502,18.1758 10.1535,-7.822 20.4313,-18.1758 34.2701,-17.7246 12.7352,-0.5259 23.1893,11.0063 24.6433,23.0891 3.0088,22.5376 -1.0283,45.4263 1.9805,67.964 0.6019,7.0438 9.4507,7.1695 14.2147,10.1776 -15.1662,4.8636 -30.9366,1.805 -46.429,1.2785 4.688,-3.9611 12.9363,-6.643 12.6101,-13.9135 -0.5258,-20.8328 2.0559,-41.9911 -1.6046,-62.6236 -0.8513,-8.3229 -10.0781,-13.2866 -17.7743,-11.2308 -8.3222,2.1312 -16.6714,6.6181 -21.8852,13.5624 -0.2999,22.7132 -1.4043,45.5514 1.1775,68.1893 5.7426,1.6039 11.5321,3.1587 17.1979,5.1392 -11.9577,4.6127 -24.5679,0.075 -36.827,1.9301 -5.5898,0.9778 -11.0304,-0.6268 -16.2699,-2.306 4.337,-1.6302 8.7493,-3.109 13.2114,-4.5381 4.4883,-26.4731 2.1063,-53.4479 1.4042,-80.1214 -5.5152,-0.3262 -11.056,-0.7526 -16.52,-1.2287 z"
       style="fill:#163d8a;fill-rule:evenodd"
       id="path4" />
  </g>
</svg>
