<?xml version="1.0" encoding="UTF-8" standalone="no"?>
<svg
   version="1.1"
   width="1637.899"
   height="1700.7871"
   id="svg7"
   viewBox="0 0 1637.8991 1700.7871"
   sodipodi:docname="c7219e5fc143514b6a6b29c16d347cb8.cdr"
   xmlns:inkscape="http://www.inkscape.org/namespaces/inkscape"
   xmlns:sodipodi="http://sodipodi.sourceforge.net/DTD/sodipodi-0.dtd"
   xmlns="http://www.w3.org/2000/svg"
   xmlns:svg="http://www.w3.org/2000/svg">
  <defs
     id="defs11" />
  <sodipodi:namedview
     id="namedview9"
     pagecolor="#ffffff"
     bordercolor="#666666"
     borderopacity="1.0"
     inkscape:pageshadow="2"
     inkscape:pageopacity="0.0"
     inkscape:pagecheckerboard="0" />
  <g
     id="Layer1000"
     transform="translate(-314.9087,-283.46495)">
    <path
       d="m 1239.1287,316.2112 c 39.8658,-13.0822 79.2786,-32.3033 121.9881,-32.5871 9.8403,-1.7072 9.7242,10.748 12.2842,16.8901 12.2842,45.8386 29.6869,90.2553 39.8674,136.7194 -3.242,9.3261 -15.2989,6.7676 -22.8049,8.7586 -92.9846,10.6915 -184.3217,38.5019 -266.6712,83.2024 -91.9045,51.7534 -169.9901,132.6811 -207.4103,232.3769 -29.005,65.9142 -38.2182,138.8797 -36.569,210.3669 -2.2747,70.2362 17.1754,138.9377 42.084,203.9426 -42.4822,-77.0054 -68.6418,-162.368 -80.7003,-249.325 -2.2731,-60.0574 -5.4586,-121.3077 10.4641,-179.8852 13.2532,-70.0653 45.3276,-135.2395 86.1606,-193.1915 76.3783,-104.4741 182.3307,-186.7672 301.3057,-237.2681 z m -17.1189,289.8727 c 22.0101,-2.7857 43.2786,5.1765 64.718,8.7586 144.1141,27.9249 279.5245,111.6964 358.8611,236.5862 79.7331,128.301 109.4764,284.2432 94.292,433.6451 -4.5493,51.468 -19.5629,101.2886 -35.0907,150.3111 -2.1022,10.635 -15.0135,6.2566 -22.2922,5.573 -49.706,-11.3734 -98.5028,-26.6158 -147.8671,-39.6384 44.4183,-91.3935 76.6072,-190.804 79.5074,-293.1163 1.5928,-59.9429 -3.3548,-121.1352 -25.0247,-177.5524 C 1550.0442,814.3486 1458.9361,722.2732 1355.26,660.341 c -24.9667,-11.8297 -50.1059,-23.5448 -75.7528,-33.8397 -18.8246,-7.9058 -40.0963,-9.1552 -57.499,-20.4157 z m -63.525,144.909 c 59.1465,-12.2278 125.2299,-4.0367 174.2541,33.327 59.6575,41.4021 91.9593,116.1313 87.5244,187.7894 -5.5731,37.0816 -14.4445,75.4127 -37.5911,105.8379 -40.8346,56.4737 -109.8779,95.3174 -180.7396,89.8007 -103.107,1.4784 -197.3442,-87.0698 -204.1667,-189.6094 -7.564,-65.4031 17.7993,-133.2501 66.1963,-177.7233 27.2994,-23.0902 59.2046,-41.9712 94.5226,-49.4223 z m 11.6007,13.3079 c -55.6773,12.2278 -107.6,47.6023 -133.4775,99.1848 -16.8336,33.3835 -27.7524,71.0326 -24.2283,108.6817 6.2566,46.2932 24.6265,92.1883 59.4319,124.3772 53.3445,53.6863 140.6433,72.2271 210.1959,41.0619 48.4567,-17.5171 86.446,-57.8391 106.4635,-104.7578 42.7111,-90.71 -2.2747,-209.7994 -93.1555,-251.2015 -38.1602,-20.0192 -83.088,-27.0705 -125.23,-17.3463 z m -610.6284,355.3339 c 28.2634,-26.7304 51.6953,-58.0084 79.8475,-84.8516 24.3412,26.8416 45.0971,56.7574 70.8601,82.2931 82.1803,90.1409 189.0984,163.1064 310.4625,186.0257 134.3883,25.5922 273.8919,-17.1173 384.0535,-94.5209 43.7912,-30.8815 78.142,-72.34 114.2547,-111.353 -34.0089,58.0648 -80.1893,107.7144 -128.6444,153.9512 -82.3479,77.1731 -189.835,126.5955 -301.8731,139.107 -53.63,0.5111 -108.1707,4.9476 -160.8898,-7.1094 -45.0422,-8.5877 -89.7427,-19.5629 -132.112,-37.4782 -85.5915,-29.3452 -163.2773,-79.7331 -228.2258,-142.4634 -14.5009,-13.4788 -29.1759,-27.1269 -40.4364,-43.5623 6.8256,-16.0952 21.4974,-27.1285 32.7032,-40.0382 z m 100.605,453.3788 c 20.2448,-18.9954 36.6819,-41.6294 57.1556,-60.3395 -6.0293,33.2691 -30.8235,58.0084 -53.0608,81.6097 -39.013,39.2983 -78.5402,78.5401 -122.275,112.6055 4.0399,-18.5392 14.5041,-34.6909 28.2102,-47.5442 29.9707,-28.8341 60.7957,-56.701 89.97,-86.3315 z m -234.9353,30.7107 c 9.268,1.3654 21.8375,1.7636 24.2251,13.195 6.0293,15.7535 -3.7514,31.1653 -14.3865,42.1985 -7.9638,-5.802 -15.8679,-11.6587 -23.8881,-17.4027 4.3236,-12.7953 8.9858,-25.4777 14.0495,-37.9908 z m 517.1327,63.2412 c 6.8805,-13.137 13.8174,-26.3305 20.5302,-39.582 9.0407,8.9859 18.3683,17.7445 27.4122,26.7303 5.744,-8.9875 8.1315,-21.7827 18.7085,-26.503 20.9864,9.9532 16.0969,33.498 12.7405,52.1516 -13.6481,4.0948 -25.9323,-1.9345 -35.9419,-11.0332 -7.2803,6.2566 -14.617,12.4551 -22.0681,18.5408 -7.0497,-6.8821 -14.2736,-13.5368 -21.383,-20.3045 z m -553.2471,22.6356 c 7.1658,-13.137 12.9097,-28.265 26.2757,-36.3981 5.515,8.4748 11.6571,16.5499 18.2555,24.2848 -4.7783,12.1697 -11.2058,23.6012 -17.63,34.9762 -10.2369,-6.0857 -19.2228,-13.877 -26.9012,-22.8629 z m 62.9575,-38.3891 c 7.8478,7.3367 21.6683,13.0807 20.5286,25.8211 0.9689,13.1355 -8.5861,23.2031 -15.0119,33.5528 -8.7022,-7.8477 -25.6502,-12.9662 -21.4427,-27.6396 2.8438,-11.6587 10.4658,-21.3265 15.926,-31.7343 z m 955.8383,122.8425 c -2.1038,-28.3215 4.2076,-56.1883 18.8809,-80.5859 1.1382,21.1556 0.8545,42.3113 0.3982,63.4685 0.74,21.0429 -13.1934,38.2166 -19.961,57.1556 4.1511,14.1043 13.4207,26.0468 18.5956,39.8674 -3.2403,40.5493 -19.8483,82.2351 -52.4918,108.0546 -16.9464,14.5605 -41.5149,18.4844 -62.7286,12.6824 -19.6774,-9.7822 -35.2036,-29.9142 -32.816,-52.8335 -4.7751,-45.8386 25.0231,-83.7714 38.6744,-125.288 2.4455,-0.9092 7.2786,-2.7857 9.6662,-3.753 -7.8462,36.1708 -35.9419,67.4505 -31.1088,106.2362 -0.055,17.0609 15.2424,33.0417 32.7031,31.5634 26.9577,3.753 55.0518,-5.2893 73.8183,-25.194 5.0621,-5.9713 9.4405,-14.6154 7.053,-22.5211 -8.9294,-10.124 -21.4426,-17.2318 -28.1522,-29.1743 0.6819,-29.1759 29.4596,-49.5932 27.4687,-79.6783 z m 42.7675,47.0332 c 6.9385,-41.1748 4.7767,-86.5024 28.8341,-122.6152 -1.6492,38.56 -10.2368,76.6637 -10.9188,115.2785 2.7293,7.9057 2.2731,19.7354 12.3407,22.1793 6.6532,-6.0276 12.4535,-12.9081 18.5956,-19.45 18.4844,20.9864 0.6836,64.9485 -28.4343,63.6975 -22.8048,-10.0096 -23.3755,-37.9345 -20.4173,-59.0901 z m -560.8095,-88.208 c 2.56,-9.8387 5.6311,-20.0175 12.9661,-27.5251 1.5348,36.1708 -11.886,71.6017 -7.9057,107.7709 0.7399,12.9678 11.3186,22.5791 22.8628,26.8431 13.1935,1.4219 21.7812,-10.2933 31.3926,-17.3462 8.815,-9.0987 22.1229,-9.7807 33.6688,-12.9662 -1.762,-17.1173 -0.058,-34.4636 8.815,-49.5351 4.6058,5.9148 9.1003,11.944 13.7061,17.9153 2.8438,-0.2273 8.5877,-0.74 11.4879,-0.9673 4.3236,-9.4969 8.815,-18.939 13.1934,-28.4359 1.7637,8.1895 3.4709,16.437 4.9476,24.6829 16.6643,1.0802 26.6739,-12.1149 37.2509,-22.6355 -7.4495,22.1809 -18.2539,45.384 -38.9001,58.0664 -12.3971,6.1985 -26.7287,5.4602 -40.1511,7.5076 -12.3407,8.6441 -23.2594,19.5629 -37.9328,24.454 -21.0977,7.0513 -23.8286,41.2876 -48.626,38.9565 -14.1607,1.6492 -25.2488,-13.1934 -26.3869,-26.0468 -2.8438,-40.4348 0.3982,-81.2694 9.6114,-120.7386 z m 234.6516,-15.9228 c 1.6492,-0.9108 4.9475,-2.7309 6.5967,-3.6981 -7.4511,44.4731 -5.573,92.0189 -27.2978,132.7955 -3.7529,9.8387 -9.4421,18.6537 -18.5408,24.3412 6.7692,-28.1522 15.186,-56.0755 17.2334,-85.0805 1.4219,-24.3395 13.5917,-46.0078 22.0085,-68.3581 z m -598.1749,21.2685 c -1.6492,-10.3497 5.5166,-18.9954 9.8402,-27.6395 10.8624,6.0857 19.9611,15.186 24.8506,26.7867 4.6655,25.8759 -8.7569,50.6733 -23.9429,70.578 -13.8754,18.4264 -18.3103,44.0186 -38.0457,57.8375 -17.9718,9.3277 -38.2746,12.3987 -58.1229,15.0716 19.8483,-12.8533 40.1511,-24.9667 59.5448,-38.5583 4.9475,-5.744 9.4969,-11.8861 14.0478,-17.9718 -7.3383,-1.251 -14.6733,-2.6729 -22.01,-4.2092 -16.5499,-2.8421 -6.4823,-22.0085 -3.1839,-31.9616 6.084,-9.4405 12.9645,-26.8996 27.0688,-21.6103 7.8494,4.2076 14.2768,10.6351 21.2701,16.2646 2.1619,-3.753 6.4839,-11.317 8.6441,-15.07 3.242,-14.2188 -13.3627,-19.5081 -19.961,-29.5177 z m 1362.869,43.1658 c 11.6587,-24.2267 28.8905,-45.0423 47.0316,-64.6052 5.8019,7.9042 11.6023,15.9228 16.6643,24.3977 v 22.2938 c -15.2973,8.8714 -32.9289,11.886 -48.9661,18.8245 -22.6339,24.0559 -26.445,61.4212 -53.459,82.0659 -16.8352,11.0316 -37.4782,13.648 -56.9283,16.89 23.203,-17.4591 50.5008,-29.8578 69.78,-52.0936 -9.4389,-3.4128 -18.9374,-6.7676 -28.3779,-10.124 -1.8765,-22.0665 9.3276,-41.5166 25.7066,-55.45 9.4969,5.8584 19.0503,11.8296 28.5488,17.8009 z m -1197.4864,16.6627 c 18.8246,-29.0614 42.9949,-56.9267 76.4912,-68.9836 -0.511,15.6955 -1.251,40.9475 -21.0412,43.6768 -26.3886,3.2419 -42.9949,25.8759 -56.5865,46.4076 12.3971,6.0841 27.8104,13.0807 30.1399,28.436 -0.2273,36.6818 -13.5352,73.3056 -36.9656,101.5723 -15.9227,16.6063 -37.9908,29.9142 -61.8194,27.9233 -21.6667,1.3074 -39.8657,-15.8099 -46.9187,-35.0891 -2.7857,-21.0428 -1.762,-42.824 5.3458,-63.014 10.3497,-31.3361 22.9193,-62.6158 42.3129,-89.5734 -4.9492,44.3039 -43.7912,81.8385 -30.8251,128.7008 25.7066,18.0282 63.4122,19.0519 88.6062,-0.511 13.5932,-8.0202 18.6536,-23.8866 26.0468,-36.8527 -10.066,-6.6548 -21.0412,-12.0586 -29.8014,-20.4738 -6.3695,-21.9536 3.3564,-43.9621 15.0151,-62.2192 z m 338.3277,-49.4207 c 6.0293,-13.6481 18.3136,-19.7902 32.9305,-19.392 1.0785,4.264 3.2984,12.7953 4.3769,17.0609 -12.4535,0.1128 -24.9087,1.0237 -37.3074,2.3311 z m -627.4056,33.4415 c 14.9571,-11.2605 29.6869,-22.8064 43.6204,-35.3744 -3.4693,12.9097 -5.4038,26.7851 -12.8517,38.2166 -13.7062,16.7771 -38.2198,23.261 -46.6914,44.5311 -7.3367,14.3881 -11.6588,31.7908 -25.5922,41.573 -13.5369,9.0423 -30.5978,8.2459 -46.124,10.2369 v -7.1094 c 17.6881,-11.8861 37.4783,-21.2701 52.15,-36.9656 15.128,-16.2661 17.0061,-41.573 35.4889,-55.1082 z m 1343.3046,-4.4365 c 15.4697,-9.7258 30.1995,-20.9864 47.8859,-26.5594 -3.1839,12.2278 -8.9858,25.4777 -23.203,27.2413 -18.0282,2.2183 -23.203,23.9994 -40.2091,27.5831 -31.2781,7.4496 -52.8336,35.6582 -84.6807,42.1985 -18.7681,2.502 -28.7197,20.19 -43.5639,29.7434 -11.7716,6.7112 -25.194,0.6835 -37.3638,-1.3075 -14.8443,-4.4929 -28.494,6.4823 -42.8256,8.9295 11.3186,-22.1229 29.4596,-41.1764 52.4934,-51.0715 15.0135,-3.1275 30.3688,2.2747 45.3824,-0.3982 28.2086,-9.6678 56.3592,-19.3936 83.8859,-30.8251 3.7546,-12.7952 8.4168,-25.2504 13.877,-37.4202 7.7913,6.7096 16.7772,17.8009 28.3215,11.8861 z M 831.358,1764.1029 c 2.9582,1.762 5.9712,3.4692 8.9875,5.2312 -9.6114,24.7394 -10.7496,52.0952 -21.4975,76.4928 -10.8075,22.5211 -36.1724,32.0745 -59.4318,35.3164 0.7383,-3.1275 2.1602,-9.4969 2.8437,-12.6808 15.5262,-10.5786 31.9616,-20.93 43.1658,-36.2853 14.7298,-19.8482 19.6773,-44.7004 25.9323,-68.0743 z m 378.8222,6.1985 c 7.3931,-11.0332 25.7614,-6.9385 28.3214,6.0293 4.2657,24.7942 -3.7529,50.1026 -14.2735,72.3964 -9.8951,19.5645 -33.4416,25.6486 -53.5751,27.2978 13.1386,-18.1975 33.9525,-28.4924 47.944,-45.895 -8.1315,-6.0841 -23.1466,-6.995 -25.194,-18.7101 -0.3402,-15.2425 7.6204,-29.4597 16.7772,-41.1184 z m -313.1338,190.9749 c 3.8659,-14.7298 12.5116,-27.4687 20.4738,-40.2656 6.824,9.3276 15.2972,18.0282 19.0518,29.1759 -2.3907,11.7152 -6.7676,22.8048 -10.6931,34.0654 h -12.9661 c -5.8584,-7.2787 -11.8297,-14.5589 -15.8664,-22.9757 z"
       style="fill:#940509;fill-rule:evenodd"
       id="path2" />
    <path
       d="m 1170.0855,764.3008 c 42.142,-9.7242 87.0698,-2.6729 125.23,17.3463 90.8808,41.4021 135.8666,160.4915 93.1555,251.2015 -20.0175,46.9187 -58.0068,87.2407 -106.4635,104.7578 -69.5526,31.1652 -156.8514,12.6244 -210.1959,-41.0619 -34.8054,-32.1889 -53.1753,-78.084 -59.4319,-124.3772 -3.5241,-37.6491 7.3947,-75.2982 24.2283,-108.6817 25.8775,-51.5825 77.8002,-86.957 133.4775,-99.1848 z M 492.4048,1820.1203 c 7.3367,1.5363 14.6717,2.9582 22.01,4.2092 -4.5509,6.0857 -9.1003,12.2278 -14.0478,17.9718 -2.4456,-7.5076 -5.1765,-14.8443 -7.9622,-22.181 z"
       style="fill:#fecb05;fill-rule:evenodd"
       id="path4" />
  </g>
</svg>
