<?xml version="1.0" encoding="UTF-8" standalone="no"?>
<svg
   version="1.1"
   width="1700.787"
   height="1298.7009"
   id="svg4"
   viewBox="0 0 1700.787 1298.701"
   sodipodi:docname="a36658026c402f4ff3191d78d3eeabda.cdr"
   xmlns:inkscape="http://www.inkscape.org/namespaces/inkscape"
   xmlns:sodipodi="http://sodipodi.sourceforge.net/DTD/sodipodi-0.dtd"
   xmlns="http://www.w3.org/2000/svg"
   xmlns:svg="http://www.w3.org/2000/svg">
  <defs
     id="defs8" />
  <sodipodi:namedview
     id="namedview6"
     pagecolor="#ffffff"
     bordercolor="#666666"
     borderopacity="1.0"
     inkscape:pageshadow="2"
     inkscape:pageopacity="0.0"
     inkscape:pagecheckerboard="0" />
  <path
     d="m 818.68893,12.388374 c 9.4661,-7.1760998 20.945,-12.98479983 33.1466,-12.33929983 11.8331,-0.0771 23.035,5.94680003 30.9952,14.44499983 13.8308,14.3678 28.7518,27.6144 42.6283,41.9518 11.0643,9.4046 20.5456,20.4536 31.3485,30.1349 1.7524,1.6134 3.2887,3.4573 4.8099,5.3169 -28.8899,1.1827 -57.8722,-0.1228 -86.7774,0.6456 -8.7899,0.9365 -17.6413,0.4918 -26.447,0.5532 -45.532,45.531596 -91.0493,91.049696 -136.5822,136.582096 -12.155,11.9093 -23.7724,24.3719 -36.4349,35.7437 -24.9408,24.8784 -49.7739,49.8505 -74.7604,74.6837 -0.031,-38.0035 0.0457,-75.9901 -0.031,-113.9928 16.6274,-15.6903 32.3321,-32.332 48.7285,-48.2676 14.5992,-12.9857 27.3841,-27.8758 42.1365,-40.692 17.1806,-17.6571 35.4209,-34.2069 52.5705,-51.894496 16.5202,-14.7677 31.5027,-31.1641 47.4997,-46.4851 9.5583,-8.2834 17.8413,-17.8718 27.1688,-26.3852 z M 480.75253,126.15067 c 13.0776,0.0767 26.1548,-0.1537 39.2163,0.0924 11.7251,1.1826 23.5272,0.507 35.2832,0.676 28.69,0.1072 57.38,-0.2304 86.0704,0.1843 -8.7129,11.1566 -19.9466,19.9927 -29.8274,30.0582 -16.0889,16.5341 -33.3313,31.8559 -49.313,48.498 -0.2914,28.5828 0.7993,57.1965 -0.7832,85.748 0.0614,47.0997 0.0152,94.1999 0.0305,141.3001 -0.2305,14.3522 0.5994,28.7209 -0.707,43.043 -0.1381,25.7236 -0.0457,51.4488 -0.0305,77.1732 -27.215,-27.0926 -54.3072,-54.3072 -81.4917,-81.4298 0.3232,-21.6838 -0.7223,-43.3968 0.784,-65.0182 0,-45.5634 0,-91.1264 0,-136.6893 0.2614,-16.8578 -0.6608,-33.7617 0.7223,-50.5885 0.1076,-31.0109 0.0152,-62.0365 0.0461,-93.0474 z m 371.6824,21.2216 c 6.4386,-6.2082 12.6316,-12.6468 19.0088,-18.9316 116.9283,0.03 233.83997,0.0152 350.76787,0.0152 0.016,52.8467 -0.016,105.7098 0.015,158.5569 -16.3346,-14.4915 -31.0418,-30.7033 -46.7617,-45.84 -11.5404,-10.0345 -21.8676,-21.3753 -32.8086,-32.0402 -88.7297,0.0153 -177.44327,0 -266.17247,0 -28.7971,-0.2151 -57.5956,0.4304 -86.3626,-0.3227 7.9445,-9.1433 16.9344,-17.2877 25.3863,-25.9549 12.9849,-11.1108 24.0648,-24.2337 36.9268,-35.4823 z m 156.91247,98.0415 c 38.2946,-0.3994 76.6048,-0.0457 114.9146,-0.1838 12.7395,13.261 26.508,25.4169 39.309,38.6016 9.8498,9.6503 19.2087,19.8085 29.6579,28.8442 21.53,21.4982 43.0587,43.0125 64.5569,64.5569 18.0878,16.6883 34.9909,34.622 52.6018,51.802 10.1734,8.7129 19.1163,18.7479 28.8437,27.9525 11.4799,12.1398 18.2561,30.4115 12.3859,46.7622 -4.0872,12.1241 -14.3683,20.3613 -23.5425,28.6286 -22.7736,22.6812 -45.4401,45.5019 -68.2294,68.1684 4e-4,-27.2459 0.077,-54.4915 -0.046,-81.7374 -1.0141,-10.0964 -0.6608,-20.2232 -0.7531,-30.3496 -10.6335,-8.9285 -19.4239,-19.8085 -30.1192,-28.6904 -14.7063,-14.999 -30.2577,-29.1204 -44.9335,-44.1494 -11.0787,-9.3437 -20.4689,-20.4689 -31.3642,-29.9968 -7.4213,-6.9461 -14.2907,-14.4602 -21.6977,-21.4215 -11.0795,-9.3899 -20.4079,-20.5918 -31.4255,-30.0426 -14.3835,-14.8444 -29.843,-28.5209 -44.2422,-43.3348 -11.5243,-9.9735 -21.375,-21.6982 -32.9776,-31.5484 -4.4863,-4.4571 -9.3737,-8.6057 -12.9391,-13.8612 z m -185.87947,36.144 c 58.2873,-7.1617 119.4169,9.7117 164.9955,46.9769 42.72067,34.1446 71.85627,85.3329 77.28077,139.9472 6.7923,58.5482 -14.1221,119.064 -54.2301,162.0299 -38.75537,42.0904 -94.69167,67.7533 -151.88777,69.6282 -10.2497,-0.2309 -20.5303,0.4918 -30.7186,-0.6761 -36.1122,-3.4425 -71.4259,-15.7666 -101.576,-35.9897 -43.043,-28.9671 -75.9282,-73.5774 -88.0223,-124.3039 -5.9777,-22.6364 -6.7461,-46.3161 -4.9636,-69.5511 5.5478,-58.042 37.6032,-112.5326 84.6877,-146.6785 30.3348,-22.7279 66.8774,-36.7425 104.4344,-41.3829 z m -464.6836,180.5469 c 27.3227,-27.1541 54.3839,-54.5682 81.7984,-81.6142 0.5384,28.1825 -0.0152,56.3816 0.2767,84.5645 0.8916,9.0352 0.7531,18.1179 0.7074,27.1845 11.6941,12.0165 24.3104,23.0812 35.9122,35.2057 9.3284,8.0373 17.7028,17.0573 26.539,25.6321 10.9723,9.527 20.4231,20.6845 31.5179,30.0891 13.3847,13.7684 27.7068,26.5694 41.0915,40.3227 9.666,8.2211 18.1484,17.7185 27.3688,26.4161 8.5133,7.3603 15.966,15.8127 24.1723,23.4959 9.9579,8.3134 18.2713,18.364 28.0449,26.877 7.3146,6.6538 13.9222,14.0302 21.1445,20.7916 4.7641,4.1648 9.6354,8.2677 13.6003,13.2309 -0.1385,0.4457 -0.4151,1.3369 -0.5532,1.783 -37.7261,0.3685 -75.4526,-0.016 -113.1787,0.1842 -4.8094,-4.7946 -9.5579,-9.6812 -14.7059,-14.1222 -12.3701,-11.6945 -23.7424,-24.4489 -36.5887,-35.6208 -16.9501,-16.8734 -33.8078,-33.8383 -50.7422,-50.7265 -24.2795,-22.298 -46.3009,-46.9617 -70.7037,-69.1364 -11.8322,-11.7712 -23.3887,-23.8343 -35.7589,-35.0523 -9.3737,-8.4829 -17.3648,-18.9783 -20.6997,-31.3485 -3.4112,-13.4613 0.8455,-28.4443 10.7571,-38.1564 z m 775.03597,-38.9253 c 20.8069,21.053 42.7355,40.9386 63.5577,61.976 6.2857,5.993 13.3237,11.3561 18.5945,18.3022 1.691,4.9018 0.5837,10.2496 0.8755,15.3361 0.2466,15.9047 -0.6608,31.8403 0.6917,47.6992 0.2004,15.3209 -0.046,30.6571 0.077,45.9933 1.5212,19.4391 0.3842,38.9558 0.7989,58.4411 1.475,18.9011 0.3533,37.8951 0.7532,56.8424 1.5215,18.9168 0.3533,37.9107 0.7836,56.8581 1.7215,21.2372 -0.1228,42.5669 1.137,63.8194 -9.8494,-0.047 -19.7005,-0.092 -29.5355,-0.031 -20.5142,1.5677 -41.122,0.2918 -61.668,0.8607 -22.5271,1.9206 -45.2402,-0.7379 -67.7529,1.5673 -0.3071,-0.538 -0.9527,-1.6135 -1.2754,-2.1514 17.2576,-17.4262 35.0523,-34.3454 51.6944,-52.3553 8.6524,-8.6214 17.2882,-17.2725 25.9244,-25.9091 4e-4,-7.5298 0.1842,-15.0748 -0.6299,-22.5741 -0.6756,-19.9928 0.6756,-40.0309 -0.9222,-59.9927 -0.061,-14.8296 0.061,-29.674 -0.016,-44.5184 -1.5054,-19.4395 -0.3685,-38.9706 -0.8141,-58.4563 -1.8748,-22.0061 0.4456,-44.1647 -1.414,-66.1699 -0.2143,-15.8441 0.077,-31.7026 -0.092,-47.5611 -1.3826,-15.9517 -0.4761,-31.9944 -0.7684,-47.9762 z m -93.1549,276.7606 c 19.4395,-20.8683 40.0922,-40.5688 60.1464,-60.8534 0.2152,14.1684 -0.5994,28.3829 0.707,42.5207 0.1695,23.6958 0,47.4073 0.077,71.1031 -19.3006,19.2701 -38.5712,38.5559 -57.8565,57.8417 -15.2286,15.5048 -31.3336,30.0887 -46.42417,45.732 -11.7398,12.3549 -24.7255,23.3734 -36.512,35.667 -18.2399,18.1327 -36.174,36.6043 -54.9214,54.1996 -10.6953,9.7422 -19.3167,22.2208 -32.6396,28.6594 -11.8788,6.0392 -26.708,7.2532 -38.7558,0.9679 -6.6839,-2.6432 -11.2023,-8.4057 -16.6121,-12.8467 -15.3205,-14.8601 -30.5186,-29.8273 -46.1314,-44.3799 -9.7274,-10.2348 -20.6383,-19.2243 -30.1653,-29.6583 37.3266,-2.4128 74.8218,-0.4151 112.1789,-2.0747 62.2983,-62.2979 124.5805,-124.611 186.90927,-186.8784 z m -565.29117,-14.0455 c 9.1585,8.9281 17.8714,18.3331 27.4916,26.7847 17.6257,17.549 35.1748,35.1908 52.7852,52.7551 86.4245,-0.046 172.8486,-0.015 259.2574,-0.015 9.7125,0.077 19.4543,-0.3842 29.1355,0.6608 21.253,0.4761 42.5208,-0.4151 63.758,0.4456 -11.1404,12.0169 -23.4348,22.8355 -34.9752,34.453 -7.9593,8.4977 -17.1344,15.7204 -25.0793,24.2337 -6.8533,7.3299 -14.6444,13.6613 -21.6058,20.8836 -47.7758,0 -95.5368,-0.015 -143.3126,0.016 -5.1327,0 -10.2039,-0.8298 -15.3214,-0.7993 -64.0494,0.046 -128.084,0 -192.1182,0.031 -0.0305,-53.1551 -0.0152,-106.294 -0.0152,-159.4486 z M 1643.1608,1021.0801 c 19.5777,-13.4305 39.3239,-26.69233 57.6261,-41.84433 -1.1984,8.4516 -7.2227,15.0135 -12.3859,21.40633 -5.8549,5.4398 -12.6629,9.7427 -18.9939,14.5987 -28.1063,20.2842 -56.7196,39.8928 -86.2241,58.1026 -8.4363,4.8866 -16.3664,10.6649 -25.3097,14.6293 4.6256,-9.0971 11.3561,-17.3491 20.0075,-22.866 21.6681,-14.8139 43.5963,-29.2436 65.2796,-44.0266 z m -337.8597,3.4268 c 12.862,-11.1718 24.6328,-23.4958 37.2495,-34.91383 -1.0912,8.1749 -6.2239,14.92153 -10.2497,21.85193 -5.5317,7.6836 -12.9852,13.7075 -19.6085,20.3922 -21.145,20.1152 -44.2723,37.987 -67.5073,55.5979 -5.1479,3.9797 -9.835,8.6362 -15.7356,11.5561 2.5361,-8.2372 6.6534,-16.2279 13.2462,-21.929 20.4384,-18.0409 42.1975,-34.4835 62.6054,-52.5553 z m -360.40297,43.6886 c 4.8718,-4.1491 11.6942,-3.9648 17.7029,-3.4883 8.4676,0.8451 16.8725,2.6737 24.9098,5.5169 2.5356,0.6299 2.8431,3.6416 1.7672,5.655 -3.3955,6.5924 -9.7117,11.2485 -16.5197,13.8917 -11.2638,4.3334 -22.4047,9.2047 -32.4701,15.9356 4.1648,4.7175 9.3118,8.8362 12.1088,14.5987 1.8905,6.1773 -1.9362,12.7701 -6.7919,16.4426 -5.9625,3.9187 -12.9543,-2.1205 -19.2858,0.2766 -5.8697,2.2743 -10.88,6.6695 -14.245,11.9712 -4.5947,9.2047 -7.6069,19.1011 -11.4794,28.6286 -0.5371,2.2128 -2.7199,3.0579 -4.4413,4.1643 4e-4,-6.9918 2.6436,-13.707 2.5203,-20.6684 -0.2456,-6.1472 -6.2386,-11.6174 -12.4473,-10.0349 -5.7163,2.0129 -8.4672,7.914 -12.1397,12.2783 -2.7813,3.7496 -6.7004,6.5462 -9.2975,10.4343 -4.64,12.0322 -8.7281,25.1098 -18.0713,34.4683 -8.2054,5.5164 -18.4098,7.5759 -28.1524,8.3134 6.3933,-6.0392 14.5216,-9.7427 21.2834,-15.321 6.8237,-5.2093 12.493,-11.8631 16.2889,-19.5928 -6.7305,1.214 -15.121,2.7355 -20.3613,-2.8889 -4.1178,-3.9958 -2.5661,-10.1116 -0.6299,-14.7678 3.1355,-7.5145 6.5153,-15.3518 12.6472,-20.9454 3.6726,-3.6421 9.8193,-2.1819 13.0615,1.3216 3.5201,3.3498 4.6718,8.2215 6.0549,12.6934 7.2993,-4.18 11.9402,-11.2947 16.873,-17.8566 3.1968,-4.3952 8.4367,-7.9601 14.1221,-6.8228 4.9184,0.6299 7.5303,5.2708 10.0502,8.9895 4.7637,-8.1596 11.6484,-14.7677 16.9806,-22.4974 4.6718,-10.8182 12.524,-20.1923 22.3285,-26.7233 7.3603,-5.0098 15.7818,-8.0521 23.6496,-12.0936 -7.2994,-1.7829 -14.7216,-3.5344 -22.2514,-3.5806 -6.223,0.7375 -9.4046,7.0842 -14.4297,10.1269 0.8913,-7.2532 5.0865,-13.8456 10.6644,-18.4251 z m -459.1666,46.4085 c 3.0426,-8.8824 5.9468,-17.8719 10.2344,-26.2471 0.169,4.856 -0.4461,9.6659 -1.0298,14.4911 -1.2445,10.1268 -0.4608,20.3613 -0.9217,30.5495 -0.3537,7.1304 0.8451,14.7987 5.3474,20.5922 4.948,6.0082 13.8765,6.331 20.8836,4.4719 6.5466,-1.5678 9.6812,-8.2063 15.1829,-11.4333 4.0571,-0.8455 8.4829,0.7375 12.3553,-1.1373 4.5486,-2.259 7.2837,-6.7305 10.1879,-10.6953 2.3056,-0.2919 5.3169,0.8146 7.0998,-1.2293 3.673,-3.4268 3.7649,-9.666 8.5134,-12.0169 -1.4292,11.2947 -4.9484,25.3093 -16.7197,29.8735 -4.8094,2.1205 -7.8983,6.7152 -12.4625,9.2352 -4.3791,2.7355 -10.0502,1.3678 -14.4911,3.8881 -8.0673,6.3158 -11.3561,17.4567 -20.8222,22.19 -6.8075,3.3959 -15.0291,1.5825 -20.8069,-2.9813 -4.2567,10.4187 -9.3122,21.2525 -18.5788,28.1525 -4.7023,3.5344 -11.218,5.8854 -16.9653,3.6725 -4.9785,-2.5352 -7.1918,-8.1597 -8.0368,-13.3847 1.8748,-1.5825 4.2871,-2.8122 5.3169,-5.1632 3.9496,-8.4519 3.8882,-18.0256 4.0415,-27.1536 -0.1843,-18.7478 0.3842,-38.0484 7.1608,-55.7669 1.7063,-4.6409 3.2274,-9.4813 6.4853,-13.3076 -4.1491,20.7146 -2.9042,41.9057 -3.8725,62.8816 -0.4457,13.1081 -4.549,25.9396 -11.3256,37.1267 6.5928,-0.4914 13.7536,-0.9527 19.1472,-5.2555 6.7618,-5.3479 8.8667,-14.3374 9.8045,-22.4818 1.7672,-19.5777 -2.1209,-39.8619 4.272,-58.871 z m 1062.18437,-7.2689 c 2.8118,-7.0532 5.6545,-14.1836 9.9574,-20.4994 -1.2132,12.6473 -4.9019,24.9255 -6.8233,37.48 -2.8575,14.6601 -4.1177,29.5816 -4.4871,44.5031 -0.046,5.3479 0.7688,11.2795 4.718,15.2748 2.9512,3.1193 8.1444,4.011 11.756,1.4445 4.9941,-3.5193 4.4871,-11.0181 9.6498,-14.3988 0.2008,10.6644 -2.7808,21.1911 -6.8995,30.949 -3.0727,6.6385 -8.1444,14.2759 -16.2892,14.3992 -6.9457,0.1686 -11.6018,-6.3315 -13.1539,-12.4168 -3.5959,-13.4771 -0.707,-27.5069 0.3381,-41.122 -7.4371,9.5889 -14.1989,19.9461 -23.9729,27.3993 -20.1147,17.211 -46.5004,24.6946 -72.2095,28.4904 -17.8409,2.6123 -36.0203,2.966 -53.9688,1.3831 -9.1585,-1.0912 -19.1782,-3.2888 -25.4325,-10.6339 -3.5336,-3.9344 -4.3181,-9.4661 -4.011,-14.5526 0.446,-8.0677 1.491,-16.1046 3.0274,-24.019 0.1237,-1.9053 1.4597,-3.2112 2.7508,-4.4409 1.8753,5.732 1.921,13.308 7.9911,16.5044 11.0338,5.6241 23.7111,6.7457 35.8665,7.8217 17.9032,1.5058 35.8512,-0.2766 53.5693,-2.7661 15.875,-2.3666 31.9478,-5.5321 46.3009,-13.031 11.1723,-5.5173 22.4208,-12.6934 28.0296,-24.2804 6.6851,-13.707 7.8525,-29.3202 13.2923,-43.4882 z m 49.9886,4.7637 c 2.2129,-7.8678 4.7942,-15.828 9.297,-22.7274 -2.1976,25.9548 -7.3302,51.6944 -7.7144,77.8183 0.031,6.2696 0.5532,13.7075 5.9472,17.8875 4.0267,3.3807 10.8643,2.2586 13.3081,-2.4895 2.5513,-3.6115 2.6275,-9.1127 7.007,-11.1718 0.092,10.3725 -2.7965,20.5765 -6.6847,30.1192 -3.0266,6.5771 -7.7145,14.1683 -15.659,14.9062 -6.2082,0.7218 -11.2485,-4.3795 -13.1695,-9.8197 -4.1643,-11.0795 -2.4742,-23.1583 -1.1835,-34.6063 2.4899,-20.0237 4.7794,-40.1236 8.8514,-59.9165 z M 409.80323,1098.5299 c 1.214,-1.9824 2.858,-4.779 5.5626,-4.3948 6.362,0.9988 13.0158,3.2731 17.5491,8.0521 2.9198,2.9046 2.1823,7.5145 0.6451,10.9261 -3.3341,6.9919 -8.9738,12.9082 -15.9508,16.3351 -13.1543,7.0841 -26.6466,15.229 -34.1764,28.6594 5.1174,4.0415 11.7408,5.1327 17.2576,8.4215 5.0251,3.6569 4.2872,10.6644 4.072,16.1351 -2.0895,21.7134 -10.1573,43.3505 -25.1712,59.4856 -10.5419,11.0338 -25.3249,19.0706 -40.953,18.1641 -11.2332,-0.092 -23.0045,-5.5783 -27.9986,-16.0584 -6.5619,-13.4004 -4.18,-28.967 -0.8146,-42.9049 3.9496,-15.6899 10.3573,-30.6571 17.9489,-44.9026 2.8889,-5.2708 5.2708,-10.9567 9.5737,-15.29 -1.4754,7.8983 -6.0549,14.6906 -9.0671,22.0209 -6.131,13.8608 -11.9398,28.5366 -11.8631,43.919 -0.0305,10.5415 7.4993,20.2689 17.7028,22.866 22.0366,5.8858 46.9003,-4.1491 59.9927,-22.5127 2.3518,-3.7187 4.7641,-7.9449 4.1186,-12.4935 -5.9778,-5.824 -15.7514,-4.4257 -21.8214,-10.1882 -3.9183,-3.5959 -3.7649,-9.4047 -3.1808,-14.2298 1.9672,-11.6946 8.8205,-21.821 16.4579,-30.5805 4.7951,-5.6397 11.0951,-9.804 15.4899,-15.8127 -1.8434,-1.4754 -3.6878,-2.9199 -5.5012,-4.3948 3.2736,-7.1151 6.4848,-14.2916 10.1269,-21.222 z m -146.1562,18.3327 c 2.8736,-5.8088 4.1338,-12.6621 8.8514,-17.3796 -3.7492,20.4379 -4.5181,41.2448 -6.5462,61.8979 -1.3369,14.9982 -5.6859,29.7816 -13.231,42.8436 -1.2754,2.228 -3.2426,3.8877 -5.1479,5.5626 6.1006,-21.8824 7.745,-44.6256 9.0818,-67.2154 0.4304,-8.9895 3.1041,-17.6409 6.9919,-25.7087 z m 326.3346,2.2747 c 3.2731,-6.5467 4.7633,-14.1379 9.7117,-19.7005 -3.6725,21.3754 -4.4566,43.0887 -6.7461,64.6335 -1.4136,13.7228 -5.6707,27.0922 -12.3092,39.1858 -1.3826,2.5971 -3.5036,4.6718 -5.7469,6.531 5.7778,-20.8531 7.6831,-42.5203 8.8357,-64.0494 0.4304,-9.1742 2.1667,-18.3332 6.2544,-26.6004 z m -443.969,1.4597 c 3.5192,-6.9614 5.1174,-15.0444 10.2958,-21.0526 -3.4883,20.8683 -4.4257,42.0132 -6.5309,63.0506 -1.3521,14.4144 -5.6702,28.5366 -12.7853,41.1686 -1.2293,2.4276 -3.2736,4.2567 -5.5322,5.7316 5.148,-17.211 6.9304,-35.1442 8.2825,-52.9856 0.7379,-12.1245 0.7994,-24.7717 6.2701,-35.9126 z m 1069.68317,9.0513 c 3.1198,-10.7571 7.2223,-21.4986 13.5995,-30.7647 -2.9804,23.2502 -1.6596,46.7926 -4.4714,70.0733 -1.1217,13.907 -5.5783,27.8606 -14.0612,39.0324 -8.5892,11.4942 -26.2929,12.2322 -32.4549,25.9858 -4.4867,10.0807 -7.9297,22.6508 -19.2549,27.1536 -9.5884,2.858 -19.839,3.565 -29.7968,3.5035 1.9062,-6.3928 8.5596,-8.9437 13.6304,-12.3397 10.4191,-6.5157 23.3582,-11.1413 29.3821,-22.6664 4.9637,-9.4203 9.6503,-19.6853 18.625,-26.001 6.5776,-5.3017 16.5036,-6.9304 20.8069,-14.6754 4.4562,-19.4548 0.7989,-39.7085 3.9953,-59.3014 z m -471.07597,-23.5425 c 3.6573,-2.3666 7.8217,-3.8877 12.2317,-3.9029 -1.7359,8.6819 -5.486,16.8268 -9.6812,24.5718 -14.7983,-1.6139 -27.5836,8.4672 -36.8039,18.932 -2.52,3.5188 -6.9457,7.7759 -4.8404,12.4782 4.349,5.1632 12.1397,4.948 17.1496,9.2509 4.2262,4.4714 3.2269,11.218 2.9194,16.8421 -2.1049,18.2098 -8.144,36.3278 -19.2854,51.0341 -7.6217,10.4648 -18.2865,18.9015 -30.6114,23.035 -12.9077,3.7649 -28.7204,3.0583 -38.8782,-6.7462 -8.5591,-8.6671 -10.2035,-21.7748 -9.0204,-33.3923 2.7508,-25.3406 13.6151,-48.8826 25.9086,-70.8883 1.214,-2.2438 2.8889,-4.1796 4.7794,-5.8549 -2.966,10.5881 -9.0513,19.9466 -12.8776,30.2272 -4.4562,11.7708 -8.9133,24.1723 -8.114,36.9577 0.4918,9.6041 7.3299,18.2865 16.5193,21.0682 14.1688,4.41 29.8735,1.4906 42.5974,-5.7625 9.1437,-5.2251 17.6571,-12.6625 21.7448,-22.5899 0.7222,-2.3971 2.1357,-5.8701 -0.5075,-7.5602 -7.1452,-4.979 -18.7169,-3.5502 -22.9117,-12.4783 -2.9351,-9.4046 0.9369,-19.2239 5.0555,-27.6454 9.9117,-19.7157 25.8778,-36.0816 44.626,-47.5763 z m 386.29637,0.5689 c 3.9191,-2.1362 8.1597,-5.3017 12.8772,-3.9648 -1.2288,8.59 -5.455,16.4274 -9.3741,24.0648 -15.2134,-1.5983 -28.2905,8.959 -37.5571,19.8542 -2.3043,3.2883 -6.1925,7.3608 -4.0415,11.6327 4.3952,5.0708 12.094,4.8866 17.0886,9.1585 4.2419,4.4871 3.2422,11.2337 2.9347,16.873 -2.4581,21.7752 -10.8182,43.4734 -26.3543,59.2861 -9.3889,9.159 -21.6215,16.2584 -34.9909,16.7807 -11.4781,0.8298 -24.3719,-2.8732 -30.8724,-13.0005 -7.0833,-10.8953 -6.6842,-24.6637 -4.5023,-36.9729 4.0267,-22.4204 13.7689,-43.304 24.8331,-63.0506 1.1992,-2.2438 2.8737,-4.18 4.7795,-5.8706 -2.8271,10.2039 -8.6672,19.2396 -12.4321,29.1055 -4.6714,12.1088 -9.3432,24.8637 -8.5595,38.0484 0.4617,10.0502 7.9754,18.9783 17.6723,21.4677 20.0232,5.4093 42.1208,-2.6584 56.0126,-17.5643 4.0881,-4.7946 8.3753,-10.4648 8.1291,-17.0729 -6.2234,-7.1456 -18.8863,-4.3181 -23.911,-13.1847 -3.1498,-7.1151 -0.9064,-15.321 1.7364,-22.2514 9.2055,-22.2209 26.2932,-40.615 46.5313,-53.3389 z m 445.1978,1.9668 c 7.0232,3.5806 15.3976,9.6812 13.9841,18.6554 -2.2586,7.4684 -7.6069,14.1993 -14.5068,17.8875 -5.7621,-3.1811 -10.2802,-8.1291 -15.7818,-11.6945 5.3017,-8.3749 10.7106,-16.6731 16.3045,-24.8484 z m -411.7128,28.6133 c 5.4237,-8.2673 10.6792,-16.6422 16.3804,-24.7256 5.5016,3.1503 11.6026,6.8999 13.5846,13.339 1.9215,6.2848 -2.4128,12.1245 -6.1467,16.7497 -2.4586,2.597 -5.148,5.8858 -8.9434,6.2238 -5.1936,-3.5344 -9.7735,-7.9139 -14.8753,-11.5869 z m -1051.53517,-2.2895 c 1.7981,-4.5795 2.966,-9.5894 6.4233,-13.2619 -3.0583,24.4642 -3.6577,49.5282 -11.3408,73.1779 -6.2696,19.6081 -15.997502,38.8172 -31.471702,52.7704 -11.6637,10.68 -27.6149,17.042 -43.5196,15.6437 -13.2309,-1.1683 -26.0009999,-9.8964 -30.4114999,-22.6512 -4.3176,-12.2474 -2.39710002,-25.5707 0.2766,-37.9565 3.7959,-15.7204 10.1120999,-30.8876 18.5021999,-44.7179 -0.1233,6.5767 -3.3964,12.4011 -5.6702,18.3941 -3.2731,8.4362 -6.2852999,17.1343 -7.1307999,26.2009 -0.9988,10.3573 4.1342999,21.3754 13.5231999,26.2776 14.9211,8.4977 33.6075,6.531 48.7289,-0.3994 13.3385,-5.8859 23.0659,-17.6414 29.796802,-30.2577 5.993,-11.9098 6.7767,-25.5863 6.193,-38.6635 -0.4456,-8.6519 3.3036,-16.6116 6.1001,-24.5565 z m 115.3449,8.0215 c 6.0391,-3.4578 5.7625,-12.4472 12.5853,-14.9981 -0.8912,10.3263 -3.9801,20.9759 -10.2806,29.3507 -5.9468,8.0526 -17.6875,8.4368 -23.1887,16.8887 -6.1773,10.2188 -7.2532,23.235 -15.659,32.163 -7.2837,7.5146 -18.4865,7.2532 -28.0601,9.2818 -2.8432,0.4609 -9.6355,1.752 -6.9766,-3.1503 11.4332,-10.5881 26.9842,-16.5658 37.0958,-28.798 6.1472,-9.4046 9.0666,-20.8069 16.873,-29.1355 4.856,-5.2865 11.6793,-7.8683 17.6109,-11.6023 z m 1069.60697,12.3859 c 5.4855,-7.9758 9.6494,-16.7806 15.0435,-24.8022 5.732,5.5164 11.6331,11.1409 15.5361,18.1789 2.5051,4.4105 -0.7836,9.2204 -2.5199,13.2924 -2.7504,4.7332 -5.1484,10.342 -10.0507,13.2156 -6.3915,0.6913 -13.0771,-0.3071 -19.162,2.2129 -8.0521,3.4574 -15.1372,9.1894 -20.208,16.3355 -9.5274,13.3842 -17.4567,28.3057 -30.3343,38.8934 -10.2188,8.5134 -21.6525,16.2741 -34.6068,19.7929 2.3823,-5.7164 7.8683,-8.959 12.5706,-12.5549 8.6366,-6.1006 16.9187,-12.8158 23.8801,-20.8069 10.2196,-11.7865 16.7654,-26.1391 26.0624,-38.5864 6.7008,-9.4817 15.3366,-17.3339 23.7881,-25.1712 z m -486.25927,-14.6296 c 0.7527,-0.6299 2.2738,-1.8744 3.0427,-2.5047 -2.0896,18.2255 -5.7478,36.3735 -11.5718,53.7844 -2.2738,6.2392 -5.1631,13.1696 -11.5403,16.197 -9.2356,4.3948 -19.2244,7.5145 -29.4588,8.3443 2.9507,-6.3162 9.3127,-9.7426 14.3835,-14.1221 8.022,-6.7923 17.0268,-13.2157 21.8367,-22.8512 5.8091,-12.4473 8.1444,-26.1853 13.308,-38.8477 z m -763.188102,32.9471 c 3.7958,-6.4696 7.5912,-12.9391 11.7708,-19.1626 6.1781,4.6867 14.7987,8.8667 16.1046,17.3491 -0.5833,8.959 -7.2532,16.2432 -14.1374,21.3758 -4.8866,-5.0869 -10.7415,-9.0665 -15.8433,-13.8921 -0.4303,-2.1358 1.3369,-3.8568 2.1053,-5.6702 z m 902.874302,59.1476 c 5.0713,-8.4673 10.7411,-16.5655 16.0737,-24.8637 6.9465,3.196 14.7521,8.9895 14.3374,17.5181 -1.7973,7.8835 -7.4527,15.0753 -14.614,18.8402 -5.9163,-2.7508 -10.1883,-8.1444 -15.7971,-11.4946 z m -743.3952,41.0453 c 4.9636,-7.7759 9.7884,-15.6742 15.2595,-23.1273 6.162,3.5187 13.6613,8.3748 13.3538,16.4426 -0.7375,5.9163 -4.779,10.7876 -8.5748,15.1519 -1.6597,1.5059 -3.4731,3.9034 -6.0239,3.3502 -5.2094,-3.5192 -9.9117,-7.745 -14.783,-11.7098 -2.9199,5.1479 -6.2696,10.4801 -11.5718,13.4923 -6.0544,-2.1824 -10.3877,-7.8988 -15.9355,-11.2485 5.1174,-8.0525 10.1425,-16.197 15.8898,-23.8039 4.4719,2.8889 9.497,5.7164 11.9707,10.6953 1.9058,3.3193 0.7684,7.2075 0.4147,10.7572 z m 1398.82967,-11.587 c 6.9765,3.6268 15.3971,9.6812 13.9684,18.6559 -2.2281,7.3608 -7.4684,14.107 -14.2912,17.749 -6.0235,-2.6127 -10.3887,-8.1139 -15.9818,-11.5713 5.2869,-8.3753 10.7106,-16.6582 16.3046,-24.8336 z"
     style="fill:#2f3394;fill-rule:evenodd"
     id="path2" />
</svg>
