<?xml version="1.0" encoding="UTF-8" standalone="no"?>
<svg
   version="1.1"
   width="1311.54"
   height="1700.7866"
   id="svg4"
   viewBox="0 0 1311.5401 1700.7867"
   sodipodi:docname="2ffe65075c19bcc949cc729693954996.cdr"
   xmlns:inkscape="http://www.inkscape.org/namespaces/inkscape"
   xmlns:sodipodi="http://sodipodi.sourceforge.net/DTD/sodipodi-0.dtd"
   xmlns="http://www.w3.org/2000/svg"
   xmlns:svg="http://www.w3.org/2000/svg">
  <defs
     id="defs8" />
  <sodipodi:namedview
     id="namedview6"
     pagecolor="#ffffff"
     bordercolor="#666666"
     borderopacity="1.0"
     inkscape:pageshadow="2"
     inkscape:pageopacity="0.0"
     inkscape:pagecheckerboard="0" />
  <path
     d="m 0,0 h 1311.54 v 1312.3973 c -437.18,0.2702 -874.36,0.1578 -1311.54,0.068 z m 187.6039,187.6947 c 0.0454,312.742 -0.2702,625.4835 0.1584,938.2025 312.088,0.022 624.1529,0.1354 936.2185,-0.068 -0.022,-312.6737 0.2702,-625.3698 -0.1578,-938.0441 -312.065,-0.1578 -624.1305,0 -936.2191,-0.0901 z m 441.1916,292.7761 c 8.9916,-3.4259 17.6223,-7.8648 26.9742,-10.1855 9.8034,2.5008 18.9298,7.0081 28.3264,10.6588 87.6169,34.9513 175.0748,70.3319 262.8041,105.036 44.8449,18.4789 89.8699,36.5515 135.0074,54.2645 2.0511,1.0808 5.7912,1.5772 5.3409,4.7775 0.1578,65.8917 -0.022,131.83 0.068,197.7447 -26.7716,-8.7437 -52.3264,-20.7772 -78.6924,-30.6478 -115.7396,-46.5574 -231.6606,-92.6639 -347.3778,-139.2891 -8.8115,-3.0649 -17.1266,2.7947 -25.0814,5.7919 -65.2842,26.343 -130.7709,52.1909 -196.0775,78.5116 -72.0669,28.2587 -143.4579,58.4108 -215.8633,85.7235 -0.0678,-66.7042 0.09,-133.3848 -0.0901,-200.0884 11.9881,-5.882 24.5627,-10.3216 37.0925,-14.7605 46.8501,-19.4256 93.9716,-38.2194 141.1826,-56.7436 75.4473,-30.3099 150.8493,-60.7316 226.3867,-90.7936 z m 548.3906,985.4351 c 13.0026,0.2255 26.0051,0.2479 39.0083,-0.022 0.518,40.9911 0.045,82.0051 0.2248,122.9962 0.451,6.8734 0.4287,16.4955 8.3829,19.1547 10.5246,3.0873 21.8146,1.758 32.6089,1.2393 6.3099,-0.067 12.3714,-4.7545 12.1689,-11.4478 0.9237,-19.8759 -0.2032,-39.8195 0.3155,-59.6954 13.8816,0 27.7624,-0.045 41.6446,0.068 v 69.6561 c -4.0563,13.9492 -10.3439,28.8221 -24.1124,35.7179 -10.8843,7.0088 -24.203,7.5268 -36.7322,7.0535 -16.1576,-0.428 -33.0363,1.6449 -48.4279,-4.462 -12.9802,-4.7998 -23.3241,-16.9911 -25.0137,-30.8279 -1.7579,-29.1154 -1.3747,-58.2978 -1.3523,-87.4585 0.2249,-20.6648 -0.8566,-41.3744 1.284,-61.9715 z m -914.4504,15.9774 c 7.2343,-6.8733 14.3331,-16.7433 25.5547,-15.7519 15.0084,0.2932 30.2429,-1.4424 45.0704,1.6903 -20.7325,23.3011 -44.1013,44.0783 -65.5544,66.7036 -1.7126,1.8927 -3.245,4.0339 -4.0116,6.5354 5.8366,8.3151 14.0176,14.5574 20.845,22.0165 11.2452,12.0789 23.1439,23.5042 34.5469,35.4247 3.8756,3.7861 7.4592,8.158 12.4615,10.524 10.3216,1.4648 20.868,0.8566 31.2783,0.6088 7.4374,0.2702 13.4989,-6.6932 12.7106,-13.9946 0.3156,-19.1547 0.0448,-38.3318 -0.0677,-57.5095 13.5436,0 27.1089,0.091 40.6525,-0.1348 0.5411,20.6872 -0.4056,41.4191 0.361,62.1063 -0.0671,5.6788 3.0649,11.8987 9.3525,12.372 5.7235,0.3156 15.9991,2.6363 16.4277,-5.8366 1.0368,-22.8508 0.0224,-45.7686 0.3603,-68.6417 13.2287,0.1801 26.4561,0.1348 39.6847,0.067 1.3971,20.5747 0.0895,41.1942 0.6759,61.7913 0.3155,2.8394 0.0447,6.2876 2.4114,8.4282 5.6335,6.5354 15.0307,3.9215 22.5569,4.1694 1.2399,-24.7435 0.5411,-49.5547 0.3162,-74.3212 13.4983,-0.045 27.0195,0.068 40.5401,-0.1571 1.1045,22.1065 -0.7883,44.3485 0.879,66.388 0.7889,11.1769 14.558,9.6221 22.5799,10.0731 9.9159,-0.9244 22.3097,2.5015 30.3552,-4.5974 5.2732,-15.3239 -0.9697,-32.2927 4.0333,-47.729 4.2371,-12.5522 16.0898,-21.814 29.0477,-23.6844 11.8987,-0.8566 23.8421,-0.068 35.7408,-0.3609 9.1494,0.091 18.8168,-0.9684 27.3575,3.0649 12.1242,5.4987 21.5885,18.0509 21.4537,31.6622 0.2255,15.1208 0.1124,30.2645 0.1124,45.4077 0.3833,10.9073 -4.8452,21.6562 -13.1156,28.642 -10.1178,7.8424 -23.5937,8.0225 -35.808,7.9554 -11.2899,-0.2484 -22.6252,0.5181 -33.8705,-0.6311 -9.081,-0.969 -16.8787,-6.0844 -24.7434,-10.2762 -7.0305,4.1918 -14.1518,8.9015 -22.4675,9.9607 -20.7996,2.276 -43.8082,2.2083 -61.2279,-11.1328 -10.5458,6.3553 -22.1066,12.5522 -34.8843,10.9973 -11.785,0.4734 -21.2953,-7.4137 -32.1796,-10.2755 -10.2986,4.1687 -19.9436,11.2899 -31.6622,10.3656 -13.092,1.5101 -24.9013,-4.7321 -36.0334,-10.6141 -7.8418,3.606 -15.8874,7.7523 -24.7882,7.4591 -55.6162,-0.1578 -111.233,-0.045 -166.8491,-0.09 -9.4426,0.023 -18.7721,-1.5095 -28.1016,-2.7264 -7.684,26.0505 -29.3632,50.5684 -57.8021,52.5742 -17.2396,0.7206 -34.5016,0.1802 -51.7412,0.2703 -15.7296,0.09 -30.828,-7.166 -41.8701,-18.0957 C 10.3432,1670.6147 3.8761,1653.6676 0,1636.8342 v -98.5006 c 13.7237,-0.2255 27.4698,-0.3155 41.1942,0.045 0.4727,31.7963 -0.1578,63.6163 0.3149,95.4127 -0.7436,13.4535 12.1018,23.662 24.3608,25.7131 13.3411,1.0362 26.7717,0.315 40.1345,0.4504 15.414,0.8566 30.6932,-12.5522 30.3105,-28.2811 0.0901,-31.2112 -0.1578,-62.4448 0.0447,-93.6784 13.2504,0.1801 26.5238,0.1578 39.7972,0.022 1.3747,20.3492 -0.7218,40.7885 1.0138,61.1148 1.5094,9.7575 13.0932,10.7943 21.0251,10.6595 24.4055,-0.3833 48.8335,0.5634 73.1943,-0.6535 -7.3473,-10.1861 -16.9694,-18.3211 -25.6908,-27.268 -13.5653,-13.8361 -27.4698,-27.3344 -41.0811,-41.1488 18.659,-20.2816 39.0983,-38.8729 58.1176,-58.8389 z m 385.1021,90.0948 c -8.1126,4.8452 -5.9497,15.5718 -6.3777,23.5272 -0.2024,7.5492 0.045,18.1404 8.4282,21.25 9.2171,0.9019 18.5236,0.113 27.7631,0.1584 8.7213,-8.7661 5.6788,-21.7239 5.9496,-32.8114 0.428,-6.0397 -3.8084,-12.4391 -10.096,-12.9578 -8.4276,-1.3971 -17.5322,-2.276 -25.6678,0.8342 z m 337.9129,-101.6556 c 4.8676,-5.7012 12.7323,-3.9886 19.3125,-4.2364 13.0703,0.2478 26.1859,-0.5404 39.2331,0.5634 -5.2725,8.4735 -13.1603,14.7605 -19.9653,21.9041 -15.2786,15.527 -30.9634,30.6478 -46.1972,46.1972 -1.6673,2.2083 -6.3323,5.6111 -2.8171,8.3828 19.2231,20.1238 39.504,39.2561 58.8389,59.3352 3.3357,2.8841 6.3099,7.4815 11.2905,7.2336 12.8902,0.1348 25.7803,0.1124 38.6474,0 7.2566,0.1571 12.3044,-7.3914 11.9888,-14.107 0.3385,-19.2001 -0.2031,-38.4225 -0.068,-57.6219 13.5889,0.3149 27.1772,0.089 40.7656,0.1801 0.3385,17.5993 -0.022,35.1992 0.1584,52.8221 -0.09,11.0421 0.8783,22.6476 -4.1247,32.9008 -6.4441,15.842 -22.5799,27.0648 -39.8189,26.7046 -90.906,-0.023 -181.8127,-0.023 -272.7193,0 -12.3261,-0.045 -25.4871,1.2168 -36.777,-4.7775 -13.8592,-7.9102 -22.6483,-23.3465 -23.144,-39.1891 -0.3596,-16.7886 -0.428,-33.5543 -0.1124,-50.3206 13.5442,0.3379 27.1095,0.2709 40.6531,-0.022 0.3162,16.7662 -0.9914,33.6226 0.6088,50.3429 3.696,3.7861 9.3966,3.0426 14.1971,3.245 55.2335,-0.6304 110.5117,0.5641 165.7222,-0.5857 -6.5348,-9.5774 -15.5034,-17.0135 -23.4812,-25.2616 -13.3852,-13.6566 -27.2226,-26.8617 -40.45,-40.6308 -2.4338,-1.5094 -1.7356,-4.1463 0.1801,-5.7241 23.211,-21.8811 45.1605,-45.1145 68.0783,-67.3348 z m -915.7114,31.369 c 12.5062,0 25.0361,0.045 37.5659,-0.09 0.0671,12.9348 0.1124,25.8703 -0.0901,38.8057 -12.5298,-0.2255 -25.059,-0.1577 -37.5889,-0.045 -1.3299,-12.8454 -1.1268,-25.8256 0.1131,-38.6704 z m 968.1055,0.4057 c 13.3411,-0.6082 26.7263,-0.5181 40.0897,-0.2926 -0.6758,12.8224 -0.6311,25.6672 -0.1577,38.5119 -13.4082,-0.022 -26.7947,0 -40.2022,-0.067 0.4957,-12.733 0.3373,-25.4424 0.2702,-38.1523 z m 186.9511,160.1794 c 12.5292,0.022 25.0584,-0.1354 37.5883,0.1348 0.2472,12.7777 0.5857,25.5778 -0.3162,38.3325 -12.5963,-0.1125 -25.1939,0 -37.7684,-0.1125 0,-12.7777 -0.5634,-25.6001 0.4963,-38.3548 z"
     style="fill:#f25920;fill-rule:evenodd"
     id="path2" />
</svg>
