<?xml version="1.0" encoding="UTF-8" standalone="no"?>
<svg
   version="1.1"
   width="1700.7878"
   height="1024.0728"
   id="svg9"
   viewBox="0 0 1700.7879 1024.0728"
   sodipodi:docname="3a15e3a651f3538b09a22cdcdce1fe6c.cdr"
   xmlns:inkscape="http://www.inkscape.org/namespaces/inkscape"
   xmlns:sodipodi="http://sodipodi.sourceforge.net/DTD/sodipodi-0.dtd"
   xmlns="http://www.w3.org/2000/svg"
   xmlns:svg="http://www.w3.org/2000/svg">
  <defs
     id="defs13" />
  <sodipodi:namedview
     id="namedview11"
     pagecolor="#ffffff"
     bordercolor="#666666"
     borderopacity="1.0"
     inkscape:pageshadow="2"
     inkscape:pageopacity="0.0"
     inkscape:pagecheckerboard="0" />
  <g
     id="Layer1000"
     transform="translate(-283.4643,-621.8219)">
    <path
       d="m 957.893,797.536 c 59.2173,-58.2489 117.5036,-117.4663 176.7605,-175.7141 22.5705,21.5625 44.2484,44.0549 66.4694,65.9659 13.6509,-10.8203 26.6807,-22.919 43.3557,-28.9695 -0.076,22.9586 -4.8467,47.0802 4.4598,68.9516 6.2451,15.7054 19.4299,26.8753 31.0251,38.5475 52.1985,52.6634 105.0169,104.7464 157.0988,157.5264 -21.4448,23.772 -45.9941,44.5584 -66.9728,68.7569 12.2548,12.0218 23.4224,25.7112 29.0464,42.1928 -30.3655,-2.5592 -65.7339,-5.8944 -89.506,17.4907 -58.8677,57.7432 -116.7286,116.4956 -175.3249,174.5114 -22.7255,-21.679 -45.684,-43.2788 -66.4704,-66.8189 54.7971,-56.5417 110.9123,-111.8423 166.3295,-167.764 21.7559,-22.7255 55.494,-32.6916 86.0926,-25.3616 15.8605,2.7911 29.4334,11.7118 43.4328,19.0792 -53.7496,-56.3472 -110.4452,-109.8636 -164.8927,-165.5534 -20.4764,-21.5998 -28.466,-53.4 -22.0286,-82.3298 2.7152,-14.194 10.2387,-26.6423 16.0946,-39.6721 -53.478,52.7019 -106.0249,106.3349 -159.2709,159.3094 -16.2101,16.3651 -38.8575,26.5258 -62.0095,26.4092 -44.52,1.5511 -86.0542,-29.4344 -102.4193,-69.9595 30.0171,2.5976 65.0744,6.2824 88.7299,-16.5981 z M 831.2752,923.8042 c 22.4155,-21.7164 43.9768,-44.3254 66.5463,-65.8867 56.8528,55.5325 112.6964,112.0358 169.1601,167.9575 23.695,22.7629 32.2266,58.8293 23.2685,90.2029 -8.88,33.5831 -34.7857,60.6519 -66.3539,74.2248 1.0872,-29.9775 6.2824,-65.1117 -16.9081,-88.7288 -46.148,-47.0406 -93.2655,-93.1116 -139.4146,-140.1522 -12.0217,-12.6428 -25.5561,-23.8501 -36.2983,-37.6175 z"
       style="fill:#00a652;fill-rule:evenodd"
       id="path2" />
    <path
       d="m 1112.5491,828.6369 c 26.4873,-4.9248 55.2226,0.1561 77.0555,16.3662 32.6542,22.7244 47.9332,66.9739 37.0744,105.1334 -12.0602,44.3649 -57.8597,76.9785 -103.9692,70.8906 -47.1186,-3.7232 -87.0622,-46.304 -87.4888,-93.6161 -2.5591,-46.0711 32.0321,-90.1249 77.3281,-98.7741 z"
       style="fill:#f7941f;fill-rule:evenodd"
       id="path4" />
    <path
       d="m 1647.0191,1116.9298 c 16.2881,-0.775 32.8081,2.0953 48.6301,5.779 11.0918,2.5591 18.1877,14.2709 15.8616,25.3627 -2.9076,21.0963 -18.9638,37.2294 -34.5143,50.3758 -32.8081,27.1073 -83.1059,24.6635 -110.2527,59.7989 15.2801,0.698 38.509,-3.6068 45.063,14.8524 4.4213,20.7864 -4.8479,43.0469 -21.2129,56.2317 -21.911,18.0327 -48.5532,29.551 -75.854,36.6084 -18.9252,4.3829 -33.2346,18.1888 -49.3292,28.1164 -110.0978,73.1002 -233.6904,131.348 -366.164,146.8611 -61.6985,5.8944 -123.8641,7.7951 -185.7187,4.0718 -38.3925,-3.1033 -77.5611,-7.2905 -113.2779,-22.6475 -18.7307,34.3977 -31.489,73.0233 -58.4798,102.2247 -9.6176,9.5792 -22.454,22.5705 -37.1899,15.9001 -2.1337,-14.5436 9.8881,-24.7416 18.1492,-34.9023 36.5314,-39.2071 54.7191,-90.669 80.7392,-136.6235 4.9654,-8.7646 14.0005,-15.8605 24.4316,-15.6286 20.2829,0.155 38.3936,11.0523 58.2873,13.8444 70.1926,12.2164 141.9748,13.4575 212.982,8.6481 101.6816,-6.942 202.0837,-34.6308 292.5581,-81.5933 18.2272,-10.5872 39.5182,-20.0883 49.5228,-39.8282 15.745,-29.0453 29.8994,-59.1778 49.5227,-85.8596 6.4375,-8.1435 13.9994,-17.2951 25.0132,-18.5746 10.9752,-1.3576 20.1663,6.0098 28.9694,11.4007 20.2049,-30.4425 51.4223,-50.2198 83.339,-66.4309 -5.5459,-0.6596 -11.1303,-1.0861 -16.6377,-1.6281 7.1366,-27.1468 18.8857,-53.711 35.5619,-76.3585 z m -152.174,174.9776 c -17.3346,19.7783 -29.8994,43.4734 -40.1371,67.5939 20.9799,-8.3381 39.6336,-21.4449 57.6652,-34.7473 8.6107,-7.4839 21.0194,-18.0711 15.5516,-30.791 -6.2044,-13.1078 -24.7416,-12.8363 -33.0797,-2.0556 z m 58.0543,3.6452 c -18.1492,16.2101 -30.249,37.8879 -42.1158,58.8689 28.0384,-8.8416 56.3867,-21.7559 75.4285,-45.0245 4.9248,-5.2348 7.5609,-15.3174 0.232,-19.7772 -10.3146,-8.9196 -24.7416,-1.4742 -33.5447,5.9328 z m 319.8599,-29.2794 c 38.3156,-35.6773 74.1864,-73.8379 111.4928,-110.4067 -11.6722,35.2123 -36.6084,63.9091 -62.5911,89.5818 -34.9407,33.7008 -71.4722,65.6548 -108.0805,97.5714 -12.9518,10.8587 -25.0912,22.9586 -40.0986,31.0636 4.1882,-17.1807 15.9,-31.024 28.4648,-42.8523 23.1136,-22.1825 47.2341,-43.2789 70.8126,-64.9567 z M 622.7541,1255.1825 c 5.1567,-7.252 8.958,-15.7836 15.7835,-21.6394 10.0442,0.3484 18.1492,10.7422 20.8633,19.8168 0.2705,12.9133 -10.0441,22.4155 -18.0711,31.2174 -7.175,-4.9632 -13.9609,-10.3926 -20.8644,-15.7054 -4.2279,8.648 -10.0057,16.365 -17.1016,22.8805 -7.2905,-5.8944 -17.8403,-9.8892 -21.4855,-19.0023 5.1589,-12.4483 11.9448,-24.2766 20.8644,-34.4373 6.942,5.3129 13.5344,11.0138 20.0114,16.8697 z m -72.2879,17.8776 c 10.7807,2.7537 20.516,11.4403 22.1836,22.8025 -1.9402,12.0229 -10.0837,21.9109 -19.4683,29.1629 -6.399,-5.0413 -12.6814,-10.2376 -19.1584,-15.1624 -5.8943,7.0959 -9.345,19.5057 -19.6222,20.8633 -7.717,-3.8783 -13.884,-10.0441 -20.3588,-15.5889 5.6218,-12.566 12.2538,-24.6647 20.3984,-35.7565 8.0269,4.3048 15.0074,10.1992 21.6394,16.4047 4.7687,-7.6016 9.5781,-15.1636 14.3863,-22.7256 z m 1202.3458,175.5976 c 7.2905,-24.5482 12.3318,-51.8104 30.5975,-70.9292 -5.0809,34.7858 -15.047,68.8735 -17.0246,104.1254 -0.542,11.7887 -2.0172,24.392 3.1802,35.4453 3.9948,7.7939 15.0459,12.9518 22.6859,6.9409 5.6625,-6.3209 8.8416,-14.4259 14.4259,-20.8633 0.7772,16.1704 -4.1882,32.1101 -10.7806,46.6525 -4.9633,9.8892 -13.2233,20.8249 -25.4397,20.6699 -11.4391,0.388 -18.9253,-10.4322 -21.0963,-20.4764 -4.5379,-21.911 -0.155,-44.2869 1.241,-66.2748 -13.4178,14.3094 -23.5016,31.7605 -39.5566,43.4723 -36.9953,31.5286 -86.0916,42.6973 -133.0937,48.6698 -27.5338,1.2795 -56.4636,4.3817 -82.874,-5.1194 -14.0763,-4.8479 -17.838,-21.2514 -16.9465,-34.5143 0.9311,-13.1859 -0.387,-27.8064 7.2915,-39.3236 1.9007,15.202 9.6177,31.024 26.6412,32.9632 51.3069,8.1446 104.8629,3.2583 154.5396,-11.9053 35.2134,-12.0217 73.7598,-31.6836 86.2092,-69.533 z m 107.4606,45.606 c 5.2743,-38.509 6.7078,-80.0433 28.8133,-113.4715 -1.5126,41.6882 -12.7198,82.7179 -11.8668,124.5237 -0.3484,12.2548 11.3622,26.2542 24.3536,20.0872 6.9035,-6.0493 9.8892,-15.3174 16.4046,-21.7933 -0.775,21.0183 -6.2439,43.0458 -19.9333,59.4493 -8.105,10.2377 -25.9047,10.4322 -32.6916,-1.318 -12.0218,-20.3214 -6.399,-45.2565 -5.0798,-67.4774 z M 657.3453,1415.9265 c 4.6928,-11.2457 7.7554,-24.3921 17.7226,-32.3036 -1.0861,23.8105 -3.4132,47.5441 -3.2187,71.3941 0.1166,24.7416 -3.2956,50.2593 -15.8231,72.0153 -2.2491,4.6532 -6.5913,7.562 -10.5476,10.5872 1.473,-14.7359 5.4678,-29.1629 5.7789,-44.0154 1.1631,-25.9057 -3.5682,-52.8184 6.0879,-77.6776 z m -277.1626,63.0187 c 4.4982,-31.3351 7.7169,-64.6083 25.7496,-91.599 -0.31,40.7571 -12.3714,80.7787 -11.0522,121.6149 0.3485,18.2262 19.0792,33.9712 37.1129,27.6888 14.0764,-2.7922 16.5201,-20.2048 27.9603,-26.5642 7.6796,0.7365 15.047,3.1802 22.609,4.6929 13.2629,-18.0723 22.1055,-42.0389 43.9384,-51.54 7.7566,-4.1498 20.0103,-1.3961 22.2605,7.9896 3.0242,13.6113 -4.6939,26.3696 -8.7261,38.9345 15.0085,-8.7251 24.7812,-23.3456 37.578,-34.5528 8.6876,-1.3576 17.5676,0.1166 26.3311,-0.3495 -0.1924,-6.6309 2.1337,-16.3651 -5.3898,-19.9718 -8.3765,-0.6981 -17.8392,3.0252 -25.3616,-1.9381 -8.1446,-8.8041 0.077,-20.1279 3.2187,-29.241 4.5368,-9.3461 10.0442,-23.0739 22.7245,-21.8328 17.1015,4.5367 25.7496,24.4316 24.8581,40.9516 -1.9007,19.1572 -10.1992,37.811 -22.144,52.8184 -7.097,9.5396 -19.6992,1.7457 -29.2003,4.6929 -9.8507,7.2124 -17.4138,17.2181 -27.9218,23.617 -15.2801,9.1131 -32.1882,15.124 -49.0974,20.3983 -14.7744,4.4983 -30.4425,0.9311 -44.0923,-5.3513 -11.9063,12.9914 -19.1187,33.5447 -38.6255,36.7249 -15.744,3.5683 -32.4597,-7.2135 -35.4839,-23.074 -4.4598,-24.5481 0.155,-49.6008 2.7538,-74.1093 z m 135.6539,5.0798 c -10.8972,7.3685 -17.1027,19.7002 -23.3082,30.947 18.0338,-0.5815 33.8954,-11.0918 44.1715,-25.4011 -5.8944,-4.4214 -13.3398,-8.6866 -20.8633,-5.5459 z m 1292.7806,-48.9413 c 2.5206,-14.1159 10.5861,-26.5642 19.5453,-37.4614 9.0746,5.5844 19.4672,11.9448 22.5309,22.8805 -2.8691,11.2072 -8.26,24.0831 -18.3822,30.171 -8.6866,-3.7233 -17.1401,-8.6866 -23.694,-15.589 z m -1483.6967,19.3518 c 14.8909,6.4374 28.0768,18.7703 31.2955,35.2134 5.9725,42.5808 -28.6979,86.9446 -72.7517,87.1392 15.6285,-17.3346 38.896,-27.4184 50.6858,-48.4367 -4.3433,-15.0866 -19.4683,-22.997 -29.1629,-34.3207 6.5539,-13.2629 12.9913,-26.5654 19.9333,-39.5952 z M 1868.3391,1629.49 c 5.2348,-13.5729 10.3542,-28.2703 22.1814,-37.656 7.8346,6.3605 17.0246,12.2944 21.0579,22.0275 -1.7061,12.4098 -9.6177,22.687 -17.2962,32.0331 -9.0735,-4.8093 -17.7226,-10.3541 -25.9431,-16.4046 z"
       style="fill:#231f20;fill-rule:evenodd"
       id="path6" />
  </g>
</svg>
