<?xml version="1.0" encoding="UTF-8" standalone="no"?>
<svg
   version="1.1"
   width="1700.7867"
   height="1338.9823"
   id="svg7"
   viewBox="0 0 1700.7868 1338.9823"
   sodipodi:docname="b1581792b9e09f01c957b7242d4ab5c2.cdr"
   xmlns:inkscape="http://www.inkscape.org/namespaces/inkscape"
   xmlns:sodipodi="http://sodipodi.sourceforge.net/DTD/sodipodi-0.dtd"
   xmlns="http://www.w3.org/2000/svg"
   xmlns:svg="http://www.w3.org/2000/svg">
  <defs
     id="defs11" />
  <sodipodi:namedview
     id="namedview9"
     pagecolor="#ffffff"
     bordercolor="#666666"
     borderopacity="1.0"
     inkscape:pageshadow="2"
     inkscape:pageopacity="0.0"
     inkscape:pagecheckerboard="0" />
  <g
     id="Layer1000"
     transform="translate(-283.46493,-464.36731)">
    <path
       d="m 1077.8315,469.7802 c 111.8439,-20.2954 232.0153,17.4952 313.597,96.3489 -56.8478,65.9423 -103.9134,140.2863 -139.4492,219.7215 -7.0923,15.7126 -12.2576,32.2623 -20.914,47.2109 -25.1319,-47.8295 -58.1582,-92.8568 -103.368,-123.4819 -35.1708,-24.4782 -77.1081,-39.2083 -119.9538,-41.027 -6.183,-0.2196 -12.1113,1.527 -18.0767,2.8003 8.4388,17.458 19.4954,33.5707 26.2969,51.8298 19.7501,50.7381 28.4425,104.7867 43.8283,156.8712 14.1846,49.7926 34.48,98.6037 65.7237,140.2492 26.2598,35.3894 59.6491,65.1784 96.6757,88.9287 5.3468,3.4549 15.094,8.9842 18.3313,0 4.2911,-20.4769 4.9097,-41.6456 9.4204,-62.1585 22.9142,-117.8815 73.2522,-229.9058 142.6133,-327.6733 57.0674,-79.1094 128.8649,-150.5057 217.8307,-192.6606 9.4203,-4.0014 18.7674,-10.039 29.4239,-9.4575 0.1093,11.9298 -9.0924,21.1687 -13.2392,31.8252 -27.0959,58.8129 -40.9187,122.4272 -56.8859,184.8775 -20.513,81.0363 -39.2815,163.4913 -75.6895,239.253 -38.0803,79.763 -103.004,146.76 -182.8402,185.1331 -78.8537,38.2257 -170.8012,50.0834 -256.311,30.0787 -82.7097,-18.8767 -157.7084,-68.0878 -208.8825,-135.5932 -46.4109,-60.778 -72.8903,-136.4304 -74.4173,-212.8838 -2.2187,-82.4189 24.6608,-165.31 74.9266,-230.7059 55.6848,-73.6171 140.176,-124.7913 231.3595,-139.4863 z"
       style="fill:#289925;fill-rule:evenodd"
       id="path2" />
    <path
       d="m 1967.9576,1312.5128 c 4.8726,-4.4003 10.2926,-8.146 16.2941,-10.874 -11.4937,34.88 -40.6269,59.7583 -68.924,81.327 -32.3345,25.7876 -65.6516,50.338 -97.2954,76.9257 -2.5084,1.0547 -7.6016,3.2013 -10.1111,4.256 5.9655,-15.3486 14.6218,-29.8611 27.1692,-40.7001 42.8467,-38.7 90.5298,-71.6521 132.8662,-110.9335 z m -1500.262,77.3639 c 4.62,-14.5857 11.967,-28.261 21.1687,-40.4826 -3.5281,38.2628 -4.656,77.1081 -14.9486,114.3894 -10.6575,41.8271 -32.7717,83.0004 -69.6519,107.1508 -4.3282,3.7096 -11.3844,6.1108 -11.5298,12.767 -2.9466,23.4596 -5.2375,47.6831 -16.3672,69.0693 -7.347,13.931 -11.9299,30.7705 -26.1155,39.5733 8.6935,-35.0265 15.8579,-70.3437 22.4781,-105.8053 -20.4408,2.9095 -43.4633,5.7458 -61.7596,-6.0386 -20.15,-12.6206 -28.1867,-37.7535 -27.4599,-60.4862 1.6373,-31.5345 13.3846,-61.4678 27.3878,-89.438 6.0376,-12.0752 12.5845,-24.0411 21.5676,-34.1893 -1.8898,25.57 -19.4582,46.1562 -25.8958,70.488 -5.9644,19.8964 -5.7469,45.0654 10.6204,60.0872 16.4766,13.2382 39.4268,13.53 59.3944,10.5473 35.5729,-5.2015 65.6516,-31.2437 80.3466,-63.3236 10.8018,-26.9145 1.4547,-57.0674 10.7647,-84.3087 z m 1275.0483,31.4251 c 4.0003,-16.659 13.6753,-31.1705 21.7131,-46.0469 9.9296,7.5645 22.7688,14.9847 24.805,28.4785 -0.071,14.8033 -7.7831,29.6075 -19.6036,38.4453 -10.3297,-4.8375 -19.1675,-12.6216 -26.9155,-20.8769 z m -319.6717,-43.2467 c 9.2028,6.8377 20.3315,13.4578 23.1318,25.533 0.3289,14.7671 -8.3285,27.7516 -19.0222,37.172 -8.5831,-6.8748 -17.0941,-13.7485 -25.205,-21.1316 6.584,-14.0764 13.3845,-28.0795 21.0954,-41.5734 z m 24.1514,39.8269 c 6.0737,-14.8393 12.8753,-29.3518 21.6399,-42.7725 8.1852,7.4192 19.5325,13.7846 22.0059,25.4598 1.4547,14.8032 -8.4028,27.2794 -17.6045,37.7545 -8.91,-6.5108 -17.5674,-13.4217 -26.0423,-20.4418 z m -163.3459,2.9466 c 3.9282,-15.4579 12.5845,-29.1343 20.8048,-42.6281 8.9481,7.9656 22.3316,15.4579 22.2595,29.061 -1.3455,12.5485 -7.7481,24.8422 -17.7128,32.7346 -9.7482,-4.3282 -18.0406,-11.4927 -25.3515,-19.1675 z m -656.3272,55.358 c 4.1086,-31.6438 13.6022,-63.4329 31.8974,-89.802 -2.6909,34.4069 -5.1653,69.4334 -14.4754,102.8226 -8.7305,19.7139 -15.2032,42.3374 -32.6623,56.3395 3.7456,-23.4225 11.6751,-45.9376 15.2403,-69.3601 z m 535.8641,-40.8455 c 6.0737,-15.1311 11.7844,-30.6622 21.2048,-44.119 -0.5815,16.9859 -3.4189,33.7893 -5.1293,50.6659 -3.3817,25.3144 -4.4004,51.7567 -15.7126,75.1441 -6.8737,13.8207 -11.8566,29.6425 -24.9504,39.0268 3.9652,-23.2782 12.0391,-45.6469 15.4218,-69.0333 3.0549,-17.2406 2.3641,-35.3172 9.1657,-51.6845 z m -224.559,1.6001 c 6.4747,-13.6753 11.8937,-28.1156 20.8408,-40.4454 13.8939,4.8374 28.4786,20.4047 21.5687,36.044 -2.8373,9.9297 -9.675,17.8592 -16.5858,25.2422 -8.8017,-6.7283 -17.4581,-13.6031 -25.8237,-20.8408 z m -574.164,6.3284 c 6.6201,-16.0395 14.0764,-31.8252 23.9689,-46.1552 10.6204,7.6738 25.2061,14.2578 27.9692,28.4785 2.7291,16.3312 -11.0194,28.3703 -20.5129,39.5732 -10.8751,-6.6933 -21.2419,-14.1856 -31.4252,-21.8965 z m 726.343,7.2016 c 12.7309,-15.6394 17.6406,-36.1534 31.6077,-50.9206 -2.9106,21.6048 -13.6403,40.9548 -24.0421,59.7233 -11.2751,20.2944 -27.8971,37.7535 -48.4472,48.774 -16.294,8.8017 -35.8626,16.0765 -43.1364,34.7708 20.2955,1.0547 40.3362,-2.7631 60.5584,-4.1096 -11.9658,23.5327 -31.8984,41.5001 -50.338,59.8315 -9.2388,10.3297 -23.7874,12.0752 -34.481,20.2593 -12.0752,8.8378 -26.4784,13.8578 -37.7907,23.8236 -6.8737,6.1829 -16.5116,5.4561 -25.0597,6.0375 -15.5311,14.1847 -26.6608,34.6987 -47.8656,41.3549 -17.3117,7.4191 -35.4255,-0.3279 -53.03,-1.2373 -14.1846,-0.3268 -24.3328,10.5844 -36.0802,16.622 1.3826,-12.0391 9.3482,-21.6409 16.4766,-30.8427 11.638,-14.1495 26.1505,-27.7156 44.7737,-31.1705 16.4755,-3.5281 32.8799,6.5469 49.3204,1.6362 12.7659,-3.491 21.2769,-14.4392 32.552,-20.55 7.4202,-2.4734 15.4951,-1.7095 23.0967,-3.3457 5.1643,-3.2744 9.2017,-7.9295 13.4206,-12.2576 2.4013,0.3639 7.2016,1.0547 9.6018,1.3815 3.8199,-4.0364 7.6377,-8.0738 11.4205,-12.1473 2.1827,-0.073 6.5469,-0.2186 8.7296,-0.2918 4.1106,-5.3819 8.4378,-11.1298 15.6765,-12.1474 12.767,-2.4734 18.4767,-15.1311 25.4236,-24.6596 -15.6394,-0.364 -31.6066,1.2722 -46.9923,-2.292 -4.1097,-10.075 5.8561,-19.5314 10.9482,-27.497 24.9876,-34.0078 68.0147,-47.5378 93.6569,-80.7455 z m -271.9514,3.892 c 11.8577,-2.328 25.7515,1.6373 35.8998,8.3656 7.1273,7.9285 1.7444,20.8048 -3.7828,28.3693 -12.403,14.2578 -27.1341,26.4062 -38.4453,41.6094 -16.4766,20.3687 -21.0594,47.5378 -37.2813,68.0518 -0.2547,-9.7111 5.0921,-20.4408 0.4,-29.425 -15.6394,-7.3098 -35.3162,-8.0738 -50.339,1.2011 -14.0032,8.4739 -25.2412,20.6945 -35.5338,33.28 -19.9325,25.8598 -39.6464,52.3381 -64.4143,73.8337 -20.9873,16.2229 -44.484,30.1157 -70.2716,37.0266 20.2233,-19.8583 47.7925,-30.0065 68.3075,-49.6472 22.9864,-22.2224 42.7003,-47.8285 59.5398,-74.9987 16.0765,-26.5877 37.572,-51.866 66.996,-63.8319 15.4218,-6.5469 32.7716,-3.7106 47.612,3.0549 6.0015,-8.0749 11.9649,-16.1848 18.1489,-24.1143 -6.0737,-3.4188 -18.6953,-2.8734 -18.2592,-12.3298 3.6384,-14.8765 11.603,-28.8064 21.4233,-40.4455 z m 1067.1102,123.4098 c 5.6747,-39.9733 6.947,-82.7468 30.8437,-117.1536 -2.9095,49.174 -19.8954,97.5489 -14.0032,147.1229 0.3268,9.8204 7.5284,18.8046 17.8942,18.6953 16.0044,3.092 16.622,-19.2035 23.1689,-28.5156 1.1279,23.5689 -4.3282,48.7389 -20.2233,66.8517 -5.9273,6.6562 -15.4208,12.7298 -24.5133,8.8388 -12.5484,-5.6747 -17.4591,-20.5501 -18.0416,-33.3532 -0.8351,-20.9501 2.5105,-41.7187 4.8746,-62.4863 z m -81.7632,-106.9332 c 2.0363,2.1826 4.0725,4.4013 6.1098,6.6191 -5.3097,35.9719 -13.0938,71.7252 -14.1846,108.1704 -0.1093,11.1297 0.072,22.6956 4.655,33.0252 4.3653,7.3099 13.9671,8.2925 21.678,7.9646 9.311,-6.583 10.7658,-19.1304 16.0033,-28.6239 1.3826,23.7142 -4.3642,48.9193 -20.3315,67.1063 -5.9293,6.5469 -15.4579,12.402 -24.405,8.4378 -12.4031,-5.7468 -17.2766,-20.4408 -17.9684,-33.1717 -0.8723,-21.8595 3.2002,-43.5725 3.5652,-65.3959 -14.6579,15.1311 -21.4234,36.2988 -38.0092,49.8297 -44.6644,38.9175 -104.0227,57.7221 -162.5087,61.2502 -29.424,1.563 -61.141,5.2004 -88.3472,-8.7295 -13.5661,-7.0563 -12.8031,-24.3329 -12.5474,-37.3535 0.2546,-14.8032 1.7455,-29.6436 5.7819,-43.9736 2.8384,9.3111 3.9652,19.3129 8.8759,27.861 7.346,8.7285 19.3129,10.9833 29.9333,13.166 68.525,9.3842 139.2667,-3.7096 201.4273,-33.4614 28.8786,-13.3856 51.9021,-39.1732 59.6491,-70.3437 4.9107,-21.4234 12.3298,-42.0817 20.6232,-62.3771 z m -376.1204,43.7911 c 4.7653,-14.9847 13.4938,-28.3332 23.0595,-40.6991 10.1482,2.5455 20.914,6.9098 25.0969,17.3848 11.8926,26.2248 1.0186,56.7767 -15.2404,78.6001 -9.3472,13.4206 -26.2238,17.0941 -38.2628,27.133 -15.1311,15.9302 -16.5488,42.4096 -36.8081,53.9394 -14.5847,6.4005 -31.2076,8.4738 -46.9553,7.3469 -0.8,-0.8 -2.3651,-2.4002 -3.1652,-3.2013 16.1858,-16.0765 39.5733,-22.077 55.7941,-38.2267 10.9122,-9.4925 16.259,-23.241 23.4606,-35.3533 9.5647,-19.2768 33.9337,-22.077 46.6274,-38.5536 -2.6538,-3.6013 -5.3457,-7.2016 -8.0006,-10.7658 -7.0562,0.1083 -14.6218,2.7271 -21.3872,-0.1453 -5.9644,-3.6013 -6.3655,-11.5308 -4.2189,-17.4591 z m -96.6757,-20.0047 c 7.6377,-7.8192 24.5504,-8.5471 27.8599,3.8199 4.0385,25.8958 -12.2205,49.6833 -30.4065,66.4506 -12.9474,13.0206 -31.5345,17.4591 -49.4287,15.894 -7.7841,22.842 -10.4029,47.1749 -19.2407,69.7251 -12.9855,34.8811 -35.2811,67.4693 -67.1424,87.5472 -21.2769,12.7298 -49.6472,19.1314 -72.4892,6.8376 -24.005,-14.4393 -30.6612,-45.5015 -27.2063,-71.5799 5.3478,-36.2626 19.4964,-71.9789 42.0827,-100.9317 -0.7269,19.5686 -13.4938,35.3533 -19.0592,53.5393 -4.6922,14.695 -8.8378,30.5158 -5.9644,46.0109 3.4549,16.294 19.3489,27.3506 35.2801,29.0971 25.7876,2.692 53.6125,-2.3641 73.7615,-19.6046 28.8796,-22.2595 40.7733,-60.413 40.664,-95.6942 0.5094,-12.9845 -0.5815,-27.5692 7.6017,-38.5896 5.6014,-6.7655 15.2393,-2.5095 22.6956,-3.0199 13.7856,-16.4033 24.9875,-35.1347 40.9908,-49.5008 z m -29.425,49.3936 c 18.6231,-2.1466 35.1718,-11.9669 47.5738,-25.7155 -5.8912,-2.5455 -11.6029,-6.5829 -18.2581,-6.3283 -14.1846,5.4561 -21.6409,19.9315 -29.3157,32.0438 z m -756.6413,1.6362 c 5.7468,-6.4015 11.239,-12.9845 17.2405,-19.1314 -2.7641,16.9859 -7.8934,33.8985 -17.2044,48.5203 -8.6554,12.6567 -25.2422,14.9115 -36.2978,24.6597 -20.8418,19.2407 -18.2591,54.3033 -43.3188,70.0519 -16.1498,8.911 -35.9359,12.5845 -54.0126,8.4017 17.6045,-17.3859 40.9538,-27.2063 59.3222,-43.5735 16.9498,-15.6394 19.2036,-40.3723 32.5892,-58.3397 10.8029,-14.2217 30.2612,-17.1673 41.6817,-30.589 z m -78.9259,173.3838 c 9.3101,7.2748 21.3492,13.9671 24.2236,26.4062 1.928,16.258 -8.0017,31.1705 -19.7139,41.5363 -11.2751,-8.3285 -22.8781,-16.7673 -30.5158,-28.8064 -1.3094,12.9484 -8.8379,23.7874 -18.95,31.5344 -9.1285,-7.2748 -18.186,-14.6207 -26.9506,-22.2955 6.7645,-15.7497 14.1486,-31.2798 23.3142,-45.7923 12.002,8.9842 26.3681,19.3139 25.0237,36.408 1.3815,-0.6176 4.1096,-1.8187 5.4922,-2.4373 4.4725,-12.9113 10.9101,-24.9865 18.0766,-36.5534 z m 1403.0028,62.5967 c 4.3642,-16.9498 13.2381,-32.4077 23.4957,-46.447 10.875,8.4017 27.8248,16.0034 27.4248,32.0799 0.6186,15.13 -11.8576,25.8969 -21.2048,36.0802 -10.0389,-7.0924 -20.55,-13.53 -29.7157,-21.7131 z"
       style="fill:#1f1a17;fill-rule:evenodd"
       id="path4" />
  </g>
</svg>
