<?xml version="1.0" encoding="UTF-8" standalone="no"?>
<svg
   version="1.1"
   width="1700.7867"
   height="1290.8407"
   id="svg187"
   viewBox="0 0 1700.7868 1290.8407"
   sodipodi:docname="ca26582959a01d0615928188e54e62ec.cdr"
   xmlns:inkscape="http://www.inkscape.org/namespaces/inkscape"
   xmlns:sodipodi="http://sodipodi.sourceforge.net/DTD/sodipodi-0.dtd"
   xmlns:xlink="http://www.w3.org/1999/xlink"
   xmlns="http://www.w3.org/2000/svg"
   xmlns:svg="http://www.w3.org/2000/svg">
  <defs
     id="defs191" />
  <sodipodi:namedview
     id="namedview189"
     pagecolor="#ffffff"
     bordercolor="#666666"
     borderopacity="1.0"
     inkscape:pageshadow="2"
     inkscape:pageopacity="0.0"
     inkscape:pagecheckerboard="0" />
  <g
     id="Layer1000"
     transform="translate(-283.0547,-390.45434)">
    <path
       d="m 988.5171,1630.3558 h 0.0401 c 0.8181,-21.8352 21.0663,-23.8671 24.8244,-24.0554 l 57.6198,-0.02 c 13.8641,0.2676 24.9721,9.302 25.4338,24.3114 l 0.015,5.128 c -0.1184,7.7769 -6.4572,14.0457 -14.2646,14.0457 0,0.01 -46.1532,0 -49.8528,0 -3.5084,0 -5.6926,-0.4478 -7.9394,-1.3148 -4.8493,-1.8458 -6.9915,-4.6838 -7.7864,-7.6609 0,1.1409 -0.012,15.2992 0.031,15.2992 0,3.0422 2.468,5.611 5.6143,5.611 l 50.6766,0.092 c 10.3263,0.8663 20.332,7.6615 20.9632,19.4948 -26.6441,0 -53.2562,-0.025 -79.922,-0.025 l -0.1327,-7e-4 h -0.4557 v -0.016 c -3.8056,-0.1893 -24.8614,-2.2817 -24.8614,-25.4322 z m 75.8388,7.42 v 0 c 2.2002,0 3.981,-1.7824 3.981,-3.98 h 0.02 l -0.022,-4.1164 c -0.073,-2.0986 -1.7713,-3.7844 -3.8755,-3.8383 l -42.5078,0.01 c -2.9601,0.1564 -5.3133,2.6051 -5.3133,5.6031 l -0.031,6.3236 c 15.916,0 31.8325,0 47.7486,0 z"
       style="fill:#1b1918;fill-rule:evenodd"
       id="path2" />
    <path
       d="m 1114.7945,1559.7174 4.7199,0.04 c 9.1227,0 16.4374,3.5783 20.2776,9.2917 2.0293,2.9763 3.0822,7.3894 3.0822,12.0376 v 100.2043 h -28.083 c 0,-40.5262 0,-81.0508 0,-121.5733 z"
       style="fill:#1b1918;fill-rule:evenodd"
       id="path4" />
    <path
       d="m 1165.687,1559.7174 4.7191,0.04 c 9.1251,0 16.4374,3.5783 20.279,9.2917 2.0279,2.9763 3.0809,7.3894 3.0809,12.0376 0,33.3976 0,66.8006 0,100.2043 h -28.084 z"
       style="fill:#1b1918;fill-rule:evenodd"
       id="path6" />
    <path
       d="m 1344.5117,1606.2851 v -25.0793 l 4.7208,0.038 c 9.1244,0 16.4364,3.581 20.279,9.292 2.0279,2.9786 3.0809,7.391 3.0809,12.0385 v 3.7104 h 13.2453 v 19.5664 h -13.243 v 24.4888 h 0.01 l 0.031,5.8301 v 0.01 c 0.035,3.0527 2.5087,5.5196 5.5654,5.5461 h 7.6382 v 19.5664 h -3.1341 v 0 h -12.7285 c 0,0 -25.4593,0 -25.4593,-25.4586 v -1.185 -0.2134 0 -8.5873 -0.4041 -0.4011 l -10e-4,-0.797 v -0.391 -0.02 -0.3696 -0.3871 -0.2223 -0.1609 -0.3807 -0.3793 -0.039 -0.3357 l -9e-4,-0.3719 v -0.2344 -0.1361 -0.3662 -0.3638 -0.056 -0.3036 -0.3583 -0.2431 -0.111 -0.3528 -0.3492 -0.073 -0.2721 -0.3438 -0.2504 -0.089 l -7e-4,-0.3373 v -0.3342 -0.086 -0.247 -0.3261 -0.2576 -0.068 -0.6426 -0.1 -0.2165 -0.3139 -0.2616 -0.05 l -10e-4,-1.2148 -7e-4,-0.264 v -0.032 -0.2948 -0.2881 -0.1225 -0.1666 -0.2841 -0.268 -0.014 -1.3652 -0.2633 -0.2609 -0.1375 -0.1225 -0.2559 -0.5008 -0.2463 -0.1433 -0.1014 l -7e-4,-0.2406 v -0.4734 -0.232 -0.1449 -0.084 -0.227 l -9e-4,-0.2239 v -0.035 -0.1846 h -12.8992 v -19.5664 z"
       style="fill:#1b1918;fill-rule:evenodd"
       id="path8" />
    <path
       d="m 813.5662,1606.2827 4.7192,0.038 c 8.9842,0 16.2127,3.4738 20.0995,9.0327 4.4961,-6.0757 12.3952,-9.2186 20.0302,-9.0704 h 21.9133 c 0,0 12.5119,0 19.993,8.7732 4.5277,-5.8759 12.2873,-8.915 19.7913,-8.7732 h 3.1677 8.2371 12.2157 c 0.9842,0 1.951,0.065 2.9298,0.1747 6.2077,0.6973 22.2889,4.4929 23.0175,23.908 h 0.004 v 0.1014 c 0.0146,0.418 0.0234,0.8422 0.0234,1.2752 0,2.5884 -0.009,4.9736 -0.0234,7.2051 v 42.3412 h -7e-4 v 0 h -28.083 v -13.9626 c -0.0112,-0.2215 -0.017,-0.4421 -0.017,-0.661 v -35.4137 c -0.1062,-2.9038 -2.4167,-5.2458 -5.3085,-5.3978 l -30.9989,0.01 c 0.2561,1.3977 0.4227,2.8942 0.4838,4.4986 l 0.002,50.9229 h -28.083 l -0.0167,-50.0533 c -7e-4,-2.8987 -2.4225,-5.2298 -5.3093,-5.3818 l -30.7623,0.01 0.0709,55.4256 h -28.0814 c 0,-25.0172 -0.0146,-49.9932 -0.0146,-75.0097 z"
       style="fill:#1b1918;fill-rule:evenodd"
       id="path10" />
    <path
       d="m 1320.3146,1644.4827 v 2.2711 l 0.039,0.011 0.023,34.5233 v 0 l -0.062,-0.012 v 0.012 l -4.7191,-0.04 c -8.7274,0 -15.7964,-3.2732 -19.7557,-8.556 -6.4451,8.6391 -18.7775,8.6381 -20.646,8.5858 v 0.01 h -22.2884 v 0 h -12.7316 -0.1612 -0.4282 v -0.017 c -3.8077,-0.1891 -24.8702,-2.2814 -24.8702,-25.4393 v -3.6089 0 -1.7655 -0.9403 -1.3709 c -0.1048,-4.3883 -0.1523,-9.8007 -0.1523,-16.4076 0,-22.5169 19.9135,-25.1172 24.5152,-25.4192 v -0.039 h 0.9257 12.7478 29.3848 10.3778 2.353 c 0,0 25.458,0 25.458,25.4586 0,2.3313 -0.01,4.5081 -0.019,6.553 v 6.1908 z m -28.0909,17.2206 v -27.0074 l -0.021,-3.696 c -0.2335,-2.8837 -2.6495,-5.1539 -5.595,-5.1539 v -9e-4 h -38.3143 v 9e-4 l -0.031,8e-4 v 0 c -0.085,0 -0.1699,0 -0.2544,0.01 v 0 l -0.1215,0.01 -0.022,7e-4 c -2.5321,0.1917 -4.5945,2.0649 -5.0751,4.5034 h 0.026 v 21.8578 0 l 0.022,3.8851 h 0.011 v 0 0.1432 0 0.1415 0 l 0.01,0.1401 v 0 l 0.013,0.1409 v 0 l 0.014,0.1385 v 0 l 0.021,0.1377 v 0 l 0.022,0.1368 v 0 l 0.027,0.1344 v 0 l 0.029,0.1344 v 0 l 0.034,0.1337 v 0 l 0.037,0.1311 v 0 l 0.037,0.1304 v 0 l 0.042,0.1297 v 0 l 0.047,0.1273 0.048,0.127 h 7e-4 l 0.05,0.1246 v 0 c 0.055,0.1248 0.1117,0.2487 0.1737,0.3695 h 8e-4 c 0.041,0.08 0.084,0.1585 0.1289,0.2368 h 7e-4 c 0.045,0.078 0.092,0.1554 0.1394,0.2294 v 0 l 0.074,0.1103 v 0 c 1.0102,1.4918 2.7177,2.4731 4.6547,2.4731 v 0 h 26.4956 v -0.019 z"
       style="fill:#1b1918;fill-rule:evenodd"
       id="path12" />
    <path
       d="m 644.4182,1559.7174 4.7222,0.04 c 9.1227,0 16.434,3.5783 20.2766,9.2917 2.0279,2.9763 3.0809,7.3894 3.0809,12.0376 0,17.5995 0.004,35.2022 0.004,52.8067 h 14.4377 c 16.2949,-1.7524 24.874,-13.8137 30.4232,-27.608 9.2241,0 15.8289,0 25.053,0 -2.0329,14.8957 -10.1243,22.8366 -20.3886,30.2093 9.7274,3.4035 19.8871,11.7936 19.8871,29.6946 l 0.0336,15.1058 h -28.1265 l -0.0733,-22.7158 c -0.2487,-2.8524 -2.6325,-5.0951 -5.545,-5.1202 h -35.7012 v 27.8353 h -28.083 c 0,-40.526 -7e-4,-81.0511 -7e-4,-121.5767 z"
       style="fill:#1b1918;fill-rule:evenodd"
       id="path14" />
    <path
       d="m 527.4941,1606.2847 c 8.4147,0 17.6127,2.154 23.2369,9.1602 6.1114,-8.9033 18.305,-9.1947 20.8233,-9.1568 h 16.8547 10.8501 1.8798 c 0,0 24.5299,0 25.4313,24.0839 l -0.0119,50.9223 h -28.0831 c 0,-16.6821 0,-33.3648 0,-50.0468 -0.1129,-2.9764 -2.6007,-5.3946 -5.5791,-5.3946 l -37.3049,0.015 -0.0153,55.4261 h -28.0831 c 0,-25.0025 10e-4,-50.0063 10e-4,-75.0089 z"
       style="fill:#1b1918;fill-rule:evenodd"
       id="path16" />
    <path
       d="m 509.6471,1644.4827 v 2.2711 l 0.0401,0.011 0.0217,34.5233 v 0 l -0.0618,-0.012 v 0.012 l -4.7192,-0.04 c -8.7276,0 -15.7974,-3.2732 -19.7574,-8.556 -6.4443,8.6391 -18.7768,8.6381 -20.6445,8.5858 v 0.01 h -22.2899 v 0 h -12.7309 -0.1618 -0.4259 v -0.017 c -3.8087,-0.1891 -24.8702,-2.2814 -24.8702,-25.4393 v -3.6089 h -0.002 v -1.7655 -0.9403 l -7e-4,-1.3709 c -0.1048,-4.3883 -0.1523,-9.8007 -0.1523,-16.4076 0,-22.5169 19.9136,-25.1172 24.516,-25.4192 v -0.039 h 0.9257 12.7464 29.3864 10.3776 2.3516 c 0,0 25.4603,0 25.4603,25.4586 0,2.3313 -0.006,4.5081 -0.0186,6.553 v 6.1908 z m -28.0929,17.2206 v -27.0074 l -0.0184,-3.696 c -0.2344,-2.8837 -2.6502,-5.1539 -5.5976,-5.1539 v -9e-4 h -38.3119 v 9e-4 l -0.0313,8e-4 v 0 c -0.0854,0 -0.1707,0 -0.2535,0.01 h -0.005 l -0.1215,0.01 -0.0217,7e-4 c -2.5328,0.1917 -4.5936,2.0649 -5.0741,4.5034 h 0.0265 v 21.8578 h -0.002 l 0.0227,3.8851 h 0.01 v 0 l 0.002,0.1432 v 0 l 0.006,0.1415 v 0 l 0.01,0.1401 v 0 l 0.0128,0.1409 v 0 l 0.0153,0.1385 v 0 l 0.0201,0.1377 v 0 l 0.0234,0.1368 v 0 l 0.0257,0.1344 v 0 l 0.0299,0.1344 v 0 l 0.0322,0.1337 v 0 l 0.037,0.1311 v 0 l 0.0404,0.1304 v 0 l 0.0417,0.1297 v 0 l 0.0452,0.1273 0.0475,0.127 h 10e-4 l 0.0515,0.1246 h 0.002 c 0.0533,0.1248 0.1096,0.2487 0.1714,0.3695 v 0 c 0.0404,0.08 0.0855,0.1585 0.1296,0.2368 v 0 c 0.0452,0.078 0.0927,0.1554 0.1402,0.2294 h 0.002 l 0.0725,0.1103 v 0 c 1.0079,1.4918 2.7171,2.4731 4.654,2.4731 v 0 h 26.4953 v -0.019 z"
       style="fill:#1b1918;fill-rule:evenodd"
       id="path18" />
    <path
       d="m 389.1742,1630.367 h -0.0404 c -0.8042,-21.484 -20.4143,-23.8033 -24.6326,-24.053 v -0.031 h -0.7802 -12.7478 -17.4194 -1.3872 -0.5304 v 0 c -2.9126,-0.016 -14.51,0.4741 -20.4989,8.9897 v -15.6661 h 0.0153 v -11.6996 h 0.003 v -6.8258 c 0,-0.3213 -0.007,-0.645 -0.0179,-0.9646 v -0.4629 h -0.0176 c -0.1941,-4.1138 -1.2277,-7.9408 -3.0455,-10.6111 -3.8433,-5.7134 -11.1547,-9.2919 -20.2822,-9.2919 l -4.7191,-0.039 h -0.0186 v 28.195 h 9e-4 v 67.039 h 0.003 v 0.8864 c 0,25.4586 25.4587,25.4586 25.4587,25.4586 h 12.7294 v 0 h 29.7373 v 0 h 12.7309 0.1618 0.6248 v -0.028 c 4.282,-0.2519 24.672,-2.6438 24.672,-25.4288 v -3.6082 h 0.001 v -1.7672 -0.9403 c 0.0102,-17.7286 0.0594,-11.2334 0.0594,-11.2334 l -0.0594,0.022 z m -78.0369,-4.5026 h 20.4989 0.677 1.2406 v -0.015 h 21.8753 v 0 h 0.0308 v 0 l 0.1351,10e-4 0.1224,0.01 c 2.9672,0.1506 5.3253,2.6027 5.3253,5.6064 h 0.002 l 0.0299,5.7714 h 7e-4 v 14.9898 0 l -0.0201,3.8844 h -0.0121 v 0 l -0.002,0.1425 v 0 l -0.004,0.1425 v 10e-4 l -0.01,0.1415 v 0 l -0.0122,0.1401 v 0 l -0.016,0.1385 v 9e-4 l -0.021,0.1392 v 0 l -0.0217,0.1384 v 8e-4 l -0.0265,0.1353 v 0 l -0.0291,0.1337 v 9e-4 l -0.0347,0.1344 v 0 l -0.0353,0.1322 v 7e-4 l -0.0387,0.1328 h -7e-4 l -0.042,0.1289 v 0 l -0.0451,0.1263 -0.0499,0.1282 v 0 l -0.0516,0.1239 v 0 c -0.0537,0.1272 -0.1102,0.248 -0.173,0.3688 v 0 c -0.0418,0.08 -0.0852,0.1587 -0.1296,0.2358 h -0.002 l -0.1394,0.2304 v 7e-4 l -0.074,0.1112 v 0 c -0.2029,0.2979 -0.4316,0.5765 -0.6858,0.83 v 0 c -1.016,1.0145 -2.4201,1.6416 -3.9689,1.6416 h -38.8118 c -2.8089,-0.065 -5.108,-2.1945 -5.4381,-4.9309 l -0.0354,-6.4531 h -0.007 z"
       style="fill:#1b1918;fill-rule:evenodd"
       id="path20" />
    <path
       d="m 644.3961,1394.7898 v -55.7257 c -3.694,0 -7.3886,0.061 -11.0827,0.09 -21.4203,0 -38.5869,8.4056 -47.6073,21.8158 -4.7618,6.9907 -7.1966,17.3496 -7.1966,28.2639 0,15.18 0,30.3613 0,45.5413 0,15.2625 -12.3552,27.6455 -27.6067,27.6927 H 376.6336 c -15.2915,0 -27.6939,-12.4025 -27.6939,-27.694 0,-15.0916 0,-30.1844 0,-45.276 0,-12.4721 -4.8073,-29.3698 -21.8849,-39.9268 -12.2837,-7.468 -26.0883,-10.5109 -41.2889,-10.5109 h -2.711 c 0,37.1594 0,74.3189 0,111.4783 0,31.873 25.8199,57.7293 57.6785,57.7911 l 31.8961,0.01 178.3708,-0.01 -0.001,0.01 h 25.6092 c 14.1328,0 28.451,-5.3778 40.2653,-15.7227 l 0.0824,-0.072 c 10.5109,9.2699 24.1246,15.1546 39.0812,15.7863 4.8187,0 9.6381,0 14.4568,0 h 40.8989 c 16.0201,0 30.6484,-5.9659 41.7916,-15.7924 11.48,10.1239 26.4923,15.7924 41.7916,15.7924 l 87.0047,-0.01 c 14.4333,0 27.3099,-6.6739 35.7173,-17.1006 16.3817,18.6633 44.8133,17.1006 44.8133,17.1006 h 50.5376 c 31.7852,-0.3501 57.7923,-25.7297 57.7923,-57.7923 v -54.0832 c -0.3325,-31.3468 -25.6418,-56.7191 -56.9625,-57.1607 h -92.9064 c -31.4733,0.2556 -56.9656,25.6879 -57.3151,57.1383 v 52.6477 c -0.295,7.4407 -6.5025,13.386 -14.0153,13.386 h -34.3424 c -15.2915,0 -27.6939,-12.4025 -27.6939,-27.694 v -81.3313 -119.1388 l -11.0766,0.091 c -21.4082,0 -38.5652,8.4056 -47.5807,21.8153 -4.7582,6.9907 -7.2293,17.3501 -7.2293,28.2644 v 150.3947 c -0.0515,15.2473 -12.4334,27.5989 -27.6927,27.5989 l -56.452,-7e-4 c 3.7,-9.4745 6.1942,-20.347 6.7884,-32.5532 0,-11.7083 0.0333,-23.4172 0.0333,-35.1256 z m -137.5265,-114.5132 29.8283,29.8289 c 3.5147,3.5147 3.5147,9.2674 0,12.7834 l -29.8283,29.8289 c -3.5166,3.5159 -9.2681,3.5159 -12.784,0 l -27.697,-27.6969 -27.6963,27.6969 c -3.5165,3.5159 -9.2692,3.5159 -12.784,0 l -29.8301,-29.8289 c -3.5147,-3.516 -3.5147,-9.2687 0,-12.7834 l 29.8301,-29.8289 c 3.5148,-3.516 9.2675,-3.516 12.784,0 l 27.6963,27.6969 27.697,-27.6969 c 3.5159,-3.516 9.2674,-3.516 12.784,0 z m 420.1329,182.1927 h 66.6031 c 7.5334,0 13.6737,-5.9786 13.9366,-13.4484 l 0.01,-53.2431 c 0,-7.6497 -6.1646,-13.8633 -13.7955,-13.9451 l -52.8385,0.01 c -7.3917,0 -13.4424,5.7551 -13.916,13.0275 z"
       style="fill:#1b1918;fill-rule:evenodd"
       id="path22" />
    <path
       d="m 1765.4658,1234.2949 11.0633,0.091 c 21.4197,0 38.5864,8.4056 47.6073,21.8159 4.7612,6.9907 7.2033,17.3495 7.2033,28.2638 v 150.3099 c 0,15.2594 12.3515,27.6413 27.5988,27.6927 h 45.0701 c 7.7006,0 13.9469,-6.2463 13.9469,-13.9469 l -6e-4,-59.2944 c 0,-10.9143 2.4724,-21.2731 7.2342,-28.2638 9.0203,-13.4103 26.187,-21.8159 47.6067,-21.8159 l 11.0457,-0.09 c 0,37.1606 -0.01,74.3224 -0.01,111.4831 0,31.9112 -25.8806,57.7917 -57.7918,57.7923 H 1823.256 c -31.9113,0 -57.7924,-25.8811 -57.7924,-57.7923 z m 117.5277,296.1227 29.8786,29.8798 c 3.5226,3.5214 3.5226,9.282 0,12.807 l -29.8786,29.8798 c -3.522,3.5214 -9.2856,3.5214 -12.807,0 l -29.881,-29.8798 c -3.5208,-3.525 -3.5208,-9.2856 0,-12.807 l 29.881,-29.8798 c 3.5214,-3.522 9.285,-3.522 12.807,0 z m -514.5862,-191.1222 c 0,0 -13.8288,27.4014 -13.8288,27.4014 10.8471,0 16.8148,0 27.6619,0 5.8132,0 15.624,-2.3034 20.3325,-12.5005 l 8.0888,-17.5053 c 3.6577,-7.9156 2.7637,-14.3769 -0.5615,-18.2944 -3.3251,-3.9175 -7.3214,-5.3251 -11.0009,-5.3251 h -11.2607 c 0,0 13.8288,-27.4014 13.8288,-27.4014 -10.8471,0 -16.8148,0 -27.6618,0 -5.8133,0 -15.624,2.3034 -20.3325,12.5006 l -8.0888,17.5052 c -3.6577,7.9156 -2.7637,14.3769 0.5614,18.2944 3.3252,3.9175 7.3214,5.3251 11.0009,5.3251 z m 272.0598,-85.7624 29.8289,29.8277 c 3.5147,3.5147 3.5147,9.2662 0,12.7846 l -29.8289,29.8277 c -3.5147,3.5147 -9.2674,3.5147 -12.7846,0 l -29.8265,-29.8277 c -3.5153,-3.5184 -3.5153,-9.2699 0,-12.7846 l 29.8265,-29.8277 c 3.5172,-3.516 9.2699,-3.516 12.7846,0 z m -81.6578,-19.2381 -11.0463,0.091 c -21.4203,0 -38.587,8.4056 -47.6073,21.8159 -4.7612,6.9907 -7.2336,17.3495 -7.2336,28.2638 0,50.1058 0.019,100.1939 0.024,150.3099 0,15.2594 -12.3515,27.6413 -27.5988,27.6927 h -174.4448 c -15.2473,-0.051 -27.5989,-12.4333 -27.5989,-27.6927 0,-15.0934 0,-30.1874 0,-45.2809 0,-12.472 -4.8072,-29.3698 -21.8848,-39.9267 -12.2837,-7.468 -26.0883,-10.5103 -41.2889,-10.5103 h -2.7117 v 111.6702 c 0.1017,31.7798 25.869,57.5301 57.6554,57.6028 l 229.4693,-0.025 c 15.2225,-0.4821 29.0876,-6.3511 39.7572,-15.7597 10.8821,9.5963 25.0889,15.5089 40.6693,15.7809 l 88.6042,0.01 c 31.9101,-6e-4 57.7906,-25.8817 57.7906,-57.7923 v -89.6891 l 6e-4,-21.7946 -11.0445,0.091 c -21.4197,0 -38.5864,8.4056 -47.6073,21.8159 -4.7612,6.9907 -7.2336,17.3495 -7.2336,28.2638 l -0.058,59.9819 c -0.358,7.3814 -6.4602,13.2594 -13.93,13.2594 h -45.0877 c -15.2472,-0.051 -27.5988,-12.4333 -27.5988,-27.6927 z"
       style="fill:#1b1918;fill-rule:evenodd"
       id="path24" />
    <path
       d="m 1120.3883,529.2758 v 153.5137 1.4196 l -1.4086,0.1902 -0.1088,0.0143 h -0.013 l -1.5307,0.1946 v 0.002 l -1.5439,0.2145 h -0.01 l -0.1891,0.0253 v 0.003 l -1.512,0.2276 v -0.003 l -1.4812,0.2386 v 10e-4 l -0.397,0.0671 v 0.002 l -1.5449,0.2694 v -0.005 l -1.5032,0.2793 v 0.003 l -0.084,0.0165 h -0.01 l -1.5659,0.309 v -0.002 l -1.5394,0.3222 v -0.003 l -0.2573,0.0572 -1.5032,0.3342 v 0.003 l -1.5142,0.3552 v -0.002 l -0.1166,0.0286 h -0.01 c -6.8517,1.6484 -13.5287,3.8003 -19.9802,6.4087 v 0.002 c -1.3151,0.5322 -2.5643,1.0567 -3.7442,1.5724 -1.236,0.5399 -2.4676,1.1008 -3.6804,1.6737 v -0.002 l -0.035,0.0165 -0.01,0.004 -1.3812,0.663 v 0.002 l -1.3921,0.6873 h -0.01 l -0.1957,0.0968 v 10e-4 l -1.2338,0.6257 v 0.003 l -1.2426,0.6465 v -0.001 l -0.5509,0.2881 v 0.002 l -1.2019,0.6466 -1.1832,0.651 v -0.002 l -0.4046,0.2254 c -0.5158,0.2881 -1.0964,0.6213 -1.7165,0.982 l -0.3409,0.1979 -0.3398,0.198 -0.01,0.003 v 0.002 l -0.3695,0.2177 v -0.005 l -1.2316,0.7334 v 0.004 l -1.2425,0.7577 v -0.003 l -0.1749,0.1088 -1.2635,0.7896 v 0.003 l -1.2645,0.8115 v 0.002 l -0.1551,0.1012 h -0.01 c -3.7849,2.462 -7.4554,5.1099 -10.9973,7.925 -0.7709,0.6125 -1.4548,1.1645 -2.0519,1.656 -0.6037,0.496 -1.291,1.0766 -2.0156,1.6957 v -0.002 0.002 l -0.019,0.0187 -0.1276,0.1066 -1.126,0.9798 -1.1095,0.982 -0.1639,0.1462 v 10e-4 l -1.0039,0.9116 v -0.003 l -0.9809,0.9116 v 10e-4 l -0.5003,0.4662 -0.9578,0.9094 -0.9501,0.9204 -0.353,0.3442 -0.9203,0.9116 -0.9215,0.9314 -0.5509,0.5652 -0.8006,0.8302 -0.7829,0.828 -0.7708,0.8302 -0.6972,0.7566 -0.6994,0.7686 v -0.002 l -0.8973,1.0139 v 0.001 l -0.6597,0.751 v -0.002 l -0.64,0.7379 -0.6818,0.806 v -0.002 l -0.7389,0.8808 -0.7269,0.8742 v 10e-4 l -0.5366,0.6664 -0.7598,0.9446 v -0.002 l -0.7324,0.9248 v 10e-4 l -0.4332,0.5619 c -1.7045,2.2003 -3.3605,4.4744 -4.9539,6.8111 l -0.9302,1.3767 v -0.003 l -0.9061,1.3735 v 0.0121 l -0.011,0.0175 -0.2529,0.3838 v -0.003 l -0.5488,0.8599 -0.5421,0.8643 v 0.002 l -0.7521,1.203 v -10e-4 l -0.7972,1.3273 v -0.002 l -0.1375,0.2298 v 0.005 l -0.011,0.0176 -0.7279,1.2371 c -0.3739,0.6378 -0.6136,1.0633 -0.8501,1.4812 l 0.01,10e-4 -0.067,0.1187 v -0.002 l -0.728,1.3031 v 0 l -0.4354,0.8005 -0.441,0.8226 v 0.002 l -0.7092,1.3437 v -10e-4 l -0.7808,1.523 0.01,0.003 -0.74,1.4867 v -0.002 l -0.7698,1.59 v -0.002 l -0.6564,1.4054 v 0 l -0.7137,1.5636 v 0.002 l -0.5102,1.1613 -0.1298,0.2991 -0.7367,1.7154 -0.5916,1.4515 v -0.002 l -0.6158,1.5274 v 0 c -0.3035,0.7741 -0.4861,1.2579 -0.6587,1.7187 v 0.008 l -0.081,0.2155 v 0 l -0.01,0.0231 v 0.007 l -0.453,1.2041 c -0.3431,0.9457 -0.6323,1.7704 -0.9149,2.5918 v 0.005 l -0.199,0.5729 v -0.002 l -0.4806,1.446 v 0 l -0.4772,1.4933 -0.4563,1.501 0.007,0.002 -0.3189,1.0579 -0.007,-0.002 -0.3024,1.0402 h -0.002 l -0.3035,1.104 -0.1397,0.5103 0.005,0.002 -0.4288,1.5911 -0.3651,1.446 h -10e-4 l -0.4794,1.9596 -0.3068,1.358 h -10e-4 c -0.1166,0.5257 -0.2354,1.0546 -0.4146,1.9178 h -0.002 l -0.3101,1.534 h 0.003 l -0.3618,1.8979 h 10e-4 l -0.2639,1.4922 h -0.003 l -0.3112,1.8815 h 0.002 l -0.2419,1.5835 h -0.002 l -0.2683,1.9034 h -10e-4 l -0.2001,1.5384 h 0.005 l -0.2167,1.8705 h -10e-4 l -0.1737,1.6494 h -0.002 l -0.1682,1.887 h 0.003 l -0.1309,1.6043 -0.1001,1.5362 v 0.008 l -0.0143,0.2518 v 0.005 l -0.0132,0.2034 -0.0165,0.2585 -0.0725,1.2315 -0.0814,2.0146 -0.011,0.3419 -0.0407,1.1909 -0.0363,1.7759 -0.011,1.7715 0.0121,1.8386 0.0374,1.8507 v 0.0187 l 0.008,0.0297 v 0.003 h -0.005 l 0.0572,1.788 0.0814,1.8408 10e-4,0.0242 0.007,0.0571 v 0.008 h -0.002 l 0.0978,1.7341 h 0.002 l 0.1287,1.8298 0.1495,1.8287 h -0.003 l 0.165,1.7264 10e-4,0.009 0.008,0.0704 c 0.2408,2.3587 0.5454,4.746 0.9138,7.1487 h -0.004 l 0.002,0.008 0.2738,1.7297 h 0.003 l 0.3013,1.7396 0.005,0.0319 0.01,0.0572 10e-4,0.011 0.008,0.044 h -0.003 l 0.3123,1.6901 h 0.003 l 0.3419,1.7264 v 0.0154 h 0.003 l 0.005,0.0275 h -0.003 c 0.3398,1.6505 0.7082,3.2923 1.0997,4.9175 h 0.002 l 0.2353,0.9556 h 0.003 l 0.2463,0.9666 v 0.0187 l 0.0121,0.0539 0.002,0.003 0.453,1.7121 h -0.002 l 0.4696,1.6857 0.004,0.0275 0.005,-0.002 c 0.2265,0.7994 0.4618,1.5934 0.6982,2.3796 l -0.003,0.002 0.1397,0.4542 0.1451,0.4673 0.0121,0.0319 0.011,0.0385 -0.003,0.002 0.5323,1.6747 v 0 l 0.541,1.6253 v -0.002 l 0.014,0.0428 v 0.005 l 0.5641,1.6286 0.5729,1.6011 0.013,0.0186 0.019,0.0528 v 0.002 0.005 l 0.5806,1.5549 v 0 l 0.6037,1.5582 v 0 l 0.089,0.2254 v 0 l 0.6081,1.5164 v 0 l 0.6378,1.5373 0.033,0.0802 -0.01,10e-4 0.01,0.0154 0.5927,1.3328 -1.2679,0.7301 -97.8611,56.499 -2.4379,1.4086 v -2.8151 -347.8137 -32.3577 c 0,-22.7469 12.2696,-42.6282 30.5454,-53.3979 l 1.0457,-0.6037 42.1993,-24.3645 146.1281,-84.3712 v 0.002 c 4.8647,-2.8558 8.9597,-4.2281 13.1559,-4.1654 h 0.01 c 4.1852,0.0649 8.3462,1.5592 13.3648,4.4282 v 0.006 l 190.6586,110.0574 c 17.3774,10.9732 28.9245,30.3443 28.9245,52.4094 v 32.3577 61.6804 2.8206 l -2.4466,-1.4142 -232.0837,-134.1602 c -1.932,-1.0743 -3.9806,-1.6285 -5.9105,-1.6285 -1.4789,0 -2.8854,0.3266 -4.0939,0.9907 -1.204,0.662 -2.2432,1.6693 -3.0008,3.0262 -0.8929,1.5967 -1.4219,3.7069 -1.4219,6.3504 z"
       style="fill:#000200;fill-rule:evenodd"
       id="path26" />
    <path
       d="m 887.159,988.5555 132.9458,-76.7578 1.2283,-0.7117 0.8691,1.1248 0.067,0.0871 0.01,0.0115 0.9339,1.2283 v -10e-4 l 0.9576,1.2298 v 0.006 l 0.1165,0.1511 v -0.002 l 0.9532,1.1956 v 0.002 l 0.9473,1.1634 9e-4,-5e-4 0.2566,0.3102 v -10e-4 l 1.0058,1.2033 v 0.003 l 0.9935,1.1622 v -0.002 l 0.056,0.0642 v 0.005 l 1.0505,1.2016 v 10e-4 l 1.0488,1.1721 v 0.002 l 0.1782,0.1942 1.0411,1.1347 v -0.004 l 1.0647,1.1338 v 10e-4 l 0.083,0.0866 v 0.006 c 4.8533,5.1097 10.0555,9.8161 15.5401,14.0991 l 8e-4,-0.003 c 1.1185,0.8729 2.1973,1.6924 3.2339,2.4564 1.0856,0.8004 2.187,1.5866 3.2896,2.3506 v 10e-4 l 0.032,0.0222 0.01,0.005 1.2648,0.8646 8e-4,-0.003 1.2913,0.8619 v 0.005 l 0.1817,0.1211 9e-4,-5e-4 1.1588,0.7556 v -0.003 l 1.1813,0.7528 -4e-4,10e-4 0.5249,0.333 v -10e-4 l 1.1609,0.7176 1.1553,0.6992 -8e-4,0.003 0.3976,0.2378 c 0.5073,0.3025 1.0862,0.6388 1.7086,0.9955 l 0.3419,0.1963 0.3413,0.1953 0.01,0.007 8e-4,-0.003 0.3733,0.2111 v 0.006 l 1.251,0.6999 v -0.004 l 1.2774,0.6972 v 0.004 l 0.1817,0.097 1.3155,0.6994 v -0.004 l 1.3351,0.6893 8e-4,-0.003 0.1651,0.0837 v 0.005 c 4.0246,2.0468 8.153,3.9016 12.3619,5.5615 0.9158,0.3613 1.7359,0.6776 2.4601,0.949 0.7313,0.2748 1.5778,0.5797 2.4763,0.8977 l -8e-4,0.003 v -2e-4 l 0.025,0.007 0.1562,0.0572 1.4115,0.4853 1.4052,0.4699 0.2086,0.0687 -2e-4,-0.002 1.2914,0.4136 -6e-4,0.005 1.2799,0.3936 4e-4,-0.001 0.6539,0.2002 1.2665,0.3748 1.2721,0.3626 0.4745,0.1336 1.2497,0.3413 1.2673,0.3323 0.765,0.1945 1.1192,0.2782 1.1086,0.264 1.1044,0.2525 1.0038,0.2255 1.0153,0.2213 v 0.002 l 1.3267,0.2701 v -0.004 l 0.9803,0.1959 -8e-4,0.003 0.959,0.1853 1.0389,0.1874 -8e-4,0.003 1.1322,0.1996 1.1206,0.1924 -2e-4,-0.002 0.8454,0.1316 1.198,0.1857 v 0.002 l 1.1671,0.1718 -2e-4,-0.002 0.7033,0.0943 c 2.7577,0.3759 5.5551,0.6731 8.3755,0.8846 l 1.6574,0.1173 v 0.005 l 1.6424,0.098 0.011,-0.006 0.021,7e-4 0.4588,0.0272 -7e-4,0.005 1.0191,0.0453 1.0195,0.0373 -3e-4,-0.005 1.4179,0.0499 2e-4,0.003 1.548,0.0267 v 0.002 l 0.2677,0.004 v -0.003 l 0.021,7e-4 1.4353,0.0119 c 0.7393,0.005 1.2277,-3e-4 1.7078,-0.004 v -0.005 l 0.1364,-10e-4 -8e-4,0.003 1.4924,-0.0211 v 0.002 l 0.911,-0.0231 0.9328,-0.0294 8e-4,-0.003 1.5184,-0.0577 10e-5,0.003 1.7093,-0.0854 -4e-4,-0.007 1.6575,-0.1025 -2e-4,0.004 1.7619,-0.1284 v 0.002 l 1.5453,-0.1341 v -0.002 l 1.711,-0.1638 3e-4,-0.004 1.2607,-0.1387 0.3239,-0.0372 1.854,-0.2196 1.5528,-0.2134 -8e-4,0.003 1.6307,-0.2304 v -0.002 c 0.8221,-0.1243 1.3324,-0.2081 1.8178,-0.289 l 0.01,-0.004 0.2274,-0.0373 5e-4,9e-4 0.025,-0.003 0.01,-0.003 1.2693,-0.2097 c 0.9905,-0.1758 1.8493,-0.3377 2.702,-0.5036 v -0.003 l 0.5956,-0.1141 -8e-4,0.003 1.4926,-0.3068 v -0.002 l 1.5318,-0.3334 1.5281,-0.3553 v -0.007 l 1.0755,-0.2527 v 0.007 l 1.0521,-0.2582 v 0.002 l 1.1079,-0.2892 0.5117,-0.1342 -9e-4,-0.006 1.5924,-0.4242 1.4349,-0.4069 5e-4,10e-4 1.9367,-0.5646 1.3295,-0.4133 6e-4,9e-4 c 0.5134,-0.1618 1.0309,-0.3234 1.8681,-0.5998 v 0.002 l 1.4835,-0.4984 v -0.003 l 1.8246,-0.6357 -6e-4,-9e-4 1.4243,-0.5176 v 0.003 l 1.785,-0.6712 v -0.002 l 1.4923,-0.5822 v 0.002 l 1.7826,-0.7193 5e-4,9e-4 1.4324,-0.5959 v -0.005 l 1.7282,-0.7476 5e-4,9e-4 1.5154,-0.6743 v 0.002 l 1.7182,-0.7978 v -0.003 l 1.4548,-0.6888 1.3804,-0.6815 0.01,-0.004 0.2252,-0.1135 v -0.003 l 0.1828,-0.0903 0.232,-0.1149 1.1029,-0.5529 1.7853,-0.9368 0.3016,-0.1615 1.0517,-0.5602 1.5561,-0.8565 1.5397,-0.8763 1.5862,-0.9297 1.584,-0.9578 0.016,-0.009 0.022,-0.0215 v -0.002 0.005 l 1.5199,-0.9435 1.5534,-0.9909 0.02,-0.013 0.046,-0.0343 0.01,-0.004 v 0.002 l 1.4529,-0.9518 v -0.002 l 1.5203,-1.0263 1.5089,-1.0439 v 0.003 l 1.4127,-1.0061 0.01,-0.005 0.057,-0.0419 c 1.9223,-1.3879 3.8375,-2.8453 5.7341,-4.3657 v 0.004 l 0.01,-0.006 1.3611,-1.102 v -0.003 l 1.3558,-1.1307 0.025,-0.0207 0.045,-0.0372 0.01,-0.006 0.034,-0.0287 v 0.003 l 1.3075,-1.1155 v -0.003 l 1.3242,-1.1594 0.013,-0.008 v -0.003 l 0.021,-0.0185 v 0.003 c 1.2595,-1.1195 2.4971,-2.2594 3.7088,-3.411 l -10e-4,-0.002 0.7098,-0.6816 v -0.003 l 0.7139,-0.6966 0.016,-0.009 0.041,-0.0375 v -0.004 l 1.2562,-1.2484 v 0.002 l 1.2251,-1.2495 0.022,-0.0176 v -0.004 c 0.579,-0.5959 1.1489,-1.1967 1.7116,-1.7945 v 0.002 l 0.3234,-0.348 0.3322,-0.3594 0.022,-0.0264 0.028,-0.0288 v 0.002 l 1.1843,-1.2983 5e-4,10e-4 1.137,-1.2812 v -8e-4 l 0.03,-0.0338 v -0.003 l 1.1283,-1.3028 1.1001,-1.2967 0.01,-0.0207 0.036,-0.0426 v 0.003 -0.005 l 1.0563,-1.2802 v -0.002 l 1.0475,-1.3019 v -0.002 l 0.1507,-0.1899 v 0.002 l 1.0092,-1.2848 v -0.002 l 1.0124,-1.321 0.053,-0.0687 v 0.004 l 0.01,-0.0143 0.8579,-1.1797 1.2663,0.7329 97.8599,56.5011 2.4388,1.4069 -2.4379,1.4076 -301.2145,173.9068 -28.0225,16.1789 c -19.6994,11.3734 -43.0518,10.6882 -61.5166,0.2458 l -1.0457,-0.6038 -42.1998,-24.3635 -146.1314,-84.3655 h 8e-4 c -4.9055,-2.7851 -8.1415,-5.6453 -10.1853,-9.3107 l -0.004,-0.01 c -2.0364,-3.6569 -2.8227,-8.0077 -2.8475,-13.7885 h 0.005 l -0.017,-220.1444 c 0.8143,-20.5359 11.8165,-40.2216 30.9255,-51.2542 l 28.0224,-16.1788 53.4166,-30.8402 2.4427,-1.4103 -10e-4,2.826 -0.144,268.071 c 0.0356,2.2104 0.58,4.2617 1.5449,5.933 0.7395,1.2808 1.7255,2.3355 2.905,3.05 1.1753,0.7118 2.5672,1.1081 4.1211,1.0858 1.8292,-0.0251 3.9212,-0.6221 6.2105,-1.9439 z"
       style="fill:#000200;fill-rule:evenodd"
       id="path28" />
    <path
       d="m 1401.5182,960.9007 -132.9469,-76.7558 -1.2305,-0.708 0.5395,-1.315 0.042,-0.1014 0.01,-0.0114 0.5968,-1.423 v -10e-4 l 0.5862,-1.4442 v -0.006 l 0.073,-0.1765 v -0.002 l 0.5589,-1.4232 v 0.002 l 0.534,-1.4021 -10e-4,-5e-4 0.1404,-0.3773 v -0.001 l 0.5392,-1.4727 v 0.003 l 0.5097,-1.4414 v -0.002 l 0.027,-0.0806 v -0.005 l 0.5154,-1.5106 v 10e-4 l 0.4907,-1.4943 v 0.002 l 0.079,-0.2515 0.4621,-1.4689 v 3e-4 l 0.4495,-1.489 v 0.001 l 0.034,-0.1152 v -0.006 c 1.9984,-6.758 3.4732,-13.6164 4.4401,-20.5077 v 8e-4 c 0.1967,-1.4051 0.367,-2.7492 0.5103,-4.0289 0.1504,-1.3403 0.2806,-2.6873 0.3908,-4.0242 v 10e-4 -0.0387 l 6e-4,-0.01 0.1163,-1.5276 v 8e-4 l 0.1008,-1.5493 v -0.005 l 0.014,-0.2178 v -6e-4 l 0.075,-1.3813 v 2e-4 l 0.061,-1.3994 v -4e-4 l 0.026,-0.6211 v -10e-4 l 0.041,-1.3642 0.028,-1.3502 v -8e-4 l 0.01,-0.4631 c 0.01,-0.5907 0.01,-1.2601 0.01,-1.9776 v -0.3941 -0.3933 -0.0102 8e-4 -0.4288 l 0.01,-10e-5 -0.019,-1.4333 v -3e-4 l -0.035,-1.455 v -2e-4 l -0.01,-0.2059 -0.052,-1.4889 v 2e-4 l -0.071,-1.5009 v 8e-4 l -0.01,-0.1849 v -0.005 c -0.2397,-4.5089 -0.6976,-9.0116 -1.3645,-13.4865 -0.145,-0.9739 -0.2811,-1.8422 -0.4082,-2.6051 -0.1277,-0.7708 -0.2869,-1.6562 -0.4607,-2.5934 v -8e-4 -0.002 l -0.01,-0.0256 -0.029,-0.1638 -0.2855,-1.465 -0.2956,-1.4519 -0.045,-0.215 v 10e-4 l -0.2875,-1.3253 0.01,-0.002 -0.2991,-1.3053 v 4e-4 l -0.1536,-0.6664 -0.3086,-1.2842 -0.3221,-1.283 -0.1216,-0.4777 -0.3292,-1.2529 -0.3459,-1.2637 -0.214,-0.7598 -0.3187,-1.1083 -0.3257,-1.0921 -0.3335,-1.0827 -0.3066,-0.982 -0.316,-0.99 v 2e-4 l -0.4293,-1.2841 v 0.003 l -0.3205,-0.9469 v -8e-4 l -0.319,-0.9232 -0.3572,-0.9934 v -8e-4 l -0.3933,-1.0804 -0.3936,-1.0666 v 10e-4 l -0.3088,-0.7979 -0.4381,-1.1303 v 10e-5 l -0.4348,-1.0966 v 10e-4 l -0.27,-0.6561 c -1.0534,-2.5763 -2.1947,-5.1475 -3.4217,-7.6957 l -0.7271,-1.494 v -10e-4 l -0.7364,-1.4714 -0.01,-0.006 -0.01,-0.0183 -0.2059,-0.411 0.01,-0.002 -0.4704,-0.9052 -0.4774,-0.9016 v 0.003 l -0.6658,-1.2529 v -0.001 l -0.7509,-1.3541 v 2e-4 l -0.1303,-0.234 v -0.003 l -0.01,-0.0184 -0.7074,-1.2489 c -0.3654,-0.6427 -0.6141,-1.0631 -0.8577,-1.4768 v 0.004 l -0.069,-0.1175 v -8e-4 l -0.7645,-1.282 v -0.002 l -0.4756,-0.7774 -0.4918,-0.7931 v 8e-4 l -0.8091,-1.2861 v -0.001 l -0.9285,-1.4376 -0.01,0.004 -0.9175,-1.3843 v -0.002 l -0.9922,-1.4617 v 2e-4 l -0.8888,-1.2712 v 0.002 l -0.9974,-1.3999 v 0.002 l -0.7506,-1.0225 -0.1941,-0.2619 -1.1172,-1.4958 -0.9613,-1.2381 v -8e-4 l -1.0148,-1.297 v 0.002 c -0.5187,-0.6499 -0.8464,-1.0499 -1.1591,-1.4298 l -0.01,-0.004 -0.146,-0.1782 6e-4,-10e-4 -0.015,-0.0201 -0.01,-0.003 -0.8162,-0.9944 c -0.6475,-0.77 -1.2171,-1.4328 -1.7872,-2.0882 v -0.003 l -0.3967,-0.4588 v -8e-4 l -1.012,-1.1392 v 0.002 l -1.0546,-1.1599 -1.0717,-1.1457 -0.01,0.005 -0.7567,-0.8051 0.01,-0.005 -0.7497,-0.782 v -0.002 l -0.8043,-0.8149 -0.3721,-0.376 v 0.004 l -1.1636,-1.167 -1.0697,-1.0391 5e-4,-10e-4 -1.4572,-1.395 -1.0227,-0.9447 5e-4,-9e-4 c -0.3969,-0.3638 -0.7956,-0.7311 -1.4535,-1.3179 v -0.002 l -1.1735,-1.0356 v 0.003 l -1.4628,-1.2623 -5e-4,9e-4 -1.1604,-0.9746 v -0.003 l -1.4738,-1.2102 v 0.002 l -1.2504,-1.0012 v -0.002 l -1.5142,-1.1841 5e-4,-0.001 -1.2322,-0.9425 v 0.005 l -1.5115,-1.1229 5e-4,-9e-4 -1.3415,-0.9752 v -0.002 l -1.5501,-1.0892 v 0.003 l -1.324,-0.9155 -1.2803,-0.8548 -0.01,-0.004 -0.2109,-0.1383 v -0.003 l -0.1696,-0.1131 -0.2155,-0.1435 -1.0303,-0.6787 -1.7039,-1.0777 -0.2907,-0.1805 -1.011,-0.6307 -1.5198,-0.9194 -1.5287,-0.8952 -1.5983,-0.9089 -1.6214,-0.8929 -0.016,-0.009 -0.03,-0.008 v -0.002 -0.005 l -1.577,-0.8445 -1.6349,-0.8499 -0.021,-0.0112 -0.053,-0.0229 -0.01,-0.004 v -0.002 l -1.5508,-0.7823 v 0.002 l -1.6489,-0.8035 -1.6585,-0.7848 v -0.003 l -1.5776,-0.7203 -0.01,-0.004 -0.065,-0.0285 c -2.1631,-0.9708 -4.3828,-1.9007 -6.6478,-2.783 v -0.004 l -0.01,-0.002 -1.6348,-0.6278 v 0.003 l -1.6572,-0.6089 -0.03,-0.0112 -0.054,-0.02 -0.01,-0.005 -0.042,-0.0154 v -0.003 l -1.6198,-0.5746 v 0.003 l -1.6661,-0.567 -0.013,-0.008 v 0.003 l -0.026,-0.009 v -0.003 c -1.5993,-0.531 -3.2052,-1.0328 -4.8085,-1.5065 v 0.002 l -0.9452,-0.274 v 0.003 l -0.9603,-0.27 -0.016,-0.009 -0.053,-0.0165 v 3e-4 l -1.7093,-0.4637 v -0.002 l -1.6946,-0.4363 -0.026,-0.01 -8e-4,0.006 c -0.8056,-0.2036 -1.6108,-0.3967 -2.4099,-0.5851 l -3e-4,-0.004 -0.4631,-0.1061 -0.4773,-0.108 -0.034,-0.005 -0.039,-0.01 -2e-4,-0.004 -1.7165,-0.3765 5e-4,-9e-4 -1.678,-0.3441 8e-4,0.003 -0.044,-0.009 v -0.003 l -1.6924,-0.3258 -1.673,-0.3043 -0.023,0.002 -0.055,-0.0102 3e-4,-0.005 -0.01,-8e-4 -1.6368,-0.2746 v 0.002 l -1.6513,-0.2563 v 0.002 l -0.2397,-0.0356 v -0.002 l -1.6173,-0.2315 v 0.002 l -1.6502,-0.2163 -0.086,-0.0116 v -0.005 l -0.017,-10e-4 -1.4506,-0.153 v -1.4631 -113 l -10e-4,-2.8156 2.4379,1.4075 301.2146,173.9069 28.0225,16.1788 c 19.6993,11.3735 30.7821,31.94 30.9711,53.1522 v 1.2075 l 5e-4,48.7279 v 168.7367 8e-4 c 0.041,5.6409 -0.8183,9.8735 -2.9707,13.4761 v 0.01 c -2.1488,3.592 -5.5235,6.4484 -10.5174,9.3602 v 0 l -190.6416,110.0869 c -18.1917,9.5627 -40.741,9.8774 -59.85,-1.1552 l -28.0225,-16.1789 -53.4166,-30.8402 -2.4426,-1.4102 2.448,-1.4118 232.2276,-133.9109 c 1.8964,-1.136 3.4007,-2.6331 4.3656,-4.3044 0.7395,-1.2808 1.1599,-2.6621 1.1889,-4.0408 0.029,-1.3738 -0.324,-2.7773 -1.1203,-4.1119 -0.9363,-1.5716 -2.4993,-3.0848 -4.7886,-4.4065 z"
       style="fill:#000200;fill-rule:evenodd"
       id="path30" />
    <path
       d="m 1136.3944,715.3803 c 61.3756,0 111.149,49.7714 111.149,111.1449 0,61.3758 -49.7734,111.1494 -111.149,111.1494 -61.3734,0 -111.1446,-49.7736 -111.1446,-111.1494 0,-61.3735 49.7712,-111.1449 111.1446,-111.1449 z"
       style="fill:#552a05;fill-rule:evenodd"
       id="path32" />
    <path
       d="m 1021.524,917.6688 0.01,0.007 0.01,0.005"
       style="fill:#d9dadb;fill-rule:evenodd"
       id="path34" />
    <path
       d="m 1037.2201,933.3726 0.01,0.005 0.01,0.005"
       style="fill:#d9dadb;fill-rule:evenodd"
       id="path36" />
    <path
       d="m 1073.9542,956.2581 0.01,0.003 0.01,0.002"
       style="fill:#d9dadb;fill-rule:evenodd"
       id="path38" />
    <path
       d="m 998.1856,769.451 -0.002,0.005"
       style="fill:#d9dadb;fill-rule:evenodd"
       id="path40" />
    <path
       d="m 987.197,828.3196 v 0.0165"
       style="fill:#d9dadb;fill-rule:evenodd"
       id="path42" />
    <path
       d="m 987.197,828.3361 v 0.002"
       style="fill:#d9dadb;fill-rule:evenodd"
       id="path44" />
    <path
       d="m 987.8832,839.2048 v 0.003"
       style="fill:#d9dadb;fill-rule:evenodd"
       id="path46" />
    <defs
       id="defs54">
      <linearGradient
         id="grad1">
        <stop
           offset="0%"
           stop-color="#9e0929"
           stop-opacity="1.0000"
           id="stop48" />
        <stop
           offset="100%"
           stop-color="#e3002f"
           stop-opacity="1.0000"
           id="stop50" />
      </linearGradient>
      <linearGradient
         xlink:href="#grad1"
         id="grad2"
         x1="761.77216"
         y1="385.36407"
         x2="761.77216"
         y2="1152.7336"
         gradientTransform="scale(0.9869576,1.0132148)"
         gradientUnits="userSpaceOnUse" />
    </defs>
    <path
       d="m 1114.5031,527.3825 v 153.5135 1.4206 l -1.4074,0.1881 -0.1105,0.0148 h -0.013 l -1.5294,0.1963 v 0.002 l -1.5443,0.2145 h -0.01 l -0.1898,0.0247 v 0.003 l -1.5113,0.2277 v -0.005 l -1.4816,0.2392 v 0.002 l -0.3959,0.066 v 0.005 l -1.546,0.2689 v -0.007 l -1.503,0.2789 v 0.003 l -0.082,0.0181 h -0.01 l -1.5658,0.3085 v -0.002 l -1.5377,0.3217 v -0.005 l -0.2573,0.0577 -1.5014,0.3349 v 0.003 l -1.5146,0.3548 v -0.002 l -0.1155,0.0281 h -0.01 c -6.852,1.6498 -13.529,3.7996 -19.9817,6.4081 v 0.002 c -1.315,0.5329 -2.5656,1.0575 -3.7452,1.5739 -1.2342,0.5379 -2.4683,1.1005 -3.6793,1.673 v -0.002 l -0.036,0.0148 -0.01,0.005 -1.3793,0.6632 v 0.002 l -1.3925,0.6896 v 0 l -0.1964,0.0941 v 0.003 l -1.2341,0.6236 v 0.005 l -1.2424,0.6451 v 0 l -0.5494,0.2887 v 0.002 l -1.2028,0.6467 -1.183,0.6517 v -0.003 l -0.4059,0.2244 c -0.5164,0.2887 -1.0972,0.622 -1.7159,0.9817 l -0.3415,0.198 -0.3382,0.1996 -0.012,0.002 v 0.002 l -0.3696,0.2195 v -0.005 l -1.2308,0.7326 v 0.005 l -1.2424,0.7589 v -0.003 l -0.1748,0.1073 -1.2622,0.7903 v 0.003 l -1.2654,0.8117 v 0.002 l -0.1534,0.1006 h -0.01 c -3.7848,2.4616 -7.4558,5.1097 -10.9981,7.9261 -0.7705,0.6121 -1.4519,1.1631 -2.0508,1.6565 -0.6039,0.4949 -1.2919,1.0757 -2.0145,1.696 v -0.002 0.002 l -0.02,0.0182 -0.127,0.1056 -1.1269,0.98 -1.1087,0.98 -0.1634,0.1469 v 0.002 l -1.0031,0.9124 -0.01,-0.003 -0.9801,0.9107 v 0.002 l -0.5016,0.4669 -0.9569,0.9091 -0.9504,0.919 -0.353,0.3448 -0.9207,0.9108 -0.9222,0.9321 -0.5511,0.5643 -0.7985,0.8315 -0.7837,0.8299 -0.7689,0.8299 -0.6979,0.7557 -0.6995,0.7688 v -0.003 l -0.8976,1.0147 v 0.002 l -0.66,0.7491 v -0.002 l -0.6385,0.7392 -0.6814,0.8051 v 0 l -0.7392,0.8794 -0.7276,0.8728 v 0.003 l -0.5379,0.6666 -0.7606,0.9421 v -0.002 l -0.7309,0.9256 v 0 l -0.4339,0.5626 c -1.7043,2.2009 -3.3591,4.4745 -4.9529,6.8107 l -0.9322,1.3793 v -0.005 l -0.9074,1.371 v 0.0132 l -0.012,0.0182 -0.2541,0.3844 v -0.002 l -0.5494,0.858 -0.5411,0.8645 v 0.002 l -0.7507,1.2027 v 0 l -0.7969,1.3282 v -0.003 l -0.1386,0.2277 v 0.008 l -0.01,0.0165 -0.7276,1.2374 c -0.3745,0.6386 -0.6154,1.0626 -0.8514,1.48 v 0 l -0.066,0.1204 v -0.002 l -0.7259,1.3017 v 0 l -0.4339,0.8019 -0.4405,0.8216 v 0.002 l -0.7078,1.3446 v -0.002 l -0.7821,1.5245 0.01,0.003 -0.7392,1.4849 v -0.002 l -0.7705,1.5905 v -0.002 l -0.655,1.4057 v 0 l -0.7161,1.5641 h 0.003 l -0.5081,1.1631 -0.1287,0.2987 -0.7392,1.7142 -0.5906,1.4519 -0.002,-0.003 -0.6154,1.5294 h 0.002 c -0.3036,0.7738 -0.4867,1.2589 -0.66,1.7192 v 0.007 l -0.0808,0.2161 h -0.002 l -0.008,0.0215 v 0.007 l -0.4537,1.2061 c -0.3432,0.9453 -0.6336,1.7686 -0.9157,2.5919 v 0.005 l -0.198,0.5725 -0.002,-0.002 -0.4817,1.4437 h 0.002 l -0.4768,1.4948 -0.457,1.4997 0.008,0.003 -0.3184,1.0593 -0.007,-0.002 -0.3036,1.0378 h -0.002 l -0.3036,1.1054 -0.1402,0.5098 0.007,0.002 -0.429,1.5905 -0.3646,1.4453 h -0.003 l -0.4801,1.9617 -0.3053,1.3578 h -0.002 c -0.1155,0.5247 -0.2343,1.0559 -0.4125,1.9188 h -0.005 l -0.3086,1.5328 h 0.002 l -0.3613,1.8973 h 0.002 l -0.264,1.4932 h -0.002 l -0.3118,1.8809 h 0.002 l -0.2409,1.5839 h -0.005 l -0.2673,1.9023 v 0 l -0.1996,1.5377 h 0.003 l -0.2162,1.8726 h -0.002 l -0.1716,1.6482 h -0.003 l -0.1683,1.8875 h 0.005 l -0.1319,1.6053 -0.099,1.5361 v 0.007 l -0.0149,0.2524 v 0.007 l -0.0148,0.2013 -0.0165,0.2607 -0.0726,1.2308 -0.0792,2.0145 -0.0132,0.3415 -0.0396,1.1929 -0.0363,1.7736 -0.0116,1.7703 0.0116,1.8397 0.0379,1.8528 v 0.0165 l 0.008,0.0297 v 0.002 h -0.007 l 0.0577,1.7901 0.0809,1.8397 0.002,0.0264 0.008,0.0544 v 0.01 h -0.003 l 0.0973,1.734 h 0.002 l 0.1287,1.8298 0.1501,1.8297 h -0.003 l 0.165,1.7258 0.002,0.007 0.007,0.0709 c 0.2409,2.3593 0.5461,4.7467 0.9157,7.149 h -0.007 l 0.003,0.008 0.2739,1.7291 h 0.002 l 0.3036,1.739 0.005,0.0346 0.01,0.0545 v 0.0115 l 0.01,0.0462 h -0.005 l 0.3118,1.6878 h 0.003 l 0.3432,1.7258 v 0.0165 h 0.002 l 0.007,0.0281 h -0.003 c 0.3415,1.6498 0.7078,3.2931 1.1004,4.9166 h 0.002 l 0.2359,0.957 h 0.003 l 0.2459,0.9668 v 0.0181 l 0.0115,0.0528 0.002,0.003 0.4553,1.7126 h -0.003 l 0.4702,1.6862 0.002,0.0264 0.008,-0.002 c 0.2244,0.7986 0.4604,1.5938 0.6963,2.3792 l -0.003,0.003 0.1402,0.4537 0.1452,0.4686 0.0116,0.0313 0.0115,0.038 -0.003,0.002 0.5329,1.6763 h -0.002 l 0.5395,1.6251 0.003,-0.003 0.0148,0.0429 v 0.005 l 0.5643,1.6301 0.5742,1.5987 0.01,0.0198 0.0198,0.0528 -0.003,0.003 0.002,0.005 0.5791,1.5542 h 0.003 l 0.6039,1.5592 h 0.003 l 0.0891,0.2244 h -0.003 l 0.6088,1.5162 h 0.002 l 0.6385,1.5377 0.0347,0.0808 h -0.008 l 0.008,0.0149 0.5939,1.3331 -1.2687,0.7309 -97.8627,56.5003 -2.4352,1.4073 V 937.529 589.7168 557.3593 c 0,-22.747 12.2685,-42.6298 30.5426,-53.3986 l 1.046,-0.6038 42.2023,-24.3639 146.1266,-84.3701 v 0 c 4.8639,-2.8543 8.9605,-4.227 13.1562,-4.1643 h 0.01 c 4.1858,0.0643 8.3451,1.5575 13.3641,4.4283 v 0.005 l 190.6585,110.0589 c 17.3781,10.9717 28.9257,30.343 28.9257,52.4086 v 32.3575 61.6793 2.8213 l -2.4468,-1.414 -232.0854,-134.1587 c -1.932,-1.0741 -3.9795,-1.6301 -5.9098,-1.6301 -1.48,0 -2.8857,0.3267 -4.095,0.99 -1.2028,0.6616 -2.2422,1.6696 -2.9995,3.0258 -0.8943,1.5955 -1.4222,3.7073 -1.4222,6.3521 z m 281.1314,431.6247 -132.9457,-76.7559 -1.2325,-0.7095 0.5412,-1.3133 0.041,-0.1023 0.01,-0.01 0.5973,-1.4238 v -0.002 l 0.5874,-1.4436 v -0.005 l 0.069,-0.1782 v -0.002 l 0.5593,-1.4222 v 0.002 l 0.5346,-1.4024 v -0.002 l 0.1386,-0.3762 v 0 l 0.5395,-1.4734 0.01,0.002 0.5098,-1.442 v 0 l 0.028,-0.0809 v -0.005 l 0.5148,-1.5096 v 0 l 0.4933,-1.4932 v 0.002 l 0.079,-0.2508 0.4619,-1.4701 v 0 l 0.4504,-1.4898 v 0.002 l 0.035,-0.1155 v -0.005 c 1.998,-6.7579 3.4714,-13.6182 4.4398,-20.5064 v 0 c 0.198,-1.4057 0.3679,-2.7487 0.5115,-4.029 0.1501,-1.3414 0.2804,-2.6894 0.391,-4.0241 v 0 -0.038 -0.0115 l 0.1155,-1.5262 v 0 l 0.1023,-1.5492 v -0.003 l 0.013,-0.2178 v 0 l 0.074,-1.3826 v 0 l 0.059,-1.4007 v 0 l 0.025,-0.6204 v -0.002 l 0.043,-1.3645 0.026,-1.3496 v 0 l 0.01,-0.4636 c 0.01,-0.5907 0.01,-1.2605 0.01,-1.9782 v -0.3927 -0.3927 -0.0115 0 -0.4273 0 l -0.018,-1.4338 v 0 l -0.033,-1.4552 v 0 l -0.01,-0.2062 -0.053,-1.4882 v 0 l -0.071,-1.5014 v 0.002 l -0.012,-0.1864 v -0.005 c -0.2393,-4.5091 -0.6979,-9.01 -1.3645,-13.4861 -0.1435,-0.9751 -0.2805,-1.8396 -0.4075,-2.6052 -0.1287,-0.7688 -0.2871,-1.6548 -0.462,-2.5936 l 0.01,-0.002 v 0 -0.0263 l -0.03,-0.1634 -0.2854,-1.4651 -0.297,-1.4519 -0.043,-0.2161 v 0.002 l -0.2888,-1.3232 0.01,-0.003 -0.3002,-1.3067 v 0 l -0.1551,-0.6665 -0.3069,-1.282 -0.3233,-1.2836 -0.1205,-0.4785 -0.33,-1.2522 -0.3448,-1.2638 -0.2145,-0.7606 -0.3184,-1.1088 -0.325,-1.0905 -0.3333,-1.0824 -0.3085,-0.9816 -0.3151,-0.9916 v 0.002 l -0.4273,-1.2836 v 0.002 l -0.3217,-0.9471 v 0 l -0.3201,-0.9223 -0.3564,-0.9948 v 0 l -0.3943,-1.0807 -0.3927,-1.0658 v 0.002 l -0.3085,-0.8002 -0.4372,-1.1302 v 0 l -0.4356,-1.0971 v 0.003 l -0.2706,-0.6567 c -1.051,-2.5755 -2.1927,-5.146 -3.4202,-7.695 l -0.7276,-1.4948 0.01,-0.002 -0.7375,-1.47 -0.011,-0.008 -0.01,-0.0165 -0.2062,-0.4108 v -0.002 l -0.4718,-0.9074 -0.4768,-0.8992 v 0.002 l -0.6666,-1.2523 v -0.002 l -0.7523,-1.3546 v 0 l -0.1287,-0.2343 v -0.002 l -0.01,-0.0165 -0.7078,-1.2506 c -0.3663,-0.6435 -0.6138,-1.0626 -0.8563,-1.4767 v 0.003 l -0.071,-0.1171 v -0.002 l -0.7639,-1.2819 v 0 l -0.4752,-0.7788 -0.4933,-0.7919 v 0 l -0.8084,-1.2853 v -0.002 l -0.9272,-1.4387 -0.01,0.005 -0.9173,-1.3826 0.01,-0.002 -0.9933,-1.4635 h 0.01 l -0.891,-1.2721 v 0.002 l -0.9965,-1.3991 v 0.002 l -0.7524,-1.0229 -0.193,-0.2607 -1.117,-1.4964 -0.9602,-1.2391 v 0 l -1.0146,-1.2968 v 0.002 c -0.5198,-0.6484 -0.8464,-1.0494 -1.1599,-1.4288 l -0.01,-0.005 -0.1468,-0.1782 v -0.002 l -0.016,-0.0182 -0.01,-0.003 -0.8167,-0.9949 c -0.6451,-0.7688 -1.216,-1.4321 -1.7852,-2.0887 l -0.01,-0.002 -0.396,-0.4586 v -0.002 l -1.0097,-1.14 v 0.002 l -1.0527,-1.1599 -1.074,-1.145 v 0.005 l -0.7573,-0.8068 v -0.003 l -0.749,-0.7821 v -0.002 l -0.8051,-0.8167 -0.3729,-0.3745 v 0.003 l -1.1632,-1.1665 -1.0707,-1.0394 v -0.002 l -1.4569,-1.3941 -1.0213,-0.9454 v 0 c -0.3959,-0.363 -0.7952,-0.7309 -1.4552,-1.3183 v -0.002 l -1.1714,-1.0362 v 0.005 l -1.4634,-1.2638 v 0 l -1.1615,-0.9734 v -0.003 l -1.4733,-1.2111 v 0.005 l -1.2506,-1.0031 v -0.002 l -1.5129,-1.1846 v 0 l -1.2325,-0.9437 v 0.007 l -1.5113,-1.1236 v -0.002 l -1.3414,-0.975 v -0.003 l -1.5492,-1.089 v 0.003 l -1.3232,-0.9157 -1.2803,-0.8546 -0.01,-0.003 -0.2096,-0.1386 -0.01,-0.003 -0.1682,-0.1122 -0.2162,-0.1435 -1.0295,-0.6781 -1.7027,-1.079 -0.292,-0.1799 -1.0114,-0.6302 -1.5195,-0.919 -1.5295,-0.8959 -1.5987,-0.9091 -1.6202,-0.8926 -0.015,-0.01 -0.031,-0.007 v -0.002 -0.005 l -1.5773,-0.8447 -1.6333,-0.8514 -0.021,-0.01 -0.053,-0.0231 -0.01,-0.005 v -0.002 l -1.5493,-0.782 v 0.002 l -1.6482,-0.8018 -1.6598,-0.7854 v -0.003 l -1.5773,-0.721 -0.01,-0.005 -0.064,-0.0264 c -2.1647,-0.9718 -4.3837,-1.9007 -6.649,-2.7834 v -0.002 l -0.01,-0.003 -1.635,-0.627 v 0.002 l -1.6564,-0.6088 -0.033,-0.0116 -0.053,-0.0198 -0.012,-0.005 -0.04,-0.0149 v -0.003 l -1.6202,-0.5741 v 0.005 l -1.6663,-0.5692 -0.013,-0.007 v 0.002 l -0.025,-0.01 v -0.002 c -1.6004,-0.5312 -3.209,-1.0328 -4.811,-1.508 v 0.003 l -0.9454,-0.2739 v 0.002 l -0.9602,-0.2689 -0.016,-0.01 -0.051,-0.0165 h -0.01 l -1.7077,-0.462 v -0.003 l -1.6961,-0.4356 -0.025,-0.01 v 0.005 c -0.8051,-0.2013 -1.6103,-0.3976 -2.4088,-0.5841 v -0.005 l -0.462,-0.1056 -0.4768,-0.1073 -0.031,-0.007 -0.04,-0.008 v -0.005 l -1.7192,-0.3761 v 0 l -1.678,-0.3465 v 0.003 l -0.045,-0.008 v -0.003 l -1.6912,-0.325 -1.6746,-0.3036 -0.023,0.002 -0.054,-0.0116 v -0.003 h -0.01 l -1.6367,-0.2772 v 0.003 l -1.6516,-0.2573 v 0.003 l -0.2409,-0.0363 v -0.002 l -1.6153,-0.231 v 0 l -1.6499,-0.2161 -0.087,-0.0115 v -0.005 h -0.016 l -1.4502,-0.1518 v -1.4634 -113.0006 -2.8164 l 2.4369,1.4074 301.217,173.9077 28.0199,16.1771 c 19.6995,11.3743 30.7834,31.9418 30.9715,53.1544 v 1.206 48.7277 168.7354 0 c 0.041,5.6426 -0.8183,9.8746 -2.9698,13.4763 v 0.01 c -2.1498,3.5918 -5.5238,6.4478 -10.5179,9.3598 v 0 l -190.6421,110.0852 c -18.1915,9.5628 -40.7421,9.8762 -59.8494,-1.1549 l -28.0232,-16.1804 -53.4165,-30.838 -2.4435,-1.4106 2.4468,-1.4124 232.2305,-133.9095 c 1.8958,-1.1368 3.3988,-2.6349 4.364,-4.3046 0.7391,-1.2803 1.1615,-2.6629 1.1895,-4.0422 0.028,-1.3744 -0.325,-2.7768 -1.1202,-4.1115 -0.9355,-1.5724 -2.4979,-3.0853 -4.7896,-4.4069 z m -514.3601,27.6554 132.9474,-76.7593 1.2275,-0.7111 0.8711,1.1252 0.066,0.0858 v 0.0116 l 0.9338,1.2275 v 0 l 0.9586,1.2308 v 0.005 l 0.1155,0.1501 0.01,-0.002 0.9519,1.1961 v 0.002 l 0.9487,1.1648 v -0.003 l 0.2574,0.3135 v -0.002 l 1.0064,1.2028 -0.01,0.002 0.9949,1.1632 v 0 l 0.054,0.0643 v 0.003 l 1.0493,1.2012 v 0.002 l 1.0493,1.1714 v 0.002 l 0.1782,0.1963 1.0427,1.1335 v -0.003 l 1.0642,1.1335 v 0 l 0.084,0.0858 v 0.008 c 4.8539,5.1097 10.056,9.8152 15.5386,14.0983 v -0.003 c 1.1203,0.8728 2.1976,1.6927 3.2354,2.4566 1.0856,0.8002 2.1878,1.5872 3.2899,2.3495 v 0.002 l 0.031,0.0215 0.01,0.005 1.2638,0.8662 v -0.003 l 1.2902,0.8613 v 0.005 l 0.1831,0.1221 v 0 l 1.1582,0.754 v -0.002 l 1.1797,0.7507 v 0.002 l 0.5263,0.3333 v -0.002 l 1.1598,0.7177 1.1533,0.6996 v 0.003 l 0.3993,0.2392 c 0.5065,0.3003 1.0856,0.6385 1.7092,0.9932 l 0.3399,0.198 0.3415,0.1947 0.01,0.008 v -0.005 l 0.3729,0.2112 v 0.005 l 1.2506,0.7012 0.01,-0.003 1.2753,0.6963 v 0.003 l 0.1815,0.0973 1.3166,0.6979 v -0.003 l 1.3348,0.6913 v -0.003 l 0.165,0.0825 v 0.007 c 4.0257,2.0475 8.1537,3.9004 12.3642,5.5601 0.9141,0.3614 1.7357,0.6798 2.46,0.9487 0.7309,0.2756 1.5789,0.5808 2.4765,0.8976 v 0.003 0 l 0.026,0.008 0.1551,0.0561 1.4122,0.4851 1.4057,0.4702 0.2079,0.0693 v -0.003 l 1.2919,0.4141 v 0.007 l 1.2803,0.391 v -0.002 l 0.655,0.2013 1.2672,0.3761 1.2704,0.363 0.4751,0.132 1.2506,0.3399 1.2671,0.3349 0.7623,0.1947 1.1219,0.2772 1.1071,0.264 1.1054,0.2524 1.0048,0.2244 1.0147,0.2227 v 0.002 l 1.3265,0.2705 v -0.003 l 0.9784,0.1947 v 0.003 l 0.9586,0.1865 1.0394,0.1864 v 0.002 l 1.1319,0.1996 1.1219,0.193 v -0.002 l 0.8447,0.1303 1.1978,0.1865 v 0.003 l 1.1697,0.1699 v -0.002 l 0.7012,0.0941 c 2.7586,0.3762 5.5552,0.6731 8.3748,0.8843 l 1.6582,0.1188 v 0.003 l 1.6449,0.099 0.012,-0.007 h 0.02 l 0.4587,0.0264 v 0.007 l 1.0212,0.0446 1.018,0.0379 v -0.005 l 1.4189,0.0495 v 0.003 l 1.5476,0.0264 v 0.002 l 0.2673,0.003 0.01,-0.003 0.02,0.002 1.4354,0.0132 c 0.7391,0.005 1.2275,0 1.7092,-0.005 v -0.007 l 0.1353,-0.002 v 0.003 l 1.4915,-0.0198 v 0.002 l 0.9108,-0.0231 0.9321,-0.0297 v -0.002 l 1.5179,-0.0593 v 0.003 l 1.7093,-0.0858 v -0.008 l 1.6581,-0.1006 v 0.002 l 1.7621,-0.127 v 0.003 l 1.5443,-0.1353 v -0.002 l 1.7109,-0.1633 v -0.005 l 1.2605,-0.1385 0.3234,-0.0363 1.8528,-0.2195 1.5542,-0.2145 v 0.005 l 1.6317,-0.231 v -0.003 c 0.8216,-0.1237 1.3298,-0.2079 1.8165,-0.2887 l 0.01,-0.003 0.2277,-0.038 v 0.002 l 0.023,-0.002 0.01,-0.005 1.2688,-0.2096 c 0.9916,-0.1765 1.8479,-0.3365 2.7025,-0.5032 v -0.003 l 0.5973,-0.1122 v 0.002 l 1.4915,-0.3069 v -0.002 l 1.5327,-0.3333 1.5278,-0.3564 v -0.007 l 1.0757,-0.2541 v 0.008 l 1.0509,-0.2591 v 0.002 l 1.1104,-0.2904 0.5115,-0.132 v -0.005 l 1.5921,-0.4273 1.4354,-0.4043 v 0.002 l 1.937,-0.5643 1.3298,-0.4158 v 0 c 0.5131,-0.16 1.0328,-0.3217 1.8677,-0.5972 v 0 l 1.4833,-0.4983 v 0 l 1.8248,-0.6368 v -0.002 l 1.4238,-0.5164 v 0.002 l 1.7868,-0.6715 v -0.002 l 1.4915,-0.5824 v 0.002 l 1.7852,-0.7193 v 0.002 l 1.4321,-0.5972 v -0.005 l 1.7274,-0.7457 v 0 l 1.5146,-0.6732 v 0.002 l 1.7142,-0.7969 v -0.003 l 1.4552,-0.6897 1.3809,-0.6814 0.01,-0.005 0.2244,-0.1122 v -0.005 l 0.1815,-0.089 0.2342,-0.1139 1.1038,-0.5544 1.7835,-0.9371 0.302,-0.16 1.0526,-0.5593 1.5542,-0.858 1.5393,-0.8761 1.5855,-0.9289 1.5856,-0.9585 0.015,-0.01 0.023,-0.0198 v -0.002 0.003 l 1.5196,-0.9421 1.5525,-0.9915 0.021,-0.0132 0.045,-0.0347 0.01,-0.003 v 0.002 l 1.4519,-0.952 v 0 l 1.5212,-1.0296 1.508,-1.0427 v 0.003 l 1.4123,-1.0064 0.01,-0.005 0.056,-0.0429 c 1.9238,-1.3859 3.8376,-2.8444 5.735,-4.3639 v 0.002 l 0.01,-0.003 1.3612,-1.1037 v -0.002 l 1.3562,-1.1301 0.023,-0.0215 0.046,-0.0363 0.01,-0.008 0.033,-0.0281 v 0.005 l 1.3067,-1.117 v -0.003 l 1.3265,-1.1582 0.013,-0.008 v -0.003 l 0.02,-0.0198 v 0.005 c 1.2605,-1.122 2.4979,-2.2604 3.7106,-3.4136 v -0.002 l 0.7095,-0.6814 v -0.002 l 0.7144,-0.6979 0.015,-0.007 0.041,-0.038 v -0.007 l 1.2555,-1.2473 v 0.002 l 1.2242,-1.2506 0.022,-0.0165 v -0.002 c 0.5791,-0.5989 1.1467,-1.1962 1.7109,-1.7951 v 0 l 0.325,-0.3465 0.3333,-0.3596 0.02,-0.0264 0.03,-0.0297 v 0.003 l 1.1829,-1.3001 v 0.002 l 1.1351,-1.282 v 0 l 0.03,-0.033 v -0.005 l 1.1302,-1.3001 1.0988,-1.2952 0.01,-0.0231 0.038,-0.0445 v 0.005 l 0.01,-0.005 1.0559,-1.2803 v -0.002 l 1.0477,-1.3017 v -0.003 l 0.1518,-0.1881 v 0.002 l 1.0064,-1.2836 v -0.003 l 1.0131,-1.3215 0.053,-0.0677 v 0.003 l 0.01,-0.0132 0.8579,-1.1797 1.2671,0.7326 97.861,56.5003 2.4369,1.4073 -2.4369,1.4074 -301.2153,173.9061 -28.0216,16.1804 c -19.6996,11.3727 -43.052,10.6863 -61.5174,0.2458 l -1.0444,-0.6055 -42.199,-24.3622 -146.1315,-84.3652 v 0 c -4.9068,-2.7866 -8.1422,-5.6459 -10.1847,-9.3103 l -0.005,-0.01 c -2.0376,-3.6545 -2.8229,-8.0069 -2.8477,-13.7864 h 0.005 l -0.0165,-220.1458 c 0.815,-20.5345 11.8181,-40.2209 30.9253,-51.2537 l 28.0216,-16.1787 53.4165,-30.8397 2.4418,-1.4106 -0.002,2.8262 -0.1419,268.0716 c 0.0363,2.2092 0.5791,4.2617 1.5443,5.933 0.7408,1.2803 1.7241,2.3329 2.9054,3.049 1.1747,0.7127 2.5672,1.1087 4.1214,1.0856 1.8297,-0.0247 3.9201,-0.622 6.2085,-1.9435 z"
       style="fill:url(#grad2)"
       id="path56" />
    <path
       d="m 1273.4174,828.3405 v -0.002"
       style="fill:#d9dadb;fill-rule:evenodd"
       id="path58" />
    <path
       d="m 1273.4174,828.3383 v -0.0187"
       style="fill:#d9dadb;fill-rule:evenodd"
       id="path60" />
    <defs
       id="defs68">
      <linearGradient
         id="grad3">
        <stop
           offset="0%"
           stop-color="#c54d1d"
           stop-opacity="1.0000"
           id="stop62" />
        <stop
           offset="100%"
           stop-color="#fbc315"
           stop-opacity="1.0000"
           id="stop64" />
      </linearGradient>
      <linearGradient
         xlink:href="#grad3"
         id="grad4"
         x1="1019.3682"
         y1="713.48535"
         x2="1019.3682"
         y2="935.77936"
         gradientTransform="scale(0.99999843)"
         gradientUnits="userSpaceOnUse" />
    </defs>
    <path
       d="m 1130.5112,713.4865 c 61.3756,0 111.149,49.7714 111.149,111.1449 0,61.3758 -49.7734,111.1494 -111.149,111.1494 -61.3734,0 -111.1446,-49.7736 -111.1446,-111.1494 0,-61.3735 49.7712,-111.1449 111.1446,-111.1449 z"
       style="fill:url(#grad4)"
       id="path70" />
    <defs
       id="defs78">
      <linearGradient
         id="grad5">
        <stop
           offset="0%"
           stop-color="#c9800a"
           stop-opacity="1.0000"
           id="stop72" />
        <stop
           offset="100%"
           stop-color="#ffeda6"
           stop-opacity="1.0000"
           id="stop74" />
      </linearGradient>
      <linearGradient
         xlink:href="#grad5"
         id="grad6"
         x1="1019.3686"
         y1="713.48541"
         x2="1019.3686"
         y2="935.77863"
         gradientTransform="scale(0.99999865)"
         gradientUnits="userSpaceOnUse" />
    </defs>
    <path
       d="m 1130.5116,713.4864 c 61.3759,0 111.1485,49.7706 111.1485,111.1446 0,61.3762 -49.7726,111.1489 -111.1485,111.1489 -61.3739,0 -111.1444,-49.7727 -111.1444,-111.1489 0,-61.374 49.7705,-111.1446 111.1444,-111.1446 z m 0,14.8662 c 53.1654,0 96.2823,43.115 96.2823,96.2784 0,53.1677 -43.1169,96.2827 -96.2823,96.2827 -53.1633,0 -96.2782,-43.115 -96.2782,-96.2827 0,-53.1634 43.1149,-96.2784 96.2782,-96.2784 z"
       style="fill:url(#grad6)"
       id="path80" />
    <defs
       id="defs88">
      <linearGradient
         id="grad7">
        <stop
           offset="0%"
           stop-color="#ff9900"
           stop-opacity="1.0000"
           id="stop82" />
        <stop
           offset="100%"
           stop-color="#ffcc00"
           stop-opacity="1.0000"
           id="stop84" />
      </linearGradient>
      <linearGradient
         xlink:href="#grad7"
         id="grad8"
         x1="1034.2351"
         y1="728.35229"
         x2="1034.2351"
         y2="920.91235"
         gradientTransform="scale(0.99999844)"
         gradientUnits="userSpaceOnUse" />
    </defs>
    <path
       d="m 1130.5115,728.3534 c 53.166,0 96.2818,43.114 96.2818,96.2783 0,53.1662 -43.1158,96.2821 -96.2818,96.2821 -53.1641,0 -96.278,-43.1159 -96.278,-96.2821 0,-53.1643 43.1139,-96.2783 96.278,-96.2783 z"
       style="fill:url(#grad8)"
       id="path90" />
    <path
       d="m 1251.1884,1009.6856 c -23.5634,-17.5573 -29.8855,-19.4283 -54.5263,-41.5532 -62.1859,28.2617 -148.5898,9.8894 -184.8662,-39.5314 L 888.461,999.8069 c -20.1505,11.6333 -36.7052,-6.5751 -36.04,-15.4856 2.6728,-7.0835 -85.9952,41.0591 -85.994,41.0602 0.5203,12.7867 8.8036,13.4971 17.5157,18.9686 l 185.4626,106.6153 c 20.5437,8.9308 36.8977,-1.0156 49.7402,-8.2025 z m 230.2064,-47.7981 c -22.834,10.3777 -54.2269,28.4862 -77.4743,26.405 l -212.528,122.5571 69.7827,40.1158 c 20.5437,8.9308 36.8977,-1.0156 49.7402,-8.2025 l 182.1803,-105.1839 c 2.1513,-1.2425 7.1299,-5.1448 7.1014,-15.1672 2.1501,-27.8127 -0.8233,-47.1602 -0.8245,-47.1602 -5.6568,3.2667 -12.1832,-8.161 -17.9778,-13.3641 z"
       style="fill:#e40044;fill-opacity:0;fill-rule:evenodd"
       id="path92" />
    <defs
       id="defs100">
      <linearGradient
         id="grad9">
        <stop
           offset="0%"
           stop-color="#602a24"
           stop-opacity="1.0000"
           id="stop94" />
        <stop
           offset="100%"
           stop-color="#e40044"
           stop-opacity="1.0000"
           id="stop96" />
      </linearGradient>
      <linearGradient
         xlink:href="#grad9"
         id="grad10"
         x1="1262.4144"
         y1="696.23303"
         x2="1262.4144"
         y2="1074.3958"
         gradientTransform="scale(0.91991177,1.0870608)"
         gradientUnits="userSpaceOnUse" />
    </defs>
    <path
       d="m 1161.3099,1111.1988 25.4652,-3.003 67.0742,38.5597 10.7316,5.5345 12.3079,2.2059 12.2462,-1.6441 10.2921,-3.9438 193.8385,-111.4252 4.3275,-4.2444 1.9518,-5.1258 0.6522,-5.7139 -0.2269,-212.9942 c 0.6058,-14.5733 -9.6863,-36.5426 -21.1496,-41.533 -0.4443,-6.6309 3.4699,-4.0437 0.7626,-11.0239 11.0143,7.0563 29.9591,24.0981 29.598,53.5429 v 217.4631 0 c 0.042,5.6426 -0.8184,9.8751 -2.9697,13.4769 v 0.01 c -2.1501,3.591 -5.5238,6.448 -10.519,9.3595 v 0 l -190.6431,110.0851 c -18.1905,9.5627 -40.7417,9.8764 -59.8493,-1.1558 l -28.0228,-16.1794 -53.4168,-30.8382 z"
       style="fill:url(#grad10)"
       id="path102" />
    <defs
       id="defs110">
      <linearGradient
         id="grad11">
        <stop
           offset="0%"
           stop-color="#602a24"
           stop-opacity="1.0000"
           id="stop104" />
        <stop
           offset="100%"
           stop-color="#e40044"
           stop-opacity="1.0000"
           id="stop106" />
      </linearGradient>
      <linearGradient
         xlink:href="#grad11"
         id="grad12"
         x1="563.95416"
         y1="1110.2308"
         x2="563.95416"
         y2="1557.0488"
         gradientTransform="scale(1.3331674,0.75009333)"
         gradientUnits="userSpaceOnUse" />
    </defs>
    <path
       d="m 751.8513,1028.3299 -0.006,-195.4486 13.7797,-0.1046 0.01,189.3713 c 0.0119,7.2071 1.0929,13.2429 10.0628,17.7225 l 188.1235,106.885 10.7316,5.5345 12.3079,2.2059 12.2462,-1.6441 10.2921,-3.9438 314.3223,-180.987 c 0,0 25.4427,1.1047 23.7238,0.2459 l -332.4309,192.6166 c -18.1905,9.5627 -40.7418,9.8764 -59.8493,-1.1558 l -28.0228,-16.1794 -161.1056,-92.2059 c -7.7227,-3.9866 -13.8653,-8.9865 -14.1849,-22.9125 z"
       style="fill:url(#grad12)"
       id="path112" />
    <path
       d="m 1253.8731,1146.7673 10.69,5.5131 c -1.1167,-0.3836 -2.2452,-0.8184 -3.3879,-1.315 z m 10.7256,5.5262 12.2854,2.2012 c -3.9106,-0.07 -8.0042,-0.7341 -12.2854,-2.2012 z m 12.2961,2.2012 12.2331,-1.6417 c -3.8631,1.0775 -7.9388,1.7177 -12.2331,1.6417 z m 12.2497,-1.6464 10.2707,-3.9356 c -3.2442,1.5419 -6.6666,2.9282 -10.2707,3.9356 z m 10.2945,-3.9475 193.4524,-111.203 -181.976,105.0651 c -3.5519,1.9885 -7.371,4.1874 -11.4764,6.1379 z m 193.829,-111.4204 4.3251,-4.242 1.9518,-5.1258 0.651,-5.7008 c -0.1438,3.812 -0.354,7.6549 -0.6463,11.4419 z m 6.9291,-15.1031 -0.2269,-36.5022 v 0 c 0.3956,8.9592 0.752,22.5252 0.2258,36.5022 z"
       style="fill:#e40044;fill-opacity:0;fill-rule:evenodd"
       id="path114" />
    <path
       d="m 1037.1222,715.9727 -0.01,0.003 -0.01,0.008"
       style="fill:#c5c7c8;fill-rule:evenodd"
       id="path116" />
    <path
       d="m 1021.6362,731.4621 -0.01,0.005 -0.01,0.008"
       style="fill:#c5c7c8;fill-rule:evenodd"
       id="path118" />
    <path
       d="m 998.1856,769.451 -0.002,0.005"
       style="fill:#c5c7c8;fill-rule:evenodd"
       id="path120" />
    <path
       d="m 987.197,828.3196 v 0.0165"
       style="fill:#c5c7c8;fill-rule:evenodd"
       id="path122" />
    <path
       d="m 987.197,828.3361 v 0.002"
       style="fill:#c5c7c8;fill-rule:evenodd"
       id="path124" />
    <path
       d="m 987.8832,839.2048 v 0.003"
       style="fill:#c5c7c8;fill-rule:evenodd"
       id="path126" />
    <path
       d="m 1273.4174,828.3405 v -0.002"
       style="fill:#c5c7c8;fill-rule:evenodd"
       id="path128" />
    <path
       d="m 1273.4174,828.3383 v -0.0187"
       style="fill:#c5c7c8;fill-rule:evenodd"
       id="path130" />
    <defs
       id="defs138">
      <linearGradient
         id="grad13">
        <stop
           offset="0%"
           stop-color="#da0430"
           stop-opacity="1.0000"
           id="stop132" />
        <stop
           offset="100%"
           stop-color="#ffffff"
           stop-opacity="1.0000"
           id="stop134" />
      </linearGradient>
      <linearGradient
         xlink:href="#grad13"
         id="grad14"
         x1="974.8454"
         y1="359.45041"
         x2="974.8454"
         y2="865.67834"
         gradientTransform="scale(0.92059523,1.0862537)"
         gradientUnits="userSpaceOnUse" />
    </defs>
    <path
       d="m 1218.2271,454.9346 -1.2112,-0.6999 -1.6639,-0.9619 -0.9431,-0.5428 c -25.1954,-14.5393 -50.3677,-29.0597 -75.232,-43.4167 -0.7691,-0.4443 -1.4942,-0.8446 -2.1857,-1.1903 l -0.082,-0.042 -0.044,-0.0209 c -2.3638,-1.14 -4.3064,-1.7226 -6.1988,-1.7624 h -0.038 -0.2116 -0.038 c -1.8923,0.0398 -3.8349,0.6224 -6.1987,1.7624 l -0.044,0.0209 -0.082,0.042 c -0.6894,0.3478 -1.4166,0.746 -2.1857,1.1903 -24.8643,14.357 -50.0346,28.8774 -75.2321,43.4167 l -0.943,0.5428 -1.6639,0.9619 -1.2113,0.6999 c -35.4366,20.472 -70.7265,41.0781 -107.0055,62.0174 -16.4044,9.4659 -23.5085,26.7588 -23.5085,45.5794 l -0.002,352.0682 -14.8641,25.7467 v -384.24 c 0.2955,-20.3881 11.4755,-41.0529 30.5853,-52.0863 L 1116.355,395.2811 c 4.1639,-2.674 8.7449,-4.9687 14.1683,-4.8199 5.4234,-0.1488 10.0023,2.1459 14.1663,4.8199 L 1333.022,504.02 c 19.1098,11.0334 29.6339,31.5494 30.447,52.0863 v 98.1121 l -14.8641,-25.7466 v -67.051 c 0,-18.8353 -6.9595,-35.2125 -23.3701,-44.6847 -36.2832,-20.9455 -71.5669,-41.3253 -107.0056,-61.8015 z"
       style="fill:url(#grad14)"
       id="path140" />
    <path
       d="m 998.9707,881.7258 -18.4308,-6.5194 c -5.3082,-15.8197 -8.2567,-32.966 -8.2567,-50.5754 0,-81.9717 62.3651,-149.402 142.2243,-157.4261 v 15.1114 c -19.2419,2.1396 -37.3416,8.0702 -53.5133,17.052 -10.6603,5.9221 -20.4489,13.0933 -29.2211,21.438 -8.3635,7.9528 -15.8238,16.8613 -22.075,26.6247 -14.2711,22.2805 -22.5487,48.7773 -22.5487,77.2 0,15.101 2.3429,29.6592 6.6745,43.3267 1.4858,4.6942 3.2272,9.2731 5.1719,13.7472 z"
       style="fill:#da0430;fill-rule:evenodd"
       id="path142" />
    <path
       d="m 1114.5075,525.1123 h -14.8662 v 144.3056 l 14.8662,12.8984 z"
       style="fill:#da0430;fill-rule:evenodd"
       id="path144" />
    <path
       d="m 1128.2923,518.4378 7.4331,-12.8733 212.8816,122.9073 14.862,25.7466 z"
       style="fill:#da0430;fill-rule:evenodd"
       id="path146" />
    <path
       d="m 999.0042,881.707 -18.4664,-6.5048 -68.2349,39.3974 -14.8641,25.7467 z"
       style="fill:#da0430;fill-rule:evenodd"
       id="path148" />
    <path
       d="m 1135.7275,505.5645 -7.4331,12.8733 c 0,0 -4.3546,-3.1392 -9.0362,-0.6077 -4.6816,2.5314 -4.7507,7.2822 -4.7507,7.2822 h -14.8662 c 0,0 0.4128,-13.7598 11.1947,-19.5751 10.7818,-5.8153 18.0054,-3.3571 24.8915,0.0273 z"
       style="fill:#da0430;fill-rule:evenodd"
       id="path150" />
    <path
       d="m 1083.3722,959.4655 0.01,0.003 0.011,0.003"
       style="fill:#c5c7c8;fill-rule:evenodd"
       id="path152" />
    <path
       d="m 1104.5294,965.1321 0.01,0.002 0.01,10e-4"
       style="fill:#c5c7c8;fill-rule:evenodd"
       id="path154" />
    <path
       d="m 1149.1539,966.4466 0.01,-9e-4"
       style="fill:#c5c7c8;fill-rule:evenodd"
       id="path156" />
    <path
       d="m 1205.6298,946.5287 0.014,-0.008"
       style="fill:#c5c7c8;fill-rule:evenodd"
       id="path158" />
    <path
       d="m 1205.6441,946.5204 v -10e-4"
       style="fill:#c5c7c8;fill-rule:evenodd"
       id="path160" />
    <path
       d="m 1214.7136,940.4918 v -0.002"
       style="fill:#c5c7c8;fill-rule:evenodd"
       id="path162" />
    <path
       d="m 1062.5377,698.6434 v 10e-4"
       style="fill:#c5c7c8;fill-rule:evenodd"
       id="path164" />
    <path
       d="m 1062.5358,698.6445 -0.016,0.009"
       style="fill:#c5c7c8;fill-rule:evenodd"
       id="path166" />
    <path
       d="m 1271.0028,797.6932 -10e-5,-0.006 v -0.0105"
       style="fill:#c5c7c8;fill-rule:evenodd"
       id="path168" />
    <path
       d="m 1265.3317,776.5372 v -0.007 -0.009"
       style="fill:#c5c7c8;fill-rule:evenodd"
       id="path170" />
    <path
       d="m 1244.1578,737.2338 v -0.005"
       style="fill:#c5c7c8;fill-rule:evenodd"
       id="path172" />
    <path
       d="m 1198.6704,698.2831 -0.014,-0.008"
       style="fill:#c5c7c8;fill-rule:evenodd"
       id="path174" />
    <path
       d="m 1198.6562,698.2749 v -10e-4"
       style="fill:#c5c7c8;fill-rule:evenodd"
       id="path176" />
    <path
       d="m 1188.9005,693.4348 v -0.002"
       style="fill:#c5c7c8;fill-rule:evenodd"
       id="path178" />
    <path
       d="m 1055.5421,946.1475 v 10e-4"
       style="fill:#c5c7c8;fill-rule:evenodd"
       id="path180" />
    <path
       d="m 1055.5441,946.1486 0.016,0.009"
       style="fill:#c5c7c8;fill-rule:evenodd"
       id="path182" />
    <path
       d="m 765.6465,1029.3571 c 11.6138,-15.5074 183.9896,153.9643 295.7794,89.5956 l 262.2959,-151.0304 -71.4852,-38.6304 c -53.5614,53.3521 -88.2415,53.3961 -128.4687,53.0545 -43.8441,-0.3688 -84.3689,-20.9917 -112.3368,-53.5344 -5.436,3.1895 -118.7535,68.0171 -129.6883,74.5093 -26.1468,4.8178 -27.4692,-16.813 -27.4608,-19.7238 l -2.4309,-250.1337 -60.4727,34.9819 c -9.5497,5.5241 -25.0697,17.6052 -24.6045,44.1147 z m 146.6564,-114.7554 68.2349,-39.3974 c -13.6382,-39.4833 -9.9499,-85.3582 8.9964,-122.4777 15.8448,-30.357 41.1429,-56.529 72.579,-70.8064 12.8922,-6.0164 23.475,-10.5157 37.4736,-13.0891 l 0.054,-143.6392 c 0.01,-20.9016 22.3663,-27.4524 36.0715,-19.6337 l 212.8942,122.9157 v -67.051 c -0.8298,-23.6029 -9.9226,-37.1111 -23.3701,-44.6847 l -186.5986,-107.733 c -6.9658,-3.6505 -9.7969,-3.7742 -16.6223,0.1656 L 933.1563,518.5384 c -16.4526,11.771 -20.8031,28.0308 -20.8534,46.9709 z m 121.9996,-90.1027 c 0,53.3919 42.2348,96.4147 96.2091,96.4147 53.9743,0 96.2195,-43.1967 96.2195,-96.3455 0,-53.1488 -42.3186,-96.2114 -95.3121,-96.2114 -52.9936,0 -97.1165,42.7504 -97.1165,96.1422 z m 245.7574,50.6173 124.9733,72.1517 c 14.2584,8.2295 15.7296,31.3 -1.1128,41.0236 l -212.8816,122.9095 58.0691,33.5213 c 20.7758,11.9931 38.2678,9.1012 50.3824,2.1019 l 188.3003,-108.7913 c 6.4125,-3.7051 6.4146,-9.6231 6.4125,-13.6152 l -0.197,-213.1274 c 0,-19.99 -10.0337,-34.7451 -25.9352,-43.9134 l -306.6744,-177.0913 -0.2074,79.1028 c 45.4347,8.9315 84.6119,38.3161 104.7905,73.5579 23.9967,41.9121 29.9168,88.8328 14.0803,132.1699 z"
       style="fill:#ffffff;fill-opacity:0;fill-rule:evenodd"
       id="path184" />
  </g>
</svg>
