<?xml version="1.0" encoding="UTF-8" standalone="no"?>
<svg
   version="1.1"
   width="1259.4703"
   height="1700.7874"
   id="svg13"
   viewBox="0 0 1259.4704 1700.7874"
   sodipodi:docname="dae804bdaf954eb1046827ad0fbdce39.cdr"
   xmlns:inkscape="http://www.inkscape.org/namespaces/inkscape"
   xmlns:sodipodi="http://sodipodi.sourceforge.net/DTD/sodipodi-0.dtd"
   xmlns="http://www.w3.org/2000/svg"
   xmlns:svg="http://www.w3.org/2000/svg">
  <defs
     id="defs17" />
  <sodipodi:namedview
     id="namedview15"
     pagecolor="#ffffff"
     bordercolor="#666666"
     borderopacity="1.0"
     inkscape:pageshadow="2"
     inkscape:pageopacity="0.0"
     inkscape:pagecheckerboard="0" />
  <g
     id="Layer1000"
     transform="translate(-504.123,-283.4645)">
    <path
       d="m 1106.4001,333.7843 c 16.8997,-12.2501 23.5562,-32.3534 32.1628,-50.3198 5.5293,15.8936 10.2413,33.4219 24.1867,44.29 67.1589,55.3452 156.6168,69.8586 229.0522,116.095 33.1066,20.4791 64.7691,44.29 89.1427,74.884 33.5483,41.0864 51.1389,92.8521 86.1938,132.8077 17.3395,20.4791 40.7088,33.9864 62.3187,49.3777 -21.6099,15.516 -47.0538,23.8092 -71.9314,32.2893 13.9471,12.5652 34.8037,29.716 53.8386,18.1569 4.021,-9.3616 5.654,-19.537 9.1728,-29.0874 10.6171,-4.1457 19.6012,3.5189 28.27,8.4196 2.0729,10.2377 4.2722,20.4791 6.7207,30.7186 26.7012,4.4609 31.7889,32.04 34.6791,54.5295 -3.2036,4.4609 -6.409,8.9218 -9.5503,13.3809 7.9797,13.1939 15.1402,26.8258 20.9848,41.1505 -7.1,16.7714 -13.3203,34.2998 -24.8153,48.6867 -0.7533,6.6584 -1.446,13.3186 -2.137,20.0393 24.3131,16.2087 20.9831,46.1741 20.041,71.5556 13.8207,-11.6855 18.2816,-36.2479 36.5614,-40.3954 17.0885,10.8682 19.9146,33.6106 24.062,51.8281 4.5856,14.0095 -5.2782,26.0725 -10.617,38.1962 6.9094,11.7478 18.5326,22.3649 18.2816,37.003 3.8322,16.0182 -12.3765,24.0602 -22.1139,33.2331 -3.517,12.5011 -3.0149,29.5896 -18.0928,34.0487 -17.9664,7.0359 -32.291,19.5388 -42.6552,35.6834 19.9769,3.1413 18.7837,22.7425 23.5562,37.8186 5.7805,6.9736 12.9428,12.5653 19.4765,18.7838 11.999,-3.5812 24.6889,-13.8207 37.3788,-6.6584 2.7638,20.4168 -0.4399,41.6509 -8.5442,60.6234 0.2528,7.978 8.1667,19.3483 -1.4443,24.5642 -8.4177,4.899 -17.7152,7.978 -26.5747,11.8726 15.0156,16.5844 16.4599,39.5157 7.1,59.4302 -9.1087,2.8903 -18.7214,3.5189 -28.083,4.899 -11.9972,28.0189 -53.2723,11.6232 -63.5119,42.0925 2.7638,14.7004 2.5751,29.6519 2.1993,44.5411 13.7566,-3.3301 27.5773,-6.6602 41.7132,-8.5442 14.8269,18.9725 -0.5039,39.8914 -6.1579,59.1792 -6.9095,11.2439 -15.8936,21.0435 -23.1806,32.1022 -5.7786,-1.697 -17.2754,-5.0894 -23.0559,-6.7224 0.4399,13.6319 4.2722,26.7617 7.1624,40.0179 -3.9569,7.7268 -10.9323,13.2544 -16.8356,19.4747 -3.1413,10.8681 -6.158,26.824 -21.3606,23.6204 -36.5613,-4.712 -70.4248,14.1359 -97.8134,36.4367 7.4117,7.1 16.8979,14.1982 16.5845,25.695 3.9587,14.7627 -11.8743,22.4273 -19.6011,32.2287 2.4503,26.1331 -29.903,35.557 -24.7512,62.8209 17.0867,3.0149 34.2998,5.5917 51.2618,9.1729 -2.0087,7.287 -3.7058,14.7004 -6.6584,21.7363 -7.0359,1.9482 -14.1982,3.5188 -21.4229,4.7743 -7.7268,6.5337 -14.7004,14.2605 -23.8091,18.8461 -7.2247,-1.1308 -14.2606,-3.2037 -21.2965,-5.0254 -4.3344,18.5327 -20.5432,29.6519 -35.3077,39.7045 -39.1987,-4.2098 -81.3536,-15.7066 -118.7946,2.8261 l 11.6837,5.2141 c -2.6373,5.0895 -7.7909,15.2044 -10.4283,20.2298 43.7237,-6.8489 92.4746,-14.5117 133.561,6.2185 -22.8048,3.9587 -45.9871,2.7015 -68.8542,5.3406 9.3616,14.2605 20.479,27.2639 31.1602,40.5824 -27.9548,-6.0939 -56.6042,-9.862 -85.2499,-6.6584 -25.3175,0.5645 -55.0335,5.8428 -76.1412,-11.6855 -7.0982,-8.92 8.0402,-14.574 11.5609,-21.3588 -27.3904,-2.1993 -59.1169,-1.8217 -76.7075,-27.0769 -16.1464,-1.3196 -32.4157,-3.1413 -48.3734,0.6909 -4.4609,-3.0148 -8.92,-6.0938 -13.3808,-9.1087 -16.7733,27.0769 -50.3216,26.6994 -78.2141,29.7766 6.0316,6.2826 12.0008,12.6917 17.8418,19.2236 -46.1741,33.4219 -106.0443,21.7381 -158.3745,14.3247 8.8576,-7.6022 17.7794,-15.078 26.6352,-22.6784 -21.357,-11.9366 -46.1723,-16.5862 -66.0868,-31.0356 43.0327,-1.0043 86.0014,10.8059 129.036,2.5768 -3.3924,-7.9797 -6.7225,-16.0199 -9.9885,-24.062 10.6794,-3.9569 21.7986,-7.7268 33.3595,-6.0315 33.0444,3.079 67.0289,0.1887 98.0645,-12.0613 -52.9606,-4.9631 -105.8554,10.8681 -159.1277,5.9692 -64.0799,-1.446 -119.5533,-37.1918 -169.8731,-73.3133 -12.8163,-11.5609 -30.0917,-8.6707 -45.7983,-8.2932 18.7232,-26.0707 49.1907,-39.2646 80.5398,-41.7149 -4.3363,-12.8146 -8.1685,-25.7556 -11.812,-38.7607 -52.4567,-21.8627 -102.2725,-52.2056 -143.2966,-91.7213 -24.8776,-22.6161 -29.9653,-57.1046 -44.7298,-85.688 -5.5899,-13.3203 -20.9207,-15.8954 -32.4157,-21.8628 25.5044,-15.4537 56.54,-12.941 83.3658,-2.388 3.1414,-19.0972 6.9736,-38.0697 10.1773,-57.1046 -44.6676,-26.8881 -82.3598,-64.8955 -109.8783,-109.1232 -15.4519,-24.4378 -17.149,-53.9633 -23.3675,-81.4177 -2.892,-17.0867 -17.9058,-26.7617 -29.1497,-38.132 28.3305,-3.8964 57.1668,0.6286 81.4782,16.1446 5.2141,-15.3913 11.121,-30.5939 16.6504,-45.7983 -33.486,-30.3429 -60.2477,-69.9209 -67.9122,-115.0265 -10.4924,-45.4209 7.7268,-91.0928 -0.691,-136.7005 17.8418,21.4211 34.4904,43.8483 49.5042,67.3441 9.7373,-19.0349 22.616,-36.1857 37.2523,-51.7017 -14.8251,-19.4124 -27.2639,-41.6509 -29.2744,-66.4662 -7.2246,-64.331 22.8671,-124.0106 46.9274,-181.5568 22.616,11.5591 41.2751,32.982 37.3164,60.2459 18.6591,-21.9251 41.6527,-39.4516 65.6506,-55.1564 -25.4421,-13.3203 -53.5875,-25.004 -70.4249,-49.6306 30.1559,-11.4326 51.577,-36.8766 69.7339,-62.4451 27.3904,-41.3998 51.764,-85.3746 86.3808,-121.4356 36.8766,-40.5842 84.0568,-71.0517 135.1316,-90.7152 49.6911,-19.2236 101.8967,-35.7458 144.5538,-68.8524 z m 31.2208,-14.8251 c -44.7904,55.1582 -117.4128,72.4336 -180.1732,98.7555 -50.5103,20.4808 -95.9311,53.1476 -131.4258,94.5492 -48.7473,54.5919 -74.0042,128.7849 -135.6961,171.8818 19.9164,13.1921 41.4016,23.6827 62.1941,35.3682 29.8424,15.8936 47.9976,46.1741 76.8945,63.3249 42.7193,-65.7129 97.8151,-125.4566 167.9248,-162.1444 73.5644,-40.4578 164.5307,-48.6868 243.4356,-19.0972 88.5177,32.1646 157.2455,102.7141 206.812,180.8641 18.2192,-7.9156 35.4947,-18.0929 50.4462,-31.2226 30.7827,-27.3903 72.8734,-33.8617 109.6877,-49.6929 -17.3378,-12.6276 -35.4947,-24.5001 -49.4418,-40.9582 -36.1839,-41.2128 -53.901,-94.6739 -88.9558,-136.6399 -33.6088,-40.8353 -79.5336,-69.1677 -126.2099,-92.7257 -70.2343,-33.2331 -151.8425,-52.3926 -205.4923,-112.2628 z m -75.0728,288.2902 c -90.9645,26.6371 -164.593,94.1094 -215.7319,172.1347 -94.4192,144.2403 -124.4486,325.1685 -97.3735,494.0336 19.9786,126.2099 71.618,250.7868 162.5201,342.3817 152.0313,-0.062 303.9985,-2.2616 455.9016,-6.345 70.676,-72.7488 116.3479,-166.6676 142.0411,-263.9788 42.1548,-161.8933 30.5957,-338.5494 -38.5096,-491.3963 C 1431.1287,766.63 1370.1901,685.3388 1285.8822,636.2745 1219.3537,597.0722 1136.9317,584.9486 1062.5481,607.2512 Z M 728.1462,829.6415 c 20.9813,-15.3914 46.2988,-21.8628 71.9955,-22.9936 -14.6398,36.3744 -32.1664,71.7445 -53.4628,104.7247 -19.6012,30.6581 -52.9607,47.9335 -85.1253,62.5716 1.1308,13.7584 2.0729,27.5167 2.892,41.2751 16.4581,-12.2518 33.2313,-23.9997 50.0064,-35.8722 -7.2247,32.9802 7.3493,66.7173 -2.3258,99.3841 -16.3975,54.5295 -49.3154,104.0337 -55.4715,161.5175 16.5862,-21.1094 33.3595,-42.2812 45.7983,-66.215 7.4116,24.7512 -4.5232,50.886 5.0877,75.0727 9.9243,27.5773 19.1595,56.6024 14.1965,86.3166 -2.3222,39.4534 -20.415,75.5767 -25.4422,114.3997 6.0939,17.653 22.2403,30.2805 31.8512,46.1741 7.978,-24.3113 22.4914,-45.8607 29.4008,-70.6742 12.8146,20.7943 19.5389,44.3523 26.5748,67.5347 7.9156,26.6975 25.378,49.3777 32.2892,76.4546 10.6812,36.3726 10.6812,75.322 2.7015,112.325 14.7645,6.4091 29.2744,13.3186 43.6614,20.6679 -6.2203,-27.3886 -0.5663,-55.7227 -7.0359,-83.1753 16.7109,11.8725 25.0664,30.845 36.8766,46.865 18.0304,20.2921 46.3628,28.7099 62.5074,51.0748 20.9207,31.2226 27.3298,68.9789 40.6483,103.5315 3.453,13.1921 19.4747,15.1385 28.7081,22.8048 -23.6204,-18.0305 -12.0613,-48.4998 -13.3808,-73.3151 1.0043,-24.7512 31.4736,-15.8935 47.5577,-16.1446 26.8241,3.9569 50.0669,-12.3765 75.6996,-15.9577 23.7486,1.5084 44.6052,18.7838 69.2299,14.5135 20.2921,0.6268 44.6053,-7.9797 62.0677,5.7786 7.3511,16.962 6.9112,38.1962 0.8174,55.4716 -15.5178,12.1877 -31.7248,23.6845 -44.3524,39.2023 28.3342,-2.7638 46.614,-22.8689 60.0571,-45.6096 1.8859,-12.25 2.0747,-25.695 10.5565,-35.6193 10.8041,-11.4345 9.7374,-27.7055 14.5099,-41.6527 10.1149,-7.4134 21.1718,-13.5055 31.0338,-21.3588 10.5565,-9.7373 27.7055,-7.1623 36.752,-19.0971 7.7286,-6.0939 14.5134,-18.5327 26.0707,-15.3291 9.8638,0.878 11.121,12.1236 15.4555,19.0349 23.558,-20.2921 37.7563,-49.4419 39.2005,-80.538 -1.9464,-14.9533 -10.4283,-28.0189 -15.4537,-42.0907 10.9305,-14.9515 22.4896,-29.9048 39.9538,-37.5052 -3.7058,-13.6338 -4.1457,-28.2701 6.7225,-38.8871 16.5239,-15.7689 11.6855,-45.1074 35.1171,-54.2161 10.4301,13.1297 20.4809,26.637 32.6063,38.4472 13.9471,-17.3396 21.1077,-38.9494 24.4377,-60.6857 3.3924,-30.5317 -23.0558,-52.8343 -27.9566,-81.3554 3.77,-18.2193 9.0464,-37.5675 28.3965,-44.5411 -6.9736,-9.5486 -14.1982,-19.0349 -21.1718,-28.5834 7.1623,-6.345 15.0156,-11.8102 22.9935,-17.1508 2.2616,-12.4388 -4.2721,-32.1023 12.6258,-35.6835 10.9323,-5.0254 19.6012,9.5486 29.1516,13.6961 -13.3809,-30.8469 -43.6614,-55.6622 -37.4429,-92.4123 -6.9736,-5.3406 -13.9472,-10.7435 -20.5432,-16.5222 8.2931,-13.3808 7.7892,-28.1453 5.2783,-42.9704 16.458,-23.5581 7.2852,-52.3303 -3.3301,-76.2035 7.4134,-2.8903 14.3229,-10.3019 22.803,-8.7313 8.546,7.1606 15.329,16.1447 22.8671,24.3114 6.7866,-9.424 13.5073,-18.9102 20.2298,-28.3965 -8.3555,-10.5547 -16.2711,-21.7986 -26.8241,-30.2787 -13.3185,-10.9323 -31.8529,-9.2352 -46.7403,-16.5863 -7.4135,-7.791 -12.5653,-17.3378 -18.4063,-26.2595 -20.7942,-13.0675 -47.369,-35.0549 -34.2392,-62.3829 -10.2395,-18.6591 -22.4914,-37.5052 -25.3798,-58.8639 -2.2616,-2.5127 -4.5232,-4.9631 -6.7848,-7.4135 -5.2765,2.9526 -15.8953,8.8577 -21.1718,11.8102 87.9514,150.7118 111.4471,334.215 79.7847,504.5902 -23.8092,124.324 -78.0253,246.7016 -171.3796,334.4019 -60.7481,57.922 -142.4168,96.8732 -227.4175,95.5536 -93.6659,0.1888 -181.4285,-48.7509 -243.6867,-116.5366 -84.8724,-91.7195 -133.3704,-212.0884 -153.4755,-334.2773 -26.1954,-164.5307 -0.1247,-339.7425 86.1314,-483.543 -28.7099,-16.3975 -47.1179,-44.981 -74.3818,-63.2608 -17.7794,30.1541 -18.5344,65.5224 -20.9207,99.3841 z m 873.1031,-60.0589 c 8.6083,17.4019 29.9671,19.7899 42.657,32.7932 6.5337,10.8059 -1.8841,23.2447 -3.3924,34.428 25.5063,31.1585 9.2975,73.438 9.2975,109.6877 5.0895,-2.7032 10.1772,-5.4029 15.329,-8.1667 0.8798,-7.6021 1.8218,-15.142 2.8262,-22.7424 9.1105,-14.1983 16.6486,-29.2121 23.8109,-44.4788 -6.0939,-12.1877 -13.1921,-23.9338 -17.5283,-36.8766 0.8797,-16.02 7.7909,-33.3577 -1.0685,-48.3733 -8.416,-9.9885 -22.7407,-14.7628 -27.515,-27.7038 -4.963,-10.8058 -9.4239,-21.7986 -14.5116,-32.5421 -4.9007,17.8417 -12.5012,35.0548 -29.9048,43.9748 z M 599.486,883.9199 c -0.6268,29.5273 8.8576,60.3724 31.9776,79.9717 5.8428,-37.19 1.5707,-75.5749 11.0569,-112.325 5.4635,-27.5791 22.9918,-51.9546 22.9918,-80.7268 -0.0641,-15.1402 -12.941,-25.4421 -21.0454,-36.8142 -22.616,47.0538 -44.2259,96.809 -44.9809,149.8943 z m 880.5806,-104.5376 c 19.6635,8.8594 41.5868,8.546 62.2564,13.3826 0.1246,-18.1569 -0.7551,-36.3744 -2.8902,-54.4049 -21.2324,11.5591 -39.3893,27.6414 -59.3662,41.0241 z m 68.6654,-39.1382 c 3.2037,19.5388 3.3283,39.4534 1.5689,59.1792 7.5399,7.0982 14.9515,14.387 22.3026,21.7381 -5.2782,6.2808 -10.617,12.5011 -15.9576,18.7837 6.0315,15.3273 21.3605,20.6679 34.4262,28.3324 2.1993,8.4801 3.1431,17.2131 4.3985,25.882 16.02,16.6486 34.1128,31.6001 46.3005,51.5147 -0.1264,-29.1498 4.3345,-58.2354 1.8218,-87.4493 -20.228,-12.25 -11.9366,-33.0443 -5.5917,-50.6972 -12.3747,-6.6602 -25.5686,-11.999 -37.3164,-19.6635 -4.8366,-7.0982 -7.5381,-15.3914 -12.2501,-22.616 -13.3185,-8.1667 -27.4526,-15.1403 -39.7044,-25.0023 z m -879.7026,67.7234 c -21.3588,37.3788 -23.2429,81.5441 -25.0664,123.4461 5.3423,7.7892 10.4924,15.7689 15.5801,23.7468 16.2711,-21.7363 33.924,-42.844 45.4226,-67.6593 21.7986,-44.6675 10.6776,-96.2445 25.0023,-142.9208 -22.4273,18.7838 -46.8027,37.0654 -60.9386,63.3872 z m 821.4655,-13.445 c 8.8576,18.4704 17.7153,36.9407 28.7722,54.2162 -3.0772,5.9692 -6.0939,11.9366 -9.1087,17.904 10.3659,14.1983 22.7406,26.8899 37.6939,36.3744 8.3555,12.754 15.8936,29.4009 33.4842,30.0295 21.9874,3.1413 38.1944,18.8479 54.4031,32.4798 -5.7163,-38.0715 -51.8281,-51.577 -54.3408,-90.8416 -18.8461,-5.5917 -30.2182,-20.6055 -34.6773,-39.2005 3.4548,-3.8964 10.4907,-11.6232 13.9454,-15.4537 -19.5994,-17.466 -44.3523,-24.753 -70.172,-25.5063 z m -757.5744,46.427 c -6.9736,11.2439 -9.2352,24.5624 -13.8848,36.8143 -10.1131,30.845 -31.5983,55.7226 -49.5024,82.1086 17.653,-9.0464 35.6817,-18.0928 50.3216,-31.7248 31.2225,-30.8468 47.6183,-72.9375 65.8981,-112.0134 -18.5933,5.2142 -40.0785,8.7953 -52.8325,24.8153 z m 925.184,113.3312 c -10.0507,20.8566 -20.4185,41.6509 -35.3059,59.6191 7.6022,7.2228 15.4537,14.3228 22.1121,22.4895 -6.783,7.978 -16.1447,12.941 -24.6248,18.7215 4.5232,16.8979 12.0613,32.7309 17.5266,49.253 -1.7577,9.1088 -7.6646,16.5845 -11.6856,24.7512 7.1624,9.1088 16.02,17.2773 20.6696,28.0813 4.0834,21.4852 0.8156,43.5367 2.324,65.2107 8.8594,-15.3931 15.8953,-31.7888 20.4808,-48.9396 6.0316,-24.5642 19.6635,-46.1741 30.0918,-68.9148 -9.8638,-18.0946 -15.329,-38.2602 -1.5083,-55.9755 -20.7943,-21.5494 -11.8743,-51.0107 -12.6899,-77.459 -1.7595,-11.9384 -16.02,-31.2226 -27.3904,-16.8374 z m -1070.053,87.3228 c -6.9094,41.0864 7.791,81.4177 20.9849,119.6761 7.6004,6.7225 14.9515,13.6961 22.1761,20.8567 -1.8858,-77.2703 39.5781,-152.4694 16.1429,-229.6773 -21.6099,28.1436 -52.7078,52.3302 -59.3039,89.1445 z m 1106.3651,-18.4062 c 4.5855,7.7268 9.5486,15.2649 13.1921,23.558 -2.0105,9.0464 -5.3406,17.7776 -8.3555,26.5106 3.2037,13.9472 12.8787,28.5835 5.2765,42.7194 -10.1772,22.8671 -22.3649,44.9186 -29.7142,68.9788 14.8268,-12.8786 32.1646,-22.0515 48.2469,-33.0443 6.4714,-10.4283 7.9156,-23.8091 17.1508,-32.5421 4.6478,-7.0359 14.825,-11.6215 14.2605,-21.1077 -4.3344,-13.6961 -13.4449,-25.1287 -18.5326,-38.4473 3.0166,-9.3616 7.6021,-18.1551 11.9366,-27.0145 -3.6435,-18.6574 -8.9841,-37.0013 -15.8953,-54.7183 -11.5574,15.8312 -23.9338,31.0338 -37.5658,45.1074 z M 547.0293,986.383 c -3.8323,30.4052 -8.9823,61.1879 -5.0254,91.846 5.9051,45.6096 28.961,89.7108 66.2133,117.2899 -6.345,-36.3121 -25.1893,-69.23 -29.5255,-105.9819 -3.079,-19.6635 -0.0623,-39.7045 -2.8279,-59.3038 -6.4055,-16.4599 -18.5326,-29.7143 -28.8345,-43.8502 z m 1031.9815,6.9095 c 6.4091,22.1138 11.2457,44.7939 10.4283,67.9745 -2.8902,4.3967 -5.7163,8.8576 -8.5442,13.3185 3.3301,13.3185 1.2572,26.637 -3.8323,39.1382 6.0315,4.208 12.1895,8.4178 18.2834,12.6899 1.1308,14.5116 -2.0123,30.7827 7.0982,43.4103 14.0718,21.3588 26.1331,43.9748 33.8599,68.4767 2.2616,-21.7364 3.8341,-43.6614 2.5127,-65.5242 -0.1246,-17.4642 -15.5783,-28.8345 -22.2385,-43.7878 2.9544,-8.6689 7.2247,-16.7733 11.1211,-25.0023 -7.1001,-17.3395 -18.0929,-35.1171 -14.7646,-54.5919 5.9069,-5.5916 12.7523,-10.0525 19.3501,-14.8891 -18.9102,-12.2519 -36.1856,-26.6371 -53.2741,-41.2128 z m -918.2105,53.7139 c -7.6627,56.6024 -31.8494,115.2171 -12.8786,171.8818 14.2623,-42.7194 32.7309,-83.8681 49.5682,-125.5813 12.8787,-29.716 7.9156,-62.4451 4.208,-93.4789 -16.3334,12.8768 -40.8335,22.9294 -40.8976,47.1784 z m -66.6531,245.3839 c 11.1816,53.3364 43.3462,99.5105 77.1438,141.1613 -2.762,-38.8871 0.3775,-77.71 0.755,-116.4725 -1.0667,-50.3197 -29.3385,-93.2279 -53.3987,-135.3809 -7.0377,37.19 -33.2331,71.4915 -24.5001,110.6921 z m 76.768,-38.3226 c 3.5794,25.3175 12.8787,50.0081 11.0569,75.9542 -1.9464,38.5096 -3.8963,77.2079 1.2573,115.591 17.5265,-48.3092 35.1795,-99.6351 27.9548,-151.652 -7.1605,-28.3323 -19.2236,-55.6603 -19.0349,-85.501 -9.6109,13.6319 -23.7468,27.3903 -21.2341,45.6096 z m 963.1273,-6.2185 c 1.446,8.042 2.4504,16.1464 3.1431,24.3754 -12.4388,9.7997 -25.1305,19.4124 -36.2497,30.7827 5.467,7.2247 10.9946,14.5117 16.5221,21.7987 -7.538,3.8322 -15.0779,7.6645 -22.6783,11.4967 4.9007,31.098 14.6363,61.5673 15.6424,93.1033 -4.208,18.1551 -18.4685,32.1646 -25.1287,49.5041 32.6686,-14.9515 46.6763,-51.6393 63.3249,-81.1666 9.4239,-11.8102 25.191,-16.962 33.8617,-29.3385 -0.6286,-10.4906 -2.8902,-20.7943 -3.079,-31.2849 7.2247,-6.3449 15.5178,-11.4344 22.8671,-17.6529 7.2247,-18.344 8.7953,-38.385 11.0569,-57.8597 -16.7109,-11.9989 -23.9979,-30.7827 -25.9461,-50.7596 -18.3439,11.495 -35.0548,25.4422 -53.3364,37.0013 z m -61.8165,16.7732 c 4.7761,9.5504 19.537,19.4747 12.1877,31.2867 -9.1728,13.0033 -18.6591,25.8197 -25.5686,40.3313 10.1149,22.5537 24.6889,43.6614 29.0857,68.4144 3.1413,32.1646 -13.1298,61.439 -29.9013,87.5738 20.1034,-15.7688 31.3473,-39.7044 41.7132,-62.3828 1.8218,-33.6106 -13.4431,-65.4618 -14.2605,-98.8819 5.2765,-3.6435 10.7417,-7.0359 16.3334,-10.3036 -3.7682,-6.7225 -7.4758,-13.4432 -11.1193,-20.228 11.6838,-12.5653 23.9356,-24.6265 37.8187,-34.8661 -4.2722,-19.1613 -13.445,-37.003 -29.5896,-48.8132 -10.1772,16.0823 -4.0834,40.8976 -26.6994,47.8694 z M 532.2024,1241.0643 c 17.0262,39.8933 13.7602,87.1341 41.2128,122.5664 26.0708,35.4947 56.9176,69.7963 96.9961,89.7108 -34.9284,-54.4048 -81.7294,-106.3576 -87.5721,-173.7676 3.0772,-28.6458 -31.0979,-31.2226 -50.6368,-38.5096 z m 1191.2998,25.5686 c -3.2659,19.4747 -7.0359,38.8248 -10.4906,58.2372 -8.1044,5.7163 -16.2711,11.2439 -24.4395,16.8356 1.9482,13.5072 10.3036,31.7247 -5.1501,40.3954 -17.4018,11.8102 -33.4842,25.6932 -40.3954,46.3628 15.3931,-4.021 32.982,-4.7119 44.981,-16.4598 10.1772,-10.6794 24.8153,-12.6276 38.636,-15.1403 3.4547,-18.7837 -4.0834,-35.8722 -12.8164,-51.8281 10.9323,-6.9735 22.3026,-13.3185 33.6106,-19.7258 -1.884,-3.2677 -5.7181,-9.8638 -7.6022,-13.1315 9.2352,-17.2755 11.8102,-36.8125 13.6961,-56.0361 -10.0508,3.4547 -20.041,6.9095 -30.0295,10.4906 z M 677.0714,1447.8122 c -0.0623,36.9389 -21.5475,75.3238 -3.5794,110.8808 22.9295,46.7404 62.3187,82.2992 100.0109,117.1012 -9.7979,-33.9241 -13.6319,-68.9789 -19.537,-103.5939 -10.1772,-49.3154 -44.477,-87.9514 -76.8945,-124.3881 z m 63.0097,57.2933 c 6.0956,23.2447 20.1674,43.852 23.9356,67.9122 5.2782,31.2226 9.3616,62.6962 16.4616,93.6054 10.3659,3.266 20.8548,6.2185 31.3472,9.1711 6.3449,-45.7966 5.15,-94.6721 -17.5265,-136.136 -15.7707,-28.3324 -24.5019,-59.6796 -33.7353,-90.5264 -8.733,17.6529 -23.6222,35.0548 -20.4826,55.9755 z m 747.5236,32.2911 c -12.7523,11.1192 -26.0084,21.7381 -36.6255,35.0548 5.0895,13.0674 13.3808,25.5704 14.1341,39.9556 -1.0044,19.5388 -8.3555,38.0074 -12.5635,56.9176 27.328,-23.9356 20.2921,-63.7648 42.5306,-90.4018 -3.8946,-6.9112 -7.7909,-13.8207 -11.6214,-20.6678 8.9841,-13.9472 15.1385,-29.5273 24.1226,-43.4103 9.9884,-2.6392 20.4167,-3.0167 30.658,-4.2098 3.0149,-7.5381 10.366,-14.5117 8.92,-23.1182 -8.4801,-13.445 -19.7258,-25.0041 -29.2744,-37.7563 -5.4652,31.536 -34.9284,53.965 -30.2805,87.6362 z m 94.1076,-48.8132 c -17.7153,5.2782 -28.8987,20.796 -43.0969,31.4754 -8.6066,2.1975 -17.5889,2.3863 -26.3219,3.5171 -5.2141,12.4388 -10.804,24.7529 -17.7794,36.3744 4.525,6.7225 8.9218,13.5073 13.445,20.2921 -25.0664,20.7301 -16.7109,56.6024 -36.6878,80.2868 -16.962,25.7574 -42.7835,44.1013 -59.1792,70.2985 27.7055,-17.2149 46.1118,-45.4208 73.6285,-62.885 20.6678,-13.2562 39.0759,-29.7161 56.4136,-47.1179 -0.062,-10.5548 -1.5706,-21.4229 1.8218,-31.6001 16.2087,-7.5381 34.6149,-2.1352 51.8904,-3.5171 3.6453,-20.7319 2.9543,-42.0284 7.8533,-62.5075 2.4503,-12.9428 18.2815,-13.0051 27.7055,-18.4703 0.6909,-14.5117 1.2572,-29.0874 1.4442,-43.5991 -16.1446,10.8058 -32.1023,22.3649 -51.1371,27.4527 z m 31.0979,34.5526 c -3.1413,22.2403 -2.0729,45.4849 -10.179,66.7814 -14.3211,11.1192 -34.3621,3.7058 -51.1995,5.2141 -0.8779,11.1816 7.0359,25.7556 -3.5794,34.1128 -32.1023,34.6132 -76.6451,54.6542 -106.6105,91.5308 18.157,-6.2808 37.5052,-12.25 50.4462,-27.4526 28.5853,-30.4693 70.6742,-51.7658 113.2689,-45.1697 6.1562,-12.7523 13.7584,-24.6889 20.5432,-37.0654 -0.8174,-14.8892 -8.0421,-31.7871 2.7638,-44.9168 7.7909,-0.4399 15.6424,0.3134 23.4316,0.7532 15.6442,-17.2772 24.6283,-39.2005 29.8407,-61.6918 -1.82,-1.3196 -5.5276,-3.8946 -7.3493,-5.2142 -21.9251,3.079 -41.3375,14.5117 -61.3785,23.1182 z m -1012.0688,-2.575 c 26.5748,33.9864 28.2095,82.6108 62.8245,110.8808 38.3208,32.7309 80.9778,62.0053 128.6602,79.2826 -16.3975,-23.4958 -40.0179,-40.1444 -59.8078,-60.3724 -30.6563,-30.7204 -61.1273,-64.1422 -74.6969,-106.2953 -5.3389,-25.1287 -37.8169,-19.4124 -56.98,-23.4957 z m 317.8193,102.1478 c 10.1772,8.6084 20.4808,17.0885 30.7186,25.6327 122.5681,1.5707 245.008,-3.1413 367.5103,-3.3924 19.5388,0.3758 30.9109,-18.1551 44.9204,-28.7099 -147.6951,2.4504 -295.3919,6.9736 -443.1493,6.4714 z m 39.6421,32.8574 c 16.1429,8.5442 30.7186,25.0664 50.5708,23.307 92.3482,-0.4399 184.8228,-0.691 277.0463,-5.8428 12.8769,-5.0895 23.5581,-14.3229 34.8661,-22.1139 -120.807,1.7595 -241.6763,5.1519 -362.485,4.6497 z m -89.9619,-4.1475 c 0.6909,16.962 -2.388,35.7476 7.2247,50.9502 7.4116,11.1816 18.6573,19.0348 28.27,28.1436 29.7124,26.1972 48.685,62.3828 80.034,86.947 -8.229,-29.2762 -16.4581,-58.9281 -30.6581,-85.9409 -10.4888,-21.2341 -33.1048,-31.0979 -51.073,-44.6675 -13.5696,-9.4239 -23.307,-22.9294 -33.7976,-35.4324 z m -80.2246,28.8987 c 9.5486,23.3069 16.3334,47.5577 23.8092,71.618 7.4758,26.3218 32.478,41.8396 55.4716,53.461 46.9273,22.4914 98.442,32.8574 148.9523,44.1013 -19.4124,-11.3703 -39.2023,-22.6784 -54.7824,-39.1382 -30.7186,-31.7248 -53.6481,-72.1184 -92.7862,-94.7344 -25.7574,-14.1359 -52.9607,-25.6327 -80.6662,-35.3077 z m 222.8925,5.9069 c 80.9796,40.5183 181.7456,39.2628 260.9016,-5.216 -86.9452,1.8859 -173.9563,5.0272 -260.9016,5.216 z m 339.4309,26.1954 c -11.4986,8.4819 -23.1841,16.5862 -35.119,24.3131 -2.0105,17.149 -6.7848,33.7976 -18.2192,47.1784 -3.8946,19.6012 -12.1254,37.8828 -22.7425,54.7824 12.4406,-7.6645 26.2613,-13.9471 36.3744,-24.8153 7.287,-10.7435 11.1193,-23.4334 16.1464,-35.3059 7.6646,-1.1931 15.2667,-2.2616 22.9313,-3.3924 3.9569,-10.9946 4.1439,-25.5062 15.4519,-32.0399 8.9235,-6.345 19.9145,-1.3196 29.716,-1.1932 3.3283,-6.9735 6.7848,-13.883 10.2395,-20.7319 -1.3178,-13.5055 -1.9482,-27.0128 -3.7058,-40.4578 -16.3334,11.9367 -29.5255,29.2139 -51.0748,31.6625 z m 61.5654,-2.4486 c 8.5425,2.071 11.5591,-1.2573 9.107,-10.0526 -8.5425,-2.1369 -11.5574,1.2555 -9.1088,10.0526 z m -5.1536,29.1479 c -2.762,6.9113 -5.5276,13.8225 -8.2913,20.732 -7.5399,-4.5232 -15.0139,-9.1088 -22.4896,-13.632 -11.999,9.7374 -15.5178,24.5001 -18.7232,38.8871 -7.6005,0.4381 -15.1403,0.8156 -22.6161,1.3196 -6.4696,14.1965 -10.4906,30.7186 -23.6827,40.5201 -25.3798,21.8609 -59.7455,25.6309 -90.4641,35.6193 26.9523,-0.8797 54.4655,-0.5022 80.7268,-7.3493 27.2656,-10.0525 52.519,-25.6327 81.3535,-31.4113 4.2116,7.2246 8.4196,14.4493 12.6294,21.674 20.9812,-2.8903 19.1595,-24.8153 28.1436,-38.9512 13.1297,0.2528 27.0128,10.6811 39.5139,3.8322 4.6497,-15.7689 9.6127,-31.5983 22.4914,-42.7817 0.8797,-17.7153 12.8786,-30.2182 25.2551,-41.5262 -1.3819,-5.2124 -4.0851,-15.5783 -5.4029,-20.7925 -32.1646,12.8769 -63.3248,30.7204 -98.4438,33.8599 z m -329.0631,23.6222 c -18.9084,1.0685 -37.8809,-0.4398 -56.7894,-0.5663 -0.6304,20.9207 -1.0702,41.7773 -1.1949,62.698 22.365,10.2396 43.9143,22.4273 63.6383,37.19 5.467,-6.0315 10.9323,-12.1254 16.3975,-18.1551 -19.6635,-21.4229 -39.5139,-42.657 -60.6875,-62.5093 1.6989,-1.6953 5.0895,-5.0254 6.8489,-6.6583 11.3704,11.3703 22.8671,22.7406 34.1751,34.1751 15.2044,-7.4758 30.7204,-16.4598 48.1846,-16.3957 22.4914,-0.1265 43.9748,7.7268 64.8955,15.0138 16.207,-8.1044 31.536,-17.9041 47.9977,-25.5062 -7.5399,16.2087 -23.7469,23.9979 -38.7002,31.9135 -12.0612,5.7804 -17.0243,19.0989 -24.249,29.4649 7.0377,5.2765 14.0095,10.553 21.1095,15.8312 20.3544,-17.5906 39.5781,-36.3744 60.3082,-53.4628 2.7656,-14.3852 0.8156,-29.1498 0.3758,-43.5991 -20.9813,-2.575 -42.0267,-0.942 -63.0097,0 -22.1138,1.6348 -41.1487,-12.25 -62.4451,-15.1403 -19.4124,3.7076 -36.9407,14.5758 -56.8553,15.7066 z m -329.1878,26.0084 c 43.1592,22.2385 79.5319,56.5401 125.8342,72.8112 63.6365,25.3174 132.8682,10.5529 199.0209,8.1667 -48.4997,-10.8682 -98.1286,-16.7733 -145.6863,-31.6001 -44.1636,-13.2545 -90.2753,-30.0918 -120.3048,-67.0307 -20.3544,3.0148 -40.0802,9.171 -58.864,17.6529 z m 338.1719,26.9505 c 5.7163,6.6584 11.5609,13.2544 17.466,19.8522 22.616,-1.446 45.9212,-5.1518 68.2238,0.691 4.0851,-7.4758 8.1043,-14.8892 12.1877,-22.2385 -31.4737,-12.2518 -67.9727,-18.2193 -97.8775,1.6953 z m 340.3711,1.8841 c -2.3863,11.9366 -1.8217,29.0251 -16.8356,32.5421 -15.2026,8.1667 -27.4526,-4.8366 -36.7501,-15.0761 -26.4483,9.5485 -50.7614,24.5 -77.9647,31.8494 -28.6458,4.8384 -57.9843,3.4565 -86.5678,8.5442 34.0505,3.3301 67.9745,6.7848 101.4587,14.1359 34.4886,-3.3924 69.7304,-5.3406 103.341,5.5276 15.329,-10.6794 25.5703,-26.0708 35.2436,-41.7132 7.9797,1.1931 15.7689,3.4547 23.6204,5.4029 12.8181,-12.6917 28.8363,-20.732 45.7983,-26.386 -16.6486,-3.4565 -33.3595,-6.6601 -50.0063,-10.1149 -13.9454,0.691 -27.7679,-1.5706 -41.3375,-4.7119 z m -308.3312,24.6906 c -7.4757,5.5276 -14.825,11.3704 -22.1138,17.2113 4.7743,17.1508 10.1772,34.6791 22.3008,48.3111 15.3932,-2.1352 30.911,-1.0667 46.3629,-1.0667 12.1877,-11.7479 16.4598,-28.8363 22.9312,-43.852 -10.8041,-7.9779 -21.7363,-15.6424 -33.0443,-22.8653 -11.8102,4.3327 -24.1867,5.2765 -36.4368,2.2616 z m 61.8166,46.4252 c 35.2453,15.2649 74.1948,13.6319 111.6982,14.0095 0.1887,-1.9482 0.6286,-5.9069 0.8156,-7.8533 -27.011,-6.2826 -54.7806,-6.2185 -82.1692,-9.424 -10.2413,-1.6329 -20.6696,-0.6909 -30.3446,3.2678 z m -205.4283,10.9305 c 8.5442,15.0779 19.4106,28.8345 33.6729,38.9494 21.3588,-12.7522 47.0538,-10.0508 70.0456,-17.2131 11.4986,-5.4653 25.1928,-17.1508 18.9743,-31.349 -40.0179,12.0007 -81.6082,9.5503 -122.6928,9.6127 z m 200.467,0.942 c 4.6479,10.4924 8.7935,23.3693 20.7925,27.6432 23.6222,7.3493 50.8237,2.0087 71.6803,17.653 13.4432,-9.5504 25.7573,-20.6073 35.8722,-33.673 -42.9704,-2.1993 -85.9409,-2.8902 -128.345,-11.6232 z m -287.8539,26.9505 c 10.8076,6.1579 22.1762,11.5609 31.7266,19.6011 -2.7656,6.8472 -5.8428,13.5073 -9.1729,20.1657 40.8353,2.1369 84.4967,10.2413 122.253,-10.4283 -17.2131,-8.3555 -34.1128,-17.4642 -49.1284,-29.4009 -31.536,7.1001 -63.9517,4.6497 -95.6783,0.062 z m 403.7601,10.9946 c -15.9576,10.0525 -33.2331,17.7794 -50.9501,24.249 43.2215,13.6337 88.4535,-1.4442 132.3678,7.1623 -8.9823,-12.6276 -17.5906,-26.6994 -2.5145,-38.4472 -26.32,2.2616 -52.4567,6.4714 -78.9032,7.0359 z"
       style="fill:#2c241a;fill-rule:evenodd"
       id="path2" />
    <path
       d="m 1137.6209,318.9592 c 53.6498,59.8684 135.2562,79.0297 205.4923,112.2628 46.6763,23.558 92.5993,51.8922 126.2099,92.7257 35.0548,41.966 52.7701,95.4271 88.9558,136.6399 13.9471,16.4581 32.104,28.3324 49.4418,40.9582 -36.8125,15.8312 -78.905,22.3026 -109.6877,49.6929 -14.9515,13.1297 -32.2287,23.307 -50.4462,31.2226 -49.5665,-78.15 -118.2943,-148.6995 -206.812,-180.8641 -78.9049,-29.5896 -169.8712,-21.3606 -243.4356,19.0972 -70.1097,36.6878 -125.2055,96.4333 -167.9248,162.1444 -28.8969,-17.1508 -47.0538,-47.4313 -76.8945,-63.3249 -20.7925,-11.6855 -42.2777,-22.1761 -62.1941,-35.3682 61.6919,-43.0969 86.947,-117.2899 135.6961,-171.8818 35.4965,-41.4016 80.9155,-74.0684 131.4258,-94.5492 62.7604,-26.3219 135.3828,-43.5973 180.1732,-98.7555 z m -8.4161,41.3998 c 0.6287,3.2037 1.9465,9.7374 2.5733,13.0033 7.9797,-3.5811 15.9576,-7.2228 23.8732,-10.9304 -8.8558,-0.691 -17.6529,-1.3819 -26.4465,-2.0729 z m -1.259,118.4189 c 6.9754,5.9692 14.7004,11.057 21.674,17.0262 -8.2913,23.8714 -35.8081,41.0222 -60.6857,32.3533 -21.9233,-20.2921 -3.6435,-51.828 -0.5663,-76.0771 -13.3809,25.4422 -19.0954,56.7271 -13.2544,85.1235 4.9007,19.8505 30.9091,23.3693 46.1758,13.632 23.7469,-15.6425 34.2998,-46.3629 30.1524,-73.8155 -6.2186,-10.4924 -14.7005,-19.7276 -17.3378,-31.9776 23.5581,1.9481 27.6414,-19.5371 27.7661,-37.7563 -4.4591,3.0166 -13.2544,8.9217 -17.653,11.9366 -2.0087,-13.2562 -3.5171,-26.5106 -5.2747,-39.8291 -3.0167,33.2331 -6.3449,66.4038 -10.9964,99.384 z m -102.3366,-61.6277 c -3.0148,30.9715 7.5381,60.561 17.0244,89.4597 1.1308,-30.7845 -8.4801,-60.31 -17.0244,-89.4597 z m -90.0865,50.1951 c 1.6971,29.903 13.8848,57.6085 27.2015,83.9303 -2.8261,-29.6519 -14.8874,-57.1686 -27.2015,-83.9303 z m 413.2445,19.2859 c 2.5751,3.1413 7.6004,9.3616 10.1772,12.5012 12.2519,-5.2124 19.3483,-14.7628 17.5266,-28.6458 -9.3599,5.15 -18.5932,10.5529 -27.7038,16.1446 z m -353.061,31.7889 c -0.7533,18.595 -10.6794,34.5526 -17.5906,51.2636 7.7286,-7.5399 21.2982,-12.6276 21.4229,-25.0664 1.3819,-22.5537 9.6127,-43.9766 10.3659,-66.5926 -7.4775,12.3764 -13.6337,25.695 -14.1982,40.3954 z m 170.3129,6.4073 c 10.4283,15.8312 28.5193,23.558 45.0415,31.349 36.4385,15.9558 79.5336,26.0084 116.7859,6.2808 -8.0385,15.8312 -23.9979,30.5317 -21.6722,49.8817 12.3124,10.1772 23.5581,-5.2141 34.615,-10.1149 -3.3301,-2.0728 -9.9902,-6.0938 -13.3185,-8.1043 -1.8859,-29.3368 26.4483,-50.0687 42.5306,-71.9938 34.7414,2.4504 68.6636,10.4924 102.9652,15.7689 -22.7407,-18.0928 -53.5252,-17.2131 -80.9778,-20.228 -30.594,-5.4047 -45.7984,27.5791 -67.3441,42.7817 -53.21,-0.002 -114.4015,-15.078 -148.0744,-59.2415 -3.7664,7.7891 -7.9762,15.329 -10.553,23.6204 z M 898.4573,507.1121 c 4.2721,23.9338 23.5581,41.1487 29.6519,64.2669 0.4399,27.0128 -24.1225,56.7911 -52.8342,51.577 -16.2069,-11.8743 -18.4062,-33.4842 -26.0084,-50.5727 4.3985,20.9208 8.2931,43.0969 21.6116,60.5611 6.7225,9.2975 18.5327,16.8997 30.4052,13.3809 21.8646,-5.9675 35.306,-29.2744 34.7415,-51.1372 -0.5663,-32.9196 -15.8313,-64.0158 -37.5676,-88.076 z m 136.2607,47.4936 c -7.5363,-0.8174 -15.0139,-1.633 -22.4896,-2.388 -0.8156,8.6065 -1.5707,17.2131 -2.2616,25.8214 6.2826,0.5004 12.5634,0.9421 18.9084,1.4442 0.8797,-4.5873 2.6409,-13.7583 3.5812,-18.3439 5.0253,1.1291 15.0779,3.4548 20.1051,4.5856 1.1931,-5.4029 3.6417,-16.2088 4.8989,-21.6117 -4.3985,-2.2616 -13.1938,-6.783 -17.5888,-8.9823 -1.3196,4.8366 -3.8964,14.6381 -5.1536,19.4747 z m 336.5406,74.5688 c 11.1175,-0.3758 21.2947,-5.2124 31.536,-8.9823 -4.8384,-6.158 -9.7374,-12.3765 -14.5117,-18.5327 11.0552,-20.983 25.5686,-39.7668 37.9433,-59.9324 -24.7494,23.4957 -52.5172,51.6393 -54.9694,87.4474 z M 877.6007,559.38 c -0.2511,8.229 0.1265,16.5222 0.4381,24.7512 6.913,0.1888 13.8848,0.4399 20.8584,0.6286 -0.1247,-8.4178 -0.3152,-16.8356 -0.5645,-25.191 -6.9113,-0.3152 -13.8207,-0.3775 -20.732,-0.1888 z m 479.3956,104.8493 c 6.913,-3.2659 13.9471,-6.4073 20.4808,-10.4265 0.2529,-6.9753 -0.8797,-13.8848 -1.446,-20.7943 -11.6196,7.474 -29.212,14.0095 -19.0348,31.2208 z"
       style="fill:#fff6b1;fill-rule:evenodd"
       id="path4" />
    <path
       d="m 1129.2048,360.359 c 8.7954,0.691 17.5889,1.3819 26.4465,2.0729 -7.9156,3.7076 -15.8935,7.3511 -23.8732,10.9304 -0.6268,-3.2659 -1.9464,-9.7996 -2.5733,-13.0033 z m -1.259,118.4189 c 4.6515,-32.982 7.9797,-66.1509 10.9964,-99.384 1.7576,13.3185 3.266,26.5747 5.2747,39.8291 4.3986,-3.0149 13.1939,-8.92 17.653,-11.9366 -0.1229,18.2192 -4.208,39.7044 -27.7661,37.7563 2.6373,12.25 11.1192,21.4852 17.3378,31.9776 4.1474,27.4526 -6.4055,58.173 -30.1524,73.8155 -15.2667,9.7373 -41.2751,6.2203 -46.1758,-13.632 -5.841,-28.3964 -0.1265,-59.6813 13.2544,-85.1235 -3.0772,24.2473 -21.357,55.785 0.5663,76.0771 24.8776,8.6689 52.3944,-8.4819 60.6857,-32.3533 -6.9736,-5.9692 -14.7004,-11.057 -21.674,-17.0262 z m -102.3366,-61.6277 c 8.5443,29.1497 18.1552,58.677 17.0244,89.4597 -9.4863,-28.8987 -20.0392,-58.4882 -17.0244,-89.4597 z m -90.0865,50.1951 c 12.3141,26.7617 24.3736,54.2784 27.2015,83.9303 -13.3167,-26.3236 -25.5044,-54.0273 -27.2015,-83.9303 z m 413.2445,19.2859 c 9.1106,-5.5917 18.3439,-10.9928 27.7038,-16.1446 1.8235,13.883 -5.2747,23.4334 -17.5266,28.6458 -2.5768,-3.1414 -7.6021,-9.3599 -10.1772,-12.5012 z m -353.061,31.7889 c 0.5645,-14.7004 6.7207,-28.019 14.1982,-40.3954 -0.7532,22.616 -8.984,44.0389 -10.3659,66.5926 -0.1247,12.437 -13.6943,17.5265 -21.4229,25.0664 6.9112,-16.7127 16.8356,-32.6686 17.5906,-51.2636 z m 170.3129,6.4073 c 2.575,-8.2932 6.783,-15.8313 10.5512,-23.6204 33.6729,44.1635 94.8626,59.2415 148.0744,59.2415 21.5457,-15.2044 36.7501,-48.1846 67.3441,-42.7817 27.4544,3.0149 58.2371,2.1352 80.9778,20.228 -34.2998,-5.2783 -68.2256,-13.3185 -102.9652,-15.7689 -16.0823,21.9251 -44.4165,42.657 -42.5306,71.9938 3.3301,2.0105 9.9884,6.0315 13.3185,8.1043 -11.0569,4.9008 -22.3026,20.2921 -34.615,10.1149 -2.3257,-19.35 13.632,-34.0505 21.6722,-49.8817 -37.2523,19.7276 -80.3474,9.675 -116.7859,-6.2808 -16.5204,-7.791 -34.615,-15.5178 -45.0433,-31.349 z M 898.4573,507.1121 c 21.7363,24.0602 37.0013,55.1581 37.5676,88.076 0.5645,21.8628 -12.8787,45.1697 -34.7415,51.1372 -11.8725,3.5188 -23.6827,-4.0834 -30.4052,-13.3809 -13.3167,-17.4642 -17.2131,-39.6403 -21.6116,-60.5611 7.6022,17.0885 9.8015,38.6984 26.0084,50.5727 28.7117,5.2141 53.2741,-24.5642 52.8342,-51.577 -6.092,-23.1182 -25.3798,-40.3313 -29.6519,-64.2669 z m 136.2607,47.4936 c 1.2572,-4.8384 3.834,-14.6381 5.1536,-19.4747 4.395,2.1975 13.1903,6.7207 17.5888,8.9823 -1.2572,5.4029 -3.7076,16.2088 -4.8989,21.6117 -5.0254,-1.1308 -15.0798,-3.4548 -20.1051,-4.5856 -0.9403,4.5856 -2.7015,13.7566 -3.5812,18.3439 -6.345,-0.5039 -12.6258,-0.942 -18.9084,-1.4442 0.6909,-8.6083 1.446,-17.2149 2.2616,-25.8214 7.4757,0.7533 14.9515,1.5706 22.4896,2.388 z m 336.5406,74.5688 c 2.4504,-35.8081 30.2164,-63.9517 54.9676,-87.4474 -12.3747,20.1656 -26.8881,38.9494 -37.9433,59.9324 4.7743,6.1562 9.6733,12.3765 14.5117,18.5327 -10.2413,3.7699 -20.4185,8.6065 -31.5378,8.9823 z M 877.6007,559.38 c 6.9113,-0.1887 13.8207,-0.1264 20.732,0.1888 0.2493,8.3537 0.4398,16.7732 0.5645,25.191 -6.9736,-0.1887 -13.9454,-0.4398 -20.8584,-0.6286 -0.3116,-8.229 -0.6909,-16.5222 -0.4381,-24.7512 z m 479.3956,104.8493 c -10.1772,-17.2131 7.4152,-23.7468 19.0348,-31.2208 0.5681,6.9095 1.6971,13.8207 1.446,20.7943 -6.5319,4.0192 -13.5696,7.1606 -20.4808,10.4265 z M 1065.0626,871.23 c 8.1026,16.4581 15.5178,40.5824 37.9451,41.0864 16.2069,3.2019 26.4482,-11.7496 36.8124,-21.3606 8.9218,9.9885 17.2149,24.5643 32.8556,22.2385 20.041,-1.1308 26.3859,-22.5519 35.7458,-36.5613 6.409,19.3482 3.1431,46.7386 -18.1534,55.2828 -17.1508,8.6689 -35.9345,0.6286 -52.5831,-5.1518 -25.0041,11.1833 -55.9738,11.6232 -74.5065,-11.3081 -0.1264,-14.7627 0.5004,-29.5254 1.8823,-44.2259 z m 39.765,88.0138 c 10.1772,-10.9323 22.5537,-19.4747 33.9241,-29.0874 9.9902,10.3659 24.1243,17.7794 31.2225,30.4693 1.1326,101.5833 -4.0833,203.2931 -3.0148,304.9405 93.2296,-75.5143 109.5612,-223.8986 41.5885,-321.0228 35.1813,25.8819 60.8763,63.5136 75.4485,104.4735 21.2341,60.1836 12.567,129.1624 -20.8566,183.2521 -17.9646,31.1603 -44.6017,55.9756 -72.0561,78.6539 31.5378,12.8787 65.4618,15.8936 99.1953,16.3334 -40.7088,23.6845 -89.2068,14.8269 -133.9349,16.4599 -5.7822,10.3659 -11.5609,20.6678 -17.2772,31.0338 -7.8515,-10.2396 -14.2606,-21.7363 -23.811,-30.4675 -42.9063,-4.7761 -94.6721,10.1772 -129.3511,-23.0577 32.8573,2.2616 67.3476,4.7761 98.068,-9.7356 -38.0715,-36.4385 -76.5828,-75.7013 -92.5387,-127.4671 -32.0382,-84.4967 0.2511,-187.713 75.1974,-238.1592 -72.5583,94.3587 -56.2249,247.0792 41.8396,317.9439 0.4399,-101.521 -5.0877,-203.1043 -3.6435,-304.563 z m -196.5688,93.2278 c 28.27,-54.0896 80.538,-94.234 137.8936,-113.3312 -44.5411,44.1013 -91.2797,92.1612 -104.1601,156.0506 -17.149,70.6742 10.6794,140.4081 35.0548,205.617 -76.2035,-53.5875 -111.5718,-163.2111 -68.7883,-248.3364 z m 326.424,-111.5094 c 56.727,20.983 107.5507,62.885 133.4327,118.2319 40.1443,85.437 1.3837,195.1888 -77.2702,244.0643 16.6468,-41.6509 37.0653,-82.5485 42.7817,-127.5918 9.9902,-53.9027 -3.6435,-110.5674 -33.5465,-156.1128 -17.653,-29.465 -43.6614,-52.3321 -65.3977,-78.5916 z"
       style="fill:#e30612;fill-rule:evenodd"
       id="path6" />
    <path
       d="m 1601.2493,769.5826 c 17.4036,-8.92 25.0041,-26.1331 29.9048,-43.9748 5.0877,10.7417 9.5486,21.7363 14.5116,32.5421 4.7743,12.941 19.0972,17.7153 27.515,27.7038 8.8594,15.0138 1.9482,32.3533 1.0685,48.3733 4.3362,12.941 11.4344,24.6889 17.5283,36.8766 -7.1623,15.2667 -14.7004,30.2805 -23.8109,44.4788 -1.0044,7.6004 -1.9464,15.1403 -2.8262,22.7424 -5.1518,2.762 -10.2395,5.4653 -15.329,8.1667 0,-36.2497 16.2088,-78.5292 -9.2975,-109.6877 1.5083,-11.1833 9.9261,-23.6221 3.3924,-34.428 -12.6899,-13.0033 -34.0505,-15.3913 -42.657,-32.7932 z M 599.486,883.9199 c 0.755,-53.0853 22.3649,-102.8405 44.9809,-149.8943 8.1044,11.3703 20.9813,21.674 21.0454,36.8142 0,28.7722 -17.5283,53.1477 -22.9918,80.7268 -9.4862,36.7501 -5.2141,75.135 -11.0569,112.325 -23.12,-19.5993 -32.6044,-50.4444 -31.9776,-79.9717 z m 891.0089,-89.3974 c 25.8197,0.7551 50.5726,8.0421 70.172,25.5081 -3.4547,3.8305 -10.4906,11.5573 -13.9454,15.4537 4.4591,18.595 15.8312,33.6088 34.6773,39.2005 2.5127,39.2628 48.6245,52.7719 54.3408,90.8416 -16.2069,-13.6319 -32.4157,-29.3385 -54.4031,-32.4798 -17.5906,-0.6286 -25.1305,-17.2755 -33.4842,-30.0295 -14.9515,-9.4862 -27.3297,-22.1761 -37.6939,-36.3744 3.0148,-5.9674 6.0315,-11.9348 9.1087,-17.904 -11.0569,-17.2755 -19.9146,-35.7458 -28.7722,-54.2144 z m -757.5744,46.427 c 12.754,-16.02 34.2392,-19.6011 52.8325,-24.8153 -18.2798,39.0759 -34.6756,81.1666 -65.8981,112.0134 -14.6399,13.632 -32.6686,22.6784 -50.3216,31.7248 17.9041,-26.386 39.3893,-51.2636 49.5024,-82.1086 4.6496,-12.2519 6.9112,-25.5686 13.8848,-36.8143 z m 961.4961,182.2478 c 13.632,-14.0736 26.0084,-29.2762 37.5658,-45.1074 6.9112,17.7153 12.2518,36.0609 15.8953,54.7183 -4.3345,8.8576 -8.92,17.6529 -11.9366,27.0145 5.0895,13.3168 14.1982,24.7512 18.5326,38.4473 0.5663,9.4845 -9.6127,14.0718 -14.2605,21.1077 -9.2352,8.7312 -10.6794,22.1138 -17.1508,32.5421 -16.0823,10.9928 -33.4219,20.1657 -48.2469,33.0443 7.3511,-24.0602 19.537,-46.1117 29.7142,-68.9788 7.6022,-14.1359 -2.0728,-28.7722 -5.2765,-42.7194 3.0149,-8.733 6.345,-17.4642 8.3555,-26.5106 -3.6435,-8.2931 -8.6066,-15.8312 -13.1921,-23.558 z M 547.0293,986.383 c 10.3019,14.1359 22.429,27.3903 28.8345,43.8502 2.7656,19.5993 -0.2511,39.6403 2.8279,59.3038 4.3362,36.7501 23.1805,69.6698 29.5255,105.9819 -37.2523,-27.5791 -60.3082,-71.6803 -66.2133,-117.2899 -3.9569,-30.6581 1.1931,-61.439 5.0254,-91.846 z m 1031.9815,6.9095 c 17.0885,14.5757 34.3639,28.9627 53.2741,41.2128 -6.5961,4.8366 -13.445,9.2975 -19.3501,14.8891 -3.3283,19.473 7.6645,37.2524 14.7646,54.5919 -3.8964,8.229 -8.1685,16.3334 -11.1211,25.0023 6.6602,14.9515 22.1139,26.3236 22.2385,43.7878 1.3214,21.8628 -0.2511,43.7878 -2.5127,65.5242 -7.725,-24.5019 -19.7881,-47.1179 -33.8599,-68.4767 -9.1105,-12.6276 -5.9674,-28.8987 -7.0982,-43.4103 -6.0939,-4.2721 -12.2519,-8.4801 -18.2834,-12.6899 5.0895,-12.5012 7.1624,-25.8197 3.8323,-39.1382 2.8279,-4.4609 5.654,-8.9218 8.5442,-13.3185 0.8174,-23.1823 -4.021,-45.8607 -10.4283,-67.9745 z m -918.2105,53.7139 c 0.0641,-24.249 24.5642,-34.3016 40.8976,-47.1784 3.7076,31.032 8.6707,63.7629 -4.208,93.4789 -16.8373,41.7132 -35.3059,82.8619 -49.5682,125.5813 -18.9708,-56.6665 5.2159,-115.2794 12.8786,-171.8818 z m 10.1149,207.0613 c -2.5127,-18.2175 11.6232,-31.9759 21.2341,-45.6078 -0.1887,29.8407 11.8744,57.1687 19.0349,85.501 7.2247,52.0169 -10.4283,103.3428 -27.9548,151.652 -5.1536,-38.3831 -3.2054,-77.0814 -1.2573,-115.591 1.8218,-25.9461 -7.4775,-50.6367 -11.0569,-75.9524 z m 901.3108,10.5547 c 22.616,-6.9736 16.5222,-31.7871 26.6994,-47.8694 16.1464,11.8102 25.3174,29.6519 29.5896,48.8132 -13.8831,10.2396 -26.1349,22.3008 -37.8187,34.8661 3.6435,6.783 7.3494,13.5055 11.1193,20.228 -5.5899,3.266 -11.0569,6.6601 -16.3334,10.3036 0.8174,33.4201 16.0823,65.2713 14.2605,98.8819 -10.3659,22.6784 -21.6116,46.614 -41.7132,62.3828 16.7733,-26.1348 33.0426,-55.4092 29.9013,-87.5738 -4.3968,-24.753 -18.9708,-45.8607 -29.0857,-68.4144 6.9113,-14.5116 16.3958,-27.328 25.5686,-40.3313 7.3511,-11.812 -7.4134,-21.7363 -12.1877,-31.2867 z M 532.2024,1241.0643 c 19.5389,7.287 53.714,9.8638 50.6368,38.5096 5.8427,67.4082 52.6437,119.3628 87.5721,173.7676 -40.0785,-19.9145 -70.9253,-54.2161 -96.9961,-89.7108 -27.4526,-35.4323 -24.1866,-82.6731 -41.2128,-122.5664 z m 1191.2998,25.5686 c 9.9885,-3.5811 19.9787,-7.0359 30.0295,-10.4906 -1.8859,19.2236 -4.4609,38.7606 -13.6961,56.0361 1.8859,3.2677 5.7164,9.8638 7.6022,13.1315 -11.308,6.4073 -22.6801,12.7523 -33.6106,19.7258 8.733,15.9559 16.2711,33.0444 12.8164,51.8281 -13.8207,2.5127 -28.4588,4.4609 -38.636,15.1403 -11.999,11.7479 -29.5896,12.4388 -44.981,16.4598 6.9112,-20.6696 22.9936,-34.5526 40.3954,-46.3628 15.4537,-8.6707 7.0983,-26.8882 5.1501,-40.3954 8.1684,-5.5917 16.3351,-11.1193 24.4395,-16.8356 3.4547,-19.4124 7.2229,-38.7625 10.4906,-58.2372 z m -983.4211,238.4726 c -3.1396,-20.9189 11.7478,-38.3208 20.4826,-55.9737 9.2334,30.8468 17.9646,62.194 33.7353,90.5264 22.6765,41.4639 23.8714,90.3394 17.5265,136.136 -10.4924,-2.9526 -20.983,-5.9051 -31.3472,-9.1711 -7.1,-30.9092 -11.1834,-62.3828 -16.4616,-93.6054 -3.7682,-24.0602 -17.8418,-44.6675 -23.9356,-67.9104 z m 747.5236,32.2911 c -4.6479,-33.6712 24.8153,-56.1002 30.2805,-87.6362 9.5486,12.7522 20.7943,24.3113 29.2744,37.7563 1.446,8.6065 -5.9051,15.5801 -8.92,23.1182 -10.2395,1.1931 -20.6696,1.5706 -30.658,4.2098 -8.9823,13.883 -15.1385,29.4631 -24.1226,43.4103 3.8323,6.8471 7.7268,13.7583 11.6214,20.6678 -22.2385,26.637 -15.2026,66.4662 -42.5306,90.4018 4.2098,-18.9102 11.5591,-37.3788 12.5635,-56.9176 -0.7533,-14.387 -9.0464,-26.8882 -14.1341,-39.9556 10.6171,-13.3167 23.8715,-23.9356 36.6255,-35.0548 z m 125.2055,-14.2606 c 20.0392,-8.6065 39.4516,-20.0392 61.3767,-23.1182 1.8217,1.3196 5.5293,3.8946 7.3493,5.2142 -5.2124,22.4895 -14.1965,44.4146 -29.8407,61.6918 -7.7892,-0.4398 -15.6407,-1.1931 -23.4316,-0.7532 -10.8059,13.1297 -3.5812,30.0276 -2.7638,44.9168 -6.7848,12.3765 -14.387,24.3131 -20.5432,37.0654 -42.5929,-6.5961 -84.6836,14.7004 -113.2689,45.1697 -12.941,15.2026 -32.291,21.1718 -50.4462,27.4526 29.9654,-36.8766 74.5082,-56.9176 106.6105,-91.5308 10.6171,-8.3572 2.6997,-22.9312 3.5794,-34.1128 16.8374,-1.5083 36.8766,5.9051 51.1995,-5.2141 8.1061,-21.2982 7.0377,-44.5411 10.1772,-66.7814 z m -1012.0688,-2.575 c 19.1631,4.0833 51.6411,-1.633 56.98,23.4957 13.5696,42.1531 44.0406,75.5749 74.6969,106.2953 19.7899,20.228 43.4103,36.8766 59.8078,60.3724 -47.6824,-17.2773 -90.3394,-46.5517 -128.6602,-79.2826 -34.615,-28.27 -36.2497,-76.8944 -62.8245,-110.8808 z m 267.4995,130.8577 c 10.4906,12.503 20.228,26.0085 33.7976,35.4324 17.9682,13.5696 40.5842,23.4334 51.073,44.6675 14.2,27.0128 22.4291,56.6647 30.6581,85.9409 -31.349,-24.5642 -50.3216,-60.7498 -80.034,-86.947 -9.6127,-9.1088 -20.8584,-16.962 -28.27,-28.1436 -9.6127,-15.2044 -6.5338,-33.9882 -7.2247,-50.9502 z m 482.0988,61.001 c 21.5475,-2.4486 34.7378,-19.7258 51.073,-31.6625 1.7594,13.445 2.388,26.9523 3.7058,40.4578 -3.4547,6.8489 -6.9112,13.7584 -10.2395,20.7319 -9.7997,-0.1264 -20.7943,-5.1518 -29.716,1.1932 -11.308,6.5337 -11.495,21.0453 -15.4519,32.0399 -7.6646,1.1308 -15.2667,2.1993 -22.9313,3.3924 -5.0254,11.8725 -8.8594,24.5624 -16.1464,35.3059 -10.1131,10.8682 -23.9356,17.1508 -36.3744,24.8153 10.6171,-16.8996 18.8479,-35.1812 22.7425,-54.7824 11.4344,-13.3808 16.2087,-30.0276 18.2192,-47.1784 11.9367,-7.7286 23.6204,-15.8312 35.1172,-24.3131 z m -601.8391,76.3299 c 18.7838,-8.4819 38.5096,-14.6381 58.864,-17.6529 30.0295,36.9389 76.1412,53.7762 120.3048,67.0307 47.5577,14.8268 97.1866,20.7319 145.6863,31.6001 -66.1527,2.3862 -135.3844,17.1507 -199.0209,-8.1667 -46.3023,-16.2711 -82.675,-50.5727 -125.8342,-72.8112 z m 678.543,28.8346 c 13.5696,3.1413 27.3903,5.4029 41.3375,4.7119 16.6486,3.4548 33.3577,6.6584 50.0063,10.1149 -16.962,5.654 -32.982,13.6943 -45.7983,26.386 -7.8515,-1.9482 -15.6407,-4.2098 -23.6204,-5.4029 -9.6733,15.6424 -19.9146,31.0338 -35.2436,41.7132 -33.6106,-10.8682 -68.8524,-8.92 -103.341,-5.5276 -33.4842,-7.3511 -67.4082,-10.8058 -101.4587,-14.1359 28.5853,-5.0877 57.922,-3.7058 86.5678,-8.5442 27.2033,-7.3494 51.5164,-22.3009 77.9647,-31.8494 9.2975,10.2395 21.5457,23.2428 36.7501,15.0761 15.0139,-3.517 14.4493,-20.6055 16.8356,-32.5421 z"
       style="fill:#f7a70b;fill-rule:evenodd"
       id="path8" />
    <path
       d="m 1548.732,740.2441 c 12.2501,9.8638 26.3842,16.8374 39.7027,25.0041 4.712,7.2246 7.4117,15.5178 12.2501,22.616 11.7478,7.6645 24.9399,13.0051 37.3164,19.6635 -6.3449,17.6529 -14.6381,38.4472 5.5917,50.6972 2.5127,29.2139 -1.9482,58.2995 -1.8218,87.4493 -12.1877,-19.9146 -30.2805,-34.8661 -46.3005,-51.5147 -1.2554,-8.6689 -2.1992,-17.4019 -4.3985,-25.882 -13.0657,-7.6645 -28.3947,-13.0051 -34.4262,-28.3324 5.3406,-6.2844 10.6794,-12.5029 15.9576,-18.7837 -7.3493,-7.3511 -14.7645,-14.6381 -22.3026,-21.7381 1.7594,-19.7258 1.6348,-39.6404 -1.5706,-59.1774 z m -879.7026,67.7234 c 14.1359,-26.3236 38.5113,-44.6034 60.9386,-63.3872 -14.3229,46.6763 -3.2037,98.2533 -25.0023,142.9208 -11.4986,24.8135 -29.1515,45.923 -45.4226,67.6593 -5.0877,-7.9797 -10.2378,-15.9576 -15.5801,-23.7468 1.8235,-41.9038 3.7076,-86.0673 25.0664,-123.4461 z m 989.0751,146.3132 c 11.3704,-14.387 25.6309,4.9007 27.3904,16.8374 0.8173,26.4465 -8.1044,55.9114 12.6899,77.459 -13.8207,17.7153 -8.3555,37.8827 1.5083,55.9755 -10.4283,22.7407 -24.0602,44.3523 -30.0918,68.9148 -4.5855,17.1508 -11.6232,33.5465 -20.4808,48.9396 -1.5084,-21.674 1.7594,-43.7255 -2.324,-65.2107 -4.6478,-10.804 -13.5072,-18.9725 -20.6696,-28.0813 4.0228,-8.1667 9.9279,-15.6424 11.6856,-24.7512 -5.4653,-16.5239 -13.0034,-32.3533 -17.5266,-49.253 8.4801,-5.7805 17.84,-10.7435 24.6248,-18.7215 -6.6584,-8.1667 -14.5099,-15.2649 -22.1121,-22.4895 14.8892,-17.9682 25.2552,-38.7625 35.3059,-59.6191 z m -1070.053,87.3228 c 6.5961,-36.8143 37.694,-60.9992 59.3039,-89.1445 23.4352,77.2079 -18.0287,152.407 -16.1429,229.6773 -7.2246,-7.1606 -14.5757,-14.1342 -22.1761,-20.8567 -13.1939,-38.2584 -27.8943,-78.5897 -20.9849,-119.6761 z m 6.0957,250.7868 c -8.733,-39.2006 17.4624,-73.5021 24.5001,-110.6921 24.0602,42.153 52.3302,85.0612 53.3987,135.3809 -0.3775,38.7607 -3.517,77.5854 -0.755,116.4725 -33.7976,-41.6508 -65.9622,-87.8249 -77.1438,-141.1613 z m 1039.8953,-44.5411 c 18.2834,-11.5591 34.9925,-25.5063 53.3364,-37.0013 1.9482,19.9769 9.2352,38.7607 25.9461,50.7596 -2.2616,19.4747 -3.8322,39.5157 -11.0569,57.8597 -7.3493,6.2185 -15.6424,11.308 -22.8671,17.6529 0.1888,10.4906 2.4504,20.7943 3.079,31.2849 -8.6689,12.3765 -24.4396,17.5283 -33.8617,29.3385 -16.6468,29.5255 -30.6563,66.2151 -63.3249,81.1666 6.6602,-17.3395 20.9207,-31.349 25.1287,-49.5041 -1.0043,-31.5378 -10.7435,-62.0053 -15.6424,-93.1033 7.6004,-3.8322 15.1403,-7.6645 22.6783,-11.4967 -5.5275,-7.287 -11.0569,-14.574 -16.5221,-21.7987 11.121,-11.3703 23.8109,-20.983 36.2497,-30.7827 -0.6909,-8.229 -1.6971,-16.3334 -3.1431,-24.3754 z m -956.9711,199.963 c 32.4175,36.4367 66.7173,75.0727 76.8945,124.3881 5.9051,34.615 9.7373,69.6698 19.537,103.5939 -37.6922,-34.802 -77.0832,-70.3608 -100.0109,-117.1012 -17.9681,-35.557 3.5171,-73.9401 3.5794,-110.8808 z m 904.6409,40.7712 c 19.0366,-5.0878 34.9925,-16.6469 51.1371,-27.4527 -0.187,14.5117 -0.7533,29.0874 -1.4442,43.5991 -9.424,5.4652 -25.2552,5.5275 -27.7055,18.4703 -4.899,20.4791 -4.208,41.7756 -7.8533,62.5075 -17.2755,1.3819 -35.6817,-4.021 -51.8904,3.5171 -3.3924,10.1772 -1.8841,21.0471 -1.8218,31.6001 -17.3377,17.4018 -35.7458,33.8617 -56.4136,47.1179 -27.5167,17.4642 -45.9248,45.6701 -73.6285,62.885 16.3975,-26.1972 42.2172,-44.5411 59.1792,-70.2985 19.9769,-23.6844 11.6214,-59.5549 36.6878,-80.2868 -4.5232,-6.7848 -8.9218,-13.5696 -13.445,-20.2921 6.9754,-11.6215 12.5653,-23.9356 17.7794,-36.3744 8.733,-1.1308 17.7153,-1.3178 26.3219,-3.5171 14.2,-10.6794 25.3816,-26.1972 43.0969,-31.4754 z m -793.696,191.734 c 27.7056,9.675 54.9071,21.1718 80.6645,35.3077 39.1381,22.616 62.0676,63.0096 92.7862,94.7344 15.5801,16.4598 35.37,27.7679 54.7824,39.1382 -50.5103,-11.2439 -102.025,-21.6099 -148.9523,-44.1013 -22.9936,-11.6214 -47.9958,-27.1392 -55.4716,-53.461 -7.4758,-24.062 -14.2606,-48.3111 -23.8109,-71.618 z m 623.8888,29.6537 c -2.4504,-8.7971 0.5645,-12.1895 9.107,-10.0526 2.4521,8.7953 -0.5645,12.1254 -9.1088,10.0526 z m -5.1536,29.1479 c 35.119,-3.1395 66.2774,-20.983 98.4438,-33.8599 1.3196,5.2142 4.0193,15.5801 5.4029,20.7925 -12.3765,11.308 -24.3754,23.8109 -25.2551,41.5262 -12.8787,11.1816 -17.8417,27.0146 -22.4914,42.7817 -12.4993,6.8471 -26.3842,-3.5794 -39.5139,-3.8322 -8.9841,14.1359 -7.1624,36.0609 -28.1436,38.9512 -4.2098,-7.2247 -8.4196,-14.4494 -12.6294,-21.674 -28.8327,5.7786 -54.0879,21.3588 -81.3535,31.4113 -26.2613,6.8471 -53.7763,6.4696 -80.7268,7.3493 30.7186,-9.9884 65.0825,-13.7584 90.4641,-35.6193 13.1921,-9.8015 17.2131,-26.3236 23.6827,-40.5201 7.4776,-0.504 15.0156,-0.8797 22.6161,-1.3196 3.2054,-14.387 6.7242,-29.1497 18.7232,-38.8871 7.4757,4.5232 14.9497,9.1088 22.4896,13.632 2.7655,-6.9095 5.5275,-13.8207 8.2913,-20.732 z m -329.0631,23.6222 c 19.9146,-1.1308 37.4429,-11.999 56.8553,-15.7066 21.2982,2.8903 40.3313,16.7751 62.4451,15.1403 20.983,-0.942 42.0284,-2.575 63.0097,0 0.4416,14.4493 2.388,29.2139 -0.3758,43.5991 -20.7301,17.0866 -39.9538,35.8722 -60.3082,53.4628 -7.1,-5.2782 -14.0736,-10.5547 -21.1095,-15.8312 7.2247,-10.3677 12.1878,-23.6845 24.249,-29.4649 14.9533,-7.9156 31.1603,-15.7048 38.7002,-31.9135 -16.4617,7.6021 -31.7907,17.4018 -47.9977,25.5062 -20.9189,-7.2888 -42.4059,-15.1403 -64.8955,-15.0138 -17.4642,-0.064 -32.9802,8.9199 -48.1846,16.3957 -11.308,-11.4345 -22.8047,-22.8048 -34.1751,-34.1751 -1.7576,1.6329 -5.1518,4.963 -6.8489,6.6583 21.1736,19.8523 41.024,41.0864 60.6875,62.5093 -5.4652,6.0297 -10.9323,12.1236 -16.3975,18.1551 -19.724,-14.7627 -41.2733,-26.9504 -63.6383,-37.19 0.1265,-20.9207 0.5645,-41.7773 1.1949,-62.698 18.9085,0.1265 37.881,1.6348 56.7894,0.5663 z m 41.024,79.5336 c 12.2519,3.0149 24.6266,2.0729 36.4368,-2.2616 11.308,7.2229 22.2402,14.8874 33.0443,22.8653 -6.4714,15.0157 -10.7435,32.1041 -22.9312,43.852 -15.4519,0 -30.9697,-1.0685 -46.3629,1.0667 -12.1236,-13.632 -17.5265,-31.1603 -22.3008,-48.3111 7.2888,-5.8409 14.6381,-11.6837 22.1138,-17.2113 z m -143.6117,57.3557 c 41.0846,-0.062 82.6749,2.388 122.6928,-9.6127 6.2185,14.1982 -7.4757,25.8837 -18.9743,31.349 -22.9918,7.1623 -48.6868,4.4609 -70.0456,17.2131 -14.2623,-10.1149 -25.1304,-23.8715 -33.6729,-38.9494 z m 200.467,0.942 c 42.4041,8.733 85.3746,9.4239 128.345,11.6232 -10.1131,13.0657 -22.429,24.1226 -35.8722,33.673 -20.8566,-15.6443 -48.0599,-10.3037 -71.6803,-17.653 -11.9972,-4.2739 -16.1446,-17.1508 -20.7925,-27.6432 z m -287.8539,26.9505 c 31.7266,4.5873 64.1423,7.0377 95.6783,-0.062 15.0156,11.9367 31.9135,21.0454 49.1284,29.4009 -37.7563,20.6696 -81.4177,12.5652 -122.253,10.4283 3.3301,-6.6584 6.4073,-13.3185 9.1729,-20.1657 -9.5504,-8.0402 -20.919,-13.4432 -31.7266,-19.6011 z m 403.7601,10.9946 c 26.4465,-0.5645 52.5832,-4.7743 78.9032,-7.0359 -15.0761,11.7478 -6.4696,25.8196 2.5145,38.4472 -43.9143,-8.6065 -89.1463,6.4714 -132.3678,-7.1623 17.717,-6.4696 34.9925,-14.1965 50.9501,-24.249 z"
       style="fill:#fef481;fill-rule:evenodd"
       id="path10" />
  </g>
</svg>
