<?xml version="1.0" encoding="UTF-8" standalone="no"?>
<svg
   version="1.1"
   width="1240.7344"
   height="1700.7864"
   id="svg27"
   viewBox="0 0 1240.7344 1700.7864"
   sodipodi:docname="0c8cb9fb8705d1d110819cf0cc95d849.cdr"
   xmlns:inkscape="http://www.inkscape.org/namespaces/inkscape"
   xmlns:sodipodi="http://sodipodi.sourceforge.net/DTD/sodipodi-0.dtd"
   xmlns="http://www.w3.org/2000/svg"
   xmlns:svg="http://www.w3.org/2000/svg">
  <defs
     id="defs31" />
  <sodipodi:namedview
     id="namedview29"
     pagecolor="#ffffff"
     bordercolor="#666666"
     borderopacity="1.0"
     inkscape:pageshadow="2"
     inkscape:pageopacity="0.0"
     inkscape:pagecheckerboard="0" />
  <g
     id="Layer1000"
     transform="translate(-513.4911,-283.46503)">
    <path
       d="m 1094.47,736.6364 c -8.8563,-60.0065 -19.2243,-79.3819 -55.0375,-130.041 48.101,-70.9501 75.2211,-169.6571 94.4305,-252.4026 19.4829,83.9564 45.739,180.5953 94.4252,252.4026 -35.8119,50.6577 -46.1799,70.0345 -55.0403,130.041 -24.1594,-22.6926 -54.6158,-22.6912 -78.7779,0 z"
       style="fill:#05010a;fill-rule:evenodd"
       id="path2" />
    <path
       d="M 1076.4117,1332.6694 V 1043.9011 C 935.2843,986.0988 916.1157,896.5746 916.1157,766.6057 c 56.8894,23.1253 77.6553,48.3351 103.7522,90.4126 7.0032,-38.2909 16.4882,-66.8641 37.5644,-98.1328 67.969,69.7256 65.2899,273.0203 65.2899,304.2114 0,107.0736 0,214.1512 0,321.2302 H 639.9836 c 0,-240.3991 0,-480.7969 0,-721.1947 0,-69.7433 14.9275,-181.3994 101.0841,-197.0834 l 22.781,30.8251 c -82.8284,29.4291 -78.9261,138.7041 -78.9261,211.6748 v 624.1205 z"
       style="fill:#991018;fill-rule:evenodd"
       id="path4" />
    <path
       d="m 957.234,759.2134 c -43.3879,-58.5942 -74.383,-18.5481 -73.0374,59.3657 -28.244,-227.7656 -81.4705,-343.7037 -202.4783,-441.7712 157.9027,29.2209 283.142,139.1014 372.0049,353.8976 -36.4377,-17.0474 -87.7771,-19.4258 -96.4892,28.5093 z"
       style="fill:#05010a;fill-rule:evenodd"
       id="path6" />
    <path
       d="m 905.8701,459.654 c 1.758,-41.5972 20.6585,-100.3153 3.788,-129.5362 -15.8173,-27.3991 -48.8344,-14.2336 -63.166,-1.0953 -40.2665,-10.5096 -68.7921,27.8072 -46.4029,56.1138 25.6383,32.4075 64.3837,33.2497 105.7809,74.5191 z"
       style="fill:#05010a;fill-rule:evenodd"
       id="path8" />
    <path
       d="M 1065.7702,483.0882 1014.703,590.5617 C 985.9637,544.186 963.9609,515.459 926.8239,478.9314 c 14.805,-42.3129 26.8752,-92.8468 27.9106,-135.972 30.606,49.8726 67.5717,98.341 111.0357,140.1301 z"
       style="fill:#991018;fill-rule:evenodd"
       id="path10" />
    <path
       d="m 1069.8889,449.3363 c -17.3386,-34.6267 -63.7878,-71.5651 -82.5673,-107.9266 -10.553,-20.4313 -2.8709,-54.2457 49.6155,-45.5622 4.9282,-8.3107 14.9179,-12.3178 25.4778,-12.3817 14.473,-0.0871 30.0169,7.2331 35.0785,21.0326 16.8922,46.037 -11.6974,107.1484 -27.6045,144.8379 z"
       style="fill:#05010a;fill-rule:evenodd"
       id="path12" />
    <path
       d="m 1191.3048,1332.6694 v -288.7683 c 141.1302,-57.8023 160.3015,-147.3265 160.3015,-277.2954 -56.8853,23.1253 -77.6499,48.3351 -103.7522,90.4126 -7.0032,-38.2909 -16.4882,-66.8641 -37.5644,-98.1328 -67.969,69.7256 -65.2912,273.0203 -65.2912,304.2114 0,107.0736 0,214.1512 0,321.2302 h 482.7426 c 0,-240.3991 0,-480.7969 0,-721.1947 0,-69.7433 -14.9383,-181.3994 -101.084,-197.0834 l -22.7893,30.8251 c 82.838,29.4291 78.9249,138.7041 78.9249,211.6748 v 624.1205 z"
       style="fill:#991018;fill-rule:evenodd"
       id="path14" />
    <path
       d="m 1310.4894,759.2134 c 43.3878,-58.5942 74.3803,-18.5481 73.0319,59.3657 28.2481,-227.7656 81.476,-343.7037 202.4784,-441.7712 -157.9014,29.2209 -283.1421,139.1014 -372.0009,353.8976 36.4418,-17.0474 87.7825,-19.4258 96.4906,28.5093 z"
       style="fill:#05010a;fill-rule:evenodd"
       id="path16" />
    <path
       d="m 1361.8451,459.654 c -1.7512,-41.5972 -20.6503,-100.3153 -3.788,-129.5362 15.8255,-27.3991 48.8453,-14.2336 63.1687,-1.0953 40.2665,-10.5096 68.7935,27.8072 46.4057,56.1138 -25.6357,32.4075 -64.3865,33.2497 -105.7864,74.5191 z"
       style="fill:#05010a;fill-rule:evenodd"
       id="path18" />
    <path
       d="m 1201.9572,483.0882 51.0618,107.4735 c 28.7366,-46.3757 50.7407,-75.1027 87.8737,-111.6303 -14.8037,-42.3129 -26.8711,-92.8468 -27.8984,-135.972 -30.6101,49.8726 -67.5894,98.341 -111.0384,140.1301 z"
       style="fill:#991018;fill-rule:evenodd"
       id="path20" />
    <path
       d="m 1197.8291,449.3363 c 17.3467,-34.6267 63.7864,-71.5651 82.5645,-107.9266 10.5598,-20.4313 2.8791,-54.2457 -49.6087,-45.5622 -4.9282,-8.3107 -14.9166,-12.3178 -25.4778,-12.3817 -14.4703,-0.0871 -30.0142,7.2331 -35.0798,21.0326 -16.8909,46.037 11.7041,107.1484 27.6018,144.8379 z"
       style="fill:#05010a;fill-rule:evenodd"
       id="path22" />
    <path
       d="m 1606.7507,1810.9328 c 0,-15.25 3.2056,-42.4272 9.6087,-81.5468 1.5566,-5.9623 5.9719,-16.6704 13.2621,-32.1517 l 1.3253,-0.6613 c 0.2258,0.6613 0.1007,2.4233 -0.3307,5.3079 l -1.3293,8.6168 -5.6357,40.4394 c -1.9866,14.3574 -2.9812,25.7472 -2.9812,34.1382 v 4.9731 c 0,14.5819 5.8602,21.8776 17.5671,21.8776 3.754,0 7.0698,-5.1976 9.9503,-15.5751 0.6531,-1.992 1.3198,-2.9866 1.9865,-2.9866 1.0953,0 1.6464,1.0953 1.6464,3.3172 0,1.5511 -0.4272,4.3064 -1.3185,8.2849 -5.9623,27.4031 -14.1465,41.102 -24.524,41.102 -12.8253,0 -19.2284,-11.7069 -19.2284,-35.1356 z m -56.8704,-31.6361 v 5.1351 c 0,16.2622 6.6195,24.3893 19.8285,24.3893 4.2289,0 7.9679,-5.799 11.2225,-17.3671 0.7484,-2.2165 1.4981,-3.3268 2.2505,-3.3268 1.2341,0 1.8627,1.23 1.8627,3.6969 0,1.7375 -0.4844,4.8044 -1.4967,9.24 -6.7351,30.5571 -15.9657,45.8207 -27.678,45.8207 -14.4771,0 -21.7007,-13.0512 -21.7007,-39.1686 l 0.091,-0.1728 c 0.02,-3.4845 0.5089,-9.9693 1.5035,-19.4162 l 1.8613,-18.11 c 0,-0.7334 -0.1102,-1.2232 -0.3742,-1.4735 -0.7388,-0.2545 -3.3648,2.7022 -7.8576,8.8713 -1.4872,2.4709 -4.4778,6.648 -8.9707,12.5613 -16.1996,21.4313 -39.9073,37.5834 -71.0794,48.4127 -26.437,9.3502 -55.2471,14.0403 -86.4096,14.0403 h -5.6153 c -25.1813,0 -41.1455,-3.9458 -47.8902,-11.8225 -3.9935,-4.6901 -5.9813,-11.5735 -5.9813,-20.6925 0,-24.6492 2.1321,-36.9561 6.3568,-36.9561 1.2464,5.4248 3.6288,12.077 7.108,19.9537 6.7405,7.3923 23.0831,11.0837 49.0127,11.0837 13.7233,0 25.0614,-0.3701 34.0416,-1.1049 33.179,-2.7063 61.4597,-9.6142 84.917,-20.6925 31.1626,-14.5288 50.006,-34.9968 56.4867,-61.3495 l 5.237,-21.0666 c 0.2545,-1.2192 2.9907,-7.5026 8.2319,-18.8394 1.9879,-4.1812 5.3568,-10.0945 10.0986,-17.7412 v 5.5432 c -0.2531,0.9946 -1.1185,5.1758 -2.6165,12.5627 l -7.8563,38.8079 c -1.0028,4.9146 -2.1267,14.5248 -3.3648,28.8196 -0.7484,8.3842 -1.1239,15.0336 -1.1239,19.9523 v 0 z m 19.2475,-173.9527 c 0.6681,3.7486 -0.6667,8.9462 -3.9744,15.5752 -3.9839,7.7229 -7.7379,11.6021 -11.2701,11.6021 -2.4287,-1.9879 -5.9718,-4.7472 -10.6129,-8.2903 -4.6411,-3.5377 -6.9556,-5.961 -6.9556,-7.2862 l 0.6586,-1.3294 c 1.3293,-2.875 3.7472,-8.1842 7.2902,-15.9071 0.894,-1.7661 3.0955,-5.6357 6.629,-11.6007 l 1.3294,-1.6614 c 0.8939,0.8926 2.4287,1.9865 4.6411,3.3172 4.2016,3.086 6.731,5.3038 7.6236,6.6236 2.4287,3.0914 3.9744,6.0766 4.6411,8.957 z m 11.8947,40.3292 c 5.9895,-6.1678 17.5766,-16.1467 34.79,-29.9326 l 47.8901,-38.0636 c 9.2346,-7.3924 20.1932,-16.8868 32.9137,-28.459 3.49,-3.207 13.3533,-12.5573 29.5625,-28.0807 17.2038,-16.5167 26.5486,-25.618 28.0467,-27.3501 0,1.2232 -0.2586,2.3376 -0.7484,3.3267 -3.2451,14.7833 -16.8283,33.9982 -40.7713,57.6527 -10.9681,10.8279 -27.561,25.3826 -49.7515,43.6028 -1.0042,0.7389 -19.4543,15.0337 -55.3696,42.8695 l -25.8084,19.9536 c -10.4742,8.1312 -15.9698,11.8212 -16.4637,11.0878 3.9935,-10.8333 9.2441,-19.7087 15.7099,-26.6071 z m -305.4714,315.0434 c 0,4.8683 -1.4273,9.2795 -4.3064,13.258 -4.8724,6.8589 -8.9516,10.2768 -12.2688,10.2768 -0.2259,0 -3.0859,-2.6491 -8.6156,-7.9583 -5.535,-5.3038 -8.2903,-8.1788 -8.2903,-8.6155 0,-0.8926 2.7553,-6.0725 8.2903,-15.5766 4.8629,-8.391 7.7216,-12.5953 8.6156,-12.5953 0.898,0 3.0913,1.6559 6.633,4.9731 6.629,6.3977 9.9408,11.8266 9.9408,16.2378 z m -15.2459,-41.7646 c 0,4.867 -1.4355,9.2836 -4.3105,13.258 -4.8683,6.8589 -8.9475,10.2809 -12.2647,10.2809 -0.2259,0 -3.0859,-2.6587 -8.6155,-7.9583 -5.5283,-5.3038 -8.289,-8.1842 -8.289,-8.6156 0,-0.898 2.7594,-6.0765 8.289,-15.5805 4.8669,-8.3911 7.7229,-12.5954 8.6155,-12.5954 0.8898,0 3.0818,1.6518 6.6303,4.9731 6.6277,6.3977 9.9449,11.8266 9.9449,16.2378 z m 32.8116,0 c 0,4.867 -1.4245,9.2836 -4.3145,13.258 -4.8629,6.8589 -8.9421,10.2809 -12.2593,10.2809 -0.2259,0 -3.0859,-2.6587 -8.6155,-7.9583 -5.5337,-5.3038 -8.2904,-8.1842 -8.2904,-8.6156 0,-0.898 2.7553,-6.0765 8.2904,-15.5805 4.8669,-8.3911 7.7229,-12.5954 8.6155,-12.5954 0.8885,0 3.0818,1.6518 6.6385,4.9731 6.6249,6.3977 9.9353,11.8266 9.9353,16.2378 z m -48.4398,-133.2916 -0.4817,1.6464 0.894,-1.6464 v 4.9731 c 0,14.5833 5.8602,21.879 17.5684,21.879 3.7486,0 7.0604,-5.2044 9.9449,-15.5806 0.6585,-1.9879 1.3239,-2.9812 1.992,-2.9812 1.0939,0 1.6559,1.094 1.6559,3.3118 0,1.5552 -0.4423,4.305 -1.3294,8.289 -5.9609,27.4085 -14.1465,41.0979 -24.5281,41.0979 -12.8199,0 -19.2244,-11.7015 -19.2244,-35.1316 l 0.02,-0.029 c -0.1537,0.015 -0.2939,0.029 -0.4326,0.029 0,-15.2486 3.207,-42.4313 9.6101,-81.5467 1.5552,-5.9664 5.9609,-16.6705 13.2526,-32.1504 l 1.3334,-0.6585 c 0.2272,0.6585 0.102,2.4151 -0.3307,5.2997 l -1.3293,8.6209 -5.6357,40.4407 c -1.9866,14.352 -2.9798,25.7472 -2.9798,34.1369 z m -53.4103,-28.5025 c 0,6.1922 -1.6613,16.0092 -4.969,29.4971 l -3.9839,16.2432 c -3.5322,10.3762 -6.3936,17.3372 -8.6155,20.8789 -4.2085,7.0658 -9.6088,11.9328 -16.2392,14.5874 l -11.9327,4.9731 c -5.3078,2.2178 -10.5014,3.3118 -15.5793,3.3118 -1.0993,0 -1.762,-0.4314 -1.9878,-1.3253 -0.6667,-1.9865 2.4232,-5.6344 9.2822,-10.9381 2.2097,-1.762 6.6249,-5.199 13.2539,-10.2728 8.6155,-6.6331 15.6867,-14.8173 21.2163,-24.5322 1.3294,-2.2124 4.2085,-10.0469 8.6156,-23.5348 l 3.9839,-11.9287 c 2.2124,-6.8589 3.9744,-10.2809 5.2942,-10.2809 1.0994,1.5552 1.6613,2.66 1.6613,3.3213 z m -352.6608,179.4782 c 0.6627,3.7485 -0.664,8.9462 -3.9785,15.5806 -3.9785,7.7229 -7.727,11.5967 -11.2701,11.5967 -2.4219,-1.9879 -5.9663,-4.7432 -10.6061,-8.2849 -4.6411,-3.5472 -6.9624,-5.9623 -6.9624,-7.2917 l 0.6627,-1.3238 c 1.3266,-2.8805 3.7512,-8.1842 7.293,-15.9181 0.8912,-1.7566 3.0872,-5.6248 6.6276,-11.6007 l 1.3266,-1.6518 c 0.8912,0.8925 2.426,1.9879 4.6438,3.3117 4.2044,3.0873 6.7311,5.3092 7.6209,6.6345 2.4261,3.0818 3.9785,6.067 4.6425,8.9475 z m 34.1396,-1.992 c 0.664,3.7527 -0.6626,8.9462 -3.9771,15.5806 -3.9771,7.7271 -7.7257,11.6008 -11.2701,11.6008 -2.4246,-1.9865 -5.965,-4.7473 -10.6048,-8.2849 -4.6424,-3.5472 -6.9623,-5.9705 -6.9623,-7.2957 l 0.6612,-1.3253 c 1.3267,-2.8791 3.7513,-8.1842 7.2944,-15.9112 0.8912,-1.762 3.0859,-5.6357 6.6263,-11.6021 l 1.3279,-1.6559 c 0.894,0.8926 2.4233,1.992 4.6412,3.3172 4.2043,3.0859 6.7324,5.2997 7.6236,6.629 2.426,3.0859 3.9771,6.0712 4.6397,8.9462 z m -157.5979,-162.3519 0.1783,-0.9116 v -7.742 c 0,-13.839 1.0994,-28.0508 3.2954,-42.5905 1.2096,-7.2821 3.407,-21.4749 6.5855,-42.596 2.1947,-14.3179 3.2954,-24.6424 3.2954,-30.9734 0.2504,-1.4123 0.1157,-2.2232 -0.3646,-2.4627 -0.483,0.2395 -0.8491,0.4612 -1.1008,0.7007 l -15.0009,37.3153 -5.1255,35.1982 -2.9254,27.4562 c -2.6355,24.705 -3.9839,42.2789 -4.0275,52.6605 l -0.2748,0.4939 c 0,25.584 8.1638,38.3671 24.5186,38.3671 6.1051,0 11.3436,-2.3511 15.737,-7.0372 5.6031,-9.1529 9.7653,-16.084 12.443,-20.7741 6.8358,-10.5558 12.0743,-15.835 15.7316,-15.835 1.9457,0 4.3935,1.0504 7.3202,3.1675 5.8576,4.2248 19.7632,7.5026 41.717,9.8551 17.5685,1.8722 32.5708,2.8124 45.0138,2.8124 v 0 l 0.1837,-0.2544 v 0.6095 c 44.8981,0 89.0384,-5.8752 132.4738,-17.597 25.3636,-6.7964 56.2418,-19.3632 92.5883,-37.6705 23.8981,-11.9667 46.8384,-25.5839 68.7936,-40.8284 l 61.1182,-42.2449 c 6.5814,-4.6847 15.4745,-8.904 26.7065,-12.6675 6.116,-2.1171 11.832,-7.9869 17.2038,-17.6011 2.6736,-4.9296 4.2765,-8.3421 4.7608,-10.2102 0.2463,-1.1661 -0.2489,-1.7607 -1.4681,-1.7607 -5.8507,1.6505 -9.7584,3.0574 -11.7123,4.2234 -8.5298,2.1117 -31.949,15.5997 -70.263,40.4829 -24.6275,15.9507 -40.2475,25.8057 -46.8425,29.5693 -42.4463,24.177 -83.6843,41.7781 -123.6869,52.7993 -24.8832,6.7963 -52.6959,11.6157 -83.4353,14.4335 -18.0447,1.6505 -33.5559,2.4669 -46.4751,2.4669 h -10.983 c -3.9064,0 -6.8345,-0.1143 -8.7774,-0.3552 l -0.1851,-0.3496 c -8.7842,0 -21.7755,-1.9349 -38.9739,-5.8086 -17.2011,-3.8737 -29.5761,-5.8126 -37.1466,-5.8126 -7.0658,0 -15.733,7.6372 -25.98,22.8872 -3.6587,5.3895 -6.1078,8.6822 -7.3202,9.8537 -3.407,3.0573 -8.0508,4.5799 -13.9042,4.5799 -13.9166,0 -21.7974,-8.6115 -23.6914,-25.8493 z m -51.6849,18.1209 c -2.2124,9.8346 -4.0534,16.9535 -5.5256,21.3687 -12.047,36.85 -31.9435,62.8993 -59.6936,78.1207 -10.8021,5.8942 -23.0981,8.8468 -36.85,8.8468 -15.2214,0 -27.0126,-4.7241 -35.3737,-14.1846 -8.3611,-9.47 -12.5287,-21.9306 -12.5287,-37.4065 0,-24.3158 10.4347,-54.413 31.3217,-90.2779 2.4628,-4.1622 4.3064,-6.1446 5.5269,-5.8942 0.4831,0.253 0.6205,1.5878 0.3688,4.0506 -0.4844,2.4668 -0.9933,4.5404 -1.475,6.2684 l -12.1586,26.5296 c -5.8956,12.7831 -8.8441,23.8369 -8.8441,33.1586 0,25.7962 14.2567,38.6936 42.7429,38.6936 30.4686,0 54.5355,-13.7478 72.2224,-41.2706 5.6425,-8.587 8.591,-18.5387 8.8441,-29.8469 l 0.7361,-26.5296 c 0.2544,-7.3678 2.3239,-16.0935 6.2643,-26.1595 l 7.3706,-14.371 c 1.9552,-3.9417 3.5675,-6.5188 4.788,-7.7433 1.2219,1.2245 1.728,2.8328 1.4749,4.7962 l -1.8423,12.8974 -1.8422,18.4216 c 0,10.8048 -1.8423,24.3172 -5.5269,40.5319 z m -49.6264,-18.8502 c 0.23,0.8885 0.3348,2.0926 0.3348,3.6438 0,3.9785 -1.3267,7.8522 -3.9799,11.6007 -5.3037,7.527 -9.1775,11.5014 -11.6007,11.9382 -0.4341,0 -1.4287,-0.566 -2.9812,-1.6613 -5.0765,-3.5418 -7.7284,-5.5296 -7.957,-5.9664 -3.3145,-2.2124 -5.1989,-3.3159 -5.633,-3.3159 -2.2192,-1.5511 -3.4192,-3.0872 -3.6478,-4.637 l 7.6236,-17.2378 c 2.4233,-4.2044 4.5377,-7.6209 6.2984,-10.2755 l 1.9878,-2.9866 c 1.5552,0.6681 3.8751,1.8913 6.9597,3.6478 3.7526,2.8805 6.4031,5.0738 7.9569,6.6345 2.8778,2.875 4.4139,5.7364 4.6384,8.6155 z m 1029.4664,151.0274 c 0.6667,3.754 -0.6667,8.953 -3.9744,15.5806 -3.9744,7.7284 -7.7284,11.6021 -11.2715,11.6021 -2.4274,-1.9865 -5.9705,-4.7472 -10.6129,-8.2849 -4.6411,-3.5431 -6.9542,-5.9664 -6.9542,-7.2957 l 0.6667,-1.3252 c 1.3212,-2.8791 3.739,-8.1788 7.2916,-15.9072 0.8831,-1.762 3.0859,-5.6344 6.629,-11.6007 l 1.3198,-1.6573 c 0.8926,0.8885 2.4192,1.9879 4.6411,3.3131 4.2098,3.086 6.7352,5.3038 7.6237,6.6277 2.4287,3.0873 3.9744,6.0725 4.6411,8.9475 z"
       style="fill:#05010a;fill-rule:evenodd"
       id="path24" />
  </g>
</svg>
