<?xml version="1.0" encoding="UTF-8" standalone="no"?>
<svg
   version="1.1"
   width="1290.3214"
   height="1700.786"
   id="svg7"
   viewBox="0 0 1290.3214 1700.786"
   sodipodi:docname="315ebd97d980eff6fe79a4cbeaef2fce.cdr"
   xmlns:inkscape="http://www.inkscape.org/namespaces/inkscape"
   xmlns:sodipodi="http://sodipodi.sourceforge.net/DTD/sodipodi-0.dtd"
   xmlns="http://www.w3.org/2000/svg"
   xmlns:svg="http://www.w3.org/2000/svg">
  <defs
     id="defs11" />
  <sodipodi:namedview
     id="namedview9"
     pagecolor="#ffffff"
     bordercolor="#666666"
     borderopacity="1.0"
     inkscape:pageshadow="2"
     inkscape:pageopacity="0.0"
     inkscape:pagecheckerboard="0" />
  <g
     id="Layer1000"
     transform="translate(-488.697,-283.46519)">
    <path
       d="m 1481.1867,1099.4232 c -14.6062,-21.0861 5.9317,-57.1574 32.7103,-52.22 -4.6293,9.1206 -17.727,6.0687 -23.8298,13.6469 -4.8344,5.8967 -3.67,15.1203 0.3081,21.1551 4.8694,4.6283 11.8634,5.7946 17.9322,8.3323 -7.1311,6.857 -16.7668,16.0466 -27.1208,9.0857 z m 17.3839,-33.7047 c 1.4745,-3.8061 6.1368,-4.5943 9.1197,-6.857 0.103,6.0688 0.137,12.1715 0.3771,18.2412 8.9836,-0.104 12.0354,-8.5034 15.1893,-15.3954 9.3957,-0.9952 18.8925,-0.5141 28.1501,1.5765 -12.7197,6.4809 -24.9611,14.127 -38.299,19.3045 -7.7832,-0.5831 -18.6523,-7.9893 -14.5372,-16.8698 z"
       style="fill:#ffffff;fill-rule:evenodd"
       id="path2" />
    <path
       d="m 532.3785,284.0983 c 169.2445,-1.2694 338.5561,-0.1721 507.8347,-0.5482 91.5142,0.4102 183.0615,-0.7542 274.5747,0.5822 -1.5074,9.1556 -3.3249,18.2072 -5.1765,27.2928 -257.4658,0.4802 -514.9657,0.5152 -772.3975,-0.034 -1.8865,-9.0526 -3.531,-18.1382 -4.8354,-27.2928 z m 7.4761,42.002 c 18.1713,-1.0973 36.4135,-0.7192 54.6197,-0.6852 220.5713,-9e-4 441.1445,0.034 661.7508,0 16.9729,-0.069 33.9788,-0.24 50.9516,0.5482 -12.9947,80.233 -25.3042,160.569 -37.8878,240.8711 -28.4932,-1.0643 -49.1681,-28.3221 -51.9119,-54.9638 7.4071,-11.1782 18.2752,-20.4689 21.8763,-33.8757 3.463,-13.4418 4.2852,-27.3959 7.4401,-40.9057 3.566,-15.6695 12.3095,-29.5215 16.5258,-45.019 -5.3476,2.0567 -10.6971,4.3883 -14.9833,8.3314 -14.6403,12.8237 -28.7323,26.5387 -40.4247,42.2082 -17.555,-19.0295 -35.2821,-38.299 -56.3691,-53.4884 -1.1313,13.4399 8.8125,24.0699 12.3435,36.4134 7.6802,18.6174 5.1435,39.7054 13.4069,58.1177 4.5603,10.423 13.0287,18.3093 18.5833,28.1151 -1.3364,23.2127 -17.418,45.8431 -39.8074,53.5233 -21.6702,5.2796 -47.2836,3.1199 -63.4672,-13.7839 -11.9995,-10.526 -12.0005,-29.3494 -25.7154,-38.265 -4.7654,23.7958 11.3842,45.5691 30.4477,57.7756 32.9505,20.7089 82.2897,9.5657 100.4969,-25.6824 9.4296,-12.1725 5.9997,-27.6359 6.8229,-41.83 2.7098,2.6388 6.1718,4.7654 8.1264,8.1603 -1.0284,10.285 -4.2853,21.4982 1.9885,30.8929 9.8408,20.709 30.4478,33.1215 51.8769,38.9512 -0.9593,6.7189 -1.8855,13.4399 -2.8448,20.1268 -176.2046,0.9933 -352.4431,0.137 -528.6476,0.4451 -50.4705,-0.4801 -100.942,0.9943 -151.3785,-0.7542 -1.0633,-6.927 -2.0916,-13.818 -3.0859,-20.744 17.452,-7.8522 34.939,-18.1722 44.0247,-35.7622 7.338,-10.458 5.4865,-23.5558 2.5717,-35.1791 2.9828,-1.7835 5.9657,-3.566 8.9826,-5.3145 -0.4111,12.2405 -2.7088,25.5103 4.1492,36.5504 11.0751,24.241 37.0656,41.2139 63.8443,40.1856 35.7272,2.4337 73.0319,-29.6245 69.877,-66.5871 -2.1946,0.7882 -6.6169,2.4006 -8.8115,3.1889 -5.9307,20.915 -19.2015,41.6259 -41.1448,47.9687 -17.6241,3.257 -37.9559,4.0462 -53.0772,-7.2 -16.7328,-11.2132 -25.8194,-30.9619 -27.6019,-50.6435 8.4004,-6.2408 16.1496,-13.886 19.9207,-23.8639 7.8872,-17.659 5.8636,-37.7508 12.4806,-55.786 4.1501,-12.9957 11.4863,-24.7211 14.9842,-37.9569 -4.9714,2.1256 -10.0799,4.2522 -14.058,8.0233 -15.6005,13.989 -30.3107,28.9393 -44.2657,44.5748 -15.4974,-19.2015 -32.2642,-38.6771 -54.1055,-50.7806 2.8468,15.6695 11.3152,29.4875 15.2584,44.8139 3.8741,14.3321 4.2172,29.3844 8.4004,43.6145 3.9081,12.3426 14.2971,20.778 21.086,31.407 -2.4687,24.9262 -20.3668,48.0368 -44.8138,55.0318 -12.9257,-80.234 -26.5036,-160.398 -38.4351,-240.7681 z m 88.6665,27.1558 c -3.1189,14.0921 -0.4451,28.4932 -0.9253,42.7223 -4.7663,-9.4637 -5.7597,-21.2581 -12.9947,-29.1784 -2.9148,-0.206 -8.7435,-0.5832 -11.6574,-0.7542 -0.5151,16.3887 11.8625,28.5962 21.6012,40.2876 3.6341,-1.8176 7.3021,-3.6001 10.9722,-5.3826 2.4337,-13.1328 6.994,-26.1615 6.2398,-39.6714 -0.138,-7.132 -8.4004,-6.1368 -13.2358,-8.0233 z m 139.9621,7.6462 c 0.3441,13.989 3.9772,27.773 3.6001,41.865 2.1266,0.0681 6.3438,0.2061 8.4704,0.2751 -0.4121,-14.127 2.5017,-28.013 2.9478,-42.0371 0.1721,-8.9835 -14.5041,-8.8465 -15.0183,-0.103 z m 144.7285,-6.6859 c -4.4572,15.5665 0.2401,31.442 3.463,46.7344 3.8061,1.5774 7.6122,3.1889 11.4173,4.8344 10.287,-10.8701 22.0823,-23.1446 21.6702,-39.1912 -3.1879,-0.1371 -9.5667,-0.3772 -12.7896,-0.5142 -4.3883,10.9372 -8.2634,22.0813 -12.5836,33.0535 0.275,-14.6072 1.7494,-29.1784 1.4404,-43.8196 -4.2172,-0.2751 -8.4345,-0.6512 -12.6177,-1.0973 z m 144.6255,-0.5832 c -5.3145,16.1147 2.5368,32.4363 2.2627,48.757 5.6576,-0.206 13.0637,4.2862 17.315,-1.2343 8.3663,-9.5318 15.4294,-20.6069 18.4132,-33.0875 -3.0859,-0.7542 -9.2576,-2.3317 -12.3095,-3.1199 -6.926,10.629 -9.8748,23.0756 -14.8813,34.5959 -0.8572,-12.8927 1.9206,-25.5443 2.6058,-38.333 -0.7192,-6.995 -8.3664,-6.0007 -13.4059,-7.5782 z m 141.4366,1.8856 c -0.9603,15.4634 2.9138,30.5167 5.7256,45.603 3.6691,1.9886 7.3381,3.9772 11.0062,6.0008 9.8758,-11.3843 19.5786,-23.5898 23.2477,-38.5391 -3.7371,-1.4754 -7.4752,-2.9488 -11.1782,-4.4233 -7.6802,9.4628 -10.0459,21.6693 -15.2584,32.4013 -1.2003,-14.264 2.4687,-28.6302 -0.6172,-42.7562 -4.3192,0.5822 -8.6405,1.1313 -12.9267,1.7145 z m -558.6823,49.2711 c 13.6119,-7.4741 22.0114,-22.5605 24.103,-37.6808 -3.1539,-0.3771 -9.4977,-1.2004 -12.6857,-1.6115 -5.9997,12.3426 -11.3152,25.3033 -11.4173,39.2933 z m 103.7538,-36.9616 c 4.5603,14.7092 11.5543,30.8248 26.0245,38.1629 -1.9886,-14.3671 -5.3486,-28.8022 -13.681,-40.9737 -3.0858,0.6852 -9.2576,2.0916 -12.3435,2.8108 z m 48.3118,2.2627 c -5.9666,11.1092 -8.5384,23.6247 -10.767,35.9342 14.23,-8.0242 23.0066,-23.6247 26.1275,-39.2932 -4.9375,0.5472 -12.9608,-3.0859 -15.3605,3.3599 z m 95.3534,-2.8459 c 2.6398,14.7783 10.492,29.7966 23.8298,37.4428 0.6862,-14.0581 -5.1774,-26.9498 -11.3492,-39.1903 -3.1199,0.4452 -9.3607,1.3024 -12.4806,1.7485 z m 144.1454,-0.6511 c 3.2569,14.4351 9.8058,33.5676 25.7834,37.4427 -2.2967,-11.5213 -4.8344,-23.2477 -10.355,-33.7047 -2.3647,-6.2408 -10.526,-2.8808 -15.4294,-3.738 z m 143.4251,0.4801 c 2.7078,14.9493 10.8001,30.0706 24.344,37.7168 0.069,-13.99 -4.9374,-27.1558 -11.3843,-39.3283 -3.2569,0.4112 -9.7368,1.2344 -12.9607,1.6115 z m -587.0724,5.9997 c -2.3327,3.9091 -4.6643,7.8182 -7.03,11.7274 10.9041,12.1724 23.2127,23.3156 37.9219,30.7558 -6.719,-16.2527 -15.9436,-32.4703 -30.8919,-42.4822 z m 83.0098,2.4687 c -8.8125,12.5836 -19.1325,24.7221 -23.0406,39.9465 12.3766,-8.2984 25.0292,-16.9389 34.4589,-28.6312 0.24,-3.8742 0.3081,-7.7483 0.24,-11.6574 -3.91,0.1021 -7.7832,0.2061 -11.6583,0.3431 z m 54.1065,-0.4451 c 0.068,6.3428 1.3364,12.5836 4.3533,18.1722 -3.497,-0.034 -6.994,-0.068 -10.492,-0.102 5.7946,14.7432 13.4068,28.8352 17.2809,44.2647 2.9158,13.6119 3.361,27.6699 7.5782,41.0087 3.395,12.6857 12.8237,22.2524 21.1211,31.9552 6.7199,-1.4744 13.6459,-1.7145 20.4018,-0.2051 7.029,-6.6869 14.3321,-13.5098 18.5833,-22.4244 7.7152,-15.5674 7.3031,-33.3616 11.2463,-49.9573 3.668,-15.9096 12.1715,-30.0697 16.7318,-45.6711 -23.5558,10.1489 -38.5381,32.7104 -56.2312,50.4034 -13.8519,-17.2479 -32.0932,-30.4137 -45.1569,-48.2778 9.6688,5.6236 17.9662,13.1327 26.7447,19.9907 0.069,-2.0236 0.171,-6.0697 0.205,-8.0583 -5.7937,-10.8011 -12.7196,-21.2241 -21.1891,-30.0696 -3.737,-0.5152 -7.4411,-0.8573 -11.1772,-1.0293 z m 89.3536,0.3431 c -9.1556,11.5543 -18.1731,23.4527 -23.5557,37.3387 13.1658,-4.6973 24.0349,-13.989 33.0875,-24.412 3.9431,-3.7371 0.2051,-9.0526 -0.3441,-13.3728 -2.2967,0.103 -6.891,0.309 -9.1886,0.4461 z m 54.7908,-0.4461 c -0.4111,2.3316 -1.2684,7.029 -1.6795,9.3606 2.4337,3.4971 4.9374,6.995 7.4061,10.4921 -4.7323,-0.9943 -9.4297,-2.0226 -14.127,-2.9829 6.995,17.2119 15.9436,33.8077 19.7156,52.1519 2.5718,12.4456 1.6455,25.6814 7.0971,37.4078 4.8003,12.2055 14.8812,21.4291 19.5436,33.6356 -3.1189,22.2864 -18.3773,42.6883 -39.7734,50.3345 -19.2006,4.3192 -41.727,4.0111 -57.4655,-9.4287 -14.8473,-10.8011 -18.9615,-29.4875 -27.808,-44.5748 -2.8448,6.3428 -5.8977,13.2698 -3.2909,20.2648 6.7549,22.6985 26.1955,40.9728 48.8259,47.4876 20.4349,4.2513 43.1334,2.4347 60.3454,-10.3549 15.2243,-9.0176 21.8412,-26.0585 30.9619,-40.2876 8.0233,15.3614 15.9776,32.1272 31.579,41.2478 16.7668,11.8294 38.299,13.1328 57.9806,9.9439 22.8696,-5.4866 42.5162,-22.9726 50.2655,-45.191 2.5027,-9.4987 0.6171,-19.3726 0.4111,-29.0073 5.3835,1.9195 12.2065,8.1943 16.7668,1.4054 17.7951,-14.058 21.9783,-37.3737 24.482,-58.5628 1.9536,-19.8537 12.1715,-37.3737 19.1665,-55.684 -3.7031,0.4112 -7.3721,0.8233 -11.0411,1.2694 1.8175,-4.0812 3.703,-8.1604 5.5545,-12.2405 -0.9252,-1.5435 -2.7768,-4.6634 -3.737,-6.2068 -1.9886,-0.137 -6.0007,-0.3771 -7.9893,-0.5142 -9.5658,11.2803 -18.7214,23.3157 -23.3157,37.5798 10.2179,-4.8013 18.9274,-12.0354 28.3561,-18.1382 -2.5027,7.0621 -8.5034,11.7604 -13.8179,16.6288 -10.8692,9.7038 -20.778,20.4358 -30.2417,31.476 -12.3086,-14.2981 -26.9847,-26.3666 -38.334,-41.4879 7.8522,4.6634 15.3614,9.8408 23.2127,14.5382 -4.3533,-15.2924 -15.0514,-27.2588 -23.9319,-40.0475 -4.0122,-0.104 -8.0233,-0.2401 -12.0014,-0.3431 0.4811,7.1311 2.3666,13.989 5.5895,20.3668 -4.4232,-2.1946 -8.8805,-4.3542 -13.3378,-6.4458 4.8344,15.0513 13.1668,28.7322 17.418,44.0246 5.5206,17.315 3.9431,36.4135 12.1035,53.0092 4.4923,9.8399 13.5098,16.8349 17.9671,26.6407 -2.7437,25.8874 -22.8705,51.7748 -49.9913,54.3806 -15.0533,1.4064 -31.5451,1.0633 -44.4368,-7.8513 -16.0466,-9.3616 -24.653,-27.2248 -28.8362,-44.6428 -1.2344,-6.961 6.2748,-10.629 9.7718,-15.4984 12.7206,-12.9267 14.7442,-31.9212 17.349,-48.9971 1.9205,-20.5039 12.0014,-38.8131 19.6136,-57.5685 -3.7031,0.4111 -7.4062,0.8232 -11.1092,1.2344 2.0916,-4.3213 4.1822,-8.6065 6.2398,-12.8918 -3.7031,-1.9555 -7.1661,-7.064 -11.8634,-5.1434 -12.3436,10.2859 -20.4019,24.7211 -26.0585,39.5333 10.0809,-6.4118 19.5786,-13.6469 29.1444,-20.847 0.069,1.3714 0.205,4.1152 0.2741,5.4516 -16.3888,12.0005 -31.236,26.1615 -43.0314,42.7573 -13.7489,-16.4247 -30.3777,-30.2077 -44.0936,-46.6314 10.1149,5.9317 19.1325,13.4068 28.9392,19.7497 -4.2512,-15.3614 -15.1553,-27.2589 -23.8638,-40.1506 -3.635,-0.206 -7.2701,-0.4461 -10.9041,-0.6521 z m 287.3644,0.068 c -0.171,3.9431 -0.137,7.8872 0.103,11.7954 9.7719,11.5553 22.2184,20.6419 34.871,28.8362 -3.566,-15.5664 -15.2583,-27.0187 -23.4527,-40.1505 -3.8751,-0.172 -7.7152,-0.3091 -11.5213,-0.4801 z m 64.0494,40.2885 c 13.956,-8.1943 26.6756,-18.3773 37.4758,-30.4467 -2.3648,-3.9091 -4.6974,-7.8523 -6.9601,-11.7954 -14.9483,9.8748 -23.5547,26.2645 -30.5157,42.2421 z m -601.9527,-0.24 c 3.565,7.4061 8.8106,13.7499 15.4975,18.5503 3.8751,-4.6983 8.2633,-9.1206 10.8691,-14.6752 -1.4395,-4.1842 -3.223,-8.6405 -6.994,-11.2813 -7.5432,-2.0575 -13.4409,3.9092 -19.3726,7.4062 z m 149.699,-8.6065 c -1.1314,5.0745 -5.0065,10.0469 -3.7371,15.3954 3.1889,4.6634 7.235,8.7095 11.0411,12.8927 4.0462,-6.0697 11.8965,-11.2462 11.7944,-19.0985 -2.9148,-8.3664 -11.7613,-8.4004 -19.0984,-9.1886 z m 136.191,12.1385 c 4.1832,4.8684 8.3314,9.7378 12.5146,14.6062 5.3486,-4.4573 10.423,-9.2227 15.3264,-14.1601 -4.5943,-4.6643 -7.6462,-14.2301 -15.8065,-11.4863 -5.9317,0.4102 -8.1264,7.4401 -12.0345,11.0402 z m 150.5222,-8.3664 c -8.8805,7.6462 1.1313,17.0409 5.9317,23.5557 5.3145,-4.7323 10.458,-9.6687 15.4294,-14.7092 -3.9771,-7.7152 -13.2008,-17.1099 -21.3611,-8.8465 z m 142.2598,1.6114 c -7.3041,8.1264 3.0509,15.4645 7.7142,21.6012 5.1775,-4.8003 10.2179,-9.8058 15.1894,-14.8802 -4.7314,-7.4412 -15.8066,-17.418 -22.9036,-6.721 z M 588.3715,617.785 c 6.5489,-0.5141 13.1308,-0.9593 19.7497,-1.0623 190.8778,0.034 381.7925,0 572.6713,0 26.0935,0.5482 52.289,-1.3374 78.2785,1.3024 0.309,2.4347 0.8912,7.304 1.1663,9.7378 -224.3103,0.2741 -448.6547,0.24 -672.9631,0.035 0.2741,-2.5037 0.8223,-7.5092 1.0973,-10.0129 z m 0.4112,18.6183 c 223.281,-0.0349 446.5271,-0.206 669.7741,0.1031 -26.9497,167.0149 -52.5291,334.2358 -78.9306,501.3188 -13.0288,62.713 -18.5494,129.7102 2.5717,191.3258 12.7897,39.7045 42.7563,74.4384 82.0155,89.6268 30.1747,11.5213 58.7009,29.0423 79.2388,54.3116 11.1442,13.99 19.8187,31.3399 18.1732,49.7172 -0.3081,17.247 -14.093,32.1282 -30.1397,36.7906 -16.5938,2.9488 -34.3558,3.3949 -49.9563,-3.7711 -39.1222,-14.2981 -85.1364,-22.1154 -123.4704,-1.3034 -24.7891,12.0355 -41.864,39.3623 -37.6818,67.2383 6.4468,43.0304 45.0539,78.2444 87.6731,83.628 187.0397,0.171 374.1133,-0.2061 561.152,0.171 -0.068,11.1092 -0.034,22.2184 0.068,33.3276 -62.4029,1.9196 -124.8758,0.2741 -187.3127,0.8222 -362.6941,-0.205 -725.3891,0.4462 -1088.0832,-0.3081 -0.4451,-11.3152 -0.378,-22.6635 0.3422,-33.9447 156.8669,-0.103 313.6979,0 470.5639,-0.034 17.9322,-0.2401 36.0364,1.3024 53.7625,-2.1606 -3.257,-1.9886 -6.72,-3.428 -10.389,-4.3203 -79.4778,-9.9088 -152.7508,-54.1055 -202.7432,-116.0973 -55.819,-68.2325 -85.8206,-153.643 -102.5534,-239.1906 C 664.1123,1107.9606 627.5618,872.062 588.7817,636.4033 Z M 882.867,830.0599 c -0.205,30.6528 -1.4054,61.3066 -0.6511,91.9254 14.5041,-2.9839 29.2123,-5.0405 43.9906,-6.3438 9.4637,-25.2353 17.6921,-50.9167 27.3278,-76.0839 3.2569,-7.5441 4.9034,-17.349 -1.8515,-23.5557 -11.2803,-10.1839 -27.842,-8.2974 -41.9341,-8.1944 -12.6516,-0.241 -28.116,7.6462 -26.8817,22.2524 z m -78.5175,14.5032 c -6.0697,7.5431 -3.7731,17.693 0.4792,25.5103 11.3492,22.7325 22.1833,45.7741 33.4305,68.5756 12.9258,-4.5263 24.9612,-11.0751 37.3728,-16.7668 -1.3024,-30.1736 -0.1021,-60.4493 -2.1597,-90.5539 -1.9545,-13.3379 -18.0691,-10.389 -27.7049,-9.1547 -15.2224,3.7381 -31.2359,9.9099 -41.4189,22.3904 z M 975.5126,823.373 c -8.5034,3.8751 -10.7671,13.4418 -13.8529,21.3621 -8.0914,23.7268 -18.3093,46.7344 -25.5444,70.8043 12.9617,3.0169 25.9215,6.1718 39.0542,8.6405 15.5325,-16.0136 27.4989,-34.905 42.0361,-51.7749 6.961,-8.3664 15.6705,-18.4463 11.0071,-30.1386 -8.9835,-18.4133 -34.0827,-27.4989 -52.7001,-18.8924 z m 55.9571,46.1512 c -16.7318,18.0012 -30.7908,38.334 -46.4254,57.2954 8.5725,8.2974 16.7669,17.0409 24.275,26.3326 19.4076,-10.0119 38.7801,-20.1608 57.8436,-30.8588 10.595,-5.9317 20.744,-17.0749 19.0645,-30.0357 -3.7721,-13.2008 -12.9267,-24.8931 -24.5851,-32.0592 -10.8681,-4.2522 -22.8695,0.8573 -30.1726,9.3267 z m -272.3802,8.7776 c -12.4806,10.801 -16.0135,27.5678 -16.7678,43.3063 20.1618,19.1316 42.5172,35.8303 62.4039,55.2719 9.0186,-10.0469 17.5891,-20.5049 26.5386,-30.5848 -9.1206,-27.2938 -24.2749,-51.9799 -36.0013,-78.1414 -12.5146,0.6502 -25.8884,2.3997 -36.1734,10.1489 z m -57.1243,94.291 c 8.8475,9.1896 21.6012,13.1677 32.7794,18.8934 18.2412,7.7482 34.8369,19.3385 54.2095,24.2069 4.3883,-10.2179 8.4004,-20.6069 12.1715,-31.0989 -15.4975,-14.6412 -32.3683,-27.6699 -48.1398,-41.968 -7.6112,-5.9317 -14.7442,-14.0921 -24.8241,-15.2584 -22.6645,-3.429 -36.4485,27.6359 -26.1965,45.226 z m 170.0677,-32.9155 c -13.2008,6.2398 -11.6923,23.4868 -6.8239,34.768 7.9212,18.4803 21.19,35.7273 38.471,46.1512 10.595,-1.2003 20.0238,-6.8579 30.0016,-10.3549 -1.0283,-18.0362 -9.4287,-34.836 -8.8465,-53.0432 0.035,-8.8125 -0.2741,-17.6581 -1.5085,-26.4016 -17.3489,0.5141 -35.2471,1.9205 -51.2937,8.8805 z m 64.1864,-4.3892 c -1.7495,24.7561 -4.8694,53.4553 11.6224,74.2333 11.4532,2.0906 23.1446,0.6171 34.6999,0.3431 0.8573,-17.487 6.3429,-34.1508 14.7092,-49.4432 -13.0637,-19.8867 -38.2649,-27.2588 -61.0315,-25.1322 z m -127.6876,60.9975 c -4.1822,12.2755 7.8182,22.3224 16.5608,28.9053 17.0418,11.1082 36.1043,22.7325 57.0884,22.4584 5.7956,-5.7256 10.2189,-12.6526 15.1213,-19.1325 -10.5941,-11.1782 -22.7666,-21.018 -31.339,-33.9447 -7.8173,-11.7274 -14.1951,-24.31 -21.2931,-36.4475 -18.3083,4.6624 -29.3494,21.7383 -36.1384,38.162 z m -113.0114,-3.428 c -10.39,6.3768 -12.9277,19.2355 -14.2301,30.4127 -0.9593,7.6122 -0.3091,17.178 7.029,21.5672 20.5389,8.1263 43.0994,7.3031 64.4265,12.1375 10.561,2.4007 21.3271,3.9431 32.0252,5.5896 0.2741,-12.0014 0.9933,-23.9669 1.3704,-35.9333 -21.2241,-10.321 -42.9623,-19.5446 -64.6315,-28.8363 -8.2284,-3.0519 -17.0409,-7.6802 -25.9895,-4.9374 z m 107.2517,25.4063 c -6.5498,18.5153 -5.5895,38.7111 -1.3723,57.6045 2.3666,8.8115 6.0697,18.3773 14.3661,23.2117 22.3224,2.5037 44.3687,-3.6001 66.5871,-4.4223 -0.4801,-12.7897 -0.6172,-25.6133 -0.3091,-38.402 -29.0413,-5.9327 -58.6998,-15.3614 -79.2718,-37.9909 z m 109.8916,17.0409 c -15.3954,11.8294 -20.4019,33.2945 -15.9786,51.6728 2.6058,12.5146 11.3493,22.3894 19.8527,31.476 15.6015,16.5258 29.6925,34.3899 45.294,50.8826 57.8426,60.3453 114.8639,124.7718 146.8531,203.1193 22.8366,58.5288 28.5962,122.3731 27.6709,184.742 11.4183,-7.7492 22.9036,-16.0466 36.6195,-19.2015 18.7894,-5.9317 38.8472,-4.4233 58.1167,-1.9546 -12.8567,-29.3154 -18.1372,-61.0655 -27.0527,-91.6163 -19.5777,-63.5692 -42.2762,-126.6923 -75.2956,-184.638 -39.6014,-62.5069 -89.5597,-118.0188 -125.6981,-182.8224 -9.8408,-17.3149 -15.3614,-36.6535 -19.7846,-55.957 -24.172,-2.6408 -50.3675,-0.5142 -70.5983,14.2981 z m -213.7143,32.9854 c -10.218,9.8408 -9.6698,25.8184 -7.4412,38.7451 3.429,11.0062 16.9039,10.389 26.1956,10.4921 28.7682,-1.2004 57.5345,-1.0284 86.3357,-1.0633 -6.8219,-14.7093 -14.7772,-28.9724 -19.1324,-44.7109 -19.8858,-3.7371 -40.1496,-4.9034 -60.3114,-6.3768 -8.5374,-0.2751 -17.8641,-1.5434 -25.6473,2.9138 z m 128.8179,40.1165 c -12.4465,15.2574 6.4809,40.1856 24.6181,35.4882 19.2705,-1.9205 37.7508,-8.3324 56.9173,-11.1092 -8.2624,-10.2529 -15.8745,-21.053 -24.9611,-30.5507 -19.0975,-1.9206 -37.5448,5.5886 -56.5743,6.1717 z m -75.8107,19.5096 c -13.7149,1.2344 -28.2531,0.6862 -40.7667,7.3031 -6.1038,1.8516 -5.4866,8.7776 -4.5603,13.715 2.7087,10.8011 10.3199,19.8527 19.5426,25.8194 34.6319,-2.6068 68.4386,-12.2065 101.6972,-22.0474 -8.3654,-9.6007 -14.7083,-20.6069 -21.8063,-31.0649 -18.2752,-0.4111 -35.9683,5.0405 -54.1065,6.2748 z m 107.938,23.2127 c -5.3486,1.7145 -12.8237,4.7664 -11.5544,11.7264 0.5822,15.3954 16.6288,30.6187 32.4694,25.3392 20.6078,-5.4525 41.5919,-9.7728 61.3755,-17.8301 -7.6461,-10.561 -16.0806,-20.5039 -25.1332,-29.8986 -19.3035,2.1937 -38.1279,6.926 -57.1573,10.6631 z m -95.2504,28.2531 c -8.9146,2.9829 -20.4358,3.0519 -25.9564,11.8634 -1.9196,11.3152 5.1435,22.9046 14.7102,28.5622 8.2624,6.1708 18.2062,-0.069 26.8807,-1.8515 24.6531,-8.0924 49.7863,-14.5732 74.6444,-22.0814 -10.7661,-8.2633 -18.9264,-19.3045 -22.5964,-32.4703 -22.9726,3.36 -44.9509,11.3143 -67.6825,15.9776 z m 136.1211,11.9324 c -6.891,2.3307 -17.521,4.6974 -17.212,13.886 -1.8855,11.2803 7.5432,21.3271 17.383,25.1672 9.9789,0.2741 19.2015,-4.4913 28.7673,-6.6519 16.4587,-5.0744 33.7737,-7.4061 49.4432,-14.9153 -9.4978,-9.3606 -16.5948,-22.0123 -28.5272,-28.3901 -17.0749,0.8913 -33.3966,6.7549 -49.8543,10.9041 z m -98.9544,30.5838 c -9.3937,2.8808 -20.6749,3.1549 -27.3268,11.4523 -5.5197,14.8463 8.8115,33.7737 24.687,29.1103 29.5905,-8.1603 59.18,-16.4577 88.2913,-26.2295 -12.3435,-6.5149 -17.8641,-19.3385 -19.9557,-32.4703 -22.2193,4.9364 -43.8205,12.0004 -65.6958,18.1372 z m 120.9667,12.1385 c -10.7651,7.9543 -5.9657,25.7154 4.0462,32.1272 9.7037,3.8401 20.4008,0.9262 30.1046,-1.4744 17.9671,-5.5886 36.0023,-11.0062 54.1055,-16.2527 -7.2341,-11.6914 -16.4917,-21.8753 -26.5726,-31.0639 -20.4689,5.9317 -41.2138,10.9031 -61.6837,16.6638 z M 817.9944,1266.13 c -14.023,2.1936 -13.1317,20.2978 -6.0677,29.0413 6.4458,9.6008 19.5776,7.1661 29.0403,4.6293 25.7854,-7.4411 51.4668,-15.2243 77.2502,-22.6985 -8.8115,-9.3607 -15.0523,-20.6069 -19.4746,-32.6073 -27.4989,4.6283 -53.9005,14.2981 -80.7482,21.6352 z m 133.0022,9.9428 c -6.0347,10.4921 -2.2287,27.2248 9.9098,31.6481 8.5034,3.1539 17.5201,-0.5491 25.8174,-2.7428 18.4823,-6.2748 37.7169,-10.2869 55.718,-17.9331 -7.9543,-10.8001 -16.8358,-20.846 -26.0935,-30.4818 -22.1143,5.0065 -44.3677,10.9042 -65.3517,19.5106 z m -111.2289,32.9165 c -0.2051,8.8465 -3.291,19.5096 3.463,26.7787 6.5148,8.9145 18.9954,6.2057 28.2531,4.3202 26.3675,-7.3031 52.288,-16.1496 78.8266,-22.8015 -10.1139,-9.1887 -16.7658,-21.1551 -22.8006,-33.2246 -29.5554,7.2001 -58.5628,16.4237 -87.7421,24.9272 z m 139.3109,6.0687 c -3.1889,11.2463 -3.0178,24.7901 7.6112,32.0932 10.5951,3.9091 22.0814,0.9603 32.2313,-2.9488 16.4577,-6.2748 34.1157,-8.9146 49.9913,-16.6288 -5.7947,-11.6583 -12.7897,-22.6305 -20.2648,-33.2595 -23.2807,6.5829 -46.1512,14.5722 -69.5699,20.7439 z m -109.1373,34.4249 c -5.9317,11.4173 -2.0576,26.9847 10.0459,32.5393 11.5553,2.7078 22.7325,-3.0518 33.7047,-5.8977 20.847,-6.995 42.6192,-11.1772 62.952,-19.6816 -9.3947,-9.5658 -14.4351,-21.9093 -13.5438,-35.3842 -30.8239,10.183 -62.746,17.0749 -93.1588,28.4242 z m 137.5275,6.926 c -13.1668,6.96 -6.4459,25.0302 3.1199,32.0592 10.492,4.9024 22.2183,1.0633 32.4703,-2.5718 14.127,-5.1084 28.8013,-8.4694 43.0304,-13.1317 0.7551,-1.1323 2.2976,-3.429 3.0518,-4.5603 -2.9138,-11.8644 -9.7718,-22.1844 -15.3954,-32.8815 -21.9093,7.7142 -44.6078,12.9257 -66.278,21.0861 z m -99.9487,29.7955 c -5.5546,2.1947 -12.8577,3.0179 -15.6014,9.1556 -4.5594,9.4638 1.6114,20.5729 9.3606,26.3676 7.3031,4.4913 16.2187,1.7825 23.8989,-0.103 25.4763,-7.7842 51.1226,-15.0873 76.77,-22.3554 -9.1887,-10.321 -16.1496,-22.7335 -15.2924,-36.9966 -25.9554,9.2916 -52.7001,16.1496 -79.1357,23.9328 z m 129.4361,9.7378 c -6.926,1.8866 -16.8698,4.6984 -16.1156,13.784 -2.5367,15.0523 14.058,30.6188 28.6642,23.8988 18.4813,-6.0347 36.9617,-11.9664 55.512,-17.8641 -1.7145,-12.5836 -5.3496,-24.7901 -10.6291,-36.3444 -19.5786,3.9771 -38.1629,11.4522 -57.4324,16.5257 z m -115.8582,35.1791 c -15.1894,3.8061 -11.5553,27.0197 -0.2401,33.4306 9.3267,4.3893 19.8177,1.2003 29.2474,-1.0623 24.7561,-7.6812 49.7173,-14.7442 74.5754,-22.0473 -5.2455,-4.5943 -11.2462,-8.6405 -15.0523,-14.6062 -2.7768,-6.1718 -2.8798,-13.1318 -4.0461,-19.7157 -28.4932,6.892 -56.1632,16.5948 -84.4843,24.0009 z m 117.8468,15.1894 c -9.6688,12.6866 1.4394,36.4144 18.3773,33.0535 20.0587,-2.4347 38.54,-11.9315 58.2557,-16.2177 -1.7835,-12.9957 -4.6974,-25.7844 -7.3721,-38.6081 -22.8356,7.9893 -46.6654,13.0638 -69.2619,21.7733 z m -97.514,28.7332 c -5.6926,2.5027 -14.2641,2.9489 -15.2583,10.5951 -2.7778,11.4863 4.7313,27.8419 18.0701,27.4648 11.7944,-0.2741 22.8356,-5.0744 34.1158,-8.0233 18.8924,-6.2067 38.5391,-10.2519 56.8483,-18.1722 -9.0166,-9.7728 -14.8802,-21.9103 -14.4691,-35.4201 -26.2295,8.5374 -52.7691,16.0126 -79.3077,23.5557 z m 118.601,13.0638 c -5.2805,2.3316 -13.0647,4.0461 -12.5845,11.3152 -3.6341,14.6062 11.2122,30.8929 26.2305,25.8874 16.0466,-4.3892 31.544,-10.595 47.4886,-15.4294 -1.3034,-12.9267 -3.326,-25.7504 -5.4866,-38.5051 -18.2752,6.4799 -37.0986,11.1433 -55.648,16.7319 z m -105.1951,32.1272 c -6.6859,2.4347 -18.0692,3.8411 -17.487,13.2017 -2.0566,11.0052 5.7266,21.2581 15.1553,25.9895 8.1613,1.1654 15.9096,-2.4347 23.5908,-4.6283 24.412,-7.9553 49.4081,-13.887 73.7181,-22.1163 -11.6923,-7.8173 -17.487,-20.5379 -17.8981,-34.3899 -26.0925,5.8286 -51.0546,15.7035 -77.0791,21.9443 z m 106.6696,17.1439 c -20.2648,6.5829 -6.1378,40.5626 12.8917,36.8596 15.9785,-3.6001 30.9959,-10.7661 46.8024,-15.0864 0.4461,-13.3038 0.5491,-26.5726 0.2741,-39.8764 -20.0238,5.8627 -40.3226,11.0402 -59.9682,18.1032 z m -81.3994,24.8251 c -13.0287,3.7711 -26.5726,6.2398 -38.402,13.2008 0.9263,7.9883 -1.0973,17.452 4.9714,23.8979 5.0405,5.0404 12.1725,9.9778 19.6127,7.132 30.2076,-8.6405 60.3113,-17.59 90.4159,-26.6076 -5.0054,-3.463 -10.7661,-6.2058 -14.5712,-11.0402 -3.738,-6.858 -4.0121,-14.9153 -5.6586,-22.3554 -19.1315,4.0461 -37.5438,10.6971 -56.3682,15.7725 z m 82.5647,24.0349 c -15.8415,6.824 -6.7889,30.0706 6.3088,34.905 11.1092,2.7088 21.9443,-2.6747 32.2303,-6.1037 4.4922,-1.9886 10.664,-3.5651 11.6573,-9.2227 2.9149,-12.5496 4.9034,-25.3392 9.3267,-37.5107 -19.4746,7.132 -40.2536,10.3549 -59.5231,17.9321 z m -108.8972,32.4023 c -18.4813,7.5772 -5.9667,36.4475 11.1082,36.3444 6.2067,-0.137 12.0704,-2.4337 17.9671,-4.1491 24.6871,-8.2284 50.4375,-13.1999 74.5414,-23.2467 -12.2405,-6.789 -17.2469,-19.6126 -17.8641,-32.9845 -28.8693,6.96 -57.0194,16.6298 -85.7536,24.0359 z m 396.8448,-618.5154 c 29.3504,-19.3726 65.8999,-24.275 100.2568,-20.3659 12.8236,1.5425 24.8921,6.6179 35.5212,13.852 -10.0799,5.6226 -16.7658,14.9153 -22.9376,24.379 -12.9257,2.4337 -14.5382,-16.8698 -26.1615,-19.1675 -15.3604,-2.5377 -30.7218,2.8458 -44.4718,9.2577 -10.1479,5.1775 -21.018,14.6752 -19.2005,27.2588 2.6748,16.8698 13.4749,32.2642 28.5962,40.2875 4.1492,1.9206 10.6631,7.2011 4.4223,11.0412 -16.5938,15.3264 -31.9892,36.8596 -25.1672,60.6894 2.9498,11.0062 16.2526,9.1546 25.0311,11.1772 -0.4111,2.7768 -0.7892,5.5546 -1.1663,8.3664 -7.4741,3.7711 -14.5722,8.1263 -21.6012,12.6866 3.429,14.2291 15.4975,22.4245 27.1898,29.6245 -7.6802,0.7883 -15.3604,1.4405 -23.0066,2.1257 0.8922,7.7152 0.7202,16.5267 6.72,22.4244 6.9269,9.1886 18.7894,11.2802 29.4534,12.9607 -5.5546,4.3543 -15.0183,6.857 -14.7782,15.3604 7.098,16.2527 27.7039,11.2463 41.899,12.6176 -3.462,5.2806 -6.857,10.5951 -10.1139,16.0126 12.9607,3.7371 26.4696,4.4233 39.7734,6.3088 9.2926,76.3249 14.058,153.0949 22.9045,229.4529 1.6805,22.8015 2.7088,45.8081 7.7483,68.2325 -20.949,-7.7832 -42.6873,-13.6809 -65.0437,-15.1213 -23.0066,-5.1775 -46.5623,-5.4856 -70.0151,-6.3428 7.4412,-24.413 12.0005,-50.8146 4.2863,-75.8098 -7.5432,-25.5793 -25.7154,-47.4196 -48.4829,-61.0325 -38.3671,-24.0699 -87.194,-31.578 -118.6351,-66.278 -20.847,-21.087 -27.0868,-51.7048 -27.6019,-80.336 1.8175,-66.312 26.6766,-130.3264 63.1921,-185.1181 27.2938,-40.3226 60.3123,-77.8334 101.3881,-104.543 z m 143.0821,5.5896 c 9.0175,-5.1775 20.5379,-1.7485 27.4979,5.3835 18.0021,17.212 45.3289,25.6474 54.9977,50.5055 -15.0173,-10.1149 -30.2067,-19.9207 -45.8081,-29.0413 -11.1092,-9.0186 -26.7787,-10.6301 -40.0485,-6.1038 -17.9312,10.5601 -25.9214,31.27 -41.3508,44.5058 -9.9769,5.4856 -22.9717,4.6973 -33.4987,0.9943 -14.9483,-8.3664 -26.6756,-24.516 -28.1841,-41.694 8.5375,-11.3152 22.0814,-20.6409 36.8936,-18.5493 14.7442,-0.3431 23.2467,13.6119 31.7842,23.3837 14.8132,-6.7549 24.4129,-20.5039 37.7168,-29.3844 z m -27.704,81.7414 c 0.4111,-23.0756 17.7601,-51.7398 43.8876,-48.791 8.1603,-0.6521 11.9314,7.4402 16.3207,12.7547 16.3897,0.4121 34.3908,4.1832 42.9283,19.8187 -13.852,1.5434 -28.8363,2.1256 -40.3906,10.9381 -12.5486,7.9883 -19.3385,22.2524 -31.7501,30.3097 -15.2234,5.5206 -33.6026,-8.6745 -30.9969,-25.0302 z m 15.1894,11.9665 c 10.3549,6.96 19.9897,-2.2287 27.1208,-9.0857 -6.0688,-2.5377 -13.0638,-3.703 -17.9322,-8.3323 -3.9771,-6.0348 -5.1435,-15.2574 -0.3081,-21.1551 6.1028,-7.5782 19.2005,-4.5263 23.8298,-13.6469 -26.7786,-4.9374 -47.3175,31.1339 -32.7103,52.22 z m 17.3839,-33.7047 c -4.1151,8.8805 6.754,16.2867 14.5372,16.8698 13.3388,-5.1775 25.5784,-12.8236 38.299,-19.3045 -9.2567,-2.0916 -18.7544,-2.5708 -28.1501,-1.5765 -3.1539,6.891 -6.2057,15.2924 -15.1893,15.3954 -0.2391,-6.0697 -0.2741,-12.1724 -0.3771,-18.2412 -2.9829,2.2627 -7.6462,3.0509 -9.1206,6.857 z m -97.926,45.8081 c 11.5893,-16.8348 30.8238,-26.6066 50.0943,-31.8181 -9.3257,47.9678 -1.6804,100.1537 25.3383,141.3676 10.1829,16.1146 25.4413,27.978 38.8481,41.2818 -9.2916,12.9267 -23.7277,20.95 -39.5683,22.3214 -1.3024,-1.0283 -3.9771,-3.1539 -5.3145,-4.1832 2.6067,-8.0923 6.1717,-15.8065 9.2926,-23.6928 -14.9152,2.4347 -29.6595,6.2408 -44.8138,6.7549 7.5091,-11.8293 19.1315,-22.5274 18.1372,-37.7508 -12.9257,5.0064 -27.1218,7.6462 -40.7337,3.566 10.1839,-10.1489 25.2022,-18.2062 26.8477,-33.9447 -12.0695,-1.3034 -24.0699,-2.9488 -35.9333,-5.4175 10.458,-13.749 24.7891,-26.9158 24.1039,-45.7052 -10.9371,0.5142 -22.0133,0.5142 -32.7104,-2.1606 0.5832,-10.389 -0.103,-21.7722 6.4119,-30.6188 z m 141.4025,-25.9894 c 11.5553,-5.8637 24.9612,-4.1142 37.4418,-3.395 -13.783,4.2862 -30.1047,2.1946 -41.3859,12.6526 -16.0796,13.68 -10.355,38.9852 -25.0632,53.9005 -8.0923,10.0459 -21.9783,9.2226 -33.3966,7.2681 0.4461,-7.7492 -2.3657,-17.143 3.7031,-23.3497 8.7435,-9.6688 20.4008,-15.9776 30.2067,-24.5151 9.4297,-7.5441 17.487,-17.1439 28.4941,-22.5614 z m 21.2241,6.4458 c 23.8298,-9.4977 46.5283,7.7492 70.1181,9.7718 -0.8912,10.8351 -3.2579,21.4982 -7.098,31.6821 -11.4173,-7.5781 -15.7375,-21.6012 -26.4016,-29.8986 -10.2519,-8.5724 -24.2409,-8.6064 -36.6185,-11.5553 z m -8.7435,22.9726 c 11.9655,-9.6347 32.2643,-10.9031 42.7563,1.6115 8.3324,8.8465 11.3492,20.984 13.852,32.5733 -15.0514,3.394 -29.9326,7.4402 -44.6428,12.0355 -16.9369,5.1425 -34.836,3.703 -52.254,4.8003 15.6704,-15.2583 22.5614,-37.6478 40.2875,-51.0206 z m 15.7725,57.2264 c 16.3897,-2.1266 30.4808,-11.2122 46.0132,-16.2186 -5.4855,16.1836 -14.7092,30.8588 -26.4015,43.2374 -6.1028,-6.3098 -11.1432,-16.2527 -21.3612,-15.1894 -20.6409,-0.8232 -43.8885,-2.4007 -61.7517,9.8399 -13.5089,10.9031 -6.4799,33.6706 9.4977,37.6827 12.5156,2.3997 25.8865,2.9829 38.299,-0.206 11.1782,-6.961 18.6524,-18.6183 30.3788,-24.9962 -6.1708,13.4409 -17.075,24.5501 -20.2289,39.3623 -2.4347,7.3031 -2.5727,15.9786 -8.2293,21.8073 -7.4402,9.1546 -21.2581,7.6121 -31.133,3.9091 -4.8344,-6.7899 -5.3145,-15.4644 -8.8815,-22.8015 -9.1196,-7.8863 -20.778,-13.5779 -26.4346,-24.7561 -7.4061,-12.3096 -5.5215,-31.133 7.9543,-38.4701 22.0133,-12.7216 48.3799,-7.7152 72.2787,-13.2008 z m -54.9287,28.2522 c 14.9493,-8.6055 33.2925,-7.3712 49.4072,-3.1199 6.8239,0.9602 2.6747,9.7037 3.1899,14.058 -16.4928,-8.1263 -34.4939,-10.0459 -52.5981,-10.9372 z m -323.7779,374.1813 c 30.1726,-15.7385 65.7969,-7.6122 96.6217,1.9205 18.1732,6.6859 37.8879,4.2512 56.7463,7.1661 27.3958,5.4515 55.6149,3.8401 83.0098,9.4977 26.9847,1.2334 53.7974,5.0054 79.4448,13.852 19.5096,7.3371 40.4596,8.3314 61.1005,7.6462 16.2867,0.5481 28.2181,-13.818 44.2997,-14.5382 10.424,-1.5434 18.9955,7.2351 29.3495,6.2748 6.7559,0.2051 14.8472,-1.7835 20.0937,3.8061 5.5886,7.5082 8.5365,16.6288 13.989,24.2409 9.2577,6.9601 22.6976,8.1604 29.3844,18.4813 7.7483,11.5894 14.1611,24.138 18.6174,37.3728 -2.9819,0.172 -8.9136,0.4811 -11.8974,0.6522 -16.1146,-18.2413 -32.6414,-36.1054 -47.7627,-55.2029 -4.1822,-5.2805 -9.0516,-9.9438 -14.2631,-14.1951 0.8572,8.5375 3.703,16.5948 6.8229,24.5501 -9.4287,-8.7095 -17.9321,-18.3103 -27.2588,-27.0878 -4.5593,-5.4515 -12.2745,-3.429 -18.4463,-4.2172 -1.9885,16.9719 17.247,25.7504 16.5258,42.2421 -16.8339,-0.8572 -29.6585,-12.8917 -45.0879,-18.1032 -18.9945,-6.4128 -39.2253,-8.2633 -59.215,-8.1953 -14.4682,0.4801 -26.7787,-8.1944 -40.2876,-11.8634 -28.6982,-7.7833 -58.3227,-11.0402 -87.9813,-12.4806 -32.4703,-5.1435 -65.4207,-2.2627 -98.1311,-3.9772 -23.2817,-0.6181 -44.8488,-11.7953 -68.0955,-12.3095 -12.6186,1.8516 -26.4366,4.4913 -35.8993,13.783 -12.9607,14.4011 -9.6008,37.5457 2.4687,51.3977 11.2122,12.6867 28.4241,17.521 44.5057,20.3669 32.7104,3.0859 65.5229,-0.1721 98.2673,0.5831 33.2605,0.8223 66.1069,-5.3145 99.3655,-4.5943 23.5567,-1.2003 47.1115,0.068 70.6672,0.8913 -0.9593,-1.8516 -2.8458,-5.4866 -3.8061,-7.3031 -17.7601,-7.8183 -37.5097,-8.7785 -56.6092,-9.3607 -53.6244,-1.0633 -107.2848,-1.1663 -160.9112,-0.5492 -18.1722,0.2061 -40.1845,4.9724 -54.1745,-9.8748 -8.0223,-6.5829 -10.1489,-20.6409 -2.0916,-27.944 22.3224,-7.4061 46.2193,-1.5434 68.9528,0.7202 34.4248,7.063 69.981,2.4337 104.4399,9.1886 29.9676,3.0519 59.6602,8.2974 88.9425,15.2924 38.4361,8.2974 82.3246,2.4347 114.829,28.7673 9.3947,8.8805 21.3261,13.4748 34.3218,12.2405 0.3091,-9.1546 0.9593,-18.2403 1.9886,-27.3269 11.1782,2.7088 21.9783,6.789 32.7794,10.6981 13.2008,4.6283 20.709,17.7261 25.8864,29.8986 -152.4077,2.0916 -304.9194,0.068 -457.3282,-0.2741 -24.7891,-2.5717 -51.4997,-7.03 -70.7693,-24.1389 -17.8981,-15.2244 -24.3099,-41.5229 -17.7951,-63.7063 4.9715,-16.3557 19.4406,-27.4299 34.3899,-34.2878 z m -698.6114,181.347 c 1.6115,-9.0866 12.3105,-6.823 19.0995,-7.7832 388.6154,0.069 777.2649,0 1165.8804,0.035 30.4137,0.7882 60.9645,-1.9206 91.2062,1.9535 0.103,2.0576 0.2741,6.1718 0.3761,8.2294 -420.2976,0.6172 -840.5951,-0.1371 -1260.8577,0.3771 -5.1775,-0.7202 -11.6243,1.2003 -15.7045,-2.8118 z m 1102.5533,30.5848 c 4.4922,0.4111 8.9826,0.8232 13.5089,1.2003 2.3666,6.5489 2.6067,13.4409 1.0633,20.2638 -6.2399,-0.24 -12.4806,-0.4461 -18.6524,-0.7202 -2.3317,-7.4401 -0.4461,-14.6062 4.0802,-20.7439 z m -995.9177,8.9145 c 11.5893,-0.2741 23.1776,-0.3081 34.802,-0.3771 1.1993,27.6359 -1.8866,55.5119 2.0916,83.0108 18.9944,3.0509 38.298,2.8458 57.4305,1.3374 44.3347,0.8913 88.8735,2.5027 133.1391,-0.4461 -0.137,-2.2977 -0.4791,-6.858 -0.6512,-9.1546 -6.0337,-3.1549 -12.1384,-7.0631 -19.2355,-6.652 -37.7848,-0.275 -75.6046,0.2401 -113.4235,-0.035 -10.1139,-0.8223 -22.8355,0.241 -29.2814,-9.4288 -8.1603,-12.1034 -3.1209,-27.3608 -2.6407,-40.7677 -2.8789,2.2287 -4.3883,5.1085 -4.5254,8.6405 -0.5491,12.3436 1.0624,24.6531 3.154,36.8246 -26.6067,-7.5772 -22.0814,-46.4593 -1.7476,-58.7349 11.5203,-9.9428 27.0868,-2.8458 40.3566,-1.7825 -2.7088,6.3088 -5.9327,12.6176 -6.6519,19.5777 2.9488,5.8636 8.1254,10.9381 15.1894,10.3209 38.9501,1.0633 77.9693,-0.7202 116.9545,0.6172 14.6752,0.24 28.2871,9.4637 35.5902,21.9783 6.2408,17.6921 3.1199,36.9626 3.7721,55.3749 -9.7718,1.1653 -19.5786,2.2626 -29.4534,2.1946 -54.8598,-0.2061 -109.7195,-0.103 -164.5803,-0.103 -20.4348,-0.069 -41.4879,1.4404 -61.2375,-4.9375 -7.9893,-3.0518 -9.8058,-12.3775 -9.3957,-19.9557 0.069,-29.1784 -0.2401,-58.3577 0.3441,-87.5021 z m 1055.5788,-0.2741 c 11.7603,0 23.5207,0.034 35.3151,-0.034 0.5152,27.1218 -0.2741,54.2426 0.4802,81.3984 17.1099,5.2805 35.11,4.5603 52.5971,1.9205 1.4753,-16.6638 1.0973,-33.3615 0.6861,-50.0603 11.3843,-0.4461 22.8356,-0.4802 34.2529,-0.2741 0.241,25.9904 1.2683,52.0489 -0.6512,78.0384 -21.7723,2.7778 -43.7516,1.4054 -65.6259,1.7485 -15.1213,0.206 -30.4137,-0.5482 -45.1579,-4.0802 -11.3823,-1.5765 -11.6914,-15.3264 -13.2008,-24.1719 -1.3014,-28.1511 -1.5074,-56.4382 1.3034,-84.4853 z m -722.1662,0.7883 c 12.0005,-0.7542 24.0349,-0.7542 36.0354,0 1.5094,27.2938 -0.3081,54.6206 1.1663,81.9135 7.2691,0.8572 14.5722,1.6455 21.9103,2.3316 1.6455,-17.3839 1.6795,-34.905 -0.4461,-52.2199 11.4182,-0.1031 22.8355,0.068 34.2528,0.6852 5.4175,16.1846 4.9374,33.3625 4.9034,50.1974 5.3835,0.172 10.7661,0.4801 16.1496,0.8572 1.9886,-17.281 1.8516,-34.802 -1.8175,-51.8429 11.8984,0 23.8298,0.1371 35.7623,0.8913 3.6,16.1156 2.2626,32.7104 2.6397,49.1001 6.1038,0 12.2415,0.034 18.3783,0.034 0.035,-16.6638 0.5491,-33.4296 -1.8515,-49.9573 11.3842,0.241 23.1446,-1.3705 34.2198,1.9545 4.6623,6.3098 3.737,14.5042 4.0111,21.9103 -0.068,17.9671 -0.206,35.9673 -0.069,53.9685 -21.121,3.1549 -42.5162,1.8855 -63.7743,2.0235 -35.4882,-0.3431 -71.0094,0.7193 -106.4635,-0.4121 -12.7547,-1.7825 -32.3673,-0.9252 -34.3219,-17.8981 -2.7428,-31.0299 -1.0973,-62.4029 -0.6862,-93.5368 z m 217.2123,-0.1711 c 11.7604,-0.5491 23.5208,-0.5491 35.2812,-0.103 1.1323,26.8127 0.4121,53.6264 0.4121,80.4391 22.5614,4.0451 45.6021,1.7825 68.4026,1.6804 0.3781,-16.4247 0.4802,-32.8484 -0.102,-49.2381 11.6913,-0.6171 23.3837,-0.6852 35.076,-0.205 -0.3771,25.8184 -0.206,51.6718 -0.172,77.4902 -22.2514,3.2909 -44.7789,1.6795 -67.2033,2.0226 -20.4689,-0.068 -41.5219,1.3033 -61.3746,-4.8344 -8.9146,-3.7381 -10.6291,-14.7092 -10.6291,-23.2817 -0.206,-27.979 -0.24,-55.9911 0.3081,-83.9701 z m 225.3037,11.1772 c 7.4061,-8.7775 19.9207,-8.0233 30.1726,-10.457 -5.5886,9.8059 -10.0799,21.2581 -1.4404,30.8929 41.0088,1.6115 82.0855,-0.1711 123.1273,0.7892 15.7045,-0.3431 31.133,8.7425 38.7792,22.3894 3.669,8.5715 3.1539,18.1032 4.1832,27.1898 12.2414,0.6172 24.515,0.6522 36.7905,-0.034 0.3431,-16.4587 0.4111,-32.8814 0,-49.3401 11.8644,-0.5142 23.7268,-0.5142 35.6242,-0.068 -0.205,25.8185 0.069,51.6709 -0.205,77.5243 -17.8292,2.1256 -35.9683,3.394 -53.8315,1.0623 -6.6859,-0.7542 -11.7263,-5.4856 -16.8008,-9.3947 -4.1142,5.6576 -9.5667,11.1442 -17.2469,10.252 -53.7625,0.309 -107.5259,-0.2061 -161.3233,0.172 -11.3143,0.171 -22.5955,-0.6172 -33.8077,-1.9546 -0.068,-8.5724 -0.103,-17.1099 -0.034,-25.6473 35.2821,0.206 70.5632,-0.6852 105.8463,0.103 22.5955,-1.5434 45.293,0.7882 67.7855,-2.2627 -0.068,-2.0575 -0.2741,-6.2067 -0.3761,-8.2983 -6.0348,-3.2229 -12.1385,-7.2001 -19.2696,-6.72 -37.7848,-0.24 -75.6046,0.1371 -113.3895,0.034 -10.2179,-0.069 -21.9443,-0.7543 -28.5612,-9.7378 -12.8927,-12.9607 -7.064,-34.3559 3.9762,-46.4944 z m -868.9513,21.7043 c 18.9274,-1.8856 38.0249,-2.4338 56.9513,-0.5482 12.5146,0.6172 21.6703,12.7206 22.5965,24.5841 1.3024,17.693 0.2051,35.4881 0.3421,53.2492 -22.4234,2.9479 -45.0879,1.9536 -67.6144,1.7825 -8.5034,-0.9602 -18.1732,-0.9943 -25.1672,-6.4458 -5.1444,-8.0573 -3.8751,-18.1042 -5.0064,-27.1558 21.3961,6.2058 43.9906,4.4223 65.9349,3.1879 -1.2694,-5.1425 -3.1889,-10.7661 -8.8806,-12.2745 -13.0637,-2.9139 -26.6076,-0.7202 -39.3963,2.4687 -0.137,-12.9607 -0.137,-25.8874 0.2401,-38.8481 z m 380.6272,-0.7883 c 11.3142,-0.7202 22.6975,-0.7542 34.0468,-0.4111 0.5831,25.3723 0.6171,50.7456 0.3431,76.1528 0.6861,14.0581 -10.8351,24.4811 -22.4925,30.0697 -11.6923,6.6519 -25.6474,4.4233 -38.0599,1.5094 6.7209,-5.3495 14.1611,-9.9779 19.7497,-16.5617 6.3438,-8.1604 6.7549,-18.9265 6.7209,-28.7673 -0.1371,-20.6749 -0.1721,-41.3159 -0.3081,-61.9918 z m 317.9832,89.3187 c 8.3664,-1.4395 16.4917,0.138 23.1436,5.6236 5.7267,-4.8684 15.9776,-10.4571 21.3962,-2.4687 4.9714,6.0687 -0.4462,12.3095 -4.6293,16.9378 -6.3089,1.5094 -11.6574,-2.7428 -16.9039,-5.4515 -6.754,3.9781 -14.2981,5.9317 -22.1503,5.3835 -0.4452,-6.6859 -0.7533,-13.3719 -0.8573,-20.0238 z m 53.7974,-0.7883 c 5.0745,0.069 10.148,0.1031 15.2574,0.1721 1.8515,6.8569 1.6795,13.886 -0.9943,20.5719 -4.5593,0.172 -9.1206,0.4461 -13.6459,0.7202 -4.8694,-6.892 -5.1775,-14.3661 -0.6172,-21.4642 z m 467.203,1.0283 c 6.5829,-0.205 13.2008,-0.274 19.8177,-0.136 -0.102,6.5139 -0.343,13.0968 -0.6852,19.6466 -6.1377,-0.6862 -15.4294,3.531 -18.2072,-4.2522 -2.7428,-4.6283 -0.5831,-10.286 -0.9253,-15.2584 z M 493.1542,1973.689 c 425.3381,-0.2401 850.6751,-0.1031 1276.0141,-0.034 -0.034,3.463 -0.035,6.995 0.034,10.5261 -425.372,0.034 -850.71,0.172 -1276.0481,-0.069 0,-3.4971 0,-6.9601 0,-10.423 z"
       style="fill:#f0c239;fill-rule:evenodd"
       id="path4" />
  </g>
</svg>
