<?xml version="1.0" encoding="UTF-8" standalone="no"?>
<svg
   version="1.1"
   width="1700.7872"
   height="946.17944"
   id="svg4"
   viewBox="0 0 1700.7873 946.17946"
   sodipodi:docname="60dde534fd9980976edf3acce9bf7084.cdr"
   xmlns:inkscape="http://www.inkscape.org/namespaces/inkscape"
   xmlns:sodipodi="http://sodipodi.sourceforge.net/DTD/sodipodi-0.dtd"
   xmlns="http://www.w3.org/2000/svg"
   xmlns:svg="http://www.w3.org/2000/svg">
  <defs
     id="defs8" />
  <sodipodi:namedview
     id="namedview6"
     pagecolor="#ffffff"
     bordercolor="#666666"
     borderopacity="1.0"
     inkscape:pageshadow="2"
     inkscape:pageopacity="0.0"
     inkscape:pagecheckerboard="0" />
  <path
     d="m 665.4618,0.38225644 c 72.6112,-0.648 145.2216,-0.0287 217.8321,-0.3104 4.8427,-0.4789 9.2633,1.52029996 13.5706,3.49159996 0.8731,4.4477 2.7023,8.6431996 5.6304,12.1627996 19.2578,26.296 31.5898,56.675 42.0072,87.363704 18.2162,70.5833 8.2497,149.8386 -33.4198,210.6525 -4.8699,7.32 -9.0375,18.4134 -19.3982,18.6105 -67.0079,-0.4509 -134.0165,0.253 -200.9957,-0.3376 9.2913,-5.1532 20.1867,-6.4198 29.5626,-11.4876 29.8435,-14.5842 55.9712,-38.7972 69.7669,-69.3167 14.0215,-24.5227 18.5251,-53.1835 20.8339,-80.9727 1.3799,-16.9489 -2.1396,-33.842 -8.0239,-49.6648 -9.7981,-22.552204 -21.482,-44.652704 -38.0367,-63.038204 -26.1555,-28.8586 -62.2217,-46.877 -99.3294,-57.15309956 z M 561.8251,90.785956 c 48.8762,0.0279 97.837,1.1827 146.7132,-0.7877 23.5658,0.478 47.1309,-1.4078 70.7246,-0.1413 -8.9529,5.518 -19.1173,8.4469 -28.4932,13.063804 -39.6408,19.652 -76.2983,49.4397 -95.2185,90.292 -27.6751,58.7301 -13.3735,134.7483 35.7278,177.7682 11.0096,12.5004 24.4668,23.1995 39.4165,30.5475 85.197,0.7039 170.4483,0.057 255.6724,0.3096 -0.2538,-1.7454 -0.7318,-5.2083 -0.9856,-6.9537 0.423,1.9705 1.2953,5.8843 1.7454,7.8547 29.4788,-17.5123 56.0558,-41.1619 72.4699,-71.6535 19.2865,-33.9544 22.9745,-75.4827 12.5858,-112.8713 -12.2753,-46.8778 -46.6807,-85.4779 -88.2081,-109.2121 -10.6704,-5.8842 -21.1445,-12.697504 -33.2234,-15.343904 -1.0128,-1.0415 -3.0679,-3.1532 -4.0814,-4.1955 45.4692,-0.1126 91.0238,1.2106 136.465,-0.704 24.2977,0.3943 48.5666,-1.4078 72.8922,-0.6193 13.6272,17.089404 23.3686,36.685504 34.715,55.211404 1.0694,4.2794 2.6456,8.4182 4.814,12.2753 11.5722,29.9848 18.5818,61.6871 19.9896,93.8395 0.5076,48.8483 -11.4589,98.26 -36.798,140.2384 -1.3512,3.6879 -7.2921,7.8547 -1.4637,11.3455 -10.8116,1.2394 -14.5283,13.9649 -20.3,21.7917 -11.4302,1.6895 -23.0016,0.8731 -34.4892,0.9856 -183.9901,0.057 -367.9523,0 -551.9145,0.028 -45.0471,-50.3399 -72.217,-118.0516 -69.0071,-186.0172 0.9577,-33.5602 12.1069,-65.9943 27.0566,-95.754 9.4876,-18.0471 19.6233,-35.9529 33.1947,-51.297604 z m -1.8587,330.704104 c 1.577,1.4078 1.5762,1.4078 0,0 z m 225.6596,57.6607 c 16.1045,-24.5227 45.5538,-39.7262 74.9185,-38.3463 11.2625,-0.1412 21.9329,3.7167 32.7446,6.3065 15.0909,8.6712 29.5338,19.2577 38.205,34.7709 11.6009,18.5538 15.5977,41.6408 10.9529,63.0382 -1.0136,4.9553 -2.7877,10.0231 -1.324,15.1476 -7.4318,4.7015 -9.5156,13.964 -15.1181,20.3272 -15.1468,18.6384 -37.6145,33.138 -62.363,32.6591 -23.0016,1.9426 -46.8212,-5.7438 -63.6009,-21.735 -32.237,-26.5219 -37.3327,-78.0166 -14.415,-112.1682 z m -319.2732,268.1727 c 17.7932,-6.7294 32.9967,-18.8355 49.8331,-27.5913 -0.0279,1.2386 -0.0846,3.688 -0.1125,4.9266 -6.6161,5.5187 -14.1054,9.9385 -21.6792,14.0215 -13.3735,7.1508 -25.7334,16.0199 -39.2473,22.9178 -1.154,-7.3767 7.0949,-9.7702 11.2059,-14.2746 z m -35.7566,35.4469 c 28.9992,-16.0766 56.5626,-34.6025 85.7302,-50.3407 0.1133,7.6864 0.1412,15.4286 -1.2107,23.059 -9.8532,2.7023 -17.9625,9.1501 -26.6903,14.19 -19.4541,11.4022 -38.2617,23.8467 -57.9704,34.7988 0.0566,-7.2362 0.1133,-14.4717 0.1412,-21.7071 z m 259.8105,0 c 28.9153,-16.5275 57.0973,-34.3208 86.1252,-50.6783 -0.028,6.7845 -0.057,13.5986 -0.028,20.4118 -15.0343,8.5874 -29.4221,18.2163 -44.541,26.6344 -4.8986,2.5339 -9.15,6.166 -12.1349,10.8396 -4.6727,-1.83 -8.0518,1.8859 -11.5426,4.3073 -5.5747,4.2801 -12.1628,6.8978 -18.5826,9.6288 0.3663,-7.067 0.6193,-14.1053 0.7039,-21.1436 z m 207.3588,-42.8235 c 12.1069,0.085 24.2131,-0.1684 36.3192,0 2.5906,-0.5914 4.9553,0.8451 6.9545,2.3088 -2.3647,14.7247 -0.7606,29.7031 -1.2107,44.5402 0.3942,26.7191 -0.8452,53.494 0.7606,80.1851 14.2745,5.9122 30.5753,7.6576 45.5538,3.3782 4.6456,-0.9577 7.2641,-5.0965 9.6568,-8.7557 -12.6688,1.6608 -25.7047,2.6743 -37.8675,-2.0559 0.5627,-14.5275 -1.4645,-29.1396 -0.029,-43.6112 12.8387,-15.992 33.7852,-20.5252 53.2122,-22.3831 2.8156,0.5627 5.7438,0.929 8.644,1.2386 5.8835,1.3799 11.5994,3.3504 17.4278,4.9274 -1.577,21.0032 -0.2259,42.0909 -0.676,63.1507 0.8731,7.4605 -7.1229,10.8396 -11.9936,14.7534 -19.7925,13.8515 -45.3295,15.316 -68.3878,11.0359 -10.0518,-1.7733 -18.8355,-7.1229 -27.1699,-12.6975 -10.3041,5.3208 -20.581,10.755 -31.1947,15.4285 -0.1405,-50.4811 -0.1971,-100.9623 0,-151.4434 z m 78.4388,77.9879 c -0.5626,11.0366 -0.423,22.0733 -0.4788,33.138 6.0255,1.3232 12.1628,0.8172 18.2442,0.085 1.0143,-12.5563 0.4509,-25.1133 0.5626,-37.6704 -6.2777,0.7598 -12.387,2.3648 -18.328,4.4486 z m -370.5988,-76.1859 c 13.091,-0.5068 26.1836,-0.225 39.2753,-0.3096 -0.1404,40.3734 0.1971,80.7468 -0.1404,121.1211 9.1221,9.0375 23.5929,12.3599 35.6432,7.7988 4.1109,-1.802 8.4181,-5.2649 8.221,-10.2481 1.3799,-15.8795 0.8731,-31.8436 0.7327,-47.7222 13.0917,-6.7853 25.5362,-14.7534 38.0925,-22.4389 0.9856,19.5953 -0.028,39.2194 1.2107,58.7868 -0.028,7.2067 1.1269,15.4565 -3.8851,21.4532 -8.0519,10.079 -19.652,18.273 -32.8284,19.2299 -19.0047,3.3783 -40.7397,-0.4789 -53.8035,-15.7949 -10.4166,6.2227 -21.5379,11.0088 -32.6313,15.8515 0.4509,-49.2433 0.2259,-98.485 0.1125,-147.7276 z m 385.6898,1.2953 c 12.81,-6.4756 29.8156,4.1102 29.5339,18.4126 1.0135,8.897 -5.8284,15.4573 -11.7973,20.9194 -5.3488,0.5905 -10.6425,1.2944 -15.9345,1.8579 -6.9258,-6.1939 -13.7119,-13.0351 -15.0351,-22.664 2.4213,-7.2641 5.2091,-15.7948 13.233,-18.5259 z m 446.9554,-1.6616 c 12.4716,0 24.9441,0.1413 37.4157,-0.1971 1.1277,41.4436 -0.8156,82.944 0.9857,124.3589 10.0518,7.2362 24.466,8.6999 34.1515,-0.056 -0.8148,-17.7094 -0.2809,-35.4748 -0.3096,-53.1842 13.9377,0.085 27.9018,-0.3376 41.8658,0.3663 -0.6759,18.075 0.8731,36.3192 -0.7318,54.3104 -9.3464,14.2457 -26.1843,23.6775 -43.4149,22.2138 -15.1461,0.8444 -32.4613,-2.2522 -42.0343,-15.1476 -9.5435,5.1803 -18.2442,12.0223 -28.2386,16.217 -73.2018,0.5068 -146.461,0.029 -219.6908,0.1972 -13.4293,0.6193 -28.4923,-10.4174 -26.6344,-24.9449 0.4788,-18.2442 1.1828,-36.4884 0.8164,-54.7605 13.5427,0.028 27.1125,0.028 40.7119,0.028 0,18.3001 -0.028,36.6297 0,54.9576 68.106,0.2259 136.2112,0.1126 204.3173,0.057 1.6057,-41.4716 -0.2243,-82.9432 0.7893,-124.4156 z m 71.4276,20.2434 c 2.3089,-6.8978 5.6026,-13.4014 9.7127,-19.3982 9.4038,-0.2817 21.482,-3.2378 27.8444,5.9401 12.1364,11.5435 2.8723,34.7709 -14.0487,34.4612 -12.6967,1.8301 -21.3695,-9.8539 -23.5092,-21.0031 z m 76.553,-20.2155 c 12.8659,-0.028 25.7597,8e-4 38.6552,-0.028 -0.2259,40.8244 0.3376,81.6487 -0.3097,122.4731 9.0383,9.8539 24.5227,10.1915 34.8547,2.1117 -0.4214,-17.8507 0.1125,-35.6727 -0.2243,-53.4939 13.7678,-0.3384 27.5347,-0.1413 41.3304,-0.1692 0.085,17.9345 0.5914,35.897 -0.1405,53.8036 -6.0247,11.1204 -18.047,18.4413 -29.8435,22.4109 -19.2865,1.9146 -42.3455,2.1676 -55.7749,-14.387 -9.5434,5.6592 -18.8635,11.6839 -28.802,16.6392 0.3671,-49.8052 -0.1125,-99.5824 0.2538,-149.3597 z m -1343.3139,1.9992 c 12.9513,-0.056 25.9018,-0.1125 38.881,0.029 0.0854,40.8523 0,81.6766 0.0567,122.5289 -12.4725,9.826 -25.7614,18.4692 -38.8819,27.3942 -0.2522,-49.9744 -0.1404,-99.9775 -0.0558,-149.9519 z m 1087.3311,22.6081 c 11.3463,-0.1404 22.889,1.1828 34.0669,-1.379 0.8731,0.901 2.5906,2.6743 3.4629,3.5754 -1.9984,2.7031 -3.9417,5.4341 -5.8842,8.1652 -5.5459,0.084 -11.1213,0.1684 -16.6393,0.3942 -2.6464,6.8691 -2.0271,16.6672 -8.5586,21.1157 -11.5714,0.901 -23.2003,0.1125 -34.7997,0.2817 0.8452,-3.5195 1.6617,-7.0391 2.534,-10.5299 5.7717,-0.3096 11.9377,1.0136 17.4556,-1.0702 2.4222,-4.8987 2.9282,-10.4174 3.9418,-15.7103 1.0981,-1.2107 3.3224,-3.6321 4.4206,-4.8428 z M 75.679,797.72006 c 2.1117,-16.2737 24.0159,-26.1556 37.3607,-15.8507 9.6289,5.1803 11.3463,16.4421 12.1915,26.2681 -4.7861,7.1508 -9.8819,15.316 -18.751,17.7095 -16.217,5.8842 -35.0239,-11.3464 -30.8012,-28.1269 z m 353.7911,14.8938 c 13.6553,-7.2354 26.747,-15.4564 40.3448,-22.8331 0.4229,25.3104 -0.1405,50.6495 0.3104,75.9887 -16.0199,27.0287 -51.7764,32.209 -80.0158,25.2553 -7.4884,-2.506 -16.8364,-3.9138 -20.0742,-12.332 -3.66,11.8532 -15.344,17.9625 -26.8028,19.9896 -16.5547,4.4206 -35.3057,1.4924 -48.6791,-9.5722 13.4572,-0.8164 32.5458,-2.0559 36.7972,-17.822 2.8164,-17.146 0.1692,-34.7429 1.2953,-52.0582 -0.9849,-1.2106 -2.9561,-3.5754 -3.941,-4.7573 15.2873,-5.2091 33.2506,3.3216 47.2426,-5.5467 l -5.518,5.49 c 1.6896,-0.3097 5.1237,-0.9569 6.8412,-1.2953 -5.9401,4.2514 -5.5459,12.2753 -5.6305,18.7789 0.3384,12.1069 -0.648,24.2977 0.6481,36.3479 11.2897,13.6552 32.9409,14.4996 47.8339,6.6441 5.8005,-2.4494 9.1221,-8.6712 9.15,-14.7805 0.423,-15.8236 -0.2242,-31.6744 0.1971,-47.4972 z m -269.2996,-16.1045 c 13.5147,0.029 27.0007,0.029 40.5155,0 0.253,23.059 -1.0702,46.1739 0.7877,69.1763 -33.0247,24.5506 -75.8482,35.7278 -116.588,28.9991 -16.1604,-0.901 -30.2386,-9.4597 -45.4133,-13.9928 -0.9011,-1.0981 -2.7311,-3.3224 -3.6321,-4.4206 -12.4437,3.688 -23.087,12.36 -35.8403,14.8659 0.1396,-26.0717 -0.0567,-52.1427 0.0558,-78.2137 13.1205,-0.085 26.2402,-0.2251 39.3599,0.1125 -0.1963,16.668 0,33.3072 -0.1405,49.9744 29.9282,19.0047 67.7397,18.751 101.0182,10.1077 6.5882,-1.8579 12.7821,-4.8148 18.7797,-8.0239 -0.1125,-22.8619 -0.5914,-45.7509 1.0974,-68.5849 z m 926.7934,14.3304 c 14.0503,-0.1117 28.0989,-0.084 42.1197,8e-4 -0.4501,20.4118 0.8164,40.9081 -0.5347,61.2361 -17.174,23.565 -57.154,25.3671 -75.8483,2.7031 11.0367,-1.2953 25.0574,2.3368 33.7286,-6.1947 1.1548,-19.2011 0.028,-38.5155 0.5347,-57.7445 z m -565.5976,1.8021 c 14.1061,1.9146 28.3798,0.648 42.5697,1.1269 0.1413,22.5235 -0.0558,45.047 0.1133,67.5992 -11.7406,13.091 -29.197,20.9744 -46.9065,19.4541 -10.6137,-0.1126 -25.2825,-1.9426 -30.0686,-12.4725 10.2769,-5.0111 25.8459,1.6896 34.0949,-8.9529 3.7167,-8.8124 1.6896,-18.7509 2.1964,-28.0135 -0.6752,-12.8954 1.802,-26.1843 -1.9992,-38.7413 z m 272.8471,18.3287 c 12.9792,-12.81 30.9129,-21.9041 49.5514,-20.0175 9.1229,1.1541 18.4692,2.1676 27.1979,5.2929 2.2522,6.6161 0.3655,14.2179 0.8443,21.2003 -0.6472,15.4852 1.1541,31.2521 -0.7039,46.5673 -18.1875,5.8843 -37.5306,8.2778 -56.6192,8.1932 -1.182,2.3934 -2.3368,4.8148 -3.4908,7.2362 -0.1684,-2.1397 -0.5347,-6.4477 -0.7039,-8.6153 -4.8987,-1.6329 -14.7255,1.2665 -16.0199,-5.4621 -0.056,-18.1317 0.3934,-36.2633 -0.057,-54.395 z m 17.1181,6.0814 c -0.7606,13.909 0.055,27.9018 -0.2825,41.838 6.3351,0 12.6975,-0.2818 18.9201,-1.6329 -0.1125,-16.1045 -0.028,-32.1811 0.028,-48.2849 -6.2498,1.5204 -15.7941,1.0695 -18.6664,8.0798 z m 817.3834,87.8706 c -1.0687,-11.2059 9.1221,-22.2418 20.4125,-21.7071 5.2945,-0.1692 10.107,2.3368 15.0064,4.0264 2.7039,4.9545 5.1524,10.1077 7.0104,15.4852 -0.5627,3.2657 -1.0415,6.5315 -1.4637,9.8539 -6.4757,10.1357 -18.9481,15.0343 -30.3791,10.3328 -0.7877,0.8164 -2.3367,2.4493 -3.1252,3.2657 -0.084,-7.9401 -7.7989,-13.3455 -7.4613,-21.2569 z"
     style="fill:#004b7f;fill-rule:evenodd"
     id="path2" />
</svg>
