<?xml version="1.0" encoding="UTF-8" standalone="no"?>
<svg
   version="1.1"
   width="1456.7662"
   height="1700.7872"
   id="svg7"
   viewBox="0 0 1456.7663 1700.7873"
   sodipodi:docname="8ba7f47fe9dc2cd4c4d8334707fef973.cdr"
   xmlns:inkscape="http://www.inkscape.org/namespaces/inkscape"
   xmlns:sodipodi="http://sodipodi.sourceforge.net/DTD/sodipodi-0.dtd"
   xmlns="http://www.w3.org/2000/svg"
   xmlns:svg="http://www.w3.org/2000/svg">
  <defs
     id="defs11" />
  <sodipodi:namedview
     id="namedview9"
     pagecolor="#ffffff"
     bordercolor="#666666"
     borderopacity="1.0"
     inkscape:pageshadow="2"
     inkscape:pageopacity="0.0"
     inkscape:pagecheckerboard="0" />
  <g
     id="Layer1000"
     transform="translate(-405.47512,-283.4645)">
    <path
       d="m 1192.2212,352.3944 c 29.6576,-35.7303 72.3213,-59.5676 117.616,-68.9299 -14.828,14.1696 -32.9973,27.8357 -35.5279,49.8511 -6.0727,34.5653 19.941,62.9074 42.9678,84.973 86.8968,86.8452 173.2872,174.1982 260.3863,260.8425 26.5201,26.0122 51.673,54.5063 67.0075,88.7188 17.7647,38.0069 25.1529,82.7465 12.0449,123.3859 -12.1956,44.4354 -50.8122,81.4812 -96.9677,88.2626 -33.1494,7.0353 -66.6532,-1.7703 -98.1829,-11.7408 -27.5315,-9.0093 -58.8589,-9.8185 -84.9228,3.948 -31.5799,15.6874 -55.6698,42.2577 -81.0766,66.0448 -110.2278,110.7844 -220.6076,221.3666 -330.6331,332.303 -54.2037,54.7086 -112.1,108.8104 -183.7125,139.7835 -44.7898,19.5866 -93.4759,30.5183 -142.3658,31.3791 14.6272,26.3666 32.5942,53.8478 62.5545,64.2229 41.45,13.6144 86.2383,1.8721 124.7517,-15.3847 76.6236,-36.7947 142.9224,-91.7558 201.8817,-152.3865 97.9304,-97.576 196.1634,-194.8464 293.9919,-292.5745 43.9305,-45.903 99.4984,-87.8078 165.1903,-91.6023 85.4293,-8.5029 169.7438,53.6958 191.4063,135.8355 -16.0432,-15.6387 -35.5796,-30.1124 -59.1128,-29.3535 -39.4244,-0.052 -70.0948,28.4425 -95.3983,55.4675 -123.7418,122.7792 -245.762,247.2798 -370.2612,369.2986 15.1838,14.0189 33.9585,25.8616 55.2652,25.9634 34.112,3.1375 65.2874,-16.3473 88.3142,-39.7284 74.8519,-75.5104 150.0582,-150.6148 224.9603,-225.9716 28.6963,-28.6964 56.3799,-59.4672 91.9078,-79.9132 32.9959,-19.6368 72.4719,-32.4407 111.0872,-25.457 71.5623,13.8668 127.991,79.9633 136.8482,151.2215 -12.1453,-13.1079 -24.0396,-29.6059 -43.3207,-31.5297 -30.1123,-5.1115 -55.621,15.2843 -75.7126,34.9713 -95.4485,94.9436 -190.5455,190.293 -285.8434,285.3886 -68.0189,64.88 -182.2951,71.1061 -257.0466,14.0175 -29.9602,-22.8245 -52.2798,-55.6698 -62.1986,-92.0083 -58.6065,58.5562 -131.1802,105.3702 -212.7633,123.6399 -69.4879,17.7131 -146.2119,11.0838 -209.4234,-23.7857 -62.7553,-34.4664 -107.4949,-97.1715 -125.9152,-165.6967 -56.0256,-13.0578 -108.4058,-44.3336 -141.4031,-92.1604 -39.6281,-57.5936 -51.6228,-131.9391 -37.35,-199.9077 13.1568,-70.1966 47.8254,-134.3679 90.1864,-191.1021 8.7038,-11.2359 16.4463,-23.9895 29.0493,-31.3275 19.4834,-27.8356 44.2834,-56.1762 79.1528,-63.464 30.3663,-8.5531 63.718,-3.5434 90.8449,12.2974 -16.498,-29.3032 -22.42,-65.3361 -10.0724,-97.2718 12.0966,-38.0572 45.751,-67.5125 84.3174,-76.572 26.2145,-3.6941 54.7589,-3.9982 78.3437,9.8184 50.8108,23.988 77.4328,88.3645 58.5046,141.2511 -14.4751,43.7769 -56.0256,76.7241 -102.0806,80.2159 -23.3812,2.7845 -45.8012,-5.7686 -66.7536,-15.0304 14.2714,28.7968 17.967,62.6047 8.7037,93.5261 -11.3348,35.528 -40.4859,64.781 -76.1157,75.9652 -33.8581,9.8701 -72.6756,5.4658 -101.5241,-15.5368 -30.9214,-20.598 -49.5957,-57.1374 -49.9012,-94.1344 -1.1621,-15.082 4.9608,-29.4036 5.8202,-44.2833 -1.0616,0.1521 -3.1361,0.4045 -4.2006,0.5566 -49.95,70.3472 -94.942,148.843 -103.6486,236.3481 -4.5549,44.1815 13.0075,94.1832 54.304,115.4913 40.4888,24.9492 91.2494,18.9268 133.9131,3.1877 64.1741,-24.5461 121.1107,-65.0334 171.4151,-111.2908 118.8841,-119.0334 237.8157,-238.0667 356.5966,-357.2536 49.1925,-47.6231 118.7808,-79.1528 188.2171,-67.5627 50.762,5.9207 87.4018,44.84 130.2692,68.323 16.0934,7.2878 36.6914,18.6743 53.1392,6.1731 7.9462,-4.4028 5.7197,-14.5239 5.2133,-21.9637 -7.5403,-25.305 -26.3164,-44.9921 -44.4354,-63.3134 -81.1269,-80.8743 -162.4058,-161.6468 -243.4322,-242.6216 -33.1494,-32.7448 -60.8831,-73.1318 -70.4993,-119.3375 -8.401,-43.6263 7.0855,-89.2252 35.6298,-122.4764 z"
       style="fill:#009aae;fill-rule:evenodd"
       id="path2" />
    <path
       d="m 605.8069,1851.4017 c 3.4932,-0.2023 10.375,-0.6069 13.8668,-0.8091 0.6069,30.2643 0.0503,60.5287 0.6069,90.7931 -20.9524,0.1521 -43.5245,3.8964 -61.7927,-9.2115 l 0.3027,9.718 c -27.9863,-0.8106 -55.9237,0.152 -83.8598,-0.3544 -23.1287,1.0114 -42.3595,-21.6611 -41.8545,-43.8788 -0.2023,-10.5773 6.2749,-19.3829 10.8298,-28.342 2.7846,2.2781 8.3522,6.7312 11.1856,8.9591 -13.0076,15.2828 -8.3508,40.9422 11.4883,47.3706 26.2159,2.4288 52.6844,0.2009 78.952,1.0616 -0.0517,-12.9042 -0.0517,-25.7597 0.1004,-38.6152 3.3412,0.2037 10.0709,0.6083 13.4609,0.8608 0.9626,9.8686 -0.8077,21.509 7.0855,29.1511 9.2632,12.7034 26.4699,7.4399 39.8303,8.7052 -0.4045,-25.1529 -0.2022,-50.2556 -0.2022,-75.4085 z m 22.9264,-0.2023 c 3.5936,-0.052 10.6777,-0.1521 14.2728,-0.2525 0.8077,21.2551 -3.0872,43.3724 2.2251,64.0708 7.3394,16.6515 27.685,10.4253 41.9564,11.54 -0.3041,-12.6532 -0.5064,-25.3064 -0.6585,-37.908 3.4417,-0.05 10.3249,-0.1004 13.7651,-0.1004 -1.7187,17.561 7.2878,36.4389 26.2159,38.9194 -0.1004,-12.8053 -0.4031,-25.6594 -0.657,-38.4646 3.4416,-0.1507 10.375,-0.5567 13.8668,-0.7589 -1.8721,18.0171 8.2505,35.4777 26.216,39.9824 0.2023,-13.2099 0,-26.4183 -0.1521,-39.5779 3.5937,-0.05 10.7811,-0.1521 14.3733,-0.1521 0,17.9168 0.0517,35.8838 0.1521,53.8995 -14.1194,0 -28.2402,-2.0744 -39.981,-10.5256 -0.1018,2.631 -0.2539,7.9448 -0.3041,10.5773 -13.7665,-0.1019 -27.2274,-2.8348 -39.2235,-9.8687 -0.1507,2.2768 -0.5552,6.8316 -0.7575,9.1098 -22.0671,-1.4676 -51.8251,7.0338 -65.2874,-16.3473 -11.5385,-22.7241 -4.1503,-49.699 -6.0224,-74.1432 z m 589.8043,-0.1521 c 3.6955,0.05 11.0838,0.1004 14.7779,0.1004 -0.1005,30.164 -0.3544,60.2763 0,90.4403 -43.5231,-1.063 -86.9973,0.3544 -130.5217,0.05 -10.1212,0.9627 -18.3199,-5.4142 -26.5703,-10.0709 0.152,2.6311 0.5566,7.8444 0.7589,10.4769 -13.3088,0.3529 -26.7712,-1.1147 -37.9066,-9.0093 -4.9594,17.8651 -27.7854,6.0727 -39.4243,0.7589 -1.2653,1.822 -3.8476,5.3654 -5.1617,7.1357 -15.2341,1.9741 -30.6704,0.3544 -45.9045,-0.4045 -2.225,-2.4288 -6.7311,-7.2878 -8.9562,-9.7166 -1.2653,2.7831 -3.8476,8.2992 -5.1115,11.0321 -15.234,-0.5566 -30.8224,1.3672 -45.7524,-2.0744 -16.5481,-5.6179 -21.7113,-23.3812 -30.0104,-36.6929 -5.1115,0.4562 -10.1226,1.6713 -14.9816,3.5937 -0.1004,4.3526 -0.1506,8.7052 -0.2525,13.108 1.7215,1.6196 5.2134,4.9092 6.9837,6.5791 3.6955,0.152 11.0321,0.5566 14.7276,0.7087 -0.3544,3.948 -1.1133,11.8426 -1.5192,15.7404 -10.8801,-1.5694 -24.4945,-1.9238 -30.0622,-13.3619 -13.359,-17.3085 4.3038,-47.1683 26.0639,-40.8417 14.0706,3.8978 17.3601,19.7387 24.8,30.316 9.2116,11.8929 25.9118,6.5791 38.8175,7.7928 -0.3041,-12.2472 -0.911,-24.4442 -0.5064,-36.6412 3.39,-0.6585 10.2732,-1.8722 13.6646,-2.4804 0.2525,13.26 1.6197,28.1397 13.1596,36.8449 11.134,3.2379 22.8748,1.9224 34.3114,2.3786 -0.1506,-13.2601 -0.2022,-26.4699 0,-39.6281 18.0689,-3.4402 12.6532,15.2843 17.6629,25.8616 4.0499,8.5029 13.3102,12.3491 22.0168,14.171 -0.2524,-12.8038 -0.5566,-25.6076 -0.9626,-38.3613 3.5421,-0.1018 10.6792,-0.3041 14.2213,-0.406 -1.8722,18.2195 7.5919,35.1234 25.6593,40.2349 0.2539,-13.6144 0.2023,-27.2273 0.4547,-40.7915 3.2896,0.2539 9.9203,0.8106 13.2099,1.0631 0.152,13.7664 2.1763,32.4909 18.0172,36.7932 24.546,1.6197 49.3446,1.7718 73.8892,-0.6068 -5.4142,-6.7312 -10.0709,-14.171 -16.9025,-19.535 -11.7924,-3.7458 -24.4958,-1.822 -36.591,-2.1763 -0.5064,-4.9609 -1.0114,-9.9203 -1.4676,-14.8797 15.9428,0.4046 33.9585,-3.3398 47.8756,6.6809 10.6792,7.8947 14.9816,21.6597 25.2046,30.0622 10.7294,2.0242 21.8131,1.3155 32.6946,1.6698 -0.3041,-25.3049 0.1004,-50.6099 -0.406,-75.9149 z m 25.457,-0.2023 c 3.4919,0.1521 10.5272,0.4548 14.019,0.6069 0.05,30.0119 0.05,60.074 0.2023,90.1361 -3.5435,-0.05 -10.6792,-0.152 -14.2213,-0.2023 0.2023,-30.1639 0.1521,-60.3767 0,-90.5407 z m 397.3365,41.803 c 17.2081,-14.0692 33.2498,-29.3535 49.293,-44.6377 2.0759,3.2895 6.1745,9.8184 8.249,13.1079 -9.1585,7.8445 -18.3199,15.7405 -27.4799,23.4831 13.9186,9.9202 26.0639,23.3826 25.8114,41.6522 11.6906,0.2525 23.3812,0.3544 35.122,0.505 -0.1004,-12.7536 -0.2525,-25.4556 -0.3544,-38.159 3.3914,-0.1521 10.071,-0.4046 13.4122,-0.5566 0.6584,17.713 1.1634,35.4777 1.4676,53.241 -47.0163,0.3041 -94.0842,0.8105 -141.0991,-0.1506 -32.7448,-4.5047 -47.1697,-49.699 -22.9278,-72.6771 16.6514,10.0207 -3.542,25.1027 2.7329,38.7673 4.202,9.0093 12.0966,18.9282 22.9279,19.03 25.4054,1.0114 50.8122,0.4046 76.2176,-0.1018 -2.2265,-17.0546 -18.1693,-32.795 -35.8823,-24.0397 -1.8722,-2.3785 -5.6179,-7.0855 -7.4901,-9.464 z m 78.3437,-40.6395 c 6.2248,0.2539 12.5012,0.5064 18.8263,0.8106 -0.1506,3.3899 -0.4045,10.0709 -0.5064,13.4623 -6.4256,-0.1019 -12.7536,-0.1521 -19.0802,-0.2023 0.1535,-3.5435 0.5566,-10.5773 0.7603,-14.0706 z m 35.0732,-1.2653 c 3.5923,0.4045 10.7796,1.3155 14.4235,1.7717 0.3042,19.7889 -1.9238,39.8304 1.1635,59.4672 4.9092,19.5852 28.0881,13.9171 43.018,14.676 -0.1004,-12.7536 -0.2539,-25.457 -0.3041,-38.2107 3.5937,0 10.8312,0 14.4249,0 0.05,17.7145 0.05,35.4276 0.3544,53.1406 -19.5867,-1.2151 -41.6021,4.6051 -59.0627,-6.8316 -22.1158,-21.9652 -10.9317,-56.3297 -14.0189,-84.0132 z m -1282.1972,9.5143 c 14.2729,0 28.5945,0 42.8674,-0.1004 0.3027,3.4918 0.911,10.4252 1.1649,13.8668 -14.7778,0.5064 -29.6073,0.5567 -44.4368,0.4562 0.1535,-4.7571 0.2539,-9.464 0.4045,-14.2226 z m 412.6222,-0.505 c 6.2749,0.2023 12.6001,0.4548 18.9281,0.7589 -0.0502,4.6567 -0.1018,9.3622 -0.1018,14.0692 -6.6293,0 -13.2084,0 -19.7889,0 0.3041,-4.9595 0.6068,-9.9189 0.9626,-14.8281 z m 512.2195,-0.1521 c 6.3768,0.4562 12.9057,0.5567 19.2825,1.7201 0.4046,3.291 1.2639,9.9203 1.7201,13.2601 -7.1357,-0.05 -14.2714,-0.1521 -21.4086,-0.2023 0.1019,-3.6941 0.3042,-11.0838 0.406,-14.7779 z m 117.1612,0.5064 c 14.5254,0.1507 28.9991,0.2023 43.5747,0.2023 -0.05,4.707 -0.05,9.3622 -0.05,14.1194 -14.6272,0.1018 -29.253,0.1018 -43.8286,0.052 0.1019,-4.8088 0.2023,-9.6161 0.3041,-14.3733 z m -715.7223,28.3406 c 3.5434,0 10.6289,0.1019 14.1724,0.1521 -0.911,20.7501 1.3658,41.6523 -1.2653,62.3507 -3.1375,18.7761 -20.2437,32.0878 -38.8175,33.3015 0.0488,-3.39 0.2023,-10.1728 0.251,-13.5627 9.7697,-3.796 21.4086,-7.744 23.9393,-19.3342 3.948,-20.6482 0.8091,-42.0052 1.7201,-62.9074 z m 537.0711,0.254 c 3.39,-0.052 10.1714,-0.1019 13.5628,-0.1521 -0.3042,13.765 3.1877,27.1771 13.108,37.0458 6.0726,-19.1305 21.7615,-39.5262 44.1312,-37.0975 25.5575,2.3284 40.2851,29.101 38.2609,52.8881 -24.6465,-0.052 -49.3446,1.0114 -73.9911,-0.152 -8.1988,-0.1521 -14.6272,-5.9206 -21.5607,-9.4641 6.1244,24.394 -12.5513,52.6342 -38.7658,51.5711 -30.9229,1.5193 -50.2556,-38.9695 -33.8079,-63.7179 5.8202,-13.1065 19.6369,-18.624 32.4407,-22.3683 0.4562,3.7959 1.317,11.3864 1.7717,15.1824 -7.1357,2.7329 -15.7907,4.0484 -19.941,11.3362 -12.8038,14.2729 -4.3009,40.6911 14.4752,44.5373 11.9431,3.542 23.7857,-5.6179 29.4036,-15.5382 2.885,-21.2049 0.8106,-42.7641 0.911,-64.0708 z m 39.6769,36.7416 c 18.7259,1.7717 37.5522,1.6713 56.278,0.2539 -6.8315,-8.7554 -13.0075,-20.9022 -25.3049,-22.0656 -15.0304,-2.9352 -22.8762,12.1453 -30.9731,21.8117 z m 86.9986,-36.5394 c 3.39,-0.152 10.071,-0.406 13.4107,-0.5566 1.317,9.9189 0.05,21.357 7.1874,29.4539 6.3768,10.6792 20.1418,8.1987 30.6187,9.8686 -0.8091,-11.1842 -3.5936,-24.9492 6.6293,-32.9457 11.134,-11.9445 32.2887,-6.9851 38.3126,7.7942 4.6553,12.3979 2.479,26.0625 3.3397,39.07 -28.3922,-3.2393 -61.3393,8.7554 -85.7835,-10.223 5.1617,25.3552 -12.2975,51.1666 -38.6153,52.8365 -0.2022,-3.2896 -0.6082,-9.8686 -0.8105,-13.108 10.629,-4.5046 23.2807,-10.0207 25.0525,-23.0268 2.4804,-19.6369 0.5064,-39.476 0.657,-59.1631 z m 66.5011,15.0806 c -0.6068,5.1129 -3.7457,10.4267 -1.8234,15.5884 2.3298,9.4139 14.1725,5.7198 21.1561,8.0467 -0.6585,-8.5531 -2.2279,-16.9025 -5.3654,-24.899 -3.4918,0.3027 -10.4755,0.9612 -13.9687,1.2639 z m 263.9786,52.736 c 6.6307,0 13.3619,0.05 20.0414,0.1004 -0.505,3.5937 -1.568,10.7309 -2.0744,14.2729 -6.1244,-0.2023 -12.2473,-0.4045 -18.3716,-0.6083 0.1019,-4.605 0.2539,-9.2101 0.4046,-13.765 z"
       style="fill:#5d5d5e;fill-rule:evenodd"
       id="path4" />
  </g>
</svg>
