<?xml version="1.0" encoding="UTF-8" standalone="no"?>
<svg
   version="1.1"
   width="1251.5459"
   height="1700.7869"
   id="svg4"
   viewBox="0 0 1251.5459 1700.7869"
   sodipodi:docname="6fc0030c1aade737652a3f396b88bf4b.cdr"
   xmlns:inkscape="http://www.inkscape.org/namespaces/inkscape"
   xmlns:sodipodi="http://sodipodi.sourceforge.net/DTD/sodipodi-0.dtd"
   xmlns="http://www.w3.org/2000/svg"
   xmlns:svg="http://www.w3.org/2000/svg">
  <defs
     id="defs8" />
  <sodipodi:namedview
     id="namedview6"
     pagecolor="#ffffff"
     bordercolor="#666666"
     borderopacity="1.0"
     inkscape:pageshadow="2"
     inkscape:pageopacity="0.0"
     inkscape:pagecheckerboard="0" />
  <path
     d="m 0.03014499,0.10582373 c 136.00469501,-0.0397 271.98939501,-0.019 407.97459501,-0.019 -0.0782,192.82189627 0.1581,385.64539627 -0.1184,578.46839627 6.7407,-25.7588 16.8897,-50.768 31.8487,-72.8604 24.1226,-35.6526 58.3355,-64.7209 98.1456,-81.3743 66.7705,-28.9119 147.8096,-21.6785 208.116,19.1171 47.4178,31.118 82.4189,81.0195 94.3221,136.5561 0.6313,-109.8325 0.099,-219.7041 0.2766,-329.5568 -0.3352,-15.1361 0.6502,-30.3303 -0.4537,-45.4267 -9.006,-34.3716 -25.108,-67.5589 -49.7428,-93.4948 -28.9114,-30.922496 -70.2197,-47.969196 -111.823,-52.541196 -29.4633,-3.6859 -59.2227,-1.439 -88.6267,1.7145 70.2001,-34.4308 147.494,-53.2903003 225.3208,-58.9070003 33.3068,-2.8977 66.7711,-1.28089997 100.1561,-1.71499997 86.06586,-1.35980003 171.77526,33.79950027 232.86986,94.30310027 54.2166,52.382496 89.4736,123.982596 97.5545,198.991096 2.4441,18.4271 1.5961,37.0509 1.714,55.5769 0.021,298.8902 0,597.7821 0.02,896.67338 -135.6691,0.039 -271.31956,0 -406.98916,0.02 0,-111.6851 0,-223.3896 0,-335.07468 -0.2565,-77.8665 0.5122,-155.7525 -0.3944,-233.5989 -15.8646,75.1068 -74.5951,138.8623 -147.5734,162.0983 -60.2863,19.7271 -129.0283,12.1596 -183.0873,-21.2455 -50.9055,-30.6655 -88.3507,-82.419 -101.555,-140.3601 0.0592,111.2124 0,222.4243 0.0195,333.65618 0.2766,10.0898 -0.6111,20.2595 0.3743,30.3303 8.1005,29.4633 21.0483,58.0009 40.2246,81.9458 22.1321,28.1035 54.0981,47.7329 88.4887,56.9958 36.3023,9.834 74.6336,10.0709 111.7442,5.2028 1.2218,0.8469 2.4436,1.7145 3.6659,2.6212 -28.399,12.4551 -57.1735,24.4577 -87.2083,32.4392 -45.801,13.0071 -93.0216,21.0282 -140.5371,23.7678 -29.4834,2.2273 -59.0651,0.8279 -88.6071,1.2218 -75.6196,1.596 -151.3973,-24.2997 -210.363,-71.599 -49.309295,-39.3967 -87.819395,-92.6272 -107.743695,-152.6778 -8.4155,-24.30018 -13.7562,-49.62438 -16.1405,-75.22518 -2.64130001,-35.4352 -1.71510001,-70.9884 -1.85310001,-106.5018 -0.0195,-279.8347 0,-559.6871 -0.0195,-839.52069627 z M 655.34034,1185.3048 c 0.3939,0.5123 0.3939,0.5123 0,0 z m 509.37216,189.2756 c 31.1191,-24.2215 58.9271,-52.2462 86.8334,-80.0146 -4.1581,20.6143 -19.6685,35.9275 -33.2672,50.906 -17.9343,17.6579 -37.248,33.8973 -57.1338,49.2893 -21.4416,16.8897 -42.9038,33.7995 -64.6415,50.2948 -5.0642,31.9861 -14.2294,63.7751 -12.2982,96.4903 0.7302,4.434 1.5765,9.6764 5.7748,12.2585 3.9027,2.9167 10.3658,5.144 13.9529,0.5519 2.8977,-5.3413 4.1982,-11.4507 7.9624,-16.3182 2.0101,10.6222 -2.3457,20.9103 -5.3021,30.9213 -3.2112,8.3759 -7.548,18.7031 -17.3819,20.6344 -7.725,0.4732 -14.2294,-5.7742 -16.259,-12.83 -5.5569,-17.264 -1.3799,-35.395 0.039,-52.9551 -9.1837,11.6278 -16.6925,24.8913 -28.4973,34.1934 -24.2796,20.9494 -56.26676,30.3504 -87.52336,34.4498 -17.6584,1.6552 -35.5727,2.4832 -53.1529,-0.1973 -7.2127,-1.4781 -15.3523,-3.7641 -19.274,-10.5635 -4.2765,-7.4893 -3.7843,-16.4165 -3.4882,-24.7136 0.6111,-7.7452 0.4335,-16.1411 5.4982,-22.5461 2.1682,6.0307 4.257,12.1205 6.3659,18.1903 8.2183,5.9323 18.4075,7.5284 28.3007,8.1786 36.1838,1.3207 73.5894,-1.7536 106.91576,-16.9288 21.1271,-8.8289 40.6575,-25.2856 46.8658,-48.0876 3.4491,-13.5199 6.582,-27.3348 13.7361,-39.5145 7.6865,-11.6669 10.5831,-26.251 21.2059,-35.9671 17.383,-16.259 36.2821,-30.7638 54.7685,-45.7222 z m -402.33846,80.7435 c 0.8872,-2.3257 2.6609,-4.0402 4.5525,-5.5379 -3.291,25.817 -7.9424,51.4769 -9.9725,77.4324 -0.5905,9.263 0.2369,19.2551 5.6172,27.1382 4.5525,5.1239 12.3373,6.6809 18.8601,5.1636 11.6088,-1.6955 13.54,-16.2791 24.0639,-19.9645 3.7446,1.3005 7.5284,2.5229 11.3322,3.7642 9.0658,-10.3468 13.7753,-23.9254 23.9841,-33.3459 3.4887,-3.3503 8.2579,-4.6508 12.6529,-6.3653 4.139,1.6944 9.9724,1.9112 11.6082,6.9569 2.2268,13.9132 -4.7698,27.3739 -13.3233,37.8587 -8.4736,11.1942 -21.9935,19.8852 -36.4989,18.6439 -6.3849,0.1379 -12.1797,-2.8184 -17.8355,-5.3408 -6.6022,7.1932 -10.8792,16.3378 -18.3875,22.7427 -8.3954,7.3117 -23.4131,6.8782 -29.7593,-2.8971 -6.7005,-9.9328 -6.8586,-22.6444 -5.8139,-34.1537 1.4391,-20.2796 4.4742,-40.3816 7.6071,-60.4444 1.7151,-11.1747 6.7011,-21.4422 11.3127,-31.651 z m 78.8324,66.4751 c -7.2133,5.5379 -11.4506,13.9137 -15.6288,21.7969 11.5686,-0.552 21.8164,-6.8782 29.0689,-15.668 -0.078,-1.4977 -0.276,-4.5128 -0.3548,-6.0105 -4.2569,-0.4145 -9.2429,-3.0547 -13.0858,-0.1184 z m 304.98056,-61.2919 c 1.7151,-3.9022 3.2514,-8.1988 6.996,-10.6228 -3.3888,24.6745 -7.5284,49.2898 -9.7552,74.1023 -0.4335,8.553 -1.3994,17.6188 2.0888,25.7187 2.3268,5.1435 8.4351,7.4892 13.7954,7.292 6.1697,-2.6804 6.701,-10.2875 8.8887,-15.7858 0.9072,-0.5324 2.7195,-1.6363 3.6262,-2.1681 0.1581,11.3317 -3.4486,22.2505 -7.1938,32.794 -3.172,7.4691 -7.6066,16.3182 -16.4953,17.7768 -7.0546,0.2955 -13.2439,-5.0061 -15.5299,-11.3915 -4.2167,-11.7462 -3.7642,-24.4773 -2.5223,-36.6765 1.6167,-18.4272 4.4737,-36.7157 7.2133,-54.9853 1.3201,-9.1842 5.3211,-17.5992 8.8881,-26.0538 z m -32.6163,-1.0447 c 7.1536,5.1832 16.4166,10.9183 16.6724,20.8511 -1.3787,9.3222 -6.4245,17.8361 -13.7758,23.7282 -6.3853,-4.6709 -12.8691,-9.3217 -17.9936,-15.4116 4.7307,-9.8736 9.0658,-19.9835 15.0965,-29.1677 z m -878.16796,6.0306 c 1.3793,10.2284 -1.8726,20.3785 -2.3257,30.6069 -2.8575,20.2198 -3.1535,41.4262 -12.5149,60.0695 -4.572,8.7306 -7.5479,19.4718 -16.4165,24.931 -1.4581,-3.5279 0.3548,-7.0949 1.0642,-10.5245 5.7156,-18.9394 9.5977,-38.4302 11.1943,-58.1578 0.7486,-10.5837 6.0111,-19.9841 9.8932,-29.6214 2.4245,-6.0703 5.3999,-11.9233 9.1054,-17.3037 z m 127.4708,0.8475 c 0.4732,0.8475 1.4587,2.5424 1.9508,3.3899 -3.5273,21.2645 -4.7099,42.8452 -8.4937,64.0902 -1.9905,11.1942 -6.8977,21.5606 -12.1004,31.6118 -3.2524,6.0502 -5.6569,13.4602 -12.4953,16.397 1.4983,-14.4065 7.1144,-28.0052 9.3216,-42.3134 3.5285,-14.5048 1.9715,-30.0543 8.12,-43.8893 4.1977,-9.9328 7.8044,-20.2008 13.697,-29.2862 z m 230.7018,29.227 c 4.4737,-10.0708 7.5876,-20.9696 14.5244,-29.7393 1.2223,7.3508 -0.7291,14.6825 -1.419,21.9941 -1.6944,14.8993 -3.3106,29.8181 -5.6955,44.6385 -2.5027,15.0372 -9.9914,28.5175 -17.0081,41.8201 -1.5759,3.4491 -4.8083,5.4793 -7.863,7.4697 1.5374,-14.3674 7.1144,-27.9459 9.3216,-42.2346 3.5279,-14.5244 1.971,-30.094 8.1396,-43.9485 z m -119.0162,5.8334 c 4.0201,-10.5831 9.2423,-20.6539 15.1948,-30.2711 7.43,5.0648 14.5243,11.1546 17.0863,20.1612 -3.0351,8.5725 -5.5966,20.5159 -15.2344,23.6494 -6.1876,-3.8234 -11.5484,-8.8289 -17.0473,-13.5395 z m -31.5722,1.7933 c 4.119,-10.4647 8.9669,-20.6735 15.2339,-30.0543 7.2133,5.1044 15.8255,11.0361 16.3377,20.7918 -0.9849,9.1245 -6.4837,16.949 -12.3568,23.6891 -7.1535,-3.7642 -13.2635,-9.0261 -19.2153,-14.4261 z m 262.136,-22.0924 c 6.3457,6.8976 14.445,12.692 18.1506,21.6198 4.3357,10.4054 3.6653,22.1717 1.005,32.9319 -5.9122,24.3198 -24.1818,45.6239 -48.1267,53.5858 3.567,-11.0953 14.3272,-17.0276 21.0673,-25.9353 5.3809,-7.0363 11.135,-15.0177 11.2931,-24.2014 -1.9508,-10.8596 -10.9384,-18.2494 -18.8802,-24.9896 4.5525,-11.2736 9.282,-22.5265 15.4903,-33.0112 z m -403.1468,27.808 c 8.6915,-4.4145 13.2635,-13.4999 20.3388,-19.7869 -0.6112,11.2333 -4.7698,22.1522 -10.6032,31.6906 -5.0452,8.6317 -16.0227,9.8339 -23.1176,16.0618 -13.7953,12.1797 -12.14,34.6073 -27.9063,45.1709 -9.3613,5.3999 -20.5751,7.3116 -31.2571,7.3311 -0.9067,-0.5715 -2.6999,-1.734 -3.6061,-2.3055 11.0759,-12.4753 27.67,-18.2104 39.3961,-29.956 8.1195,-9.4602 10.5239,-22.1718 16.8501,-32.6957 4.7496,-7.2328 12.416,-11.6473 19.9053,-15.5103 z m -108.5516,-3.114 c 0.4732,0.8279 1.419,2.5229 1.8721,3.3704 -3.9413,21.8561 -2.9363,44.4412 -9.0457,65.9426 -6.4837,28.7544 -21.2058,56.8182 -45.9591,73.8264 -14.2685,10.6222 -33.2079,14.3668 -50.511595,10.6227 -14.8004,-3.3111 -25.2656,-17.2841 -27.256,-31.8683 -3.1341,-23.8069 5.6557,-47.0624 15.983,-68.0515 4.4541,-8.2379 7.9423,-17.4216 15.3718,-23.5114 0.3749,10.1099 -5.8133,18.5059 -9.4987,27.4923 -6.0508,13.1848 -12.3177,27.946 -8.2776,42.6877 2.1089,9.0854 8.9669,17.0277 18.2104,19.2545 19.570095,4.8876 41.701595,0.867 57.527095,-11.9624 8.968,-7.0949 16.3182,-16.2987 21.2656,-26.5862 7.0748,-17.2842 1.4581,-36.637 6.9569,-54.2563 2.6603,-9.7752 8.2971,-18.3282 13.3618,-26.9605 z m 354.8816,31.0795 c 8.0803,-4.119 12.6523,-12.2384 18.1707,-19.0377 1.7542,10.7601 -3.6659,21.0086 -8.8289,30.0548 -9.7949,16.1009 -27.4142,24.9695 -44.8162,30.508 -22.7426,7.0161 -46.5507,9.8144 -70.2392,11.0954 -14.9383,0.315 -30.1928,0.138 -44.639,-4.0402 -9.9323,-2.8575 -19.8852,-11.273 -18.8796,-22.546 0.867,-12.6725 2.5815,-25.6002 7.4691,-37.4057 4.7301,6.7994 2.2268,17.678 10.4647,21.9746 10.2484,5.7742 22.3293,6.7597 33.8191,7.8043 16.969,1.6944 34.0352,0.3939 50.9842,-0.7491 22.9013,-2.1084 46.1563,-6.5234 66.4951,-17.6584 z m 107.5465,14.5249 c 7.548,-7.5876 9.8736,-18.9394 18.3283,-25.7583 -1.3201,32.8336 -28.7544,61.3114 -60.8383,66.4354 1.8329,-3.9022 4.119,-7.6072 7.6664,-10.1691 12.0216,-9.677 24.0041,-19.4914 34.8431,-30.508 z m -542.0286,14.7417 c 4.4536,-10.3864 9.3613,-20.5751 15.6087,-29.9957 8.7507,4.9072 18.1316,11.2138 19.5897,22.0338 -2.2464,8.7502 -7.4496,16.6137 -14.5836,22.1712 -7.7457,-3.1927 -14.0328,-9.1446 -20.6148,-14.2093 z m 1010.99956,111.3694 c 4.4547,-10.1295 9.1446,-20.1411 15.0367,-29.5024 7.0764,4.9463 15.4316,10.5434 16.8506,19.7668 -1.2218,9.6965 -6.0502,19.0383 -14.2093,24.6549 -6.0697,-4.7496 -12.14,-9.5389 -17.6785,-14.9193 z M 303.29674,1654.453 c 6.2474,4.4938 13.6574,8.9278 15.8054,16.8902 1.8726,10.7211 -4.986,20.6735 -12.6328,27.4527 -6.4837,-4.3357 -12.6328,-9.144 -18.3087,-14.4651 4.3357,-10.3077 8.8686,-20.5752 15.1361,-29.8778 z m -46.0775,31.9665 c 2.72,-10.8786 8.8294,-20.7522 14.6037,-30.2911 6.0306,4.8284 13.5987,9.2037 15.7467,17.1852 1.8921,10.7412 -5.1245,20.5952 -12.6524,27.4733 -6.0507,-4.5725 -12.554,-8.711 -17.698,-14.3674 z"
     style="fill:#29166f;fill-rule:evenodd"
     id="path2" />
</svg>
