<?xml version="1.0" encoding="UTF-8" standalone="no"?>
<svg
   version="1.1"
   width="1674.3636"
   height="1700.7871"
   id="svg11"
   viewBox="0 0 1674.3637 1700.7871"
   sodipodi:docname="5db225925af5506d72b4dd7851a0734f.cdr"
   xmlns:inkscape="http://www.inkscape.org/namespaces/inkscape"
   xmlns:sodipodi="http://sodipodi.sourceforge.net/DTD/sodipodi-0.dtd"
   xmlns="http://www.w3.org/2000/svg"
   xmlns:svg="http://www.w3.org/2000/svg">
  <defs
     id="defs15" />
  <sodipodi:namedview
     id="namedview13"
     pagecolor="#ffffff"
     bordercolor="#666666"
     borderopacity="1.0"
     inkscape:pageshadow="2"
     inkscape:pageopacity="0.0"
     inkscape:pagecheckerboard="0" />
  <g
     id="Layer1000"
     transform="translate(-296.67647,-283.46475)">
    <path
       d="m 1706.6208,1320.446 c 3.5656,-4.42 9.1934,-0.7074 13.7012,-0.2363 -0.3241,4.1252 -0.6189,8.2805 -0.9722,12.4349 -1.7975,0.6181 -5.4224,1.8267 -7.219,2.4456 -1.9151,-0.6782 -5.7464,-2.0037 -7.6607,-2.6519 0.7367,-3.8897 -1.0908,-9.0756 2.1507,-11.9923 z m -63.4092,-0.7366 c 2.6519,0 7.9556,0.029 10.6075,0.029 0.059,5.2152 0.089,10.4605 0.059,15.7049 -3.5648,-0.943 -6.8356,-2.3863 -9.87,-4.2722 -0.4126,-3.8304 -0.6782,-7.6608 -0.796,-11.4619 z"
       style="fill:#ffffff;fill-rule:evenodd"
       id="path2" />
    <path
       d="m 1121.3249,299.4494 c 45.4058,-14.3802 93.6989,-19.0642 141.0499,-14.0261 45.5235,6.7771 91.813,17.4138 131.4138,41.8703 26.8436,16.3229 49.237,41.8702 56.3089,73.0736 9.4874,45.8476 -7.2189,92.4319 -31.7931,130.7665 -12.9353,18.0611 -35.9184,24.1608 -56.6622,27.7556 -56.6605,5.8926 -112.9694,-7.6607 -166.684,-24.4556 -36.0061,-10.8438 -70.3926,-28.1983 -108.2846,-31.7931 -45.435,-6.3352 -92.933,3.2115 -131.9442,27.4616 -52.5954,32.1164 -90.6645,82.9152 -120.3653,135.9224 -33.6783,61.5525 -57.3989,128.0562 -76.0505,195.5605 -15.2029,55.1287 -26.6948,111.2898 -34.6797,167.9219 -6.4822,-25.3994 -5.216,-51.7995 -7.1596,-77.6992 -4.6856,-144.7333 35.6528,-290.9691 115.3849,-412.0119 24.7805,-35.5642 50.0613,-71.0398 80.3218,-102.1556 57.7229,-61.1992 128.174,-112.8516 209.1439,-138.1909 z m 383.1354,159.4643 c 7.9857,53.8625 7.3951,108.698 4.243,162.9722 -8.3089,91.99 -34.3565,182.3597 -76.433,264.656 -16.0281,31.1742 -34.2971,61.2877 -55.6883,89.0734 -49.4725,71.2461 -112.7347,133.8602 -187.9582,177.6155 -57.2218,33.5313 -123.0465,52.6255 -189.4617,52.8903 -35.3286,-1.3556 -70.4209,-7.2482 -104.2771,-17.443 -41.5453,-12.4642 -84.5648,-33.5613 -106.9582,-72.5734 -14.2608,-23.5719 -14.9983,-52.212 -11.5805,-78.7891 5.8341,-29.3184 17.7679,-57.4574 34.7691,-82.0608 12.0515,-14.939 31.7931,-20.449 49.7965,-24.3378 67.5637,-8.2797 134.4199,10.9315 197.7405,32.5289 36.3602,14.3201 74.6356,26.4301 114.2072,24.692 59.3717,0.1178 114.5304,-31.145 154.4562,-73.4863 54.0103,-57.3687 88.4244,-129.8527 115.2379,-203.1619 29.5539,-81.7075 48.2347,-166.8903 61.9066,-252.5752 z m -291.2038,973.1754 c 21.0086,-0.2063 42.0172,-0.3241 63.055,-0.1178 12.8476,-0.2656 25.0453,7.7794 30.7023,19.182 3.4186,7.8077 4.5086,16.4123 4.5671,24.869 -0.058,80.5866 -0.029,161.174 -0.029,241.7614 -0.2647,19.2989 -1.4432,39.4831 -11.4026,56.5728 -20.596,36.4187 -61.2584,56.131 -100.6831,64.941 -90.3688,1.4149 -180.7384,-1.267 -271.1081,-0.6189 -32.3828,-1.7089 -64.8232,-0.8837 -97.2353,-1.0607 -21.0971,0 -42.9301,1.267 -63.0842,-6.0989 -7.8387,-2.5934 -12.8768,-9.3112 -17.4146,-15.7642 -8.7215,14.8212 -21.9508,28.0513 -39.1883,32.0588 -13.7897,4.3014 -28.3461,4.0366 -42.4599,1.6788 -24.4556,46.0839 -60.6972,86.8934 -107.0175,111.7616 -39.3061,20.7138 -85.7726,28.3161 -129.4394,19.182 -34.0031,-5.982 -66.1788,-22.9539 -89.6045,-48.441 -22.2757,-23.5427 -37.1261,-53.5677 -44.0494,-85.1253 -3.1822,-20.2126 -2.4756,-40.8387 -0.5303,-61.1098 1.9736,-13.5842 4.5369,-28.0805 14.1722,-38.5117 34.3264,-41.1035 71.394,-79.8207 109.6986,-117.1823 21.0387,-23.6613 65.737,-18.2983 79.88,10.3719 6.9249,14.6141 9.9593,31.4975 6.9533,47.5273 -0.7659,6.6 -6.5107,10.6659 -10.9315,14.9682 -29.8187,27.1367 -59.1955,54.7461 -87.9534,83.0321 -5.4206,5.8049 -12.5218,11.492 -12.7874,20.1542 -2.9166,24.6627 9.1642,51.6825 30.5854,64.3814 33.2356,1.0315 66.5614,-0.029 99.8562,0.4719 20.8625,2.7696 35.4765,-18.0035 39.8373,-35.8883 0.5304,-83.7404 -0.0293,-167.5101 0.2948,-251.2496 15.0275,0.8836 30.055,2.6218 45.1702,2.4163 10.3711,0.3825 21.1264,-0.088 31.0556,3.4178 12.2287,5.1559 20.1258,18.0326 20.7739,31.0856 0.8837,28.4339 -0.7074,56.9262 0.6774,85.3307 1.2671,18.092 19.0634,28.3453 35.388,30.3791 2.0037,-31.7346 1.2954,-63.4977 1.561,-95.2315 1.2671,-19.6238 0.6189,-39.3069 0.943,-58.9307 20.9794,-0.089 41.988,-0.6774 62.9381,0.2063 17.1783,0.6482 33.2072,14.792 33.9138,32.3235 0.8845,30.4083 -0.1478,60.8459 0.3826,91.2834 0.0601,16.7949 17.5616,28.2568 33.1779,27.4616 80.5289,-0.177 161.0571,0.147 241.5559,-0.1478 -0.2063,-19.8301 0.6482,-39.6894 -0.2948,-59.4611 -2.7404,-11.2555 -9.9301,-20.9493 -17.4438,-29.553 -11.9915,-13.3771 -32.8238,-20.0656 -49.3832,-11.2556 -30.7031,14.5264 -51.9472,42.1943 -74.4,66.5321 -30.5553,7.8379 -63.7917,9.2227 -94.494,0.7659 -8.4267,-4.0066 -5.039,-14.9381 -3.3301,-21.9215 9.5476,-31.7931 29.6717,-59.2839 52.3891,-83.0037 28.4046,-29.8487 64.3221,-54.0095 105.1024,-62.5548 37.9513,-5.2151 78.8785,-1.7088 111.8201,19.3298 33.0017,19.8293 57.8991,52.8009 68.9192,89.5737 1.267,26.2831 -0.029,52.6547 0.5011,78.9963 -1.0315,9.0163 8.4267,14.8504 16.1167,16.5593 12.9954,-1.5326 23.5727,-15.3215 22.2756,-28.2567 -0.1177,-92.3734 -0.147,-184.7468 0,-277.0909 z m 145.6754,1.6796 c 24.7805,-1.7682 51.7994,-6.1289 74.8711,5.6278 9.606,4.243 15.4985,14.5556 15.1152,24.9275 0.089,44.198 -0.1178,88.4253 0.059,132.6525 2.0037,35.2994 0.5003,70.7158 1.12,106.0745 -0.7074,18.5923 17.0012,33.178 35.0338,31.6746 0.2656,-50.5032 -0.4126,-101.0064 0.3533,-151.5095 17.5023,0.3533 35.2694,-1.1193 52.5362,2.7103 12.906,2.7404 27.1083,5.9527 36.2424,16.3246 5.3622,5.5685 5.0974,13.9066 5.3922,21.1264 0.03,23.5126 -0.089,47.0261 0,70.5395 5.1568,-0.4719 10.3419,-0.8252 15.5279,-1.2085 28.5231,-43.1373 63.4676,-82.4141 104.8367,-113.6176 39.8673,-29.3183 88.6023,-51.1513 139.0762,-46.5842 42.0172,4.3023 77.8763,32.2934 100.1219,67.0332 18.4461,29.1998 31.4398,62.9966 31.8223,97.8534 -3.8003,35.3286 -19.2404,69.067 -40.6616,97.1768 -17.7671,22.6582 -43.7846,41.6338 -73.751,41.0742 -122.8101,0.4419 -245.6211,0 -368.4328,0.2355 -33.8545,1.09 -67.1511,-12.5226 -92.9322,-34.0323 -24.5441,-21.4505 -38.4232,-54.3929 -36.9198,-86.9519 0.4711,-93.6989 -0.7074,-187.427 0.5889,-281.1268 z m 423.0611,218.3073 c -31.5576,24.9275 -61.4948,52.065 -89.3682,81 41.8694,1.0014 83.7989,0.2063 125.7276,0.4418 24.4564,-0.4126 44.3751,-24.073 42.2828,-48.2046 1.267,-37.8335 -52.3298,-58.3711 -78.6422,-33.2372 z M 469.851,1477.8481 c 30.3783,-6.4822 62.9958,20.0072 60.9929,51.3585 1.9436,28.4923 -25.1338,53.7146 -53.1559,52.1536 -26.0175,-0.089 -50.0613,-22.6883 -50.3269,-49.0015 -2.6218,-25.6934 17.3845,-50.2375 42.4899,-54.5097 z m 225.3784,422.2067 c 13.6418,-18.4452 40.1905,-25.2515 61.2576,-16.5008 10.255,3.8011 17.6501,12.2286 25.0453,19.9186 7.1604,-7.4252 14.2616,-15.4986 24.0438,-19.506 20.9501,-9.2519 48.0284,-2.8281 61.8473,15.6464 12.4057,15.1444 13.9375,37.3324 6.0404,54.8932 -9.1926,18.8286 -30.2312,31.5283 -51.2691,29.5246 -16.4415,-1.2086 -30.526,-11.3742 -40.6624,-23.8083 -7.0126,7.8086 -14.6141,15.6163 -24.5734,19.5653 -20.5083,9.8407 -46.9676,2.6218 -60.7866,-15.0868 -15.1152,-17.8264 -15.263,-46.3186 -0.9429,-64.6462 z"
       style="fill:#ad2f21;fill-rule:evenodd"
       id="path4" />
    <path
       d="m 1088.5596,611.367 c 23.0123,-2.7997 46.9968,-2.5341 69.0963,5.1567 45.7006,15.1737 81.6774,56.5728 89.9863,104.0408 6.0997,30.7616 0.6481,63.4685 -14.2909,90.9593 -20.9785,39.4831 -62.908,67.2688 -107.6356,70.3333 -24.1031,2.0914 -49.0306,-1.3264 -70.8644,-12.0516 -37.5087,-17.5908 -66.3843,-52.978 -75.1359,-93.5811 -9.4289,-38.4525 0.2656,-80.3511 23.6313,-111.9972 20.4489,-27.4023 51.4753,-46.9668 85.2129,-52.8602 z"
       style="fill:#a6aaad;fill-rule:evenodd"
       id="path6" />
    <path
       d="m 690.1319,1270.2661 c 6.3645,0.088 12.729,0.1771 19.0935,0.2656 0.3833,20.2719 -1.1493,40.6032 0.6481,60.8158 7.1011,6.4822 18.3868,3.0352 27.2252,3.0945 0.5605,-8.3982 0.8252,-16.7957 0.9731,-25.1931 6.1289,0 12.2278,-0.029 18.3567,-0.1178 0.7668,8.0734 1.6496,16.1468 2.6519,24.1909 12.4049,1.7974 25.5163,3.8304 37.6564,-0.4711 2.2694,-7.72 2.3871,-15.8527 3.006,-23.8083 6.0989,0.059 12.1978,0.089 18.3267,0.089 0.1771,8.3382 0.4126,16.6771 1.0015,24.9869 5.0982,0.088 10.2249,0.1762 15.3515,0.2647 0.3249,-10.7544 -1.5318,-24.7212 9.3404,-31.145 13.7605,-7.0126 31.9995,-4.0951 42.5777,7.396 -2.8874,4.9204 -5.7464,9.8708 -8.6046,14.792 -7.3066,-3.4478 -15.0266,-6.4238 -23.2771,-5.9226 0.147,4.5369 -0.7659,9.4581 1.6504,13.6427 10.519,2.5624 21.4505,2.0621 32.2049,2.7696 0.1771,6.1281 0.472,12.257 0.8253,18.386 -26.4301,-0.1771 -52.9195,0.9129 -79.2912,-0.9138 -10.6066,-0.2648 -21.1556,1.2963 -31.763,1.0908 -12.9946,0.3826 -25.9582,-2.063 -38.9528,-0.7366 -11.8452,0.6481 -23.9845,1.7974 -35.5934,-1.0316 -9.0456,-2.3578 -13.7312,-11.963 -13.4656,-20.7438 -0.3533,-20.5659 -0.0301,-41.1628 0.0584,-61.6995 z m 479.1036,0.1478 c 6.3645,0 12.7582,0 19.1519,0 0.7375,19.5353 0.5605,39.0714 0.4419,58.6066 0.1186,9.6344 -4.5671,21.0086 -14.3786,24.2794 -8.0441,1.5911 -16.3238,1.2078 -24.4857,1.7966 -2.9458,8.3682 -4.9504,18.1805 -12.8767,23.4249 -10.99,7.7786 -25.2516,6.0997 -37.9806,6.0112 -10.518,0.089 -21.3026,-4.6556 -26.6948,-13.996 -8.9871,-14.7327 -6.453,-32.7361 -6.3946,-49.1476 6.4539,-0.088 12.906,-0.088 19.359,0 1.5319,13.1708 -3.5063,28.6401 4.6849,40.1605 8.8108,5.2444 19.8601,4.4794 29.6424,3.1822 3.6833,-0.029 11.3149,-5.9218 5.9518,-8.8685 -7.1011,-2.1223 -14.6441,-1.5618 -21.9515,-2.063 -0.4419,-6.1874 -0.8846,-12.3456 -1.2972,-18.533 21.8347,-1.2678 44.2573,2.6218 65.7078,-2.3286 1.8275,-20.7731 -0.3241,-41.7224 1.1192,-62.5247 z m 35.3287,0 c 6.3937,0 12.7874,0 19.1811,-0.029 1.445,20.8315 -0.7951,41.7524 1.1501,62.4954 4.0075,1.0307 8.1319,1.5026 12.227,2.1215 1.4742,-11.9922 2.4464,-26.8134 14.4679,-33.3249 10.1364,-3.0645 24.1315,-4.0074 30.9971,5.8341 11.7275,13.347 7.8972,37.9212 -8.81,45.3172 -10.7544,5.2453 -21.833,-4.3607 -32.706,-0.5596 -8.486,2.4155 -17.8565,3.0344 -26.0184,-0.8837 -9.1332,-3.0653 -10.7836,-14.0553 -10.9607,-22.3642 -0.029,-19.536 -0.2648,-39.1005 0.4719,-58.6066 z m 52.5946,51.3869 c -0.5888,3.7719 -0.5304,7.6323 -0.6181,11.492 4.4785,0.3833 8.9871,0.7066 13.4949,1.0315 0.4126,-4.4201 2.8874,-9.5768 -0.5012,-13.4364 -2.5332,-4.6556 -10.077,-3.3 -12.3756,0.9129 z m -350.1044,-46.9083 c 5.9819,-0.089 11.963,-0.1178 17.9742,-0.058 0.2355,26.3708 -0.0301,52.7717 0.147,79.1725 -6.0697,0.059 -12.1694,0.059 -18.239,0 -0.3834,-26.3716 -0.5897,-52.7716 0.1178,-79.114 z m -130.9729,10.3426 c 4.5972,-3.7719 10.4304,-0.324 15.4694,0.3834 7.8378,3.0052 16.4123,-5.8341 23.6011,-0.03 5.6287,2.829 3.8605,10.0771 2.5934,14.9682 -6.2166,6.9834 -15.0567,2.6227 -22.1278,-0.1762 -5.8934,1.7081 -12.1401,5.8633 -18.3868,3.2115 -6.8648,-3.5063 -8.3381,-14.3493 -1.1493,-18.3568 z m 555.5366,34.0316 c 5.6871,-11.2255 10.1356,-23.7189 20.2126,-31.9401 14.2023,13.6719 26.4009,29.2891 40.868,42.6954 7.1019,7.0711 17.5908,4.6263 26.4601,3.6241 0.8845,-8.1912 1.5911,-16.3823 2.18,-24.6035 6.159,0.147 12.3172,0.2063 18.4753,0.2656 0.4711,10.2826 -2.859,22.9238 7.3359,29.6124 2.8297,-9.6946 3.2415,-19.8301 3.5071,-29.8488 6.1874,0.1178 12.3748,0.1771 18.5631,0.2072 1.0315,9.5759 -3.5364,23.1885 7.6022,28.2275 5.5393,-8.369 3.123,-18.8579 3.6826,-28.2576 6.159,0 12.3163,-0.029 18.5037,-0.089 0.5605,8.2212 1.2971,16.4415 2.1516,24.6335 8.8693,1.5026 17.8857,1.5026 26.7834,-0.059 0.2071,-8.0441 0.3834,-16.0582 0.6782,-24.0731 6.3937,-0.088 12.8166,-0.088 19.2705,0 0.9714,10.1063 -2.7112,23.4843 8.486,29.082 2.6226,-9.6645 3.2699,-19.653 3.4169,-29.5831 6.1882,0.059 12.3756,0.089 18.563,0.089 1.592,9.1634 -4.2129,24.7805 7.6616,27.8742 6.9834,-7.4553 3.3293,-18.563 3.9774,-27.7857 6.159,-0.058 12.3172,-0.147 18.5046,-0.2355 -1.0307,14.3201 5.2444,33.1187 -8.2212,43.2843 -6.9533,6.6292 -16.5,3.2114 -24.3972,0.7659 -6.7177,-2.5934 -13.1123,2.7404 -19.8008,3.006 -7.0711,-1.3264 -13.7304,-6.9834 -21.1256,-4.2138 -16.4415,5.3915 -33.7091,-0.4719 -50.3269,3.0937 -7.1003,2.0915 -13.8482,-1.6203 -20.6845,-2.9467 -8.4275,1.0015 -16.6479,6.5416 -25.1338,2.5049 -11.7267,-5.1567 -24.0439,1.3848 -36.2132,0 -8.6322,0.7358 -16.029,-3.9782 -23.2771,-7.8679 -9.5167,5.1275 -20.4783,13.0831 -31.586,7.7794 -13.6728,-4.9505 -22.5413,-21.5098 -16.1175,-35.2402 z m 21.5983,-2.3863 c -3.8605,6.2467 -6.7779,13.2894 -3.4186,20.4783 4.5971,-0.2949 9.1925,-0.6189 13.8189,-0.9722 2.2986,-8.8401 -3.2115,-15.3516 -10.4012,-19.5061 z m -784.9816,-9.3696 c 8.8392,-11.2564 24.6627,-6.8364 36.949,-7.6908 0.3249,6.0111 0.5604,12.0223 0.7074,18.0326 -7.1596,0.2656 -14.3501,0.5605 -21.5097,0.766 -0.796,2.063 -2.3871,6.2174 -3.1823,8.2804 8.8685,3.7419 22.776,2.0622 26.8427,12.6989 3.0353,12.6997 1.0015,27.845 -9.5467,36.6258 -10.9616,10.6952 -27.5794,8.3974 -41.5453,8.2204 -16.0891,0.058 -29.0535,-14.2909 -31.322,-29.4946 -1.3548,-11.3149 -0.5897,-22.7175 -0.4419,-34.0616 6.3353,0.089 12.6705,0.147 19.0049,0.177 0.2648,11.1963 -1.4441,22.776 1.4433,33.7075 4.8619,12.6705 21.0094,11.4327 32.0287,10.2249 6.8071,-0.6489 17.1197,-10.2249 9.8423,-16.0882 -8.1627,-2.5633 -16.855,-2.5926 -25.3108,-3.2708 -0.3542,-12.8175 -2.829,-27.4315 6.0404,-38.1275 z m 417.4626,-6.2768 c 9.2518,-1.9736 19.6822,-2.7395 28.5507,0.9138 12.4349,12.2871 10.3427,31.5576 10.4605,47.5865 0.7667,14.7619 -9.6645,29.2883 -23.8367,33.4135 -9.8416,2.357 -20.0373,1.3556 -30.0258,0.8252 -0.294,-6.159 -0.6189,-12.2871 -0.8837,-18.416 11.4619,-0.4419 26.0175,2.2392 33.4135,-8.9278 -10.1356,-4.5379 -26.2539,-5.4508 -28.3161,-19.0342 -1.7089,-12.3464 -2.6226,-29.9664 10.6367,-36.3601 z m 8.3381,19.3883 c 0.2656,4.0667 0.5304,8.1619 0.8252,12.2578 3.1822,0.5597 6.3937,1.1193 9.6052,1.6797 -0.1178,-4.6857 -0.2356,-9.3696 -0.3826,-14.0553 -3.3593,0.029 -6.7177,0.059 -10.0478,0.1186 z m 634.0902,-13.9367 c 4.0074,-6.5123 12.3756,-6.8356 19.1811,-6.9533 6.2768,0.058 13.5834,0 18.2983,4.9496 8.1034,7.72 7.2782,19.8894 9.3404,30.055 3.8312,-0.3834 7.6899,-0.7668 11.5504,-1.1493 1.1493,-11.8453 2.2693,-27.4909 15.0567,-32.6476 9.2227,-1.7682 20.9201,-2.8581 27.992,4.6556 12.9653,12.5811 10.5774,37.9212 -6.0112,46.2894 -9.0748,5.8049 -19.2404,-0.1177 -28.6994,-1.1192 -6.7762,1.1192 -13.2877,3.4178 -19.8885,5.1559 -3.7711,8.5745 -7.8379,17.7387 -16.0582,22.9539 -11.1078,7.7192 -25.3994,5.3329 -38.0992,5.5977 -0.9129,-6.3052 -1.7673,-12.6103 -2.6217,-18.9163 12.3464,0.029 26.5478,1.5326 35.4464,-8.9278 -8.2204,-3.006 -17.1782,-4.5972 -24.5149,-9.5175 -8.9571,-11.4327 -8.339,-28.3453 -0.9722,-40.4261 z m 78.4951,13.7604 c -3.2407,2.9167 -1.414,8.1026 -2.1507,11.9923 1.9143,0.6482 5.7447,1.9745 7.6607,2.6519 1.7975,-0.6189 5.4215,-1.8267 7.219,-2.4456 0.3541,-4.1553 0.6481,-8.3089 0.9722,-12.4349 -4.5078,-0.4711 -10.1356,-4.1837 -13.7012,0.2363 z m -63.4092,-0.7366 c 0.1186,3.8003 0.3826,7.6315 0.796,11.4619 3.0352,1.8851 6.3052,3.3292 9.87,4.2722 0.03,-5.2453 0,-10.4897 -0.059,-15.7049 -2.6519,0 -7.9556,-0.029 -10.6075,-0.029 z m -987.878,-10.4605 c 6.306,0 12.6404,-0.029 19.0049,-0.089 -1.5026,22.0986 6.6009,49.2069 -11.6682,66.3851 -10.8137,11.6974 -27.992,9.1049 -42.282,8.4275 -0.4418,-6.306 -0.9438,-12.6112 -1.4441,-18.9172 11.5212,-1.9152 28.9642,2.7705 35.0639,-10.1948 2.9167,-14.9682 0.7066,-30.4376 1.3255,-45.6121 z m 77.0519,53.4791 c 8.0433,0.1771 20.6545,-3.5648 22.4519,7.7794 3.0352,12.6103 -15.0567,18.4152 -22.9539,10.1948 -3.2106,-5.7163 -0.5587,-12.11 0.502,-17.9742 z"
       style="fill:#f69636;fill-rule:evenodd"
       id="path8" />
  </g>
</svg>
