<?xml version="1.0" encoding="UTF-8" standalone="no"?>
<svg
   version="1.1"
   width="1700.7874"
   height="1441.5183"
   id="svg11"
   viewBox="0 0 1700.7874 1441.5183"
   sodipodi:docname="25e1f29b09b1c59e4cd50e61802fe48a.cdr"
   xmlns:inkscape="http://www.inkscape.org/namespaces/inkscape"
   xmlns:sodipodi="http://sodipodi.sourceforge.net/DTD/sodipodi-0.dtd"
   xmlns="http://www.w3.org/2000/svg"
   xmlns:svg="http://www.w3.org/2000/svg">
  <defs
     id="defs15" />
  <sodipodi:namedview
     id="namedview13"
     pagecolor="#ffffff"
     bordercolor="#666666"
     borderopacity="1.0"
     inkscape:pageshadow="2"
     inkscape:pageopacity="0.0"
     inkscape:pagecheckerboard="0" />
  <g
     id="Layer1000"
     transform="translate(-283.4646,-413.09953)">
    <path
       d="m 1252.6115,418.6827 c 2.6498,-2.4771 6.3504,-7.8771 10.253,-4.5072 30.1282,35.9597 52.3776,78.9763 61.4504,125.1902 8.5686,-3.4855 16.0571,-9.1161 24.5396,-12.8028 55.2148,-27.8233 114.4036,-46.7323 174.1832,-61.9399 1.9297,-0.447 3.9026,-0.6478 5.9045,-0.907 -0.8923,27.9952 -4.3782,55.8622 -9.4328,83.3831 -6.2213,34.0585 -15.3231,67.7003 -28.7018,99.6708 -1.757,4.3488 -4.0178,8.5543 -4.7379,13.2493 66.808,1.4108 131.9442,20.8097 192.9762,46.9626 0.1588,0.2877 0.4609,0.8784 0.6193,1.1809 -41.9504,53.3133 -87.2857,104.5528 -140.4839,146.9645 -6.552,5.5008 -13.8253,10.1244 -20.1903,15.8558 40.871,34.4766 69.601,81.3526 89.1868,130.6628 -60.8598,25.7921 -124.0382,47.5529 -189.6215,57.3458 2.1318,18.4762 2.967,37.1406 1.4546,55.7181 -2.0012,19.211 -5.5588,38.2641 -10.9739,56.7987 -1.4398,4.3055 -2.0158,9.0152 -4.5362,12.8889 -35.5853,-3.1826 -71.1421,-7.8196 -105.8203,-16.5903 -10.8004,-2.7939 -21.6449,-5.5873 -32.0285,-9.7496 -2.2897,-0.9361 -4.7379,-1.2961 -7.1427,-1.6705 -10.3252,20.9538 -24.2085,40.0644 -40.6408,56.6546 -6.9843,6.9411 -13.7388,14.1997 -21.6881,20.061 -2.0444,1.123 -4.3635,-0.043 -6.0772,-1.181 -26.0513,-16.9793 -51.8013,-35.0236 -73.2449,-57.7058 -2.9665,-3.0678 -5.8037,-6.2356 -9.0581,-8.9719 -20.8386,14.4442 -44.9177,23.4018 -69.3854,29.4648 -2.8511,0.6478 -5.7462,0.9075 -8.6405,1.1377 -12.6733,-20.5508 -24.3526,-41.9075 -32.2734,-64.7766 -2.4049,-5.5302 -2.9666,-11.8667 -6.2646,-16.9793 -24.5106,2.5347 -49.3531,-0.936 -72.8848,-7.8775 -3.7295,-21.4722 -3.7585,-43.4195 -2.8082,-65.1224 0.7634,-5.4151 0.7634,-11.0167 2.3906,-16.2445 12.904,4.1186 26.3256,7.1142 39.9635,6.4516 11.4638,0.5042 22.7826,-1.3247 34.0876,-2.909 -4.9538,28.1112 -7.5028,57.5188 0.3029,85.3707 27.3191,-2.6644 50.5769,-18.9089 72.4092,-34.2173 8.2661,28.3128 20.0176,56.1071 38.293,79.4804 1.8146,2.3041 4.5362,5.5588 7.8053,3.6292 13.5375,-9.1014 23.4165,-22.5091 32.1146,-36.0895 7.8922,-11.4062 13.2783,-24.2228 19.3412,-36.6369 25.7639,26.0806 55.5602,48.993 89.6477,63.0343 2.3191,1.0079 4.853,1.2385 7.3444,1.5986 6.9994,-16.3743 11.3629,-33.9006 11.8234,-51.7579 0.6772,-18.6069 0.1588,-37.3281 -3.067,-55.7043 48.4893,11.7226 99.1238,19.2547 148.8369,11.4776 -4.4214,-28.7161 -19.082,-54.5518 -36.1617,-77.5793 -8.8993,-12.5154 -19.4849,-23.6754 -29.6522,-35.1392 27.1175,-6.9994 53.5872,-16.331 79.5095,-26.8868 30.5592,-12.4717 59.8228,-28.2843 86.479,-47.8125 -15.4374,-14.8479 -34.8366,-24.9425 -54.3212,-33.454 -29.8101,-11.7658 -60.7735,-21.1697 -92.5714,-25.634 0.058,-0.5617 0.1874,-1.6709 0.245,-2.2322 17.6565,-16.9654 35.0526,-34.2749 50.6059,-53.2271 19.5576,-23.1868 38.1057,-47.481 52.1613,-74.4687 3.7593,-7.2158 8.0649,-14.243 10.4407,-22.0772 -15.4088,-0.9512 -30.8038,0.4176 -46.1126,1.9729 -23.4737,2.549 -46.3285,8.7271 -69.0683,14.819 -21.8171,6.207 -43.1317,13.9547 -64.2153,22.2788 9.6349,-28.8896 16.2735,-58.743 20.4067,-88.9137 1.7713,-16.0579 3.1968,-32.302 1.4978,-48.4456 -0.6621,-7.2439 -0.9793,-14.6173 -3.4278,-21.5444 -23.2288,13.4652 -45.5367,28.7018 -65.4102,46.8041 -24.8703,21.2701 -47.9848,44.6006 -69.1263,69.5871 -4.9387,-15.3382 -8.6837,-31.1499 -15.7546,-45.7243 -9.6921,-22.0197 -21.386,-44.8741 -41.663,-58.8864 -14.0555,20.3916 -25.692,42.3684 -35.2542,65.1799 -9.6055,22.8541 -17.9872,46.3 -23.906,70.3787 -24.4821,-19.5139 -53.1692,-37.299 -85.4712,-37.6733 -4.0757,16.6906 -5.0983,33.9724 -4.5651,51.11 0.2877,21.1693 3.0669,42.1957 6.5809,63.0487 -26.5268,-1.0226 -54.5951,0.6911 -78.2419,13.94 -2.88,1.0369 -2.117,4.4933 -1.7137,6.8406 6.3512,24.4816 20.0753,46.2429 35.0236,66.3324 1.5415,2.5775 5.8327,5.2134 3.7589,8.5543 -22.509,12.8746 -45.5366,27.5642 -59.3762,50.1884 8.4535,9.4038 17.7423,18.2607 28.9754,24.2803 11.1033,7.057 23.2867,12.0541 35.3693,17.1087 -15.8701,21.8033 -29.753,46.2424 -33.9005,73.2306 -16.7487,-6.4953 -31.9134,-16.6046 -46.0984,-27.5066 -5.4579,-4.0329 -10.0088,-9.1589 -15.6109,-12.9897 5.8185,-26.2105 16.6193,-51.3261 30.6458,-74.2099 -4.7954,-7.4595 -10.873,-14.0123 -15.2508,-21.76 -10.3546,-16.2742 -18.693,-33.7997 -25.6487,-51.7726 3.8454,-5.9336 8.482,-11.305 13.3068,-16.4608 10.0954,-10.4988 20.1328,-21.2273 31.9848,-29.7959 4.7673,-3.4855 9.7501,-6.668 14.5165,-10.1387 -0.0715,-6.2646 -1.9007,-12.2843 -2.88,-18.4191 -5.3139,-29.408 -5.6744,-59.4342 -4.7379,-89.2158 3.5858,-1.1953 7.0419,-2.7073 10.4554,-4.3202 24.0787,-11.1184 50.3031,-17.7855 76.8593,-18.333 9.0152,-47.2797 27.031,-92.168 45.9975,-136.1783 24.1081,1.9011 47.6536,9.0585 69.6157,19.0388 10.6571,5.0542 20.421,11.6503 29.8539,18.664 12.1691,-16.3171 24.1219,-32.907 37.7166,-48.1145 16.4466,-19.9606 34.9661,-38.0629 53.1839,-56.3811 9.8366,-9.3896 19.4417,-19.0384 29.7248,-27.9532 z"
       style="fill:#7cd0f5;fill-rule:evenodd"
       id="path2" />
    <path
       d="m 1258.2422,587.0332 c 19.8736,-18.1019 42.1806,-33.3385 65.4098,-46.8037 2.4489,6.9271 2.7653,14.3005 3.4278,21.5444 1.699,16.1436 0.2735,32.3885 -1.4978,48.4456 -4.1324,30.1707 -10.7722,60.0245 -20.4067,88.9137 21.0836,-8.3245 42.3974,-16.0718 64.2153,-22.2788 22.7402,-6.0924 45.5946,-12.27 69.0683,-14.819 15.3092,-1.5557 30.7038,-2.9237 46.1126,-1.9729 -2.3758,7.8342 -6.6822,14.8618 -10.4407,22.0772 -14.0548,26.9873 -32.6045,51.2827 -52.1613,74.4687 -15.5533,18.9514 -32.9498,36.2621 -50.6059,53.2271 -0.058,0.5613 -0.1874,1.6705 -0.245,2.2322 31.7987,4.4639 62.7609,13.8682 92.5714,25.634 19.485,8.5111 38.8834,18.6065 54.3212,33.454 -26.6558,19.5282 -55.9198,35.3408 -86.479,47.8125 -25.9219,10.5554 -52.392,19.8878 -79.5095,26.8868 10.1677,11.4638 20.7521,22.6246 29.6522,35.1392 17.0805,23.0275 31.7403,48.8636 36.1617,77.5793 -49.7131,7.7767 -100.348,0.245 -148.8369,-11.4776 3.2258,18.3758 3.7442,37.0978 3.067,55.7043 -0.4601,17.8573 -4.8244,35.3836 -11.8234,51.7579 -2.4906,-0.3601 -5.0261,-0.5903 -7.3444,-1.5986 -34.0875,-14.0413 -63.8842,-36.9537 -89.6477,-63.0343 -6.0629,12.4137 -11.449,25.2311 -19.3412,36.6369 -8.6981,13.58 -18.5771,26.9881 -32.1146,36.0895 -3.2687,1.9296 -5.9907,-1.3251 -7.8053,-3.6292 -18.2749,-23.3733 -30.0269,-51.1676 -38.293,-79.4804 -21.8323,15.3084 -45.0905,31.5533 -72.4092,34.2173 -7.8057,-27.8523 -5.2567,-57.2595 -0.3029,-85.3707 -11.305,1.5839 -22.6242,3.4132 -34.0876,2.909 -13.6375,0.6626 -27.06,-2.333 -39.9635,-6.4516 l 0.0437,-0.3171 c 4.1475,-26.9878 18.03,-51.4265 33.9001,-73.2302 -12.0826,-5.0554 -24.266,-10.0517 -35.3693,-17.1087 -11.2327,-6.0201 -20.5219,-14.8765 -28.9754,-24.2803 13.8396,-22.6251 36.8672,-37.3138 59.3762,-50.1884 2.0742,-3.3417 -2.2174,-5.9764 -3.7589,-8.5543 -14.9479,-20.0895 -28.6728,-41.8499 -35.0236,-66.3324 -0.4029,-2.3477 -1.1667,-5.8033 1.7137,-6.8406 23.6472,-13.2493 51.7147,-14.9626 78.2419,-13.94 -3.514,-20.853 -6.2932,-41.879 -6.5809,-63.0487 -0.5328,-17.138 0.4894,-34.419 4.5651,-51.11 32.302,0.3735 60.9891,18.1598 85.4712,37.6733 5.9192,-24.0787 14.3005,-47.5238 23.906,-70.3787 9.5626,-22.8119 21.1987,-44.7879 35.2542,-65.1799 20.2778,14.0115 31.9709,36.8671 41.663,58.8864 7.0717,14.5736 10.8155,30.387 15.7546,45.7243 21.1415,-24.987 44.2552,-48.3166 69.1263,-69.5871 z m -96.6035,105.1145 c -7.2582,10.6428 -14.5172,21.3003 -20.6087,32.6914 -6.4659,9.8505 -10.8727,20.8244 -16.5613,31.0924 -6.0483,-9.9231 -10.542,-20.781 -17.5843,-30.1131 -9.8504,-13.9698 -20.8672,-27.2759 -34.4765,-37.7599 -8.5397,31.9419 -13.062,65.1081 -11.6651,98.2021 -2.4044,-0.7491 -4.7521,-1.6705 -6.9267,-2.9233 -17.728,-9.8942 -37.5154,-15.8273 -57.6196,-18.2611 -2.2894,-0.3744 -4.6085,-0.3311 -6.8978,0.0432 2.7939,8.6405 4.4354,17.5986 7.4885,26.1529 5.2999,17.2957 13.177,33.67 22.2931,49.2666 -18.6926,0.9932 -37.0835,5.4147 -54.6241,11.8809 -4.7378,2.1171 -9.9799,3.4565 -13.9837,6.9129 11.1612,11.8802 22.7973,23.5893 36.7377,32.2297 5.7319,3.9892 12.0826,6.9558 17.8145,10.9306 -19.8303,12.8746 -37.0835,29.4506 -51.7436,47.9562 1.7859,0.9646 3.6001,1.9872 5.6163,2.4914 12.7309,3.2829 25.6487,6.394 38.8401,6.8116 7.0137,0.1294 14.0413,-0.0575 21.055,-0.1294 -4.0614,9.2887 -9.5051,17.9149 -13.0334,27.4486 -4.9252,13.2342 -10.6857,26.5848 -11.9528,40.7559 18.1166,-2.967 35.4412,-9.6925 51.4987,-18.506 4.0321,-2.4339 7.978,-5.0404 12.3272,-6.8978 -0.6332,18.6779 -0.5328,37.5726 3.4135,55.9341 1.4688,6.6675 2.1024,13.6379 4.9681,19.9168 5.6601,-4.637 11.0601,-9.6055 16.1008,-14.905 12.9611,-12.1982 22.8545,-27.2327 31.7688,-42.5268 3.6439,3.6287 5.1126,8.7127 7.6473,13.0762 10.6714,19.6001 23.906,37.8751 39.6178,53.7309 2.1031,2.2322 3.4854,-1.5406 4.0757,-3.096 8.3963,-24.2664 14.4446,-49.7996 13.5514,-75.6211 0.389,-0.389 1.1667,-1.1663 1.5553,-1.5553 26.715,18.0447 56.8706,30.5017 87.8336,39.1859 0.3743,-6.5386 -1.8007,-12.7885 -3.2405,-19.0531 -3.8304,-16.2159 -10.1244,-31.7256 -17.1087,-46.8184 -3.5564,-7.575 -8.4968,-14.4156 -11.9389,-22.0192 38.5241,2.4905 77.1764,-3.0821 114.5191,-12.3852 -0.4751,-1.412 -1.1524,-2.722 -2.333,-3.6291 -24.1648,-23.4022 -52.5213,-42.8292 -83.8729,-55.2001 0.9075,-2.6212 3.6434,-3.4993 5.8323,-4.7668 30.8332,-15.7117 59.2325,-35.9025 85.2266,-58.6561 4.8534,-3.9173 10.1819,-7.417 13.8972,-12.515 -28.0246,-4.3353 -56.5823,-5.9188 -84.8809,-3.5135 -11.8805,0.4025 -23.5174,3.1682 -35.355,3.9744 2.1893,-4.6227 5.3142,-8.6694 8.2375,-12.8313 7.2297,-10.9024 14.1564,-22.0486 19.6862,-33.9153 7.8922,-14.1421 14.6173,-28.9316 20.5223,-44.0102 2.2897,-7.1578 6.0768,-13.9115 6.9553,-21.4575 -16.3735,7.186 -32.7192,14.5593 -48.3015,23.3876 -21.155,12.1112 -42.0373,24.9862 -60.4564,41.0437 -0.6042,-5.7029 0.3458,-11.3772 0.965,-17.0226 1.6848,-26.9595 0.1437,-54.2207 -5.5881,-80.6467 -0.5319,-3.0536 -1.0655,-6.1638 -2.7645,-8.7993 -9.5476,10.9159 -17.541,23.0418 -26.5269,34.4182 z"
       style="fill:#02aae8;fill-rule:evenodd"
       id="path4" />
    <path
       d="m 1161.6387,692.1477 c 8.9863,-11.3764 16.9785,-23.5023 26.5269,-34.4182 1.6994,2.6351 2.2321,5.7462 2.7645,8.7993 5.7323,26.426 7.2729,53.6876 5.5881,80.6467 -0.6188,5.6449 -1.57,11.3197 -0.965,17.0226 18.4195,-16.0584 39.301,-28.9325 60.4564,-41.0437 15.5827,-8.8287 31.9276,-16.2016 48.3015,-23.3876 -0.8777,7.5456 -4.666,14.3001 -6.9553,21.4575 -5.905,15.0782 -12.6301,29.8685 -20.5223,44.0102 -5.5298,11.8663 -12.4565,23.0133 -19.6862,33.9153 -2.9229,4.1615 -6.0486,8.2086 -8.2375,12.8313 11.8381,-0.8066 23.4741,-3.5715 35.355,-3.9744 28.299,-2.4053 56.8559,-0.821 84.8809,3.5135 -3.7148,5.098 -9.0442,8.5977 -13.8972,12.515 -25.9941,22.7532 -54.3934,42.9444 -85.2266,58.6561 -2.1885,1.2675 -4.9252,2.1456 -5.8323,4.7668 31.3516,12.3705 59.7077,31.7979 83.8729,55.2001 1.1814,0.9071 1.8579,2.2175 2.333,3.6291 -37.3423,9.3027 -75.9954,14.8766 -114.5191,12.3852 3.4425,7.6031 8.3816,14.4442 11.9389,22.0192 6.9847,15.0924 13.2779,30.6029 17.1087,46.8184 1.4406,6.2646 3.6144,12.5149 3.2405,19.0531 -30.9622,-8.6842 -61.119,-21.1412 -87.8336,-39.1859 -0.3886,0.3886 -1.1663,1.1663 -1.5553,1.5553 0.8932,25.8215 -5.1555,51.3551 -13.5514,75.6211 -0.5903,1.555 -1.973,5.3282 -4.0757,3.096 -15.7109,-15.8558 -28.9464,-34.1308 -39.6178,-53.7309 -2.5342,-4.3639 -4.0034,-9.4471 -7.6473,-13.0762 -8.9139,15.2937 -18.8077,30.329 -31.7688,42.5268 -5.0403,5.2995 -10.4407,10.268 -16.1008,14.905 -2.8657,-6.2789 -3.4993,-13.2489 -4.9681,-19.9168 -3.9458,-18.3615 -4.0471,-37.2558 -3.4135,-55.9341 -4.3488,1.8574 -8.2951,4.4643 -12.3272,6.8978 -16.0575,8.8135 -33.3821,15.539 -51.4987,18.506 1.2671,-14.1711 7.0276,-27.5208 11.9528,-40.7559 3.5283,-9.5341 8.972,-18.1599 13.0334,-27.4486 -7.0133,0.0719 -14.0417,0.2592 -21.055,0.1294 -13.1914,-0.418 -26.1096,-3.5283 -38.8401,-6.8116 -2.0158,-0.5042 -3.8308,-1.5264 -5.6163,-2.4914 14.6605,-18.506 31.9129,-35.0816 51.7436,-47.9562 -5.7315,-3.9748 -12.0826,-6.9414 -17.8145,-10.9306 -13.94,-8.6404 -25.5765,-20.3487 -36.7377,-32.2297 4.0038,-3.4568 9.2459,-4.7958 13.9837,-6.9129 17.541,-6.4662 35.9315,-10.8873 54.6241,-11.8809 -9.1157,-15.5971 -16.9936,-31.9709 -22.2931,-49.2666 -3.0527,-8.5547 -4.6946,-17.512 -7.4885,-26.1529 2.2897,-0.3747 4.6084,-0.4176 6.8978,-0.0432 20.1046,2.4334 39.8916,8.3673 57.6196,18.2611 2.1746,1.2524 4.5219,2.1746 6.9267,2.9233 -1.3965,-33.0944 3.1254,-66.2602 11.6651,-98.2021 13.6097,10.484 24.6261,23.7909 34.4765,37.7599 7.0427,9.3321 11.5356,20.1908 17.5843,30.1131 5.6886,-10.268 10.0954,-21.2419 16.5613,-31.0924 6.0923,-11.3915 13.3497,-22.0482 20.6079,-32.6906 z m -37.2708,66.4908 c -10.3114,22.9846 -17.3394,47.5389 -19.5858,72.6835 -8.8422,-13.2779 -19.2833,-25.6055 -32.1293,-35.182 -3.6434,-2.5204 -6.8406,-5.9625 -11.2041,-7.2154 0.8789,18.5771 4.4786,37.1268 11.3625,54.4367 1.023,2.938 2.2901,5.8185 4.1618,8.3241 -0.8491,-0.1441 -2.5775,-0.4466 -3.4417,-0.5907 -16.6474,-7.2443 -35.0093,-10.6567 -53.1549,-9.8357 9.8937,15.6684 22.6532,29.9547 38.4947,39.7761 0.1584,0.5038 0.4748,1.4835 0.6479,1.973 -18.9086,2.3326 -36.9537,9.5912 -53.1116,19.5135 16.8204,7.4742 34.9517,12.6733 53.4859,12.486 -0.7054,0.8928 -1.4835,1.7284 -2.3183,2.4918 -14.7757,11.3184 -27.1755,25.5622 -37.0545,41.3025 19.2114,-1.2823 37.8175,-7.6902 54.6817,-16.8205 -9.3896,18.0443 -15.2223,38.1343 -16.5042,58.4402 16.7058,-11.2768 31.4668,-25.7496 42.0949,-42.9448 0.5332,20.7231 5.2277,41.231 13.3069,60.2837 0.4323,-0.2449 1.2961,-0.763 1.728,-1.0079 9.0152,-18.693 15.8412,-38.725 17.2671,-59.5493 11.2911,18.9804 27.2183,35.1824 45.3206,47.7402 -0.129,-22.1499 -5.1411,-44.3128 -14.5883,-64.359 21.8609,10.4689 45.8824,16.1436 70.0477,17.483 -12.8885,-19.7442 -30.156,-36.6655 -50.4333,-48.7338 26.4987,-2.2469 52.2335,-10.5992 76.1249,-22.034 0.058,-0.3024 0.173,-0.9217 0.2306,-1.2385 -23.5023,-9.0732 -48.7771,-13.9405 -73.9935,-13.0762 23.8774,-15.6979 43.4195,-36.968 60.9315,-59.3044 -22.0049,3.5858 -43.3187,11.1176 -63.2217,21.0688 -4.8525,2.2179 -9.1299,5.5588 -14.1992,7.273 12.817,-23.417 21.1264,-49.4397 24.3379,-75.9236 -21.155,17.4111 -39.9056,37.9183 -54.3359,61.263 -0.7344,-23.5468 -5.0689,-47.2218 -14.9483,-68.7233 z"
       style="fill:#006fb8;fill-rule:evenodd"
       id="path6" />
    <path
       d="m 591.8531,1325.2992 c 15.2505,-7.3591 30.2711,-15.1644 45.4787,-22.5957 0.1155,50.0442 0,100.0746 0.0437,150.1188 0.0285,7.4166 -0.4756,15.179 2.4914,22.1637 3.8017,10.3542 13.0329,18.4477 23.7762,20.9248 6.1352,1.4255 12.4712,0.6625 18.7072,0.8209 7.6183,-0.1008 15.6395,0.8785 22.7969,-2.3905 5.1706,-2.1318 8.8716,-6.4806 12.7456,-10.3256 18.5489,-19.874 36.5357,-40.2661 55.1421,-60.0821 7.82,-8.8858 18.5922,-15.1072 30.2572,-17.2385 13.7102,-2.2754 27.6503,3.4422 38.0334,12.1835 5.3719,4.8101 10.5706,9.8071 15.6114,14.963 6.4373,6.423 13.5367,12.2696 19.0669,19.5425 11.6364,15.1786 15.5823,35.8446 10.5563,54.2784 -4.1476,16.2587 -15.4097,30.4298 -29.9547,38.6817 -17.5406,9.908 -39.8627,10.7432 -58.0083,1.9439 -12.7594,-5.602 -21.4722,-16.878 -31.3083,-26.2676 -3.8447,-3.903 -7.7477,-7.7191 -11.6218,-11.5789 -3.2111,3.3124 -6.2932,6.7688 -9.3034,10.2685 -13.767,15.3946 -34.8077,23.517 -55.3438,22.1201 -18.5056,-0.8928 -37.904,2.7653 -55.5597,-4.4501 -25.4614,-9.3896 -43.8666,-35.2542 -43.8952,-62.4579 0.2446,-50.203 -0.3457,-100.4199 0.2878,-150.6229 z m 213.4409,134.0323 c -5.8759,2.146 -9.1883,7.9497 -13.5951,12.054 -1.3251,1.9297 -4.7811,3.5716 -3.6005,6.3222 8.6123,8.8711 17.5124,17.4687 26.1672,26.2966 7.2872,6.7687 20.2483,5.2277 25.476,-3.3124 4.1476,-5.9045 3.7875,-14.5164 -1.0369,-19.9311 -4.4786,-5.0983 -9.5912,-9.6055 -14.2572,-14.5308 -4.853,-4.9399 -12.0397,-9.2169 -19.1539,-6.8985 z m 105.6762,-133.658 c 15.4526,-7.388 30.4585,-15.726 46.1274,-22.6242 -0.0576,53.299 -0.058,106.5837 0,159.8684 -0.2307,17.3675 14.5883,33.3246 32.057,33.814 84.4057,-0.029 168.8256,0.1009 253.2313,-0.072 0.447,15.3953 0.3601,30.8332 0.058,46.2428 -88.7545,-0.2021 -177.5241,0 -266.2933,-0.1012 -25.7781,-0.8495 -50.0589,-17.9725 -59.7077,-41.8642 -3.7728,-8.7993 -5.429,-18.3905 -5.458,-27.9242 -0.0285,-49.1082 0.0143,-98.2163 -0.0147,-147.3392 z m 662.2419,-0.072 c 15.4236,-7.4023 30.5156,-15.5533 46.069,-22.6817 -0.2442,52.8524 -0.043,105.7195 -0.1009,158.5719 -0.8058,14.7038 9.2745,29.1337 23.2725,33.5981 6.1356,2.3187 12.7884,1.5696 19.2114,1.6418 39.1136,0.029 78.2272,-0.043 117.3412,0.043 0.1152,15.3517 0,30.7177 0.043,46.0694 -41.5466,-0.072 -83.0949,0 -124.6423,-0.029 -9.6921,-0.1156 -19.5425,0.7487 -29.0043,-1.8293 -15.4958,-3.4274 -28.7737,-13.1624 -38.7973,-25.1874 -12.3847,10.1525 -26.1814,18.9951 -41.8066,23.1426 -16.6903,5.3572 -34.3758,3.6002 -51.5996,3.8741 -68.42,0.014 -136.8404,-0.029 -205.2609,0.029 0.014,-15.366 -0.058,-30.732 0.029,-46.0837 77.0181,-0.058 154.0357,0 231.0533,-0.029 15.0353,-0.3167 29.9976,-7.3304 39.301,-19.2547 10.3979,-12.4137 13.998,-29.0329 14.7471,-44.8451 0.1151,-35.6722 -0.1584,-71.3584 0.1437,-107.0303 z m 228.288,-0.173 c 15.3374,-7.3734 30.5593,-15.0202 45.7093,-22.7679 0.7062,53.9035 0.014,107.8365 0.3458,161.7548 0.3751,16.7196 14.8479,31.6104 31.5965,32.2873 35.0237,0.072 70.062,0 105.0998,0.029 l 5e-4,46.0984 c -38.9124,-0.014 -77.8243,-0.029 -116.7224,0.014 -27.7074,-0.3744 -53.6158,-19.8161 -62.3428,-45.9975 -5.2126,-14.1132 -3.6581,-29.3355 -3.874,-44.0536 0.1302,-42.4549 -0.2593,-84.9094 0.1869,-127.3643 z m -1289.761,32.1435 c 15.2362,-7.7476 30.3862,-15.6537 45.7812,-23.085 -0.1437,36.5793 -0.0429,73.1729 -0.0723,109.7519 -0.734,25.8218 -11.9818,51.1244 -30.4727,69.1405 -15.8701,15.755 -37.0403,26.0088 -59.2183,28.7737 -7.6178,0.9936 -15.2941,0.6193 -22.9409,0.6626 -25.4614,0 -50.9228,0 -76.3841,0 -12.2557,-0.1731 -24.8278,1.152 -36.6659,-2.8229 -26.1235,-7.6183 -45.8677,-32.1003 -48.3015,-59.146 v -98.3747 c 15.3802,-7.2868 30.4298,-15.2651 45.7525,-22.6532 0,34.3325 -0.1294,68.6654 0.0576,102.9979 -0.187,17.3532 14.4879,33.3964 31.9999,33.9148 28.8027,0.029 57.6049,-0.014 86.4072,0.014 6.2936,-0.029 12.6586,0.3744 18.8371,-1.1087 19.1392,-3.9892 35.7441,-18.5199 41.9075,-37.1411 3.0817,-8.2518 3.4417,-17.1662 3.327,-25.8932 -0.0437,-25.0148 -0.0147,-50.0157 -0.0147,-75.0304 z m 913.8885,-5.5012 c 9.145,-4.2916 17.8859,-9.5622 27.3335,-13.1767 -0.043,8.8851 -0.1584,17.7709 0.072,26.6567 -9.1585,4.5362 -18.1598,9.3753 -27.4918,13.5081 8.3535,0.072 17.7569,0.1727 24.3093,6.1781 12.083,10.4269 9.7786,32.4604 -4.2484,40.1652 -12.7162,6.4806 -25.4903,12.9321 -38.4943,18.7791 0.058,-8.9287 -0.029,-17.8573 0.072,-26.7717 9.2165,-4.1909 17.9293,-9.4761 27.3768,-13.1628 -8.0641,-0.2307 -17.1234,-0.3025 -23.5603,-5.9046 -11.4629,-8.6841 -11.5646,-27.996 -0.8213,-37.2847 4.1341,-4.4934 10.3256,-5.9479 15.4525,-8.9863 z m -1008.7063,9.2312 c 1.3243,-1.7999 3.6573,-1.2382 5.5873,-1.3965 10.3546,10.2676 20.637,20.6222 30.9626,30.9336 2.4628,2.2178 1.4545,6.0776 -0.8642,7.993 -8.943,8.8564 -17.8716,17.728 -26.6999,26.6999 -1.4831,1.7566 -3.6001,2.6498 -5.6306,3.6291 -2.0309,-1.0083 -4.0325,-2.146 -5.5445,-3.8597 -8.8136,-8.972 -17.7713,-17.7856 -26.6424,-26.7 -2.5922,-2.1027 -2.7792,-6.2788 -0.1151,-8.3959 9.6345,-9.6488 19.24,-19.3266 28.9464,-28.9031 z m 1290.1214,-0.014 c 1.2525,-1.7856 3.5136,-1.2239 5.4,-1.4255 10.3114,10.0088 20.45,20.1904 30.5164,30.4298 2.6494,2.1457 2.1457,6.1638 -0.2449,8.2952 -9.519,9.663 -19.0384,19.3265 -28.817,28.7161 -0.8201,0.4319 -2.4624,1.2961 -3.2837,1.728 -4.4068,-1.1524 -6.9553,-5.0403 -10.0521,-8.0069 -7.4444,-7.417 -14.8476,-14.8912 -22.336,-22.2646 -2.333,-1.9153 -3.3556,-5.847 -0.7924,-8.0069 9.9664,-9.721 19.6723,-19.7156 29.6089,-29.4652 z m 194.8059,216.1054 c 1.944,-0.1588 4.3051,-0.7491 5.8895,0.8642 7.5035,6.9125 14.4589,14.4156 21.8036,21.5298 3.0246,3.2833 6.6243,6.0915 9.0581,9.8933 0.605,2.2179 -0.029,4.5366 -1.9007,5.9335 -9.7782,9.3896 -19.1396,19.1968 -28.8606,28.6443 -1.9864,2.0305 -5.1983,2.2032 -7.0994,-0.029 -9.5909,-9.5622 -19.1829,-19.1392 -28.7305,-28.7304 -2.3758,-1.8146 -2.8371,-5.5302 -0.5188,-7.5607 9.9231,-10.3689 20.3202,-20.2769 30.358,-30.545 z m -1461.9863,136.61 c 6.1201,-19.269 24.9572,-33.6123 45.2051,-34.2316 21.7171,-0.3025 43.4346,-0.029 65.1518,-0.1298 -8.1947,8.7413 -16.8642,17.0221 -25.2891,25.5336 -12.8313,0.072 -25.6483,-0.029 -38.4797,0.057 -9.4765,0.043 -18.2178,6.5524 -21.8326,15.1643 -4.4211,10.2248 -0.8067,23.2868 8.4678,29.5371 9.6925,7.1574 22.4229,3.8884 33.5842,4.5942 16.2441,-1.0806 33.2666,4.6946 43.7792,17.483 14.5458,16.4604 16.0865,42.757 3.4997,60.7732 -7.9779,12.1116 -21.5155,20.1185 -35.8731,21.8322 h -68.3053 c 0,-8.4392 -0.0433,-16.8637 0.0575,-25.274 20.8676,0.1727 41.7201,0.058 62.5735,0.086 12.3271,0.2882 23.6468,-10.0379 24.6114,-22.2932 1.6856,-12.9901 -8.8136,-25.8646 -21.8465,-26.9301 -10.9882,-0.5042 -22.0192,0.4176 -32.9931,-0.5185 -12.3705,-1.0948 -24.0934,-7.2872 -32.273,-16.5902 -11.8667,-12.9754 -15.5966,-32.4893 -10.0383,-49.0939 z m 1259.6193,96.0132 c 0.058,-43.3767 -0.1008,-86.7534 0.072,-130.1154 8.6123,0.1294 17.2385,0.1008 25.8504,0.014 -0.028,34.7501 0.014,69.5006 -0.015,104.2507 22.3225,-22.394 44.6728,-44.759 67.0814,-67.0664 11.8957,0 23.7905,-0.1731 35.6862,0.072 -22.1201,22.8691 -45.1913,44.8165 -67.1966,67.7721 23.3594,23.1141 46.5163,46.4441 69.7745,69.6733 h -36.0025 c -23.172,-22.9989 -46.1138,-46.2424 -69.343,-69.1838 0.029,23.0565 0,46.1273 0,69.1838 h -25.6047 c -0.7062,-14.8475 -0.1012,-29.7387 -0.3029,-44.6005 z m -440.5622,44.6005 c -0.2453,-57.2596 -0.2168,-114.5477 -0.015,-171.8069 20.9538,0.1584 41.9075,-0.029 62.8612,0.072 15.2374,0.2446 29.9404,8.2519 38.5666,20.7954 12.7603,17.4108 11.665,43.1746 -2.1746,59.6787 9.0446,6.3508 17.0511,14.8765 20.5076,25.5622 6.0486,16.2878 2.5632,35.7294 -8.9577,48.7624 -8.0065,9.4043 -19.5858,15.5391 -31.8701,16.936 z m 24.6837,-146.7632 c 0.086,16.1151 0.086,32.2302 -0.015,48.3452 12.7309,0.216 25.4899,0.1584 38.2355,0.072 13.2208,-0.6911 24.1506,-13.7245 22.4226,-26.8583 -1.1659,-11.7659 -11.9533,-21.602 -23.7767,-21.6163 -12.2985,-0.014 -24.5828,-0.058 -36.8671,0.058 z m 0,73.4465 c 0.1004,16.1437 0.028,32.2877 0.028,48.4314 16.5759,0.043 33.1515,0 49.7274,0.043 11.0457,-0.1726 20.9823,-8.9433 22.8834,-19.7584 3.0103,-13.8829 -8.6551,-28.5002 -22.8544,-28.6729 -16.6041,-0.1874 -33.1952,-0.1008 -49.7854,-0.043 z m -665.3383,-64.172 c 16.1151,-0.1151 32.2155,-0.043 48.3305,-0.058 9.7644,-0.1441 19.8593,2.8225 27.06,9.6631 8.1367,7.0566 12.6443,17.7855 12.486,28.5145 0.0432,33.1229 0,66.2458 0.0142,99.3687 h -86.292 c -11.4058,-1.3104 -22.207,-7.2725 -29.3212,-16.2877 -13.2922,-15.9277 -12.6443,-41.5764 1.6562,-56.6689 8.1224,-9.2312 20.2336,-14.7181 32.5469,-14.5308 18.7073,0.029 37.4146,-0.1012 56.1072,0.086 0.0432,-4.7954 0.2449,-9.8072 -1.9587,-14.1997 -2.8224,-6.3507 -9.6488,-10.4983 -16.547,-10.3689 -23.0418,0.029 -46.0693,0 -69.1115,0 7.9783,-8.8711 16.8352,-16.8637 25.0294,-25.5189 z m 0.6483,76.2836 c -7.4027,2.5633 -12.9901,10.124 -12.5439,18.0591 0.0433,9.5622 8.6695,18.275 18.3329,17.9582 18.6926,-0.043 37.4003,0.1008 56.1072,-0.086 0.0723,-12.3851 0.1727,-24.7702 -0.0286,-37.141 -15.784,0.3025 -31.5676,0.058 -47.3515,0.1441 -4.853,0.086 -9.8362,-0.4466 -14.5165,1.0658 z m 136.6535,-76.3122 c 36.5932,-0.072 73.1869,0.014 109.7801,-0.043 6.4234,0 13.0766,0.6912 18.8804,3.701 12.5292,5.847 21.357,19.0816 21.3999,32.9935 0.058,33.6267 0,67.239 0.0147,100.8661 h -25.2454 c 0.0147,-28.8169 -0.0286,-57.6339 0.029,-86.4505 -0.0143,-5.271 0.4894,-10.9163 -2.2612,-15.6688 -3.0674,-5.6454 -9.1593,-9.9942 -15.7407,-9.8362 -10.5269,-0.058 -21.0546,0.043 -31.5819,-0.029 -0.158,37.3281 -0.029,74.6561 -0.0718,111.9841 h -25.274 c 0.0143,-37.3137 -0.0437,-74.6128 0.0286,-111.9122 -16.5327,-0.1009 -33.0654,0.015 -49.5981,-0.072 -0.1151,37.3281 -0.0142,74.6561 -0.0575,111.9841 h -25.2454 c 0.0147,-37.544 0.0143,-75.1026 0,-112.6466 8.2955,-8.3094 16.5902,-16.6188 24.9429,-24.8707 z m 208.3283,0.029 c 16.5902,-0.087 33.1805,-0.1008 49.756,-0.014 9.0442,-0.072 18.2031,2.7506 25.1446,8.6695 9.174,7.3733 13.9404,19.24 13.6959,30.8907 0.1151,32.6473 0.014,65.2951 0.043,97.9428 h -85.9606 c -20.5941,-1.6561 -38.0196,-19.6143 -39.3014,-40.1937 -2.4334,-23.3158 16.8494,-46.0988 40.3378,-47.1928 19.7875,-0.245 39.5892,-0.058 59.3767,-0.087 -0.072,-4.8823 0.4319,-10.1096 -2.1028,-14.5021 -3.0674,-6.25 -9.9223,-10.3689 -16.8927,-9.9946 -22.7969,0.029 -45.5946,0 -68.3915,0 7.6473,-8.9287 16.2012,-17.0078 24.2951,-25.5189 z m -10.8873,90.1229 c -2.7796,10.6713 6.5524,22.1637 17.4687,22.1347 18.8367,0.015 37.6734,0.1874 56.5105,-0.1008 -0.087,-12.3272 -0.029,-24.6547 -0.015,-36.9823 -18.3901,0.087 -36.7663,0.014 -55.1279,0.043 -8.756,-0.216 -17.267,6.178 -18.8366,14.9051 z m 149.0096,-90.1948 c 17.5553,0.043 35.1101,0 52.6654,0 8.4678,-0.043 17.3103,-0.36 25.1879,3.312 12.846,5.7318 22.1923,19.1971 22.0335,33.4111 0.029,33.6124 -0.014,67.2251 0.014,100.8375 h -25.1723 c -0.072,-31.1785 0.028,-62.3718 -0.044,-93.5507 0.087,-9.4182 -8.0787,-18.3468 -17.6124,-18.3758 -18.9804,-0.087 -37.9763,0.014 -56.9571,-0.029 0.1298,37.3137 0.014,74.6418 0.058,111.9555 h -25.3459 c 0.2878,-37.3856 -0.4037,-74.8287 0.3311,-112.1857 7.7191,-8.9434 16.7054,-16.7919 24.8421,-25.3749 z m 334.2385,1.3537 c 1.5848,-1.9729 4.3056,-1.1234 6.4949,-1.3537 15.8415,0.1727 31.6827,-0.2739 47.5238,0.216 18.8228,0.8209 34.8371,17.8145 34.9379,36.5789 0.014,33.5838 0,67.1819 0,100.7657 h -86.177 c -14.5593,-1.512 -27.9817,-10.8441 -34.3904,-23.9926 -6.639,-13.3068 -6.1495,-30.1706 1.9729,-42.7427 7.6334,-12.9468 22.5814,-21.0403 37.5726,-20.781 18.5783,0.1151 37.1553,-0.1294 55.7189,0.1298 0.3315,-6.0058 -0.015,-12.5007 -3.8454,-17.4545 -3.5136,-4.1765 -8.7418,-7.3305 -14.3291,-7.1145 -23.2149,-0.043 -46.4298,0.087 -69.63,-0.086 8.0648,-8.0506 16.0718,-16.1584 24.1505,-24.1653 z m -10.7285,93.0894 c -0.2592,9.8219 8.9715,18.3763 18.6779,17.9154 18.5917,-0.029 37.1986,0.1151 55.7904,-0.087 -0.129,-12.3851 0.3025,-24.7698 -0.216,-37.1406 -18.9804,0.3886 -37.9759,-0.058 -56.9571,0.2445 -9.5761,0.4323 -18.0157,9.4043 -17.2956,19.0673 z m 148.981,-94.3855 c 20.4492,-0.072 40.8845,-0.058 61.3345,-0.029 9.361,-0.1294 18.8943,2.8662 25.9651,9.1304 8.3098,7.1574 13.2351,18.0304 13.1342,29.0186 0.1009,33.1229 0.029,66.2601 0.029,99.383 h -25.5189 c 0,-31.1932 0,-62.3718 0,-93.565 0.3605,-9.7349 -8.2523,-18.4191 -17.9153,-18.3758 -18.9082,-0.043 -37.8032,0.014 -56.7118,-0.015 0.1298,37.3137 0,74.6418 0.072,111.9555 h -24.914 c -0.547,-37.6015 -0.2596,-75.2321 -0.1441,-112.8483 8.3241,-8.1077 16.5466,-16.331 24.6698,-24.6547 z"
       style="fill:#024b8f;fill-rule:evenodd"
       id="path8" />
  </g>
</svg>
