<?xml version="1.0" encoding="UTF-8" standalone="no"?>
<svg
   version="1.1"
   width="1700.7837"
   height="713.98657"
   id="svg83"
   viewBox="0 0 1700.7837 713.98659"
   sodipodi:docname="4980acd928509770aba5873114e10081.cdr"
   xmlns:inkscape="http://www.inkscape.org/namespaces/inkscape"
   xmlns:sodipodi="http://sodipodi.sourceforge.net/DTD/sodipodi-0.dtd"
   xmlns="http://www.w3.org/2000/svg"
   xmlns:svg="http://www.w3.org/2000/svg">
  <defs
     id="defs87" />
  <sodipodi:namedview
     id="namedview85"
     pagecolor="#ffffff"
     bordercolor="#666666"
     borderopacity="1.0"
     inkscape:pageshadow="2"
     inkscape:pageopacity="0.0"
     inkscape:pagecheckerboard="0" />
  <g
     id="Layer1000"
     transform="translate(-283.4652,-776.865)">
    <path
       d="m 907.6627,1247.8582 c 0.4695,2.3856 0.2995,4.9978 -0.537,7.8557 -0.8312,2.8579 -2.2021,6.0665 -4.102,9.6314 -1.7379,3.4975 -4.1694,6.7035 -7.2566,9.6369 -2.0672,1.8998 -3.6891,2.8551 -4.8711,2.8551 -0.7124,0 -2.3532,-1.0281 -4.8791,-3.098 -2.5286,-2.0537 -4.8629,-3.9589 -6.9598,-5.713 -2.1049,-1.7325 -3.9157,-3.322 -5.4053,-4.7442 -1.4411,-1.4384 -2.159,-2.6231 -2.159,-3.5703 4.612,-10.2359 7.7478,-16.8935 9.4048,-19.9834 1.827,-3.0927 4.5688,-7.6534 8.2092,-13.6821 2.1293,1.7433 4.7982,3.8455 7.9718,6.3094 3.1709,2.4585 5.6024,4.7496 7.3025,6.9031 1.7218,2.1373 2.8039,4.6714 3.2816,7.5994 z m 58.161,-27.5909 c -2.14,25.4562 -7.1325,48.2112 -14.9693,68.2701 -5.2489,13.3232 -11.9442,25.8179 -20.1157,37.4814 -19.2655,26.0823 -42.4279,39.2517 -69.4656,39.4784 -14.0356,-0.6315 -25.1567,-5.2516 -33.3659,-13.8521 -8.212,-8.6087 -12.5352,-20.5906 -13.0291,-35.9837 -0.0728,-24.2607 7.907,-50.5805 23.9154,-78.9783 3.0899,-5.7049 4.9304,-7.5292 5.5376,-5.4755 0.5829,2.059 0.5235,4.164 -0.1889,6.3121 -10.5463,20.9279 -15.9301,39.0115 -16.1676,54.2345 0.5424,11.8956 4.7307,20.793 12.5406,26.7003 7.8098,5.9127 17.8218,8.9136 30.0412,8.9811 15.4605,0 30.33,-4.0803 44.6058,-12.2518 10.6218,-7.1271 19.1387,-16.0191 25.5669,-26.6464 9.7475,-14.8209 14.0815,-35.282 12.9642,-61.3751 -0.0755,-3.4111 -0.4102,-6.8059 -1.0174,-10.2251 -0.5721,-3.4003 -0.9661,-6.8222 -1.128,-10.2279 0,-3.7241 1.0228,-6.4335 3.0495,-8.0878 2.0078,-1.6758 4.4149,-2.2641 7.1891,-1.7865 4.9925,2.302 6.3391,10.1118 4.0372,23.4323 z"
       style="fill:#007b60;fill-rule:evenodd"
       id="path2" />
    <path
       d="m 961.5491,1223.1306 c -4.0372,-2.6987 -5.4702,-7.7101 -4.2801,-15.0557 1.1847,-7.3349 2.6906,-11.0402 4.5175,-11.113 2.6123,0.5478 5.9505,0.8689 9.9931,0.9472 4.0318,0.084 7.7235,-0.7151 11.059,-2.3802 3.1763,-1.827 5.821,-4.6336 7.9637,-8.4306 l 5.9586,-9.7636 c 1.7271,-2.6204 4.1262,-5.7913 7.1298,-9.5154 2.4638,-3.1709 4.6362,-5.3595 6.555,-6.5388 0.3994,-0.4804 1.1685,-1.6786 2.3775,-3.5757 1.1793,-1.9053 2.8443,-4.5229 4.9817,-7.853 1.6758,-2.6123 2.6581,-3.9185 2.9793,-3.9185 3.2518,2.9388 5.5834,5.1059 7.0272,6.5361 4.5931,5.4783 6.8869,10.5571 6.8869,15.2284 0,2.6933 -0.5127,5.3622 -1.5436,7.9691 -0.9661,2.8579 -2.2291,5.3136 -3.7997,7.3754 -1.4222,2.1454 -3.0251,3.5622 -4.7712,4.2827 -1.8215,0.556 -3.3193,0.8312 -4.5175,0.8312 -2.453,0 -4.8251,-0.1565 -7.1325,-0.4722 -2.3694,-0.4021 -3.7943,-0.5857 -4.2854,-0.5857 -4.8441,0 -9.2779,3.0387 -13.3313,9.1457 -2.7607,4.1235 -5.2164,8.0582 -7.3646,11.785 -2.847,4.8386 -6.0665,8.5547 -9.6368,11.175 -2.2156,1.827 -5.0411,3.036 -8.4413,3.627 -3.4057,0.5937 -6.1907,0.6909 -8.3253,0.2996 z"
       style="fill:#007b60;fill-rule:evenodd"
       id="path4" />
    <path
       d="m 1105.4674,1118.9362 c 0,-1.2009 2.2129,-6.4309 6.6117,-15.7115 4.3879,-9.2806 7.316,-13.9924 8.7408,-14.1463 3.3086,0 6.9976,2.0132 11.051,6.0612 4.056,4.5175 6.0827,8.8839 6.0827,13.0857 0,3.886 -1.9079,9.2698 -5.6725,16.1675 -3.7377,6.9085 -6.5092,10.352 -8.2579,10.352 -1.1118,0 -3.5028,-1.6273 -7.1945,-4.8765 -3.6891,-3.2572 -6.5065,-5.5915 -8.4414,-7.0191 -1.9322,-1.4276 -2.9199,-2.7283 -2.9199,-3.913 z m -16.2782,44.2387 c 0,-1.4222 2.5205,-6.7951 7.6048,-16.1216 5.068,-9.3103 8.22,-14.0518 9.3993,-14.2111 1.8972,0 4.8819,1.7272 8.9892,5.1706 4.0722,3.4597 6.8167,6.7169 8.2389,9.8177 2.6393,-4.2801 5.1409,-8.4441 7.5103,-12.4893 3.4786,-5.7103 5.6267,-8.5628 6.412,-8.5628 2.866,0 6.5199,2.0213 10.9565,6.0638 4.2962,4.523 6.42,8.687 6.42,12.4866 0,4.3664 -2.1238,9.8366 -6.42,16.4239 -4.4366,6.2582 -7.6129,9.3967 -9.5181,9.3967 -1.514,0 -3.6945,-1.4654 -6.5388,-4.4042 -3.9778,-4.1937 -7.2621,-7.2566 -9.8743,-9.1619 -6.4957,13.3232 -11.6393,19.9808 -15.3472,19.9808 -0.7826,0 -3.9886,-2.1913 -9.51,-6.6009 -5.57,-4.3988 -8.3226,-6.9922 -8.3226,-7.7883 z m -25.7153,72.0779 c -0.3805,14.3541 2.3613,23.5052 8.2174,27.4722 3.1628,2.1454 6.3498,2.8578 9.5666,2.1454 3.2006,-0.7044 5.6887,-2.3775 7.4375,-5.0006 1.7487,-2.6069 3.2086,-5.6887 4.4068,-9.2131 1.1901,-3.5299 2.2993,-5.284 3.341,-5.284 1.3466,0 1.9025,1.2576 1.6704,3.8051 -0.1862,4.2666 -1.5058,11.2344 -4.0506,20.8686 -2.5503,9.6395 -6.0288,17.5465 -10.4141,23.7372 -4.3799,6.1826 -9.7718,9.4317 -16.1136,9.7448 -6.4335,-0.2348 -11.4179,-3.8429 -14.9855,-10.827 -3.1817,-6.8977 -4.6497,-15.8194 -4.415,-26.7651 0.2321,-8.0041 1.3386,-20.8118 3.2708,-38.4097 1.9511,-17.6059 4.5364,-36.437 7.7991,-56.504 1.8971,-5.8723 5.7292,-16.1757 11.5312,-30.9372 0.6396,-1.4141 1.2711,-2.0105 1.8945,-1.7649 0.6503,0.2267 0.9472,0.8231 0.9472,1.7649 -0.2969,7.3133 -1.7541,21.1843 -4.3772,41.6427 -2.6204,20.4637 -4.5283,38.299 -5.7265,53.5247 z"
       style="fill:#007b60;fill-rule:evenodd"
       id="path6" />
    <path
       d="m 1323.806,1158.6574 c -0.4749,3.0036 -1.217,5.9046 -2.1993,8.668 -1.0066,2.7823 -2.6474,6.6765 -4.9979,11.6581 -2.3316,5.0087 -3.7511,7.8639 -4.2261,8.5682 -1.8863,3.0225 -3.5514,4.5229 -4.979,4.5229 -1.0282,-0.7097 -1.9808,-1.4087 -2.8012,-2.0752 -0.8446,-0.6747 -1.6083,-1.0093 -2.3208,-1.0093 -3.0279,0 -6.9706,1.2252 -11.8416,3.6809 -4.8576,2.4531 -10.2359,6.3688 -16.0434,11.7094 -5.8534,5.3649 -10.3682,10.3574 -13.6254,14.991 -3.2627,4.6443 -4.9008,7.8395 -4.9008,9.5855 0,2.6123 0.8474,4.639 2.5017,6.0531 1.4492,1.1145 3.9913,2.3883 7.6857,3.8104 3.6944,1.4384 6.1313,2.6177 7.3025,3.5757 3.8914,2.696 5.8426,8.0474 5.8426,16.0515 0,11.0267 -2.0834,23.6509 -6.242,37.8808 -4.1802,14.238 -9.6368,26.5843 -16.3483,37.0577 -3.4921,4.836 -7.5589,9.7016 -12.206,14.5645 -4.6524,4.8846 -9.6233,9.0675 -14.9342,12.5595 -10.2171,6.7358 -21.9939,10.0983 -35.3117,10.0983 -15.1447,-0.2348 -26.649,-5.3379 -34.494,-15.3418 -3.5676,-5.0761 -6.0233,-10.468 -7.3754,-16.1675 -1.3628,-5.713 -2.0185,-11.1427 -2.0185,-16.3079 0,-6.4983 0.4749,-12.8806 1.4275,-19.1414 0.9527,-6.2581 2.418,-12.5325 4.3988,-18.7906 3.0954,-10.2359 6.8465,-20.1103 11.2533,-29.6203 4.3799,-9.5154 7.9772,-17.2092 10.746,-23.0787 l 8.3307,-17.8515 c 0.9418,-1.9754 1.9619,-3.913 3.0279,-5.8236 1.0659,-1.8918 2.0455,-2.8552 2.9334,-2.8552 1.1793,0 1.7811,0.9634 1.827,2.8552 0.049,1.9106 -0.17,3.3328 -0.6477,4.2908 -1.2657,3.403 -2.3802,6.2797 -3.3328,8.6221 -0.9607,2.3344 -2.3802,5.713 -4.2827,10.101 -1.9053,4.4123 -3.9805,9.1673 -6.188,14.2758 -2.2291,5.122 -4.048,9.3454 -5.4837,12.6728 -6.9489,18.5559 -10.4437,32.4781 -10.4437,41.7533 0,9.7529 3.4462,17.4872 10.3871,23.2002 6.949,5.7077 16.7261,8.5682 29.3396,8.5682 10.4464,0 20.5825,-2.4773 30.3138,-7.3862 7.2998,-3.6539 13.3771,-8.0905 18.2589,-13.3204 4.8846,-5.2273 8.5871,-10.1469 11.1184,-14.7427 2.534,-4.6039 3.7916,-8.7328 3.7916,-12.3706 0,-2.3073 -1.6678,-3.9939 -5.0168,-5.0707 -3.4002,-1.066 -5.8371,-1.773 -7.343,-2.1265 -1.5031,-0.367 -3.2086,-1.0174 -5.1004,-1.97 -3.6458,-1.7379 -6.4065,-3.9616 -8.3415,-6.6711 -1.8836,-2.6878 -2.8281,-6.3391 -2.8281,-10.924 0,-7.0651 2.2587,-16.0003 6.8194,-26.8353 4.558,-10.8215 11.0024,-21.4677 19.325,-31.9303 6.8248,-8.5681 13.0236,-15.5036 18.5639,-20.8173 3.0063,-2.7796 6.8437,-5.8992 11.4719,-9.3939 4.6362,-3.4867 9.1403,-6.5091 13.5175,-9.0378 5.3783,-3.0953 9.6341,-4.8791 12.7105,-5.3594 1.2765,0 2.1509,0.5397 2.6177,1.6029 0.4858,1.0687 0.6018,2.078 0.3616,3.0414 z"
       style="fill:#007b60;fill-rule:evenodd"
       id="path8" />
    <path
       d="m 1377.1689,1210.9894 c -0.1727,3.1817 -1.4195,8.9864 -3.6971,17.4197 -2.2831,8.444 -5.3298,17.6734 -9.1106,27.6529 -3.77,9.9958 -7.0705,17.5547 -9.9391,22.6659 -2.8444,5.1193 -5.9505,9.0242 -9.3184,11.7202 -3.3895,2.7013 -8.8461,5.1328 -16.432,7.316 -7.5508,2.1751 -13.6335,3.6647 -18.1753,4.4635 -4.5769,0.7853 -7.4429,1.1793 -8.6546,1.1793 -1.1793,-0.1565 -1.9025,-0.6503 -2.1292,-1.4815 -0.2294,-0.8366 0.1295,-1.8918 1.0741,-3.1574 1.2683,-2.0591 4.5499,-4.7146 9.8743,-7.9637 5.3109,-3.2492 11.4881,-7.3565 18.4964,-12.3112 7.0138,-4.9601 12.0252,-9.2806 14.9937,-12.9696 2.9793,-3.6783 6.3121,-9.2186 10.0443,-16.5859 3.7241,-7.3834 7.1217,-14.8128 10.1658,-22.3015 3.0683,-7.4968 5.2488,-12.6053 6.5603,-15.3526 1.2846,-2.7283 2.7149,-4.0209 4.2288,-3.8644 1.3143,0.2348 2.0186,1.4276 2.0186,3.5703 z"
       style="fill:#007b60;fill-rule:evenodd"
       id="path10" />
    <path
       d="m 1408.3274,1236.3323 c -0.2294,4.4419 -0.7152,8.4899 -1.4384,12.1816 -0.6936,3.681 -1.6948,6.7952 -2.9145,9.3427 -1.236,2.5286 -2.7419,4.4393 -4.5688,5.7076 -1.827,1.2603 -4.0534,1.7056 -6.663,1.3062 0.1512,-9.2779 1.1523,-22.2152 2.9793,-38.8334 1.8081,-16.6074 4.5796,-34.9474 8.3091,-55.0144 1.9161,-5.8723 5.7697,-16.1757 11.561,-30.9372 0.5991,-1.4141 1.2468,-2.0105 1.8836,-1.7649 0.6288,0.2267 0.9608,0.8231 0.9608,1.7649 -0.332,7.3133 -1.7892,21.1843 -4.4069,41.6427 -2.6285,20.4637 -4.218,34.4966 -4.8279,42.1068 -0.5694,7.6129 -0.8743,11.7796 -0.8743,12.4974 z"
       style="fill:#007b60;fill-rule:evenodd"
       id="path12" />
    <path
       d="m 1405.5963,1363.1008 c 0,-2.6231 2.0834,-8.0932 6.2798,-16.4104 4.2098,-8.3307 6.9409,-12.8105 8.2065,-13.4446 2.5421,-1.1092 6.1691,0.8527 10.8836,5.8965 4.7307,5.0329 7.2459,8.9757 7.5778,11.8308 0,3.7268 -1.9997,9.1322 -5.9586,16.2323 -3.9616,7.0893 -6.8356,10.6434 -8.579,10.6434 -0.7043,0 -3.0278,-1.3655 -6.9975,-4.1046 -3.9697,-2.7391 -6.949,-4.8899 -8.9109,-6.4875 -1.6948,-1.4222 -2.5017,-2.8093 -2.5017,-4.1559 z m 64.824,-96.7974 c -3.5622,-0.6315 -6.2851,-0.6315 -8.1148,0 -6.1691,1.9835 -12.5271,8.6788 -19.0011,20.094 -7.0731,11.4233 -14.91,17.131 -23.5645,17.131 -8.8057,-0.073 -15.4767,-3.8996 -19.9807,-11.4773 -4.5229,-7.5616 -6.8653,-16.6263 -7.0165,-27.1807 2.0564,-6.9733 4.3313,-12.9832 6.833,-18.008 2.507,-5.0492 5.408,-8.5115 8.7517,-10.4087 0,11.8875 2.8929,20.534 8.6815,25.9177 4.4365,3.8915 9.5397,5.8291 15.3471,5.8291 8.0743,0 14.7481,-3.5649 19.9538,-10.6974 3.9804,-5.2435 7.351,-8.9892 10.1198,-11.2506 2.7904,-2.248 5.427,-3.3868 7.988,-3.3868 1.657,0.483 2.6555,4.0965 3.0279,10.8215 0.3535,6.7439 -0.6477,10.9484 -3.0252,12.6162 z"
       style="fill:#007b60;fill-rule:evenodd"
       id="path14" />
    <path
       d="m 1474.6815,1139.0599 c 0,-1.4276 2.2749,-6.304 6.8059,-14.6293 4.4959,-8.3361 7.3133,-12.7241 8.4575,-13.2152 1.8945,-0.7853 4.6336,0.5613 8.2444,4.056 3.6162,3.4867 6.3283,6.582 8.1472,9.2752 2.2102,-3.6458 4.6848,-7.7397 7.4077,-12.2545 2.7607,-4.5229 4.6093,-6.814 5.5511,-6.8923 2.7041,0 5.9775,2.0132 9.8231,6.0692 3.8563,4.0345 5.8938,7.8423 6.1313,11.3991 0,4.2206 -2.0753,9.2131 -6.1799,14.9909 -4.0561,5.7103 -6.9949,8.5682 -8.8246,8.5682 -1.2656,0 -3.5028,-1.6057 -6.7304,-4.8171 -3.1897,-3.2114 -6.026,-5.7157 -8.4818,-7.5535 -5.9505,12.1385 -10.719,18.1996 -14.292,18.1996 -0.9499,0 -2.2155,-0.707 -3.7888,-2.1346 -1.5868,-1.352 -4.0264,-3.3463 -7.3187,-6.0099 -3.3032,-2.6581 -4.952,-4.3475 -4.952,-5.0518 z m 29.7605,66.3325 c 0.7044,6.9868 2.9227,11.1913 6.6468,12.608 1.1793,2.7095 2.0266,5.535 2.5043,8.5169 0.4831,2.9685 0.6936,5.8993 0.6558,8.7976 -0.057,2.8875 -0.332,5.6267 -0.896,8.2012 -0.5613,2.588 -1.3142,4.7819 -2.2641,6.6116 -2.8471,0.1565 -5.7994,-0.4749 -8.8057,-1.9133 -0.9553,-0.3886 -5.1409,2.7985 -12.5486,9.5775 -7.4051,6.7735 -13.8333,9.5747 -19.3169,8.3846 -0.7799,-1.7433 -1.4384,-3.6108 -1.9052,-5.5916 -0.4669,-1.9862 -0.761,-3.975 -0.8447,-6.0017 -0.067,-2.024 0.084,-4.0345 0.475,-6.018 0.3994,-1.9727 1.1604,-3.8779 2.2749,-5.6995 1.9808,0 4.2153,0.5586 6.7115,1.6678 2.5044,1.101 5.1112,1.7622 7.8342,1.9619 2.7526,0.1943 5.1517,-0.7395 7.1972,-2.7931 0.8096,-0.5613 1.4492,-1.4357 1.9242,-2.6258 -4.0453,-11.65 -3.0927,-23.7399 2.8659,-36.2724 2.0564,-3.4138 3.7025,-5.1193 4.979,-5.1193 1.1226,0 1.9322,1.9106 2.5124,5.7076 z"
       style="fill:#007b60;fill-rule:evenodd"
       id="path16" />
    <path
       d="m 1516.5616,1218.7264 c 0.8555,0 1.9403,-1.3628 3.2087,-4.0534 1.5706,-3.3301 3.1682,-6.7493 4.7307,-10.2926 1.6003,-3.519 3.3139,-7.0974 5.1328,-10.7621 1.684,-3.8024 4.083,-7.7262 7.2728,-11.7742 4.6741,-5.3865 9.6612,-8.0932 14.9559,-8.0932 2.8929,0 5.57,0.8474 8.1013,2.5016 2.4557,1.6678 3.7133,4.0048 3.7133,7.0219 0,4.6066 -1.8378,6.895 -5.4944,6.895 -1.5787,0 -3.322,-0.5208 -5.2138,-1.5436 -1.9835,-1.1146 -3.77,-1.6678 -5.3811,-1.6678 -3.5514,0 -6.4173,1.0417 -8.5411,3.0954 -2.6447,2.3802 -4.3395,4.6335 -5.1113,6.7816 -1.1226,2.4531 -1.6758,4.6336 -1.6758,6.5361 0,6.3472 3.6458,9.5289 10.9295,9.5289 2.8767,0 5.381,-0.5667 7.4914,-1.6758 2.1535,-1.0336 4.4473,-3.5245 6.922,-7.4995 1.182,-1.8972 2.4288,-3.8537 3.7403,-5.8858 1.325,-2.0213 2.6662,-4.0992 4.0857,-6.2419 0.7233,-0.9499 1.5517,-1.4276 2.5125,-1.4276 0.4695,0 0.8392,0.4372 1.0767,1.3061 0.2375,0.7988 0.1161,1.7434 -0.3805,2.8498 -2.839,6.2743 -5.8452,12.5028 -9.008,18.6854 -3.3491,6.5846 -6.8627,12.017 -10.5949,16.2943 -6.4066,7.8558 -13.2503,13.45 -20.4665,16.7775 -5.856,2.6905 -11.6932,4.0452 -17.479,4.0452 -0.7044,-2.059 -1.4195,-4.3259 -2.0969,-6.779 -0.6638,-2.4584 -1.1145,-5.0518 -1.3601,-7.7909 -0.2375,-2.7337 -0.1241,-5.5781 0.3616,-8.5115 0.4696,-2.9334 1.4951,-5.9532 3.0954,-9.0459 1.7595,0.4777 3.5514,0.726 5.4728,0.726 z"
       style="fill:#007b60;fill-rule:evenodd"
       id="path18" />
    <path
       d="m 1609.9345,1203.139 c -0.3212,8.6465 -0.5425,16.3943 -0.6666,23.2569 -0.1133,6.8518 -0.4453,12.662 -1.0174,17.4224 -0.9337,10.2225 -2.9037,19.2926 -5.8722,27.1807 -2.982,7.8935 -5.3136,13.1504 -7.0192,15.7573 -1.7217,2.6123 -3.1034,4.523 -4.226,5.7077 -1.2576,1.1954 -2.2264,1.5894 -2.9119,1.1954 -0.6746,-0.3993 -0.9337,-1.0767 -0.7826,-2.0266 0,-0.2321 0.734,-3.8456 2.1535,-10.827 1.4303,-6.9678 2.2939,-13.7306 2.6825,-20.2721 0.3643,-6.5415 0.4102,-15.7817 0.1727,-27.7096 -0.2375,-11.9469 0.038,-21.0764 0.8366,-27.4317 0.4803,-3.6378 1.2764,-7.4563 2.3613,-11.4206 1.1172,-3.9643 2.418,-7.818 3.8752,-11.5853 1.487,-3.7646 3.009,-7.3619 4.5796,-10.7648 1.6003,-3.4111 3.0576,-6.4228 4.4177,-9.0405 1.0956,-1.6704 2.0293,-2.3208 2.8443,-1.9619 0.7826,0.3535 1.1551,1.0093 1.0687,1.9619 -0.17,0.5532 -0.3346,1.7649 -0.5343,3.6297 -0.1889,1.8648 -0.4183,4.0803 -0.591,6.6575 -0.197,2.5799 -0.3778,5.3271 -0.5614,8.2687 -0.1403,2.928 -0.2752,5.802 -0.4101,8.614 -0.1026,2.8309 -0.197,5.4189 -0.2942,7.8018 -0.057,2.3694 -0.1052,4.2287 -0.1052,5.5861 z"
       style="fill:#007b60;fill-rule:evenodd"
       id="path20" />
    <path
       d="m 1663.219,1303.5284 c -9.8419,-0.7799 -18.9363,1.3493 -27.2373,6.4254 -0.9796,0.7071 -1.854,0.7475 -2.704,0.1107 -0.8069,-0.6315 -0.6072,-2.4531 0.6584,-5.4702 1.5922,-3.5649 5.0843,-8.5169 10.4815,-14.8668 5.3892,-6.3364 11.6447,-11.5231 18.8014,-15.5819 3.5542,10.244 3.5542,20.0293 0,29.3828 z"
       style="fill:#007b60;fill-rule:evenodd"
       id="path22" />
    <path
       d="m 1781.7945,1257.8566 -4.5121,3.5703 c -4.5149,1.4276 -6.7224,2.0969 -6.5415,2.0213 l -10.5949,7.2566 c -3.4084,0.9581 -7.1325,2.3802 -11.167,4.2855 l -4.5229,3.5676 c -2.8659,2.1427 -4.817,3.322 -5.8452,3.5595 -1.8081,0.6423 -3.2384,0.8312 -4.2666,0.591 -3.3409,-0.2294 -4.9493,-0.3535 -4.8818,-0.3535 -5.0087,0 -8.5007,1.1091 -10.4545,3.3328 -3.5865,3.5649 -6.5982,6.698 -9.062,9.3912 -2.4558,2.7095 -5.8264,5.6834 -10.1685,8.9244 -4.3205,3.2546 -8.9217,4.9277 -13.7847,5.0033 -4.9034,0.078 -9.5207,-0.7772 -13.9276,-2.5583 -4.3988,-1.7838 -7.3025,-2.758 -8.749,-2.9199 -1.1901,-1.6624 -2.1319,-3.7592 -2.839,-6.2987 -0.7124,-2.534 -1.1145,-5.1975 -1.1793,-7.9771 -0.094,-2.7661 0.1916,-5.5025 0.8177,-8.1985 0.6396,-2.7067 1.6948,-5.0033 3.2006,-6.9085 5.7994,-3.0036 11.0698,-4.6956 15.7843,-5.0492 4.7226,-0.3562 9.0621,0.3536 13.0237,2.1455 3.9589,1.7919 7.6614,2.6662 11.175,2.6662 3.8753,0 7.9799,-1.4222 12.2437,-4.2827 9.2644,-6.4093 14.3838,-9.6261 15.3391,-9.6261 1.1226,0 2.6258,0.1161 4.5283,0.359 1.9079,0.4722 3.3247,0.9472 4.2773,1.4221 3.1035,1.4357 6.1691,0.3536 9.2914,-3.2086 1.4276,-1.0255 2.7419,-2.5098 3.9212,-4.4069 1.2009,-1.9053 2.1319,-2.8471 2.8362,-2.8471 1.6678,2.14 3.3895,3.2114 5.1328,3.2114 3.7026,0 6.5388,-2.4962 8.4252,-7.4995 1.0471,-2.5367 1.9133,-3.8024 2.6366,-3.8024 0.7151,0.9472 2.1238,1.433 4.2827,1.433 1.8189,0 3.6971,-0.6045 5.5808,-1.7946 0.7043,1.4276 1.2279,2.6204 1.5517,3.5703 0.6207,1.4303 0.9418,2.6905 0.9418,3.8078 0,2.1427 -0.2294,3.6944 -0.6935,4.6389 -0.7044,1.4222 -1.3224,2.4207 -1.8,2.9739 z"
       style="fill:#007b60;fill-rule:evenodd"
       id="path24" />
    <path
       d="m 1781.7945,1242.8657 c 2.8767,-1.7379 4.0938,-2.4962 3.6836,-2.2588 1.2198,-0.7124 2.0375,-1.4221 2.5043,-2.1292 0,-0.251 -0.067,-0.7016 -0.2266,-1.3709 -0.1647,-0.6801 -0.2402,-1.8648 -0.2402,-3.5811 0,-1.7001 0.6288,-4.6929 1.9133,-8.9757 1.325,-4.2827 3.6081,-8.6599 6.8357,-13.1423 3.1979,-4.4852 5.408,-6.4012 6.59,-5.767 0.4642,0.5532 0.5991,1.9835 0.3617,4.28 -0.2402,2.1481 -0.135,4.1613 0.3427,6.072 0.483,1.8998 1.7028,3.4407 3.7133,4.6335 1.8081,1.182 4.2612,1.7865 7.3565,1.7865 5.4728,0 10.1118,-1.63 13.9304,-4.8683 1.0092,-1.0363 2.0752,-2.0969 3.1304,-3.1655 1.0848,-1.0579 2.1697,-2.1481 3.2842,-3.2735 4.1127,-4.3502 8.4063,-6.8923 12.8428,-7.5993 4.3529,-0.7152 6.6657,-1.1955 6.9004,-1.4357 1.8864,-0.6288 3.9239,-2.6555 6.0585,-6.0665 1.6758,-3.2438 2.9496,-4.7928 3.8051,-4.639 1.0389,0.3211 1.0848,2.337 0.1538,6.0746 -1.0579,3.6351 -2.9901,7.9529 -5.8561,12.9562 -2.7903,5.006 -5.4728,7.9772 -8.0797,8.9217 -2.6392,1.1928 -5.2488,1.5517 -7.8557,1.0686 -2.8444,-0.3157 -5.5025,0.1242 -7.9691,1.3116 -2.6258,1.1901 -4.9601,3.2518 -7.0353,6.1853 -1.97,3.2491 -2.8066,4.5553 -2.4828,3.9238 -4.0479,5.713 -7.7801,9.6044 -11.1885,11.6581 -3.4948,1.7487 -7.4159,2.6177 -11.7472,2.6177 -1.943,0 -3.8267,-0.1215 -5.7238,-0.359 -0.9013,0.2375 -2.615,1.3952 -5.2327,3.4543 -2.6284,2.2129 -5.8641,5.1139 -9.769,8.6788 -0.2375,-1.2737 -0.5047,-2.5286 -0.8096,-3.7511 -0.3346,-1.2279 -0.5424,-2.4719 -0.6774,-3.7457 -0.1106,-1.2657 -0.065,-2.5124 0.135,-3.743 0.1916,-1.2279 0.6476,-2.4774 1.352,-3.7511 z"
       style="fill:#007b60;fill-rule:evenodd"
       id="path26" />
    <path
       d="m 1917.1905,1253.4444 c -4.1235,11.5069 -7.9691,19.9888 -11.5286,25.4643 -3.5784,5.4809 -6.3688,8.8569 -8.3981,10.1766 -2.0078,1.298 -5.0546,2.7148 -9.089,4.2152 -4.0372,1.5032 -10.2441,3.6 -18.4992,6.2393 -8.3118,2.6635 -13.2044,3.9886 -14.6995,3.9886 -0.9445,0 -1.4168,-0.2348 -1.4168,-0.7125 -0.9526,-1.2683 3.9859,-5.5349 14.7913,-12.7807 10.8188,-7.2567 17.8137,-12.0225 20.9549,-14.2758 3.1223,-2.2642 6.3418,-5.5808 9.6152,-9.9391 3.2978,-4.3502 5.7049,-9.2779 7.2054,-14.7507 -0.8717,-0.078 -1.7217,0 -2.5475,0.2482 -0.8582,0.2348 -1.6678,0.5047 -2.5071,0.8258 -0.8473,0.3157 -1.6839,0.6234 -2.561,0.896 -0.8662,0.2725 -1.7028,0.4048 -2.5016,0.4048 -4.4366,-0.1431 -8.1499,-1.603 -11.1211,-4.3368 -2.9685,-2.7337 -4.2153,-5.7589 -3.7214,-9.0971 0.4561,-1.9808 1.1631,-4.3178 2.0564,-7.0245 0.9148,-2.6906 2.8173,-6.949 5.6455,-12.7727 2.8741,-5.8344 5.7319,-10.6515 8.6141,-14.4674 2.9145,-3.797 5.7993,-5.7076 8.6437,-5.7076 4.9331,0 8.9892,2.0969 12.2464,6.2528 3.2465,4.1559 4.8818,9.1753 4.8818,15.0557 0,2.928 -0.1808,5.8641 -0.5316,8.7921 -0.3697,2.9361 -0.7232,5.3784 -1.1442,7.316 -0.3886,1.9511 -0.9796,4.442 -1.7811,7.4968 -0.7772,3.0441 -1.6543,5.8858 -2.6069,8.4927 z"
       style="fill:#007b60;fill-rule:evenodd"
       id="path28" />
    <path
       d="m 1908.3956,1232.7647 c 0,-0.4048 0,-0.842 0,-1.3169 0,-0.4696 0,-0.8771 0,-1.1847 0.7988,-4.2018 4.3961,-9.0837 10.8135,-14.6294 5.3973,-2.8578 9.5774,-7.0191 12.5001,-12.4866 2.1319,-4.2071 5.5403,-10.387 10.2332,-18.5612 1.1982,-1.8324 3.2465,-4.5175 6.1799,-8.0878 3.5703,-4.0534 6.7304,-7.173 9.4992,-9.394 0.8123,-0.8689 2.9901,-3.9292 6.5712,-9.1564 0.7043,-1.2765 2.0941,-3.2087 4.1397,-5.8345 1.916,-0.1538 5.0086,2.7418 9.2752,8.6869 4.1397,5.9451 6.2069,11.5286 6.2069,16.764 0,4.9304 -1.2495,9.5612 -3.7053,13.9195 -2.6096,4.5203 -5.5861,7.8153 -8.9298,9.8743 -2.1211,1.433 -4.4662,2.1482 -6.9867,2.1482 -2.1535,-0.1727 -3.9239,-0.4048 -5.3784,-0.7152 -2.3613,-0.2375 -4.0588,-0.367 -5.1139,-0.367 -2.0564,0 -3.9212,0.2456 -5.5781,0.7232 -5.7886,2.4504 -11.3856,9.0378 -16.7747,19.7406 -1.4168,2.8524 -2.6285,5.1112 -3.5622,6.7898 -0.9689,1.6542 -1.5868,2.8092 -1.9026,3.4407 -2.3775,4.0426 -4.5985,7.2971 -6.6737,9.7475 -2.3613,3.3328 -4.4285,5.5916 -6.1799,6.7871 -2.0348,1.4275 -4.1991,2.4908 -6.4147,3.2032 z"
       style="fill:#007b60;fill-rule:evenodd"
       id="path30" />
    <path
       d="m 283.4652,1467.9105 7.9718,-0.7395 c 0.3751,3.3922 1.2548,6.1745 2.6311,8.3496 1.379,2.1751 3.5244,3.9266 6.4228,5.2705 2.9064,1.3439 6.1718,2.0078 9.8068,2.0078 3.2195,0 6.0639,-0.5074 8.5331,-1.5248 2.4666,-1.0174 4.3043,-2.4072 5.5079,-4.1829 1.209,-1.7703 1.8081,-3.7052 1.8081,-5.8074 0,-2.1239 -0.5775,-3.9832 -1.7433,-5.5673 -1.1604,-1.5895 -3.0791,-2.9253 -5.7454,-4.0075 -1.7163,-0.707 -5.5052,-1.8081 -11.3721,-3.3058 -5.8614,-1.4924 -9.9768,-2.9011 -12.3273,-4.2288 -3.0441,-1.692 -5.3163,-3.797 -6.8087,-6.3148 -1.495,-2.5124 -2.2507,-5.3271 -2.2507,-8.4359 0,-3.4246 0.9149,-6.6225 2.75,-9.5991 1.8242,-2.9739 4.504,-5.2327 8.0122,-6.7736 3.5136,-1.5436 7.4186,-2.3127 11.7175,-2.3127 4.728,0 8.9028,0.8069 12.5217,2.4261 3.6134,1.6218 6.3903,4.002 8.3415,7.1487 1.943,3.1412 2.9847,6.7034 3.1331,10.6812 l -8.0959,0.6476 c -0.4399,-4.2854 -1.9134,-7.5265 -4.4312,-9.7151 -2.5097,-2.1913 -6.215,-3.2788 -11.1211,-3.2788 -5.1112,0 -8.8353,0.9904 -11.1723,2.9793 -2.3371,1.9889 -3.5056,4.388 -3.5056,7.1919 0,2.4395 0.8285,4.4392 2.4828,6.0152 1.6273,1.5706 5.8722,3.179 12.7375,4.8333 6.8654,1.6516 11.5799,3.0926 14.1301,4.3232 3.7187,1.8189 6.4659,4.1235 8.2309,6.9139 1.773,2.7877 2.6608,6.0018 2.6608,9.6422 0,3.6054 -0.9769,7.0084 -2.9199,10.1982 -1.943,3.1898 -4.7415,5.6698 -8.3793,7.4455 -3.6458,1.773 -7.7478,2.6609 -12.3085,2.6609 -5.7778,0 -10.6164,-0.8987 -14.5294,-2.6825 -3.8996,-1.7891 -6.9625,-4.4824 -9.1808,-8.0716 -2.221,-3.5865 -3.3922,-7.656 -3.5082,-12.187 z"
       style="fill:#007b60;fill-rule:evenodd"
       id="path32" />
    <path
       d="m 407.3596,1465.0418 c -2.847,1.236 -7.1109,2.2831 -12.805,3.1466 -3.2222,0.4939 -5.4998,1.0471 -6.8384,1.6651 -1.3331,0.6126 -2.3586,1.5139 -3.0845,2.704 -0.7313,1.1847 -1.0903,2.5071 -1.0903,3.9562 0,2.2183 0.788,4.0669 2.3721,5.5511 1.5787,1.4789 3.8969,2.2183 6.9463,2.2183 3.0198,0 5.7023,-0.7016 8.0582,-2.1076 2.3478,-1.3979 4.0722,-3.3194 5.1787,-5.7589 0.8419,-1.8783 1.2629,-4.6525 1.2629,-8.3199 z m 0.6558,18.5936 c -2.9091,2.6231 -5.6968,4.4717 -8.3847,5.5511 -2.6905,1.0741 -5.5646,1.6165 -8.641,1.6165 -5.0816,0 -8.9919,-1.3196 -11.7202,-3.9508 -2.7283,-2.6393 -4.0965,-6.0072 -4.0965,-10.1091 0,-2.4045 0.5181,-4.5985 1.549,-6.5874 1.0282,-1.9916 2.3802,-3.5891 4.0506,-4.7873 1.6678,-1.2063 3.5514,-2.1104 5.6375,-2.7311 1.5382,-0.4317 3.8671,-0.8446 6.9733,-1.244 6.3283,-0.8042 10.9888,-1.7622 13.9762,-2.8687 0.0324,-1.1442 0.0486,-1.8647 0.0486,-2.1751 0,-3.3895 -0.7448,-5.7778 -2.221,-7.173 -2.0078,-1.8782 -4.9871,-2.8173 -8.9298,-2.8173 -3.6917,0 -6.4119,0.6854 -8.1688,2.0563 -1.7568,1.3709 -3.0548,3.7997 -3.8968,7.2863 l -7.6614,-1.1145 c 0.6935,-3.4785 1.8378,-6.2932 3.438,-8.4359 1.5949,-2.1455 3.905,-3.7943 6.9247,-4.9466 3.0171,-1.1578 6.5173,-1.7353 10.495,-1.7353 3.9455,0 7.1568,0.4939 9.618,1.4789 2.4746,0.9904 4.2881,2.2264 5.4485,3.7187 1.1632,1.4978 1.9781,3.3895 2.4396,5.6671 0.2645,1.4222 0.3913,3.9778 0.3913,7.6804 v 11.0941 c 0,7.7451 0.17,12.6404 0.5074,14.6914 0.3319,2.0482 0.9904,4.0155 1.9808,5.8938 h -8.1904 c -0.8177,-1.7245 -1.3385,-3.7484 -1.5679,-6.0585 z"
       style="fill:#007b60;fill-rule:evenodd"
       id="path34" />
    <path
       d="m 460.4364,1489.6939 v -49.1179 h 7.0165 v 6.8896 c 1.4518,-2.4018 3.3787,-4.3367 5.7858,-5.8021 2.4126,-1.4626 5.1571,-2.194 8.2336,-2.194 3.43,0 6.2392,0.753 8.4305,2.2642 2.1859,1.5112 3.7349,3.627 4.6363,6.3364 3.6593,-5.7373 8.4224,-8.6006 14.2839,-8.6006 4.5904,0 8.1175,1.344 10.5813,4.0453 2.472,2.6959 3.7053,6.8518 3.7053,12.4677 v 33.7114 h -7.7964 v -30.9426 c 0,-3.3274 -0.2564,-5.7211 -0.7637,-7.1892 -0.5101,-1.4653 -1.4249,-2.6419 -2.758,-3.5433 -1.3385,-0.8932 -2.9118,-1.3331 -4.7118,-1.3331 -3.2519,0 -5.9424,1.1469 -8.1013,3.4381 -2.1482,2.3019 -3.2222,5.9747 -3.2222,11.032 v 28.5381 h -7.8369 v -31.9141 c 0,-3.6998 -0.6422,-6.474 -1.9133,-8.3226 -1.2819,-1.854 -3.3706,-2.7715 -6.277,-2.7715 -2.2021,0 -4.2423,0.6126 -6.1205,1.8486 -1.8729,1.2332 -3.2276,3.0359 -4.0696,5.4107 -0.8366,2.3775 -1.2629,5.7967 -1.2629,10.2656 v 25.4833 z"
       style="fill:#007b60;fill-rule:evenodd"
       id="path36" />
    <path
       d="m 573.6631,1460.4218 h 25.826 c -0.3481,-4.1371 -1.3331,-7.2324 -2.9577,-9.2969 -2.4989,-3.2086 -5.7346,-4.8116 -9.7124,-4.8116 -3.6027,0 -6.6252,1.2791 -9.0863,3.8401 -2.4477,2.5556 -3.8051,5.9829 -4.0696,10.2684 z m 25.7396,13.4527 8.104,1.0686 c -1.2818,5.0249 -3.6431,8.9244 -7.1028,11.7013 -3.4569,2.7688 -7.8638,4.1586 -13.2368,4.1586 -6.7709,0 -12.1331,-2.2129 -16.092,-6.6359 -3.967,-4.4231 -5.9478,-10.6327 -5.9478,-18.6179 0,-8.2606 2.0024,-14.6752 6.0099,-19.2359 4.0075,-4.5661 9.2051,-6.8438 15.5927,-6.8438 6.1826,0 11.2345,2.2318 15.1556,6.7034 3.9211,4.4717 5.8803,10.7622 5.8803,18.8689 0,0.4912 -0.0162,1.236 -0.0432,2.2183 H 573.226 c 0.2941,5.3973 1.7271,9.5343 4.3097,12.4002 2.5934,2.866 5.8155,4.2963 9.6746,4.2963 2.8767,0 5.3298,-0.7988 7.3565,-2.4018 2.0348,-1.6057 3.6431,-4.1667 4.8359,-7.6803 z"
       style="fill:#007b60;fill-rule:evenodd"
       id="path38" />
    <path
       d="m 650.3476,1489.6939 v -49.1179 h 7.0596 v 6.9867 c 3.3976,-5.3945 8.3011,-8.0932 14.7211,-8.0932 2.785,0 5.3487,0.5317 7.6857,1.5949 2.3371,1.0606 4.0858,2.4585 5.2462,4.1856 1.1631,1.7217 1.9727,3.7727 2.4396,6.1475 0.2887,1.5436 0.4398,4.245 0.4398,8.0959 v 30.2005 h -7.8422 v -29.8766 c 0,-3.3949 -0.305,-5.9262 -0.9148,-7.6048 -0.6072,-1.6839 -1.6921,-3.0252 -3.2465,-4.0264 -1.5544,-1.0039 -3.376,-1.5004 -5.462,-1.5004 -3.3437,0 -6.2204,1.1199 -8.6438,3.376 -2.4315,2.248 -3.6404,6.5145 -3.6404,12.805 v 26.8272 z"
       style="fill:#007b60;fill-rule:evenodd"
       id="path40" />
    <path
       d="m 837.3038,1465.9216 8.4467,2.2668 c -1.773,7.3673 -4.9547,12.9886 -9.5585,16.8557 -4.6039,3.8726 -10.2306,5.8075 -16.88,5.8075 -6.8788,0 -12.4704,-1.487 -16.7882,-4.4636 -4.3098,-2.9792 -7.5886,-7.289 -9.8366,-12.9264 -2.2587,-5.6402 -3.3841,-11.7013 -3.3841,-18.1754 0,-7.0623 1.2738,-13.2233 3.8159,-18.4748 2.5367,-5.257 6.1502,-9.251 10.8404,-11.9793 4.6957,-2.7283 9.8528,-4.0938 15.4848,-4.0938 6.3877,0 11.7607,1.7217 16.1163,5.1814 4.3556,3.4488 7.3916,8.3064 9.1052,14.5645 l -8.3226,2.0807 c -1.4789,-4.9304 -3.6324,-8.525 -6.4444,-10.7784 -2.8146,-2.2453 -6.3552,-3.376 -10.6272,-3.376 -4.9061,0 -9.008,1.2522 -12.3058,3.7511 -3.2896,2.4936 -5.605,5.848 -6.9409,10.0605 -1.3358,4.2072 -2.0024,8.5493 -2.0024,13.0156 0,5.7643 0.788,10.8026 2.3694,15.0989 1.5841,4.2989 4.0426,7.5157 7.3808,9.6449 3.3409,2.1265 6.949,3.1898 10.8485,3.1898 4.7335,0 8.7409,-1.4465 12.0198,-4.3475 3.2815,-2.8957 5.4998,-7.2 6.6629,-12.9022 z"
       style="fill:#007b60;fill-rule:evenodd"
       id="path42" />
    <path
       d="m 888.0679,1489.6939 v -49.1179 h 7.0623 v 7.4428 c 1.7946,-3.4758 3.4597,-5.7778 4.9871,-6.8842 1.5193,-1.1091 3.1952,-1.6651 5.0276,-1.6651 2.6392,0 5.3271,0.8933 8.05,2.6825 l -2.696,7.7208 c -1.9187,-1.2036 -3.8347,-1.8027 -5.7507,-1.8027 -1.7137,0 -3.2465,0.5478 -4.6093,1.6408 -1.3655,1.0983 -2.3451,2.6122 -2.9199,4.5553 -0.8771,2.9604 -1.3062,6.196 -1.3062,9.7151 v 25.7126 z"
       style="fill:#007b60;fill-rule:evenodd"
       id="path44" />
    <path
       d="m 956.7887,1460.4218 h 25.8232 c -0.3481,-4.1371 -1.3331,-7.2324 -2.9604,-9.2969 -2.4962,-3.2086 -5.7319,-4.8116 -9.7097,-4.8116 -3.6053,0 -6.6251,1.2791 -9.0863,3.8401 -2.4476,2.5556 -3.8051,5.9829 -4.0668,10.2684 z m 25.7396,13.4527 8.1013,1.0686 c -1.2765,5.0249 -3.6486,8.9244 -7.1028,11.7013 -3.457,2.7688 -7.8639,4.1586 -13.2368,4.1586 -6.7682,0 -12.1331,-2.2129 -16.0974,-6.6359 -3.9643,-4.4231 -5.937,-10.6327 -5.937,-18.6179 0,-8.2606 1.997,-14.6752 6.0071,-19.2359 4.0048,-4.5661 9.2024,-6.8438 15.5901,-6.8438 6.1826,0 11.2371,2.2318 15.1528,6.7034 3.9238,4.4717 5.8831,10.7622 5.8831,18.8689 0,0.4912 -0.0162,1.236 -0.0432,2.2183 h -34.4967 c 0.2941,5.3973 1.7271,9.5343 4.3124,12.4002 2.5907,2.866 5.8075,4.2963 9.6719,4.2963 2.8687,0 5.3298,-0.7988 7.3565,-2.4018 2.0294,-1.6057 3.6459,-4.1667 4.8387,-7.6803 z"
       style="fill:#007b60;fill-rule:evenodd"
       id="path46" />
    <path
       d="m 1038.7058,1465.1822 c 0,6.2878 1.2468,10.9942 3.7457,14.103 2.5044,3.1197 5.4486,4.6714 8.8408,4.6714 3.4245,0 6.3337,-1.4843 8.7327,-4.4609 2.3991,-2.9712 3.6,-7.5184 3.6,-13.6227 0,-6.7223 -1.2198,-11.6527 -3.6674,-14.7939 -2.445,-3.1493 -5.4459,-4.7199 -9.0243,-4.7199 -3.4785,0 -6.3876,1.5112 -8.722,4.5283 -2.3424,3.0224 -3.5055,7.7909 -3.5055,14.2947 z m 24.7762,24.5117 v -6.1961 c -2.9388,4.871 -7.2404,7.3052 -12.9319,7.3052 -3.6917,0 -7.0839,-1.0821 -10.1711,-3.2383 -3.0954,-2.159 -5.4756,-5.1733 -7.1865,-9.0432 -1.6921,-3.8617 -2.5475,-8.3145 -2.5475,-13.3393 0,-4.9062 0.7718,-9.3481 2.3073,-13.3421 1.5436,-3.994 3.8483,-7.0569 6.9355,-9.1808 3.0684,-2.1292 6.5172,-3.1898 10.3115,-3.1898 2.7877,0 5.2785,0.6234 7.4455,1.8702 2.1859,1.2495 3.9589,2.8767 5.3164,4.8791 v -24.3255 h 7.7936 v 67.8006 z"
       style="fill:#007b60;fill-rule:evenodd"
       id="path48" />
    <path
       d="m 1116.1324,1489.6939 v -49.1179 h 7.8261 v 49.1179 z m 0,-58.2231 v -9.5775 h 7.8261 v 9.5775 z"
       style="fill:#007b60;fill-rule:evenodd"
       id="path50" />
    <path
       d="m 1186.019,1482.2456 1.1361,7.3538 c -2.2101,0.4939 -4.1909,0.7448 -5.9235,0.7448 -2.8443,0 -5.0545,-0.4803 -6.6251,-1.4383 -1.5814,-0.9526 -2.6663,-2.2102 -3.3058,-3.7646 -0.6369,-1.5598 -0.9689,-4.8387 -0.9689,-9.8312 v -28.2574 h -5.7319 v -6.4767 h 5.7319 v -12.1655 l 7.8153,-4.9925 v 17.158 h 7.8719 v 6.4767 h -7.8719 v 28.7216 c 0,2.3721 0.1349,3.9022 0.4102,4.5796 0.2645,0.68 0.7124,1.2144 1.3412,1.6138 0.618,0.4048 1.5139,0.6045 2.6744,0.6045 0.877,0 2.0293,-0.1134 3.4461,-0.3266 z"
       style="fill:#007b60;fill-rule:evenodd"
       id="path52" />
    <path
       d="m 1286.9157,1489.6939 v -67.8006 h 8.444 v 67.8006 z"
       style="fill:#007b60;fill-rule:evenodd"
       id="path54" />
    <path
       d="m 1342.2485,1489.6939 v -49.1179 h 7.0543 v 6.9867 c 3.3976,-5.3945 8.301,-8.0932 14.7156,-8.0932 2.7904,0 5.3514,0.5317 7.6939,1.5949 2.3424,1.0606 4.0857,2.4585 5.2353,4.1856 1.1631,1.7217 1.9889,3.7727 2.4477,6.1475 0.286,1.5436 0.4479,4.245 0.4479,8.0959 v 30.2005 h -7.8449 v -29.8766 c 0,-3.3949 -0.313,-5.9262 -0.9148,-7.6048 -0.6099,-1.6839 -1.7056,-3.0252 -3.2546,-4.0264 -1.5436,-1.0039 -3.3706,-1.5004 -5.4647,-1.5004 -3.3221,0 -6.2069,1.1199 -8.6357,3.376 -2.4287,2.248 -3.635,6.5145 -3.635,12.805 v 26.8272 z"
       style="fill:#007b60;fill-rule:evenodd"
       id="path56" />
    <path
       d="m 1421.7126,1475.0322 7.7505,-1.2927 c 0.4561,3.2951 1.665,5.8237 3.6431,7.5805 1.9916,1.7622 4.7712,2.6366 8.3496,2.6366 3.6027,0 6.2663,-0.7745 8.0096,-2.3343 1.7406,-1.5518 2.615,-3.3841 2.615,-5.481 0,-1.8782 -0.7718,-3.3598 -2.3128,-4.4392 -1.074,-0.7422 -3.7511,-1.6759 -8.0149,-2.8201 -5.7508,-1.5382 -9.7286,-2.8768 -11.9577,-3.9967 -2.2075,-1.1307 -3.9049,-2.6851 -5.0464,-4.674 -1.1416,-1.9943 -1.7218,-4.1883 -1.7218,-6.5901 0,-2.1913 0.475,-4.218 1.4195,-6.0854 0.9311,-1.8648 2.2264,-3.4165 3.8537,-4.6444 1.209,-0.9526 2.8848,-1.7649 4.979,-2.4315 2.1049,-0.6638 4.3691,-0.9904 6.7789,-0.9904 3.6378,0 6.8141,0.556 9.5559,1.6651 2.7418,1.1064 4.7712,2.6123 6.0773,4.5094 1.3035,1.8918 2.2075,4.4339 2.7041,7.6048 l -7.6749,1.1091 c -0.3428,-2.5259 -1.3521,-4.5013 -3.0171,-5.9154 -1.6759,-1.4195 -4.0264,-2.1292 -7.0839,-2.1292 -3.6,0 -6.1691,0.6315 -7.7128,1.8971 -1.5328,1.263 -2.3019,2.7418 -2.3019,4.4393 0,1.0767 0.3238,2.0482 0.9607,2.9145 0.6396,0.8906 1.6381,1.6354 2.9982,2.2156 0.7826,0.313 3.0953,1.0201 6.9328,2.1292 5.5592,1.5733 9.4129,2.8606 11.5934,3.8645 2.202,0.9985 3.9238,2.453 5.1705,4.3691 1.2468,1.9106 1.8756,4.2854 1.8756,7.1217 0,2.7742 -0.761,5.3864 -2.2965,7.8422 -1.5194,2.4504 -3.7107,4.3421 -6.5874,5.686 -2.8741,1.3359 -6.1313,2.0105 -9.7556,2.0105 -6.0179,0 -10.5867,-1.3223 -13.7495,-3.9778 -3.1521,-2.6554 -5.1598,-6.582 -6.0342,-11.793 z"
       style="fill:#007b60;fill-rule:evenodd"
       id="path58" />
    <path
       d="m 1519.5787,1482.2456 1.1361,7.3538 c -2.2129,0.4939 -4.191,0.7448 -5.9343,0.7448 -2.8363,0 -5.0437,-0.4803 -6.6171,-1.4383 -1.5706,-0.9526 -2.6635,-2.2102 -3.3031,-3.7646 -0.645,-1.5598 -0.9688,-4.8387 -0.9688,-9.8312 v -28.2574 h -5.7319 v -6.4767 h 5.7319 v -12.1655 l 7.8045,-4.9925 v 17.158 h 7.8827 v 6.4767 h -7.8827 v 28.7216 c 0,2.3721 0.1457,3.9022 0.421,4.5796 0.2644,0.68 0.7124,1.2144 1.3412,1.6138 0.618,0.4048 1.5058,0.6045 2.6743,0.6045 0.8771,0 2.0186,-0.1134 3.4462,-0.3266 z"
       style="fill:#007b60;fill-rule:evenodd"
       id="path60" />
    <path
       d="m 1560.2984,1489.6939 v -49.1179 h 7.8234 v 49.1179 z m 0,-58.2231 v -9.5775 h 7.8234 v 9.5775 z"
       style="fill:#007b60;fill-rule:evenodd"
       id="path62" />
    <path
       d="m 1630.1769,1482.2456 1.1416,7.3538 c -2.2075,0.4939 -4.191,0.7448 -5.9316,0.7448 -2.8552,0 -5.0546,-0.4803 -6.6252,-1.4383 -1.5706,-0.9526 -2.6744,-2.2102 -3.3058,-3.7646 -0.6369,-1.5598 -0.9607,-4.8387 -0.9607,-9.8312 v -28.2574 h -5.7508 v -6.4767 h 5.7508 v -12.1655 l 7.7963,-4.9925 v 17.158 h 7.8827 v 6.4767 h -7.8827 v 28.7216 c 0,2.3721 0.1403,3.9022 0.4183,4.5796 0.2672,0.68 0.7124,1.2144 1.3412,1.6138 0.6288,0.4048 1.5248,0.6045 2.6852,0.6045 0.8689,0 2.0293,-0.1134 3.438,-0.3266 z"
       style="fill:#007b60;fill-rule:evenodd"
       id="path64" />
    <path
       d="m 1701.1592,1489.6939 v -7.2162 c -3.5973,5.5511 -8.4926,8.3253 -14.6725,8.3253 -2.731,0 -5.2812,-0.5559 -7.6533,-1.665 -2.3613,-1.1092 -4.1236,-2.5071 -5.2543,-4.1856 -1.1523,-1.6786 -1.9619,-3.7376 -2.4369,-6.1745 -0.313,-1.63 -0.4776,-4.2261 -0.4776,-7.7721 v -30.4298 h 7.8368 v 27.2454 c 0,4.3421 0.17,7.2755 0.4939,8.7868 0.4965,2.1886 1.5328,3.9049 3.1223,5.1544 1.6111,1.2468 3.5784,1.8728 5.9316,1.8728 2.3532,0 4.5688,-0.6422 6.6063,-1.9187 2.0752,-1.2791 3.5325,-3.0279 4.3799,-5.23 0.8662,-2.202 1.2953,-5.4026 1.2953,-9.5936 v -26.3171 h 7.8342 v 49.1179 z"
       style="fill:#007b60;fill-rule:evenodd"
       id="path66" />
    <path
       d="m 1770.5627,1482.2456 1.1389,7.3538 c -2.1967,0.4939 -4.1775,0.7448 -5.9208,0.7448 -2.8552,0 -5.0627,-0.4803 -6.6252,-1.4383 -1.5598,-0.9526 -2.6662,-2.2102 -3.3031,-3.7646 -0.6369,-1.5598 -0.9526,-4.8387 -0.9526,-9.8312 v -28.2574 h -5.7589 v -6.4767 h 5.7589 v -12.1655 l 7.7882,-4.9925 v 17.158 h 7.8746 v 6.4767 h -7.8746 v 28.7216 c 0,2.3721 0.1404,3.9022 0.4102,4.5796 0.2753,0.68 0.7206,1.2144 1.3601,1.6138 0.6207,0.4048 1.514,0.6045 2.6744,0.6045 0.8743,0 2.0186,-0.1134 3.4299,-0.3266 z"
       style="fill:#007b60;fill-rule:evenodd"
       id="path68" />
    <path
       d="m 1811.2771,1489.6939 v -49.1179 h 7.8449 v 49.1179 z m 0,-58.2231 v -9.5775 h 7.8449 v 9.5775 z"
       style="fill:#007b60;fill-rule:evenodd"
       id="path70" />
    <path
       d="m 1869.1898,1465.1363 c 0,6.2878 1.3035,10.9969 3.8861,14.13 2.5799,3.1251 5.8263,4.6903 9.7448,4.6903 3.8968,0 7.1217,-1.5706 9.7124,-4.7172 2.5879,-3.1386 3.8752,-7.9394 3.8752,-14.3838 0,-6.0692 -1.2953,-10.6758 -3.8941,-13.8008 -2.6069,-3.1331 -5.8264,-4.6956 -9.6935,-4.6956 -3.9185,0 -7.1676,1.5571 -9.7448,4.6659 -2.5826,3.1223 -3.8861,7.826 -3.8861,14.1112 z m -8.0527,0 c 0,-9.0944 2.3883,-15.8356 7.1487,-20.2128 3.9697,-3.6351 8.8164,-5.454 14.5349,-5.454 6.3633,0 11.569,2.2129 15.5954,6.6387 4.0371,4.4204 6.0557,10.5355 6.0557,18.3345 0,6.3229 -0.8932,11.2911 -2.6743,14.9127 -1.7919,3.6243 -4.388,6.4389 -7.7883,8.4413 -3.4165,2.0078 -7.1514,3.0063 -11.1885,3.0063 -6.4795,0 -11.6986,-2.2021 -15.6872,-6.6143 -3.9967,-4.4123 -5.9964,-10.7568 -5.9964,-19.0524 z"
       style="fill:#007b60;fill-rule:evenodd"
       id="path72" />
    <path
       d="m 1946.665,1489.6939 v -49.1179 h 7.0462 v 6.9867 c 3.4056,-5.3945 8.301,-8.0932 14.7156,-8.0932 2.8012,0 5.3703,0.5317 7.7127,1.5949 2.3236,1.0606 4.0831,2.4585 5.2381,4.1856 1.1685,1.7217 1.9781,3.7727 2.4369,6.1475 0.2941,1.5436 0.4344,4.245 0.4344,8.0959 v 30.2005 h -7.8341 v -29.8766 c 0,-3.3949 -0.3157,-5.9262 -0.9256,-7.6048 -0.5991,-1.6839 -1.684,-3.0252 -3.2465,-4.0264 -1.5409,-1.0039 -3.3598,-1.5004 -5.4647,-1.5004 -3.3329,0 -6.2177,1.1199 -8.6438,3.376 -2.4153,2.248 -3.6377,6.5145 -3.6377,12.805 v 26.8272 z"
       style="fill:#007b60;fill-rule:evenodd"
       id="path74" />
    <path
       d="m 559.4629,776.865 c 41.6157,0 75.3756,33.7572 75.3756,75.3756 0,41.6265 -33.7599,75.3703 -75.3756,75.3703 -41.6211,0 -75.3783,-33.7438 -75.3783,-75.3703 0,-41.6184 33.7572,-75.3756 75.3783,-75.3756 z"
       style="fill:#007b60;fill-rule:evenodd"
       id="path76" />
    <path
       d="m 285.3515,1151.3117 273.9981,-210.1321 172.9151,181.3673 -165.1997,126.6741 -50.4025,-52.869 106.2319,-81.4746 -72.0887,-75.5942 -265.4542,203.569 z"
       style="fill:#007b60;fill-rule:evenodd"
       id="path78" />
    <path
       d="m 549.513,1060.5268 50.4052,52.8772 -106.2157,81.4664 72.0698,75.5943 265.4758,-203.5745 v 91.554 L 557.2311,1368.5655 384.3348,1187.209 Z"
       style="fill:#007b60;fill-rule:evenodd"
       id="path80" />
  </g>
</svg>
