<?xml version="1.0" encoding="UTF-8" standalone="no"?>
<svg
   version="1.1"
   width="1700.7867"
   height="1393.2771"
   id="svg7"
   viewBox="0 0 1700.7868 1393.2771"
   sodipodi:docname="e0a7a58b625e3fb22f4fdef80ed8a234.cdr"
   xmlns:inkscape="http://www.inkscape.org/namespaces/inkscape"
   xmlns:sodipodi="http://sodipodi.sourceforge.net/DTD/sodipodi-0.dtd"
   xmlns="http://www.w3.org/2000/svg"
   xmlns:svg="http://www.w3.org/2000/svg">
  <defs
     id="defs11" />
  <sodipodi:namedview
     id="namedview9"
     pagecolor="#ffffff"
     bordercolor="#666666"
     borderopacity="1.0"
     inkscape:pageshadow="2"
     inkscape:pageopacity="0.0"
     inkscape:pagecheckerboard="0" />
  <g
     id="Layer1000"
     transform="translate(-283.46479,-437.21975)">
    <path
       d="m 684.8721,437.455 c 83.812,-0.1702 167.6239,-0.1315 251.4364,-0.037 7.5193,-0.7769 11.8751,6.2693 16.6294,10.7771 61.9741,62.0118 123.9472,124.0042 185.9015,186.0154 64.0009,-64.3231 128.2279,-128.3982 192.3985,-192.55 2.5572,-2.9556 6.0803,-4.9244 10.114,-4.337 83.7368,0.1702 167.4543,-0.152 251.19,0.1514 0.2282,215.6945 0.038,431.3713 0.095,647.0669 -0.1514,86.7472 0.3034,173.5142 -0.2276,260.2625 -47.0667,1.1924 -94.172,0.2083 -141.2585,0.5299 -220.9035,0 -441.7887,0 -662.6928,0 -34.4908,-0.3222 -69.0193,0.6631 -103.4914,-0.5868 -0.284,-302.4434 -0.1138,-604.8673 -0.0945,-907.2919 z m 95.6688,95.5749 c -0.095,238.8407 -0.2083,477.7002 0.057,716.5598 238.8026,0.056 477.6245,0 716.4266,0.038 -0.1504,-237.6102 0.038,-475.2381 -0.076,-712.8289 0.9481,-3.7884 -3.4093,-3.9962 -5.871,-3.8066 -37.2935,0.1133 -74.6068,0 -111.9008,0.0569 -3.1259,-0.3603 -5.7583,1.3825 -7.8039,3.5226 -54.9085,55.1544 -110.0823,110.026 -164.9721,165.1998 32.0287,31.9331 64.0756,63.8484 95.9528,95.934 1.5721,2.1589 4.1857,2.5191 6.686,2.5191 59.4545,0.473 118.9466,-0.6255 178.3823,0.5112 -28.2017,37.862 -57.5228,74.8913 -86.293,112.3174 -38.7329,0.3979 -77.4862,-0.189 -116.2196,0.2846 21.9145,21.6488 43.8092,43.3551 65.3448,65.3829 -4.5449,7.0264 -10.9286,12.5006 -16.7432,18.3909 -63.4506,63.6214 -127.1675,126.9968 -190.5425,190.6558 -1.0222,0.1702 -3.0871,0.4928 -4.1292,0.6442 -54.8136,-55.0605 -109.9305,-109.8364 -164.7258,-164.9345 -60.6474,-0.3603 -121.3148,0.3597 -181.9622,-0.3791 4.9437,-10.0384 12.8989,-18.0693 19.4711,-27.0092 20.2475,-26.5168 40.7978,-52.8061 61.1022,-79.266 2.6518,-3.1446 5.303,-7.6519 10.1522,-6.7429 37.3129,-0.1138 74.645,0.0569 111.9578,0 -21.7814,-22.0848 -43.98,-43.7717 -65.6675,-65.9322 46.7649,-47.9004 94.798,-94.5703 141.6762,-142.3574 -53.8294,-54.7577 -108.6623,-108.5485 -162.7,-163.1161 -2.7651,-2.5567 -5.5306,-6.1937 -9.7732,-5.6251 -39.2827,-0.058 -78.5466,0.0376 -117.8293,-0.0193 z m 220.4117,374.0381 c -2.9926,2.008 -2.008,5.8908 0.5681,7.7281 46.2151,46.5179 92.6949,92.7712 139.0238,139.1565 45.4764,-45.8742 91.2931,-91.4075 136.9402,-137.0728 1.6483,-2.0273 5.209,-4.8111 1.7422,-6.9512 -46.7826,-46.9351 -93.6983,-93.7371 -140.5384,-140.6147 -45.8554,45.9869 -91.7677,91.9186 -137.7359,137.7541 z"
       style="fill:#a88b53;fill-rule:evenodd"
       id="path2" />
    <path
       d="m 1301.6907,1446.1551 c 10.228,0.076 20.4747,0.019 30.7214,0.1132 -0.1133,7.9741 -0.1133,15.9486 -0.019,23.9221 -10.2274,0.038 -20.4746,0.019 -30.7026,0.038 -0.1132,-8.0309 -0.1138,-16.0618 0,-24.0734 z m 331.8965,19.4706 c 9.2051,-11.0612 22.917,-18.0312 37.2741,-19.0352 13.5245,-0.8714 27.1037,-0.1326 40.6465,-0.3973 -0.018,8.8636 -0.056,17.7284 0.019,26.5925 -11.685,0.1702 -23.4103,-0.5685 -35.0777,0.4161 -7.0451,0.4548 -13.1067,4.4515 -18.4671,8.7128 19.5286,0.7388 39.0932,-0.056 58.64,0.4172 17.8422,0.7001 34.3201,14.1865 38.1085,31.7065 2.3301,8.1442 1.0228,16.5537 0.4735,24.831 5.6257,4.4509 13.1449,3.8072 19.9066,3.9774 9.4704,-0.2277 18.9971,0.4354 28.4674,-0.4167 4.6979,-0.1326 8.0879,-4.5078 8.0691,-9.0349 0.3608,-16.421 -0.019,-32.8619 0.1133,-49.2835 10.1344,-0.038 20.2668,-0.019 30.4185,0 -0.037,16.4028 0.038,32.8244 0,49.2459 -0.1692,10.5307 -2.8784,22.1224 -11.3071,29.1874 -6.8943,6.0605 -16.4973,7.4812 -25.3615,7.254 -14.5274,-0.2083 -29.0548,0.1896 -43.5821,-0.1514 -7.7851,-0.1895 -14.9253,-3.7878 -20.873,-8.5989 -9.7914,8.9205 -23.5049,9.2808 -35.9679,8.7316 -37.9184,-0.095 -75.8191,0.057 -113.7193,-0.076 -17.519,-0.095 -33.9035,-12.6713 -39.112,-29.263 -3.863,-14.6606 -0.3978,-30.4943 8.2581,-42.7871 10.3422,0.6062 15.9099,11.0993 23.7131,16.6111 -2.3473,6.0605 -6.0986,12.8603 -2.9357,19.3761 2.4058,6.2694 9.2625,9.2997 15.6828,9.0725 35.3816,0.2459 70.7809,0 106.1812,0.1139 6.9512,0.4166 14.5655,-1.7428 18.5429,-7.8608 5.683,-7.0457 3.6364,-18.808 -4.1481,-23.4291 -5.0184,-2.6711 -10.891,-2.3296 -16.384,-2.4434 -27.1982,0.1326 -54.3969,-0.057 -81.5956,0.1138 -0.1514,-15.475 3.4662,-31.7635 14.0163,-43.5822 z m 172.9837,-19.4706 c 10.1522,0.1132 20.3039,-0.019 30.4561,0.1132 -0.019,7.9934 0,15.9862 -0.019,23.979 -10.1704,-0.019 -20.3232,-0.076 -30.4947,0 0.1149,-8.0309 0.095,-16.0613 0.057,-24.0922 z m 58.2422,0.1132 c 10.0384,-0.076 20.0961,-0.1132 30.1339,0 -0.075,29.0548 -0.1514,58.1289 0.019,87.1837 -0.2653,4.394 2.86,8.694 7.4811,8.8642 13.1642,1.0604 26.4224,0.3603 39.6236,0.4166 5.0012,0.3791 10.9479,-1.9886 11.3833,-7.6894 0.9289,-16.952 0.1139,-33.9604 0.3791,-50.9318 10.1152,0 20.2475,0 30.3997,0 -0.038,16.4404 0.057,32.8813 0,49.3028 -0.2266,10.0948 -2.576,21.0808 -10.2655,28.2215 -6.4777,6.307 -15.9104,8.2769 -24.6608,8.1443 -17.6146,-0.076 -35.2296,0.094 -52.8442,-0.095 -9.0338,-0.094 -18.4102,-3.4469 -24.1497,-10.6633 -5.6632,-7.2353 -7.6706,-16.6675 -7.5568,-25.6831 0.076,-29.0172 0,-58.0532 0.056,-87.0704 z m -1310.404,53.867 c 5.7014,-12.0082 18.0887,-19.9441 31.1578,-21.3078 13.088,-1.1554 27.4447,-1.1173 38.828,6.4207 11.6866,8.1636 18.6561,22.4257 19.3573,36.4989 -3.1441,8.2387 -10.1715,14.224 -15.6452,20.9669 15.5883,0.1708 31.1573,0.095 46.7456,0.1139 4.868,-0.019 11.1937,-0.057 13.5233,-5.3035 1.8373,-5.5875 0.7007,-11.6104 1.1748,-17.3687 0.4354,-17.4062 11.8563,-34.8124 28.8459,-40.0021 8.5045,-2.7087 17.6151,-2.5572 26.4036,-1.7428 13.7317,1.4207 26.2135,10.2661 32.4641,22.5202 10.4743,20.1906 5.3222,47.4087 -12.4819,61.8222 -9.6598,8.1824 -22.8423,9.8113 -35.0401,8.8642 -8.9399,-0.1707 -17.1415,-4.0342 -24.3955,-8.9587 -5.8716,3.6171 -12.2354,7.1402 -19.3574,7.0264 -17.0465,0.2083 -34.093,0 -51.1395,0.057 -11.8563,-0.2083 -24.0353,1.2881 -35.4568,-2.7462 -3.5607,-1.4963 -7.1783,0.3978 -10.6633,1.1178 -8.3906,2.4053 -17.1791,1.5527 -25.7781,1.6478 -44.4535,0.019 -88.8883,-0.038 -133.3418,0 0.0187,-8.9974 0.0381,-17.9936 0,-26.9717 16.5348,0.019 33.0514,0.057 49.5868,-0.019 -0.1332,-10.7208 0.3028,-21.4411 -0.152,-32.142 0.2089,-5.6637 -7.1407,-11.2888 -11.9889,-6.9512 -3.1634,1.8367 -4.0729,5.6439 -5.5306,8.7504 -9.5084,0.1889 -19.0164,0.094 -28.506,0.1138 0.4354,-8.6183 2.9738,-17.8422 10.2848,-23.1833 10.986,-8.1259 25.4747,-7.8226 38.4682,-6.7622 11.1369,1.0985 22.9368,7.3109 26.2135,18.7512 3.6939,13.467 1.2311,27.6346 1.9892,41.4233 17.9367,0.019 35.8734,0.1514 53.8101,-0.076 -5.4168,-6.6485 -12.4061,-12.5957 -15.2286,-20.9106 -0.4349,-7.5955 2.6711,-14.9059 5.8527,-21.6494 z m 176.0151,2.0649 c -7.9552,4.7731 -10.5688,14.8684 -9.887,23.6187 0.3597,7.9171 2.8219,17.6908 10.9479,20.9675 6.6667,3.39 14.565,-1.8942 17.1217,-8.2011 3.8077,-9.3002 4.1486,-20.3994 -0.4161,-29.5095 -3.0115,-6.2887 -11.2319,-10.5501 -17.7665,-6.8756 z m -150.2746,14.3567 c 4.205,6.781 9.7356,12.5956 15.8724,17.6908 6.0229,-5.2278 11.7806,-10.9098 16.0425,-17.7284 -3.9962,-5.7958 -9.035,-12.5006 -16.7056,-12.9177 -7.1402,1.1366 -11.895,6.9893 -15.2093,12.9553 z m 587.9158,-16.3834 c 5.966,-12.6145 19.2811,-20.7018 33.0321,-21.5356 12.8985,-0.8901 27.0849,-0.6249 37.9947,7.3115 10.986,8.3901 17.8041,22.1412 18.2776,35.8734 -3.1629,8.2575 -10.1522,14.224 -15.6259,20.91 14.2622,0.057 28.5625,0.1326 42.8434,0.076 4.6216,-0.1895 9.9627,-0.057 13.524,-3.5983 4.0154,-3.2391 4.1287,-8.7696 4.2044,-13.4858 5e-4,-11.9894 -0.076,-23.9977 -0.019,-35.9872 10.0196,0.057 20.058,-0.038 30.0964,0.1326 0.1138,12.6714 -0.5112,25.3615 0.3033,38.014 0.4166,6.4584 4.5078,12.9742 11.3264,14.0158 13.7704,1.8748 27.748,0.5304 41.5935,0.8714 -0.037,-18.0887 0.038,-36.158 -0.038,-54.2273 9.9825,-0.038 19.9635,-0.056 29.9455,0.057 -0.3222,3.2579 -0.6819,6.497 -1.0228,9.7925 13.0305,-10.3229 29.3764,-17.0465 46.1765,-16.3077 17.3697,-0.6062 35.476,6.7617 45.8366,21.0238 7.2728,9.8682 7.7656,22.8993 5.7958,34.5666 -3.4652,18.5428 -21.7439,31.9148 -40.2298,32.0093 -41.6504,0.152 -83.3196,0.038 -124.97,0.076 -8.92,0.3597 -17.2924,-3.4663 -24.0165,-9.0538 -5.8528,5.4356 -13.3908,8.9968 -21.4787,8.9587 -23.9596,0.2653 -47.9385,0 -71.8981,0.1139 -6.6672,0.2652 -12.9747,-1.9887 -19.3767,-3.4094 -6.8562,1.0035 -13.4852,3.7884 -20.5503,3.4281 -19.5275,-0.2083 -39.0362,0.1896 -58.5455,-0.1138 -8.1061,-0.019 -15.664,-3.4844 -21.8008,-8.5984 -6.6854,5.4731 -15.0197,8.8073 -23.7513,8.6553 -27.7474,0 -55.4771,0.076 -83.2251,-0.038 -16.137,-0.057 -31.3655,-10.6445 -37.7858,-25.3045 -6.0041,-15.096 -2.9357,-32.9376 6.4584,-46.0256 1.5532,0.056 4.6785,0.1514 6.2505,0.1895 5.9854,5.2085 11.9133,10.4551 17.7853,15.7961 -2.4434,6.0611 -6.0991,12.8797 -2.8982,19.433 2.6899,7.0839 10.7208,9.3759 17.6339,9.0156 22.8048,-0.1138 45.609,0.2841 68.3944,-0.189 5.3035,0.4161 9.7925,-4.148 9.6975,-9.3946 0.5873,-16.3459 0.037,-32.7293 0.2083,-49.094 10.1522,-0.038 20.2851,-0.019 30.4373,-0.019 0.1519,14.5467 -0.2653,29.0929 0.1331,43.6391 0.2465,7.5198 6.3257,14.5279 14.0914,14.6224 14.8689,0.9471 29.7936,0.2652 44.7,0.3222 -5.3222,-6.2506 -11.5916,-12.0464 -15.039,-19.6038 -1.3825,-7.9552 2.292,-15.8342 5.5306,-22.918 z m 25.7593,16.8194 c 4.4316,6.4395 9.8107,12.1784 15.7961,17.2355 6.1367,-5.1516 11.8375,-10.9098 16.0613,-17.766 -3.8823,-5.8527 -8.9399,-12.1027 -16.421,-12.9741 -7.2922,1.3068 -12.3874,7.1026 -15.4369,13.5046 z m 220.6007,25.7018 c 16.0994,0.152 32.1983,0.2465 48.2977,0.019 9.3383,0.3029 20.0016,-6.7429 19.5093,-16.8757 -1.1925,-12.0658 -14.4329,-18.0693 -25.2101,-18.0887 -19.811,1.3256 -36.2336,16.7249 -42.5974,34.9457 z M 379.834,1484.1116 c 10.0389,0 20.0768,0 30.1157,0 -0.0569,19.5281 0.1326,39.0749 -0.0569,58.6212 -0.379,19.0164 -9.5842,37.9571 -25.5504,48.6586 -14.0163,9.9245 -32.0475,11.8944 -48.7155,10.0572 -17.8803,-2.1025 -33.8659,-13.5234 -42.9572,-28.8653 -11.9895,-19.1871 -10.5501,-43.4877 -5.3416,-64.6254 10.5882,0.076 21.1951,0 31.7822,0.038 -3.9204,12.0463 -7.9171,24.8498 -5.0377,37.5968 3.7309,14.3948 16.1751,26.9335 31.233,28.7138 19.9822,-0.1138 35.8921,-19.4894 34.5665,-38.9605 -0.0193,-17.0846 -0.0381,-34.1687 -0.0381,-51.2346 z m 463.5901,15.096 c 8.163,-10.0196 21.1752,-14.5274 33.7896,-14.944 15.8342,-0.3979 31.6684,-0.038 47.5214,-0.152 -0.037,25.9107 0.0575,51.8214 -0.0376,77.7321 0.0194,11.2888 -3.7502,23.1645 -12.9934,30.2677 -14.2047,11.1556 -33.8273,10.9849 -50.7412,7.6518 -2.4815,-8.353 -5.0764,-16.6868 -7.0838,-25.1719 12.463,2.1401 28.4298,6.9512 37.8239,-4.6404 -8.3144,-0.436 -16.8001,0.473 -24.9448,-1.6859 -14.9247,-3.6557 -27.5585,-15.9104 -30.9296,-30.9871 -2.3865,-12.9553 -1.3262,-27.6717 7.5949,-38.0703 z m 28.8652,13.7698 c -7.6143,5.9091 -8.6183,18.4484 -1.3261,25.0205 6.061,6.0417 15.2286,4.6216 23.0125,4.83 0.0387,-11.2132 0,-22.4257 0.0193,-33.6195 -7.254,0.3028 -15.9099,-1.9135 -21.7057,3.769 z m 133.8911,-26.3085 c 10.2467,-0.038 20.4929,-0.076 30.7401,0.019 -0.076,7.7276 -0.095,15.4745 0.038,23.2214 -10.266,0.1702 -20.5508,0.057 -30.8168,0.1133 -0.018,-7.8033 -0.038,-15.5877 0.038,-23.3534 z m 37.4073,0.038 c 10.0384,-0.1132 20.0961,-0.056 30.1345,-0.075 0,7.8033 0.038,15.5877 -0.019,23.391 -10.0577,-0.038 -20.1149,0.057 -30.1538,-0.1514 0.1138,-7.7276 0.1138,-15.4551 0.038,-23.1639 z m -710.5556,12.179 c 10.1334,-0.057 20.2856,-0.037 30.4373,-0.037 -0.0188,7.9928 -0.0188,15.9668 -0.0188,23.9596 -10.1522,-0.1139 -20.3232,-0.094 -30.4754,-0.019 0.0569,-7.974 0.0569,-15.948 0.0569,-23.9033 z m 1615.0824,103.0748 c 0.019,-8.0121 -0.02,-16.0237 0.075,-24.0165 10.1141,0.189 20.247,0.1133 30.3992,0.076 -0.037,7.9735 -0.038,15.9668 -0.038,23.9596 -10.1517,-0.076 -20.3044,0 -30.4378,-0.019 z m -1114.2177,96.3507 c 8.5608,-7.4624 20.9294,-6.5346 31.2706,-4.205 -0.53,4.205 -1.1554,8.41 -1.8754,12.6144 -3.6171,-0.8333 -7.1971,-1.6665 -10.7579,-2.5567 -9.546,3.106 -11.0048,13.6372 -11.0423,22.2743 5.7582,0.095 11.5347,0.075 17.3117,0.1133 0.0188,3.7883 0.0564,7.5955 0.0945,11.4214 -5.7196,-0.038 -11.4402,-0.019 -17.1598,-0.038 0.0945,20.2094 0.0752,40.4193 0,60.6287 -5.5875,-0.019 -11.1755,-0.038 -16.763,-0.095 -0.0183,-20.153 -0.0376,-40.2867 0.0193,-60.4392 -3.3712,-0.076 -6.7241,-0.1326 -10.0765,-0.1707 -0.0564,-3.7884 -0.0945,-7.5574 -0.1326,-11.3076 3.3336,-0.019 6.6479,-0.038 9.9815,-0.038 0.2276,-9.887 1.0609,-21.2698 9.1299,-28.2022 z m -190.2391,-4.3945 c 5.5301,0.019 11.08,0.019 16.6293,5e-4 0.057,19.906 -0.1138,39.8126 0.1327,59.7192 7.69,-8.6366 14.5086,-18.05 22.6533,-26.2516 6.5153,-1.9699 13.8074,-0.5112 20.6072,-0.4167 -8.7503,10.171 -18.2019,19.7171 -27.3313,29.5471 10.3036,13.8649 21.1183,27.3695 30.9108,41.5935 -6.8186,0.5117 -13.6372,0.5117 -20.4558,0.341 -7.1402,-10.4551 -14.7926,-20.5504 -22.0848,-30.8915 -1.5151,1.6096 -3.0114,3.2197 -4.5078,4.8675 0.1139,8.7128 0.1139,17.4255 0.0382,26.1378 -5.5306,-0.019 -11.0424,-0.019 -16.5542,0 -0.0945,-34.8887 0,-69.7769 -0.0376,-104.6463 z m 420.7831,0.019 c 5.6069,-0.019 11.2132,0 16.8195,-0.038 0.474,34.9075 -0.8902,69.8719 0.7763,104.7413 -5.2648,-0.076 -10.5114,-0.094 -15.7579,-0.094 0.038,-1.6477 0.1132,-4.9432 0.1514,-6.5915 -13.5234,11.4214 -37.351,11.3833 -47.7115,-4.2045 -9.2615,-14.3759 -9.262,-34.4339 -0.3785,-48.9806 9.546,-15.1712 31.6303,-17.1223 46.1577,-8.3338 -0.095,-12.179 0.019,-24.3386 -0.057,-36.4983 z m -19.622,43.1655 c -11.8375,2.8601 -16.6298,16.3835 -15.8535,27.3883 -0.038,10.1517 6.061,21.535 16.9327,23.0882 10.2666,0.6438 18.5053,-9.3946 18.4865,-19.2054 0.038,-7.349 1.2311,-15.2855 -2.292,-22.0659 -3.1817,-6.0423 -10.2849,-10.7772 -17.2737,-9.2052 z m -631.9145,-37.1238 c 16.7056,-1.2875 34.7185,-4.5078 50.4764,2.9739 11.1944,5.5687 14.2815,20.6829 8.9217,31.328 -2.3296,4.7537 -6.8004,7.8033 -11.1181,10.6064 5.1515,2.7463 10.7578,5.6063 13.7312,10.891 7.5198,12.8227 3.6176,32.5779 -10.8148,38.771 -16.0994,6.8949 -34.1499,4.6029 -51.1583,3.8453 -0.0757,-32.8056 0,-65.61 -0.0381,-98.4156 z m 16.8194,10.1522 c 0,10.1334 0,20.2856 0.0188,30.4378 8.5425,-0.076 18.7323,0.3029 24.6989,-6.97 5.3035,-5.6068 4.3371,-15.2285 -1.6864,-19.8877 -6.591,-4.9438 -15.3038,-4.1862 -23.0313,-3.5801 z m 0.0193,41.3852 c -0.0193,12.1033 -0.0193,24.2254 -0.0193,36.3469 8.8642,0.6255 18.9782,0.5117 26.024,-5.7008 7.5004,-6.2693 7.1788,-19.433 -0.7388,-25.2288 -7.1209,-5.7013 -16.6669,-5.4549 -25.2664,-5.4173 z m 1017.6576,-42.0858 c 6.8943,-12.2923 23.8275,-14.3379 35.8922,-9.3947 9.7742,4.0912 13.5615,16.3271 10.5688,25.9488 -2.4992,9.6594 -11.7237,15.0767 -19.6977,19.8497 6.7236,7.9359 13.5798,15.7585 20.5884,23.4673 3.6176,-8.1635 6.1931,-16.7625 7.5187,-25.6074 5.3422,-0.1138 10.7015,-0.1331 16.0619,-0.1707 -2.3296,12.9172 -5.7013,26.0052 -13.4477,36.8581 5.4748,5.7958 11.0048,11.5728 15.9287,17.8803 -6.7037,0.3221 -13.3908,0.3221 -20.0768,0.3221 -2.3484,-2.5384 -4.6592,-5.0764 -6.9131,-7.6336 -9.9621,7.3678 -22.6533,10.0008 -34.8511,8.5045 -9.7345,-0.7195 -19.4706,-6.2501 -23.5806,-15.3607 -3.4463,-8.1635 -3.3336,-17.8041 0.341,-25.8538 3.1634,-6.7048 9.2432,-11.3076 15.3037,-15.2661 -6.3821,-9.7356 -9.6217,-22.8612 -3.6364,-33.5438 z m 16.6873,1.6289 c -7.8602,6.97 -3.5424,17.9555 1.2494,25.3803 6.8755,-3.921 15.3606,-10.0953 13.6941,-19.1303 -0.852,-6.8561 -9.5842,-12.2734 -14.9445,-6.25 z m -13.7129,53.0337 c -3.5038,9.2997 2.3855,20.5885 11.8746,23.3535 8.1641,3.201 16.2514,-2.0456 22.7478,-6.5153 -8.9769,-9.2056 -17.141,-19.1678 -26.0245,-28.4491 -3.3325,3.4855 -7.1214,6.8567 -8.599,11.6109 z m -550.7356,-64.796 c 5.6257,-0.019 11.2695,-0.038 16.8946,-0.094 -0.0376,33.1271 -0.0376,66.2543 0,99.3621 -5.6439,-0.019 -11.2695,-0.019 -16.8951,0.019 0.0762,-33.0896 0.0575,-66.1974 0,-99.2869 z m 665.3822,-0.019 c 6.8186,0 13.6372,-0.019 20.4746,-0.038 8.0121,24.3199 17.5012,48.1475 24.4331,72.8271 7.3684,-24.6609 17.104,-48.5072 25.4946,-72.8077 6.8186,0.038 13.6372,0.057 20.4741,0.019 1.9323,33.0702 3.8834,66.1592 6.2318,99.2107 -5.493,0.038 -10.9855,0.038 -16.478,-0.019 -1.7422,-24.1873 -2.9169,-48.4121 -4.0911,-72.6375 -8.0879,24.2061 -17.104,48.0905 -25.7974,72.0882 -4.6211,-0.038 -9.2052,-0.038 -13.7887,-0.057 -7.5563,-23.5811 -16.0613,-46.8588 -23.2401,-70.5538 -1.3444,23.7138 -2.9358,47.4087 -4.0912,71.1407 -5.4549,0.095 -10.8904,0.095 -16.3271,0.1707 2.0655,-33.1459 4.8112,-66.2162 6.7054,-99.3433 z m 116.1058,1.6477 c 3.9016,-2.5948 9.6974,-2.4429 13.751,-0.1326 4.6404,3.7502 4.3747,13.2963 -1.9135,15.2474 -3.5977,0.7387 -7.5193,0.8901 -10.9661,-0.436 -5.2842,-2.8219 -5.1709,-11.0419 -0.872,-14.6788 z m -439.4404,8.9023 c 5.3604,-1.3637 10.7584,-2.6517 16.2508,-3.4662 0.1708,6.7236 0.1515,13.4477 0.1327,20.1718 5.9289,0 11.8568,0.019 17.8046,0.019 0,3.7883 0.018,7.5955 0.056,11.4021 -5.9473,-0.019 -11.8757,-0.019 -17.8229,0.019 0.2464,13.94 -0.6631,27.9182 0.4547,41.8206 -0.1138,4.1669 3.7121,6.2313 6.7429,8.2011 3.1817,-0.5873 6.4015,-1.0984 9.6218,-1.5527 0.2271,3.9017 0.4735,7.8033 0.757,11.7431 -8.068,1.6096 -16.8382,2.9733 -24.679,-0.1708 -7.0651,-3.1628 -9.1295,-11.5159 -9.2814,-18.5616 -0.189,-13.8267 0,-27.6723 0,-41.4797 -3.674,-0.019 -7.3109,-0.019 -10.9474,0 0,-3.8071 0.019,-7.6143 0.038,-11.4026 3.6182,-0.038 7.2353,-0.038 10.8534,-0.038 0,-5.5875 0,-11.1562 0.019,-16.7056 z m -750.1417,21.5731 c 11.2132,-6.2881 24.7747,-7.7276 37.2189,-4.8487 9.9815,2.3296 15.7204,12.4442 16.2127,22.1223 1.0233,16.573 -0.7382,33.2791 1.4963,49.814 -5.246,0.038 -10.4743,0.076 -15.7209,0.1138 -0.0569,-1.2692 -0.189,-3.8259 -0.2459,-5.0952 -9.2996,6.8374 -22.0847,8.3526 -32.7486,4.1293 -13.9964,-6.2124 -14.5274,-27.9944 -2.8601,-36.7447 9.6223,-7.6143 22.4075,-8.1636 34.1124,-8.9024 -0.8526,-5.4167 -2.2732,-11.7049 -7.8607,-14.1107 -8.8825,-4.11 -17.7467,2.0649 -26.1373,4.4702 -1.2129,-3.6369 -2.3683,-7.3115 -3.4668,-10.9479 z m 16.5548,36.9912 c -2.7463,2.4429 -3.637,6.2501 -5.209,9.4892 1.8566,3.8071 3.3142,8.7127 7.8983,10.0953 5.5306,1.6096 11.4778,-1.7997 14.8683,-6.0423 4.5078,-5.398 2.9358,-12.8227 3.0684,-19.2623 -7.0839,0.7007 -14.6794,1.3825 -20.626,5.7201 z m 68.8298,-35.7413 c 9.7543,-7.3485 23.1263,-9.7538 34.5477,-5.1327 9.0725,4.0911 13.8831,14.0919 14.2053,23.6949 0.4735,15.7585 -0.0193,31.517 0.2271,47.2755 -5.6251,0.038 -11.2314,0.038 -16.857,0 -0.1326,-13.8831 0.1326,-27.7668 -0.0569,-41.6316 -0.2083,-7.1215 -2.6324,-16.0613 -10.2279,-18.4666 -10.0003,-2.9927 -19.3955,6.7804 -19.774,16.3646 -0.4166,14.565 -0.0569,29.1493 -0.0569,43.7336 -5.6063,0.038 -11.2126,0.057 -16.8194,0.019 -0.1326,-23.9596 0.7769,-47.9574 -0.5868,-71.8982 5.1139,-0.057 10.2467,-0.076 15.3606,-0.076 0.0188,1.5339 0.0382,4.5835 0.0382,6.1174 z m 189.576,-6.534 c 12.3873,-2.1407 27.0092,-0.6819 35.8734,9.2239 11.1374,12.8796 11.7435,32.7293 4.3939,47.5976 -9.6781,17.6715 -34.4522,21.1189 -51.2716,12.3873 -14.319,-8.2011 -18.6948,-26.7064 -15.4369,-41.9344 1.9699,-13.467 12.8797,-25.1913 26.4412,-27.2744 z m 5.5499,11.0042 c -20.4182,6.8374 -21.3841,40.5138 -2.5572,49.814 5.7013,3.1816 12.463,0.3978 16.9514,-3.5801 10.1528,-10.4743 10.6827,-28.2779 1.9893,-39.775 -3.8448,-4.6592 -10.2661,-8.1635 -16.3835,-6.4589 z m 415.8405,-8.978 c 11.0799,-4.773 24.2431,-3.5038 35.0583,1.5157 -1.3449,3.8635 -2.6705,7.7088 -4.0723,11.5723 -6.155,-1.6478 -12.2354,-5.5682 -18.77,-4.1288 -5.2841,1.1742 -9.7544,8.5233 -4.8675,12.7283 6.3075,5.7196 15.3988,6.7805 22.0848,11.9701 11.743,8.5233 9.546,29.8124 -4.1674,35.2297 -12.4625,4.7349 -26.9711,3.6745 -38.9794,-1.9699 1.3074,-4.0536 2.481,-8.1635 4.2619,-12.0271 7.9928,1.8749 16.3453,8.4095 24.6603,3.9586 5.2847,-2.3489 7.1214,-9.698 2.7655,-13.8268 -7.0081,-6.2881 -17.5581,-6.8943 -24.1872,-13.8648 -9.0156,-9.0156 -5.3223,-26.0428 6.2124,-31.1567 z m 114.3249,5.5499 c 5.7958,-6.8567 14.7164,-9.6405 23.5054,-8.2768 0.7764,4.4697 0.5868,9.0344 0.568,13.5803 -10.8147,-2.1218 -20.4558,6.3451 -21.5355,16.8946 -1.1361,14.187 -0.2083,28.4679 -0.4547,42.6925 -5.5682,-0.038 -11.1557,-0.038 -16.7051,0 -0.2276,-23.9789 0.7195,-47.9955 -0.6636,-71.9556 5.1714,-0.076 10.3417,-0.094 15.5126,-0.094 -0.076,2.3672 -0.1514,4.7537 -0.2271,7.1595 z m 426.1817,-0.6442 c 10.6638,-8.8449 27.6529,-11.1181 39.1694,-2.7275 6.9512,5.3604 9.6593,14.376 9.8295,22.8617 0.1901,15.0954 -0.076,30.2102 0.095,45.3056 -5.6245,0.038 -11.2507,0.038 -16.857,0 -0.132,-13.8643 0.1139,-27.7099 -0.057,-41.5366 -0.075,-7.69 -3.2198,-17.4444 -11.8193,-19.0164 -9.6217,-1.3825 -17.8416,7.8414 -18.2013,16.9708 -0.378,14.5086 -0.057,29.036 -0.038,43.5634 -5.6062,0.057 -11.2125,0.076 -16.8,0.1138 -0.152,-23.9983 0.7382,-48.0148 -0.5874,-71.9744 5.115,-0.076 10.2472,-0.076 15.3988,-0.076 -0.038,1.6289 -0.095,4.8868 -0.1326,6.5153 z m -793.7233,-6.4396 c 5.152,-0.076 10.303,-0.076 15.4551,-0.076 -0.0564,1.6289 -0.1707,4.8868 -0.2464,6.5153 9.6223,-7.8033 23.2589,-10.1517 34.7942,-5.5118 8.9399,4.1292 13.8262,13.9974 14.1295,23.5435 0.4929,15.7966 -0.0757,31.5927 0.2653,47.3893 -5.6251,0.057 -11.2319,0.095 -16.857,0.1514 -0.2083,-13.9406 0.1138,-27.8806 -0.0951,-41.8018 -0.0563,-7.7657 -3.3523,-17.2549 -11.9325,-18.9595 -9.5079,-1.1935 -17.5958,7.8033 -18.0881,16.857 -0.3597,14.6219 -0.0188,29.2443 -0.1138,43.8667 -5.5682,-0.038 -11.1369,-0.038 -16.6868,0 -0.2835,-23.9983 0.7012,-48.0148 -0.6244,-71.9744 z m 164.9157,-0.057 c 5.6063,-0.019 11.2121,-0.019 16.8377,0 0.038,13.2963 -0.076,26.5925 -0.019,39.8888 0.038,7.027 1.4394,15.3419 7.8414,19.4143 10.0008,5.2277 21.8952,-5.3223 21.5924,-15.6452 0.2271,-14.565 -0.038,-29.1112 0.056,-43.6579 5.6068,-0.019 11.2319,-0.019 16.8575,0.019 0.3222,23.9977 -0.8338,48.0524 0.757,72.0313 -5.246,-0.038 -10.4925,-0.076 -15.7391,-0.1326 0,-1.6102 0.019,-4.8299 0.019,-6.4401 -10.9474,9.1294 -29.0741,11.4402 -40.2486,1.7046 -6.3263,-6.0417 -7.7088,-15.2468 -7.9359,-23.5811 -0.076,-14.5268 0.038,-29.0735 -0.019,-43.6009 z m 229.5782,0.019 c 6.1373,-0.038 12.2735,-0.038 18.4296,-0.019 5.9466,16.1187 12.027,32.1988 17.8604,48.374 5.7969,-16.0044 11.1369,-32.1608 16.4216,-48.3359 6.0234,-0.057 12.0276,-0.057 18.0693,0.019 -4.2227,12.463 -9.2621,24.6415 -13.8831,36.9719 -6.1556,15.6447 -11.3458,31.8391 -19.869,46.4234 -6.2501,10.5119 -16.5354,20.1718 -29.4333,20.4934 -1.1935,-4.0912 -2.3865,-8.1442 -3.5419,-12.2166 10.6638,-4.0342 19.1109,-12.5951 23.2401,-23.1832 -9.0156,-22.8799 -18.619,-45.5328 -27.2937,-68.527 z m 350.5338,-0.038 c 5.5306,0 11.0799,-0.019 16.6293,0 0.038,23.9789 -0.1138,47.9767 0.094,71.9739 -5.6245,0.038 -11.2314,0.019 -16.8189,-0.019 0.1901,-23.9784 0.038,-47.9762 0.094,-71.9551 z m 117.8862,11.0424 c 9.3935,-13.0311 28.3723,-15.1148 42.4638,-9.5273 13.9029,6.6103 16.8575,23.7325 15.8347,37.5974 -16.705,0.1133 -33.4112,-0.076 -50.1168,0.094 1.5528,7.3297 3.7691,15.6447 11.0612,19.3385 10.1146,6.5341 22.2931,2.0644 32.8244,-0.7769 0.8901,3.8453 1.6853,7.69 2.481,11.5917 -11.9138,3.8259 -24.7365,5.0001 -37.0669,2.8031 -9.7157,-1.9511 -18.6186,-8.6559 -22.1036,-18.0693 -5.3786,-13.9024 -3.9585,-30.7213 4.6216,-43.0517 z m 8.7503,17.2355 c 11.2314,0.1895 22.4821,0.1519 33.7516,0.038 -1.3251,-7.7088 -4.8112,-16.8758 -13.5615,-18.3533 -10.9286,-1.8561 -17.861,9.1482 -20.1901,18.3152 z"
       style="fill:#446272;fill-rule:evenodd"
       id="path4" />
  </g>
</svg>
