<?xml version="1.0" encoding="UTF-8" standalone="no"?>
<svg
   version="1.1"
   width="1566.4056"
   height="1700.7874"
   id="svg9"
   viewBox="0 0 1566.4057 1700.7874"
   sodipodi:docname="62379bc3d6d4922eb328b67031f4d9f8.cdr"
   xmlns:inkscape="http://www.inkscape.org/namespaces/inkscape"
   xmlns:sodipodi="http://sodipodi.sourceforge.net/DTD/sodipodi-0.dtd"
   xmlns="http://www.w3.org/2000/svg"
   xmlns:svg="http://www.w3.org/2000/svg">
  <defs
     id="defs13" />
  <sodipodi:namedview
     id="namedview11"
     pagecolor="#ffffff"
     bordercolor="#666666"
     borderopacity="1.0"
     inkscape:pageshadow="2"
     inkscape:pageopacity="0.0"
     inkscape:pagecheckerboard="0" />
  <g
     id="Layer1000"
     transform="translate(-345.115,-290.7398)">
    <path
       d="m 454.1144,1990.3242 c 1.604,1.604 1.604,1.604 0,0 z"
       style="fill:#a7a7a7;fill-rule:evenodd"
       id="path2" />
    <path
       d="m 864.9947,791.194 c 135.3956,-78.2559 294.4159,-110.1064 449.7901,-102.7273 0.059,51.83 0.088,103.6616 0,155.4916 0.059,58.5972 -0.088,117.1945 0.059,175.7917 -53.9607,-1.1666 -108.0064,3.5875 -161.471,10.4714 -81.172,11.4626 -161.3535,31.5586 -237.2473,62.7684 -91.4391,38.0333 -177.046,93.9765 -240.6892,170.6285 -33.2214,39.1718 -59.501,83.7979 -80.3849,130.6117 4.0538,-60.2021 8.6325,-120.3454 13.504,-180.459 1.0798,-34.068 6.358,-67.8433 7.4081,-101.8807 1.5469,-27.2718 5.513,-54.3682 5.9214,-81.6689 -0.4084,-8.2837 3.0922,-15.7794 7.8174,-22.3135 44.7418,-67.9599 103.5144,-125.9734 168.9658,-173.9538 21.3511,-15.3718 43.5182,-29.6339 66.3269,-42.7593 z"
       style="fill:#a7a7a7;fill-rule:evenodd"
       id="path4" />
    <path
       d="m 1467.5639,355.5496 c 13.3593,-20.7674 24.3548,-42.8758 35.5843,-64.8098 0.7293,116.9903 0.2911,233.9813 0.2332,350.9716 -52.2384,76.36 -116.0568,144.8159 -188.5963,202.2466 0.088,-51.83 0.059,-103.6607 0,-155.4915 -155.3741,-7.3791 -314.3951,24.4714 -449.7906,102.7281 -22.8087,13.1245 -44.9759,27.3875 -66.3269,42.7592 -0.3498,-59.6183 0.1174,-119.2367 -0.2332,-178.8542 95.64,5.7752 192.0671,-5.1046 284.6745,-29.2841 84.7892,-22.7219 166.5448,-58.9478 237.2761,-111.3325 58.2773,-43.314 108.7364,-97.3019 147.1789,-158.9326 z m -365.0296,717.2843 c 40.5716,-5.7752 83.2142,4.1422 116.4645,28.2638 30.8013,22.1374 53.7853,55.3306 62.3897,92.3734 12.1051,42.7881 2.5374,90.0393 -21.3213,127.0531 -25.2296,39.2586 -68.5146,66.5303 -114.9779,71.7515 -37.3338,4.9294 -76.3021,-3.8206 -107.8318,-24.4424 -34.2135,-21.9629 -59.9392,-57.4009 -68.8644,-97.1564 -11.375,-42.7592 -2.5374,-89.9814 21.5255,-126.8489 25.1428,-38.1515 66.9975,-65.6555 112.6157,-70.9933 z m 723.0017,343.5048 c 28.8757,-27.5049 57.2835,-55.505 85.9847,-83.2142 -9.537,42.3219 -42.7303,73.1811 -72.131,102.786 -56.7303,53.8424 -120.6653,99.1688 -181.5081,148.1116 -8.5755,5.7751 -15.6926,14.3506 -25.6389,17.7049 l -1.2253,-0.8458 c 7.8173,-28.5549 30.9179,-48.5931 53.0263,-66.5601 46.756,-39.8142 96.7777,-75.7771 141.4915,-117.9824 z m -231.9103,83.7979 c 8.2547,-17.8505 15.7207,-36.197 26.8625,-52.5303 13.7388,8.2539 29.6926,19.571 29.8092,37.3636 -3.1203,15.8082 -9.9753,32.9303 -24.5301,41.4462 -11.6371,-7.4957 -22.8087,-16.0703 -32.1416,-26.2795 z m -217.0933,79.3646 c 26.426,-16.3631 53.1719,-34.8551 84.265,-40.5137 -6.4167,17.7918 -15.0509,36.5178 -31.0055,47.6307 -14.4664,6.9417 -30.2755,11.2873 -43.605,20.5631 -40.3384,28.292 -79.8896,57.6638 -120.1693,86.0145 -52.1516,35.9341 -108.299,65.7432 -166.0794,91.4689 -82.981,37.4512 -174.0133,53.7555 -264.49,58.0432 -25.1419,1.633 -50.2846,0.5251 -75.3687,-1.05 -33.2503,-3.0335 -66.9098,-7.0881 -98.0898,-19.7173 -4.1133,-2.8582 -8.6044,0.2629 -10.2373,4.2877 -15.6925,28.2631 -26.2804,60.9594 -51.6555,82.5147 -9.1005,7.8752 -25.9886,14.9625 -34.1846,2.3043 3.2369,-9.8876 8.9542,-18.726 16.4797,-25.901 31.1502,-30.1588 51.1594,-69.243 71.372,-107.0439 6.4175,-12.659 21.5255,-21.7306 35.7306,-17.7049 26.163,6.7086 52.326,14.1464 79.277,16.8293 56.1474,8.0794 112.9067,2.3332 169.0244,-2.9169 37.0436,-5.3956 74.1153,-11.2584 110.0783,-21.8166 58.102,-16.5093 113.7525,-40.951 166.8078,-69.6233 56.4393,-30.4797 107.7161,-69.243 161.8503,-103.3688 z m -847.2842,51.0726 c 7.3221,-19.2221 13.8844,-39.3471 25.581,-56.4104 -3.0054,44.364 -12.893,87.969 -16.5681,132.3322 -1.1079,21.1758 -5.6288,43.7224 3.3841,63.8482 3.15,7.2915 10.9665,10.7913 18.4044,11.9587 4.8425,-10.8508 9.3038,-21.8463 13.5337,-32.9303 7.9628,3.0335 15.5164,8.9252 16.7426,17.9091 2.0702,21.1163 -4.172,42.8758 -16.1597,60.2591 -7.8165,11.9009 -23.7132,19.3676 -37.5083,13.9422 -14.3795,-7.5246 -23.8595,-22.7797 -25.2006,-38.822 -1.5171,-15.5172 -0.8755,-31.1791 0.4953,-46.6674 4.4043,-41.9721 9.2171,-83.9732 17.2956,-125.4194 z m 1096.8697,-22.168 c 0.5837,-0.1166 1.7205,-0.3208 2.3042,-0.4374 0.4374,0.8458 1.3708,2.5672 1.8082,3.442 -4.4911,31.151 -13.504,61.4844 -17.0923,92.8107 -4.4035,25.7835 -4.3753,52.035 -3.4708,78.1103 1.3716,14.6417 14.9343,24.2383 28.817,25.4049 11.9008,-7.9926 11.3179,-23.7719 19.9505,-33.9514 3.9967,9.5379 0.4969,19.8926 -1.5453,29.4884 -5.1625,18.0844 -9.7123,37.2469 -21.905,52.0639 -9.0997,11.6966 -28.7583,11.5792 -38.0341,0.2918 -7.9042,-8.7499 -9.9753,-20.7963 -11.7545,-31.9968 -3.7917,-25.8712 2.7416,-51.5679 4.3754,-77.3224 -14.4962,14.9922 -23.3635,34.5045 -38.7055,48.7972 -38.9378,41.4174 -94.8231,61.4266 -149.4534,71.7515 -43.3132,5.7165 -88.1733,10.7045 -131.0201,-0.5539 -15.6041,-3.8802 -27.1841,-18.3176 -27.4173,-34.4177 0,-21.8761 -2.4208,-45.0346 7.1749,-65.4522 9.6553,10.1795 6.592,28.7591 19.7174,36.3433 13.1551,7.4957 28.6715,9.8876 43.6637,10.2952 26.2217,1.313 52.5013,0.3506 78.7519,-0.9037 51.1892,-5.6585 103.3697,-17.6172 146.8573,-46.4343 20.4755,-14.1174 38.9973,-32.5508 48.7684,-55.7977 8.4581,-18.8417 10.2671,-39.7546 17.3254,-59.0635 6.5341,-14.3506 12.7748,-28.9055 20.884,-42.4682 z m 92.723,78.2567 c 2.8004,-26.397 14.0001,-51.2768 27.2718,-73.9392 0.7292,20.9418 -5.6875,41.2421 -6.9426,62.0681 -5.1327,33.5711 -10.3829,67.4927 -9.6544,101.5607 0.1761,16.1001 12.8342,32.7839 30.2763,30.3631 10.0918,-6.4754 11.375,-19.1626 16.3043,-29.0799 1.3716,-0.7293 4.1133,-2.2456 5.4841,-2.9748 -0.6416,21.0873 -6.8252,41.8547 -14.5548,61.3678 -5.571,11.5503 -12.5127,26.4259 -26.8931,28.001 -11.8116,1.575 -23.4214,-5.4833 -27.8538,-16.392 -6.8252,-14.788 -6.8549,-31.6761 -6.6507,-47.6307 1.9256,-38.0341 6.7664,-75.835 13.2129,-113.3441 z M 447.8431,1782.448 c 13.738,-4.8127 17.4131,-21.2047 29.6628,-28.0009 2.654,11.4626 -3.5874,22.1092 -7.5841,32.4631 -9.4503,21.7885 -23.1874,44.6261 -46.4922,53.4637 -11.929,5.5131 -24.822,-0.4952 -37.1296,-0.1744 -9.6263,1.8958 -18.4929,6.5333 -26.2225,12.4547 -4.549,3.0914 -8.8368,8.0208 -14.9625,6.4457 0.0579,-14.8756 10.2961,-26.4548 18.6376,-37.7133 13.184,-16.3928 28.7889,-33.4842 50.2268,-38.0928 11.2294,-0.088 23.1882,5.0459 33.8637,-0.8458 z m -18.7847,165.9918 c 9.2179,-19.2511 16.626,-39.5802 29.5471,-56.7891 13.8248,9.4503 31.0923,20.7963 30.8881,39.6381 -1.4295,13.5337 -8.0794,26.3093 -16.3044,37.0138 -2.9458,4.4333 -9.771,8.6921 -14.6714,4.5209 -10.3837,-7.3791 -20.0968,-15.7214 -29.4594,-24.3837 z m -60.6973,3.15 c 9.3626,-18.9294 16.3341,-39.2304 29.2263,-56.2053 14.0877,8.9831 30.3631,20.5913 31.5297,38.8212 -3.0624,17.5586 -11.1997,36.3425 -27.3296,45.6472 -11.2295,-9.3626 -23.5388,-17.442 -33.4264,-28.2631 z m 1380.2311,-51.7431 c 11.6958,9.0129 27.7381,17.7339 29.0791,34.1846 0.3795,17.8206 -9.6255,35.5545 -24.005,45.8505 -10.9079,-8.9541 -23.6835,-15.9835 -32.3169,-27.4172 9.0716,-17.5586 16.2754,-36.0796 27.2428,-52.6179 z"
       style="fill:#214b6a;fill-rule:evenodd"
       id="path6" />
  </g>
</svg>
