<?xml version="1.0" encoding="UTF-8" standalone="no"?>
<svg
   version="1.1"
   width="1700.7867"
   height="1505.6044"
   id="svg4"
   viewBox="0 0 1700.7868 1505.6044"
   sodipodi:docname="73293b143a02b1d0aa08ea29edcdfa75.cdr"
   xmlns:inkscape="http://www.inkscape.org/namespaces/inkscape"
   xmlns:sodipodi="http://sodipodi.sourceforge.net/DTD/sodipodi-0.dtd"
   xmlns="http://www.w3.org/2000/svg"
   xmlns:svg="http://www.w3.org/2000/svg">
  <defs
     id="defs8" />
  <sodipodi:namedview
     id="namedview6"
     pagecolor="#ffffff"
     bordercolor="#666666"
     borderopacity="1.0"
     inkscape:pageshadow="2"
     inkscape:pageopacity="0.0"
     inkscape:pagecheckerboard="0" />
  <path
     d="m 1099.7226,2.6224263 c 51.0508,-13.7310003 105.872,28.4638997 111.3105,79.8054997 1.8754,16.2528 -2.1883,32.630204 -8.397,47.549504 -20.7749,45.4232 -82.3264,65.5739 -126.0627,41.6738 -19.1069,-11.0653 -35.6309,-28.0882 -42.2988,-49.5082 -10.9389,-33.360404 -2.0418,-72.887204 23.4204,-97.349404 11.4403,-11.4398 26.7964,-17.5653997 42.0276,-22.1705997 z M 570.6609,1437.5765 v 17.8444 h 10.6526 c 6.3204,0 10.2586,-0.09 11.7967,-0.2702 2.7756,-0.3064 4.9699,-1.2257 6.5641,-2.7578 1.5942,-1.5321 2.3817,-3.5328 2.3817,-6.0202 0,-2.3973 -0.6936,-4.326 -2.0628,-5.8221 -1.3691,-1.4961 -3.4134,-2.3973 -6.114,-2.7037 -1.6129,-0.1803 -6.2453,-0.2704 -13.8787,-0.2704 z m 0,30.7142 v 20.7644 h 15.0786 c 5.8516,0 9.5839,-0.1622 11.1592,-0.4686 2.4193,-0.4328 4.3886,-1.4601 5.9076,-3.1002 1.5191,-1.6583 2.2885,-3.8393 2.2885,-6.5971 0,-2.3434 -0.5817,-4.3081 -1.7635,-5.9301 -1.1625,-1.6223 -2.8692,-2.812 -5.0825,-3.551 -2.213,-0.7389 -7.0328,-1.1174 -14.4411,-1.1174 z M 893.4811,60.882626 c 53.5711,-10.1477 108.4136,38.3604 106.2046,92.557204 -1.5622,18.773 -6.9597,38.0063 -18.8989,52.9463 -28.1917,35.6088 -84.3477,46.1951 -122.5622,20.7743 -17.4194,-12.0234 -31.9427,-29.3176 -37.1103,-50.2163 -9.1261,-34.2573 2.1878,-73.6793 29.5053,-96.662004 12.1065,-10.3779 27.4833,-15.9194 42.8609,-19.3995 z M 695.5525,154.73153 c 48.8206,-11.0234 102.5584,25.9625 109.3094,75.6377 1.8961,19.7113 -0.3544,40.7152 -10.7314,57.9889 -18.9817,32.0672 -58.1967,50.925 -95.0987,45.4031 -19.6903,-2.73 -36.798,-14.3356 -51.0296,-27.5882 -34.2966,-35.2981 -30.1507,-98.2661 5.9803,-130.7712 11.6277,-10.5651 26.5674,-16.6904 41.57,-20.6703 z m 337.2852,74.8245 c 78.8462,-24.0458 160.1093,-39.5269 241.9347,-49.0074 0.1885,52.0291 0.8127,104.0375 1.7294,156.0464 -117.6222,12.3758 -235.9343,33.4639 -344.9528,80.9714 -0.6035,2.8542 -1.2079,5.7305 -1.7915,8.5853 34.6722,13.2925 72.8453,9.3345 108.2472,19.6069 19.1287,6.3757 38.6518,12.3358 55.8635,23.1288 34.2765,20.5245 62.0929,53.28 72.8246,92.1191 4.4387,15.1484 4.9589,31.0057 5.542,46.675 0.6885,31.8589 -8.7517,63.3643 -24.4205,90.9108 -18.3146,32.3172 -44.174,59.7807 -72.8458,83.1178 -27.275,22.3786 -57.9881,40.0271 -88.6604,57.2386 -137.147,75.3661 -290.8808,117.1233 -445.8855,134.1677 0.292,-52.6966 -1.5214,-105.3924 -0.896,-158.0885 84.7641,-6.7722 169.5693,-19.2325 250.9577,-44.5283 64.3861,-19.9409 126.5006,-48.3829 181.7804,-87.1602 25.2751,-18.0029 47.9449,-41.0063 60.531,-69.7615 -12.5223,-16.7531 -31.8603,-27.1503 -52.0716,-31.4425 -24.1494,-5.4181 -49.0291,-5.1052 -73.6163,-6.2302 0.2081,-43.6329 3.8968,-87.3474 0.1667,-130.9173 -0.2078,-4.7937 -1.9165,-9.2931 -3.6879,-13.6692 -33.2555,20.8369 -67.699,40.9028 -95.2659,69.2617 -9.3552,9.3753 -18.2528,20.4619 -20.1073,34.0053 -1.6248,9.3979 2.7085,19.8158 11.3772,24.275 23.1284,13.0646 50.195,15.8567 76.2414,17.4614 10.7102,0.4164 21.3784,1.7915 32.1299,1.6455 -0.4995,47.3619 -1.0417,94.7455 -1.2917,142.1071 -42.6524,1.1874 -85.8683,-0.7708 -127.2504,-11.9186 -31.6086,-8.5019 -62.0518,-22.8367 -86.8893,-44.3826 -24.6702,-21.6496 -40.4645,-52.3001 -46.4448,-84.3676 -7.7306,-41.174 -0.896,-85.0558 19.4406,-121.7491 19.8161,-34.2559 47.0911,-63.8232 78.0962,-88.2853 26.4421,-20.9628 55.3838,-38.6108 85.1388,-54.4468 65.3653,-34.319 133.2723,-64.1775 204.0755,-85.3682 z m 248.3954,821.28127 c 21.5859,-20.9614 41.2348,-44.2573 66.3016,-61.25947 2.7717,69.23987 -0.7711,138.56417 0.9584,207.84667 1.0845,20.0449 17.7944,37.9227 37.7146,40.4022 29.3171,3.8758 58.9468,1.125 88.4106,1.646 0.1874,30.7965 0.062,61.6142 0.041,92.4112 -32.8595,-0.625 -65.6983,0.4584 -98.5371,-0.375 -28.2118,-0.8961 -53.4668,-18.9822 -67.8656,-42.5486 -13.5023,16.9191 -29.8171,33.0474 -50.8621,39.9024 -10.1472,3.4169 -20.9619,2.8752 -31.4844,2.8545 -74.3868,0.021 -148.7537,0.042 -223.1203,-0.063 -0.021,-30.6924 -0.4371,-61.4055 0.4169,-92.0778 79.0966,0.1046 158.1721,0.1046 237.2681,0.021 14.7322,-0.042 30.5048,-4.6046 40.4022,-16.065 7.8355,-8.9184 8.1473,-21.358 9.6477,-32.5058 4.502,-47.008 -6.959,-93.4319 -9.2934,-140.1899 z m 219.0555,-6.3133 c 19.2328,-19.0035 38.069,-38.5268 59.4476,-55.15487 4.8558,68.53177 -0.4997,137.23087 1.6668,205.82557 0.1885,20.6073 16.7944,39.8812 37.3397,42.5067 33.6721,4.0218 67.657,1.3963 101.4752,1.605 1.042,30.8174 0.2917,61.6351 0.5003,92.4735 -40.2781,-1.1671 -80.701,2.2084 -120.8744,-1.6668 -23.5032,-4.4388 -43.7151,-20.2533 -56.9883,-39.7358 -14.6905,-21.6703 -21.9625,-48.3831 -19.8782,-74.4914 2.5633,-47.8834 -0.1259,-95.9326 -6.2309,-143.4614 -0.5196,-9.21 -4.3341,-20.6912 3.5422,-27.9005 z m -1175.4643,76.8044 c 16.19,-19.9409 34.7142,-39.6941 59.3637,-48.8622 12.0438,5.6253 19.4618,17.1278 25.3794,28.5256 14.5029,27.5666 27.3382,56.6549 32.2141,87.6603 3.7919,25.4832 1.1457,52.2377 -8.8558,76.0751 -6.9389,16.065 -18.2741,30.6717 -33.5681,39.5067 -14.273,7.897 -30.7344,9.8348 -46.383,13.4396 12.9611,26.6919 28.5885,52.4875 49.5292,73.7207 4.2304,4.1456 9.085,8.3131 15.1066,9.4178 3.8138,0.8334 7.3347,-2.0418 8.3138,-5.6052 10.4604,-29.005 8.2927,-61.2185 20.7331,-89.6398 11.4183,-24.3583 30.7131,-45.3619 54.9882,-57.2385 20.4619,-9.7518 43.757,-8.8971 65.8644,-8.7305 132.5013,0 265.0022,0.1871 397.4828,-0.104 0.2086,30.8171 -0.084,61.6348 0.1247,92.4318 -140.8773,-0.4169 -281.7547,-0.1879 -422.6116,-0.1459 -16.7312,0.1873 -33.6929,-0.5004 -50.133,3.1252 -11.8142,2.6254 -23.754,9.7934 -28.067,21.6703 -5.9388,16.3153 -2.0418,34.3184 4.1877,49.9665 7.9602,20.8576 23.254,38.9858 26.1924,61.6559 1.3751,9.585 0.1451,21.2745 -9.0641,26.6921 -16.0858,8.9181 -35.5476,13.5235 -53.7171,8.8767 -19.4613,-4.7511 -36.4017,-16.8157 -49.6962,-31.4844 -38.2767,-40.9238 -62.2808,-93.4109 -75.033,-147.5666 -23.8992,0.5423 -47.8412,-1.5001 -71.4076,-5.6046 0.417,41.0278 -3.6459,84.5762 -26.6706,119.7907 -19.4408,30.7131 -50.5295,56.8423 -87.7019,60.9471 -41.9656,4.1885 -83.0348,-9.9388 -120.5207,-27.4626 -0.2917,-2.8341 -0.6043,-5.6466 -0.8747,-8.4387 43.2779,-11.1064 89.2646,-15.7737 128.5834,-38.5481 26.9839,-14.0856 52.1751,-35.5683 62.5315,-65.0316 5.4799,-18.2528 9.6891,-39.34 -0.6044,-56.7595 -11.6688,-19.6492 -34.6935,-27.796 -49.9668,-43.9654 -6.3343,-7.1469 -11.647,-17.107 -8.7092,-26.8381 6.6047,-26.7545 24.2325,-48.6119 39.4016,-70.9699 21.5042,25.5668 41.4652,54.4468 71.9705,70.0535 15.3156,8.543 33.3598,7.7723 50.3209,8.1473 -0.6877,-41.1948 5.6259,-85.1185 31.2968,-118.7073 z m 9.0433,119.0611 c 22.483,-0.7915 44.549,-5.4176 66.5524,-9.6891 0.2299,-32.4219 -16.5027,-62.5519 -38.8397,-85.0763 -21.1907,26.5247 -29.0671,61.3435 -27.7127,94.7654 z m 810.8623,-157.4635 c 10.5231,-4.5005 23.3791,-6.4593 33.7349,-0.4583 7.4812,4.0838 15.5029,10.0641 16.92,19.0862 0.8546,4.8552 -2.6881,8.6684 -5.2929,12.3151 -14.8975,-1.9593 -29.2963,-9.8974 -44.5484,-6.8136 -7.7519,2.1665 -18.1077,7.8137 -15.878,17.4818 3.5422,13.8767 17.2522,24.2538 31.5465,24.2124 16.7746,-0.042 31.8804,-8.2726 47.7788,-12.5022 -0.3745,9.7305 -1.2504,19.4199 -1.6254,29.151 -21.6692,4.4169 -43.9651,10.6474 -61.1558,25.2538 -10.6883,7.9387 -18.4399,19.6489 -30.6711,25.4628 -2.9591,2.0418 -6.3763,-0.1046 -8.9397,-1.6461 -7.1668,-5.0012 -10.7929,-13.3149 -15.1063,-20.6079 1.9179,-3.4588 3.5007,-7.126 5.9178,-10.2724 8.8974,-5.1883 18.4612,-9.1681 27.65,-13.8147 -8.1255,-8.21 -17.3982,-16.0858 -21.6496,-27.1298 -2.7082,-6.605 -1.5417,-14.127 1.9378,-20.2113 8.7942,-16.6065 21.9628,-31.7344 39.3814,-39.5068 z m -492.9763,32.4638 c 27.3169,-7.4177 59.1344,15.4403 57.5297,44.5074 0.6046,21.2952 -17.1485,39.444 -37.3811,43.2986 -20.7323,4.9802 -44.3406,-7.5008 -51.2376,-27.8167 -5.2296,-14.794 -2.7088,-32.2767 7.0223,-44.6743 5.9802,-7.6682 14.8773,-12.5642 24.0658,-15.315 z m 129.2502,0.3334 c 22.7951,-6.6887 48.7162,7.6889 56.4259,29.8383 5.2509,15.1897 0.8748,33.2345 -10.6475,44.403 -12.1686,11.7936 -30.7131,17.1284 -47.1334,12.3979 -9.4592,-2.6047 -17.5646,-8.8764 -23.5655,-16.4815 -12.7729,-17.045 -10.4397,-42.9236 4.1255,-58.1558 5.626,-5.8972 13.148,-9.5432 20.7944,-12.0019 z m 127.1667,-0.2294 c 25.0878,-6.5846 54.4048,11.6062 56.9883,37.986 4.5845,26.9203 -21.045,52.5917 -47.6742,50.7997 -22.9209,-0.7501 -44.6114,-21.0033 -43.632,-44.5697 -0.9587,-20.5033 14.7733,-39.3188 34.3179,-44.216 z m 508.3135,0.1041 c 14.9403,-3.6675 31.6502,0.063 43.2354,10.3357 7.585,6.5219 12.1692,15.9604 14.4193,25.5875 4.1471,21.5237 -10.7308,44.3406 -31.5677,50.4042 -22.7316,7.7298 -50.237,-5.7305 -57.655,-28.6506 -8.5006,-23.5664 7.147,-52.113 31.5672,-57.6763 z m 204.1994,297.841 c 26.6295,-7.3973 55.6137,15.211 57.1348,42.2572 0.7719,10.1889 -3.2919,20.0449 -8.7931,28.3796 -10.9808,15.211 -31.839,21.1074 -49.6542,16.7111 -18.6278,-4.1255 -33.4009,-21.8367 -33.7342,-40.9649 -0.7915,-21.0662 14.0853,-41.9655 35.0467,-46.383 z m -1066.5499,11.2938 c 16.8151,-0.1253 33.7762,-1.8754 50.4867,0.9587 8.2307,1.1664 14.2317,9.4178 13.5443,17.5858 0.0626,7.0637 -3.9385,13.1897 -8.5431,18.1908 5.5638,5.0423 10.1472,11.5642 10.7722,19.2733 1.2923,8.731 -4.4175,18.6288 -13.481,20.0869 -17.4821,2.7714 -35.1938,1.0006 -52.7797,1.1466 0.2923,-25.7547 0.271,-51.4882 0,-77.2421 z m 87.7643,77.4919 c 9.9595,-26.0672 19.857,-52.1544 29.3794,-78.3672 7.0637,0.5621 14.6276,-0.375 21.2953,2.3547 11.1274,24.6495 18.4822,50.8414 28.317,76.0331 -8.1049,-0.063 -16.1898,-0.083 -24.2952,-0.083 -5.0842,-14.7733 -9.8354,-29.6719 -14.3776,-44.6323 -5.8964,14.794 -11.6476,29.6093 -17.2321,44.5283 -7.6884,0.062 -15.3981,0.104 -23.0874,0.1667 z m 112.3308,-77.9922 c 6.6472,-0.063 13.2936,-0.146 19.9616,-0.2917 8.9801,11.8559 17.5447,24.0038 26.2961,36.0269 -0.063,-11.9812 -0.084,-23.9411 -0.2089,-35.9226 7.2933,0.1041 14.586,0.3957 21.8993,0.8122 -0.1031,25.692 -0.1664,51.4048 0.1253,77.1176 -7.1674,0.1038 -14.3144,0.2078 -21.4409,0.3331 -8.5221,-11.5019 -17.0232,-23.0247 -25.6709,-34.4225 0.042,11.3771 0.125,22.7749 0.2291,34.1518 -7.1048,0.062 -14.1897,0.1247 -21.2746,0.208 0.021,-26.0044 -0.062,-52.0083 0.084,-78.0128 z m 106.6221,-0.1253 c 7.2927,0.083 14.5848,0.1673 21.8783,0.2506 -0.063,10.2512 -0.2713,20.4823 -0.333,30.7344 8.1887,-9.5437 15.3773,-20.1082 24.9618,-28.3595 7.981,-4.2503 17.5859,-2.1666 26.2755,-2.9586 -8.8974,11.4602 -17.6077,23.0667 -26.7338,34.3392 9.731,15.1064 20.2532,29.7131 30.2967,44.6324 -9.1681,-0.2087 -18.3782,-0.1667 -27.4629,-1.6257 -10.5849,-12.2936 -20.0659,-25.5249 -28.0043,-39.6731 -0.2498,13.5442 0.4164,27.0671 0.7081,40.6111 -7.2094,0.146 -14.3981,0.2919 -21.587,0.4371 6e-4,-26.1289 0,-52.2581 0,-78.3879 z m 154.0253,4.2508 c 14.1068,-5.0008 30.5671,-6.563 44.4651,-0.063 7.6484,3.5008 12.5022,10.8981 14.6899,18.8158 -12.5841,1.7921 -23.5873,-5.5633 -35.7139,-6.9384 -5.7714,-0.8126 -10.6889,2.5835 -15.024,5.8553 13.4828,6.605 29.3389,7.5217 41.7992,16.2941 7.8349,5.4173 12.1266,17.7318 5.6259,25.7335 -17.1476,23.5661 -61.4268,19.1279 -70.5115,-9.7725 7.4803,-0.1046 14.9811,-0.021 22.4203,0.9375 4.2508,4.1051 9.4805,7.8763 15.6901,7.647 6.4604,0.5003 11.7102,-3.6879 16.1696,-7.7511 -13.898,-7.9594 -29.9636,-10.8141 -44.0909,-18.1695 -11.814,-7.7516 -8.1473,-27.6919 4.4802,-32.5891 z m 92.62,-4.1462 c 7.376,0.021 14.7722,0.083 22.1695,0.146 0.043,25.8999 -0.1664,51.821 0.062,77.7209 -7.4169,0 -14.8354,-0.021 -22.2327,-0.041 0.042,-25.9424 0.042,-51.8837 0,-77.8255 z m 46.8403,0.042 c 7.0642,-0.042 14.148,-0.084 21.232,-0.1253 0,25.9625 -0.104,51.9457 0.2092,77.9088 -7.2309,0.041 -14.4402,0.083 -21.6496,0.1454 0.083,-10.8349 0.2291,-21.649 0.3331,-32.4425 -6.1676,0.2497 -12.3353,0.5417 -18.4819,0.896 6e-4,-4.6885 -0.021,-9.398 0,-14.0652 6.2099,-0.1871 12.4189,-0.3538 18.6491,-0.4584 -0.1253,-10.6268 -0.3126,-21.2326 -0.2925,-31.8588 z m 82.0134,0.7081 c 7.5438,-0.167 15.1069,-0.3124 22.6916,-0.2917 8.585,26.0878 18.3566,51.7583 28.025,77.4499 -8.2922,-0.021 -16.5861,-0.062 -24.8587,0.2086 -5.1251,-14.5857 -9.0014,-29.6087 -14.9811,-43.8823 -5.4383,14.3149 -10.5645,28.7552 -15.5648,43.2366 -7.939,0.2707 -15.878,0.4997 -23.8167,0.7707 9.8147,-25.7125 19.5659,-51.4667 28.5047,-77.4918 z m 71.3449,-0.8547 c 7.0228,0.063 14.0646,0.1046 21.1288,0.1673 0.1664,25.9412 -0.1046,51.9043 0.2498,77.8456 -7.1462,-0.041 -14.2937,-0.062 -21.4197,-0.083 0.021,-25.9838 -0.021,-51.9463 0.041,-77.9301 z m 46.1539,0.2086 c 7.2726,0 14.5647,-0.021 21.8781,-0.083 0.2305,25.9004 -0.5833,51.8417 0.4584,77.7424 -7.4384,0.1038 -14.8978,0.1871 -22.3163,0.2704 -0.062,-10.3558 -0.1661,-20.6909 -0.146,-31.0257 -5.4581,-0.6667 -11.7723,0 -16.1895,-3.8551 -2.9174,-2.7919 -2.1464,-7.0841 -2.4798,-10.6682 6.2516,-0.188 12.5229,-0.271 18.7946,-0.3337 -0.02,-10.6891 -0.104,-21.3786 0,-32.0468 z m 50.6132,0.4584 c 19.2115,1.313 39.276,-4.5842 57.7792,2.7711 7.1898,2.2505 12.1065,9.9188 10.7934,17.3988 -1.1658,7.9183 -7.1263,13.8152 -13.0852,18.6072 11.1061,9.6891 12.8143,25.0251 14.5437,38.736 -7.8752,-0.1046 -15.7527,-0.2086 -23.6078,-0.3336 -0.3325,-12.9396 -4.0425,-29.213 -18.5445,-32.8179 -0.3325,-3.0631 -0.605,-6.0842 -0.834,-9.0847 6.4191,-2.5214 14.5446,-3.9385 18.1488,-10.5018 0.6262,-3.1674 -1.2498,-5.9176 -2.3544,-8.6684 -7.3761,-0.375 -14.7314,-0.896 -22.1074,-1.1877 -0.083,20.8162 -0.1044,41.6319 0.2293,62.4269 -7.0217,-0.062 -14.0446,-0.1248 -21.0663,-0.2078 0.2087,-25.7128 0.1667,-51.4256 0.1052,-77.1381 z"
     style="fill:#df343a;fill-rule:evenodd"
     id="path2" />
</svg>
