<?xml version="1.0" encoding="UTF-8" standalone="no"?>
<svg
   version="1.1"
   width="1319.8472"
   height="1700.7874"
   id="svg7"
   viewBox="0 0 1319.8472 1700.7874"
   sodipodi:docname="551872005f141e1b721aa8eccf6a1012.cdr"
   xmlns:inkscape="http://www.inkscape.org/namespaces/inkscape"
   xmlns:sodipodi="http://sodipodi.sourceforge.net/DTD/sodipodi-0.dtd"
   xmlns="http://www.w3.org/2000/svg"
   xmlns:svg="http://www.w3.org/2000/svg">
  <defs
     id="defs11" />
  <sodipodi:namedview
     id="namedview9"
     pagecolor="#ffffff"
     bordercolor="#666666"
     borderopacity="1.0"
     inkscape:pageshadow="2"
     inkscape:pageopacity="0.0"
     inkscape:pagecheckerboard="0" />
  <g
     id="Layer1000"
     transform="translate(-473.93448,-283.4646)">
    <path
       d="m 1046.7469,317.629 c 20.8551,-11.3177 41.166,-23.6312 62.4438,-34.1644 101.7105,54.7175 203.9635,108.5 306.065,162.5237 -204.7771,107.7762 -409.5251,215.5524 -614.4537,323.0574 -3.7729,2.7463 -11.3477,3.5008 -10.6239,9.658 -0.2113,112.7554 -0.2412,225.5116 0.0308,338.2678 98.9934,53.5412 197.5343,107.9576 296.3463,161.8308 -106.6897,55.834 -213.5608,111.3069 -320.2205,167.2325 -97.5442,-47.2035 -194.3038,-96.2173 -292.061,-142.9374 -0.5433,-169.6476 -0.0907,-339.3244 -0.2404,-508.9711 0.3619,-52.8774 -0.7255,-105.8145 0.5124,-158.6311 36.0064,-21.2178 73.3705,-40.7144 109.8287,-61.418 154.1951,-85.3829 308.1773,-171.0961 462.3725,-256.4482 z m 191.9511,261.246 c 67.5145,-35.1911 134.969,-70.4421 202.4835,-105.6024 80.8247,38.9931 161.0154,79.3455 241.6887,118.5507 16.5697,8.8427 34.2252,16.237 50.4022,25.3825 0.7247,222.2521 0.091,444.5948 0.302,666.9076 -210.3611,115.8951 -420.0583,233.118 -630.2988,349.2544 -5.1306,3.0183 -10.1106,-0.9051 -14.638,-3.0482 -98.5409,-52.6053 -197.5942,-104.2755 -295.8938,-157.3033 208.1881,-109.6781 416.437,-219.2038 624.7756,-328.55 -0.09,-112.9375 0.1806,-225.8435 -0.1206,-338.7503 0.8153,-4.346 -4.4367,-5.1613 -7.0324,-7.0324 -95.3711,-51.7009 -190.1092,-104.5466 -285.6925,-155.8241 -0.6639,-0.9967 -1.9626,-2.9584 -2.6264,-3.9542 39.508,-18.6521 77.6258,-40.2917 116.6497,-60.0295 z m 418.0659,949.6741 c 48.2292,-39.597 92.0825,-84.0842 136.3874,-127.9067 1.1473,4.2255 0.7247,8.5715 -1.237,12.495 -14.8793,37.122 -44.3965,65.4021 -72.314,92.9269 -50.0994,47.2334 -105.995,87.6158 -159.6876,130.593 -16.3876,11.8011 -31.1462,26.0464 -48.8932,35.8849 4.3769,-18.108 15.272,-34.4964 28.5814,-47.3831 37.3042,-34.286 77.9278,-64.6476 117.163,-96.61 z m -968.115,37.8774 c 12.767,7.0016 27.9482,17.3235 27.8268,33.5913 -1.1764,15.8143 -9.688,31.5697 -22.9375,40.4722 -9.1438,-8.7819 -22.3026,-14.4258 -28.6104,-25.5331 5.673,-17.0822 14.2744,-33.1985 23.7211,-48.5304 z m 611.3157,60.7242 c 14.1247,-7.153 28.8525,-14.306 44.9398,-15.3019 0.7545,11.4384 -7.9983,19.4367 -14.2154,27.8875 -5.01,6.277 -9.6281,13.9134 -18.1089,15.8144 -22.0921,6.3685 -40.3815,20.7045 -59.4563,32.8974 -74.7881,50.4621 -151.4481,101.5283 -238.6412,127.816 -43.5504,13.0989 -88.7315,20.4025 -134.1238,23.058 -32.6562,-0.06 -65.5228,1.3586 -97.9377,-3.47 -16.5989,-3.1996 -34.8284,-5.6439 -47.6244,-17.8068 -3.411,-2.3245 -6.1273,-7.3644 -10.8361,-6.5799 -8.8726,7.6056 -14.1537,18.712 -24.1437,25.2012 -7.0623,-0.5133 -14.336,-2.0524 -21.3384,-0.3918 -20.6438,11.1363 -25.9857,37.9971 -46.78,48.9829 -15.3627,7.8169 -35.1312,-0.3319 -42.3741,-15.5132 -14.0049,-26.5888 -7.183,-57.3132 -4.5582,-85.7131 1.1472,-19.618 5.7046,-38.7526 7.787,-58.25 3.0781,-26.1362 13.7029,-50.8241 26.741,-73.4295 -0.272,26.0763 -7.3344,51.4887 -9.4774,77.4137 -3.8328,23.9033 -6.8819,48.1385 -5.5532,72.4046 0.6638,12.3435 5.5532,26.2269 17.6853,31.5996 13.9442,7.7254 32.2943,2.3535 41.7102,-9.9301 6.6705,-7.2437 12.4658,-17.2328 23.1196,-18.712 6.2779,-0.031 12.4642,1.3577 18.7719,1.2679 14.97,-10.3227 22.6355,-28.2494 38.1495,-38.0588 5.945,-2.3544 12.6156,-1.599 18.6812,-0.03 41.741,14.2752 86.4386,16.9017 130.2611,16.7203 107.7762,-2.173 211.629,-40.8649 304.0734,-94.4968 35.1004,-20.0098 66.8206,-45.6336 103.2488,-63.3797 z m 297.9162,68.7823 c 5.252,-11.499 9.1447,-23.7826 16.539,-34.1653 0.7246,22.9683 -6.4883,45.2418 -8.0283,68.0885 -4.1039,29.6978 -9.1746,59.7883 -5.8543,89.8188 1.6597,13.46 15.603,21.7603 28.4598,20.0398 6.0366,-7.6963 8.9941,-16.9915 11.9525,-26.1362 1.2979,-0.634 3.9235,-1.9018 5.2512,-2.5058 1.3278,15.6038 -4.4068,30.3325 -8.5715,45.0903 -4.074,11.9824 -9.2661,24.2361 -18.9532,32.8076 -11.1971,7.7254 -28.2502,2.9875 -34.3467,-9.0848 -10.623,-22.4849 -7.8169,-48.1694 -5.3419,-72.1326 2.2038,-16.0564 2.6256,-32.3541 5.6739,-48.29 3.7728,-21.2469 4.2562,-43.5204 13.2195,-63.5303 z m -105.995,19.8285 c 5.6738,-13.3701 12.4641,-26.2269 20.5223,-38.2992 0.604,19.014 -6.7604,36.9107 -9.054,55.5628 -6.7604,28.5214 -9.9301,57.7367 -12.0723,86.9211 -0.4825,15.3926 -1.9617,33.954 10.623,45.3624 5.2221,5.9151 13.4309,5.0399 20.5539,5.3719 7.2138,-8.6314 10.1406,-19.6172 14.1547,-29.8792 4.5881,1.7804 5.4633,6.8511 4.074,11.1372 -5.1297,23.0273 -9.5066,47.8366 -25.0198,66.4887 -11.2869,13.0981 -34.7077,7.6355 -40.3217,-8.3003 -12.6762,-30.9656 -2.9276,-64.6168 -2.8369,-96.7596 -14.4566,6.1863 -20.9158,22.2128 -32.444,32.1728 -29.1853,25.6537 -65.3722,41.4381 -101.1373,55.6834 -44.6677,18.8934 -93.7115,22.2735 -141.548,25.4732 -21.3984,0.1805 -43.0679,1.569 -64.225,-2.777 -11.9217,-2.0225 -25.3517,-5.5532 -32.5056,-16.1771 -10.1704,-16.2071 -6.881,-36.1561 -6.1563,-54.235 1.4484,-9.3261 0.6938,-21.2778 9.1147,-27.5248 2.0225,10.4725 6.1872,20.3118 10.2013,30.1504 18.1995,14.608 43.1585,14.91 65.4013,14.3967 35.1012,-0.8453 70.5635,2.5956 105.302,-4.0141 37.8167,-4.6481 75.9354,-10.9259 111.5791,-24.93 27.4041,-12.9474 55.9554,-28.5205 72.011,-55.3514 13.3103,-21.5498 12.2537,-48.2592 23.7836,-70.4729 z m 46.8108,-7.3036 c 13.5207,7.183 28.8824,19.316 26.6795,36.4889 -3.0183,12.8868 -8.5108,27.3742 -20.6139,34.2552 l -3.2587,-0.4826 c -9.2054,-7.2137 -20.2818,-12.9474 -26.6812,-23.0888 7.2446,-16.0565 14.2454,-32.3234 23.8734,-47.1727 z m -840.7208,239.8784 c 5.7038,-13.2495 12.4949,-25.9258 19.9799,-38.2094 13.46,8.9642 30.9948,21.1272 27.3434,39.8392 -4.5266,12.8876 -9.7478,27.3433 -22.5148,34.2859 -9.5374,-6.6098 -19.1954,-13.2803 -27.3742,-21.5797 -4.2554,-4.4966 0.965,-9.8693 2.5657,-14.336 z m 71.7699,-39.8691 c 9.0839,2.2637 15.8451,9.054 22.0014,15.7245 9.7795,8.9034 7.4551,24.4466 1.9618,35.1304 -4.5574,8.2694 -8.6614,19.0738 -18.8027,21.6396 -9.9891,-7.7562 -21.0356,-14.5773 -29.0947,-24.4766 7.5158,-16.2369 15.1822,-32.4149 23.9342,-48.0179 z m 811.2043,48.0787 c 7.9974,-14.94 14.3052,-30.7552 23.6013,-44.9706 10.4725,7.4251 23.6005,15.1813 25.5023,29.0946 -0.09,12.3444 -5.945,24.1754 -13.5814,33.652 -2.6855,3.3503 -7.9376,6.8211 -11.7404,2.9276 -8.2695,-6.4592 -17.2328,-12.3742 -23.7818,-20.7036 z"
       style="fill:#19499e;fill-rule:evenodd"
       id="path2" />
    <path
       d="m 1064.8249,695.4947 c 3.3503,-2.6863 7.7263,-2.9276 11.8311,-3.2595 25.1712,-1.9617 50.6435,-2.0225 75.6633,1.569 1.1772,0.4825 3.5307,1.4493 4.7088,1.9626 29.939,4.7379 60.0295,14.5772 85.3213,31.4182 1.7812,0.4517 5.3419,1.3577 7.1222,1.8103 1.1781,4.1048 5.3727,4.8594 8.7828,6.4592 2.0225,3.168 5.5532,4.5873 8.6314,6.4583 49.9805,36.7302 86.5293,90.9353 102.2538,150.9348 13.3402,55.9854 10.292,116.5291 -12.3443,169.7384 -1.5691,4.2245 -3.4709,8.3293 -5.9759,12.0423 -16.207,38.9631 -45.4821,70.9246 -77.3538,97.8162 -15.2103,11.1971 -31.2377,21.1263 -47.9272,29.9698 -23.9333,9.5665 -47.9581,20.1305 -73.9737,21.9108 -3.5307,1.9318 -7.3943,3.1997 -11.4383,3.2904 -19.5573,1.4484 -39.1753,1.3577 -58.7325,0.2712 -4.6472,-0.4226 -9.7179,-0.2712 -13.5815,-3.2596 -10.5631,-1.7204 -21.2469,-2.8668 -31.9307,-3.7728 0.06,-0.8453 0.1198,-2.505 0.1506,-3.3194 -5.4026,-0.8761 -10.8044,-1.7812 -16.1172,-2.9576 -4.1039,-4.2862 -10.2911,-4.4068 -15.603,-5.9767 -3.1689,-3.44 -7.8169,-4.5873 -11.9517,-6.3377 -31.2069,-14.336 -58.0985,-36.157 -82.273,-60.2408 -9.8086,-11.2578 -19.1047,-22.8775 -27.2236,-35.4631 -20.5232,-31.3874 -33.5314,-67.1825 -40.4124,-103.9127 -3.3194,-30.2119 -3.3502,-60.8149 0.634,-90.9652 2.6863,-9.8702 5.5232,-19.7087 6.6097,-29.9399 5.4933,-9.5373 7.1531,-20.7644 12.7961,-30.3017 11.4092,-27.8875 28.642,-53.0579 48.8033,-75.3614 13.732,-15.6346 30.875,-27.6154 47.0521,-40.503 24.3558,-13.3709 48.2891,-29.3966 76.2065,-34.1045 9.0249,-5.5233 20.1912,-4.2554 30.2718,-5.9759 z"
       style="fill:#fcb913;fill-rule:evenodd"
       id="path4" />
  </g>
</svg>
