<?xml version="1.0" encoding="UTF-8" standalone="no"?>
<svg
   xmlns:dc="http://purl.org/dc/elements/1.1/"
   xmlns:cc="http://creativecommons.org/ns#"
   xmlns:rdf="http://www.w3.org/1999/02/22-rdf-syntax-ns#"
   xmlns:svg="http://www.w3.org/2000/svg"
   xmlns="http://www.w3.org/2000/svg"
   viewBox="0 0 2267.7166 2267.7166"
   id="svg2"
   height="2267.7166"
   width="2267.7166"
   version="1.1">
  <metadata
     id="metadata14">
    <rdf:RDF>
      <cc:Work
         rdf:about="">
        <dc:format>image/svg+xml</dc:format>
        <dc:type
           rdf:resource="http://purl.org/dc/dcmitype/StillImage" />
      </cc:Work>
    </rdf:RDF>
  </metadata>
  <defs
     id="defs12" />
  <g
     id="g4">
    <path
       id="path6"
       style="fill:#0a8992;fill-rule:evenodd"
       d="m 1125.9273,283.4645 12.6548,0 c 13.3395,1.0523 27.5034,3.0718 38.6492,11.0752 43.3886,32.0319 86.9171,63.8717 130.3585,95.8514 -23.2912,79.6332 -46.6182,159.2669 -69.9093,238.918 -25.1167,-12.2866 -52.814,-18.6581 -80.6164,-20.5184 -38.8247,-2.5459 -78.7207,3.4927 -113.895,20.5533 -31.8215,-76.2465 -63.6787,-152.4741 -95.5002,-228.7022 44.4942,-35.6659 89.0591,-71.2611 133.5353,-106.9444 3.9316,-3.1246 8.9343,-4.1948 13.6907,-5.4411 10.1806,-2.4404 20.5707,-4.1425 31.0319,-4.7918 z M 690.2162,473.728 c 53.2881,-14.6565 106.6987,-28.9253 160.0216,-43.4937 47.8466,67.8028 95.6057,135.6942 143.4522,203.4979 -27.5739,13.0225 -51.4447,32.9623 -71.2611,55.9555 -23.6599,27.662 -41.8787,60.5193 -49.8999,96.2026 -79.4755,-22.6075 -159.0032,-45.0385 -238.4439,-67.7858 -0.0876,-57.1147 -0.1582,-114.2284 -0.4742,-171.3426 0.3513,-7.4253 4.5814,-13.9186 7.5656,-20.5185 11.0577,-21.3781 26.5207,-42.4055 49.0397,-52.5149 z M 1286.44,649.4056 c 44.143,-69.8571 88.567,-139.5202 132.8328,-209.3071 54.8156,16.1649 109.6297,32.2956 164.4448,48.4083 4.5639,1.2458 8.0392,4.6161 11.5493,7.6004 16.2714,14.1633 30.6632,31.295 38.474,51.6199 2.1066,5.8624 4.0898,11.9533 3.8967,18.272 -1.3165,54.4106 -2.6857,108.8396 -3.932,163.2681 -78.5974,26.6436 -157.3007,53.0075 -235.9512,79.4934 -5.2301,-33.6827 -19.8512,-65.3813 -39.3691,-93.1135 -18.9736,-26.7669 -43.125,-50.2686 -71.9453,-66.241 z m 122.7935,193.7567 c 82.1433,-8.8462 164.2692,-17.6924 246.4124,-26.5561 21.5533,52.7608 42.9842,105.5753 64.5559,158.3366 2.1941,4.9843 1.3339,10.5661 1.2638,15.849 -1.2812,23.7653 -6.7397,48.2859 -21.0797,67.7684 -4.3529,6.2307 -11.0403,10.1274 -16.9028,14.7435 -40.0353,30.4348 -80.2128,60.7124 -120.1784,91.2353 -69.892,-44.828 -139.5555,-89.9889 -209.3599,-134.922 21.1503,-22.9931 36.0868,-51.1641 45.8107,-80.7218 11.0577,-33.8931 15.3579,-70.4009 9.478,-105.7329 z M 552.7493,960.7605 c 19.8159,-47.1978 39.5621,-94.412 59.3959,-141.6094 82.8981,3.949 165.7782,7.9338 248.6762,11.9001 -9.39,42.7568 -3.7559,87.8829 11.2862,128.6739 8.1267,21.7817 19.5705,42.3881 34.3668,60.3611 -66.6804,48.8119 -133.29,97.6943 -199.9694,146.4887 -45.0211,-34.9111 -90.0596,-69.7864 -135.1334,-104.6095 -4.4753,-3.3176 -6.6869,-8.6178 -9.2671,-13.3574 -10.7418,-21.2732 -18.2014,-45.1609 -15.5336,-69.2073 0.6319,-6.6172 3.6509,-12.6021 6.1784,-18.6402 z m 383.4056,96.8166 c 18.8507,26.1351 44.5295,46.7585 72.5772,62.31 30.4004,16.7093 64.3981,27.6267 99.2212,28.8024 -7.4591,82.2661 -15.2525,164.4975 -22.6941,246.7637 -56.0087,10.6537 -112.0169,21.2552 -168.0082,31.9443 -5.5639,1.0881 -11.0925,-0.7896 -16.4635,-2.0359 -19.3949,-5.0903 -38.4391,-13.129 -53.7971,-26.2754 -5.3709,-4.8271 -10.794,-9.9697 -13.8832,-16.6217 -23.4848,-48.8651 -47.1446,-97.6416 -70.6647,-146.4887 57.8869,-59.484 115.8081,-118.9321 173.7124,-178.3987 z m 308.3533,76.755 c 32.0498,-14.0241 61.695,-34.5246 83.9861,-61.6951 60.7303,55.9555 121.4069,111.999 182.1546,167.9196 -15.2878,30.9965 -30.997,61.7657 -46.4077,92.6921 -11.0926,21.2025 -20.9219,43.1075 -32.6116,63.9772 -15.6385,14.6728 -34.419,26.4505 -54.9902,32.822 -9.794,2.7026 -20.2199,4.9848 -30.3298,2.7558 -52.7961,-10.9528 -105.6101,-21.817 -158.4067,-32.6817 -12.0757,-82.091 -24.0812,-164.1815 -36.1395,-246.2721 31.9095,0.7722 63.5911,-6.863 92.7448,-19.5178 z" />
    <path
       id="path8"
       style="fill:#706f6e;fill-rule:evenodd"
       d="m 1115.6765,685.0009 c 41.1946,-5.055 84.0389,3.8972 119.5466,25.451 39.9836,23.923 70.4885,63.2045 83.4593,107.9798 12.9538,43.8972 9.2502,92.4985 -10.5657,133.7985 -21.2906,45.1435 -61.3796,80.9497 -108.647,97.0097 -43.5285,14.9719 -92.604,13.3046 -134.9046,-4.9142 -43.3359,-18.3775 -79.1242,-53.709 -98.0455,-96.7818 -19.6756,-44.0912 -21.22,-95.8161 -4.4754,-141.0655 14.6032,-39.8084 43.1598,-74.2797 79.5457,-96.0445 22.519,-13.5857 47.9516,-22.3259 74.0866,-25.4325 z m 539.057,865.1553 c 21.3955,-20.1498 42.3174,-40.7732 63.3448,-61.309 -5.1072,22.9927 -21.203,41.212 -36.7187,58.062 -39.2292,40.808 -85.4961,73.7708 -129.6042,108.9451 -11.6892,8.688 -22.4663,18.7104 -35.1212,26.0296 4.4406,-13.322 11.935,-25.7311 22.5718,-34.9987 37.2809,-33.7001 78.8436,-62.3448 115.527,-96.729 z m -692.6191,30.5054 c 9.583,6.2481 21.9219,14.7609 19.886,27.9078 -2.6499,10.1269 -7.0909,21.7289 -17.2182,26.4332 -7.1262,-5.8804 -14.9017,-10.9876 -21.3433,-17.675 5.5291,-12.5499 10.9696,-25.2396 18.675,-36.666 z m -39.8781,2.4046 c 9.706,5.9321 21.9046,14.5679 20.1493,27.5392 -2.5449,10.285 -7.1785,21.7114 -17.1481,26.8192 -7.1785,-6.0202 -15.2704,-11.0051 -21.5011,-18.1134 5.7217,-12.3045 11.0225,-24.8539 18.4999,-36.245 z m 319.3234,0.509 c 9.0214,5.8445 19.9562,13.1638 20.3597,25.0818 -1.6493,11.2856 -6.968,23.432 -17.2361,29.382 -7.3014,-5.9679 -15.5157,-10.9702 -21.6941,-18.1839 5.7923,-12.3041 11.0403,-24.9062 18.5701,-36.2799 z m 225.5781,37.3152 c 5.757,-12.8832 11.2856,-25.9415 19.2189,-37.6839 9.4606,6.2132 21.3085,14.1644 20.7995,26.9426 -2.2991,11.0926 -7.1616,23.8176 -18.0263,29.0482 -7.3013,-6.161 -15.4629,-11.3035 -21.9926,-18.3064 z m -283.8331,1.5971 c 5.5988,-12.4966 10.9697,-25.1868 18.6576,-36.5779 9.197,6.0028 20.711,13.7783 20.202,26.1525 -2.229,10.7767 -6.9859,23.1335 -17.5516,28.1531 -7.0909,-5.9326 -14.9196,-10.9876 -21.3085,-17.7272 z m 314.549,96.9749 c 5.1073,-13.0937 11.215,-25.854 18.9557,-37.6138 -0.1752,12.1633 -4.0719,23.8181 -6.0028,35.7535 -6.3535,28.7327 -10.601,58.1495 -9.6184,87.6545 0.1582,8.3372 3.5281,18.0964 12.1106,21.1149 4.1076,1.2817 9.7591,2.9663 13.0588,-0.8249 5.1953,-6.0376 6.0908,-14.3748 9.7766,-21.2553 1.2637,2.4046 2.8782,4.9321 2.0006,7.8283 -1.6668,10.7065 -4.4933,21.2552 -8.0914,31.4707 -3.0007,7.8983 -6.5466,16.0953 -13.1465,21.7119 -6.95,6.0377 -18.5347,4.1948 -24.1862,-2.7732 -5.9326,-7.1616 -7.4421,-16.7973 -8.2322,-25.7664 -1.6494,-17.6049 2.1767,-35.0341 2.9842,-52.5683 -7.4068,7.1437 -12.111,16.4113 -18.5173,24.3445 -15.551,20.6234 -37.4207,35.7186 -60.993,45.8286 -34.2793,14.7082 -71.8229,21.0448 -109.0157,20.4129 -16.4282,-0.088 -34.0858,0.017 -48.7243,-8.4074 -11.0752,-6.8983 -11.707,-21.4662 -11.198,-33.121 0.8428,-11.4965 -0.6847,-24.2569 6.055,-34.2961 3.1424,7.5824 4.7569,15.8669 8.987,22.9752 4.3002,4.5808 10.5841,6.5645 16.4988,8.1616 16.2182,3.8614 33.0155,3.2648 49.5671,3.1245 37.7192,-0.9304 76.0524,-6.7575 110.4894,-22.8175 21.6946,-10.0224 42.1771,-25.0818 53.4812,-46.6535 7.5998,-13.7081 9.0039,-29.5925 13.7603,-44.2832 z m -657.3745,-16.4461 c 2.8961,-6.459 5.3355,-13.2166 9.5477,-18.9736 -2.7549,32.8922 -10.1622,65.3634 -11.7598,98.3963 -0.2279,10.1801 0.0179,21.2558 5.95,29.9786 6.6178,9.496 20.1851,10.6194 30.3657,7.1969 6.3889,-2.0011 6.2834,-10.7244 1.509,-14.3754 -4.3176,-5.1077 -11.303,-2.4747 -16.955,-2.4573 6.968,-19.5532 31.7338,-29.7507 50.4089,-20.6413 3.932,2.0185 6.2485,6.7053 5.143,11.0757 -1.4916,6.7222 -5.2306,12.6548 -8.1795,18.8332 14.2704,1.825 29.9263,-11.0229 27.469,-26.0649 -1.0881,-11.9882 3.3698,-23.3265 8.0039,-34.0857 2.9837,-6.7228 5.0898,-13.8838 9.2671,-19.9921 0.2637,16.9203 0.1582,34.0863 -2.9832,50.7781 -4.0022,19.0089 -15.955,36.1749 -32.4016,46.4953 -6.3356,3.8788 -13.8305,1.4742 -20.7289,1.5095 -10.5657,7.5825 -17.1834,20.3776 -29.7148,25.3799 -10.3558,4.6514 -23.9763,4.0021 -32.0857,-4.651 -9.8636,-10.3911 -12.1812,-25.4853 -11.4612,-39.2641 1.3513,-28.276 5.9326,-56.254 10.2328,-84.1792 1.211,-8.776 4.9321,-16.8849 8.3721,-24.9589 z M 1581.1205,1706 c 2.7031,-5.8973 4.7912,-12.216 9.0387,-17.2356 -3.6335,37.6665 -12.2867,74.8941 -12.6902,112.8766 0.036,8.3899 1.5797,18.4118 9.3552,23.2389 4.2485,2.2991 9.8995,4.2126 14.4977,1.9658 6.4595,-5.2481 6.9506,-14.2525 10.5841,-21.2205 0.6145,0.088 1.8434,0.2632 2.4399,0.3687 1.1762,6.8804 -1.2115,13.6728 -2.6503,20.3428 -3.1942,12.1807 -6.6874,24.7659 -14.3928,34.9634 -3.6151,4.7917 -9.39,8.4252 -15.5858,7.5476 -6.8973,-0.2632 -12.8658,-5.0376 -15.7271,-11.1105 -4.4754,-9.1975 -5.3008,-19.6761 -5.3356,-29.7507 0.8776,-31.2428 5.9674,-62.1517 10.6716,-92.9906 1.2986,-10.2328 5.7919,-19.6228 9.7941,-28.9959 z m -346.4064,-4.6684 c 3.5107,3.3171 2.1942,8.4248 2.3519,12.725 -0.5965,15.1649 1.1409,30.9264 -4.5634,45.3719 -4.844,14.8489 -16.8322,25.6783 -23.9056,39.2989 -5.0903,14.7435 -11.4966,29.6278 -22.7126,40.791 -9.1795,8.881 -22.0807,11.9175 -34.0683,15.0067 -7.7755,1.9309 -15.4988,4.5813 -23.6076,4.4584 10.8299,-9.6014 24.5554,-15.0599 36.2973,-23.3971 10.9527,-7.7929 23.7305,-15.551 28.2765,-28.9606 -8.2492,1.6846 -17.6397,1.404 -24.3972,-4.1948 -4.3878,-3.5459 -4.4933,-9.8293 -3.0017,-14.7967 2.7036,-9.8114 7.6178,-18.9561 13.6206,-27.1351 3.1419,-3.9843 7.372,-8.6179 13.0061,-7.7054 9.4432,0.6667 15.9898,8.9164 18.6402,17.3765 3.6509,-3.4052 7.67,-7.1436 8.2845,-12.4096 0.4736,-7.161 -2.5977,-14.6907 0.702,-21.5184 5.1256,-11.5847 9.7239,-23.4141 15.0773,-34.9107 z m -524.4706,51.9712 c 4.1072,-11.0931 9.1621,-22.1329 16.3585,-31.5587 1.7727,7.3192 -0.7548,14.6564 -1.2991,21.9577 -1.9831,15.1122 -1.5622,30.4876 -4.6688,45.4599 -5.7217,33.0151 -16.5516,66.3988 -39.0358,91.9896 -15.4982,17.4118 -36.1569,32.0324 -59.9223,34.4195 -15.5336,1.9305 -33.0508,-0.017 -44.8807,-11.2682 -13.129,-12.0762 -17.1481,-30.9617 -15.8317,-48.1625 2.229,-29.0666 14.6734,-56.1316 28.487,-81.3711 2.9489,-5.143 5.4062,-10.9528 10.601,-14.2524 0.6851,10.7592 -5.7038,19.8865 -9.6711,29.3999 -7.4063,15.8316 -15.5505,32.629 -13.7081,50.6194 0.7373,11.6374 6.5296,23.6076 17.3416,28.9437 13.8484,7.0207 30.1895,6.4764 45.1086,3.9136 26.9949,-4.8794 49.3383,-24.8535 61.3966,-48.8994 10.198,-22.4842 1.3338,-48.2506 9.7243,-71.191 z m 67.7331,-0.597 c 5.8799,-6.1431 16.0774,-2.0882 20.4299,3.932 6.4943,7.7053 5.5997,18.3417 4.0902,27.6267 -1.4219,12.7777 -6.4948,24.6957 -11.0408,36.6137 -3.3693,8.5825 -8.1263,17.1481 -15.8669,22.519 -6.4412,4.1947 -13.8659,6.4416 -21.0448,9.0218 -8.3895,2.738 -16.6745,6.6521 -25.7137,6.4411 10.3209,-11.7946 24.8713,-18.7451 36.7545,-28.8198 8.1083,-6.4769 15.6908,-14.3225 18.8855,-24.4325 -7.5118,0.1752 -16.5869,2.2116 -22.2558,-4.1599 -6.2307,-5.4236 -2.8086,-14.1818 -0.0881,-20.5005 4.4062,-9.8293 8.3372,-20.3079 15.85,-28.2416 z m 338.7358,15.2883 c 11.2682,1.5971 12.6544,-12.1111 19.2368,-17.9561 1.7553,9.9696 -3.4231,19.4123 -8.3726,27.6973 -6.5291,9.706 -16.6744,16.0948 -25.1694,23.9057 -13.4971,7.0381 -25.2574,16.7794 -37.3331,25.9415 -7.4068,5.3888 -17.0954,4.3181 -25.4679,2.2643 -13.9539,10.5841 -25.5381,26.8899 -44.2658,28.68 -10.3209,2.1593 -19.799,-3.633 -29.8388,-4.5808 -12.7076,-0.702 -23.0986,7.6526 -34.4544,11.8647 0.9304,-7.67 6.9506,-13.0583 11.6896,-18.6223 10.7593,-11.4965 22.9932,-23.2215 38.8601,-26.7843 10.5841,-2.6678 20.5712,4.0016 31.1896,2.7553 5.5117,-0.6139 12.3742,-0.9125 15.8674,-5.95 2.8783,-6.2133 -0.3333,-17.0078 -8.6183,-16.2705 -3.2817,-0.6318 -10.3906,3.3878 -9.4427,-2.5628 2.9489,-6.5819 9.6357,-10.2328 15.9196,-13.0235 9.2497,-4.1947 19.9741,-4.8266 29.7154,-2.0886 4.2828,1.1408 8.4074,4.7917 7.881,9.6362 -0.8598,6.7924 -5.4585,12.2161 -8.7761,17.9556 4.0545,-0.053 8.3019,-0.088 11.9528,-2.1239 11.023,-6.0556 21.6767,-14.0067 27.1357,-25.7137 3.5808,-0.017 7.7228,1.5622 10.7766,-1.0528 4.9326,-3.6335 8.0213,-9.0746 11.514,-13.9713 z m -489.0863,27.0824 c 4.8092,-12.1459 10.4259,-24.0111 18.061,-34.6475 8.5477,4.5982 17.9556,10.0219 22.1678,19.2019 4.7042,14.2699 -6.6516,26.8367 -16.6745,35.4023 -7.0207,-4.2127 -13.3041,-9.5134 -20.2721,-13.8311 -1.9304,-1.2985 -4.7216,-3.4927 -3.2822,-6.1256 z m 964.6402,132.8686 c 9.2845,6.2132 20.9214,13.8484 20.8333,26.3804 -1.615,11.5144 -7.4944,22.818 -16.8496,29.9263 l -1.2985,0 c -7.1083,-6.4764 -15.3764,-11.6021 -21.8877,-18.7278 5.8272,-12.813 11.3737,-25.8191 19.2025,-37.5789 z" />
  </g>
</svg>
