<?xml version="1.0" encoding="UTF-8" standalone="no"?>
<svg
   xmlns:dc="http://purl.org/dc/elements/1.1/"
   xmlns:cc="http://creativecommons.org/ns#"
   xmlns:rdf="http://www.w3.org/1999/02/22-rdf-syntax-ns#"
   xmlns:svg="http://www.w3.org/2000/svg"
   xmlns="http://www.w3.org/2000/svg"
   viewBox="0 0 2267.7166 2267.7166"
   id="svg2"
   height="2267.7166"
   width="2267.7166"
   version="1.1">
  <metadata
     id="metadata10">
    <rdf:RDF>
      <cc:Work
         rdf:about="">
        <dc:format>image/svg+xml</dc:format>
        <dc:type
           rdf:resource="http://purl.org/dc/dcmitype/StillImage" />
      </cc:Work>
    </rdf:RDF>
  </metadata>
  <defs
     id="defs8" />
  <path
     id="path4"
     style="fill:#2e428d;fill-rule:evenodd"
     d="m 1086.0418,283.4646 11.5721,0 c 3.6823,112.5686 7.3389,225.1615 11.472,337.7039 6.5629,1.0515 9.4683,-8.0156 13.8017,-11.8477 4.7593,-7.7656 15.73,-12.6251 15.4297,-22.6692 -0.05,-101.0711 -0.075,-202.1152 0,-303.1856 l 10.5951,-0.001 c 16.2065,2.0292 32.5131,2.9317 48.7197,4.8857 -3.3812,76.898 -7.4646,153.7719 -10.9715,230.6706 -1.8283,22.0175 -1.0771,44.2358 -3.9073,66.178 11.8228,-5.6867 24.9981,-7.5143 37.9236,-5.2102 9.7935,-94.3578 19.3619,-188.7397 28.9054,-283.1223 17.9099,4.7345 35.5933,10.2451 53.4783,15.155 -14.2773,98.8395 -29.5821,197.5561 -44.1853,296.3473 11.8234,-1.3022 23.8961,-2.7052 35.5939,0.5006 18.1854,-93.0549 36.3949,-186.1097 55.2065,-279.0389 18.0349,9.2674 35.9192,18.8614 53.7787,28.4802 -20.7898,84.3626 -41.7053,168.7259 -62.5454,253.0885 -1.9789,8.416 -4.8347,16.6574 -5.6363,25.2992 0.5013,0.8016 1.5032,2.3793 2.0044,3.181 8.3912,4.1075 17.584,6.5379 25.574,11.5472 26.9522,-90.0492 53.528,-180.2228 81.0311,-270.1215 14.9548,11.1213 29.6326,22.6188 44.7123,33.5647 -45.0623,132.9814 -91.4275,265.5134 -136.7645,398.3947 -1.653,6.1865 0.5013,12.5243 1.0267,18.7364 2.0293,11.3719 1.9788,23.0448 4.2084,34.3911 0.7263,0.551 2.179,1.7034 2.9054,2.2799 5.5865,-9.9198 9.043,-20.8153 13.3763,-31.2854 51.65,-128.9747 103.3241,-257.9239 154.9492,-386.8979 13.3507,13.6007 26.1001,27.8042 39.4757,41.3801 -58.9385,128.4727 -118.6785,256.6209 -177.9436,384.9438 5.4609,7.0882 13.1257,16.0808 8.5417,25.5747 -7.2885,11.6466 -21.5914,17.4086 -27.5287,30.1579 -3.2803,9.1673 -0.1747,18.9366 2.4802,27.8788 2.3551,-3.6823 4.6841,-7.3893 6.7886,-11.2214 72.1642,-139.545 144.4783,-279.0395 216.5935,-418.6093 11.0211,16.6573 20.3133,34.3918 31.0341,51.2495 -78.4508,135.4864 -157.3036,270.7477 -236.1307,406.009 4.383,3.4813 8.1156,8.5169 13.7519,9.9696 3.832,0.8513 5.9359,-2.8053 7.8643,-5.3607 78.8023,-121.1835 157.8305,-242.2676 236.8827,-363.3013 6.2632,17.2573 13.977,34.291 18.1605,52.1505 -6.036,10.3445 -13.8768,19.5124 -20.6144,29.4067 -70.2109,97.6381 -140.3465,195.3273 -210.5568,292.9661 -7.1891,9.9689 -17.4838,20.214 -14.0274,33.765 0.4764,7.6648 10.37,5.8613 13.2002,0.6766 82.0593,-103.6258 162.9903,-208.2023 245.5246,-311.427 3.5821,20.1891 7.3893,40.3782 11.0467,60.5673 -99.7427,114.4957 -199.6614,228.7919 -299.404,343.2883 -2.6044,3.7064 -8.0404,9.1175 -2.8302,13.125 3.7575,0.6262 7.9907,0.6511 10.5206,-2.755 97.5131,-99.8931 194.9012,-199.9617 292.4648,-299.8293 -0.05,15.329 0.05,30.6344 0.074,45.9641 -0.4501,3.4308 0.7271,7.7897 -2.1783,10.3948 -92.3037,87.1928 -184.7826,174.3118 -277.0607,261.5053 -7.5143,11.7219 -19.9136,18.2855 -29.0808,28.4801 -35.0175,34.1903 -69.8105,68.607 -104.5276,103.099 3.7327,-0.1001 7.5143,-0.1754 11.2966,-0.2002 98.5165,-87.119 197.4319,-173.7608 296.0974,-260.6788 33.0641,-28.6307 65.2258,-58.3882 98.9162,-86.2669 -3.1057,17.9091 -6.538,35.7942 -9.8936,53.6792 -1.303,7.9644 -9.6437,11.4216 -15.0542,16.3812 -116.4248,92.5535 -233.4767,184.3566 -349.5252,277.361 4.4839,-0.7519 9.643,0.426 13.7512,-2.0037 111.2899,-79.7048 221.6532,-160.8361 333.2939,-240.0388 -4.7338,13.3252 -10.4702,26.2754 -15.4802,39.5261 -2.4538,5.6107 -4.0578,12.2992 -9.7437,15.63 -56.6841,37.4975 -113.4946,74.8453 -170.2539,112.2676 -37.2718,25.0223 -75.3459,48.8439 -112.1917,74.4938 4.334,-0.6269 8.6922,-1.5535 12.449,-3.908 46.0144,-27.528 92.604,-54.1045 138.7185,-81.4571 37.9229,-21.492 74.8446,-44.8117 113.1935,-65.5517 -18.9614,35.5932 -44.2606,67.5554 -72.0393,96.6618 -8.3663,9.1672 -18.8364,16.2817 -26.5765,26.0248 4.9347,9.2432 14.8035,14.4534 20.4397,22.9696 1.0019,50.0218 0.125,100.1686 0.426,150.2402 -274.1296,0.05 -548.2848,0.025 -822.4144,0 0.0752,-47.5169 -0.2755,-95.033 0.0497,-142.5754 6.6132,-6.0616 13.1008,-12.2985 19.6132,-18.4857 -29.0815,-27.1276 -56.7345,-55.8825 -81.357,-87.1183 -9.1431,-11.8483 -17.885,-24.046 -24.9236,-37.2717 89.1475,45.4627 177.7433,92.1282 266.6658,138.0162 3.2313,1.2525 6.538,2.2047 9.944,2.8558 -11.0467,-8.4416 -23.4702,-14.8284 -35.168,-22.2681 -85.6903,-52.0511 -171.331,-104.1761 -257.0469,-156.2016 -3.6567,-2.1798 -7.138,-4.9348 -8.7419,-9.0423 -6.6119,-14.5038 -13.0753,-29.1064 -19.2618,-43.8098 47.4167,30.1324 93.8309,61.8695 140.9473,92.4783 67.806,45.0367 135.9628,89.5231 203.6936,134.6351 3.7823,2.7557 8.4409,3.5069 12.9751,4.1835 -10.2947,-9.043 -21.7923,-16.5324 -32.7133,-24.773 -113.67,-83.1861 -227.2895,-166.3963 -340.9587,-249.5824 -5.3856,-20.8153 -11.1461,-41.6051 -14.5536,-62.8713 135.7882,111.1145 271.0993,222.8808 406.6616,334.2709 3.9578,3.2058 9.4925,1.954 14.1766,2.7549 -92.2774,-85.4901 -185.3833,-170.0785 -278.0114,-255.2179 -49.7464,-45.3626 -98.9666,-91.3266 -149.139,-136.2632 0,-17.2084 -0.3252,-34.4167 0.2755,-51.5995 21.5673,19.7375 41.3304,41.3296 62.3715,61.6188 126.8943,127.1208 254.0399,253.9909 380.8604,381.1614 1.7538,-0.075 5.2599,-0.225 7.0137,-0.3003 C 876.7119,1156.1267 753.8499,1021.9929 630.9616,887.8839 604.8871,858.9522 577.9342,830.7483 552.285,801.4921 c 2.1045,-21.1164 6.5131,-42.0816 10.4197,-62.9473 149.9157,183.9554 299.8797,367.8859 449.7194,551.9166 2.1294,0 6.4372,0 8.5666,0 C 871.5017,1090.9009 721.6371,891.591 571.9231,692.1803 c 6.8631,-17.4831 13.426,-35.0678 20.1635,-52.5765 50.4975,72.941 99.443,146.9839 149.3384,220.351 96.9373,143.5517 193.8249,287.1296 290.8119,430.6572 1.9043,-0.051 5.7115,-0.1257 7.6151,-0.1754 C 896.9756,1058.3374 754.2007,826.1643 611.249,594.0913 c 10.9465,-18.2862 21.842,-36.6206 32.888,-54.8564 79.7041,145.456 159.1575,291.0873 238.5108,436.7443 5.3103,-4.5343 11.2973,-8.1413 17.7849,-10.7712 -20.4646,-39.6518 -39.5013,-80.0549 -59.515,-119.9566 -7.3396,-2.8309 -15.2799,-5.4105 -20.5902,-11.5721 -5.7101,-5.7868 -7.1884,-14.0274 -8.8662,-21.617 -1.9547,-9.5691 -10.0704,-16.1816 -13.1008,-25.2736 -1.1773,-12.099 5.0597,-25.4994 -2.755,-36.4205 -41.7812,-82.4852 -82.2594,-165.645 -123.3391,-248.4804 12.7756,-14.6785 24.6481,-30.1331 37.8731,-44.436 10.7464,24.947 21.492,49.8969 32.1376,74.8702 3.4067,-6.9143 6.6629,-15.38 14.5031,-18.2855 5.436,-0.9273 12.5491,-1.4527 16.2314,3.5566 9.0919,10.9962 16.7823,23.0697 25.75,34.1661 -17.0081,-43.5592 -33.6399,-87.2433 -50.5735,-130.8024 15.0541,-11.7993 29.8832,-23.8713 45.0871,-35.4938 18.3111,53.4286 36.7961,106.7812 54.7308,160.3347 2.6555,-5.7868 4.7842,-11.898 8.5168,-17.1082 4.6089,-6.0367 12.3986,-7.8651 19.0864,-10.6207 -14.2525,-52.5269 -28.3544,-105.1027 -42.707,-157.604 18.6355,-9.6444 37.222,-19.4378 56.1331,-28.5802 12.5747,63.0708 25.0237,126.1686 37.347,189.2906 1.7034,12.0982 14.6785,19.9384 13.5261,32.8887 -0.0241,6.4116 -6.1865,10.0442 -10.1442,14.1524 -2.0293,-0.8272 -6.0616,-2.4553 -8.0653,-3.2818 1.7779,16.2065 1.8035,32.538 3.482,48.7197 4.2084,10.1691 17.2325,10.9963 26.7008,12.5988 13.752,1.1524 26.7775,7.089 37.0716,16.2065 6.964,5.5106 12.5995,13.0504 20.9658,16.607 5.0846,-1.3278 9.8439,-3.7568 15.0038,-4.8339 6.2873,1.1516 11.6729,4.8843 17.334,7.6392 12.574,-3.2313 24.1717,-8.9925 36.0193,-14.1524 7.3644,-3.9328 9.5435,6.4379 12.9503,10.6711 2.1294,-2.7059 5.6107,-5.1349 4.7586,-9.0927 -0.4253,-16.1319 -6.4372,-31.6113 -5.8109,-47.8427 -0.676,-15.079 2.0286,-30.0081 6.2369,-44.4353 -6.1616,2.2536 -13.8513,11.7972 -20.1883,5.7108 -9.043,-11.4479 -14.6537,-25.7252 -14.2028,-40.4534 -4.584,-0.6014 -9.168,-1.2021 -13.7513,-1.7531 12.1736,-18.5106 4.8837,-41.155 3.181,-61.4442 -4.0827,-57.1612 -7.7905,-114.3459 -11.8483,-171.4808 15.505,-1.1787 30.9851,-2.4553 46.4397,-4.1331 z M 754.9015,536.0788 c -3.0553,18.2855 2.1542,36.4453 5.3103,54.3552 2.0293,13.5261 11.597,24.1468 15.3793,37.1219 5.8613,13.7761 4.5591,29.8072 12.8758,42.607 6.6374,11.347 16.2313,20.4149 24.8476,30.1586 5.2095,5.7854 5.4353,14.1524 5.3849,21.5162 0.0504,19.8632 -8.6915,38.1991 -11.3968,57.5617 -2.3544,14.0267 14.6785,19.8631 15.1791,32.9881 0.9273,4.7594 1.7787,10.0946 5.9118,13.2507 7.9907,6.7879 19.1872,6.1872 28.6058,9.6436 13.3507,4.5087 27.4279,12.0486 33.4141,25.4994 1.5025,9.4179 -0.8016,19.1369 1.1773,28.4802 3.0304,5.9863 7.1138,11.472 9.1928,17.9596 3.7319,11.2213 2.0293,23.2699 4.5087,34.7171 1.3277,4.6343 3.6318,10.5702 9.2432,11.0466 10.9963,-3.4571 12.3986,-20.39 25.148,-20.74 7.7407,-1.0026 6.4875,10.1691 12.8494,12.023 9.7445,2.6299 21.5176,0.426 29.2065,8.2662 5.0604,4.2325 6.2121,11.046 7.9162,17.0827 6.3867,24.5969 19.4123,47.4416 37.1461,65.6518 5.6114,6.2369 14.3782,7.2892 21.4671,11.1965 9.3178,4.2588 15.9801,13.3259 26.5759,14.9291 22.1928,5.811 38.2239,29.4565 62.8713,26.1754 20.7905,-6.1624 37.0971,-24.773 59.7912,-25.1735 10.1194,-0.9521 19.6878,4.2829 26.0248,11.9229 10.7961,11.9229 13.9522,28.6804 24.4976,40.7041 3.5317,4.4831 9.3178,5.0341 14.6281,4.8587 26.1257,-0.3003 51.875,4.8098 77.5243,9.2936 12.4497,1.8781 23.5213,8.4161 35.8702,10.821 6.5628,-21.9181 5.8861,-47.066 21.5914,-65.3018 8.9925,-11.9484 24.1219,-16.1313 38.3993,-16.9073 -7.1636,-2.9815 -16.1817,-3.3066 -21.2662,-9.7687 -5.8614,-11.7482 2.5547,-28.7307 -9.0679,-37.8987 -10.8202,-7.3645 -22.5435,-13.8016 -31.0852,-23.9714 -15.6797,-16.2818 -20.0883,-40.8539 -15.0542,-62.2699 6.8142,-10.8962 21.0412,-14.0772 28.3048,-24.5977 2.6811,-4.2588 2.1294,-11.6723 -3.2058,-13.551 -11.6474,-4.7097 -26.6262,0.4004 -36.4204,-8.8421 -9.5684,-12.0485 -3.5573,-28.38 -7.0386,-42.2065 -2.4042,-9.9951 -1.1275,-20.2395 -0.8016,-30.3589 -0.4253,-12.324 -16.6567,-17.1331 -15.4049,-30.0329 7e-4,-23.9466 24.7482,-37.6978 29.3066,-60.1917 0.1761,-6.6629 -2.7052,-12.9751 -3.1057,-19.6125 -1.3774,-9.3938 1.3022,-18.5859 3.6574,-27.5536 1.9789,-4.7842 -2.0293,-9.2929 -6.1872,-11.0211 -9.3931,-4.6088 -19.8135,-8.3663 -25.7998,-17.5591 -3.8072,-0.2003 -7.7401,0.4764 -11.4223,-0.6007 -7.314,-5.3608 -13.1505,-12.7749 -21.4167,-16.8328 -11.2462,-1.2276 -22.7687,3.2065 -33.8899,-0.3252 -16.607,-4.885 -28.7557,-18.01 -39.9777,-30.4341 -6.8632,0.2002 -13.7008,0.2002 -20.5399,0.3259 -12.6237,9.9184 -30.3837,11.9725 -44.5105,3.9825 -10.8706,12.699 -22.1928,25.0734 -34.3415,36.5455 -3.2058,3.8072 -8.3415,2.6051 -12.6748,2.7556 2.4553,6.2866 4.459,13.2251 2.5554,19.9633 -4.2332,8.1405 -11.7731,14.0523 -19.7134,18.3856 -2.8799,-3.482 -5.5105,-7.1387 -7.8401,-10.9963 -13,-0.9024 -24.4472,6.2121 -36.9211,8.3912 -5.9863,1.8532 -11.4968,-1.9285 -17.2332,-3.0056 -8.6667,1.7531 -18.862,5.4602 -26.4012,-1.3526 -10.7704,-9.9951 -21.3911,-22.0927 -36.796,-24.3726 -15.2039,-2.6804 -32.4379,-5.2848 -42.9826,-17.8339 -8.8676,-10.4957 -0.7775,-25.1487 -6.288,-36.8713 -8.8669,-0.8521 -21.1406,3.406 -27.0019,-5.561 -4.3837,-14.403 0.7015,-29.7071 -1.528,-44.4112 -0.3252,-3.0808 -2.5802,-8.9421 -6.7375,-5.9614 -11.3967,2.4297 -14.2283,15.1045 -22.5435,21.5921 -10.9211,8.9422 -23.8465,15.8302 -37.7234,18.8109 -7.9147,1.653 -18.2606,1.1027 -22.8439,-6.6622 -9.2681,-14.5039 -17.0081,-31.5866 -32.9392,-40.0026 -2.9303,3.5317 -5.7612,7.4646 -6.2617,12.1984 z m 182.3528,410.368 c -4.3092,8.1405 -9.8694,16.8079 -19.9895,17.6841 -0.676,3.5814 0.3259,10.1193 -5.0342,10.2202 -7.5647,0.6262 -17.1586,2.3793 -19.538,10.9458 0.8769,9.8936 11.0219,15.2047 13.2258,24.5473 1.1524,5.4105 2.1536,11.1965 6.4869,15.1294 17.7849,19.0111 41.4056,31.0348 64.0493,43.2332 0.9273,14.6033 11.6225,25.6748 14.8034,39.5517 2.0542,6.3868 -4.4583,11.2469 -4.1331,17.4335 1.5287,4.6336 6.237,7.1642 9.6189,10.3956 1.0274,6.7375 3.1561,13.2506 6.3874,19.2617 -0.6511,-7.7152 -0.3259,-17.3084 7.1884,-21.7419 7.1145,-1.5031 12.4994,4.7842 17.2588,9.0423 5.5361,6.0367 12.5243,11.8483 14.5031,20.1394 -2.5298,5.4601 -6.1617,10.2947 -9.2183,15.4794 29.0566,-2.9559 58.2632,-2.1038 87.3944,-1.653 11.2214,-7.9403 21.0901,-18.0845 28.9807,-29.4571 3.5324,-6.5124 11.5224,-4.8339 17.6841,-6.0616 0.5013,-12.199 12.3241,-18.9863 14.6537,-30.4838 1.8035,-7.2644 6.4875,-14.0267 13.5261,-16.9826 4.9596,-1.8539 9.3178,1.6033 13.4253,3.8576 -0.1001,13.5759 0.1008,27.1772 0.026,40.7786 0.3252,4.709 -1.8788,8.9926 -3.5821,13.2251 7.2395,6.5884 17.1835,8.742 24.773,14.8539 4.6593,3.2058 9.0174,8.191 15.3041,7.0137 48.4441,-1.5535 96.9124,-0.426 145.331,-1.9788 9.8198,1.5784 18.561,-6.788 15.8558,-16.7575 -9.4932,-0.2755 -19.5373,1.3526 -28.28,-3.2811 -8.0645,-4.1338 -17.4583,-2.3545 -25.8246,-5.01 -28.855,-12.8246 -61.1935,-10.2195 -91.8776,-12.8246 -15.855,-0.9522 -25.8999,-15.1038 -32.3874,-28.0293 -5.9366,-11.3974 -10.7457,-26.9266 -25.224,-29.6318 -17.1324,0.05 -32.2625,9.4683 -46.0137,18.6859 -15.2792,7.2388 -33.6648,6.5877 -49.1953,0.4509 -9.2674,-6.3882 -16.4068,-16.4067 -27.6281,-19.7133 -5.9359,-1.5025 -13.551,1.1019 -17.584,-4.7338 -10.5454,-11.4728 -25.3489,-16.9329 -38.8999,-23.7712 -10.796,-9.2681 -19.4379,-20.8651 -26.852,-32.9385 -10.27,-16.6325 -15.4298,-35.6444 -22.1424,-53.8539 -7.2644,-1.6792 -14.7794,-1.403 -22.0927,-2.6555 -6.2873,-1.1524 -10.7215,-6.0616 -14.9789,-10.37 z m -15.1301,102.9484 c 40.2788,75.997 80.5306,152.0195 120.6084,228.0911 3.4572,5.436 5.0093,14.6032 13.3508,13.5517 -35.2929,-75.3963 -71.3378,-150.466 -107.1064,-225.6614 -7.0144,-7.7152 -17.9347,-10.7456 -26.8528,-15.9807 z m 259.2012,88.1457 c -7.0882,51.3993 -14.7786,102.7233 -21.6666,154.1482 1.0522,-0.6511 3.1312,-1.9789 4.1828,-2.6555 11.4727,-61.1936 22.3177,-122.5617 33.4141,-183.8554 -9.0167,8.3912 -14.8787,20.0642 -15.9303,32.3627 z m -167.0474,6.0622 c -3.1312,9.8681 -2.1549,20.6144 1.9029,30.0579 15.9815,37.5217 31.561,75.2202 47.4175,112.8179 1.0771,2.9807 3.3059,4.5591 6.6622,4.7337 -11.8476,-34.0404 -23.7953,-68.0815 -36.2451,-101.9217 -5.4353,-1.8787 -9.5435,-5.7612 -11.7226,-11.046 1.7289,-5.9117 3.607,-12.0734 2.7556,-18.3103 -1.3022,-6.6381 -6.3122,-11.5977 -10.7705,-16.3315 z m 136.0878,16.2314 c -2.2046,43.6088 -4.2836,87.2183 -6.9632,130.7775 1.6529,-0.075 4.9595,-0.2755 6.6373,-0.3508 3.0312,-46.5406 8.5417,-92.9043 11.3215,-139.4697 -4.5328,1.5024 -11.6218,2.7805 -10.9963,9.043 z m 55.0312,4.8339 c -10.5206,42.3563 -22.2681,84.413 -31.9615,126.9454 1.3022,-0.6766 3.9074,-1.9788 5.2096,-2.6548 11.898,-39.5773 22.7693,-79.5287 34.6673,-119.1308 -2.6306,-1.7282 -5.2855,-3.4564 -7.9154,-5.1598 z m 21.1157,15.0044 c -12.5492,37.0957 -25.8751,73.9173 -38.775,110.8887 1.6033,-0.075 4.8347,-0.2506 6.4379,-0.3252 12.6741,-34.9677 25.4987,-69.9105 38.8495,-104.6276 -2.1791,-2.0037 -4.3334,-3.9826 -6.5124,-5.9359 z m -104.0256,7.8395 c 0.1498,34.2158 0.9763,68.4827 0.6007,102.724 3.4316,0.1 6.8632,0.2251 10.3196,0.3757 0.1505,-36.7968 -0.3003,-73.5922 0.2258,-110.3882 -3.7071,2.4042 -7.5895,4.6088 -11.1461,7.2885 z m 155.4753,-4.4839 c -20.9403,35.8702 -42.0063,71.7141 -62.2707,108.0096 1.6537,-0.2762 4.9596,-0.8272 6.6133,-1.1276 23.0697,-35.0181 44.3607,-71.3377 66.8787,-106.7811 -3.7567,-0.051 -7.4894,-0.075 -11.222,-0.1002 z m 27.6536,-0.05 c -24.5224,35.6188 -48.3688,71.6885 -72.8664,107.3322 3.1568,0 6.3122,0.075 9.4931,0.1754 26.9777,-35.9944 54.5057,-71.5629 81.558,-107.5324 -6.0864,-7e-4 -12.1238,0.05 -18.1854,0.025 z m -49.5958,107.5076 c 2.204,0 6.6118,-0.025 8.7917,-0.05 33.8657,-36.145 67.7307,-72.2899 101.5709,-108.4349 -6.2114,-0.2258 -12.4234,-0.2251 -18.6362,-0.4004 -30.8091,36.0945 -61.3433,72.4397 -91.7271,108.885 z m -7.6399,-105.3036 c -15.7805,35.1679 -31.9118,70.1612 -47.8676,105.2539 1.6529,-0.026 4.9595,-0.075 6.6125,-0.1001 17.7593,-35.2432 35.469,-70.5113 53.6792,-105.5294 -4.1579,0.1001 -8.291,0.2258 -12.4248,0.3763 z m -176.1408,2.1294 c 7.3147,31.7363 13.727,63.6985 20.3893,95.6102 1.0523,3.3812 0.9521,8.541 6.1375,8.541 -4.6841,-34.8421 -11.2221,-69.4093 -16.5828,-104.1257 -3.3308,0 -6.6374,-0.025 -9.944,-0.025 z m 24.7233,0.1249 c 3.6815,34.3415 6.8128,68.7085 10.5447,103.0493 1.4279,0 4.3341,0.025 5.7861,0.025 -1.3775,-34.3166 -4.5584,-68.5324 -6.1113,-102.8241 -3.4067,-0.075 -6.8383,-0.1754 -10.2195,-0.25 z m -47.8427,2.4298 c 9.7686,33.3644 20.0137,66.6039 29.2065,100.1438 1.6529,0.1753 5.0093,0.5012 6.6622,0.6766 -9.1672,-33.5902 -18.1846,-67.2302 -27.4023,-100.7949 -2.1038,-7e-4 -6.3626,0 -8.4664,-0.025 z m -314.1074,118.5038 c 0.1761,36.5958 0.2514,73.1668 -0.0497,109.7626 262.5575,0.4509 525.1143,0.1505 787.6719,0.1505 -0.2003,-36.6462 -0.1257,-73.3173 -0.05,-109.9628 -262.532,-0.05 -525.0398,-0.1498 -787.5725,0.05 z M 936.0018,315.7782 c 17.0075,-5.4105 33.7898,-11.5224 50.8725,-16.7071 9.0181,71.1112 18.2855,142.1742 26.8023,213.3373 -15.3551,-0.1257 -30.6848,0.2002 -46.0144,-0.2506 -10.6448,-65.4523 -21.3663,-130.8783 -31.6604,-196.3796 z m 94.482,411.4948 c 22.6693,-22.8184 55.5076,-33.3645 87.2191,-32.8128 45.8632,-0.2009 90.2488,23.4198 118.1779,59.3396 10.1947,12.7238 18.6611,27.2277 22.0679,43.3334 6.7382,30.3333 5.2102,61.694 4.033,92.5287 -0.1754,6.0118 -0.3764,12.5746 3.4564,17.6592 10.0697,14.8035 26.8265,22.9192 42.5069,30.459 -6.6374,11.7219 -13.8521,23.1194 -20.6897,34.7419 -13.4516,-5.5105 -26.8016,-12.1735 -37.3222,-22.3682 -15.1542,-15.7052 -24.4472,-36.5702 -27.4527,-58.0622 -3.908,-2.8309 -7.7905,-5.6355 -11.6481,-8.4913 3.9329,-9.0678 6.7886,-18.561 8.1909,-28.3296 4.7338,-0.7519 9.4186,-1.8539 14.1524,-2.5299 0.6263,-16.6829 -0.6511,-33.4397 -5.4353,-49.4957 -4.2836,1.5025 -8.5417,3.0312 -12.7998,4.5087 -3.4564,-10.3451 -9.1182,-19.6878 -15.8813,-28.1798 2.5306,-2.6051 5.0604,-5.2095 7.5903,-7.8146 -10.2699,-13.8272 -23.7457,-25.0485 -38.65,-33.5398 -2.8557,3.7568 -5.6604,7.5391 -8.541,11.2966 -8.0404,-3.6574 -16.8079,-4.7594 -25.2487,-6.9881 -0.9274,-4.4591 -1.1276,-8.9926 -1.5032,-13.5013 -16.7071,-0.4261 -33.5902,-0.9266 -50.0218,2.5547 0.4764,5.3103 1.1019,10.5958 1.7282,15.9061 -9.3675,5.0846 -18.9614,9.7438 -28.5554,14.4279 -8.3905,-11.5977 -17.3582,-22.7693 -25.3738,-34.6425 z m -103.2487,18.6618 c 6.337,-11.9989 13,-23.7961 19.8873,-35.469 15.0797,4.8339 27.9298,14.528 40.2532,24.1972 16.9577,14.4023 22.6188,37.8476 22.0174,59.2892 3.9329,1.9285 7.8906,3.8576 11.8483,5.7861 -2.6051,9.6436 -4.3837,19.4627 -6.2625,29.2817 -4.3581,-0.0255 -8.717,-0.0504 -13.0752,-0.0752 -1.6026,17.9596 0.5013,36.0448 5.561,53.3029 4.1082,-1.1524 8.2157,-2.2792 12.3489,-3.3812 4.1579,8.3656 9.3177,16.2314 15.38,23.37 -3.908,3.2058 -7.7657,6.4621 -11.5977,9.7438 9.6685,14.9285 24.1965,25.9752 40.1524,33.5143 2.7052,-3.3563 5.4104,-6.7126 8.1405,-10.069 8.4664,3.1554 17.0081,6.1368 25.4994,9.2177 0.4509,4.5087 0.9522,8.9925 1.5032,13.4757 17.3333,2.2047 35.1175,1.5031 51.9751,-3.3059 -1.1268,-4.7345 -1.954,-9.5436 -3.1057,-14.2774 9.7942,-4.1338 19.4372,-8.5921 29.2314,-12.7749 7.5391,11.0957 15.0037,22.2681 23.1194,32.9633 -32.6374,23.8209 -75.9217,31.6867 -115.0467,22.168 -29.2569,-7.0137 -56.7849,-21.8172 -78.3266,-42.8328 -27.9292,-30.1331 -35.8198,-73.3166 -34.7668,-113.1438 -0.4764,-16.8825 3.3812,-34.9926 -4.0578,-50.8228 -9.7694,-14.2276 -25.9759,-22.0429 -40.6793,-30.1579 z m 162.7893,-3.2072 c 10.9707,-0.3756 21.9421,-0.6007 32.9384,-0.6504 0.1001,4.4583 0.2003,8.9173 0.2755,13.3756 11.5224,1.3029 22.5436,4.9844 33.515,8.6169 2.7805,-3.482 5.5603,-6.9888 8.3656,-10.4453 9.1928,5.7357 18.01,12.0735 26.0256,19.3875 -3.482,3.2555 -6.964,6.5124 -10.4702,9.7438 10.4453,9.7182 18.4609,21.8925 21.9926,35.819 4.7338,-0.5261 9.4931,-0.977 14.2525,-1.3526 0.6759,10.5447 0.8009,21.1157 0.6759,31.686 -3.957,0.4004 -7.8898,0.8272 -11.8476,1.2276 -0.7263,12.7245 -4.2836,25.0486 -9.1424,36.7712 3.2563,2.429 6.5118,4.8595 9.7438,7.3389 -7.74,7.8147 -14.9291,16.1561 -22.9447,23.696 -2.5795,-2.5803 -5.135,-5.135 -7.6897,-7.7153 -10.0192,9.6189 -22.1928,16.8328 -35.5691,20.6152 0.8769,3.2306 1.7538,6.4627 2.6307,9.694 -10.8465,3.5814 -22.3682,3.181 -33.5405,1.653 0.05,-1.9292 0.1256,-5.7612 0.176,-7.6897 -13.7519,-2.2046 -26.8271,-7.2643 -38.75,-14.403 -1.954,2.98 -3.9073,5.9863 -5.8862,8.967 -8.3415,-5.561 -15.9814,-12.0734 -23.0953,-19.1368 2.3048,-3.1312 4.5592,-6.3122 6.8639,-9.4434 -8.7923,-9.2177 -13.5517,-21.0405 -17.7849,-32.8128 -3.9826,-2.4056 -9.6685,-0.6518 -14.2269,-1.3278 -0.1001,-10.02 -0.1008,-20.0385 0.025,-30.0585 4.2084,-0.1505 8.4161,-0.2251 12.6244,-0.3252 0.7768,-11.7234 4.3334,-23.0193 10.0193,-33.2644 -3.4571,-3.5821 -6.8135,-7.2643 -10.2451,-10.8209 6.0872,-8.3663 13.2003,-15.9061 20.7153,-22.9944 4.0827,1.9285 8.2406,3.7575 12.3737,5.6611 8.5169,-8.1164 19.3626,-12.8999 29.9584,-17.6592 -0.852,-4.7097 -1.4534,-9.4435 -1.9788,-14.1524 z m 26.8769,39.9521 c -0.752,4.033 -1.5536,8.066 -2.3545,12.099 -4.2588,-2.38 -8.5666,-4.6337 -12.9006,-6.8383 1.5784,6.4875 6.1624,11.2469 11.6978,14.6536 0.05,6.6878 -0.2002,13.3756 -0.6262,20.0634 -8.3912,-3.1064 -14.9292,-9.3426 -22.4186,-13.9514 0.1505,12.8992 10.8464,21.1157 21.0915,26.8016 0.025,5.6853 0.099,11.3968 0.125,17.0827 -10.8714,-2.9807 -20.0393,-9.6437 -28.9559,-16.2562 0.7768,7.564 1.4272,15.7301 6.3122,21.9422 5.0597,7.0385 12.8999,11.1219 20.4894,14.8538 0.1754,5.5106 0.2258,11.0716 0.1498,16.607 -15.2792,-3.8576 -26.4004,-15.5802 -37.7475,-25.6741 2.5555,14.9782 9.6941,29.8576 22.293,38.8999 10.1201,6.9377 23.5205,10.5199 35.2929,5.7357 19.3129,-6.0616 30.7849,-25.5989 33.8409,-44.6611 -11.3215,10.1194 -22.4683,21.6169 -37.6233,25.75 -0.1995,-5.561 -0.1995,-11.1219 -0.1001,-16.6574 7.64,-3.7823 15.6307,-7.7897 20.6655,-14.9035 4.7842,-6.2874 5.5603,-14.4528 6.4372,-22.0175 -9.0423,6.6374 -18.3103,13.3756 -29.2811,16.4068 0.125,-5.7371 0.3004,-11.4728 0.4502,-17.1835 10.1449,-5.7613 20.7152,-13.9018 20.9907,-26.7016 -7.6392,4.4832 -14.1524,10.8209 -22.594,13.9018 -0.4501,-6.6885 -0.6511,-13.4012 -0.4757,-20.089 5.5858,-3.4067 10.1194,-8.2406 11.6481,-14.7786 -4.3589,2.304 -8.7171,4.584 -13.0256,7.0137 -0.7512,-4.0081 -1.4527,-8.0156 -2.1038,-12.023 -0.3259,-0.0256 -0.9521,-0.0504 -1.278,-0.0753 z m 336.2746,545.204 c -0.1002,-3.5572 3.8824,-5.235 5.786,-7.7649 2.1798,2.2288 4.4086,4.4839 6.6381,6.7631 -2.079,2.3296 -4.1835,4.6088 -6.2128,6.9888 -2.1286,-1.954 -4.3077,-3.8576 -6.2113,-5.987 z m -106.6811,-5.4353 c 3.0311,1.9285 6.0615,3.9578 9.0671,5.9863 1.3029,-1.7779 3.9073,-5.3849 5.2102,-7.1884 2.2047,2.9048 6.8384,4.8339 7.1139,8.8414 -2.1543,2.5802 -4.6593,4.7849 -7.0642,7.1138 -1.327,-1.8283 -3.9577,-5.4602 -5.2847,-7.2885 -2.8309,2.1287 -5.6356,4.2829 -8.4665,6.4123 -2.4041,-2.3552 -4.7593,-4.7345 -7.1138,-7.089 2.1798,-2.2543 4.3589,-4.5335 6.5373,-6.7879 z m 85.4653,12.7245 c 2.6548,-2.5802 5.3345,-5.0852 8.0901,-7.5895 1.2028,13.6007 0.5758,27.2276 0.2506,40.8283 7.5647,3.7824 16.0809,3.4572 24.247,2.2295 -2.6549,-3.5821 -5.6114,-6.888 -8.6667,-10.069 2.2792,-4.4341 4.7593,-8.7419 7.2636,-13.0255 6.0871,8.5665 9.5933,20.3396 4.4839,30.2083 -2.7549,6.788 -9.8191,11.1717 -17.1331,10.5959 -7.0386,1.4023 -10.1443,-5.987 -13.6014,-10.5206 -5.1343,12.8999 -20.1642,10.3949 -31.2855,10.4702 -7.7394,-0.2003 -19.1617,1.4783 -22.0423,-8.0653 -1.0515,-7.4149 -3.2065,-17.5343 3.2811,-23.0448 1.5031,4.5839 0.3011,11.9732 6.3378,13.5509 12.4987,1.528 25.1983,0.6767 37.7723,0.1257 1.5528,-11.8235 3.3819,-23.8713 1.0026,-35.6941 z m -30.8595,10.3701 c 0.4757,-7.5647 8.4409,-10.7457 14.4272,-13.2755 0.4516,4.2076 -1.7283,7.4894 -4.6089,10.2699 1.8539,2.6051 6.788,4.0578 5.5362,8.0156 0.2251,6.5869 -6.6133,9.4931 -11.9733,10.5702 1.2276,-3.2065 2.5298,-6.3626 3.8576,-9.5187 -2.63,-1.8035 -5.0356,-3.832 -7.2395,-6.0615 z m -496.7854,-9.7438 c 8.8427,0.2499 18.0348,-1.3022 26.6511,1.1524 10.6966,5.1846 10.446,20.0385 3.8583,28.4801 4.7586,8.3408 3.0304,18.1094 4.6585,27.2021 -3.4564,-0.025 -6.8887,-0.025 -10.3203,0.026 -1.3022,-7.0145 -0.2499,-14.4783 -2.9303,-21.1661 -4.0081,-0.6263 -8.066,-0.6511 -12.0983,-0.8769 -0.0255,7.2636 -0.0255,14.5528 -0.1505,21.842 -3.2058,0 -6.4123,0.075 -9.5933,0.201 -0.2009,-18.9622 -0.1008,-37.8988 -0.0752,-56.8602 z m 9.7189,10.9963 c 0.0256,4.5584 0.0746,9.1679 0.1001,13.7512 5.8614,-0.426 16.4068,1.3782 15.6804,-7.6648 -0.7761,-8.191 -10.1698,-5.3097 -15.7805,-6.0864 z m 47.3415,-9.719 c 3.2065,-0.5261 6.4627,-0.6262 9.6941,-0.8264 5.0093,18.3856 9.1672,36.9962 13.9266,55.4571 -3.3315,-0.026 -6.663,-0.05 -9.9945,-0.075 -0.9017,-3.7575 -1.753,-7.4397 -2.6548,-11.1716 -4.1579,-0.025 -8.2917,-0.025 -12.449,0 -0.852,3.6822 -1.7289,7.3893 -2.5554,11.0964 -2.4042,0.1001 -7.2139,0.3003 -9.6181,0.426 4.3085,-18.3608 8.541,-36.7712 13.6511,-54.9062 z m 4.5832,15.6548 c -1.2524,5.9622 -2.4538,11.9485 -3.832,17.8851 2.0286,-0.075 6.0623,-0.2251 8.0908,-0.3004 -1.3774,-5.8869 -2.7308,-11.7482 -4.2588,-17.5839 z m 19.3378,-16.1305 c 11.0467,-0.1754 22.0678,-0.3003 33.1138,0.1754 -0.2251,3.5317 -0.4508,7.0634 -0.7015,10.6207 -3.7816,-0.076 -7.5647,-0.1009 -11.3463,-0.1257 -0.05,14.954 0.4757,29.9329 -0.3508,44.8869 -2.2543,-0.1506 -6.7886,-0.4509 -9.043,-0.6014 -0.0248,-14.7282 -0.225,-29.4316 0.1761,-44.1598 -3.9328,-0.076 -7.8657,-0.1506 -11.7986,-0.2258 -0.0241,-3.5317 -0.0497,-7.0634 -0.0497,-10.5703 z m 170.0288,-0.7271 c 3.0305,0.1506 6.0616,0.2258 9.1176,0.2762 0.025,6.5877 0.05,13.1754 0.2499,19.7631 4.6095,-6.5628 8.8676,-13.3756 13.2514,-20.089 3.6318,0.075 7.2636,0.1506 10.9203,0.2507 -4.7338,8.1909 -10.3197,15.8806 -15.2537,23.9714 5.6107,10.7457 10.8955,21.6667 16.3059,32.538 -3.8569,0.025 -7.6896,0.075 -11.5472,0.125 -4.158,-7.8651 -6.6381,-16.8825 -13.0497,-23.3204 -0.9522,7.6648 -0.8769,15.4305 -0.8521,23.145 -3.0808,0.025 -6.1368,0.1257 -9.1928,0.2755 -0.1498,-18.987 -0.2002,-37.9485 0.05,-56.9348 z m 127.9225,7.3894 c 3.0808,-2.8807 6.1865,-5.686 9.393,-8.4161 1.1268,11.5977 -0.026,23.3204 1.528,34.8676 9.5435,3.7071 21.3656,2.079 31.3096,-0.426 -5.6859,-5.1847 -12.8495,-4.3582 -18.4601,0.6518 1.0515,-6.5131 0.8016,-15.6306 8.3159,-18.3607 9.1928,1.4023 18.0845,4.2332 27.0018,6.763 -0.9259,3.8072 -1.8532,7.5896 -2.7549,11.3968 -1.0267,0.5758 -3.1064,1.6785 -4.158,2.2295 6.9385,-0.426 13.9018,-0.5758 20.8154,-1.3775 -2.7053,-3.5068 -5.5859,-6.8383 -8.5417,-10.0945 2.1294,-4.2084 4.3333,-8.3415 6.5877,-12.4739 9.1679,9.1921 10.4197,25.3986 1.5031,35.1928 -8.6163,9.4932 -27.9789,5.5106 -28.7812,-8.5417 -5.3849,5.5603 -10.3949,13.7519 -19.1617,13.4764 -7.2885,0.075 -17.5839,1.7283 -21.3166,-6.3874 -3.3307,-12.4994 -2.5547,-25.6748 -3.281,-38.4994 z m 192.4715,-0.2251 c 3.0809,-2.8558 6.1617,-5.6611 9.3931,-8.3408 1.0771,11.1461 -0.4509,22.4179 1.2524,33.4894 0.7009,4.6089 6.1113,2.7805 9.3434,3.3315 4.5335,0.05 9.0415,-0.426 13.5758,-0.8769 -2.6797,-3.5821 -5.6107,-6.9384 -8.7171,-10.1194 2.3552,-4.4086 4.8595,-8.7419 7.4895,-12.9751 8.8427,11.4223 10.1953,31.0348 -3.732,39.0255 -8.2413,2.7053 -22.0927,4.0827 -25.7997,-6.0367 -3.0809,-12.2239 -1.5784,-25.0485 -2.8054,-37.4975 z m -728.9336,-4.584 c 10.7208,-0.075 21.4416,-0.05 32.1616,-0.025 0.2258,3.6319 0.4509,7.2644 0.6767,10.9211 -4.0074,0.1505 -8.0148,0.2755 -12.023,0.4011 0.1001,14.6026 0.1001,29.2314 0,43.8595 -2.4049,-0.026 -7.2139,-0.025 -9.6188,-0.05 -0.2258,-14.6785 0,-29.3563 -0.1505,-44.0349 -3.607,0.075 -7.214,0.1754 -10.7954,0.2755 -0.0752,-3.7823 -0.1505,-7.5647 -0.2506,-11.347 z m 41.1791,0.1505 c 10.321,-0.2755 20.6399,-0.2506 30.9603,-0.1249 0.1498,3.6062 0.301,7.2387 0.4508,10.8706 -7.2643,0.3507 -14.5535,0.3756 -21.8172,0.2755 0,3.3066 -0.0248,6.6125 -0.1001,9.9447 6.5629,0 13.125,0.025 19.6885,0.1001 0,2.6051 0,7.8146 -0.0255,10.3949 -6.4372,0.1001 -12.9255,-0.1505 -19.3619,0.4004 -0.3011,3.9833 -0.3011,8.0156 -0.3508,12.0486 7.5143,0.025 15.0541,0.025 22.5677,0.075 0.0256,3.6069 0.0256,7.2388 0.0511,10.8961 -10.7463,0.075 -21.4671,0.2755 -32.1872,-0.3756 0.1995,-18.1853 0,-36.3459 0.1243,-54.5057 z m 53.6295,43.8595 c 2.6292,-14.9789 0,-30.383 1.452,-45.5124 2.4297,0.1001 7.2644,0.35 9.6692,0.4757 -0.2762,15.2543 1.1517,30.6592 -0.727,45.8632 -1.4016,10.0952 -15.3296,13.852 -22.4428,7.2395 -4.9595,-5.2351 -4.4838,-13 -5.2606,-19.6381 3.1817,-0.05 6.3626,-0.125 9.5684,-0.2258 0.201,4.4838 0.3259,16.2817 7.7408,11.7979 z m 32.538,-44.0597 c 3.2058,0.025 6.4123,0.05 9.6181,0.05 4.8843,18.2855 9.393,36.6959 13.6518,55.1568 -3.2321,-0.075 -6.4634,-0.125 -9.6692,-0.125 -0.8762,-3.5324 -1.778,-7.0641 -2.6797,-10.5709 -4.2091,0 -8.4167,0.025 -12.6003,0.05 -0.8761,3.5317 -1.753,7.0634 -2.6548,10.5951 -2.3793,0.025 -7.1386,0.05 -9.5187,0.075 4.66,-18.4105 8.9429,-36.9211 13.8528,-55.2314 z m 4.5087,16.9322 c -1.3029,5.4608 -2.4553,10.997 -3.7078,16.5075 1.8787,0.075 5.5858,0.25 7.439,0.3252 -0.9763,-5.6859 -2.079,-11.3215 -3.7312,-16.8327 z m 156.5772,-17.584 c 8.0653,-0.05 16.3315,-1.102 24.2463,0.9521 9.2687,4.7594 7.7407,16.6319 4.6592,24.798 4.8346,9.0926 5.8862,23.5205 -4.8346,28.8557 -7.9645,1.3022 -16.1057,0.5013 -24.1213,0.5013 -0.025,-18.3856 -0.1001,-36.7464 0.05,-55.1071 z m 9.2929,20.7656 c 4.4086,0.9763 8.9422,0.1001 13.4005,-0.2002 -1.0764,-3.0063 0.6767,-7.9659 -2.8799,-9.4939 -3.4571,-0.551 -6.9384,-0.6511 -10.4204,-0.3003 -0.3508,3.3059 -0.3756,6.6629 -0.1002,9.9944 z m -0.1249,11.1965 c 0.025,4.3582 0.024,8.742 0.05,13.125 4.2581,-0.3756 8.7419,0.2506 12.7742,-1.4776 2.0548,-3.5068 1.1772,-7.4894 0.5517,-11.2213 -4.459,-0.1754 -8.9173,-0.3011 -13.3763,-0.4261 z m 41.4546,-31.6114 c 3.482,0.1257 6.9881,0.2762 10.4957,0.4516 3.832,18.3097 8.9166,36.2948 12.9993,54.5299 -2.4539,0 -7.3886,-0.025 -9.8688,-0.025 -0.7761,-3.5573 -1.5777,-7.1387 -2.3545,-10.6455 -4.2332,-0.026 -8.4664,-0.026 -12.6748,-0.026 -0.9017,3.5317 -1.7779,7.0393 -2.6299,10.5959 -3.2058,0 -6.3875,0 -9.5684,0.05 4.4341,-18.3359 9.0422,-36.6207 13.6014,-54.931 z m 5.235,16.6574 c -1.6025,5.4602 -2.9807,10.9715 -4.4086,16.5069 2.6804,0.1505 5.3608,0.426 8.0156,0.8016 -1.2525,-5.7612 -2.3545,-11.5473 -3.607,-17.3085 z m 22.1431,-16.2313 c 3.2563,-0.1754 6.5125,-0.4005 9.7687,-0.6511 4.9347,10.9458 9.2425,22.1431 13.8016,33.2643 1.3526,-10.9963 0.676,-22.0927 0.9266,-33.1138 2.931,0.2002 5.8862,0.3756 8.8428,0.5261 -0.201,18.0342 -0.026,36.0946 -0.1009,54.1543 -2.9303,0 -5.8613,-0.05 -8.7668,-0.1506 -6.1865,-10.9458 -9.6436,-23.1698 -15.179,-34.4416 -0.4261,11.5722 -0.1009,23.1699 -0.3764,34.7427 -2.9551,-0.201 -5.911,-0.3259 -8.8669,-0.3756 0,-17.9852 0.05,-35.9696 -0.05,-53.9547 z m 97.1127,7.1386 c 2.4546,-2.3793 4.9092,-4.7338 7.3886,-7.0634 2.2799,2.0542 4.5591,4.0827 6.8639,6.1873 2.3545,-2.0293 4.7338,-3.9833 7.1387,-5.9366 1.8035,2.6548 5.8862,4.5584 5.786,8.1156 -2.0789,2.3041 -4.3581,4.4086 -6.6125,6.5373 -2.1294,-2.3544 -4.2581,-4.6841 -6.3875,-6.9881 -2.304,2.2288 -4.5839,4.5087 -6.8631,6.763 -2.4546,-2.5305 -4.8851,-5.0852 -7.3148,-7.6151 z m 33.7401,7.7153 c 11.898,6.888 7.8153,26.852 -4.3085,31.7108 -11.2718,4.6088 -24.3719,3.8831 -36.1194,1.7289 -10.8465,-5.7364 -8.6922,-20.5903 -5.436,-30.3341 5.5113,3.1064 2.1798,12.3241 9.3178,13.6014 12.1238,2.6804 24.6225,0.4765 36.8968,0.1506 -2.0789,-2.3552 -4.0827,-4.7345 -6.0615,-7.1387 1.8283,-3.3066 3.6069,-6.6133 5.7108,-9.7189 z m 24.9733,7.5391 c 3.7326,-0.05 4.1075,4.4341 5.485,7.0641 3.7326,11.1965 5.5858,24.898 -1.3775,35.2177 -5.7605,7.0634 -15.855,3.482 -22.944,0.8769 7.4646,-6.6126 15.5298,-12.6244 21.8917,-20.3645 -3.0801,-3.5821 -6.036,-7.2388 -9.192,-10.7208 1.9788,-4.0827 3.7816,-8.2158 6.1368,-12.0727 z m 46.1393,42.9833 c 2.5547,-2.4546 5.135,-4.9092 7.7146,-7.3389 2.5554,2.5795 5.1598,5.1846 7.74,7.8153 -2.6051,2.429 -5.1853,4.8843 -7.7649,7.3133 -2.5795,-2.6051 -5.135,-5.1846 -7.6897,-7.7897 z m 181.0749,-5.6107 c 2.505,2.1791 4.9844,4.3582 7.5391,6.5877 -2.5299,2.3544 -5.0846,4.7089 -7.6151,7.1138 -1.9278,-2.1798 -3.8065,-4.3837 -5.5603,-6.6381 1.6785,-2.5043 3.6823,-4.7842 5.6363,-7.0634 z m -547.3576,175.3136 c 20.1643,0.075 40.3526,-0.05 60.5417,0.1001 -0.1505,40.8788 0.025,81.7582 -0.1001,122.637 0.05,8.0155 0.6511,17.3084 7.6144,22.5939 4.033,4.3078 10.0945,4.4839 15.5803,4.3831 39.1505,-0.125 78.301,0.05 117.4771,-0.075 7.8402,0.627 15.0293,-5.059 17.7345,-12.1735 1.7282,-5.26 1.3022,-10.8706 1.5521,-16.2811 -40.1516,0 -80.2799,0.075 -120.4323,-0.025 -0.075,-20.3645 -0.1001,-40.729 0,-61.0679 53.8795,-0.1008 107.7838,-0.6766 161.6625,0.2003 0.05,23.2699 -0.075,46.5646 0,69.8346 -0.9266,10.5454 9.0175,20.5398 19.5877,19.538 43.4093,-0.026 86.8179,0.1001 130.2514,-0.075 3.5075,0.426 8.4416,-1.3526 10.446,2.6804 0.4757,19.5877 0.024,39.2009 0.1498,58.7886 -35.9944,0.1747 -71.9889,0.125 -107.984,0.05 -25.8495,-0.3508 -48.7189,-20.865 -53.2773,-46.089 -4.4086,25.7501 -28.4049,46.4902 -54.6811,46.1643 -50.898,-0.075 -101.7961,0.05 -152.6948,-0.075 -28.1791,-0.3004 -53.604,-25.2488 -53.4534,-53.6281 -0.0505,-52.4771 -0.0505,-104.9784 0.0255,-157.4797 z m -262.157,20.2643 c 15.3047,-12.6748 40.9788,-8.8669 51.6499,8.0405 8.9919,12.3233 8.3663,30.0329 -1.2269,41.8309 -10.7712,14.8283 -33.5903,18.6106 -48.469,7.865 -7.6393,-4.7842 -11.7482,-13.1257 -15.204,-21.1157 -3.6822,12.8246 -13.3266,24.3222 -26.7767,27.2525 -18.6114,5.2607 -39.2017,-7.6392 -43.535,-26.2755 -5.7854,-20.9907 11.8732,-43.885 33.4404,-44.2855 17.2325,-1.0522 32.9377,12.0983 36.6455,28.6556 2.5043,-8.3167 6.1873,-16.7831 13.4758,-21.9678 z m 627.0871,22.1424 c 3.6319,-15.73 17.4335,-29.6318 34.2158,-29.3819 19.2121,-1.7033 37.3471,15.4049 37.1965,34.5673 1.2277,19.9136 -17.3581,38.023 -37.222,36.5206 -16.5566,-0.075 -30.4086,-13.3508 -33.9148,-29.056 -3.3066,22.5684 -30.0585,36.6959 -50.4975,26.5261 -19.6133,-8.5168 -26.9529,-35.7189 -14.2525,-52.9024 9.9944,-15.1543 32.1368,-20.0634 47.541,-10.3949 8.9428,5.0341 14.829,14.1772 16.9335,24.1212 z m 85.7905,57.1605 c 20.2644,-0.025 40.528,0.025 60.8172,-0.025 1.4534,44.3856 -0.05,88.8465 0.7512,133.2328 0.6518,9.518 9.7197,17.6841 19.2881,17.3084 30.258,0.1 60.5161,-0.075 90.7749,0.05 0.05,20.4397 0.025,40.8538 0.025,61.2936 -29.357,0.05 -58.714,0.1249 -88.0455,0 -25.3986,-0.6767 -48.6692,-20.8658 -52.5013,-46.0641 -4.1828,15.4297 -12.875,30.1835 -27.1027,38.2736 -10.6448,6.5628 -23.3948,8.492 -35.6933,7.9154 -79.5287,-0.1753 -159.0326,0.025 -238.5364,-0.1249 -0.025,-20.4149 -0.05,-40.8539 0.025,-61.2936 83.7364,-0.1257 167.4728,0.075 251.2098,-0.075 10.2706,0.2002 19.7638,-9.2929 18.8116,-19.6878 0.1499,-43.6095 -0.225,-87.2184 0.1754,-130.8031 z m 200.7378,0.051 c 20.4646,-0.1002 40.9291,-0.075 61.4186,-0.026 0.2506,43.5847 -0.05,87.1438 0.1256,130.7278 -1.0018,10.5958 8.6163,20.1394 19.112,19.7133 30.0578,0.2251 60.1405,-0.025 90.2239,0.075 l 0,61.3185 c -36.7208,0.1754 -73.4415,-0.075 -110.163,0.1498 -31.5362,3.0063 -61.9448,-24.2966 -60.7668,-56.2581 0,-51.9006 -0.05,-103.8012 0.05,-155.701 z m -1103.5827,20.314 c 110.7389,0.6511 221.4778,-0.2002 332.2167,0.3756 0,20.2644 -0.0241,40.5287 0.0256,60.7931 -92.5031,0.1746 -185.007,0.099 -277.5115,0.05 -31.3608,0.1001 -58.1873,-30.2084 -54.7308,-61.2184 z m 361.6242,-0.075 c 20.3396,0.7264 40.6785,0.1754 61.043,0.5262 0.3507,39.2009 -0.0256,78.4011 -0.1506,117.6021 -0.1001,27.829 -24.7723,52.7271 -52.5765,53.2276 -26.1754,0.3259 -52.3515,0.05 -78.5268,0.1009 0.0752,-20.4895 -0.1747,-40.9796 0.1753,-61.4442 17.0827,-0.125 34.1917,0.3259 51.2992,-0.125 10.27,0.2507 19.2377,-9.2432 18.5859,-19.4627 0.1505,-30.1331 -0.2003,-60.291 0.1505,-90.4249 z m 660.8521,8.8925 c 19.1368,-8.8172 43.383,3.8576 48.393,23.9714 6.7382,21.3408 -12.0734,45.3122 -34.2158,44.8614 -18.1598,0.8016 -34.8676,-14.4776 -36.0945,-32.5125 -1.7041,-15.2543 7.7898,-30.5839 21.9173,-36.3203 z m -485.814,118.1531 c 18.3608,-8.8925 42.6077,1.5031 48.5436,21.066 8.3159,21.2158 -9.2681,47.3663 -32.1624,47.1156 -19.2114,1.7787 -37.7475,-15.4545 -37.171,-34.7419 -1.1772,-14.2021 8.2407,-27.5528 20.7898,-33.4397 z m 639.1599,133.7333 c -3.5814,-19.2873 11.6978,-39.1256 31.0348,-41.2295 18.8621,-2.8806 37.9485,12.0734 39.9025,30.9852 2.8806,18.561 -11.0716,36.2699 -28.9566,40.2525 l -10.3942,0 c -15.6307,-1.8788 -29.0815,-14.4528 -31.5865,-30.0082 z" />
</svg>
