<?xml version="1.0" encoding="UTF-8" standalone="no"?>
<svg
   xmlns:dc="http://purl.org/dc/elements/1.1/"
   xmlns:cc="http://creativecommons.org/ns#"
   xmlns:rdf="http://www.w3.org/1999/02/22-rdf-syntax-ns#"
   xmlns:svg="http://www.w3.org/2000/svg"
   xmlns="http://www.w3.org/2000/svg"
   viewBox="0 0 2267.7166 2267.7166"
   id="svg2"
   height="2267.7166"
   width="2267.7166"
   version="1.1">
  <metadata
     id="metadata10">
    <rdf:RDF>
      <cc:Work
         rdf:about="">
        <dc:format>image/svg+xml</dc:format>
        <dc:type
           rdf:resource="http://purl.org/dc/dcmitype/StillImage" />
      </cc:Work>
    </rdf:RDF>
  </metadata>
  <defs
     id="defs8" />
  <path
     id="path4"
     style="fill:#046b10;fill-rule:evenodd"
     d="m 921.3409,305.7776 c 78.4444,-1.8324 157.0845,-0.5061 235.6084,-1.0521 53.0637,-5.537 106.5948,-1.5594 159.9314,-2.8846 9.1234,0.8963 20.235,-2.5342 27.5647,4.601 30.9973,27.5248 58.5619,58.5995 88.7006,87.0615 60.3932,60.432 121.7226,119.929 182.3115,180.1664 8.499,8.6161 18.3241,16.1027 25.0691,26.2793 1.0533,6.2377 0.7405,12.5926 0.8576,18.9088 -0.389,132.5613 0.5847,265.1237 0.04,397.6463 -6.3548,11.5802 -17.4289,19.6901 -26.3577,29.281 -89.6345,89.6742 -178.8015,179.816 -268.0867,269.8417 -90.648,1.2467 -181.3368,-1.0145 -271.9074,1.9883 -46.8635,-0.1172 -93.7292,0.039 -140.5541,-0.078 -10.7214,0.7018 -17.1934,-8.8891 -24.3673,-15.1279 -91.5464,-90.3761 -182.3115,-181.6484 -274.4813,-271.4399 -3.9389,-3.8593 -7.4479,-8.6934 -6.8235,-14.5034 -1.482,-129.9111 -0.7018,-259.8597 -1.5981,-389.7707 0.2719,-8.5 -0.7416,-17.2333 1.4423,-25.5764 22.8477,-26.3566 49.2817,-49.2817 73.0267,-74.8194 59.7302,-59.8097 118.837,-120.319 178.723,-179.9718 13.6868,-13.4911 26.1622,-28.2676 40.8999,-40.5485 z m 61.3681,154.7857 c -51.3108,52.5176 -103.5555,104.1788 -154.9812,156.618 -15.7115,15.9855 -32.3988,31.1919 -46.2015,48.9313 -2.7299,7.2899 -1.208,15.3611 -1.5993,22.9648 0.9361,89.5947 -0.7791,179.2701 0.9361,268.7885 10.6839,13.3331 23.8998,24.2502 35.9487,36.2979 53.6869,54.1942 108.7388,106.9849 162.7386,160.8675 13.7242,17.1161 37.8186,9.046 56.5328,8.9675 82.5789,-0.662 165.1568,-0.039 247.7346,-1.0521 66.6332,-69.8681 135.4082,-137.6695 203.5611,-206.0169 1.1704,-60.6673 -1.3649,-121.4496 1.4036,-182.0385 -2.8846,-37.1964 -0.1945,-74.5464 -2.0269,-111.7804 -63.7465,-65.8142 -130.4957,-129.2479 -194.7108,-194.8666 -5.3016,-4.9523 -9.9036,-12.8268 -18.2467,-12.0863 -90.9994,-0.273 -182.0386,0.1558 -273.0778,-0.1559 -6.1603,0.4675 -13.6845,-1.0134 -18.0113,4.5623 z m 51.3086,104.685 c 33.3359,-36.5322 69.5564,-70.2959 103.4759,-106.3218 72.3636,71.9337 143.8299,144.7648 215.8807,217.0113 43.1998,44.9924 88.621,87.8805 130.8847,133.809 -32.3987,40.1197 -71.3103,74.3906 -106.1273,112.3275 -7.0179,9.9025 -19.689,6.6665 -30.0214,7.0953 -63.5895,-0.273 -127.1414,0.1171 -190.7321,-0.1172 37.6628,-40.7042 77.5868,-79.3418 116.147,-119.2658 -41.8349,-43.7071 -85.2292,-85.9707 -127.4542,-129.3264 -37.3511,-38.4043 -76.9247,-74.7807 -112.0533,-115.2119 z M 894.0471,695.471 c 5.9271,-7.7596 16.5326,-4.8342 24.8757,-5.5359 65.2672,0.6233 130.5343,-0.9361 195.7617,0.8189 -37.35,40.7816 -78.0156,78.5616 -115.055,119.6946 11.1514,14.971 25.772,26.7855 38.3259,40.5098 65.15,64.9157 129.364,130.7289 194.2808,195.8402 1.7937,2.847 8.2271,7.2523 3.8593,10.6055 -34.5826,33.7249 -67.6057,69.1265 -102.5398,102.5011 C 1022.1655,1049.3715 912.5292,937.1237 801.7226,826.044 796.5768,820.9369 791.7405,815.5171 786.945,810.0983 820.2423,769.6659 858.9196,734.187 894.0471,695.471 Z m 1029.5383,584.8704 c 21.1324,-18.0124 39.5725,-38.9105 60.6663,-57.0014 -5.8089,22.4177 -23.2765,39.2233 -38.1701,56.0664 -35.0501,34.2312 -73.8446,64.3311 -112.8723,93.8453 -12.1251,9.2792 -23.3162,20.0791 -36.961,27.1756 4.4053,-14.1144 14.425,-25.3432 25.225,-35.0512 33.2585,-29.281 69.3221,-55.169 102.111,-85.0347 z m -134.0047,24.1728 c 7.8756,5.264 15.6728,11.4244 19.6503,20.3135 -0.389,11.3061 -5.3414,22.6133 -14.4647,29.5141 -10.2927,1.7153 -15.7126,-9.162 -22.9648,-14.3089 4.991,-12.2809 10.6054,-24.3286 17.7792,-35.5187 z m -294.7152,38.2087 c 6.9008,-3.9764 11.9692,5.3812 16.6862,9.1632 8.8515,12.944 -0.9748,28.462 -8.9278,39.1835 -10.1368,-1.2864 -17.1946,-8.5387 -23.7064,-15.6738 4.9922,-11.0343 9.1234,-22.5736 15.9469,-32.6729 z m 40.9772,-1.9097 c 11.3846,0.039 19.6106,12.0477 19.6492,22.6133 -2.3772,10.0197 -8.3431,18.6756 -14.0359,27.0972 -8.226,-3.7047 -16.0242,-8.7333 -21.3656,-16.1027 0.273,-12.7882 7.7585,-24.133 15.7512,-33.6078 z m 235.3752,120.7876 c 3.8207,-18.6368 9.5511,-37.4693 21.6762,-52.479 -5.8863,37.896 -16.2574,75.7544 -14.152,114.4317 1.2477,13.7243 13.6458,21.4828 26.6683,18.2468 2.6127,-6.5118 3.4305,-14.6593 9.981,-18.6756 -2.9243,18.8314 -7.291,38.989 -20.1963,53.7268 -4.5611,6.2377 -13.4115,4.4053 -19.7675,2.7287 -7.3683,-4.1721 -7.953,-13.49 -9.6693,-20.7809 -3.9765,-18.6756 0.078,-37.507 1.9109,-56.1438 -12.6711,8.0712 -18.2866,23.0034 -29.554,32.6341 -35.4789,36.415 -87.9977,47.6051 -136.7721,51.8546 -22.4575,-0.2343 -48.9313,3.3918 -67.5671,-11.7361 -9.3963,-17.5449 -4.3677,-37.9744 -1.755,-56.6113 3.7819,6.5505 6.5493,13.763 11.3846,19.7277 13.1009,9.9423 30.4889,10.6839 46.3186,10.6054 44.9151,0.9748 91.1166,-6.0818 131.2749,-27.0584 23.9395,-12.3207 44.4088,-33.5692 50.2177,-60.4707 z m -669.3602,5.1845 c 3.7433,-17.934 7.3307,-37.4285 18.1682,-52.479 -3.8593,34.8954 -12.125,69.6349 -11.0718,104.9193 0.546,16.1027 15.3611,31.8152 32.1656,27.7205 12.671,-1.4423 15.3997,-16.5304 24.6413,-22.7692 6.9395,-0.3902 13.8404,0.8974 20.7412,1.6379 8.773,-15.4009 17.3106,-31.5036 31.2692,-42.9655 5.7316,-6.356 15.0881,-3.509 22.6134,-4.1721 8.6161,22.9648 -5.8476,47.1763 -22.6134,62.3041 -15.6727,14.4261 -39.2233,15.7899 -58.0149,6.9009 -9.4748,10.4883 -15.4395,24.7187 -27.9558,32.1268 -7.6016,1.6766 -15.7126,1.5595 -23.198,-0.5061 -11.0719,-6.5118 -13.3729,-20.665 -13.5685,-32.4397 -0.2719,-26.9413 5.4983,-53.4538 6.8235,-80.2768 z m 92.5986,58.6393 c 16.726,2.4569 29.5926,-9.7467 39.0663,-21.7944 -4.6396,-3.0415 -8.3431,-8.5774 -14.2304,-8.9675 -12.7495,5.5359 -19.6504,18.6369 -24.8359,30.7619 z m 653.9196,-72.2067 c 3.3918,-13.6071 6.6665,-28.2277 16.1413,-38.989 -5.8873,37.3125 -14.699,74.8979 -11.4232,112.9895 2.8458,11.4232 12.7484,16.2187 23.8998,15.3622 3.2746,-6.7461 6.0818,-13.9973 11.6575,-19.2216 -2.5342,17.1935 -7.2522,34.4655 -15.6738,49.7105 -5.9261,11.6576 -25.2647,10.4485 -30.5288,-1.2091 -3.3907,-11.8918 -4.9899,-24.407 -3.8593,-36.7277 2.8083,-27.3702 5.1856,-54.8176 9.7865,-81.9148 z m -333.6656,33.725 c -1.6766,-20.1963 4.3666,-42.5367 17.8566,-57.5087 -0.4675,14.4648 0.039,29.0467 -1.9893,43.4728 -1.8313,14.8549 -11.8521,26.6296 -19.5321,38.9105 -11.2288,16.3757 -15.5954,36.8836 -29.2025,51.6998 -15.4783,11.2675 -35.0512,14.0747 -53.3366,17.7395 20.0006,-16.9216 48.1897,-25.5377 60.7436,-50.2178 -8.6161,-0.9361 -17.1548,-1.7539 -25.6935,-2.8072 -3.4692,-17.7007 4.2505,-35.4015 16.7646,-47.6824 4.0174,-2.6912 9.2417,-1.5606 13.8415,-2.3397 4.4451,4.9899 8.773,10.0595 13.0611,15.2052 1.8722,-1.6379 5.6144,-4.8739 7.4855,-6.472 z M 490.6317,1449.3575 c 2.2999,-5.6917 4.4837,-11.7349 9.4339,-15.6727 -2.4557,25.1088 -6.472,50.0995 -9.6296,75.1697 -2.4568,23.7053 -15.2439,44.4862 -27.4087,64.4095 -0.4675,-3.7433 -1.5982,-7.6811 -0.1172,-11.3459 7.3694,-22.4575 13.5674,-45.4997 14.425,-69.2436 0.2354,-15.4794 7.7595,-29.281 13.2966,-43.317 z m 138.1756,35.207 c 2.6901,-18.5981 11.2288,-35.9475 20.6638,-51.9717 -1.7152,27.799 -6.2388,55.3249 -10.0207,82.9293 -5.4973,19.9222 -12.3196,41.0546 -27.642,55.7537 6.6676,-28.6963 15.7114,-57.1186 16.9989,-86.7113 z m 287.621,11.2675 c 1.1693,-22.5349 11.5781,-42.9268 21.17,-62.849 -1.0521,45.4599 -4.8341,93.7679 -30.5674,132.7956 -1.6368,1.2864 -4.9126,3.8991 -6.5494,5.1855 7.7574,-24.4855 13.8801,-49.4773 15.9457,-75.1321 z m -483.1108,-29.4755 c 4.445,-9.981 8.3431,-20.624 15.9855,-28.7339 -5.9659,32.36 -3.782,66.0076 -14.8151,97.4714 -12.7882,39.4963 -39.1062,81.0184 -82.2662,90.8833 -16.6497,1.2865 -36.4161,4.3666 -49.6342,-8.4215 -16.6476,-12.9839 -19.2204,-36.1045 -16.4133,-55.5979 2.7674,-27.9945 16.7647,-52.8691 29.7098,-77.1977 1.481,-3.9389 5.0298,-6.083 8.9278,-6.9793 -10.4098,25.226 -28.8522,49.905 -24.3297,78.6787 0.2354,14.972 12.7893,26.2008 26.1234,30.7232 20.8197,2.9631 43.7845,2.2613 61.8367,-9.7853 17.9737,-12.0091 32.4772,-29.7496 39.651,-50.2178 4.2108,-19.962 -2.963,-41.4845 5.2243,-60.8232 z m 358.7744,-26.9015 c 8.6957,-0.1172 15.2837,9.0847 19.5719,15.907 2.1065,11.9693 -5.9648,22.3802 -11.0719,32.4783 -10.7612,0.8963 -17.662,-8.1099 -24.8359,-14.5432 4.444,-11.6963 8.4216,-23.9396 16.3359,-33.8421 z m -56.2212,35.9862 c 4.3269,-11.6576 8.9289,-23.471 16.2574,-33.6078 9.046,0.7018 16.1811,7.8756 20.119,15.5953 1.4422,12.5926 -6.1217,23.471 -11.9306,33.9195 -9.9821,-1.9495 -17.0775,-9.5124 -24.4469,-15.907 z m 293.1956,12.5152 c 2.5729,-13.8801 9.1223,-27.0971 18.1296,-37.9358 7.9541,7.5242 16.3359,15.3622 20.3521,25.8494 10.0197,41.5232 -14.2702,90.2202 -55.4807,103.866 10.527,-19.416 32.6331,-31.2692 38.4033,-53.4537 2.963,-16.5702 -14.6206,-25.4593 -21.4054,-38.3259 z m -453.7127,-0.077 c 12.6721,-6.2775 23.5881,-15.1665 31.971,-26.5125 -2.4557,13.763 -6.2001,28.0719 -15.1279,39.2222 -10.9956,8.7344 -27.0971,11.6189 -33.9195,25.0702 -9.5919,15.9856 -11.2287,38.0916 -28.5792,48.3854 -12.5163,5.4586 -26.5124,6.8224 -40.0809,7.0567 11.0342,-15.3224 30.6448,-20.7423 43.6286,-34.1151 20.2737,-15.2451 18.1683,-47.488 42.1079,-59.1069 z m 1088.0207,-23.1991 c 3.9776,-5.1071 10.6043,-2.4944 15.7125,-1.1306 -4.2495,2.7685 -8.5785,5.4972 -12.944,8.1099 -2.3795,9.1621 -3.4703,22.4973 -14.9334,24.6027 -5.6928,2.7287 -11.0729,-1.3262 -15.0892,-4.9137 6.356,-1.1693 12.7893,-2.1441 19.1829,-3.3531 2.6524,-7.7198 2.2999,-16.999 8.0712,-23.3141 z m -1293.1789,12.7882 c 10.7602,1.4434 21.5204,11.4244 20.3522,22.9261 1.2853,9.981 -6.472,17.5063 -12.4379,24.4071 -10.7214,3.782 -18.3252,-8.3829 -26.5124,-13.2568 2.5728,-12.3207 6.8621,-27.4088 18.5981,-34.0764 z m 1039.011,33.4531 c 12.009,-8.5387 22.925,-18.8701 32.7115,-29.9043 -2.1054,17.5449 -12.1262,33.5304 -27.2928,42.7312 -13.7232,9.435 -27.6033,18.6755 -40.5086,29.2423 -9.5909,8.7719 -24.6414,0.2718 -33.9593,9.3952 -12.1637,8.7344 -23.0035,22.4575 -39.3007,22.4189 -10.5269,1.0532 -20.3908,-3.7422 -30.7232,-4.4838 -11.2288,1.3262 -20.9766,7.7596 -31.1908,12.1649 8.6946,-17.0388 22.7305,-31.308 39.6897,-40.1197 14.3874,-7.5639 30.5685,-0.4675 45.7351,-0.935 6.6665,-1.209 10.4872,-7.0179 14.698,-11.6973 -1.4036,-2.4171 -4.2108,-7.291 -5.6144,-9.7467 -4.717,-1.1704 -9.3964,-2.3784 -14.0746,-3.5875 7.9154,-12.7882 24.7187,-17.1935 38.9503,-15.6727 5.3414,-0.3128 9.7069,3.7422 11.4619,8.5376 -1.6367,6.7063 -4.1334,13.1783 -6.0045,19.8073 20.0803,-0.04 28.1891,-21.7171 45.4224,-28.1504 z m -547.988,9.9423 c 11.4642,-5.0695 18.6369,-15.6352 26.7479,-24.6016 -3.3145,21.8718 -13.4911,44.4851 -33.2199,56.104 -30.0977,17.8964 -65.3832,24.29 -99.7713,27.6431 -26.434,0.8577 -53.6494,3.4305 -79.3816,-4.0549 -8.2271,-2.1054 -14.5433,-8.5387 -18.9486,-15.5169 -3.4305,-19.1055 3.12,-38.0143 7.837,-56.3008 2.574,8.9289 2.0667,20.1974 11.2287,25.4217 23.2367,16.2187 52.9852,11.4619 79.6535,12.2422 36.2205,1.2091 72.9494,-5.6531 105.8543,-20.9368 z m 130.9245,5.6531 c 4.0163,-6.745 7.9541,-13.6072 13.0612,-19.573 -2.6889,38.1314 -33.5305,71.506 -71.5049,76.4573 17.0377,-21.1313 43.7458,-33.3736 58.4437,-56.8843 z m -407.1587,86.5156 c 7.6413,5.3414 15.5954,11.1116 19.4558,19.9631 1.6755,13.3331 -7.6424,24.3286 -16.7657,32.7115 -6.2377,-5.81 -14.8947,-9.9036 -18.8701,-17.5847 2.4955,-12.7882 10.4872,-23.5882 16.1789,-35.0899 z m -40.0411,3.6261 c 6.3548,3.6262 15.0881,5.8487 17.5051,13.6856 4.328,13.0225 -1.2091,30.216 -13.8801,36.1034 -7.4468,-3.0028 -14.425,-8.0701 -18.9872,-14.7378 1.0134,-13.0224 9.2792,-23.9395 15.3622,-35.0512 z m 1316.0651,1.7153 c 3.7046,0.2343 7.4468,0.5073 11.2288,0.7416 13.7243,13.4115 9.435,33.179 -0.8576,47.2149 -10.6441,0.7405 -18.3639,-7.1351 -24.7586,-14.5421 2.1452,-11.9703 9.7092,-22.263 14.3874,-33.4133 z m -1279.4943,98.7976 c 15.4396,-1.7937 33.2177,-2.9232 45.188,8.9676 17.0764,13.9973 15.4783,38.0142 13.9189,57.8602 -1.208,19.1817 -16.9603,38.6762 -37.2738,38.3645 -14.2691,1.0522 -31.1521,-0.1956 -40.5086,-12.5936 -12.3594,-17.1162 -14.2703,-40.0799 -9.3577,-60.159 2.8459,-14.5831 13.9973,-27.6829 28.0332,-32.4397 z m 11.0729,24.2126 c -18.0909,7.564 -15.8683,32.7502 -10.3711,48.1511 4.8739,14.4647 27.4475,10.7601 30.3729,-3.3145 2.4945,-13.4115 4.5998,-29.8645 -4.8352,-41.1331 -4.3666,-2.6513 -9.9423,-6.8621 -15.1666,-3.7035 z m 447.7083,-22.8863 c 13.217,1.8711 26.3168,-2.2613 39.6123,-1.2091 7.9928,23.471 12.1251,48.0737 20.6638,71.3888 7.4081,-22.6531 10.2927,-46.6314 19.0259,-68.8148 6.5892,-6.1217 18.2081,-0.8587 26.7081,-2.028 -8.8891,34.8953 -20.9754,68.932 -31.5809,103.3598 -9.9025,0.039 -19.8061,0.1161 -29.7098,0.3891 -10.7612,-32.3601 -20.0791,-65.2274 -31.7754,-97.3156 -1.2864,-0.6233 -3.9378,-1.8324 -5.2253,-2.4569 -3.0791,5.6542 -2.2215,12.2036 -2.3784,18.4037 -13.6845,0.077 -27.4088,-0.4288 -41.1331,0.077 -7.291,1.5992 -3.1178,10.7226 -3.8195,15.7899 13.9574,0.1956 27.9149,-0.1945 41.8348,0.8189 -0.1171,6.6279 -0.2343,13.2568 -0.273,19.8847 -13.8801,1.4422 -27.8387,1.1306 -41.7188,1.0919 0.9361,6.2764 -3.898,16.999 4.328,19.689 13.9585,0.8576 27.9547,0.1172 41.952,0.1172 -0.039,7.9927 -0.1559,16.0242 -0.2343,24.0556 -24.1728,-0.8576 -48.3456,-0.7018 -72.5195,-0.273 -3.1575,-34.5052 -0.4664,-69.2823 -1.1682,-103.9047 22.4576,0.1171 45.0311,-1.2865 67.4102,0.9361 z m 309.4143,-1.1306 c 14.4648,-1.2876 31.3853,-3.5875 43.044,7.0953 20.4306,16.3756 18.3627,46.1241 14.3863,69.2448 -9.2395,34.8556 -64.3311,39.9627 -80.8239,8.6161 -9.4351,-19.962 -9.2008,-44.0961 -0.7007,-64.3709 4.0925,-10.3314 13.8403,-17.1935 24.0943,-20.5853 z m 7.4081,25.226 c -12.5539,7.6413 -10.8397,25.3808 -9.981,38.1303 0.7405,11.6189 11.8919,22.1071 23.744,16.8818 14.3089,-7.4855 11.2287,-26.1224 10.7601,-39.4565 0.1957,-11.5791 -14.0746,-22.4575 -24.5231,-15.5556 z m 156.1892,-25.499 c 11.6576,0.4288 23.3152,0.1945 34.9728,-0.2343 3.6261,20.2736 9.8251,39.9638 13.2556,60.2761 6.5118,-19.1817 9.0449,-39.3393 13.5287,-58.9897 12.0875,-1.0134 24.2513,-1.1693 36.299,0.273 -0.7405,34.2323 -0.079,68.5032 -0.4288,102.7752 -6.9009,0.1548 -13.763,0.3504 -20.5854,0.7018 -3.509,-24.1739 -0.4288,-48.6583 -2.028,-72.9482 -6.472,24.0943 -10.0981,48.8528 -16.9603,72.8698 -6.7439,-0.3902 -13.49,-0.7405 -20.1963,-1.1306 -4.2097,-22.7306 -8.6934,-45.4997 -14.7764,-67.8014 -0.5847,22.7305 -0.077,45.4997 -0.8577,68.2302 -7.5639,0.039 -15.088,-0.079 -22.5746,-0.3902 0.1956,-34.5439 -0.5062,-69.0878 0.3503,-103.6317 z m -1229.1218,0.5459 c 23.9396,0.1559 48.035,-1.5605 71.8961,1.0135 -0.273,7.1351 -0.4686,14.2692 -0.6233,21.4441 -13.6856,0.3503 -27.3325,-0.273 -40.9773,0.4288 -6.8234,1.7539 -3.236,10.5656 -4.3666,15.5556 13.9177,0.1569 27.8365,0.1171 41.7167,0.2741 0.0784,7.0953 0.0397,14.2304 -0.0376,21.3656 -13.8028,0 -27.6431,0.039 -41.4459,0.3116 -0.1171,6.3947 -0.1558,12.7882 -0.1956,19.2602 15.5578,0.6631 31.0747,0.4686 46.6314,0.4288 -0.0773,7.9541 -0.2343,15.9071 -0.3127,23.8612 -24.017,-0.6234 -48.0328,-0.546 -72.0122,0.1558 -1.6368,-34.6998 -0.8963,-69.3995 -0.273,-104.0993 z m 82.2662,0.2332 c 8.7343,-0.4288 17.4675,-0.9747 26.2395,-0.5061 8.5785,8.7719 12.2433,20.9367 17.5449,31.7754 4.1732,-7.9928 7.9552,-16.1801 12.0477,-24.1728 4.9911,-13.0225 22.1845,-6.1217 32.7513,-6.5505 -7.4866,17.3106 -19.4171,32.4783 -26.0063,50.1006 7.9928,18.1683 21.5225,33.6863 27.253,52.9078 -8.772,-0.078 -17.5826,0.3902 -26.3169,-0.4675 -10.4098,-6.0432 -10.5656,-22.6531 -21.0153,-28.3449 -6.1603,9.0063 -9.9025,19.4161 -16.4519,28.1493 -9.8251,1.1704 -19.7674,0.3515 -29.5926,0 8.4989,-17.9737 19.8448,-34.4654 28.4996,-52.322 -4.8728,-18.0523 -19.6105,-32.3612 -24.953,-50.5693 z m 99.4994,-0.2332 c 16.0253,-0.3116 32.0495,-0.7018 48.035,-0.1569 11.8134,0.3901 24.2126,8.5387 25.1874,21.1324 1.6754,13.1396 2.5717,29.9441 -9.7876,38.443 -9.6296,9.0847 -23.9385,5.1071 -35.8293,6.5505 -0.2354,12.3981 -0.2354,24.8359 -0.273,37.234 -9.2018,0.3116 -18.365,0.3116 -27.5657,0.2343 0.1956,-34.4666 -0.4288,-68.9718 0.2332,-103.4373 z m 28.6963,21.3259 c -0.3514,7.0577 -3.7046,15.2063 0.4288,21.717 5.0685,4.3279 11.6974,-0.9748 17.3892,-1.1306 -0.1957,-6.3549 -0.4686,-12.7097 -0.9748,-19.0259 -5.6144,-0.546 -11.2288,-1.0919 -16.8432,-1.5594 z m 161.1405,-20.7412 c 21.9503,-0.5847 44.7592,-3.4703 66.1635,2.5342 16.064,8.1873 13.2955,27.7602 11.347,42.5754 -4.991,3.9378 -10.0605,7.7595 -15.2837,11.463 11.3459,13.1397 18.4015,29.3197 22.5349,46.1242 -9.3566,0.1547 -18.7153,0.9747 -27.9945,0.039 -10.2142,-13.2954 -12.1638,-31.4637 -24.4071,-43.5899 -8.7322,12.8667 -3.0802,29.4755 -4.99,44.0961 -8.9675,-0.1171 -17.8964,-0.1171 -26.8639,-0.039 -0.935,-34.3881 0.5084,-68.8148 -0.5062,-103.2029 z m 27.8,21.1711 c -0.0795,6.7836 -0.0795,13.5673 -0.001,20.3908 7.4855,-0.8576 16.3359,0.8576 22.2631,-4.9911 0.8178,-4.2108 1.4036,-8.4215 1.8324,-12.671 -7.837,-2.2612 -15.9855,-2.7685 -24.0955,-2.7287 z m 60.705,-21.9127 c 26.9026,-0.1945 53.8439,-0.116 80.7454,0.1172 0.4288,8.5785 0.8576,17.1559 1.0135,25.772 -9.2019,0.1945 -18.4026,0.2343 -27.5647,0.1558 -2.2612,26.0052 -0.2729,52.0888 -1.3649,78.1725 -8.3817,-0.273 -16.8033,-0.3514 -25.1873,-0.1558 -3.4692,-25.9279 -1.2478,-52.1287 -1.87,-78.1725 -9.0073,0.1171 -18.0533,0.1558 -27.0982,0.039 0.1945,-8.6558 0.7018,-17.3106 1.3251,-25.9278 z m 133.7693,1.2489 c 19.2613,-1.5219 39.536,-3.8218 58.2116,2.2601 18.4413,7.7982 22.1448,30.3729 22.8079,48.1522 0.389,19.5718 -5.7702,44.7592 -27.4873,50.3736 -17.5449,3.4305 -35.7143,0.7404 -53.4527,1.9484 -0.1171,-34.2311 0.0376,-68.4634 -0.0795,-102.7343 z m 27.0982,23.7428 c 0.0785,18.2468 -0.1172,36.4548 -0.1569,54.7016 8.2281,0.7018 19.1839,1.2091 23.1217,-7.8358 4.2882,-12.8667 4.9126,-27.9161 -0.9748,-40.3153 -3.8604,-8.5376 -14.583,-5.4187 -21.99,-6.5494 z m 249.9958,-23.5881 c 24.3673,-2.3784 49.1645,-2.4557 73.4931,-0.039 -0.1547,7.0567 -0.1547,14.1531 0,21.2496 -14.7377,0.2718 -29.4755,-0.3515 -44.1734,0.3901 -3.0017,4.444 -1.9894,10.1755 -2.9244,15.2439 14.309,0.546 28.6179,0.546 42.9655,0.7018 0,7.018 -0.078,14.0747 -0.1558,21.1324 -13.8017,0.3504 -27.5657,0.4288 -41.3674,0.3504 -0.2332,6.472 -0.3503,12.944 -0.389,19.4558 15.5567,0.5062 31.1907,0.3503 46.7861,0.5062 -0.1945,7.7982 -0.273,15.5965 -0.3901,23.4323 -24.5629,-0.1559 -49.0872,-0.039 -73.6114,0.039 0.079,-34.1538 0.4288,-68.3463 -0.2332,-102.4625 z m 88.6995,-1.0521 c 8.9675,-0.3117 17.8953,-0.4675 26.8628,-0.4289 0.3515,25.9666 -0.1558,51.9718 0.1559,77.9769 14.1531,0.079 28.3062,-0.116 42.4593,0.7018 0.2343,8.1884 0.3514,16.4155 0.4675,24.6801 -23.3152,0.7803 -46.669,0.819 -69.9455,-0.1171 0,-34.271 -0.3901,-68.5419 0,-102.8128 z m 181.2981,-0.2343 c 18.0522,0.3901 36.5322,-2.1441 54.3114,1.482 23.3152,5.6929 24.5231,37.3124 12.8656,53.9213 -9.2395,12.9827 -26.3954,9.6306 -40.081,10.6828 -0.3492,12.3594 -0.3503,24.6801 -0.1547,37.0394 -9.046,0.4686 -18.1307,0.5073 -27.1756,0.3902 0.1956,-34.5053 -0.6233,-69.0105 0.2332,-103.5157 z m 27.0187,22.6144 c -0.2332,6.8224 -0.3902,13.6845 -0.6632,20.5467 7.7596,2.7674 18.5198,0.935 21.054,-8.0713 -0.3106,-4.7954 -2.8459,-9.0449 -4.6783,-13.3341 -5.2243,0.2343 -10.4883,0.5073 -15.7125,0.8587 z m 174.9045,-21.4054 c 18.6358,-2.5729 37.5445,-1.0919 56.2986,-1.5207 5.6154,0.546 13.6856,-1.6368 16.6486,4.9126 0.1956,5.8873 0.2332,11.7747 0.1558,17.6621 -15.2052,0.3514 -30.4116,0.3116 -45.6555,0.5073 -0.273,5.107 -0.546,10.2141 -0.819,15.361 14.2703,0.5847 28.5394,0.5847 42.8484,0.5073 -0.077,7.1738 -0.1558,14.3863 -0.273,21.5988 -14.152,-0.039 -28.2664,-0.077 -42.3808,0.4299 0.078,6.0819 0.1171,12.2025 0.078,18.3639 15.6739,1.8711 31.5025,1.0522 47.2548,1.208 -0.1172,7.8369 -0.1559,15.7512 -0.1559,23.6268 -24.5629,-0.5448 -49.1656,-0.1558 -73.7285,-0.3117 -0.1558,-34.1151 0.6233,-68.2302 -0.273,-102.3453 z m 88.7769,-0.7791 c 8.8117,0.5835 20.0791,-3.9776 27.2131,2.8072 10.9569,15.8683 17.156,34.6997 29.9441,49.4375 1.365,-17.545 0.7018,-35.1297 0.9748,-52.7133 8.3442,-0.1945 16.6487,-0.079 24.9918,0.273 -0.273,34.661 0.2729,69.2834 -0.1946,103.9445 -9.4748,-1.9496 -23.7063,4.5611 -28.7737,-6.472 -9.6693,-15.6739 -17.3117,-32.5955 -28.2675,-47.4106 -1.482,17.6223 -0.662,35.3231 -0.7018,53.025 -8.4602,0.3503 -16.9603,0.3503 -25.3818,-0.2741 0.078,-34.1925 0.039,-68.4248 0.1945,-102.6172 z m 94.1967,0.7018 c 27.3701,-2.3397 55.0132,-1.7164 82.3833,-0.4686 -0.1171,8.4602 -0.1956,16.9603 -0.3901,25.4603 -8.9676,-0.079 -17.9738,-0.079 -26.9026,0.1161 -0.2719,25.8891 0.039,51.7771 -0.2343,77.6663 -8.3818,-0.1569 -16.7249,-0.1569 -25.0691,0.1172 -3.3521,-25.6162 -1.092,-51.544 -1.4036,-77.2376 -9.2792,-0.6233 -18.5971,-0.8576 -27.8763,-1.0134 0,-8.2271 -0.157,-16.4531 -0.5073,-24.6403 z M 597.6166,1861.0796 c 20.3908,0.2718 40.9761,-1.5993 61.2509,1.0134 8.8117,4.5225 17.6621,13.1783 15.9457,24.017 1.8324,9.981 -6.0808,16.8818 -12.1637,23.4323 20.8981,8.7332 21.1313,42.6925 0.3503,51.66 -21.0539,7.2125 -43.706,1.8324 -65.4219,4.0937 -0.5073,-34.7385 -0.6244,-69.478 0.0376,-104.2164 z m 27.2132,24.68 c 0.0397,5.1845 0.2343,10.4098 0.5846,15.6341 6.7848,-0.3901 13.6071,-0.7803 20.3919,-1.2091 0.7416,-5.6144 0.8974,-11.2674 -0.5459,-16.726 -6.6279,0.9361 -15.1666,-2.7685 -20.4306,2.301 z m 0.3912,35.4403 c 0.1934,6.6278 -1.639,13.6458 1.0521,19.962 10.1369,3.4316 20.0792,-0.7405 27.2928,-7.953 -4.7966,-12.4379 -16.883,-12.6324 -28.3449,-12.009 z m 88.8155,-60.3546 c 10.1755,-0.039 20.3522,0.039 30.5277,0.4288 10.4894,34.7395 21.4827,69.3221 32.7513,103.8273 -9.9423,0.039 -19.8836,0.6234 -29.8259,0.935 8.8493,-1.3251 17.934,-1.5207 26.5125,-4.1323 -8.6172,0.273 -17.2344,1.0135 -25.8892,0.9748 -2.5342,-5.264 -2.9243,-12.3207 -8.1883,-15.7125 -8.1088,-0.5073 -16.2961,-0.1957 -24.4071,-0.1957 -2.0656,5.2254 -4.0539,10.4883 -5.925,15.791 -8.9288,0.3902 -17.8577,0.546 -26.7865,0.8577 7.4092,-35.0501 20.3145,-68.6977 31.2305,-102.7741 z m 14.1531,31.4637 c -3.5863,10.4098 -5.9647,21.1711 -7.8756,32.0097 5.6531,0 11.2675,0 16.9216,0.04 -2.301,-10.8784 -3.3542,-22.3028 -9.046,-32.0495 z m 56.807,-31.3853 c 8.773,-0.04 17.5438,0 26.3566,0.077 10.0584,19.0657 21.3269,37.4296 31.9699,56.1825 -0.5073,-18.8701 -0.389,-37.7799 -0.3116,-56.65 8.1883,0.1945 16.3745,0.2332 24.6027,0.2332 0.116,34.8567 1.0123,69.7907 -0.6642,104.6463 -7.7574,-0.3901 -15.4772,-0.5073 -23.1969,-0.4288 -11.2686,-18.481 -22.0288,-37.234 -32.7513,-55.988 -0.8975,18.0909 -0.3504,36.2592 -1.092,54.3899 -8.5,-0.078 -16.999,-0.04 -25.499,-0.078 0.8974,-34.1538 0,-68.27 0.5847,-102.384 z m 156.8125,1.4036 c 11.4631,-3.2758 23.9396,-0.7803 35.7917,-1.2091 -9.2792,13.8802 -20.7025,26.1224 -30.1386,39.8854 11.5017,20.2349 21.6772,41.1717 31.2294,62.3826 -11.3061,0 -22.5736,-0.1172 -33.8421,-0.5073 -4.99,-13.49 -10.0584,-27.0198 -17.1161,-39.5737 -11.735,10.254 -15.9855,24.6801 -14.0736,39.8854 -8.8117,-0.078 -17.6632,-0.1172 -26.4749,-0.039 -0.8178,-34.0378 0.1172,-68.0744 -0.3503,-102.0723 9.0847,-0.273 18.1683,-0.1957 27.2143,0.5846 -0.2332,11.3846 -0.3515,22.7692 0.5857,34.1151 11.1492,-9.435 17.272,-23.0035 27.1745,-33.452 z m 111.7815,-0.6244 c 17.0376,-7.2523 38.0131,-2.5729 50.8797,10.5656 8.9289,10.0982 12.008,24.0181 11.5791,37.2351 0.273,15.9855 -1.0521,34.9727 -14.2702,46.0059 -12.9429,11.6973 -32.3987,12.5152 -48.3058,7.4865 -20.508,-6.3548 -28.735,-29.9827 -27.3701,-49.6331 -1.9496,-20.4306 6.7837,-44.3691 27.4862,-51.66 z m 11.5791,21.5612 c -4.328,5.6531 -11.6189,10.254 -11.3846,18.2069 -0.4675,11.7748 -2.6127,25.5775 5.653,35.3629 5.1856,3.509 12.1638,7.564 18.1296,3.236 13.2568,-5.5359 11.3846,-22.925 11.073,-34.7384 1.0134,-13.101 -10.4883,-24.017 -23.471,-22.0674 z m 65.5401,-22.6145 c 21.8729,0.4686 43.706,0.157 65.5789,0.1172 0.7018,7.4866 1.0532,15.0107 1.3262,22.5747 -13.1009,0.1171 -26.2008,0.078 -39.3007,0.2729 -0.04,5.6929 -0.078,11.3846 -0.1569,17.0775 11.0729,0.3503 22.1459,0.3901 33.2188,0.6233 0.079,6.8235 0.1945,13.6856 0.3515,20.5865 -11.1901,0.1558 -22.3802,0.1945 -33.5703,0.2729 0.1569,13.7243 0.1569,27.4873 -0.116,41.2116 -9.1234,-0.1956 -18.2468,-0.157 -27.3315,0.039 0.273,-34.271 -0.039,-68.5032 0,-102.7753 z m 122.4245,0.43 c 8.8902,-0.1172 17.8566,-0.1559 26.7855,-0.1957 0.6233,34.0765 -0.273,68.2302 0.2343,102.3453 -9.1234,-0.039 -18.2081,0 -27.2928,-0.1171 0.3901,-33.998 -0.1956,-68.0346 0.273,-102.0325 z m 47.8394,-0.3128 c 19.962,0.7018 40.0798,-1.208 59.9645,1.2864 24.7972,7.2921 23.5494,47.4106 -0.077,55.7935 12.8269,12.671 19.5321,29.9828 24.4844,46.9431 -10.5656,0.116 -21.0152,-1.1704 -31.4637,-2.2624 -7.2523,-14.5808 -9.7091,-34.9329 -26.2793,-41.9907 -0.8963,14.1918 -0.7405,28.4234 -0.6233,42.6152 -8.9278,0.039 -17.8566,0.077 -26.7855,0.1171 0,-34.1549 -1.7152,-68.4258 0.7803,-102.5022 z m 26.318,21.7557 c -0.1172,6.7063 -0.1957,13.4126 -0.1957,20.1963 7.4468,-0.389 15.8297,1.0533 22.1459,-3.9765 2.2612,-4.3666 1.481,-9.3576 0.1558,-13.8016 -6.8234,-3.2758 -14.8162,-1.5992 -22.1071,-2.4182 z m 162.7386,-21.9502 c 8.6945,0.3901 17.5836,-0.4675 26.1223,1.6765 10.9956,16.1027 17.6234,35.1286 31.3864,49.3204 1.1693,-16.8818 0.5835,-33.8023 0.7405,-50.6853 8.1883,0.078 16.3756,0.04 24.6016,-0.077 1.0532,33.8421 -1.6368,67.84 1.9097,101.6037 -7.3672,4.9126 -17.1537,1.6379 -25.4979,2.7298 -11.9305,-18.1296 -22.3404,-37.1566 -32.9845,-56.0266 -1.4036,18.0124 -1.1704,36.1033 -1.6379,54.1555 -8.3431,-0.1171 -16.6475,-0.1569 -24.953,-0.04 0.8587,-34.2311 0.1558,-68.4634 0.3128,-102.6569 z m -72.0896,0.7791 c 10.3314,-0.4675 20.6627,-0.5448 30.9565,-0.077 9.319,34.2322 21.5988,67.6068 31.1123,101.7993 -8.8493,0.039 -17.7008,0 -26.5512,0.079 -2.4944,-5.4199 -4.8728,-10.8784 -7.291,-16.2972 -8.0314,0.116 -16.1026,-0.1558 -24.0954,0.4288 -5.8078,3.0802 -6.6665,10.3314 -9.5124,15.6739 -8.9288,0.2718 -17.8179,0.4288 -26.7468,0.662 9.4749,-34.4655 21.4441,-68.1915 32.1269,-102.268 z m 14.5421,28.7351 c -3.236,11.3845 -5.8486,22.8863 -8.227,34.4665 5.7315,-0.1945 11.5017,-0.3514 17.2719,-0.4675 -2.1827,-11.5415 -5.1855,-22.8863 -9.0449,-33.999 z" />
</svg>
